<?xml version="1.0" encoding="utf-8" standalone="no"?>
<!DOCTYPE svg PUBLIC "-//W3C//DTD SVG 1.1//EN"
  "http://www.w3.org/Graphics/SVG/1.1/DTD/svg11.dtd">
<svg xmlns:xlink="http://www.w3.org/1999/xlink" width="619.2pt" height="374.4pt" viewBox="0 0 619.2 374.4" xmlns="http://www.w3.org/2000/svg" version="1.1">
 <metadata>
  <rdf:RDF xmlns:dc="http://purl.org/dc/elements/1.1/" xmlns:cc="http://creativecommons.org/ns#" xmlns:rdf="http://www.w3.org/1999/02/22-rdf-syntax-ns#">
   <cc:Work>
    <dc:type rdf:resource="http://purl.org/dc/dcmitype/StillImage"/>
    <dc:date>2026-07-02T13:04:58.397368</dc:date>
    <dc:format>image/svg+xml</dc:format>
    <dc:creator>
     <cc:Agent>
      <dc:title>Matplotlib v3.10.8, https://matplotlib.org/</dc:title>
     </cc:Agent>
    </dc:creator>
   </cc:Work>
  </rdf:RDF>
 </metadata>
 <defs>
  <style type="text/css">*{stroke-linejoin: round; stroke-linecap: butt}</style>
 </defs>
 <g id="figure_1">
  <g id="patch_1">
   <path d="M 0 374.4 
L 619.2 374.4 
L 619.2 0 
L 0 0 
z
" style="fill: #ffffff"/>
  </g>
  <g id="axes_1">
   <g id="patch_2">
    <path d="M 65.018 331.486 
L 608.4 331.486 
L 608.4 26.88 
L 65.018 26.88 
z
" style="fill: #ffffff"/>
   </g>
   <g id="patch_3">
    <path d="M 65.018 331.486 
L 608.4 331.486 
L 608.4 290.871867 
L 65.018 290.871867 
z
" clip-path="url(#p814b45186c)" style="fill: #d1d1d1; stroke: #d1d1d1; stroke-linejoin: miter"/>
   </g>
   <g id="patch_4">
    <path d="M 65.018 66.532932 
L 608.4 66.532932 
L 608.4 26.88 
L 65.018 26.88 
z
" clip-path="url(#p814b45186c)" style="fill: #d1d1d1; stroke: #d1d1d1; stroke-linejoin: miter"/>
   </g>
   <g id="matplotlib.axis_1">
    <g id="xtick_1">
     <g id="line2d_1">
      <defs>
       <path id="m64a93f461d" d="M 0 0 
L 0 3.5 
" style="stroke: #000000; stroke-width: 0.8"/>
      </defs>
      <g>
       <use xlink:href="#m64a93f461d" x="150.4066" y="331.486" style="stroke: #000000; stroke-width: 0.8"/>
      </g>
     </g>
     <g id="text_1">
      <!-- supercell DFT -->
      <g transform="translate(118.246873 345.704516) scale(0.095 -0.095)">
       <defs>
        <path id="DejaVuSans-73" d="M 2834 3397 
L 2834 2853 
Q 2591 2978 2328 3040 
Q 2066 3103 1784 3103 
Q 1356 3103 1142 2972 
Q 928 2841 928 2578 
Q 928 2378 1081 2264 
Q 1234 2150 1697 2047 
L 1894 2003 
Q 2506 1872 2764 1633 
Q 3022 1394 3022 966 
Q 3022 478 2636 193 
Q 2250 -91 1575 -91 
Q 1294 -91 989 -36 
Q 684 19 347 128 
L 347 722 
Q 666 556 975 473 
Q 1284 391 1588 391 
Q 1994 391 2212 530 
Q 2431 669 2431 922 
Q 2431 1156 2273 1281 
Q 2116 1406 1581 1522 
L 1381 1569 
Q 847 1681 609 1914 
Q 372 2147 372 2553 
Q 372 3047 722 3315 
Q 1072 3584 1716 3584 
Q 2034 3584 2315 3537 
Q 2597 3491 2834 3397 
z
" transform="scale(0.015625)"/>
        <path id="DejaVuSans-75" d="M 544 1381 
L 544 3500 
L 1119 3500 
L 1119 1403 
Q 1119 906 1312 657 
Q 1506 409 1894 409 
Q 2359 409 2629 706 
Q 2900 1003 2900 1516 
L 2900 3500 
L 3475 3500 
L 3475 0 
L 2900 0 
L 2900 538 
Q 2691 219 2414 64 
Q 2138 -91 1772 -91 
Q 1169 -91 856 284 
Q 544 659 544 1381 
z
M 1991 3584 
L 1991 3584 
z
" transform="scale(0.015625)"/>
        <path id="DejaVuSans-70" d="M 1159 525 
L 1159 -1331 
L 581 -1331 
L 581 3500 
L 1159 3500 
L 1159 2969 
Q 1341 3281 1617 3432 
Q 1894 3584 2278 3584 
Q 2916 3584 3314 3078 
Q 3713 2572 3713 1747 
Q 3713 922 3314 415 
Q 2916 -91 2278 -91 
Q 1894 -91 1617 61 
Q 1341 213 1159 525 
z
M 3116 1747 
Q 3116 2381 2855 2742 
Q 2594 3103 2138 3103 
Q 1681 3103 1420 2742 
Q 1159 2381 1159 1747 
Q 1159 1113 1420 752 
Q 1681 391 2138 391 
Q 2594 391 2855 752 
Q 3116 1113 3116 1747 
z
" transform="scale(0.015625)"/>
        <path id="DejaVuSans-65" d="M 3597 1894 
L 3597 1613 
L 953 1613 
Q 991 1019 1311 708 
Q 1631 397 2203 397 
Q 2534 397 2845 478 
Q 3156 559 3463 722 
L 3463 178 
Q 3153 47 2828 -22 
Q 2503 -91 2169 -91 
Q 1331 -91 842 396 
Q 353 884 353 1716 
Q 353 2575 817 3079 
Q 1281 3584 2069 3584 
Q 2775 3584 3186 3129 
Q 3597 2675 3597 1894 
z
M 3022 2063 
Q 3016 2534 2758 2815 
Q 2500 3097 2075 3097 
Q 1594 3097 1305 2825 
Q 1016 2553 972 2059 
L 3022 2063 
z
" transform="scale(0.015625)"/>
        <path id="DejaVuSans-72" d="M 2631 2963 
Q 2534 3019 2420 3045 
Q 2306 3072 2169 3072 
Q 1681 3072 1420 2755 
Q 1159 2438 1159 1844 
L 1159 0 
L 581 0 
L 581 3500 
L 1159 3500 
L 1159 2956 
Q 1341 3275 1631 3429 
Q 1922 3584 2338 3584 
Q 2397 3584 2469 3576 
Q 2541 3569 2628 3553 
L 2631 2963 
z
" transform="scale(0.015625)"/>
        <path id="DejaVuSans-63" d="M 3122 3366 
L 3122 2828 
Q 2878 2963 2633 3030 
Q 2388 3097 2138 3097 
Q 1578 3097 1268 2742 
Q 959 2388 959 1747 
Q 959 1106 1268 751 
Q 1578 397 2138 397 
Q 2388 397 2633 464 
Q 2878 531 3122 666 
L 3122 134 
Q 2881 22 2623 -34 
Q 2366 -91 2075 -91 
Q 1284 -91 818 406 
Q 353 903 353 1747 
Q 353 2603 823 3093 
Q 1294 3584 2113 3584 
Q 2378 3584 2631 3529 
Q 2884 3475 3122 3366 
z
" transform="scale(0.015625)"/>
        <path id="DejaVuSans-6c" d="M 603 4863 
L 1178 4863 
L 1178 0 
L 603 0 
L 603 4863 
z
" transform="scale(0.015625)"/>
        <path id="DejaVuSans-20" transform="scale(0.015625)"/>
        <path id="DejaVuSans-44" d="M 1259 4147 
L 1259 519 
L 2022 519 
Q 2988 519 3436 956 
Q 3884 1394 3884 2338 
Q 3884 3275 3436 3711 
Q 2988 4147 2022 4147 
L 1259 4147 
z
M 628 4666 
L 1925 4666 
Q 3281 4666 3915 4102 
Q 4550 3538 4550 2338 
Q 4550 1131 3912 565 
Q 3275 0 1925 0 
L 628 0 
L 628 4666 
z
" transform="scale(0.015625)"/>
        <path id="DejaVuSans-46" d="M 628 4666 
L 3309 4666 
L 3309 4134 
L 1259 4134 
L 1259 2759 
L 3109 2759 
L 3109 2228 
L 1259 2228 
L 1259 0 
L 628 0 
L 628 4666 
z
" transform="scale(0.015625)"/>
        <path id="DejaVuSans-54" d="M -19 4666 
L 3928 4666 
L 3928 4134 
L 2272 4134 
L 2272 0 
L 1638 0 
L 1638 4134 
L -19 4134 
L -19 4666 
z
" transform="scale(0.015625)"/>
       </defs>
       <use xlink:href="#DejaVuSans-73"/>
       <use xlink:href="#DejaVuSans-75" transform="translate(52.099609 0)"/>
       <use xlink:href="#DejaVuSans-70" transform="translate(115.478516 0)"/>
       <use xlink:href="#DejaVuSans-65" transform="translate(178.955078 0)"/>
       <use xlink:href="#DejaVuSans-72" transform="translate(240.478516 0)"/>
       <use xlink:href="#DejaVuSans-63" transform="translate(279.341797 0)"/>
       <use xlink:href="#DejaVuSans-65" transform="translate(334.322266 0)"/>
       <use xlink:href="#DejaVuSans-6c" transform="translate(395.845703 0)"/>
       <use xlink:href="#DejaVuSans-6c" transform="translate(423.628906 0)"/>
       <use xlink:href="#DejaVuSans-20" transform="translate(451.412109 0)"/>
       <use xlink:href="#DejaVuSans-44" transform="translate(483.199219 0)"/>
       <use xlink:href="#DejaVuSans-46" transform="translate(560.201172 0)"/>
       <use xlink:href="#DejaVuSans-54" transform="translate(615.970703 0)"/>
      </g>
      <!-- (ground truth) -->
      <g transform="translate(116.689022 356.342438) scale(0.095 -0.095)">
       <defs>
        <path id="DejaVuSans-28" d="M 1984 4856 
Q 1566 4138 1362 3434 
Q 1159 2731 1159 2009 
Q 1159 1288 1364 580 
Q 1569 -128 1984 -844 
L 1484 -844 
Q 1016 -109 783 600 
Q 550 1309 550 2009 
Q 550 2706 781 3412 
Q 1013 4119 1484 4856 
L 1984 4856 
z
" transform="scale(0.015625)"/>
        <path id="DejaVuSans-67" d="M 2906 1791 
Q 2906 2416 2648 2759 
Q 2391 3103 1925 3103 
Q 1463 3103 1205 2759 
Q 947 2416 947 1791 
Q 947 1169 1205 825 
Q 1463 481 1925 481 
Q 2391 481 2648 825 
Q 2906 1169 2906 1791 
z
M 3481 434 
Q 3481 -459 3084 -895 
Q 2688 -1331 1869 -1331 
Q 1566 -1331 1297 -1286 
Q 1028 -1241 775 -1147 
L 775 -588 
Q 1028 -725 1275 -790 
Q 1522 -856 1778 -856 
Q 2344 -856 2625 -561 
Q 2906 -266 2906 331 
L 2906 616 
Q 2728 306 2450 153 
Q 2172 0 1784 0 
Q 1141 0 747 490 
Q 353 981 353 1791 
Q 353 2603 747 3093 
Q 1141 3584 1784 3584 
Q 2172 3584 2450 3431 
Q 2728 3278 2906 2969 
L 2906 3500 
L 3481 3500 
L 3481 434 
z
" transform="scale(0.015625)"/>
        <path id="DejaVuSans-6f" d="M 1959 3097 
Q 1497 3097 1228 2736 
Q 959 2375 959 1747 
Q 959 1119 1226 758 
Q 1494 397 1959 397 
Q 2419 397 2687 759 
Q 2956 1122 2956 1747 
Q 2956 2369 2687 2733 
Q 2419 3097 1959 3097 
z
M 1959 3584 
Q 2709 3584 3137 3096 
Q 3566 2609 3566 1747 
Q 3566 888 3137 398 
Q 2709 -91 1959 -91 
Q 1206 -91 779 398 
Q 353 888 353 1747 
Q 353 2609 779 3096 
Q 1206 3584 1959 3584 
z
" transform="scale(0.015625)"/>
        <path id="DejaVuSans-6e" d="M 3513 2113 
L 3513 0 
L 2938 0 
L 2938 2094 
Q 2938 2591 2744 2837 
Q 2550 3084 2163 3084 
Q 1697 3084 1428 2787 
Q 1159 2491 1159 1978 
L 1159 0 
L 581 0 
L 581 3500 
L 1159 3500 
L 1159 2956 
Q 1366 3272 1645 3428 
Q 1925 3584 2291 3584 
Q 2894 3584 3203 3211 
Q 3513 2838 3513 2113 
z
" transform="scale(0.015625)"/>
        <path id="DejaVuSans-64" d="M 2906 2969 
L 2906 4863 
L 3481 4863 
L 3481 0 
L 2906 0 
L 2906 525 
Q 2725 213 2448 61 
Q 2172 -91 1784 -91 
Q 1150 -91 751 415 
Q 353 922 353 1747 
Q 353 2572 751 3078 
Q 1150 3584 1784 3584 
Q 2172 3584 2448 3432 
Q 2725 3281 2906 2969 
z
M 947 1747 
Q 947 1113 1208 752 
Q 1469 391 1925 391 
Q 2381 391 2643 752 
Q 2906 1113 2906 1747 
Q 2906 2381 2643 2742 
Q 2381 3103 1925 3103 
Q 1469 3103 1208 2742 
Q 947 2381 947 1747 
z
" transform="scale(0.015625)"/>
        <path id="DejaVuSans-74" d="M 1172 4494 
L 1172 3500 
L 2356 3500 
L 2356 3053 
L 1172 3053 
L 1172 1153 
Q 1172 725 1289 603 
Q 1406 481 1766 481 
L 2356 481 
L 2356 0 
L 1766 0 
Q 1100 0 847 248 
Q 594 497 594 1153 
L 594 3053 
L 172 3053 
L 172 3500 
L 594 3500 
L 594 4494 
L 1172 4494 
z
" transform="scale(0.015625)"/>
        <path id="DejaVuSans-68" d="M 3513 2113 
L 3513 0 
L 2938 0 
L 2938 2094 
Q 2938 2591 2744 2837 
Q 2550 3084 2163 3084 
Q 1697 3084 1428 2787 
Q 1159 2491 1159 1978 
L 1159 0 
L 581 0 
L 581 4863 
L 1159 4863 
L 1159 2956 
Q 1366 3272 1645 3428 
Q 1925 3584 2291 3584 
Q 2894 3584 3203 3211 
Q 3513 2838 3513 2113 
z
" transform="scale(0.015625)"/>
        <path id="DejaVuSans-29" d="M 513 4856 
L 1013 4856 
Q 1481 4119 1714 3412 
Q 1947 2706 1947 2009 
Q 1947 1309 1714 600 
Q 1481 -109 1013 -844 
L 513 -844 
Q 928 -128 1133 580 
Q 1338 1288 1338 2009 
Q 1338 2731 1133 3434 
Q 928 4138 513 4856 
z
" transform="scale(0.015625)"/>
       </defs>
       <use xlink:href="#DejaVuSans-28"/>
       <use xlink:href="#DejaVuSans-67" transform="translate(39.013672 0)"/>
       <use xlink:href="#DejaVuSans-72" transform="translate(102.490234 0)"/>
       <use xlink:href="#DejaVuSans-6f" transform="translate(141.353516 0)"/>
       <use xlink:href="#DejaVuSans-75" transform="translate(202.535156 0)"/>
       <use xlink:href="#DejaVuSans-6e" transform="translate(265.914062 0)"/>
       <use xlink:href="#DejaVuSans-64" transform="translate(329.292969 0)"/>
       <use xlink:href="#DejaVuSans-20" transform="translate(392.769531 0)"/>
       <use xlink:href="#DejaVuSans-74" transform="translate(424.556641 0)"/>
       <use xlink:href="#DejaVuSans-72" transform="translate(463.765625 0)"/>
       <use xlink:href="#DejaVuSans-75" transform="translate(504.878906 0)"/>
       <use xlink:href="#DejaVuSans-74" transform="translate(568.257812 0)"/>
       <use xlink:href="#DejaVuSans-68" transform="translate(607.466797 0)"/>
       <use xlink:href="#DejaVuSans-29" transform="translate(670.845703 0)"/>
      </g>
     </g>
    </g>
    <g id="xtick_2">
     <g id="line2d_2">
      <g>
       <use xlink:href="#m64a93f461d" x="305.6586" y="331.486" style="stroke: #000000; stroke-width: 0.8"/>
      </g>
     </g>
     <g id="text_2">
      <!-- $H_{\rm eff}$ 160 bands -->
      <g transform="translate(271.0311 345.704516) scale(0.095 -0.095)">
       <defs>
        <path id="DejaVuSans-Oblique-48" d="M 1081 4666 
L 1716 4666 
L 1344 2753 
L 3634 2753 
L 4006 4666 
L 4641 4666 
L 3731 0 
L 3097 0 
L 3531 2222 
L 1241 2222 
L 806 0 
L 172 0 
L 1081 4666 
z
" transform="scale(0.015625)"/>
        <path id="DejaVuSans-66" d="M 2375 4863 
L 2375 4384 
L 1825 4384 
Q 1516 4384 1395 4259 
Q 1275 4134 1275 3809 
L 1275 3500 
L 2222 3500 
L 2222 3053 
L 1275 3053 
L 1275 0 
L 697 0 
L 697 3053 
L 147 3053 
L 147 3500 
L 697 3500 
L 697 3744 
Q 697 4328 969 4595 
Q 1241 4863 1831 4863 
L 2375 4863 
z
" transform="scale(0.015625)"/>
        <path id="DejaVuSans-31" d="M 794 531 
L 1825 531 
L 1825 4091 
L 703 3866 
L 703 4441 
L 1819 4666 
L 2450 4666 
L 2450 531 
L 3481 531 
L 3481 0 
L 794 0 
L 794 531 
z
" transform="scale(0.015625)"/>
        <path id="DejaVuSans-36" d="M 2113 2584 
Q 1688 2584 1439 2293 
Q 1191 2003 1191 1497 
Q 1191 994 1439 701 
Q 1688 409 2113 409 
Q 2538 409 2786 701 
Q 3034 994 3034 1497 
Q 3034 2003 2786 2293 
Q 2538 2584 2113 2584 
z
M 3366 4563 
L 3366 3988 
Q 3128 4100 2886 4159 
Q 2644 4219 2406 4219 
Q 1781 4219 1451 3797 
Q 1122 3375 1075 2522 
Q 1259 2794 1537 2939 
Q 1816 3084 2150 3084 
Q 2853 3084 3261 2657 
Q 3669 2231 3669 1497 
Q 3669 778 3244 343 
Q 2819 -91 2113 -91 
Q 1303 -91 875 529 
Q 447 1150 447 2328 
Q 447 3434 972 4092 
Q 1497 4750 2381 4750 
Q 2619 4750 2861 4703 
Q 3103 4656 3366 4563 
z
" transform="scale(0.015625)"/>
        <path id="DejaVuSans-30" d="M 2034 4250 
Q 1547 4250 1301 3770 
Q 1056 3291 1056 2328 
Q 1056 1369 1301 889 
Q 1547 409 2034 409 
Q 2525 409 2770 889 
Q 3016 1369 3016 2328 
Q 3016 3291 2770 3770 
Q 2525 4250 2034 4250 
z
M 2034 4750 
Q 2819 4750 3233 4129 
Q 3647 3509 3647 2328 
Q 3647 1150 3233 529 
Q 2819 -91 2034 -91 
Q 1250 -91 836 529 
Q 422 1150 422 2328 
Q 422 3509 836 4129 
Q 1250 4750 2034 4750 
z
" transform="scale(0.015625)"/>
        <path id="DejaVuSans-62" d="M 3116 1747 
Q 3116 2381 2855 2742 
Q 2594 3103 2138 3103 
Q 1681 3103 1420 2742 
Q 1159 2381 1159 1747 
Q 1159 1113 1420 752 
Q 1681 391 2138 391 
Q 2594 391 2855 752 
Q 3116 1113 3116 1747 
z
M 1159 2969 
Q 1341 3281 1617 3432 
Q 1894 3584 2278 3584 
Q 2916 3584 3314 3078 
Q 3713 2572 3713 1747 
Q 3713 922 3314 415 
Q 2916 -91 2278 -91 
Q 1894 -91 1617 61 
Q 1341 213 1159 525 
L 1159 0 
L 581 0 
L 581 4863 
L 1159 4863 
L 1159 2969 
z
" transform="scale(0.015625)"/>
        <path id="DejaVuSans-61" d="M 2194 1759 
Q 1497 1759 1228 1600 
Q 959 1441 959 1056 
Q 959 750 1161 570 
Q 1363 391 1709 391 
Q 2188 391 2477 730 
Q 2766 1069 2766 1631 
L 2766 1759 
L 2194 1759 
z
M 3341 1997 
L 3341 0 
L 2766 0 
L 2766 531 
Q 2569 213 2275 61 
Q 1981 -91 1556 -91 
Q 1019 -91 701 211 
Q 384 513 384 1019 
Q 384 1609 779 1909 
Q 1175 2209 1959 2209 
L 2766 2209 
L 2766 2266 
Q 2766 2663 2505 2880 
Q 2244 3097 1772 3097 
Q 1472 3097 1187 3025 
Q 903 2953 641 2809 
L 641 3341 
Q 956 3463 1253 3523 
Q 1550 3584 1831 3584 
Q 2591 3584 2966 3190 
Q 3341 2797 3341 1997 
z
" transform="scale(0.015625)"/>
       </defs>
       <use xlink:href="#DejaVuSans-Oblique-48" transform="translate(0 0.015625)"/>
       <use xlink:href="#DejaVuSans-65" transform="translate(75.195312 -16.390625) scale(0.7)"/>
       <use xlink:href="#DejaVuSans-66" transform="translate(118.261719 -16.390625) scale(0.7)"/>
       <use xlink:href="#DejaVuSans-66" transform="translate(142.905273 -16.390625) scale(0.7)"/>
       <use xlink:href="#DejaVuSans-20" transform="translate(170.283203 0.015625)"/>
       <use xlink:href="#DejaVuSans-31" transform="translate(202.070312 0.015625)"/>
       <use xlink:href="#DejaVuSans-36" transform="translate(265.693359 0.015625)"/>
       <use xlink:href="#DejaVuSans-30" transform="translate(329.316406 0.015625)"/>
       <use xlink:href="#DejaVuSans-20" transform="translate(392.939453 0.015625)"/>
       <use xlink:href="#DejaVuSans-62" transform="translate(424.726562 0.015625)"/>
       <use xlink:href="#DejaVuSans-61" transform="translate(488.203125 0.015625)"/>
       <use xlink:href="#DejaVuSans-6e" transform="translate(549.482422 0.015625)"/>
       <use xlink:href="#DejaVuSans-64" transform="translate(612.861328 0.015625)"/>
       <use xlink:href="#DejaVuSans-73" transform="translate(676.337891 0.015625)"/>
      </g>
      <!-- (no augmentation) -->
      <g transform="translate(261.15778 356.342438) scale(0.095 -0.095)">
       <defs>
        <path id="DejaVuSans-6d" d="M 3328 2828 
Q 3544 3216 3844 3400 
Q 4144 3584 4550 3584 
Q 5097 3584 5394 3201 
Q 5691 2819 5691 2113 
L 5691 0 
L 5113 0 
L 5113 2094 
Q 5113 2597 4934 2840 
Q 4756 3084 4391 3084 
Q 3944 3084 3684 2787 
Q 3425 2491 3425 1978 
L 3425 0 
L 2847 0 
L 2847 2094 
Q 2847 2600 2669 2842 
Q 2491 3084 2119 3084 
Q 1678 3084 1418 2786 
Q 1159 2488 1159 1978 
L 1159 0 
L 581 0 
L 581 3500 
L 1159 3500 
L 1159 2956 
Q 1356 3278 1631 3431 
Q 1906 3584 2284 3584 
Q 2666 3584 2933 3390 
Q 3200 3197 3328 2828 
z
" transform="scale(0.015625)"/>
        <path id="DejaVuSans-69" d="M 603 3500 
L 1178 3500 
L 1178 0 
L 603 0 
L 603 3500 
z
M 603 4863 
L 1178 4863 
L 1178 4134 
L 603 4134 
L 603 4863 
z
" transform="scale(0.015625)"/>
       </defs>
       <use xlink:href="#DejaVuSans-28"/>
       <use xlink:href="#DejaVuSans-6e" transform="translate(39.013672 0)"/>
       <use xlink:href="#DejaVuSans-6f" transform="translate(102.392578 0)"/>
       <use xlink:href="#DejaVuSans-20" transform="translate(163.574219 0)"/>
       <use xlink:href="#DejaVuSans-61" transform="translate(195.361328 0)"/>
       <use xlink:href="#DejaVuSans-75" transform="translate(256.640625 0)"/>
       <use xlink:href="#DejaVuSans-67" transform="translate(320.019531 0)"/>
       <use xlink:href="#DejaVuSans-6d" transform="translate(383.496094 0)"/>
       <use xlink:href="#DejaVuSans-65" transform="translate(480.908203 0)"/>
       <use xlink:href="#DejaVuSans-6e" transform="translate(542.431641 0)"/>
       <use xlink:href="#DejaVuSans-74" transform="translate(605.810547 0)"/>
       <use xlink:href="#DejaVuSans-61" transform="translate(645.019531 0)"/>
       <use xlink:href="#DejaVuSans-74" transform="translate(706.298828 0)"/>
       <use xlink:href="#DejaVuSans-69" transform="translate(745.507812 0)"/>
       <use xlink:href="#DejaVuSans-6f" transform="translate(773.291016 0)"/>
       <use xlink:href="#DejaVuSans-6e" transform="translate(834.472656 0)"/>
       <use xlink:href="#DejaVuSans-29" transform="translate(897.851562 0)"/>
      </g>
     </g>
    </g>
    <g id="xtick_3">
     <g id="line2d_3">
      <g>
       <use xlink:href="#m64a93f461d" x="460.9106" y="331.486" style="stroke: #000000; stroke-width: 0.8"/>
      </g>
     </g>
     <g id="text_3">
      <!-- $H_{\rm eff}$ 160 bands $+\,4\,\tilde\chi_O/k$ -->
      <g transform="translate(405.9056 346.181) scale(0.095 -0.095)">
       <defs>
        <path id="DejaVuSans-2b" d="M 2944 4013 
L 2944 2272 
L 4684 2272 
L 4684 1741 
L 2944 1741 
L 2944 0 
L 2419 0 
L 2419 1741 
L 678 1741 
L 678 2272 
L 2419 2272 
L 2419 4013 
L 2944 4013 
z
" transform="scale(0.015625)"/>
        <path id="DejaVuSans-34" d="M 2419 4116 
L 825 1625 
L 2419 1625 
L 2419 4116 
z
M 2253 4666 
L 3047 4666 
L 3047 1625 
L 3713 1625 
L 3713 1100 
L 3047 1100 
L 3047 0 
L 2419 0 
L 2419 1100 
L 313 1100 
L 313 1709 
L 2253 4666 
z
" transform="scale(0.015625)"/>
        <path id="DejaVuSans-303" d="M -1619 4281 
L -1797 4453 
Q -1866 4516 -1917 4545 
Q -1969 4575 -2009 4575 
Q -2128 4575 -2184 4461 
Q -2241 4347 -2247 4091 
L -2638 4091 
Q -2631 4513 -2472 4742 
Q -2313 4972 -2028 4972 
Q -1909 4972 -1809 4928 
Q -1709 4884 -1594 4781 
L -1416 4609 
Q -1347 4547 -1295 4517 
Q -1244 4488 -1203 4488 
Q -1084 4488 -1028 4602 
Q -972 4716 -966 4972 
L -575 4972 
Q -581 4550 -740 4320 
Q -900 4091 -1184 4091 
Q -1303 4091 -1403 4134 
Q -1503 4178 -1619 4281 
z
" transform="scale(0.015625)"/>
        <path id="DejaVuSans-Oblique-3c7" d="M 1922 -781 
L 1691 416 
L 394 -1334 
L -284 -1334 
L 1553 1141 
L 1269 2613 
Q 1194 3006 713 3006 
L 559 3006 
L 653 3500 
L 872 3494 
Q 1675 3472 1775 2950 
L 2006 1753 
L 3303 3503 
L 3981 3503 
L 2144 1028 
L 2428 -444 
Q 2503 -838 2984 -838 
L 3138 -838 
L 3044 -1331 
L 2825 -1325 
Q 2022 -1303 1922 -781 
z
" transform="scale(0.015625)"/>
        <path id="DejaVuSans-Oblique-4f" d="M 2919 4238 
Q 2400 4238 2003 3986 
Q 1606 3734 1313 3219 
Q 1125 2891 1026 2522 
Q 928 2153 928 1778 
Q 928 1128 1239 775 
Q 1550 422 2119 422 
Q 2631 422 3032 676 
Q 3434 931 3719 1434 
Q 3909 1772 4009 2142 
Q 4109 2513 4109 2881 
Q 4109 3528 3796 3883 
Q 3484 4238 2919 4238 
z
M 2100 -91 
Q 1241 -91 748 418 
Q 256 928 256 1813 
Q 256 2319 448 2847 
Q 641 3375 978 3788 
Q 1375 4272 1862 4511 
Q 2350 4750 2938 4750 
Q 3794 4750 4287 4245 
Q 4781 3741 4781 2869 
Q 4781 2331 4593 1812 
Q 4406 1294 4056 872 
Q 3656 384 3173 146 
Q 2691 -91 2100 -91 
z
" transform="scale(0.015625)"/>
        <path id="DejaVuSans-2f" d="M 1625 4666 
L 2156 4666 
L 531 -594 
L 0 -594 
L 1625 4666 
z
" transform="scale(0.015625)"/>
        <path id="DejaVuSans-Oblique-6b" d="M 1172 4863 
L 1747 4863 
L 1197 2028 
L 3169 3500 
L 3916 3500 
L 1716 1825 
L 3322 0 
L 2625 0 
L 1131 1709 
L 800 0 
L 225 0 
L 1172 4863 
z
" transform="scale(0.015625)"/>
       </defs>
       <use xlink:href="#DejaVuSans-Oblique-48"/>
       <use xlink:href="#DejaVuSans-65" transform="translate(75.195312 -16.40625) scale(0.7)"/>
       <use xlink:href="#DejaVuSans-66" transform="translate(118.261719 -16.40625) scale(0.7)"/>
       <use xlink:href="#DejaVuSans-66" transform="translate(142.905273 -16.40625) scale(0.7)"/>
       <use xlink:href="#DejaVuSans-20" transform="translate(170.283203 0)"/>
       <use xlink:href="#DejaVuSans-31" transform="translate(202.070312 0)"/>
       <use xlink:href="#DejaVuSans-36" transform="translate(265.693359 0)"/>
       <use xlink:href="#DejaVuSans-30" transform="translate(329.316406 0)"/>
       <use xlink:href="#DejaVuSans-20" transform="translate(392.939453 0)"/>
       <use xlink:href="#DejaVuSans-62" transform="translate(424.726562 0)"/>
       <use xlink:href="#DejaVuSans-61" transform="translate(488.203125 0)"/>
       <use xlink:href="#DejaVuSans-6e" transform="translate(549.482422 0)"/>
       <use xlink:href="#DejaVuSans-64" transform="translate(612.861328 0)"/>
       <use xlink:href="#DejaVuSans-73" transform="translate(676.337891 0)"/>
       <use xlink:href="#DejaVuSans-20" transform="translate(728.4375 0)"/>
       <use xlink:href="#DejaVuSans-2b" transform="translate(760.224609 0)"/>
       <use xlink:href="#DejaVuSans-34" transform="translate(860.249348 0)"/>
       <use xlink:href="#DejaVuSans-303" transform="translate(1006.986978 3.3125)"/>
       <use xlink:href="#DejaVuSans-Oblique-3c7" transform="translate(940.108071 0)"/>
       <use xlink:href="#DejaVuSans-Oblique-4f" transform="translate(1007.705728 -16.40625) scale(0.7)"/>
       <use xlink:href="#DejaVuSans-2f" transform="translate(1065.537759 0)"/>
       <use xlink:href="#DejaVuSans-Oblique-6b" transform="translate(1099.229165 0)"/>
      </g>
      <!-- (A1, edi_v6b) -->
      <g transform="translate(429.431459 356.838219) scale(0.095 -0.095)">
       <defs>
        <path id="DejaVuSans-41" d="M 2188 4044 
L 1331 1722 
L 3047 1722 
L 2188 4044 
z
M 1831 4666 
L 2547 4666 
L 4325 0 
L 3669 0 
L 3244 1197 
L 1141 1197 
L 716 0 
L 50 0 
L 1831 4666 
z
" transform="scale(0.015625)"/>
        <path id="DejaVuSans-2c" d="M 750 794 
L 1409 794 
L 1409 256 
L 897 -744 
L 494 -744 
L 750 256 
L 750 794 
z
" transform="scale(0.015625)"/>
        <path id="DejaVuSans-5f" d="M 3263 -1063 
L 3263 -1509 
L -63 -1509 
L -63 -1063 
L 3263 -1063 
z
" transform="scale(0.015625)"/>
        <path id="DejaVuSans-76" d="M 191 3500 
L 800 3500 
L 1894 563 
L 2988 3500 
L 3597 3500 
L 2284 0 
L 1503 0 
L 191 3500 
z
" transform="scale(0.015625)"/>
       </defs>
       <use xlink:href="#DejaVuSans-28"/>
       <use xlink:href="#DejaVuSans-41" transform="translate(39.013672 0)"/>
       <use xlink:href="#DejaVuSans-31" transform="translate(107.421875 0)"/>
       <use xlink:href="#DejaVuSans-2c" transform="translate(171.044922 0)"/>
       <use xlink:href="#DejaVuSans-20" transform="translate(202.832031 0)"/>
       <use xlink:href="#DejaVuSans-65" transform="translate(234.619141 0)"/>
       <use xlink:href="#DejaVuSans-64" transform="translate(296.142578 0)"/>
       <use xlink:href="#DejaVuSans-69" transform="translate(359.619141 0)"/>
       <use xlink:href="#DejaVuSans-5f" transform="translate(387.402344 0)"/>
       <use xlink:href="#DejaVuSans-76" transform="translate(437.402344 0)"/>
       <use xlink:href="#DejaVuSans-36" transform="translate(496.582031 0)"/>
       <use xlink:href="#DejaVuSans-62" transform="translate(560.205078 0)"/>
       <use xlink:href="#DejaVuSans-29" transform="translate(623.681641 0)"/>
      </g>
     </g>
    </g>
   </g>
   <g id="matplotlib.axis_2">
    <g id="ytick_1">
     <g id="line2d_4">
      <defs>
       <path id="mda7afe7d53" d="M 0 0 
L -3.5 0 
" style="stroke: #000000; stroke-width: 0.8"/>
      </defs>
      <g>
       <use xlink:href="#mda7afe7d53" x="65.018" y="324.716978" style="stroke: #000000; stroke-width: 0.8"/>
      </g>
     </g>
     <g id="text_4">
      <!-- −0.25 -->
      <g transform="translate(27.372687 328.516197) scale(0.1 -0.1)">
       <defs>
        <path id="DejaVuSans-2212" d="M 678 2272 
L 4684 2272 
L 4684 1741 
L 678 1741 
L 678 2272 
z
" transform="scale(0.015625)"/>
        <path id="DejaVuSans-2e" d="M 684 794 
L 1344 794 
L 1344 0 
L 684 0 
L 684 794 
z
" transform="scale(0.015625)"/>
        <path id="DejaVuSans-32" d="M 1228 531 
L 3431 531 
L 3431 0 
L 469 0 
L 469 531 
Q 828 903 1448 1529 
Q 2069 2156 2228 2338 
Q 2531 2678 2651 2914 
Q 2772 3150 2772 3378 
Q 2772 3750 2511 3984 
Q 2250 4219 1831 4219 
Q 1534 4219 1204 4116 
Q 875 4013 500 3803 
L 500 4441 
Q 881 4594 1212 4672 
Q 1544 4750 1819 4750 
Q 2544 4750 2975 4387 
Q 3406 4025 3406 3419 
Q 3406 3131 3298 2873 
Q 3191 2616 2906 2266 
Q 2828 2175 2409 1742 
Q 1991 1309 1228 531 
z
" transform="scale(0.015625)"/>
        <path id="DejaVuSans-35" d="M 691 4666 
L 3169 4666 
L 3169 4134 
L 1269 4134 
L 1269 2991 
Q 1406 3038 1543 3061 
Q 1681 3084 1819 3084 
Q 2600 3084 3056 2656 
Q 3513 2228 3513 1497 
Q 3513 744 3044 326 
Q 2575 -91 1722 -91 
Q 1428 -91 1123 -41 
Q 819 9 494 109 
L 494 744 
Q 775 591 1075 516 
Q 1375 441 1709 441 
Q 2250 441 2565 725 
Q 2881 1009 2881 1497 
Q 2881 1984 2565 2268 
Q 2250 2553 1709 2553 
Q 1456 2553 1204 2497 
Q 953 2441 691 2322 
L 691 4666 
z
" transform="scale(0.015625)"/>
       </defs>
       <use xlink:href="#DejaVuSans-2212"/>
       <use xlink:href="#DejaVuSans-30" transform="translate(83.789062 0)"/>
       <use xlink:href="#DejaVuSans-2e" transform="translate(147.412109 0)"/>
       <use xlink:href="#DejaVuSans-32" transform="translate(179.199219 0)"/>
       <use xlink:href="#DejaVuSans-35" transform="translate(242.822266 0)"/>
      </g>
     </g>
    </g>
    <g id="ytick_2">
     <g id="line2d_5">
      <g>
       <use xlink:href="#mda7afe7d53" x="65.018" y="290.871867" style="stroke: #000000; stroke-width: 0.8"/>
      </g>
     </g>
     <g id="text_5">
      <!-- 0.00 -->
      <g transform="translate(35.752375 294.671085) scale(0.1 -0.1)">
       <use xlink:href="#DejaVuSans-30"/>
       <use xlink:href="#DejaVuSans-2e" transform="translate(63.623047 0)"/>
       <use xlink:href="#DejaVuSans-30" transform="translate(95.410156 0)"/>
       <use xlink:href="#DejaVuSans-30" transform="translate(159.033203 0)"/>
      </g>
     </g>
    </g>
    <g id="ytick_3">
     <g id="line2d_6">
      <g>
       <use xlink:href="#mda7afe7d53" x="65.018" y="257.026756" style="stroke: #000000; stroke-width: 0.8"/>
      </g>
     </g>
     <g id="text_6">
      <!-- 0.25 -->
      <g transform="translate(35.752375 260.825974) scale(0.1 -0.1)">
       <use xlink:href="#DejaVuSans-30"/>
       <use xlink:href="#DejaVuSans-2e" transform="translate(63.623047 0)"/>
       <use xlink:href="#DejaVuSans-32" transform="translate(95.410156 0)"/>
       <use xlink:href="#DejaVuSans-35" transform="translate(159.033203 0)"/>
      </g>
     </g>
    </g>
    <g id="ytick_4">
     <g id="line2d_7">
      <g>
       <use xlink:href="#mda7afe7d53" x="65.018" y="223.181644" style="stroke: #000000; stroke-width: 0.8"/>
      </g>
     </g>
     <g id="text_7">
      <!-- 0.50 -->
      <g transform="translate(35.752375 226.980863) scale(0.1 -0.1)">
       <use xlink:href="#DejaVuSans-30"/>
       <use xlink:href="#DejaVuSans-2e" transform="translate(63.623047 0)"/>
       <use xlink:href="#DejaVuSans-35" transform="translate(95.410156 0)"/>
       <use xlink:href="#DejaVuSans-30" transform="translate(159.033203 0)"/>
      </g>
     </g>
    </g>
    <g id="ytick_5">
     <g id="line2d_8">
      <g>
       <use xlink:href="#mda7afe7d53" x="65.018" y="189.336533" style="stroke: #000000; stroke-width: 0.8"/>
      </g>
     </g>
     <g id="text_8">
      <!-- 0.75 -->
      <g transform="translate(35.752375 193.135752) scale(0.1 -0.1)">
       <defs>
        <path id="DejaVuSans-37" d="M 525 4666 
L 3525 4666 
L 3525 4397 
L 1831 0 
L 1172 0 
L 2766 4134 
L 525 4134 
L 525 4666 
z
" transform="scale(0.015625)"/>
       </defs>
       <use xlink:href="#DejaVuSans-30"/>
       <use xlink:href="#DejaVuSans-2e" transform="translate(63.623047 0)"/>
       <use xlink:href="#DejaVuSans-37" transform="translate(95.410156 0)"/>
       <use xlink:href="#DejaVuSans-35" transform="translate(159.033203 0)"/>
      </g>
     </g>
    </g>
    <g id="ytick_6">
     <g id="line2d_9">
      <g>
       <use xlink:href="#mda7afe7d53" x="65.018" y="155.491422" style="stroke: #000000; stroke-width: 0.8"/>
      </g>
     </g>
     <g id="text_9">
      <!-- 1.00 -->
      <g transform="translate(35.752375 159.290641) scale(0.1 -0.1)">
       <use xlink:href="#DejaVuSans-31"/>
       <use xlink:href="#DejaVuSans-2e" transform="translate(63.623047 0)"/>
       <use xlink:href="#DejaVuSans-30" transform="translate(95.410156 0)"/>
       <use xlink:href="#DejaVuSans-30" transform="translate(159.033203 0)"/>
      </g>
     </g>
    </g>
    <g id="ytick_7">
     <g id="line2d_10">
      <g>
       <use xlink:href="#mda7afe7d53" x="65.018" y="121.646311" style="stroke: #000000; stroke-width: 0.8"/>
      </g>
     </g>
     <g id="text_10">
      <!-- 1.25 -->
      <g transform="translate(35.752375 125.44553) scale(0.1 -0.1)">
       <use xlink:href="#DejaVuSans-31"/>
       <use xlink:href="#DejaVuSans-2e" transform="translate(63.623047 0)"/>
       <use xlink:href="#DejaVuSans-32" transform="translate(95.410156 0)"/>
       <use xlink:href="#DejaVuSans-35" transform="translate(159.033203 0)"/>
      </g>
     </g>
    </g>
    <g id="ytick_8">
     <g id="line2d_11">
      <g>
       <use xlink:href="#mda7afe7d53" x="65.018" y="87.8012" style="stroke: #000000; stroke-width: 0.8"/>
      </g>
     </g>
     <g id="text_11">
      <!-- 1.50 -->
      <g transform="translate(35.752375 91.600419) scale(0.1 -0.1)">
       <use xlink:href="#DejaVuSans-31"/>
       <use xlink:href="#DejaVuSans-2e" transform="translate(63.623047 0)"/>
       <use xlink:href="#DejaVuSans-35" transform="translate(95.410156 0)"/>
       <use xlink:href="#DejaVuSans-30" transform="translate(159.033203 0)"/>
      </g>
     </g>
    </g>
    <g id="ytick_9">
     <g id="line2d_12">
      <g>
       <use xlink:href="#mda7afe7d53" x="65.018" y="53.956089" style="stroke: #000000; stroke-width: 0.8"/>
      </g>
     </g>
     <g id="text_12">
      <!-- 1.75 -->
      <g transform="translate(35.752375 57.755308) scale(0.1 -0.1)">
       <use xlink:href="#DejaVuSans-31"/>
       <use xlink:href="#DejaVuSans-2e" transform="translate(63.623047 0)"/>
       <use xlink:href="#DejaVuSans-37" transform="translate(95.410156 0)"/>
       <use xlink:href="#DejaVuSans-35" transform="translate(159.033203 0)"/>
      </g>
     </g>
    </g>
    <g id="text_13">
     <!-- $E - E_{\rm VBM}$  (eV) -->
     <g transform="translate(21.293 213.183) rotate(-90) scale(0.1 -0.1)">
      <defs>
       <path id="DejaVuSans-Oblique-45" d="M 1081 4666 
L 4031 4666 
L 3928 4134 
L 1606 4134 
L 1338 2753 
L 3566 2753 
L 3463 2222 
L 1234 2222 
L 909 531 
L 3284 531 
L 3181 0 
L 172 0 
L 1081 4666 
z
" transform="scale(0.015625)"/>
       <path id="DejaVuSans-56" d="M 1831 0 
L 50 4666 
L 709 4666 
L 2188 738 
L 3669 4666 
L 4325 4666 
L 2547 0 
L 1831 0 
z
" transform="scale(0.015625)"/>
       <path id="DejaVuSans-42" d="M 1259 2228 
L 1259 519 
L 2272 519 
Q 2781 519 3026 730 
Q 3272 941 3272 1375 
Q 3272 1813 3026 2020 
Q 2781 2228 2272 2228 
L 1259 2228 
z
M 1259 4147 
L 1259 2741 
L 2194 2741 
Q 2656 2741 2882 2914 
Q 3109 3088 3109 3444 
Q 3109 3797 2882 3972 
Q 2656 4147 2194 4147 
L 1259 4147 
z
M 628 4666 
L 2241 4666 
Q 2963 4666 3353 4366 
Q 3744 4066 3744 3513 
Q 3744 3084 3544 2831 
Q 3344 2578 2956 2516 
Q 3422 2416 3680 2098 
Q 3938 1781 3938 1306 
Q 3938 681 3513 340 
Q 3088 0 2303 0 
L 628 0 
L 628 4666 
z
" transform="scale(0.015625)"/>
       <path id="DejaVuSans-4d" d="M 628 4666 
L 1569 4666 
L 2759 1491 
L 3956 4666 
L 4897 4666 
L 4897 0 
L 4281 0 
L 4281 4097 
L 3078 897 
L 2444 897 
L 1241 4097 
L 1241 0 
L 628 0 
L 628 4666 
z
" transform="scale(0.015625)"/>
      </defs>
      <use xlink:href="#DejaVuSans-Oblique-45" transform="translate(0 0.125)"/>
      <use xlink:href="#DejaVuSans-2212" transform="translate(82.666016 0.125)"/>
      <use xlink:href="#DejaVuSans-Oblique-45" transform="translate(185.9375 0.125)"/>
      <use xlink:href="#DejaVuSans-56" transform="translate(249.121094 -16.28125) scale(0.7)"/>
      <use xlink:href="#DejaVuSans-42" transform="translate(297.006836 -16.28125) scale(0.7)"/>
      <use xlink:href="#DejaVuSans-4d" transform="translate(345.029297 -16.28125) scale(0.7)"/>
      <use xlink:href="#DejaVuSans-20" transform="translate(408.15918 0.125)"/>
      <use xlink:href="#DejaVuSans-20" transform="translate(439.946289 0.125)"/>
      <use xlink:href="#DejaVuSans-28" transform="translate(471.733398 0.125)"/>
      <use xlink:href="#DejaVuSans-65" transform="translate(510.74707 0.125)"/>
      <use xlink:href="#DejaVuSans-56" transform="translate(572.270508 0.125)"/>
      <use xlink:href="#DejaVuSans-29" transform="translate(640.678711 0.125)"/>
     </g>
    </g>
   </g>
   <g id="line2d_13">
    <path d="M 65.018 290.871867 
L 608.4 290.871867 
" clip-path="url(#p814b45186c)" style="fill: none; stroke: #737373; stroke-width: 0.9; stroke-linecap: square"/>
   </g>
   <g id="line2d_14">
    <path d="M 65.018 66.532932 
L 608.4 66.532932 
" clip-path="url(#p814b45186c)" style="fill: none; stroke: #737373; stroke-width: 0.9; stroke-linecap: square"/>
   </g>
   <g id="patch_5">
    <path d="M 65.018 331.486 
L 65.018 26.88 
" style="fill: none; stroke: #000000; stroke-width: 0.8; stroke-linejoin: miter; stroke-linecap: square"/>
   </g>
   <g id="patch_6">
    <path d="M 65.018 331.486 
L 608.4 331.486 
" style="fill: none; stroke: #000000; stroke-width: 0.8; stroke-linejoin: miter; stroke-linecap: square"/>
   </g>
   <g id="text_14">
    <!-- valence -->
    <g style="fill: #595959" transform="translate(541.64164 306.893349) scale(0.09 -0.09)">
     <use xlink:href="#DejaVuSans-76"/>
     <use xlink:href="#DejaVuSans-61" transform="translate(59.179688 0)"/>
     <use xlink:href="#DejaVuSans-6c" transform="translate(120.458984 0)"/>
     <use xlink:href="#DejaVuSans-65" transform="translate(148.242188 0)"/>
     <use xlink:href="#DejaVuSans-6e" transform="translate(209.765625 0)"/>
     <use xlink:href="#DejaVuSans-63" transform="translate(273.144531 0)"/>
     <use xlink:href="#DejaVuSans-65" transform="translate(328.125 0)"/>
    </g>
   </g>
   <g id="text_15">
    <!-- conduction -->
    <g style="fill: #595959" transform="translate(541.64164 56.439526) scale(0.09 -0.09)">
     <use xlink:href="#DejaVuSans-63"/>
     <use xlink:href="#DejaVuSans-6f" transform="translate(54.980469 0)"/>
     <use xlink:href="#DejaVuSans-6e" transform="translate(116.162109 0)"/>
     <use xlink:href="#DejaVuSans-64" transform="translate(179.541016 0)"/>
     <use xlink:href="#DejaVuSans-75" transform="translate(243.017578 0)"/>
     <use xlink:href="#DejaVuSans-63" transform="translate(306.396484 0)"/>
     <use xlink:href="#DejaVuSans-74" transform="translate(361.376953 0)"/>
     <use xlink:href="#DejaVuSans-69" transform="translate(400.585938 0)"/>
     <use xlink:href="#DejaVuSans-6f" transform="translate(428.369141 0)"/>
     <use xlink:href="#DejaVuSans-6e" transform="translate(489.550781 0)"/>
    </g>
   </g>
   <g id="LineCollection_1">
    <path d="M 103.831 289.802361 
L 196.9822 289.802361 
" clip-path="url(#p814b45186c)" style="fill: none; stroke: #000000; stroke-width: 2.4"/>
   </g>
   <g id="LineCollection_2">
    <path d="M 103.831 286.823991 
L 196.9822 286.823991 
" clip-path="url(#p814b45186c)" style="fill: none; stroke: #000000; stroke-width: 2.4"/>
   </g>
   <g id="LineCollection_3">
    <path d="M 103.831 286.55323 
L 196.9822 286.55323 
" clip-path="url(#p814b45186c)" style="fill: none; stroke: #000000; stroke-width: 2.4"/>
   </g>
   <g id="LineCollection_4">
    <path d="M 103.831 65.16559 
L 196.9822 65.16559 
" clip-path="url(#p814b45186c)" style="fill: none; stroke: #000000; stroke-width: 2.4"/>
   </g>
   <g id="LineCollection_5">
    <path d="M 103.831 62.18722 
L 196.9822 62.18722 
" clip-path="url(#p814b45186c)" style="fill: none; stroke: #000000; stroke-width: 2.4"/>
   </g>
   <g id="LineCollection_6">
    <path d="M 259.083 193.411485 
L 352.2342 193.411485 
" clip-path="url(#p814b45186c)" style="fill: none; stroke: #c2185b; stroke-width: 2.4"/>
   </g>
   <g id="LineCollection_7">
    <path d="M 259.083 190.433115 
L 352.2342 190.433115 
" clip-path="url(#p814b45186c)" style="fill: none; stroke: #c2185b; stroke-width: 2.4"/>
   </g>
   <g id="LineCollection_8">
    <path d="M 259.083 67.913813 
L 352.2342 67.913813 
" clip-path="url(#p814b45186c)" style="fill: none; stroke: #c2185b; stroke-width: 2.4"/>
   </g>
   <g id="LineCollection_9">
    <path d="M 414.335 295.975709 
L 507.4862 295.975709 
" clip-path="url(#p814b45186c)" style="fill: none; stroke: #1565c0; stroke-width: 2.4"/>
   </g>
   <g id="LineCollection_10">
    <path d="M 414.335 292.99734 
L 507.4862 292.99734 
" clip-path="url(#p814b45186c)" style="fill: none; stroke: #1565c0; stroke-width: 2.4"/>
   </g>
   <g id="LineCollection_11">
    <path d="M 414.335 292.50997 
L 507.4862 292.50997 
" clip-path="url(#p814b45186c)" style="fill: none; stroke: #1565c0; stroke-width: 2.4"/>
   </g>
   <g id="LineCollection_12">
    <path d="M 414.335 71.014025 
L 507.4862 71.014025 
" clip-path="url(#p814b45186c)" style="fill: none; stroke: #1565c0; stroke-width: 2.4"/>
   </g>
   <g id="LineCollection_13">
    <path d="M 414.335 68.035655 
L 507.4862 68.035655 
" clip-path="url(#p814b45186c)" style="fill: none; stroke: #1565c0; stroke-width: 2.4"/>
   </g>
   <g id="patch_7">
    <path d="M 198.531024 283.515988 
Q 251.321629 240.441648 302.899471 198.356859 
" style="fill: none; stroke-dasharray: 5.18,2.24; stroke-dashoffset: 0; stroke: #c2185b; stroke-width: 1.4; stroke-linecap: round"/>
    <path d="M 298.53585 199.336048 
L 302.899471 198.356859 
L 301.064651 202.435269 
" style="fill: none; stroke-dasharray: 5.18,2.24; stroke-dashoffset: 0; stroke: #c2185b; stroke-width: 1.4; stroke-linecap: round"/>
   </g>
   <g id="text_16">
    <!-- variational push-up -->
    <g style="fill: #c2185b" transform="translate(215.61244 223.374158) scale(0.095 -0.095)">
     <defs>
      <path id="DejaVuSans-2d" d="M 313 2009 
L 1997 2009 
L 1997 1497 
L 313 1497 
L 313 2009 
z
" transform="scale(0.015625)"/>
     </defs>
     <use xlink:href="#DejaVuSans-76"/>
     <use xlink:href="#DejaVuSans-61" transform="translate(59.179688 0)"/>
     <use xlink:href="#DejaVuSans-72" transform="translate(120.458984 0)"/>
     <use xlink:href="#DejaVuSans-69" transform="translate(161.572266 0)"/>
     <use xlink:href="#DejaVuSans-61" transform="translate(189.355469 0)"/>
     <use xlink:href="#DejaVuSans-74" transform="translate(250.634766 0)"/>
     <use xlink:href="#DejaVuSans-69" transform="translate(289.84375 0)"/>
     <use xlink:href="#DejaVuSans-6f" transform="translate(317.626953 0)"/>
     <use xlink:href="#DejaVuSans-6e" transform="translate(378.808594 0)"/>
     <use xlink:href="#DejaVuSans-61" transform="translate(442.1875 0)"/>
     <use xlink:href="#DejaVuSans-6c" transform="translate(503.466797 0)"/>
     <use xlink:href="#DejaVuSans-20" transform="translate(531.25 0)"/>
     <use xlink:href="#DejaVuSans-70" transform="translate(563.037109 0)"/>
     <use xlink:href="#DejaVuSans-75" transform="translate(626.513672 0)"/>
     <use xlink:href="#DejaVuSans-73" transform="translate(689.892578 0)"/>
     <use xlink:href="#DejaVuSans-68" transform="translate(741.992188 0)"/>
     <use xlink:href="#DejaVuSans-2d" transform="translate(805.371094 0)"/>
     <use xlink:href="#DejaVuSans-75" transform="translate(841.455078 0)"/>
     <use xlink:href="#DejaVuSans-70" transform="translate(904.833984 0)"/>
    </g>
    <!-- $+0.71$ eV (artifact) -->
    <g style="fill: #c2185b" transform="translate(215.61244 234.01208) scale(0.095 -0.095)">
     <use xlink:href="#DejaVuSans-2b" transform="translate(0 0.015625)"/>
     <use xlink:href="#DejaVuSans-30" transform="translate(83.789062 0.015625)"/>
     <use xlink:href="#DejaVuSans-2e" transform="translate(147.412109 0.015625)"/>
     <use xlink:href="#DejaVuSans-37" transform="translate(171.449219 0.015625)"/>
     <use xlink:href="#DejaVuSans-31" transform="translate(235.072266 0.015625)"/>
     <use xlink:href="#DejaVuSans-20" transform="translate(298.695312 0.015625)"/>
     <use xlink:href="#DejaVuSans-65" transform="translate(330.482422 0.015625)"/>
     <use xlink:href="#DejaVuSans-56" transform="translate(392.005859 0.015625)"/>
     <use xlink:href="#DejaVuSans-20" transform="translate(460.414062 0.015625)"/>
     <use xlink:href="#DejaVuSans-28" transform="translate(492.201172 0.015625)"/>
     <use xlink:href="#DejaVuSans-61" transform="translate(531.214844 0.015625)"/>
     <use xlink:href="#DejaVuSans-72" transform="translate(592.494141 0.015625)"/>
     <use xlink:href="#DejaVuSans-74" transform="translate(633.607422 0.015625)"/>
     <use xlink:href="#DejaVuSans-69" transform="translate(672.816406 0.015625)"/>
     <use xlink:href="#DejaVuSans-66" transform="translate(700.599609 0.015625)"/>
     <use xlink:href="#DejaVuSans-61" transform="translate(735.804688 0.015625)"/>
     <use xlink:href="#DejaVuSans-63" transform="translate(797.083984 0.015625)"/>
     <use xlink:href="#DejaVuSans-74" transform="translate(852.064453 0.015625)"/>
     <use xlink:href="#DejaVuSans-29" transform="translate(891.273438 0.015625)"/>
    </g>
   </g>
   <g id="patch_8">
    <path d="M 356.824576 196.772935 
Q 406.573921 241.797832 455.162735 285.772409 
" style="fill: none; stroke-dasharray: 5.18,2.24; stroke-dashoffset: 0; stroke: #1565c0; stroke-width: 1.4; stroke-linecap: round"/>
    <path d="M 453.539044 281.60544 
L 455.162735 285.772409 
L 450.854946 284.57118 
" style="fill: none; stroke-dasharray: 5.18,2.24; stroke-dashoffset: 0; stroke: #1565c0; stroke-width: 1.4; stroke-linecap: round"/>
   </g>
   <g id="text_17">
    <!-- A1 augmentation: -->
    <g style="fill: #1565c0" transform="translate(377.07452 215.443845) scale(0.095 -0.095)">
     <defs>
      <path id="DejaVuSans-3a" d="M 750 794 
L 1409 794 
L 1409 0 
L 750 0 
L 750 794 
z
M 750 3309 
L 1409 3309 
L 1409 2516 
L 750 2516 
L 750 3309 
z
" transform="scale(0.015625)"/>
     </defs>
     <use xlink:href="#DejaVuSans-41"/>
     <use xlink:href="#DejaVuSans-31" transform="translate(68.408203 0)"/>
     <use xlink:href="#DejaVuSans-20" transform="translate(132.03125 0)"/>
     <use xlink:href="#DejaVuSans-61" transform="translate(163.818359 0)"/>
     <use xlink:href="#DejaVuSans-75" transform="translate(225.097656 0)"/>
     <use xlink:href="#DejaVuSans-67" transform="translate(288.476562 0)"/>
     <use xlink:href="#DejaVuSans-6d" transform="translate(351.953125 0)"/>
     <use xlink:href="#DejaVuSans-65" transform="translate(449.365234 0)"/>
     <use xlink:href="#DejaVuSans-6e" transform="translate(510.888672 0)"/>
     <use xlink:href="#DejaVuSans-74" transform="translate(574.267578 0)"/>
     <use xlink:href="#DejaVuSans-61" transform="translate(613.476562 0)"/>
     <use xlink:href="#DejaVuSans-74" transform="translate(674.755859 0)"/>
     <use xlink:href="#DejaVuSans-69" transform="translate(713.964844 0)"/>
     <use xlink:href="#DejaVuSans-6f" transform="translate(741.748047 0)"/>
     <use xlink:href="#DejaVuSans-6e" transform="translate(802.929688 0)"/>
     <use xlink:href="#DejaVuSans-3a" transform="translate(866.308594 0)"/>
    </g>
    <!-- returns to the VBM edge -->
    <g style="fill: #1565c0" transform="translate(377.07452 226.081767) scale(0.095 -0.095)">
     <use xlink:href="#DejaVuSans-72"/>
     <use xlink:href="#DejaVuSans-65" transform="translate(38.863281 0)"/>
     <use xlink:href="#DejaVuSans-74" transform="translate(100.386719 0)"/>
     <use xlink:href="#DejaVuSans-75" transform="translate(139.595703 0)"/>
     <use xlink:href="#DejaVuSans-72" transform="translate(202.974609 0)"/>
     <use xlink:href="#DejaVuSans-6e" transform="translate(242.337891 0)"/>
     <use xlink:href="#DejaVuSans-73" transform="translate(305.716797 0)"/>
     <use xlink:href="#DejaVuSans-20" transform="translate(357.816406 0)"/>
     <use xlink:href="#DejaVuSans-74" transform="translate(389.603516 0)"/>
     <use xlink:href="#DejaVuSans-6f" transform="translate(428.8125 0)"/>
     <use xlink:href="#DejaVuSans-20" transform="translate(489.994141 0)"/>
     <use xlink:href="#DejaVuSans-74" transform="translate(521.78125 0)"/>
     <use xlink:href="#DejaVuSans-68" transform="translate(560.990234 0)"/>
     <use xlink:href="#DejaVuSans-65" transform="translate(624.369141 0)"/>
     <use xlink:href="#DejaVuSans-20" transform="translate(685.892578 0)"/>
     <use xlink:href="#DejaVuSans-56" transform="translate(717.679688 0)"/>
     <use xlink:href="#DejaVuSans-42" transform="translate(786.087891 0)"/>
     <use xlink:href="#DejaVuSans-4d" transform="translate(854.691406 0)"/>
     <use xlink:href="#DejaVuSans-20" transform="translate(940.970703 0)"/>
     <use xlink:href="#DejaVuSans-65" transform="translate(972.757812 0)"/>
     <use xlink:href="#DejaVuSans-64" transform="translate(1034.28125 0)"/>
     <use xlink:href="#DejaVuSans-67" transform="translate(1097.757812 0)"/>
     <use xlink:href="#DejaVuSans-65" transform="translate(1161.234375 0)"/>
    </g>
    <!-- (residual $\approx-45$ meV) -->
    <g style="fill: #1565c0" transform="translate(377.07452 236.719689) scale(0.095 -0.095)">
     <defs>
      <path id="DejaVuSans-2248" d="M 4684 1947 
L 4684 1388 
Q 4356 1144 4076 1036 
Q 3797 928 3494 928 
Q 3150 928 2694 1113 
Q 2663 1125 2641 1134 
Q 2622 1141 2575 1159 
Q 2091 1350 1797 1350 
Q 1522 1350 1253 1231 
Q 984 1113 678 850 
L 678 1409 
Q 1006 1653 1286 1761 
Q 1566 1869 1869 1869 
Q 2213 1869 2672 1684 
Q 2706 1669 2722 1663 
Q 2741 1656 2788 1638 
Q 3272 1447 3566 1447 
Q 3834 1447 4098 1564 
Q 4363 1681 4684 1947 
z
M 4684 3163 
L 4684 2606 
Q 4356 2359 4076 2251 
Q 3797 2144 3494 2144 
Q 3150 2144 2694 2328 
Q 2663 2341 2641 2350 
Q 2622 2356 2575 2375 
Q 2091 2566 1797 2566 
Q 1522 2566 1253 2447 
Q 984 2328 678 2069 
L 678 2625 
Q 1006 2869 1286 2976 
Q 1566 3084 1869 3084 
Q 2213 3084 2672 2900 
Q 2703 2888 2719 2881 
Q 2741 2872 2788 2853 
Q 3272 2663 3566 2663 
Q 3834 2663 4098 2780 
Q 4363 2897 4684 3163 
z
" transform="scale(0.015625)"/>
     </defs>
     <use xlink:href="#DejaVuSans-28" transform="translate(0 0.015625)"/>
     <use xlink:href="#DejaVuSans-72" transform="translate(39.013672 0.015625)"/>
     <use xlink:href="#DejaVuSans-65" transform="translate(80.126953 0.015625)"/>
     <use xlink:href="#DejaVuSans-73" transform="translate(141.650391 0.015625)"/>
     <use xlink:href="#DejaVuSans-69" transform="translate(193.75 0.015625)"/>
     <use xlink:href="#DejaVuSans-64" transform="translate(221.533203 0.015625)"/>
     <use xlink:href="#DejaVuSans-75" transform="translate(285.009766 0.015625)"/>
     <use xlink:href="#DejaVuSans-61" transform="translate(348.388672 0.015625)"/>
     <use xlink:href="#DejaVuSans-6c" transform="translate(409.667969 0.015625)"/>
     <use xlink:href="#DejaVuSans-20" transform="translate(437.451172 0.015625)"/>
     <use xlink:href="#DejaVuSans-2248" transform="translate(488.720703 0.015625)"/>
     <use xlink:href="#DejaVuSans-2212" transform="translate(611.474609 0.015625)"/>
     <use xlink:href="#DejaVuSans-34" transform="translate(714.746094 0.015625)"/>
     <use xlink:href="#DejaVuSans-35" transform="translate(778.369141 0.015625)"/>
     <use xlink:href="#DejaVuSans-20" transform="translate(841.992188 0.015625)"/>
     <use xlink:href="#DejaVuSans-6d" transform="translate(873.779297 0.015625)"/>
     <use xlink:href="#DejaVuSans-65" transform="translate(971.191406 0.015625)"/>
     <use xlink:href="#DejaVuSans-56" transform="translate(1032.714844 0.015625)"/>
     <use xlink:href="#DejaVuSans-29" transform="translate(1101.123047 0.015625)"/>
    </g>
   </g>
   <g id="text_18">
    <!-- $e\times2$: $+0.008$ -->
    <g transform="translate(124.09964 283.425942) scale(0.086 -0.086)">
     <defs>
      <path id="DejaVuSans-Oblique-65" d="M 3078 2063 
Q 3088 2113 3092 2166 
Q 3097 2219 3097 2272 
Q 3097 2653 2873 2875 
Q 2650 3097 2266 3097 
Q 1838 3097 1509 2826 
Q 1181 2556 1013 2059 
L 3078 2063 
z
M 3578 1613 
L 903 1613 
Q 884 1494 878 1425 
Q 872 1356 872 1306 
Q 872 872 1139 634 
Q 1406 397 1894 397 
Q 2269 397 2603 481 
Q 2938 566 3225 728 
L 3116 159 
Q 2806 34 2476 -28 
Q 2147 -91 1806 -91 
Q 1078 -91 686 257 
Q 294 606 294 1247 
Q 294 1794 489 2264 
Q 684 2734 1063 3103 
Q 1306 3334 1642 3459 
Q 1978 3584 2356 3584 
Q 2950 3584 3301 3228 
Q 3653 2872 3653 2272 
Q 3653 2128 3634 1964 
Q 3616 1800 3578 1613 
z
" transform="scale(0.015625)"/>
      <path id="DejaVuSans-d7" d="M 4488 3438 
L 3059 2003 
L 4488 575 
L 4116 197 
L 2681 1631 
L 1247 197 
L 878 575 
L 2303 2003 
L 878 3438 
L 1247 3816 
L 2681 2381 
L 4116 3816 
L 4488 3438 
z
" transform="scale(0.015625)"/>
      <path id="DejaVuSans-38" d="M 2034 2216 
Q 1584 2216 1326 1975 
Q 1069 1734 1069 1313 
Q 1069 891 1326 650 
Q 1584 409 2034 409 
Q 2484 409 2743 651 
Q 3003 894 3003 1313 
Q 3003 1734 2745 1975 
Q 2488 2216 2034 2216 
z
M 1403 2484 
Q 997 2584 770 2862 
Q 544 3141 544 3541 
Q 544 4100 942 4425 
Q 1341 4750 2034 4750 
Q 2731 4750 3128 4425 
Q 3525 4100 3525 3541 
Q 3525 3141 3298 2862 
Q 3072 2584 2669 2484 
Q 3125 2378 3379 2068 
Q 3634 1759 3634 1313 
Q 3634 634 3220 271 
Q 2806 -91 2034 -91 
Q 1263 -91 848 271 
Q 434 634 434 1313 
Q 434 1759 690 2068 
Q 947 2378 1403 2484 
z
M 1172 3481 
Q 1172 3119 1398 2916 
Q 1625 2713 2034 2713 
Q 2441 2713 2670 2916 
Q 2900 3119 2900 3481 
Q 2900 3844 2670 4047 
Q 2441 4250 2034 4250 
Q 1625 4250 1398 4047 
Q 1172 3844 1172 3481 
z
" transform="scale(0.015625)"/>
     </defs>
     <use xlink:href="#DejaVuSans-Oblique-65" transform="translate(0 0.78125)"/>
     <use xlink:href="#DejaVuSans-d7" transform="translate(81.005859 0.78125)"/>
     <use xlink:href="#DejaVuSans-32" transform="translate(184.277344 0.78125)"/>
     <use xlink:href="#DejaVuSans-3a" transform="translate(247.900391 0.78125)"/>
     <use xlink:href="#DejaVuSans-20" transform="translate(281.591797 0.78125)"/>
     <use xlink:href="#DejaVuSans-2b" transform="translate(313.378906 0.78125)"/>
     <use xlink:href="#DejaVuSans-30" transform="translate(397.167969 0.78125)"/>
     <use xlink:href="#DejaVuSans-2e" transform="translate(460.791016 0.78125)"/>
     <use xlink:href="#DejaVuSans-30" transform="translate(492.578125 0.78125)"/>
     <use xlink:href="#DejaVuSans-30" transform="translate(556.201172 0.78125)"/>
     <use xlink:href="#DejaVuSans-38" transform="translate(619.824219 0.78125)"/>
    </g>
   </g>
   <g id="text_19">
    <!-- $a_1$: $+0.032$ -->
    <g style="opacity: 0" transform="translate(150.4066 249.137952) scale(0.01 -0.01)">
     <defs>
      <path id="DejaVuSans-Oblique-61" d="M 3438 1997 
L 3047 0 
L 2472 0 
L 2578 531 
Q 2325 219 2001 64 
Q 1678 -91 1281 -91 
Q 834 -91 548 182 
Q 263 456 263 884 
Q 263 1497 752 1853 
Q 1241 2209 2100 2209 
L 2900 2209 
L 2931 2363 
Q 2938 2388 2941 2417 
Q 2944 2447 2944 2509 
Q 2944 2788 2717 2942 
Q 2491 3097 2081 3097 
Q 1800 3097 1504 3025 
Q 1209 2953 897 2809 
L 997 3341 
Q 1322 3463 1633 3523 
Q 1944 3584 2234 3584 
Q 2853 3584 3176 3315 
Q 3500 3047 3500 2534 
Q 3500 2431 3484 2292 
Q 3469 2153 3438 1997 
z
M 2816 1759 
L 2241 1759 
Q 1534 1759 1195 1570 
Q 856 1381 856 984 
Q 856 709 1029 553 
Q 1203 397 1509 397 
Q 1978 397 2328 733 
Q 2678 1069 2791 1631 
L 2816 1759 
z
" transform="scale(0.015625)"/>
      <path id="DejaVuSans-33" d="M 2597 2516 
Q 3050 2419 3304 2112 
Q 3559 1806 3559 1356 
Q 3559 666 3084 287 
Q 2609 -91 1734 -91 
Q 1441 -91 1130 -33 
Q 819 25 488 141 
L 488 750 
Q 750 597 1062 519 
Q 1375 441 1716 441 
Q 2309 441 2620 675 
Q 2931 909 2931 1356 
Q 2931 1769 2642 2001 
Q 2353 2234 1838 2234 
L 1294 2234 
L 1294 2753 
L 1863 2753 
Q 2328 2753 2575 2939 
Q 2822 3125 2822 3475 
Q 2822 3834 2567 4026 
Q 2313 4219 1838 4219 
Q 1578 4219 1281 4162 
Q 984 4106 628 3988 
L 628 4550 
Q 988 4650 1302 4700 
Q 1616 4750 1894 4750 
Q 2613 4750 3031 4423 
Q 3450 4097 3450 3541 
Q 3450 3153 3228 2886 
Q 3006 2619 2597 2516 
z
" transform="scale(0.015625)"/>
     </defs>
     <use xlink:href="#DejaVuSans-Oblique-61" transform="translate(0 0.78125)"/>
     <use xlink:href="#DejaVuSans-31" transform="translate(61.279297 -15.625) scale(0.7)"/>
     <use xlink:href="#DejaVuSans-3a" transform="translate(108.549805 0.78125)"/>
     <use xlink:href="#DejaVuSans-20" transform="translate(142.241211 0.78125)"/>
     <use xlink:href="#DejaVuSans-2b" transform="translate(174.02832 0.78125)"/>
     <use xlink:href="#DejaVuSans-30" transform="translate(257.817383 0.78125)"/>
     <use xlink:href="#DejaVuSans-2e" transform="translate(321.44043 0.78125)"/>
     <use xlink:href="#DejaVuSans-30" transform="translate(353.227539 0.78125)"/>
     <use xlink:href="#DejaVuSans-33" transform="translate(416.850586 0.78125)"/>
     <use xlink:href="#DejaVuSans-32" transform="translate(480.473633 0.78125)"/>
    </g>
    <!-- (at $+0.032$, under $e$ labels) -->
    <g style="opacity: 0" transform="translate(150.4066 250.257733) scale(0.01 -0.01)">
     <use xlink:href="#DejaVuSans-28" transform="translate(0 0.015625)"/>
     <use xlink:href="#DejaVuSans-61" transform="translate(39.013672 0.015625)"/>
     <use xlink:href="#DejaVuSans-74" transform="translate(100.292969 0.015625)"/>
     <use xlink:href="#DejaVuSans-20" transform="translate(139.501953 0.015625)"/>
     <use xlink:href="#DejaVuSans-2b" transform="translate(171.289062 0.015625)"/>
     <use xlink:href="#DejaVuSans-30" transform="translate(255.078125 0.015625)"/>
     <use xlink:href="#DejaVuSans-2e" transform="translate(318.701172 0.015625)"/>
     <use xlink:href="#DejaVuSans-30" transform="translate(350.488281 0.015625)"/>
     <use xlink:href="#DejaVuSans-33" transform="translate(414.111328 0.015625)"/>
     <use xlink:href="#DejaVuSans-32" transform="translate(477.734375 0.015625)"/>
     <use xlink:href="#DejaVuSans-2c" transform="translate(541.357422 0.015625)"/>
     <use xlink:href="#DejaVuSans-20" transform="translate(573.144531 0.015625)"/>
     <use xlink:href="#DejaVuSans-75" transform="translate(604.931641 0.015625)"/>
     <use xlink:href="#DejaVuSans-6e" transform="translate(668.310547 0.015625)"/>
     <use xlink:href="#DejaVuSans-64" transform="translate(731.689453 0.015625)"/>
     <use xlink:href="#DejaVuSans-65" transform="translate(795.166016 0.015625)"/>
     <use xlink:href="#DejaVuSans-72" transform="translate(856.689453 0.015625)"/>
     <use xlink:href="#DejaVuSans-20" transform="translate(897.802734 0.015625)"/>
     <use xlink:href="#DejaVuSans-Oblique-65" transform="translate(929.589844 0.015625)"/>
     <use xlink:href="#DejaVuSans-20" transform="translate(991.113281 0.015625)"/>
     <use xlink:href="#DejaVuSans-6c" transform="translate(1022.900391 0.015625)"/>
     <use xlink:href="#DejaVuSans-61" transform="translate(1050.683594 0.015625)"/>
     <use xlink:href="#DejaVuSans-62" transform="translate(1111.962891 0.015625)"/>
     <use xlink:href="#DejaVuSans-65" transform="translate(1175.439453 0.015625)"/>
     <use xlink:href="#DejaVuSans-6c" transform="translate(1236.962891 0.015625)"/>
     <use xlink:href="#DejaVuSans-73" transform="translate(1264.746094 0.015625)"/>
     <use xlink:href="#DejaVuSans-29" transform="translate(1316.845703 0.015625)"/>
    </g>
   </g>
   <g id="text_20">
    <!-- $a_1$: $+0.032$ -->
    <g transform="translate(173.5472 302.379204) scale(0.086 -0.086)">
     <use xlink:href="#DejaVuSans-Oblique-61" transform="translate(0 0.78125)"/>
     <use xlink:href="#DejaVuSans-31" transform="translate(61.279297 -15.625) scale(0.7)"/>
     <use xlink:href="#DejaVuSans-3a" transform="translate(108.549805 0.78125)"/>
     <use xlink:href="#DejaVuSans-20" transform="translate(142.241211 0.78125)"/>
     <use xlink:href="#DejaVuSans-2b" transform="translate(174.02832 0.78125)"/>
     <use xlink:href="#DejaVuSans-30" transform="translate(257.817383 0.78125)"/>
     <use xlink:href="#DejaVuSans-2e" transform="translate(321.44043 0.78125)"/>
     <use xlink:href="#DejaVuSans-30" transform="translate(353.227539 0.78125)"/>
     <use xlink:href="#DejaVuSans-33" transform="translate(416.850586 0.78125)"/>
     <use xlink:href="#DejaVuSans-32" transform="translate(480.473633 0.78125)"/>
    </g>
   </g>
   <g id="text_21">
    <!-- $e\times2$: $+1.667$ -->
    <g transform="translate(124.09964 59.371307) scale(0.086 -0.086)">
     <use xlink:href="#DejaVuSans-Oblique-65" transform="translate(0 0.78125)"/>
     <use xlink:href="#DejaVuSans-d7" transform="translate(81.005859 0.78125)"/>
     <use xlink:href="#DejaVuSans-32" transform="translate(184.277344 0.78125)"/>
     <use xlink:href="#DejaVuSans-3a" transform="translate(247.900391 0.78125)"/>
     <use xlink:href="#DejaVuSans-20" transform="translate(281.591797 0.78125)"/>
     <use xlink:href="#DejaVuSans-2b" transform="translate(313.378906 0.78125)"/>
     <use xlink:href="#DejaVuSans-31" transform="translate(397.167969 0.78125)"/>
     <use xlink:href="#DejaVuSans-2e" transform="translate(460.791016 0.78125)"/>
     <use xlink:href="#DejaVuSans-36" transform="translate(492.578125 0.78125)"/>
     <use xlink:href="#DejaVuSans-36" transform="translate(556.201172 0.78125)"/>
     <use xlink:href="#DejaVuSans-37" transform="translate(619.824219 0.78125)"/>
    </g>
   </g>
   <g id="text_22">
    <!-- $e\times2$: $+0.720$ -->
    <g style="fill: #c2185b" transform="translate(276.5906 185.952022) scale(0.086 -0.086)">
     <use xlink:href="#DejaVuSans-Oblique-65" transform="translate(0 0.78125)"/>
     <use xlink:href="#DejaVuSans-d7" transform="translate(81.005859 0.78125)"/>
     <use xlink:href="#DejaVuSans-32" transform="translate(184.277344 0.78125)"/>
     <use xlink:href="#DejaVuSans-3a" transform="translate(247.900391 0.78125)"/>
     <use xlink:href="#DejaVuSans-20" transform="translate(281.591797 0.78125)"/>
     <use xlink:href="#DejaVuSans-2b" transform="translate(313.378906 0.78125)"/>
     <use xlink:href="#DejaVuSans-30" transform="translate(397.167969 0.78125)"/>
     <use xlink:href="#DejaVuSans-2e" transform="translate(460.791016 0.78125)"/>
     <use xlink:href="#DejaVuSans-37" transform="translate(484.828125 0.78125)"/>
     <use xlink:href="#DejaVuSans-32" transform="translate(548.451172 0.78125)"/>
     <use xlink:href="#DejaVuSans-30" transform="translate(612.074219 0.78125)"/>
    </g>
   </g>
   <g id="text_23">
    <!-- $+1.647$ -->
    <g style="fill: #c2185b" transform="translate(289.7056 81.70908) scale(0.086 -0.086)">
     <use xlink:href="#DejaVuSans-2b" transform="translate(0 0.78125)"/>
     <use xlink:href="#DejaVuSans-31" transform="translate(83.789062 0.78125)"/>
     <use xlink:href="#DejaVuSans-2e" transform="translate(147.412109 0.78125)"/>
     <use xlink:href="#DejaVuSans-36" transform="translate(179.199219 0.78125)"/>
     <use xlink:href="#DejaVuSans-34" transform="translate(242.822266 0.78125)"/>
     <use xlink:href="#DejaVuSans-37" transform="translate(306.445312 0.78125)"/>
    </g>
   </g>
   <g id="text_24">
    <!-- $-0.038\times2$, $-0.012$ -->
    <g style="fill: #1565c0" transform="translate(418.2976 280.718333) scale(0.086 -0.086)">
     <use xlink:href="#DejaVuSans-2212" transform="translate(0 0.78125)"/>
     <use xlink:href="#DejaVuSans-30" transform="translate(83.789062 0.78125)"/>
     <use xlink:href="#DejaVuSans-2e" transform="translate(147.412109 0.78125)"/>
     <use xlink:href="#DejaVuSans-30" transform="translate(179.199219 0.78125)"/>
     <use xlink:href="#DejaVuSans-33" transform="translate(242.822266 0.78125)"/>
     <use xlink:href="#DejaVuSans-38" transform="translate(306.445312 0.78125)"/>
     <use xlink:href="#DejaVuSans-d7" transform="translate(389.550781 0.78125)"/>
     <use xlink:href="#DejaVuSans-32" transform="translate(492.822266 0.78125)"/>
     <use xlink:href="#DejaVuSans-2c" transform="translate(556.445312 0.78125)"/>
     <use xlink:href="#DejaVuSans-20" transform="translate(588.232422 0.78125)"/>
     <use xlink:href="#DejaVuSans-2212" transform="translate(620.019531 0.78125)"/>
     <use xlink:href="#DejaVuSans-30" transform="translate(703.808594 0.78125)"/>
     <use xlink:href="#DejaVuSans-2e" transform="translate(767.431641 0.78125)"/>
     <use xlink:href="#DejaVuSans-30" transform="translate(799.21875 0.78125)"/>
     <use xlink:href="#DejaVuSans-31" transform="translate(862.841797 0.78125)"/>
     <use xlink:href="#DejaVuSans-32" transform="translate(926.464844 0.78125)"/>
    </g>
   </g>
   <g id="text_25">
    <!-- $e\times2$: $+1.624$ -->
    <g style="fill: #1565c0" transform="translate(431.4986 83.739787) scale(0.086 -0.086)">
     <use xlink:href="#DejaVuSans-Oblique-65" transform="translate(0 0.78125)"/>
     <use xlink:href="#DejaVuSans-d7" transform="translate(81.005859 0.78125)"/>
     <use xlink:href="#DejaVuSans-32" transform="translate(184.277344 0.78125)"/>
     <use xlink:href="#DejaVuSans-3a" transform="translate(247.900391 0.78125)"/>
     <use xlink:href="#DejaVuSans-20" transform="translate(281.591797 0.78125)"/>
     <use xlink:href="#DejaVuSans-2b" transform="translate(313.378906 0.78125)"/>
     <use xlink:href="#DejaVuSans-31" transform="translate(397.167969 0.78125)"/>
     <use xlink:href="#DejaVuSans-2e" transform="translate(460.791016 0.78125)"/>
     <use xlink:href="#DejaVuSans-36" transform="translate(492.578125 0.78125)"/>
     <use xlink:href="#DejaVuSans-32" transform="translate(556.201172 0.78125)"/>
     <use xlink:href="#DejaVuSans-34" transform="translate(619.824219 0.78125)"/>
    </g>
   </g>
   <g id="text_26">
    <!-- O$_S$ defect levels: 6$\times$6 $H_{\rm eff}$ (36 $k$) vs supercell DFT -->
    <g transform="translate(201.519 20.88) scale(0.11 -0.11)">
     <defs>
      <path id="DejaVuSans-4f" d="M 2522 4238 
Q 1834 4238 1429 3725 
Q 1025 3213 1025 2328 
Q 1025 1447 1429 934 
Q 1834 422 2522 422 
Q 3209 422 3611 934 
Q 4013 1447 4013 2328 
Q 4013 3213 3611 3725 
Q 3209 4238 2522 4238 
z
M 2522 4750 
Q 3503 4750 4090 4092 
Q 4678 3434 4678 2328 
Q 4678 1225 4090 567 
Q 3503 -91 2522 -91 
Q 1538 -91 948 565 
Q 359 1222 359 2328 
Q 359 3434 948 4092 
Q 1538 4750 2522 4750 
z
" transform="scale(0.015625)"/>
      <path id="DejaVuSans-Oblique-53" d="M 3859 4513 
L 3738 3897 
Q 3422 4066 3111 4152 
Q 2800 4238 2509 4238 
Q 1944 4238 1609 3991 
Q 1275 3744 1275 3334 
Q 1275 3109 1398 2989 
Q 1522 2869 2034 2731 
L 2413 2638 
Q 3053 2472 3303 2217 
Q 3553 1963 3553 1503 
Q 3553 797 2998 353 
Q 2444 -91 1538 -91 
Q 1166 -91 791 -17 
Q 416 56 38 206 
L 166 856 
Q 513 641 861 531 
Q 1209 422 1556 422 
Q 2147 422 2503 684 
Q 2859 947 2859 1369 
Q 2859 1650 2717 1795 
Q 2575 1941 2106 2059 
L 1728 2156 
Q 1081 2325 845 2545 
Q 609 2766 609 3163 
Q 609 3859 1145 4304 
Q 1681 4750 2541 4750 
Q 2875 4750 3203 4690 
Q 3531 4631 3859 4513 
z
" transform="scale(0.015625)"/>
     </defs>
     <use xlink:href="#DejaVuSans-4f" transform="translate(0 0.015625)"/>
     <use xlink:href="#DejaVuSans-Oblique-53" transform="translate(79.667969 -16.390625) scale(0.7)"/>
     <use xlink:href="#DejaVuSans-20" transform="translate(126.835938 0.015625)"/>
     <use xlink:href="#DejaVuSans-64" transform="translate(158.623047 0.015625)"/>
     <use xlink:href="#DejaVuSans-65" transform="translate(222.099609 0.015625)"/>
     <use xlink:href="#DejaVuSans-66" transform="translate(283.623047 0.015625)"/>
     <use xlink:href="#DejaVuSans-65" transform="translate(318.828125 0.015625)"/>
     <use xlink:href="#DejaVuSans-63" transform="translate(380.351562 0.015625)"/>
     <use xlink:href="#DejaVuSans-74" transform="translate(435.332031 0.015625)"/>
     <use xlink:href="#DejaVuSans-20" transform="translate(474.541016 0.015625)"/>
     <use xlink:href="#DejaVuSans-6c" transform="translate(506.328125 0.015625)"/>
     <use xlink:href="#DejaVuSans-65" transform="translate(534.111328 0.015625)"/>
     <use xlink:href="#DejaVuSans-76" transform="translate(595.634766 0.015625)"/>
     <use xlink:href="#DejaVuSans-65" transform="translate(654.814453 0.015625)"/>
     <use xlink:href="#DejaVuSans-6c" transform="translate(716.337891 0.015625)"/>
     <use xlink:href="#DejaVuSans-73" transform="translate(744.121094 0.015625)"/>
     <use xlink:href="#DejaVuSans-3a" transform="translate(796.220703 0.015625)"/>
     <use xlink:href="#DejaVuSans-20" transform="translate(829.912109 0.015625)"/>
     <use xlink:href="#DejaVuSans-36" transform="translate(861.699219 0.015625)"/>
     <use xlink:href="#DejaVuSans-d7" transform="translate(925.322266 0.015625)"/>
     <use xlink:href="#DejaVuSans-36" transform="translate(1009.111328 0.015625)"/>
     <use xlink:href="#DejaVuSans-20" transform="translate(1072.734375 0.015625)"/>
     <use xlink:href="#DejaVuSans-Oblique-48" transform="translate(1104.521484 0.015625)"/>
     <use xlink:href="#DejaVuSans-65" transform="translate(1179.716797 -16.390625) scale(0.7)"/>
     <use xlink:href="#DejaVuSans-66" transform="translate(1222.783203 -16.390625) scale(0.7)"/>
     <use xlink:href="#DejaVuSans-66" transform="translate(1247.426758 -16.390625) scale(0.7)"/>
     <use xlink:href="#DejaVuSans-20" transform="translate(1274.804688 0.015625)"/>
     <use xlink:href="#DejaVuSans-28" transform="translate(1306.591797 0.015625)"/>
     <use xlink:href="#DejaVuSans-33" transform="translate(1345.605469 0.015625)"/>
     <use xlink:href="#DejaVuSans-36" transform="translate(1409.228516 0.015625)"/>
     <use xlink:href="#DejaVuSans-20" transform="translate(1472.851562 0.015625)"/>
     <use xlink:href="#DejaVuSans-Oblique-6b" transform="translate(1504.638672 0.015625)"/>
     <use xlink:href="#DejaVuSans-29" transform="translate(1562.548828 0.015625)"/>
     <use xlink:href="#DejaVuSans-20" transform="translate(1601.5625 0.015625)"/>
     <use xlink:href="#DejaVuSans-76" transform="translate(1633.349609 0.015625)"/>
     <use xlink:href="#DejaVuSans-73" transform="translate(1692.529297 0.015625)"/>
     <use xlink:href="#DejaVuSans-20" transform="translate(1744.628906 0.015625)"/>
     <use xlink:href="#DejaVuSans-73" transform="translate(1776.416016 0.015625)"/>
     <use xlink:href="#DejaVuSans-75" transform="translate(1828.515625 0.015625)"/>
     <use xlink:href="#DejaVuSans-70" transform="translate(1891.894531 0.015625)"/>
     <use xlink:href="#DejaVuSans-65" transform="translate(1955.371094 0.015625)"/>
     <use xlink:href="#DejaVuSans-72" transform="translate(2016.894531 0.015625)"/>
     <use xlink:href="#DejaVuSans-63" transform="translate(2058.007812 0.015625)"/>
     <use xlink:href="#DejaVuSans-65" transform="translate(2112.988281 0.015625)"/>
     <use xlink:href="#DejaVuSans-6c" transform="translate(2174.511719 0.015625)"/>
     <use xlink:href="#DejaVuSans-6c" transform="translate(2202.294922 0.015625)"/>
     <use xlink:href="#DejaVuSans-20" transform="translate(2230.078125 0.015625)"/>
     <use xlink:href="#DejaVuSans-44" transform="translate(2261.865234 0.015625)"/>
     <use xlink:href="#DejaVuSans-46" transform="translate(2338.867188 0.015625)"/>
     <use xlink:href="#DejaVuSans-54" transform="translate(2396.386719 0.015625)"/>
    </g>
   </g>
  </g>
 </g>
 <defs>
  <clipPath id="p814b45186c">
   <rect x="65.018" y="26.88" width="543.382" height="304.606"/>
  </clipPath>
 </defs>
</svg>
