<?xml version="1.0" encoding="utf-8" standalone="no"?>
<!DOCTYPE svg PUBLIC "-//W3C//DTD SVG 1.1//EN"
  "http://www.w3.org/Graphics/SVG/1.1/DTD/svg11.dtd">
<svg xmlns:xlink="http://www.w3.org/1999/xlink" width="572.292812pt" height="374.87625pt" viewBox="0 0 572.292812 374.87625" xmlns="http://www.w3.org/2000/svg" version="1.1">
 <metadata>
  <rdf:RDF xmlns:dc="http://purl.org/dc/elements/1.1/" xmlns:cc="http://creativecommons.org/ns#" xmlns:rdf="http://www.w3.org/1999/02/22-rdf-syntax-ns#">
   <cc:Work>
    <dc:type rdf:resource="http://purl.org/dc/dcmitype/StillImage"/>
    <dc:date>2026-07-01T14:00:19.083467</dc:date>
    <dc:format>image/svg+xml</dc:format>
    <dc:creator>
     <cc:Agent>
      <dc:title>Matplotlib v3.10.8, https://matplotlib.org/</dc:title>
     </cc:Agent>
    </dc:creator>
   </cc:Work>
  </rdf:RDF>
 </metadata>
 <defs>
  <style type="text/css">*{stroke-linejoin: round; stroke-linecap: butt}</style>
 </defs>
 <g id="figure_1">
  <g id="patch_1">
   <path d="M 0 374.87625 
L 572.292812 374.87625 
L 572.292812 0 
L 0 0 
L 0 374.87625 
z
" style="fill: none"/>
  </g>
  <g id="axes_1">
   <g id="patch_2">
    <path d="M 43.78125 337.32 
L 557.14125 337.32 
L 557.14125 37.944 
L 43.78125 37.944 
L 43.78125 337.32 
z
" style="fill: none"/>
   </g>
   <g id="patch_3">
    <path d="M 190.455536 337.32 
L 433.494827 337.32 
L 433.494827 37.944 
L 190.455536 37.944 
z
" clip-path="url(#p206b5eaa59)" style="fill: #eef0f7; stroke: #eef0f7; stroke-linejoin: miter"/>
   </g>
   <g id="matplotlib.axis_1">
    <g id="xtick_1">
     <g id="line2d_1">
      <defs>
       <path id="mf5b794e81f" d="M 0 0 
L 0 3.5 
" style="stroke: #000000; stroke-width: 0.8"/>
      </defs>
      <g>
       <use xlink:href="#mf5b794e81f" x="43.78125" y="337.32" style="stroke: #000000; stroke-width: 0.8"/>
      </g>
     </g>
     <g id="text_1">
      <!-- −1.0 -->
      <g transform="translate(31.639844 351.918438) scale(0.1 -0.1)">
       <defs>
        <path id="DejaVuSans-2212" d="M 678 2272 
L 4684 2272 
L 4684 1741 
L 678 1741 
L 678 2272 
z
" transform="scale(0.015625)"/>
        <path id="DejaVuSans-31" d="M 794 531 
L 1825 531 
L 1825 4091 
L 703 3866 
L 703 4441 
L 1819 4666 
L 2450 4666 
L 2450 531 
L 3481 531 
L 3481 0 
L 794 0 
L 794 531 
z
" transform="scale(0.015625)"/>
        <path id="DejaVuSans-2e" d="M 684 794 
L 1344 794 
L 1344 0 
L 684 0 
L 684 794 
z
" transform="scale(0.015625)"/>
        <path id="DejaVuSans-30" d="M 2034 4250 
Q 1547 4250 1301 3770 
Q 1056 3291 1056 2328 
Q 1056 1369 1301 889 
Q 1547 409 2034 409 
Q 2525 409 2770 889 
Q 3016 1369 3016 2328 
Q 3016 3291 2770 3770 
Q 2525 4250 2034 4250 
z
M 2034 4750 
Q 2819 4750 3233 4129 
Q 3647 3509 3647 2328 
Q 3647 1150 3233 529 
Q 2819 -91 2034 -91 
Q 1250 -91 836 529 
Q 422 1150 422 2328 
Q 422 3509 836 4129 
Q 1250 4750 2034 4750 
z
" transform="scale(0.015625)"/>
       </defs>
       <use xlink:href="#DejaVuSans-2212"/>
       <use xlink:href="#DejaVuSans-31" transform="translate(83.789062 0)"/>
       <use xlink:href="#DejaVuSans-2e" transform="translate(147.412109 0)"/>
       <use xlink:href="#DejaVuSans-30" transform="translate(179.199219 0)"/>
      </g>
     </g>
    </g>
    <g id="xtick_2">
     <g id="line2d_2">
      <g>
       <use xlink:href="#mf5b794e81f" x="117.118393" y="337.32" style="stroke: #000000; stroke-width: 0.8"/>
      </g>
     </g>
     <g id="text_2">
      <!-- −0.5 -->
      <g transform="translate(104.976987 351.918438) scale(0.1 -0.1)">
       <defs>
        <path id="DejaVuSans-35" d="M 691 4666 
L 3169 4666 
L 3169 4134 
L 1269 4134 
L 1269 2991 
Q 1406 3038 1543 3061 
Q 1681 3084 1819 3084 
Q 2600 3084 3056 2656 
Q 3513 2228 3513 1497 
Q 3513 744 3044 326 
Q 2575 -91 1722 -91 
Q 1428 -91 1123 -41 
Q 819 9 494 109 
L 494 744 
Q 775 591 1075 516 
Q 1375 441 1709 441 
Q 2250 441 2565 725 
Q 2881 1009 2881 1497 
Q 2881 1984 2565 2268 
Q 2250 2553 1709 2553 
Q 1456 2553 1204 2497 
Q 953 2441 691 2322 
L 691 4666 
z
" transform="scale(0.015625)"/>
       </defs>
       <use xlink:href="#DejaVuSans-2212"/>
       <use xlink:href="#DejaVuSans-30" transform="translate(83.789062 0)"/>
       <use xlink:href="#DejaVuSans-2e" transform="translate(147.412109 0)"/>
       <use xlink:href="#DejaVuSans-35" transform="translate(179.199219 0)"/>
      </g>
     </g>
    </g>
    <g id="xtick_3">
     <g id="line2d_3">
      <g>
       <use xlink:href="#mf5b794e81f" x="190.455536" y="337.32" style="stroke: #000000; stroke-width: 0.8"/>
      </g>
     </g>
     <g id="text_3">
      <!-- 0.0 -->
      <g transform="translate(182.503973 351.918438) scale(0.1 -0.1)">
       <use xlink:href="#DejaVuSans-30"/>
       <use xlink:href="#DejaVuSans-2e" transform="translate(63.623047 0)"/>
       <use xlink:href="#DejaVuSans-30" transform="translate(95.410156 0)"/>
      </g>
     </g>
    </g>
    <g id="xtick_4">
     <g id="line2d_4">
      <g>
       <use xlink:href="#mf5b794e81f" x="263.792679" y="337.32" style="stroke: #000000; stroke-width: 0.8"/>
      </g>
     </g>
     <g id="text_4">
      <!-- 0.5 -->
      <g transform="translate(255.841116 351.918438) scale(0.1 -0.1)">
       <use xlink:href="#DejaVuSans-30"/>
       <use xlink:href="#DejaVuSans-2e" transform="translate(63.623047 0)"/>
       <use xlink:href="#DejaVuSans-35" transform="translate(95.410156 0)"/>
      </g>
     </g>
    </g>
    <g id="xtick_5">
     <g id="line2d_5">
      <g>
       <use xlink:href="#mf5b794e81f" x="337.129821" y="337.32" style="stroke: #000000; stroke-width: 0.8"/>
      </g>
     </g>
     <g id="text_5">
      <!-- 1.0 -->
      <g transform="translate(329.178259 351.918438) scale(0.1 -0.1)">
       <use xlink:href="#DejaVuSans-31"/>
       <use xlink:href="#DejaVuSans-2e" transform="translate(63.623047 0)"/>
       <use xlink:href="#DejaVuSans-30" transform="translate(95.410156 0)"/>
      </g>
     </g>
    </g>
    <g id="xtick_6">
     <g id="line2d_6">
      <g>
       <use xlink:href="#mf5b794e81f" x="410.466964" y="337.32" style="stroke: #000000; stroke-width: 0.8"/>
      </g>
     </g>
     <g id="text_6">
      <!-- 1.5 -->
      <g transform="translate(402.515402 351.918438) scale(0.1 -0.1)">
       <use xlink:href="#DejaVuSans-31"/>
       <use xlink:href="#DejaVuSans-2e" transform="translate(63.623047 0)"/>
       <use xlink:href="#DejaVuSans-35" transform="translate(95.410156 0)"/>
      </g>
     </g>
    </g>
    <g id="xtick_7">
     <g id="line2d_7">
      <g>
       <use xlink:href="#mf5b794e81f" x="483.804107" y="337.32" style="stroke: #000000; stroke-width: 0.8"/>
      </g>
     </g>
     <g id="text_7">
      <!-- 2.0 -->
      <g transform="translate(475.852545 351.918438) scale(0.1 -0.1)">
       <defs>
        <path id="DejaVuSans-32" d="M 1228 531 
L 3431 531 
L 3431 0 
L 469 0 
L 469 531 
Q 828 903 1448 1529 
Q 2069 2156 2228 2338 
Q 2531 2678 2651 2914 
Q 2772 3150 2772 3378 
Q 2772 3750 2511 3984 
Q 2250 4219 1831 4219 
Q 1534 4219 1204 4116 
Q 875 4013 500 3803 
L 500 4441 
Q 881 4594 1212 4672 
Q 1544 4750 1819 4750 
Q 2544 4750 2975 4387 
Q 3406 4025 3406 3419 
Q 3406 3131 3298 2873 
Q 3191 2616 2906 2266 
Q 2828 2175 2409 1742 
Q 1991 1309 1228 531 
z
" transform="scale(0.015625)"/>
       </defs>
       <use xlink:href="#DejaVuSans-32"/>
       <use xlink:href="#DejaVuSans-2e" transform="translate(63.623047 0)"/>
       <use xlink:href="#DejaVuSans-30" transform="translate(95.410156 0)"/>
      </g>
     </g>
    </g>
    <g id="xtick_8">
     <g id="line2d_8">
      <g>
       <use xlink:href="#mf5b794e81f" x="557.14125" y="337.32" style="stroke: #000000; stroke-width: 0.8"/>
      </g>
     </g>
     <g id="text_8">
      <!-- 2.5 -->
      <g transform="translate(549.189687 351.918438) scale(0.1 -0.1)">
       <use xlink:href="#DejaVuSans-32"/>
       <use xlink:href="#DejaVuSans-2e" transform="translate(63.623047 0)"/>
       <use xlink:href="#DejaVuSans-35" transform="translate(95.410156 0)"/>
      </g>
     </g>
    </g>
    <g id="text_9">
     <!-- E − VBM (eV) -->
     <g transform="translate(266.781563 365.596563) scale(0.1 -0.1)">
      <defs>
       <path id="DejaVuSans-45" d="M 628 4666 
L 3578 4666 
L 3578 4134 
L 1259 4134 
L 1259 2753 
L 3481 2753 
L 3481 2222 
L 1259 2222 
L 1259 531 
L 3634 531 
L 3634 0 
L 628 0 
L 628 4666 
z
" transform="scale(0.015625)"/>
       <path id="DejaVuSans-20" transform="scale(0.015625)"/>
       <path id="DejaVuSans-56" d="M 1831 0 
L 50 4666 
L 709 4666 
L 2188 738 
L 3669 4666 
L 4325 4666 
L 2547 0 
L 1831 0 
z
" transform="scale(0.015625)"/>
       <path id="DejaVuSans-42" d="M 1259 2228 
L 1259 519 
L 2272 519 
Q 2781 519 3026 730 
Q 3272 941 3272 1375 
Q 3272 1813 3026 2020 
Q 2781 2228 2272 2228 
L 1259 2228 
z
M 1259 4147 
L 1259 2741 
L 2194 2741 
Q 2656 2741 2882 2914 
Q 3109 3088 3109 3444 
Q 3109 3797 2882 3972 
Q 2656 4147 2194 4147 
L 1259 4147 
z
M 628 4666 
L 2241 4666 
Q 2963 4666 3353 4366 
Q 3744 4066 3744 3513 
Q 3744 3084 3544 2831 
Q 3344 2578 2956 2516 
Q 3422 2416 3680 2098 
Q 3938 1781 3938 1306 
Q 3938 681 3513 340 
Q 3088 0 2303 0 
L 628 0 
L 628 4666 
z
" transform="scale(0.015625)"/>
       <path id="DejaVuSans-4d" d="M 628 4666 
L 1569 4666 
L 2759 1491 
L 3956 4666 
L 4897 4666 
L 4897 0 
L 4281 0 
L 4281 4097 
L 3078 897 
L 2444 897 
L 1241 4097 
L 1241 0 
L 628 0 
L 628 4666 
z
" transform="scale(0.015625)"/>
       <path id="DejaVuSans-28" d="M 1984 4856 
Q 1566 4138 1362 3434 
Q 1159 2731 1159 2009 
Q 1159 1288 1364 580 
Q 1569 -128 1984 -844 
L 1484 -844 
Q 1016 -109 783 600 
Q 550 1309 550 2009 
Q 550 2706 781 3412 
Q 1013 4119 1484 4856 
L 1984 4856 
z
" transform="scale(0.015625)"/>
       <path id="DejaVuSans-65" d="M 3597 1894 
L 3597 1613 
L 953 1613 
Q 991 1019 1311 708 
Q 1631 397 2203 397 
Q 2534 397 2845 478 
Q 3156 559 3463 722 
L 3463 178 
Q 3153 47 2828 -22 
Q 2503 -91 2169 -91 
Q 1331 -91 842 396 
Q 353 884 353 1716 
Q 353 2575 817 3079 
Q 1281 3584 2069 3584 
Q 2775 3584 3186 3129 
Q 3597 2675 3597 1894 
z
M 3022 2063 
Q 3016 2534 2758 2815 
Q 2500 3097 2075 3097 
Q 1594 3097 1305 2825 
Q 1016 2553 972 2059 
L 3022 2063 
z
" transform="scale(0.015625)"/>
       <path id="DejaVuSans-29" d="M 513 4856 
L 1013 4856 
Q 1481 4119 1714 3412 
Q 1947 2706 1947 2009 
Q 1947 1309 1714 600 
Q 1481 -109 1013 -844 
L 513 -844 
Q 928 -128 1133 580 
Q 1338 1288 1338 2009 
Q 1338 2731 1133 3434 
Q 928 4138 513 4856 
z
" transform="scale(0.015625)"/>
      </defs>
      <use xlink:href="#DejaVuSans-45"/>
      <use xlink:href="#DejaVuSans-20" transform="translate(63.183594 0)"/>
      <use xlink:href="#DejaVuSans-2212" transform="translate(94.970703 0)"/>
      <use xlink:href="#DejaVuSans-20" transform="translate(178.759766 0)"/>
      <use xlink:href="#DejaVuSans-56" transform="translate(210.546875 0)"/>
      <use xlink:href="#DejaVuSans-42" transform="translate(278.955078 0)"/>
      <use xlink:href="#DejaVuSans-4d" transform="translate(347.558594 0)"/>
      <use xlink:href="#DejaVuSans-20" transform="translate(433.837891 0)"/>
      <use xlink:href="#DejaVuSans-28" transform="translate(465.625 0)"/>
      <use xlink:href="#DejaVuSans-65" transform="translate(504.638672 0)"/>
      <use xlink:href="#DejaVuSans-56" transform="translate(566.162109 0)"/>
      <use xlink:href="#DejaVuSans-29" transform="translate(634.570312 0)"/>
     </g>
    </g>
   </g>
   <g id="matplotlib.axis_2">
    <g id="ytick_1">
     <g id="line2d_9">
      <defs>
       <path id="m3be2750878" d="M 0 0 
L -3.5 0 
" style="stroke: #000000; stroke-width: 0.8"/>
      </defs>
      <g>
       <use xlink:href="#m3be2750878" x="43.78125" y="337.32" style="stroke: #000000; stroke-width: 0.8"/>
      </g>
     </g>
     <g id="text_10">
      <!-- 0.0 -->
      <g transform="translate(20.878125 341.119219) scale(0.1 -0.1)">
       <use xlink:href="#DejaVuSans-30"/>
       <use xlink:href="#DejaVuSans-2e" transform="translate(63.623047 0)"/>
       <use xlink:href="#DejaVuSans-30" transform="translate(95.410156 0)"/>
      </g>
     </g>
    </g>
    <g id="ytick_2">
     <g id="line2d_10">
      <g>
       <use xlink:href="#m3be2750878" x="43.78125" y="286.941119" style="stroke: #000000; stroke-width: 0.8"/>
      </g>
     </g>
     <g id="text_11">
      <!-- 0.5 -->
      <g transform="translate(20.878125 290.740338) scale(0.1 -0.1)">
       <use xlink:href="#DejaVuSans-30"/>
       <use xlink:href="#DejaVuSans-2e" transform="translate(63.623047 0)"/>
       <use xlink:href="#DejaVuSans-35" transform="translate(95.410156 0)"/>
      </g>
     </g>
    </g>
    <g id="ytick_3">
     <g id="line2d_11">
      <g>
       <use xlink:href="#m3be2750878" x="43.78125" y="236.562239" style="stroke: #000000; stroke-width: 0.8"/>
      </g>
     </g>
     <g id="text_12">
      <!-- 1.0 -->
      <g transform="translate(20.878125 240.361457) scale(0.1 -0.1)">
       <use xlink:href="#DejaVuSans-31"/>
       <use xlink:href="#DejaVuSans-2e" transform="translate(63.623047 0)"/>
       <use xlink:href="#DejaVuSans-30" transform="translate(95.410156 0)"/>
      </g>
     </g>
    </g>
    <g id="ytick_4">
     <g id="line2d_12">
      <g>
       <use xlink:href="#m3be2750878" x="43.78125" y="186.183358" style="stroke: #000000; stroke-width: 0.8"/>
      </g>
     </g>
     <g id="text_13">
      <!-- 1.5 -->
      <g transform="translate(20.878125 189.982577) scale(0.1 -0.1)">
       <use xlink:href="#DejaVuSans-31"/>
       <use xlink:href="#DejaVuSans-2e" transform="translate(63.623047 0)"/>
       <use xlink:href="#DejaVuSans-35" transform="translate(95.410156 0)"/>
      </g>
     </g>
    </g>
    <g id="ytick_5">
     <g id="line2d_13">
      <g>
       <use xlink:href="#m3be2750878" x="43.78125" y="135.804477" style="stroke: #000000; stroke-width: 0.8"/>
      </g>
     </g>
     <g id="text_14">
      <!-- 2.0 -->
      <g transform="translate(20.878125 139.603696) scale(0.1 -0.1)">
       <use xlink:href="#DejaVuSans-32"/>
       <use xlink:href="#DejaVuSans-2e" transform="translate(63.623047 0)"/>
       <use xlink:href="#DejaVuSans-30" transform="translate(95.410156 0)"/>
      </g>
     </g>
    </g>
    <g id="ytick_6">
     <g id="line2d_14">
      <g>
       <use xlink:href="#m3be2750878" x="43.78125" y="85.425596" style="stroke: #000000; stroke-width: 0.8"/>
      </g>
     </g>
     <g id="text_15">
      <!-- 2.5 -->
      <g transform="translate(20.878125 89.224815) scale(0.1 -0.1)">
       <use xlink:href="#DejaVuSans-32"/>
       <use xlink:href="#DejaVuSans-2e" transform="translate(63.623047 0)"/>
       <use xlink:href="#DejaVuSans-35" transform="translate(95.410156 0)"/>
      </g>
     </g>
    </g>
    <g id="text_16">
     <!-- defect DOS (states/eV/cell) -->
     <g transform="translate(14.798438 255.208563) rotate(-90) scale(0.1 -0.1)">
      <defs>
       <path id="DejaVuSans-64" d="M 2906 2969 
L 2906 4863 
L 3481 4863 
L 3481 0 
L 2906 0 
L 2906 525 
Q 2725 213 2448 61 
Q 2172 -91 1784 -91 
Q 1150 -91 751 415 
Q 353 922 353 1747 
Q 353 2572 751 3078 
Q 1150 3584 1784 3584 
Q 2172 3584 2448 3432 
Q 2725 3281 2906 2969 
z
M 947 1747 
Q 947 1113 1208 752 
Q 1469 391 1925 391 
Q 2381 391 2643 752 
Q 2906 1113 2906 1747 
Q 2906 2381 2643 2742 
Q 2381 3103 1925 3103 
Q 1469 3103 1208 2742 
Q 947 2381 947 1747 
z
" transform="scale(0.015625)"/>
       <path id="DejaVuSans-66" d="M 2375 4863 
L 2375 4384 
L 1825 4384 
Q 1516 4384 1395 4259 
Q 1275 4134 1275 3809 
L 1275 3500 
L 2222 3500 
L 2222 3053 
L 1275 3053 
L 1275 0 
L 697 0 
L 697 3053 
L 147 3053 
L 147 3500 
L 697 3500 
L 697 3744 
Q 697 4328 969 4595 
Q 1241 4863 1831 4863 
L 2375 4863 
z
" transform="scale(0.015625)"/>
       <path id="DejaVuSans-63" d="M 3122 3366 
L 3122 2828 
Q 2878 2963 2633 3030 
Q 2388 3097 2138 3097 
Q 1578 3097 1268 2742 
Q 959 2388 959 1747 
Q 959 1106 1268 751 
Q 1578 397 2138 397 
Q 2388 397 2633 464 
Q 2878 531 3122 666 
L 3122 134 
Q 2881 22 2623 -34 
Q 2366 -91 2075 -91 
Q 1284 -91 818 406 
Q 353 903 353 1747 
Q 353 2603 823 3093 
Q 1294 3584 2113 3584 
Q 2378 3584 2631 3529 
Q 2884 3475 3122 3366 
z
" transform="scale(0.015625)"/>
       <path id="DejaVuSans-74" d="M 1172 4494 
L 1172 3500 
L 2356 3500 
L 2356 3053 
L 1172 3053 
L 1172 1153 
Q 1172 725 1289 603 
Q 1406 481 1766 481 
L 2356 481 
L 2356 0 
L 1766 0 
Q 1100 0 847 248 
Q 594 497 594 1153 
L 594 3053 
L 172 3053 
L 172 3500 
L 594 3500 
L 594 4494 
L 1172 4494 
z
" transform="scale(0.015625)"/>
       <path id="DejaVuSans-44" d="M 1259 4147 
L 1259 519 
L 2022 519 
Q 2988 519 3436 956 
Q 3884 1394 3884 2338 
Q 3884 3275 3436 3711 
Q 2988 4147 2022 4147 
L 1259 4147 
z
M 628 4666 
L 1925 4666 
Q 3281 4666 3915 4102 
Q 4550 3538 4550 2338 
Q 4550 1131 3912 565 
Q 3275 0 1925 0 
L 628 0 
L 628 4666 
z
" transform="scale(0.015625)"/>
       <path id="DejaVuSans-4f" d="M 2522 4238 
Q 1834 4238 1429 3725 
Q 1025 3213 1025 2328 
Q 1025 1447 1429 934 
Q 1834 422 2522 422 
Q 3209 422 3611 934 
Q 4013 1447 4013 2328 
Q 4013 3213 3611 3725 
Q 3209 4238 2522 4238 
z
M 2522 4750 
Q 3503 4750 4090 4092 
Q 4678 3434 4678 2328 
Q 4678 1225 4090 567 
Q 3503 -91 2522 -91 
Q 1538 -91 948 565 
Q 359 1222 359 2328 
Q 359 3434 948 4092 
Q 1538 4750 2522 4750 
z
" transform="scale(0.015625)"/>
       <path id="DejaVuSans-53" d="M 3425 4513 
L 3425 3897 
Q 3066 4069 2747 4153 
Q 2428 4238 2131 4238 
Q 1616 4238 1336 4038 
Q 1056 3838 1056 3469 
Q 1056 3159 1242 3001 
Q 1428 2844 1947 2747 
L 2328 2669 
Q 3034 2534 3370 2195 
Q 3706 1856 3706 1288 
Q 3706 609 3251 259 
Q 2797 -91 1919 -91 
Q 1588 -91 1214 -16 
Q 841 59 441 206 
L 441 856 
Q 825 641 1194 531 
Q 1563 422 1919 422 
Q 2459 422 2753 634 
Q 3047 847 3047 1241 
Q 3047 1584 2836 1778 
Q 2625 1972 2144 2069 
L 1759 2144 
Q 1053 2284 737 2584 
Q 422 2884 422 3419 
Q 422 4038 858 4394 
Q 1294 4750 2059 4750 
Q 2388 4750 2728 4690 
Q 3069 4631 3425 4513 
z
" transform="scale(0.015625)"/>
       <path id="DejaVuSans-73" d="M 2834 3397 
L 2834 2853 
Q 2591 2978 2328 3040 
Q 2066 3103 1784 3103 
Q 1356 3103 1142 2972 
Q 928 2841 928 2578 
Q 928 2378 1081 2264 
Q 1234 2150 1697 2047 
L 1894 2003 
Q 2506 1872 2764 1633 
Q 3022 1394 3022 966 
Q 3022 478 2636 193 
Q 2250 -91 1575 -91 
Q 1294 -91 989 -36 
Q 684 19 347 128 
L 347 722 
Q 666 556 975 473 
Q 1284 391 1588 391 
Q 1994 391 2212 530 
Q 2431 669 2431 922 
Q 2431 1156 2273 1281 
Q 2116 1406 1581 1522 
L 1381 1569 
Q 847 1681 609 1914 
Q 372 2147 372 2553 
Q 372 3047 722 3315 
Q 1072 3584 1716 3584 
Q 2034 3584 2315 3537 
Q 2597 3491 2834 3397 
z
" transform="scale(0.015625)"/>
       <path id="DejaVuSans-61" d="M 2194 1759 
Q 1497 1759 1228 1600 
Q 959 1441 959 1056 
Q 959 750 1161 570 
Q 1363 391 1709 391 
Q 2188 391 2477 730 
Q 2766 1069 2766 1631 
L 2766 1759 
L 2194 1759 
z
M 3341 1997 
L 3341 0 
L 2766 0 
L 2766 531 
Q 2569 213 2275 61 
Q 1981 -91 1556 -91 
Q 1019 -91 701 211 
Q 384 513 384 1019 
Q 384 1609 779 1909 
Q 1175 2209 1959 2209 
L 2766 2209 
L 2766 2266 
Q 2766 2663 2505 2880 
Q 2244 3097 1772 3097 
Q 1472 3097 1187 3025 
Q 903 2953 641 2809 
L 641 3341 
Q 956 3463 1253 3523 
Q 1550 3584 1831 3584 
Q 2591 3584 2966 3190 
Q 3341 2797 3341 1997 
z
" transform="scale(0.015625)"/>
       <path id="DejaVuSans-2f" d="M 1625 4666 
L 2156 4666 
L 531 -594 
L 0 -594 
L 1625 4666 
z
" transform="scale(0.015625)"/>
       <path id="DejaVuSans-6c" d="M 603 4863 
L 1178 4863 
L 1178 0 
L 603 0 
L 603 4863 
z
" transform="scale(0.015625)"/>
      </defs>
      <use xlink:href="#DejaVuSans-64"/>
      <use xlink:href="#DejaVuSans-65" transform="translate(63.476562 0)"/>
      <use xlink:href="#DejaVuSans-66" transform="translate(125 0)"/>
      <use xlink:href="#DejaVuSans-65" transform="translate(160.205078 0)"/>
      <use xlink:href="#DejaVuSans-63" transform="translate(221.728516 0)"/>
      <use xlink:href="#DejaVuSans-74" transform="translate(276.708984 0)"/>
      <use xlink:href="#DejaVuSans-20" transform="translate(315.917969 0)"/>
      <use xlink:href="#DejaVuSans-44" transform="translate(347.705078 0)"/>
      <use xlink:href="#DejaVuSans-4f" transform="translate(424.707031 0)"/>
      <use xlink:href="#DejaVuSans-53" transform="translate(503.417969 0)"/>
      <use xlink:href="#DejaVuSans-20" transform="translate(566.894531 0)"/>
      <use xlink:href="#DejaVuSans-28" transform="translate(598.681641 0)"/>
      <use xlink:href="#DejaVuSans-73" transform="translate(637.695312 0)"/>
      <use xlink:href="#DejaVuSans-74" transform="translate(689.794922 0)"/>
      <use xlink:href="#DejaVuSans-61" transform="translate(729.003906 0)"/>
      <use xlink:href="#DejaVuSans-74" transform="translate(790.283203 0)"/>
      <use xlink:href="#DejaVuSans-65" transform="translate(829.492188 0)"/>
      <use xlink:href="#DejaVuSans-73" transform="translate(891.015625 0)"/>
      <use xlink:href="#DejaVuSans-2f" transform="translate(943.115234 0)"/>
      <use xlink:href="#DejaVuSans-65" transform="translate(976.806641 0)"/>
      <use xlink:href="#DejaVuSans-56" transform="translate(1038.330078 0)"/>
      <use xlink:href="#DejaVuSans-2f" transform="translate(1106.738281 0)"/>
      <use xlink:href="#DejaVuSans-63" transform="translate(1140.429688 0)"/>
      <use xlink:href="#DejaVuSans-65" transform="translate(1195.410156 0)"/>
      <use xlink:href="#DejaVuSans-6c" transform="translate(1256.933594 0)"/>
      <use xlink:href="#DejaVuSans-6c" transform="translate(1284.716797 0)"/>
      <use xlink:href="#DejaVuSans-29" transform="translate(1312.5 0)"/>
     </g>
    </g>
   </g>
   <g id="line2d_15">
    <path d="M 190.455536 337.32 
L 190.455536 37.944 
" clip-path="url(#p206b5eaa59)" style="fill: none; stroke: #0f9d77; stroke-width: 0.9; stroke-linecap: square"/>
   </g>
   <g id="line2d_16">
    <path d="M 433.494827 337.32 
L 433.494827 37.944 
" clip-path="url(#p206b5eaa59)" style="fill: none; stroke: #9b2226; stroke-width: 0.9; stroke-linecap: square"/>
   </g>
   <g id="line2d_17">
    <path d="M 360.597707 337.32 
L 360.597707 37.944 
" clip-path="url(#p206b5eaa59)" style="fill: none; stroke-dasharray: 1.1,1.815; stroke-dashoffset: 0; stroke: #444444; stroke-opacity: 0.6; stroke-width: 1.1"/>
   </g>
   <g id="patch_4">
    <path d="M 43.78125 337.32 
L 43.78125 37.944 
" style="fill: none; stroke: #000000; stroke-width: 0.8; stroke-linejoin: miter; stroke-linecap: square"/>
   </g>
   <g id="patch_5">
    <path d="M 43.78125 337.32 
L 557.14125 337.32 
" style="fill: none; stroke: #000000; stroke-width: 0.8; stroke-linejoin: miter; stroke-linecap: square"/>
   </g>
   <g id="line2d_18">
    <path d="M 43.78125 181.967653 
L 47.009932 188.744721 
L 50.238615 207.881844 
L 53.467282 230.049055 
L 56.695965 242.510745 
L 59.924647 241.002149 
L 63.15333 226.441726 
L 66.382012 206.938348 
L 69.61068 193.226728 
L 72.839362 178.025002 
L 76.068044 160.387154 
L 79.296727 148.246146 
L 82.525395 154.675902 
L 85.754077 183.416852 
L 88.982759 215.685734 
L 92.211442 238.440333 
L 95.440124 248.414243 
L 98.668792 249.406314 
L 101.897474 244.387923 
L 105.126157 228.742832 
L 108.354839 199.786764 
L 111.583521 168.343592 
L 114.812189 152.585581 
L 118.040871 166.718268 
L 121.269554 204.163177 
L 124.498236 239.523761 
L 127.726904 263.149844 
L 130.955586 275.871761 
L 134.184269 280.17184 
L 137.412951 277.205985 
L 140.641633 268.181797 
L 143.870301 258.544821 
L 147.098984 253.678131 
L 150.327666 253.3828 
L 153.556348 251.275774 
L 156.785031 240.766054 
L 160.013698 233.354917 
L 163.242381 245.609731 
L 166.471063 267.769073 
L 169.699746 284.345116 
L 172.928413 292.541971 
L 176.157099 293.714086 
L 179.385778 289.549949 
L 182.614457 285.628931 
L 185.843137 288.614917 
L 189.071816 296.36997 
L 192.300496 305.550614 
L 195.529174 313.27279 
L 198.757853 318.495891 
L 201.986533 321.844414 
L 205.215208 324.025437 
L 208.44389 325.461678 
L 211.672573 326.360528 
L 214.901255 326.783398 
L 218.129923 326.685079 
L 221.358605 326.075676 
L 224.587287 325.657994 
L 227.81597 326.575293 
L 231.044652 328.146146 
L 234.27332 329.390817 
L 237.502002 330.227235 
L 240.730685 330.798315 
L 247.188049 331.522693 
L 253.645399 331.971453 
L 263.331432 332.401864 
L 276.246161 332.737442 
L 292.389559 332.932114 
L 311.761624 332.919014 
L 327.905021 332.663356 
L 337.591112 332.297438 
L 344.048447 331.835832 
L 347.277042 331.466344 
L 350.505783 330.924268 
L 353.734524 330.084991 
L 356.963118 328.729214 
L 360.191859 326.596382 
L 363.420454 324.077821 
L 366.649195 323.420749 
L 369.877789 325.379893 
L 373.10653 327.5401 
L 376.335271 328.906555 
L 379.563866 329.650972 
L 382.792607 330.024657 
L 386.021201 330.178653 
L 392.478537 330.111102 
L 398.936019 329.729595 
L 405.393354 329.085722 
L 411.850689 328.113582 
L 415.079431 327.442726 
L 418.308025 326.577449 
L 421.536766 325.411702 
L 424.76536 323.756756 
L 427.994101 321.325118 
L 431.222696 318.041876 
L 434.451437 315.335906 
L 437.680178 315.28331 
L 440.908772 316.206977 
L 444.137513 316.131066 
L 447.366108 314.769567 
L 450.594849 312.118852 
L 453.823443 307.898532 
L 457.052184 301.370628 
L 460.280925 291.1097 
L 463.50952 275.099614 
L 466.738261 253.826285 
L 469.966855 237.225628 
L 473.195596 233.018689 
L 479.652932 240.633215 
L 482.881673 233.81538 
L 486.110267 212.408286 
L 489.339008 181.756868 
L 492.567602 153.171891 
L 495.796343 126.806809 
L 499.025084 108.770364 
L 502.253679 99.669923 
L 505.48242 84.475048 
L 508.711014 61.632054 
L 511.939755 52.014423 
L 515.16835 62.76306 
L 518.397091 89.272427 
L 521.625832 121.297778 
L 524.854426 148.37169 
L 528.083167 161.20037 
L 531.311762 163.130284 
L 534.540503 160.736078 
L 537.769244 157.060939 
L 540.997838 146.381523 
L 544.226579 131.876436 
L 547.455174 120.137149 
L 550.683915 106.105623 
L 553.912509 95.786013 
L 557.14125 87.966102 
L 557.14125 87.966102 
" clip-path="url(#p206b5eaa59)" style="fill: none; stroke: #1f3b73; stroke-width: 2.2; stroke-linecap: square"/>
   </g>
   <g id="line2d_19">
    <path d="M 43.78125 182.399098 
L 47.009932 189.211733 
L 50.238615 208.371325 
L 53.467282 230.496218 
L 56.695965 242.860475 
L 59.924647 241.244351 
L 63.15333 226.640219 
L 66.382012 207.258355 
L 69.61068 193.605174 
L 72.839362 178.348233 
L 76.068044 160.73104 
L 79.296727 148.649076 
L 82.525395 155.173142 
L 85.754077 183.955604 
L 88.982759 216.217735 
L 92.211442 238.911124 
L 95.440124 248.817335 
L 98.668792 249.773465 
L 101.897474 244.698851 
L 105.126157 228.95533 
L 108.354839 199.941528 
L 111.583521 168.613018 
L 114.812189 153.095416 
L 118.040871 167.331782 
L 121.269554 204.747472 
L 124.498236 240.078926 
L 127.726904 263.653693 
L 130.955586 276.320334 
L 134.184269 280.572574 
L 137.412951 277.566285 
L 140.641633 268.545422 
L 143.870301 258.980387 
L 147.098984 254.143208 
L 150.327666 253.828733 
L 153.556348 251.688074 
L 156.785031 241.166314 
L 160.013698 233.801577 
L 163.242381 246.092694 
L 166.471063 268.243119 
L 169.699746 284.798767 
L 172.928413 292.977356 
L 176.157099 294.135163 
L 179.385778 289.982512 
L 182.614457 286.119248 
L 185.843137 289.140238 
L 189.071816 296.900661 
L 192.300496 306.090797 
L 195.529174 313.834817 
L 198.757853 319.095037 
L 201.986533 322.501596 
L 205.215208 324.772717 
L 208.44389 326.352387 
L 211.672573 327.4885 
L 214.901255 328.318127 
L 218.129923 328.914067 
L 221.358605 329.305282 
L 224.587287 329.480087 
L 227.81597 329.375826 
L 231.044652 328.875383 
L 234.27332 327.964159 
L 237.502002 327.376527 
L 240.730685 328.188386 
L 243.959367 329.612479 
L 247.188049 330.712857 
L 250.416717 331.431091 
L 253.645399 331.906413 
L 260.102764 332.484026 
L 269.788797 332.946343 
L 282.703512 333.261078 
L 298.846909 333.415569 
L 314.990306 333.376889 
L 327.905021 333.184293 
L 337.591112 332.874805 
L 344.048447 332.502564 
L 347.277042 332.218276 
L 350.505783 331.818334 
L 353.734524 331.22649 
L 356.963118 330.302258 
L 360.191859 328.806007 
L 366.649195 324.131011 
L 369.877789 324.08038 
L 373.10653 326.260939 
L 376.335271 328.272032 
L 379.563866 329.48305 
L 382.792607 330.126649 
L 386.021201 330.435118 
L 389.249942 330.541909 
L 395.707278 330.397616 
L 402.164613 329.932121 
L 408.621948 329.166757 
L 411.850689 328.640947 
L 415.079431 327.979656 
L 418.308025 327.124161 
L 421.536766 325.969759 
L 424.76536 324.329644 
L 427.994101 321.917403 
L 431.222696 318.646433 
L 434.451437 315.909097 
L 437.680178 315.815845 
L 440.908772 316.746515 
L 444.137513 316.692166 
L 447.366108 315.349619 
L 450.594849 312.716103 
L 453.823443 308.514938 
L 457.052184 302.012818 
L 460.280925 291.791003 
L 463.50952 275.839428 
L 466.738261 254.626493 
L 469.966855 238.021755 
L 473.195596 233.685 
L 479.652932 241.124006 
L 482.881673 234.414285 
L 486.110267 213.121248 
L 489.339008 182.543282 
L 492.567602 154.000019 
L 495.796343 127.6433 
L 499.025084 109.552647 
L 502.253679 100.442634 
L 505.48242 85.310632 
L 508.711014 62.602754 
L 511.939755 53.17616 
L 515.16835 64.02757 
L 518.397091 90.142571 
L 521.625832 121.55209 
L 524.854426 148.556279 
L 528.083167 161.675342 
L 531.311762 163.776847 
L 534.540503 161.32934 
L 537.769244 157.544475 
L 540.997838 147.048338 
L 544.226579 132.74658 
L 547.455174 121.004572 
L 550.683915 106.996725 
L 553.912509 96.668853 
L 557.14125 88.769746 
L 557.14125 88.769746 
" clip-path="url(#p206b5eaa59)" style="fill: none; stroke-dasharray: 6.29,2.72; stroke-dashoffset: 0; stroke: #c0399a; stroke-width: 1.7"/>
   </g>
   <g id="text_17">
    <!--   DFT $e$ -->
    <g style="fill: #444444" transform="translate(360.597707 163.145059) scale(0.085 -0.085)">
     <defs>
      <path id="DejaVuSans-46" d="M 628 4666 
L 3309 4666 
L 3309 4134 
L 1259 4134 
L 1259 2759 
L 3109 2759 
L 3109 2228 
L 1259 2228 
L 1259 0 
L 628 0 
L 628 4666 
z
" transform="scale(0.015625)"/>
      <path id="DejaVuSans-54" d="M -19 4666 
L 3928 4666 
L 3928 4134 
L 2272 4134 
L 2272 0 
L 1638 0 
L 1638 4134 
L -19 4134 
L -19 4666 
z
" transform="scale(0.015625)"/>
      <path id="DejaVuSans-Oblique-65" d="M 3078 2063 
Q 3088 2113 3092 2166 
Q 3097 2219 3097 2272 
Q 3097 2653 2873 2875 
Q 2650 3097 2266 3097 
Q 1838 3097 1509 2826 
Q 1181 2556 1013 2059 
L 3078 2063 
z
M 3578 1613 
L 903 1613 
Q 884 1494 878 1425 
Q 872 1356 872 1306 
Q 872 872 1139 634 
Q 1406 397 1894 397 
Q 2269 397 2603 481 
Q 2938 566 3225 728 
L 3116 159 
Q 2806 34 2476 -28 
Q 2147 -91 1806 -91 
Q 1078 -91 686 257 
Q 294 606 294 1247 
Q 294 1794 489 2264 
Q 684 2734 1063 3103 
Q 1306 3334 1642 3459 
Q 1978 3584 2356 3584 
Q 2950 3584 3301 3228 
Q 3653 2872 3653 2272 
Q 3653 2128 3634 1964 
Q 3616 1800 3578 1613 
z
" transform="scale(0.015625)"/>
     </defs>
     <use xlink:href="#DejaVuSans-20" transform="translate(0 0.09375)"/>
     <use xlink:href="#DejaVuSans-20" transform="translate(31.787109 0.09375)"/>
     <use xlink:href="#DejaVuSans-44" transform="translate(63.574219 0.09375)"/>
     <use xlink:href="#DejaVuSans-46" transform="translate(140.576172 0.09375)"/>
     <use xlink:href="#DejaVuSans-54" transform="translate(198.095703 0.09375)"/>
     <use xlink:href="#DejaVuSans-20" transform="translate(259.179688 0.09375)"/>
     <use xlink:href="#DejaVuSans-Oblique-65" transform="translate(290.966797 0.09375)"/>
    </g>
    <!--   +1.16 -->
    <g style="fill: #444444" transform="translate(360.597707 172.6632) scale(0.085 -0.085)">
     <defs>
      <path id="DejaVuSans-2b" d="M 2944 4013 
L 2944 2272 
L 4684 2272 
L 4684 1741 
L 2944 1741 
L 2944 0 
L 2419 0 
L 2419 1741 
L 678 1741 
L 678 2272 
L 2419 2272 
L 2419 4013 
L 2944 4013 
z
" transform="scale(0.015625)"/>
      <path id="DejaVuSans-36" d="M 2113 2584 
Q 1688 2584 1439 2293 
Q 1191 2003 1191 1497 
Q 1191 994 1439 701 
Q 1688 409 2113 409 
Q 2538 409 2786 701 
Q 3034 994 3034 1497 
Q 3034 2003 2786 2293 
Q 2538 2584 2113 2584 
z
M 3366 4563 
L 3366 3988 
Q 3128 4100 2886 4159 
Q 2644 4219 2406 4219 
Q 1781 4219 1451 3797 
Q 1122 3375 1075 2522 
Q 1259 2794 1537 2939 
Q 1816 3084 2150 3084 
Q 2853 3084 3261 2657 
Q 3669 2231 3669 1497 
Q 3669 778 3244 343 
Q 2819 -91 2113 -91 
Q 1303 -91 875 529 
Q 447 1150 447 2328 
Q 447 3434 972 4092 
Q 1497 4750 2381 4750 
Q 2619 4750 2861 4703 
Q 3103 4656 3366 4563 
z
" transform="scale(0.015625)"/>
     </defs>
     <use xlink:href="#DejaVuSans-20"/>
     <use xlink:href="#DejaVuSans-20" transform="translate(31.787109 0)"/>
     <use xlink:href="#DejaVuSans-2b" transform="translate(63.574219 0)"/>
     <use xlink:href="#DejaVuSans-31" transform="translate(147.363281 0)"/>
     <use xlink:href="#DejaVuSans-2e" transform="translate(210.986328 0)"/>
     <use xlink:href="#DejaVuSans-31" transform="translate(242.773438 0)"/>
     <use xlink:href="#DejaVuSans-36" transform="translate(306.396484 0)"/>
    </g>
   </g>
   <g id="text_18">
    <!-- VBM -->
    <g style="fill: #0f9d77" transform="translate(199.467771 76.76407) rotate(-90) scale(0.08 -0.08)">
     <use xlink:href="#DejaVuSans-56"/>
     <use xlink:href="#DejaVuSans-42" transform="translate(68.408203 0)"/>
     <use xlink:href="#DejaVuSans-4d" transform="translate(137.011719 0)"/>
    </g>
   </g>
   <g id="text_19">
    <!-- CBM -->
    <g style="fill: #9b2226" transform="translate(427.430849 76.87782) rotate(-90) scale(0.08 -0.08)">
     <defs>
      <path id="DejaVuSans-43" d="M 4122 4306 
L 4122 3641 
Q 3803 3938 3442 4084 
Q 3081 4231 2675 4231 
Q 1875 4231 1450 3742 
Q 1025 3253 1025 2328 
Q 1025 1406 1450 917 
Q 1875 428 2675 428 
Q 3081 428 3442 575 
Q 3803 722 4122 1019 
L 4122 359 
Q 3791 134 3420 21 
Q 3050 -91 2638 -91 
Q 1578 -91 968 557 
Q 359 1206 359 2328 
Q 359 3453 968 4101 
Q 1578 4750 2638 4750 
Q 3056 4750 3426 4639 
Q 3797 4528 4122 4306 
z
" transform="scale(0.015625)"/>
     </defs>
     <use xlink:href="#DejaVuSans-43"/>
     <use xlink:href="#DejaVuSans-42" transform="translate(69.824219 0)"/>
     <use xlink:href="#DejaVuSans-4d" transform="translate(138.427734 0)"/>
    </g>
   </g>
   <g id="patch_6">
    <path d="M 413.86745 311.177753 
Q 391.133852 317.046743 369.482794 322.636261 
" style="fill: none; stroke: #555555; stroke-linecap: round"/>
    <path d="M 373.418451 323.479233 
L 369.482794 322.636261 
L 372.518566 319.993519 
" style="fill: none; stroke: #555555; stroke-linecap: round"/>
   </g>
   <g id="text_20">
    <!-- $e$-doublet -->
    <g transform="translate(417.800679 307.092672) scale(0.09 -0.09)">
     <defs>
      <path id="DejaVuSans-2d" d="M 313 2009 
L 1997 2009 
L 1997 1497 
L 313 1497 
L 313 2009 
z
" transform="scale(0.015625)"/>
      <path id="DejaVuSans-6f" d="M 1959 3097 
Q 1497 3097 1228 2736 
Q 959 2375 959 1747 
Q 959 1119 1226 758 
Q 1494 397 1959 397 
Q 2419 397 2687 759 
Q 2956 1122 2956 1747 
Q 2956 2369 2687 2733 
Q 2419 3097 1959 3097 
z
M 1959 3584 
Q 2709 3584 3137 3096 
Q 3566 2609 3566 1747 
Q 3566 888 3137 398 
Q 2709 -91 1959 -91 
Q 1206 -91 779 398 
Q 353 888 353 1747 
Q 353 2609 779 3096 
Q 1206 3584 1959 3584 
z
" transform="scale(0.015625)"/>
      <path id="DejaVuSans-75" d="M 544 1381 
L 544 3500 
L 1119 3500 
L 1119 1403 
Q 1119 906 1312 657 
Q 1506 409 1894 409 
Q 2359 409 2629 706 
Q 2900 1003 2900 1516 
L 2900 3500 
L 3475 3500 
L 3475 0 
L 2900 0 
L 2900 538 
Q 2691 219 2414 64 
Q 2138 -91 1772 -91 
Q 1169 -91 856 284 
Q 544 659 544 1381 
z
M 1991 3584 
L 1991 3584 
z
" transform="scale(0.015625)"/>
      <path id="DejaVuSans-62" d="M 3116 1747 
Q 3116 2381 2855 2742 
Q 2594 3103 2138 3103 
Q 1681 3103 1420 2742 
Q 1159 2381 1159 1747 
Q 1159 1113 1420 752 
Q 1681 391 2138 391 
Q 2594 391 2855 752 
Q 3116 1113 3116 1747 
z
M 1159 2969 
Q 1341 3281 1617 3432 
Q 1894 3584 2278 3584 
Q 2916 3584 3314 3078 
Q 3713 2572 3713 1747 
Q 3713 922 3314 415 
Q 2916 -91 2278 -91 
Q 1894 -91 1617 61 
Q 1341 213 1159 525 
L 1159 0 
L 581 0 
L 581 4863 
L 1159 4863 
L 1159 2969 
z
" transform="scale(0.015625)"/>
     </defs>
     <use xlink:href="#DejaVuSans-Oblique-65" transform="translate(0 0.015625)"/>
     <use xlink:href="#DejaVuSans-2d" transform="translate(61.523438 0.015625)"/>
     <use xlink:href="#DejaVuSans-64" transform="translate(97.607422 0.015625)"/>
     <use xlink:href="#DejaVuSans-6f" transform="translate(161.083984 0.015625)"/>
     <use xlink:href="#DejaVuSans-75" transform="translate(222.265625 0.015625)"/>
     <use xlink:href="#DejaVuSans-62" transform="translate(285.644531 0.015625)"/>
     <use xlink:href="#DejaVuSans-6c" transform="translate(349.121094 0.015625)"/>
     <use xlink:href="#DejaVuSans-65" transform="translate(376.904297 0.015625)"/>
     <use xlink:href="#DejaVuSans-74" transform="translate(438.427734 0.015625)"/>
    </g>
   </g>
   <g id="text_21">
    <!-- MoS$_2$ S-vacancy DOS — three methods (Hermitian $M$) -->
    <g transform="translate(139.72125 16.32) scale(0.12 -0.12)">
     <defs>
      <path id="DejaVuSans-76" d="M 191 3500 
L 800 3500 
L 1894 563 
L 2988 3500 
L 3597 3500 
L 2284 0 
L 1503 0 
L 191 3500 
z
" transform="scale(0.015625)"/>
      <path id="DejaVuSans-6e" d="M 3513 2113 
L 3513 0 
L 2938 0 
L 2938 2094 
Q 2938 2591 2744 2837 
Q 2550 3084 2163 3084 
Q 1697 3084 1428 2787 
Q 1159 2491 1159 1978 
L 1159 0 
L 581 0 
L 581 3500 
L 1159 3500 
L 1159 2956 
Q 1366 3272 1645 3428 
Q 1925 3584 2291 3584 
Q 2894 3584 3203 3211 
Q 3513 2838 3513 2113 
z
" transform="scale(0.015625)"/>
      <path id="DejaVuSans-79" d="M 2059 -325 
Q 1816 -950 1584 -1140 
Q 1353 -1331 966 -1331 
L 506 -1331 
L 506 -850 
L 844 -850 
Q 1081 -850 1212 -737 
Q 1344 -625 1503 -206 
L 1606 56 
L 191 3500 
L 800 3500 
L 1894 763 
L 2988 3500 
L 3597 3500 
L 2059 -325 
z
" transform="scale(0.015625)"/>
      <path id="DejaVuSansDisplay-2014" d="M 313 1978 
L 6088 1978 
L 6088 1528 
L 313 1528 
L 313 1978 
z
" transform="scale(0.015625)"/>
      <path id="DejaVuSans-68" d="M 3513 2113 
L 3513 0 
L 2938 0 
L 2938 2094 
Q 2938 2591 2744 2837 
Q 2550 3084 2163 3084 
Q 1697 3084 1428 2787 
Q 1159 2491 1159 1978 
L 1159 0 
L 581 0 
L 581 4863 
L 1159 4863 
L 1159 2956 
Q 1366 3272 1645 3428 
Q 1925 3584 2291 3584 
Q 2894 3584 3203 3211 
Q 3513 2838 3513 2113 
z
" transform="scale(0.015625)"/>
      <path id="DejaVuSans-72" d="M 2631 2963 
Q 2534 3019 2420 3045 
Q 2306 3072 2169 3072 
Q 1681 3072 1420 2755 
Q 1159 2438 1159 1844 
L 1159 0 
L 581 0 
L 581 3500 
L 1159 3500 
L 1159 2956 
Q 1341 3275 1631 3429 
Q 1922 3584 2338 3584 
Q 2397 3584 2469 3576 
Q 2541 3569 2628 3553 
L 2631 2963 
z
" transform="scale(0.015625)"/>
      <path id="DejaVuSans-6d" d="M 3328 2828 
Q 3544 3216 3844 3400 
Q 4144 3584 4550 3584 
Q 5097 3584 5394 3201 
Q 5691 2819 5691 2113 
L 5691 0 
L 5113 0 
L 5113 2094 
Q 5113 2597 4934 2840 
Q 4756 3084 4391 3084 
Q 3944 3084 3684 2787 
Q 3425 2491 3425 1978 
L 3425 0 
L 2847 0 
L 2847 2094 
Q 2847 2600 2669 2842 
Q 2491 3084 2119 3084 
Q 1678 3084 1418 2786 
Q 1159 2488 1159 1978 
L 1159 0 
L 581 0 
L 581 3500 
L 1159 3500 
L 1159 2956 
Q 1356 3278 1631 3431 
Q 1906 3584 2284 3584 
Q 2666 3584 2933 3390 
Q 3200 3197 3328 2828 
z
" transform="scale(0.015625)"/>
      <path id="DejaVuSans-48" d="M 628 4666 
L 1259 4666 
L 1259 2753 
L 3553 2753 
L 3553 4666 
L 4184 4666 
L 4184 0 
L 3553 0 
L 3553 2222 
L 1259 2222 
L 1259 0 
L 628 0 
L 628 4666 
z
" transform="scale(0.015625)"/>
      <path id="DejaVuSans-69" d="M 603 3500 
L 1178 3500 
L 1178 0 
L 603 0 
L 603 3500 
z
M 603 4863 
L 1178 4863 
L 1178 4134 
L 603 4134 
L 603 4863 
z
" transform="scale(0.015625)"/>
      <path id="DejaVuSans-Oblique-4d" d="M 1081 4666 
L 2028 4666 
L 2572 1522 
L 4378 4666 
L 5350 4666 
L 4441 0 
L 3828 0 
L 4622 4091 
L 2791 897 
L 2175 897 
L 1581 4103 
L 788 0 
L 172 0 
L 1081 4666 
z
" transform="scale(0.015625)"/>
     </defs>
     <use xlink:href="#DejaVuSans-4d" transform="translate(0 0.015625)"/>
     <use xlink:href="#DejaVuSans-6f" transform="translate(86.279297 0.015625)"/>
     <use xlink:href="#DejaVuSans-53" transform="translate(147.460938 0.015625)"/>
     <use xlink:href="#DejaVuSans-32" transform="translate(211.894531 -16.390625) scale(0.7)"/>
     <use xlink:href="#DejaVuSans-20" transform="translate(259.165039 0.015625)"/>
     <use xlink:href="#DejaVuSans-53" transform="translate(290.952148 0.015625)"/>
     <use xlink:href="#DejaVuSans-2d" transform="translate(354.428711 0.015625)"/>
     <use xlink:href="#DejaVuSans-76" transform="translate(390.512695 0.015625)"/>
     <use xlink:href="#DejaVuSans-61" transform="translate(449.692383 0.015625)"/>
     <use xlink:href="#DejaVuSans-63" transform="translate(510.97168 0.015625)"/>
     <use xlink:href="#DejaVuSans-61" transform="translate(565.952148 0.015625)"/>
     <use xlink:href="#DejaVuSans-6e" transform="translate(627.231445 0.015625)"/>
     <use xlink:href="#DejaVuSans-63" transform="translate(690.610352 0.015625)"/>
     <use xlink:href="#DejaVuSans-79" transform="translate(745.59082 0.015625)"/>
     <use xlink:href="#DejaVuSans-20" transform="translate(804.770508 0.015625)"/>
     <use xlink:href="#DejaVuSans-44" transform="translate(836.557617 0.015625)"/>
     <use xlink:href="#DejaVuSans-4f" transform="translate(913.55957 0.015625)"/>
     <use xlink:href="#DejaVuSans-53" transform="translate(992.270508 0.015625)"/>
     <use xlink:href="#DejaVuSans-20" transform="translate(1055.74707 0.015625)"/>
     <use xlink:href="#DejaVuSansDisplay-2014" transform="translate(1087.53418 0.015625)"/>
     <use xlink:href="#DejaVuSans-20" transform="translate(1187.53418 0.015625)"/>
     <use xlink:href="#DejaVuSans-74" transform="translate(1219.321289 0.015625)"/>
     <use xlink:href="#DejaVuSans-68" transform="translate(1258.530273 0.015625)"/>
     <use xlink:href="#DejaVuSans-72" transform="translate(1321.90918 0.015625)"/>
     <use xlink:href="#DejaVuSans-65" transform="translate(1363.022461 0.015625)"/>
     <use xlink:href="#DejaVuSans-65" transform="translate(1424.545898 0.015625)"/>
     <use xlink:href="#DejaVuSans-20" transform="translate(1486.069336 0.015625)"/>
     <use xlink:href="#DejaVuSans-6d" transform="translate(1517.856445 0.015625)"/>
     <use xlink:href="#DejaVuSans-65" transform="translate(1615.268555 0.015625)"/>
     <use xlink:href="#DejaVuSans-74" transform="translate(1676.791992 0.015625)"/>
     <use xlink:href="#DejaVuSans-68" transform="translate(1716.000977 0.015625)"/>
     <use xlink:href="#DejaVuSans-6f" transform="translate(1779.379883 0.015625)"/>
     <use xlink:href="#DejaVuSans-64" transform="translate(1840.561523 0.015625)"/>
     <use xlink:href="#DejaVuSans-73" transform="translate(1904.038086 0.015625)"/>
     <use xlink:href="#DejaVuSans-20" transform="translate(1956.137695 0.015625)"/>
     <use xlink:href="#DejaVuSans-28" transform="translate(1987.924805 0.015625)"/>
     <use xlink:href="#DejaVuSans-48" transform="translate(2026.938477 0.015625)"/>
     <use xlink:href="#DejaVuSans-65" transform="translate(2102.133789 0.015625)"/>
     <use xlink:href="#DejaVuSans-72" transform="translate(2163.657227 0.015625)"/>
     <use xlink:href="#DejaVuSans-6d" transform="translate(2204.770508 0.015625)"/>
     <use xlink:href="#DejaVuSans-69" transform="translate(2302.182617 0.015625)"/>
     <use xlink:href="#DejaVuSans-74" transform="translate(2329.96582 0.015625)"/>
     <use xlink:href="#DejaVuSans-69" transform="translate(2369.174805 0.015625)"/>
     <use xlink:href="#DejaVuSans-61" transform="translate(2396.958008 0.015625)"/>
     <use xlink:href="#DejaVuSans-6e" transform="translate(2458.237305 0.015625)"/>
     <use xlink:href="#DejaVuSans-20" transform="translate(2521.616211 0.015625)"/>
     <use xlink:href="#DejaVuSans-Oblique-4d" transform="translate(2553.40332 0.015625)"/>
     <use xlink:href="#DejaVuSans-29" transform="translate(2639.682617 0.015625)"/>
    </g>
    <!-- ① = ② to $3\times10^{-13}$;  ③ in-gap peak +1.22 vs +1.20 eV -->
    <g transform="translate(136.24125 31.944) scale(0.12 -0.12)">
     <defs>
      <path id="DejaVuSans-2460" d="M 5263 2331 
Q 5263 1334 4561 635 
Q 3859 -63 2866 -63 
Q 1878 -63 1176 635 
Q 475 1334 475 2331 
Q 475 2950 797 3528 
Q 1119 4106 1695 4415 
Q 2272 4725 2866 4725 
Q 3469 4725 4045 4415 
Q 4622 4106 4942 3531 
Q 5263 2956 5263 2331 
z
M 734 2331 
Q 734 1444 1357 819 
Q 1981 194 2869 194 
Q 3756 194 4379 819 
Q 5003 1444 5003 2331 
Q 5003 2891 4718 3402 
Q 4434 3913 3921 4189 
Q 3409 4466 2869 4466 
Q 2328 4466 1815 4189 
Q 1303 3913 1018 3402 
Q 734 2891 734 2331 
z
M 1922 1288 
L 2600 1288 
L 2600 3281 
L 1863 3147 
L 1863 3622 
L 2666 3769 
L 3169 3769 
L 3169 1288 
L 3850 1288 
L 3850 844 
L 1922 844 
L 1922 1288 
z
" transform="scale(0.015625)"/>
      <path id="DejaVuSans-3d" d="M 678 2906 
L 4684 2906 
L 4684 2381 
L 678 2381 
L 678 2906 
z
M 678 1631 
L 4684 1631 
L 4684 1100 
L 678 1100 
L 678 1631 
z
" transform="scale(0.015625)"/>
      <path id="DejaVuSans-2461" d="M 5263 2331 
Q 5263 1334 4561 635 
Q 3859 -63 2866 -63 
Q 1878 -63 1176 635 
Q 475 1334 475 2331 
Q 475 2950 797 3528 
Q 1119 4106 1695 4415 
Q 2272 4725 2866 4725 
Q 3469 4725 4045 4415 
Q 4622 4106 4942 3531 
Q 5263 2956 5263 2331 
z
M 734 2331 
Q 734 1444 1357 819 
Q 1981 194 2869 194 
Q 3756 194 4379 819 
Q 5003 1444 5003 2331 
Q 5003 2891 4718 3402 
Q 4434 3913 3921 4189 
Q 3409 4466 2869 4466 
Q 2328 4466 1815 4189 
Q 1303 3913 1018 3402 
Q 734 2891 734 2331 
z
M 2581 1288 
L 3944 1288 
L 3944 844 
L 1831 844 
L 1831 1247 
Q 2088 1488 2497 1864 
Q 2906 2241 3009 2347 
Q 3203 2544 3276 2676 
Q 3350 2809 3350 2934 
Q 3350 3131 3201 3253 
Q 3053 3375 2809 3375 
Q 2625 3375 2419 3315 
Q 2213 3256 1853 3075 
L 1853 3609 
Q 2156 3722 2382 3770 
Q 2609 3819 2800 3819 
Q 3309 3819 3617 3583 
Q 3925 3347 3925 2956 
Q 3925 2775 3850 2611 
Q 3775 2447 3581 2228 
Q 3528 2172 3250 1911 
Q 2972 1650 2581 1288 
z
" transform="scale(0.015625)"/>
      <path id="DejaVuSans-33" d="M 2597 2516 
Q 3050 2419 3304 2112 
Q 3559 1806 3559 1356 
Q 3559 666 3084 287 
Q 2609 -91 1734 -91 
Q 1441 -91 1130 -33 
Q 819 25 488 141 
L 488 750 
Q 750 597 1062 519 
Q 1375 441 1716 441 
Q 2309 441 2620 675 
Q 2931 909 2931 1356 
Q 2931 1769 2642 2001 
Q 2353 2234 1838 2234 
L 1294 2234 
L 1294 2753 
L 1863 2753 
Q 2328 2753 2575 2939 
Q 2822 3125 2822 3475 
Q 2822 3834 2567 4026 
Q 2313 4219 1838 4219 
Q 1578 4219 1281 4162 
Q 984 4106 628 3988 
L 628 4550 
Q 988 4650 1302 4700 
Q 1616 4750 1894 4750 
Q 2613 4750 3031 4423 
Q 3450 4097 3450 3541 
Q 3450 3153 3228 2886 
Q 3006 2619 2597 2516 
z
" transform="scale(0.015625)"/>
      <path id="DejaVuSans-d7" d="M 4488 3438 
L 3059 2003 
L 4488 575 
L 4116 197 
L 2681 1631 
L 1247 197 
L 878 575 
L 2303 2003 
L 878 3438 
L 1247 3816 
L 2681 2381 
L 4116 3816 
L 4488 3438 
z
" transform="scale(0.015625)"/>
      <path id="DejaVuSans-3b" d="M 750 3309 
L 1409 3309 
L 1409 2516 
L 750 2516 
L 750 3309 
z
M 750 794 
L 1409 794 
L 1409 256 
L 897 -744 
L 494 -744 
L 750 256 
L 750 794 
z
" transform="scale(0.015625)"/>
      <path id="DejaVuSans-2462" d="M 5263 2331 
Q 5263 1334 4561 635 
Q 3859 -63 2866 -63 
Q 1878 -63 1176 635 
Q 475 1334 475 2331 
Q 475 2950 797 3528 
Q 1119 4106 1695 4415 
Q 2272 4725 2866 4725 
Q 3469 4725 4045 4415 
Q 4622 4106 4942 3531 
Q 5263 2956 5263 2331 
z
M 734 2331 
Q 734 1444 1357 819 
Q 1981 194 2869 194 
Q 3756 194 4379 819 
Q 5003 1444 5003 2331 
Q 5003 2891 4718 3402 
Q 4434 3913 3921 4189 
Q 3409 4466 2869 4466 
Q 2328 4466 1815 4189 
Q 1303 3913 1018 3402 
Q 734 2891 734 2331 
z
M 3713 2422 
Q 3753 2413 3937 2211 
Q 4122 2009 4122 1719 
Q 4122 1278 3784 1034 
Q 3447 791 2838 791 
Q 2638 791 2425 827 
Q 2213 863 1938 947 
L 1938 1472 
Q 2222 1322 2417 1278 
Q 2613 1234 2825 1234 
Q 3191 1234 3370 1357 
Q 3550 1481 3550 1719 
Q 3550 1941 3383 2062 
Q 3216 2184 2906 2184 
L 2469 2184 
L 2469 2622 
L 2922 2622 
Q 3203 2622 3340 2715 
Q 3478 2809 3478 2991 
Q 3478 3178 3334 3276 
Q 3191 3375 2906 3375 
Q 2744 3375 2555 3342 
Q 2366 3309 2031 3209 
L 2031 3681 
Q 2328 3756 2540 3787 
Q 2753 3819 2944 3819 
Q 3447 3819 3748 3605 
Q 4050 3391 4050 3031 
Q 4050 2778 3887 2600 
Q 3725 2422 3713 2422 
z
" transform="scale(0.015625)"/>
      <path id="DejaVuSans-67" d="M 2906 1791 
Q 2906 2416 2648 2759 
Q 2391 3103 1925 3103 
Q 1463 3103 1205 2759 
Q 947 2416 947 1791 
Q 947 1169 1205 825 
Q 1463 481 1925 481 
Q 2391 481 2648 825 
Q 2906 1169 2906 1791 
z
M 3481 434 
Q 3481 -459 3084 -895 
Q 2688 -1331 1869 -1331 
Q 1566 -1331 1297 -1286 
Q 1028 -1241 775 -1147 
L 775 -588 
Q 1028 -725 1275 -790 
Q 1522 -856 1778 -856 
Q 2344 -856 2625 -561 
Q 2906 -266 2906 331 
L 2906 616 
Q 2728 306 2450 153 
Q 2172 0 1784 0 
Q 1141 0 747 490 
Q 353 981 353 1791 
Q 353 2603 747 3093 
Q 1141 3584 1784 3584 
Q 2172 3584 2450 3431 
Q 2728 3278 2906 2969 
L 2906 3500 
L 3481 3500 
L 3481 434 
z
" transform="scale(0.015625)"/>
      <path id="DejaVuSans-70" d="M 1159 525 
L 1159 -1331 
L 581 -1331 
L 581 3500 
L 1159 3500 
L 1159 2969 
Q 1341 3281 1617 3432 
Q 1894 3584 2278 3584 
Q 2916 3584 3314 3078 
Q 3713 2572 3713 1747 
Q 3713 922 3314 415 
Q 2916 -91 2278 -91 
Q 1894 -91 1617 61 
Q 1341 213 1159 525 
z
M 3116 1747 
Q 3116 2381 2855 2742 
Q 2594 3103 2138 3103 
Q 1681 3103 1420 2742 
Q 1159 2381 1159 1747 
Q 1159 1113 1420 752 
Q 1681 391 2138 391 
Q 2594 391 2855 752 
Q 3116 1113 3116 1747 
z
" transform="scale(0.015625)"/>
      <path id="DejaVuSans-6b" d="M 581 4863 
L 1159 4863 
L 1159 1991 
L 2875 3500 
L 3609 3500 
L 1753 1863 
L 3688 0 
L 2938 0 
L 1159 1709 
L 1159 0 
L 581 0 
L 581 4863 
z
" transform="scale(0.015625)"/>
     </defs>
     <use xlink:href="#DejaVuSans-2460" transform="translate(0 0.765625)"/>
     <use xlink:href="#DejaVuSans-20" transform="translate(89.648438 0.765625)"/>
     <use xlink:href="#DejaVuSans-3d" transform="translate(121.435547 0.765625)"/>
     <use xlink:href="#DejaVuSans-20" transform="translate(205.224609 0.765625)"/>
     <use xlink:href="#DejaVuSans-2461" transform="translate(237.011719 0.765625)"/>
     <use xlink:href="#DejaVuSans-20" transform="translate(326.660156 0.765625)"/>
     <use xlink:href="#DejaVuSans-74" transform="translate(358.447266 0.765625)"/>
     <use xlink:href="#DejaVuSans-6f" transform="translate(397.65625 0.765625)"/>
     <use xlink:href="#DejaVuSans-20" transform="translate(458.837891 0.765625)"/>
     <use xlink:href="#DejaVuSans-33" transform="translate(490.625 0.765625)"/>
     <use xlink:href="#DejaVuSans-d7" transform="translate(573.730469 0.765625)"/>
     <use xlink:href="#DejaVuSans-31" transform="translate(677.001953 0.765625)"/>
     <use xlink:href="#DejaVuSans-30" transform="translate(740.625 0.765625)"/>
     <use xlink:href="#DejaVuSans-2212" transform="translate(805.205078 39.046875) scale(0.7)"/>
     <use xlink:href="#DejaVuSans-31" transform="translate(863.857422 39.046875) scale(0.7)"/>
     <use xlink:href="#DejaVuSans-33" transform="translate(908.393555 39.046875) scale(0.7)"/>
     <use xlink:href="#DejaVuSans-3b" transform="translate(955.664062 0.765625)"/>
     <use xlink:href="#DejaVuSans-20" transform="translate(989.355469 0.765625)"/>
     <use xlink:href="#DejaVuSans-20" transform="translate(1021.142578 0.765625)"/>
     <use xlink:href="#DejaVuSans-2462" transform="translate(1052.929688 0.765625)"/>
     <use xlink:href="#DejaVuSans-20" transform="translate(1142.578125 0.765625)"/>
     <use xlink:href="#DejaVuSans-69" transform="translate(1174.365234 0.765625)"/>
     <use xlink:href="#DejaVuSans-6e" transform="translate(1202.148438 0.765625)"/>
     <use xlink:href="#DejaVuSans-2d" transform="translate(1265.527344 0.765625)"/>
     <use xlink:href="#DejaVuSans-67" transform="translate(1301.611328 0.765625)"/>
     <use xlink:href="#DejaVuSans-61" transform="translate(1365.087891 0.765625)"/>
     <use xlink:href="#DejaVuSans-70" transform="translate(1426.367188 0.765625)"/>
     <use xlink:href="#DejaVuSans-20" transform="translate(1489.84375 0.765625)"/>
     <use xlink:href="#DejaVuSans-70" transform="translate(1521.630859 0.765625)"/>
     <use xlink:href="#DejaVuSans-65" transform="translate(1585.107422 0.765625)"/>
     <use xlink:href="#DejaVuSans-61" transform="translate(1646.630859 0.765625)"/>
     <use xlink:href="#DejaVuSans-6b" transform="translate(1707.910156 0.765625)"/>
     <use xlink:href="#DejaVuSans-20" transform="translate(1765.820312 0.765625)"/>
     <use xlink:href="#DejaVuSans-2b" transform="translate(1797.607422 0.765625)"/>
     <use xlink:href="#DejaVuSans-31" transform="translate(1881.396484 0.765625)"/>
     <use xlink:href="#DejaVuSans-2e" transform="translate(1945.019531 0.765625)"/>
     <use xlink:href="#DejaVuSans-32" transform="translate(1971.306641 0.765625)"/>
     <use xlink:href="#DejaVuSans-32" transform="translate(2034.929688 0.765625)"/>
     <use xlink:href="#DejaVuSans-20" transform="translate(2098.552734 0.765625)"/>
     <use xlink:href="#DejaVuSans-76" transform="translate(2130.339844 0.765625)"/>
     <use xlink:href="#DejaVuSans-73" transform="translate(2189.519531 0.765625)"/>
     <use xlink:href="#DejaVuSans-20" transform="translate(2241.619141 0.765625)"/>
     <use xlink:href="#DejaVuSans-2b" transform="translate(2273.40625 0.765625)"/>
     <use xlink:href="#DejaVuSans-31" transform="translate(2357.195312 0.765625)"/>
     <use xlink:href="#DejaVuSans-2e" transform="translate(2420.818359 0.765625)"/>
     <use xlink:href="#DejaVuSans-32" transform="translate(2447.105469 0.765625)"/>
     <use xlink:href="#DejaVuSans-30" transform="translate(2510.728516 0.765625)"/>
     <use xlink:href="#DejaVuSans-20" transform="translate(2574.351562 0.765625)"/>
     <use xlink:href="#DejaVuSans-65" transform="translate(2606.138672 0.765625)"/>
     <use xlink:href="#DejaVuSans-56" transform="translate(2667.662109 0.765625)"/>
    </g>
   </g>
   <g id="line2d_20">
    <path d="M 43.78125 181.967653 
L 47.009932 188.744721 
L 50.238615 207.881844 
L 53.467282 230.049055 
L 56.695965 242.510745 
L 59.924647 241.002149 
L 63.15333 226.441726 
L 66.382012 206.938348 
L 69.61068 193.226728 
L 72.839362 178.025002 
L 76.068044 160.387154 
L 79.296727 148.246146 
L 82.525395 154.675902 
L 85.754077 183.416852 
L 88.982759 215.685734 
L 92.211442 238.440333 
L 95.440124 248.414243 
L 98.668792 249.406314 
L 101.897474 244.387923 
L 105.126157 228.742832 
L 108.354839 199.786764 
L 111.583521 168.343592 
L 114.812189 152.585581 
L 118.040871 166.718268 
L 121.269554 204.163177 
L 124.498236 239.523761 
L 127.726904 263.149844 
L 130.955586 275.871761 
L 134.184269 280.17184 
L 137.412951 277.205985 
L 140.641633 268.181797 
L 143.870301 258.544821 
L 147.098984 253.678131 
L 150.327666 253.3828 
L 153.556348 251.275774 
L 156.785031 240.766054 
L 160.013698 233.354917 
L 163.242381 245.609731 
L 166.471063 267.769073 
L 169.699746 284.345116 
L 172.928413 292.541971 
L 176.157099 293.714086 
L 179.385778 289.549949 
L 182.614457 285.628931 
L 185.843137 288.614917 
L 189.071816 296.36997 
L 192.300496 305.550614 
L 195.529174 313.27279 
L 198.757853 318.495891 
L 201.986533 321.844414 
L 205.215208 324.025437 
L 208.44389 325.461678 
L 211.672573 326.360528 
L 214.901255 326.783398 
L 218.129923 326.685079 
L 221.358605 326.075676 
L 224.587287 325.657994 
L 227.81597 326.575293 
L 231.044652 328.146146 
L 234.27332 329.390817 
L 237.502002 330.227235 
L 240.730685 330.798315 
L 247.188049 331.522693 
L 253.645399 331.971453 
L 263.331432 332.401864 
L 276.246161 332.737442 
L 292.389559 332.932114 
L 311.761624 332.919014 
L 327.905021 332.663356 
L 337.591112 332.297438 
L 344.048447 331.835832 
L 347.277042 331.466344 
L 350.505783 330.924268 
L 353.734524 330.084991 
L 356.963118 328.729214 
L 360.191859 326.596382 
L 363.420454 324.077821 
L 366.649195 323.420749 
L 369.877789 325.379893 
L 373.10653 327.5401 
L 376.335271 328.906555 
L 379.563866 329.650972 
L 382.792607 330.024657 
L 386.021201 330.178653 
L 392.478537 330.111102 
L 398.936019 329.729595 
L 405.393354 329.085722 
L 411.850689 328.113582 
L 415.079431 327.442726 
L 418.308025 326.577449 
L 421.536766 325.411702 
L 424.76536 323.756756 
L 427.994101 321.325118 
L 431.222696 318.041876 
L 434.451437 315.335906 
L 437.680178 315.28331 
L 440.908772 316.206977 
L 444.137513 316.131066 
L 447.366108 314.769567 
L 450.594849 312.118852 
L 453.823443 307.898532 
L 457.052184 301.370628 
L 460.280925 291.1097 
L 463.50952 275.099614 
L 466.738261 253.826285 
L 469.966855 237.225628 
L 473.195596 233.018689 
L 479.652932 240.633215 
L 482.881673 233.81538 
L 486.110267 212.408286 
L 489.339008 181.756868 
L 492.567602 153.171891 
L 495.796343 126.806809 
L 499.025084 108.770364 
L 502.253679 99.669923 
L 505.48242 84.475048 
L 508.711014 61.632054 
L 511.939755 52.014423 
L 515.16835 62.76306 
L 518.397091 89.272427 
L 521.625832 121.297778 
L 524.854426 148.37169 
L 528.083167 161.20037 
L 531.311762 163.130284 
L 534.540503 160.736078 
L 537.769244 157.060939 
L 540.997838 146.381523 
L 544.226579 131.876436 
L 547.455174 120.137149 
L 550.683915 106.105623 
L 553.912509 95.786013 
L 557.14125 87.966102 
L 557.14125 87.966102 
" clip-path="url(#p206b5eaa59)" style="fill: none"/>
    <defs>
     <path id="m70a75ab623" d="M 0 1.6 
C 0.424325 1.6 0.831328 1.431414 1.131371 1.131371 
C 1.431414 0.831328 1.6 0.424325 1.6 0 
C 1.6 -0.424325 1.431414 -0.831328 1.131371 -1.131371 
C 0.831328 -1.431414 0.424325 -1.6 0 -1.6 
C -0.424325 -1.6 -0.831328 -1.431414 -1.131371 -1.131371 
C -1.431414 -0.831328 -1.6 -0.424325 -1.6 0 
C -1.6 0.424325 -1.431414 0.831328 -1.131371 1.131371 
C -0.831328 1.431414 -0.424325 1.6 0 1.6 
z
" style="stroke: #e08a1e"/>
    </defs>
    <g clip-path="url(#p206b5eaa59)">
     <use xlink:href="#m70a75ab623" x="43.78125" y="181.967653" style="fill: #e08a1e; stroke: #e08a1e"/>
     <use xlink:href="#m70a75ab623" x="50.238615" y="207.881844" style="fill: #e08a1e; stroke: #e08a1e"/>
     <use xlink:href="#m70a75ab623" x="56.695965" y="242.510745" style="fill: #e08a1e; stroke: #e08a1e"/>
     <use xlink:href="#m70a75ab623" x="63.15333" y="226.441726" style="fill: #e08a1e; stroke: #e08a1e"/>
     <use xlink:href="#m70a75ab623" x="69.61068" y="193.226728" style="fill: #e08a1e; stroke: #e08a1e"/>
     <use xlink:href="#m70a75ab623" x="76.068044" y="160.387154" style="fill: #e08a1e; stroke: #e08a1e"/>
     <use xlink:href="#m70a75ab623" x="82.525395" y="154.675902" style="fill: #e08a1e; stroke: #e08a1e"/>
     <use xlink:href="#m70a75ab623" x="88.982759" y="215.685734" style="fill: #e08a1e; stroke: #e08a1e"/>
     <use xlink:href="#m70a75ab623" x="95.440124" y="248.414243" style="fill: #e08a1e; stroke: #e08a1e"/>
     <use xlink:href="#m70a75ab623" x="101.897474" y="244.387923" style="fill: #e08a1e; stroke: #e08a1e"/>
     <use xlink:href="#m70a75ab623" x="108.354839" y="199.786764" style="fill: #e08a1e; stroke: #e08a1e"/>
     <use xlink:href="#m70a75ab623" x="114.812189" y="152.585581" style="fill: #e08a1e; stroke: #e08a1e"/>
     <use xlink:href="#m70a75ab623" x="121.269554" y="204.163177" style="fill: #e08a1e; stroke: #e08a1e"/>
     <use xlink:href="#m70a75ab623" x="127.726904" y="263.149844" style="fill: #e08a1e; stroke: #e08a1e"/>
     <use xlink:href="#m70a75ab623" x="134.184269" y="280.17184" style="fill: #e08a1e; stroke: #e08a1e"/>
     <use xlink:href="#m70a75ab623" x="140.641633" y="268.181797" style="fill: #e08a1e; stroke: #e08a1e"/>
     <use xlink:href="#m70a75ab623" x="147.098984" y="253.678131" style="fill: #e08a1e; stroke: #e08a1e"/>
     <use xlink:href="#m70a75ab623" x="153.556348" y="251.275774" style="fill: #e08a1e; stroke: #e08a1e"/>
     <use xlink:href="#m70a75ab623" x="160.013698" y="233.354917" style="fill: #e08a1e; stroke: #e08a1e"/>
     <use xlink:href="#m70a75ab623" x="166.471063" y="267.769073" style="fill: #e08a1e; stroke: #e08a1e"/>
     <use xlink:href="#m70a75ab623" x="172.928413" y="292.541971" style="fill: #e08a1e; stroke: #e08a1e"/>
     <use xlink:href="#m70a75ab623" x="179.385778" y="289.549949" style="fill: #e08a1e; stroke: #e08a1e"/>
     <use xlink:href="#m70a75ab623" x="185.843137" y="288.614917" style="fill: #e08a1e; stroke: #e08a1e"/>
     <use xlink:href="#m70a75ab623" x="192.300496" y="305.550614" style="fill: #e08a1e; stroke: #e08a1e"/>
     <use xlink:href="#m70a75ab623" x="198.757853" y="318.495891" style="fill: #e08a1e; stroke: #e08a1e"/>
     <use xlink:href="#m70a75ab623" x="205.215208" y="324.025437" style="fill: #e08a1e; stroke: #e08a1e"/>
     <use xlink:href="#m70a75ab623" x="211.672573" y="326.360528" style="fill: #e08a1e; stroke: #e08a1e"/>
     <use xlink:href="#m70a75ab623" x="218.129923" y="326.685079" style="fill: #e08a1e; stroke: #e08a1e"/>
     <use xlink:href="#m70a75ab623" x="224.587287" y="325.657994" style="fill: #e08a1e; stroke: #e08a1e"/>
     <use xlink:href="#m70a75ab623" x="231.044652" y="328.146146" style="fill: #e08a1e; stroke: #e08a1e"/>
     <use xlink:href="#m70a75ab623" x="237.502002" y="330.227235" style="fill: #e08a1e; stroke: #e08a1e"/>
     <use xlink:href="#m70a75ab623" x="243.959367" y="331.210048" style="fill: #e08a1e; stroke: #e08a1e"/>
     <use xlink:href="#m70a75ab623" x="250.416717" y="331.769957" style="fill: #e08a1e; stroke: #e08a1e"/>
     <use xlink:href="#m70a75ab623" x="256.874082" y="332.139196" style="fill: #e08a1e; stroke: #e08a1e"/>
     <use xlink:href="#m70a75ab623" x="263.331432" y="332.401864" style="fill: #e08a1e; stroke: #e08a1e"/>
     <use xlink:href="#m70a75ab623" x="269.788797" y="332.594959" style="fill: #e08a1e; stroke: #e08a1e"/>
     <use xlink:href="#m70a75ab623" x="276.246161" y="332.737442" style="fill: #e08a1e; stroke: #e08a1e"/>
     <use xlink:href="#m70a75ab623" x="282.703512" y="332.840028" style="fill: #e08a1e; stroke: #e08a1e"/>
     <use xlink:href="#m70a75ab623" x="289.160876" y="332.909021" style="fill: #e08a1e; stroke: #e08a1e"/>
     <use xlink:href="#m70a75ab623" x="295.618226" y="332.947975" style="fill: #e08a1e; stroke: #e08a1e"/>
     <use xlink:href="#m70a75ab623" x="302.075591" y="332.958393" style="fill: #e08a1e; stroke: #e08a1e"/>
     <use xlink:href="#m70a75ab623" x="308.532941" y="332.939865" style="fill: #e08a1e; stroke: #e08a1e"/>
     <use xlink:href="#m70a75ab623" x="314.990306" y="332.889682" style="fill: #e08a1e; stroke: #e08a1e"/>
     <use xlink:href="#m70a75ab623" x="321.447671" y="332.801669" style="fill: #e08a1e; stroke: #e08a1e"/>
     <use xlink:href="#m70a75ab623" x="327.905021" y="332.663356" style="fill: #e08a1e; stroke: #e08a1e"/>
     <use xlink:href="#m70a75ab623" x="334.362386" y="332.448981" style="fill: #e08a1e; stroke: #e08a1e"/>
     <use xlink:href="#m70a75ab623" x="340.819706" y="332.100328" style="fill: #e08a1e; stroke: #e08a1e"/>
     <use xlink:href="#m70a75ab623" x="347.277042" y="331.466344" style="fill: #e08a1e; stroke: #e08a1e"/>
     <use xlink:href="#m70a75ab623" x="353.734524" y="330.084991" style="fill: #e08a1e; stroke: #e08a1e"/>
     <use xlink:href="#m70a75ab623" x="360.191859" y="326.596382" style="fill: #e08a1e; stroke: #e08a1e"/>
     <use xlink:href="#m70a75ab623" x="366.649195" y="323.420749" style="fill: #e08a1e; stroke: #e08a1e"/>
     <use xlink:href="#m70a75ab623" x="373.10653" y="327.5401" style="fill: #e08a1e; stroke: #e08a1e"/>
     <use xlink:href="#m70a75ab623" x="379.563866" y="329.650972" style="fill: #e08a1e; stroke: #e08a1e"/>
     <use xlink:href="#m70a75ab623" x="386.021201" y="330.178653" style="fill: #e08a1e; stroke: #e08a1e"/>
     <use xlink:href="#m70a75ab623" x="392.478537" y="330.111102" style="fill: #e08a1e; stroke: #e08a1e"/>
     <use xlink:href="#m70a75ab623" x="398.936019" y="329.729595" style="fill: #e08a1e; stroke: #e08a1e"/>
     <use xlink:href="#m70a75ab623" x="405.393354" y="329.085722" style="fill: #e08a1e; stroke: #e08a1e"/>
     <use xlink:href="#m70a75ab623" x="411.850689" y="328.113582" style="fill: #e08a1e; stroke: #e08a1e"/>
     <use xlink:href="#m70a75ab623" x="418.308025" y="326.577449" style="fill: #e08a1e; stroke: #e08a1e"/>
     <use xlink:href="#m70a75ab623" x="424.76536" y="323.756756" style="fill: #e08a1e; stroke: #e08a1e"/>
     <use xlink:href="#m70a75ab623" x="431.222696" y="318.041876" style="fill: #e08a1e; stroke: #e08a1e"/>
     <use xlink:href="#m70a75ab623" x="437.680178" y="315.28331" style="fill: #e08a1e; stroke: #e08a1e"/>
     <use xlink:href="#m70a75ab623" x="444.137513" y="316.131066" style="fill: #e08a1e; stroke: #e08a1e"/>
     <use xlink:href="#m70a75ab623" x="450.594849" y="312.118852" style="fill: #e08a1e; stroke: #e08a1e"/>
     <use xlink:href="#m70a75ab623" x="457.052184" y="301.370628" style="fill: #e08a1e; stroke: #e08a1e"/>
     <use xlink:href="#m70a75ab623" x="463.50952" y="275.099614" style="fill: #e08a1e; stroke: #e08a1e"/>
     <use xlink:href="#m70a75ab623" x="469.966855" y="237.225628" style="fill: #e08a1e; stroke: #e08a1e"/>
     <use xlink:href="#m70a75ab623" x="476.424337" y="236.877499" style="fill: #e08a1e; stroke: #e08a1e"/>
     <use xlink:href="#m70a75ab623" x="482.881673" y="233.81538" style="fill: #e08a1e; stroke: #e08a1e"/>
     <use xlink:href="#m70a75ab623" x="489.339008" y="181.756868" style="fill: #e08a1e; stroke: #e08a1e"/>
     <use xlink:href="#m70a75ab623" x="495.796343" y="126.806809" style="fill: #e08a1e; stroke: #e08a1e"/>
     <use xlink:href="#m70a75ab623" x="502.253679" y="99.669923" style="fill: #e08a1e; stroke: #e08a1e"/>
     <use xlink:href="#m70a75ab623" x="508.711014" y="61.632054" style="fill: #e08a1e; stroke: #e08a1e"/>
     <use xlink:href="#m70a75ab623" x="515.16835" y="62.76306" style="fill: #e08a1e; stroke: #e08a1e"/>
     <use xlink:href="#m70a75ab623" x="521.625832" y="121.297778" style="fill: #e08a1e; stroke: #e08a1e"/>
     <use xlink:href="#m70a75ab623" x="528.083167" y="161.20037" style="fill: #e08a1e; stroke: #e08a1e"/>
     <use xlink:href="#m70a75ab623" x="534.540503" y="160.736078" style="fill: #e08a1e; stroke: #e08a1e"/>
     <use xlink:href="#m70a75ab623" x="540.997838" y="146.381523" style="fill: #e08a1e; stroke: #e08a1e"/>
     <use xlink:href="#m70a75ab623" x="547.455174" y="120.137149" style="fill: #e08a1e; stroke: #e08a1e"/>
     <use xlink:href="#m70a75ab623" x="553.912509" y="95.786013" style="fill: #e08a1e; stroke: #e08a1e"/>
    </g>
   </g>
   <g id="legend_1">
    <g id="line2d_21">
     <path d="M 52.33125 50.387516 
L 61.83125 50.387516 
L 71.33125 50.387516 
" style="fill: none; stroke: #1f3b73; stroke-width: 2.2; stroke-linecap: square"/>
    </g>
    <g id="text_22">
     <!-- ① direct diagonalization (full 70-band) -->
     <g transform="translate(78.93125 53.712516) scale(0.095 -0.095)">
      <defs>
       <path id="DejaVuSans-7a" d="M 353 3500 
L 3084 3500 
L 3084 2975 
L 922 459 
L 3084 459 
L 3084 0 
L 275 0 
L 275 525 
L 2438 3041 
L 353 3041 
L 353 3500 
z
" transform="scale(0.015625)"/>
       <path id="DejaVuSans-37" d="M 525 4666 
L 3525 4666 
L 3525 4397 
L 1831 0 
L 1172 0 
L 2766 4134 
L 525 4134 
L 525 4666 
z
" transform="scale(0.015625)"/>
      </defs>
      <use xlink:href="#DejaVuSans-2460"/>
      <use xlink:href="#DejaVuSans-20" transform="translate(89.648438 0)"/>
      <use xlink:href="#DejaVuSans-64" transform="translate(121.435547 0)"/>
      <use xlink:href="#DejaVuSans-69" transform="translate(184.912109 0)"/>
      <use xlink:href="#DejaVuSans-72" transform="translate(212.695312 0)"/>
      <use xlink:href="#DejaVuSans-65" transform="translate(251.558594 0)"/>
      <use xlink:href="#DejaVuSans-63" transform="translate(313.082031 0)"/>
      <use xlink:href="#DejaVuSans-74" transform="translate(368.0625 0)"/>
      <use xlink:href="#DejaVuSans-20" transform="translate(407.271484 0)"/>
      <use xlink:href="#DejaVuSans-64" transform="translate(439.058594 0)"/>
      <use xlink:href="#DejaVuSans-69" transform="translate(502.535156 0)"/>
      <use xlink:href="#DejaVuSans-61" transform="translate(530.318359 0)"/>
      <use xlink:href="#DejaVuSans-67" transform="translate(591.597656 0)"/>
      <use xlink:href="#DejaVuSans-6f" transform="translate(655.074219 0)"/>
      <use xlink:href="#DejaVuSans-6e" transform="translate(716.255859 0)"/>
      <use xlink:href="#DejaVuSans-61" transform="translate(779.634766 0)"/>
      <use xlink:href="#DejaVuSans-6c" transform="translate(840.914062 0)"/>
      <use xlink:href="#DejaVuSans-69" transform="translate(868.697266 0)"/>
      <use xlink:href="#DejaVuSans-7a" transform="translate(896.480469 0)"/>
      <use xlink:href="#DejaVuSans-61" transform="translate(948.970703 0)"/>
      <use xlink:href="#DejaVuSans-74" transform="translate(1010.25 0)"/>
      <use xlink:href="#DejaVuSans-69" transform="translate(1049.458984 0)"/>
      <use xlink:href="#DejaVuSans-6f" transform="translate(1077.242188 0)"/>
      <use xlink:href="#DejaVuSans-6e" transform="translate(1138.423828 0)"/>
      <use xlink:href="#DejaVuSans-20" transform="translate(1201.802734 0)"/>
      <use xlink:href="#DejaVuSans-28" transform="translate(1233.589844 0)"/>
      <use xlink:href="#DejaVuSans-66" transform="translate(1272.603516 0)"/>
      <use xlink:href="#DejaVuSans-75" transform="translate(1307.808594 0)"/>
      <use xlink:href="#DejaVuSans-6c" transform="translate(1371.1875 0)"/>
      <use xlink:href="#DejaVuSans-6c" transform="translate(1398.970703 0)"/>
      <use xlink:href="#DejaVuSans-20" transform="translate(1426.753906 0)"/>
      <use xlink:href="#DejaVuSans-37" transform="translate(1458.541016 0)"/>
      <use xlink:href="#DejaVuSans-30" transform="translate(1522.164062 0)"/>
      <use xlink:href="#DejaVuSans-2d" transform="translate(1585.787109 0)"/>
      <use xlink:href="#DejaVuSans-62" transform="translate(1621.871094 0)"/>
      <use xlink:href="#DejaVuSans-61" transform="translate(1685.347656 0)"/>
      <use xlink:href="#DejaVuSans-6e" transform="translate(1746.626953 0)"/>
      <use xlink:href="#DejaVuSans-64" transform="translate(1810.005859 0)"/>
      <use xlink:href="#DejaVuSans-29" transform="translate(1873.482422 0)"/>
     </g>
    </g>
    <g id="line2d_22">
     <path d="M 52.33125 64.331734 
L 61.83125 64.331734 
L 71.33125 64.331734 
" style="fill: none"/>
     <g>
      <use xlink:href="#m70a75ab623" x="61.83125" y="64.331734" style="fill: #e08a1e; stroke: #e08a1e"/>
     </g>
    </g>
    <g id="text_23">
     <!-- ② full T-matrix inversion (full 70-band) -->
     <g transform="translate(78.93125 67.656734) scale(0.095 -0.095)">
      <defs>
       <path id="DejaVuSans-78" d="M 3513 3500 
L 2247 1797 
L 3578 0 
L 2900 0 
L 1881 1375 
L 863 0 
L 184 0 
L 1544 1831 
L 300 3500 
L 978 3500 
L 1906 2253 
L 2834 3500 
L 3513 3500 
z
" transform="scale(0.015625)"/>
      </defs>
      <use xlink:href="#DejaVuSans-2461"/>
      <use xlink:href="#DejaVuSans-20" transform="translate(89.648438 0)"/>
      <use xlink:href="#DejaVuSans-66" transform="translate(121.435547 0)"/>
      <use xlink:href="#DejaVuSans-75" transform="translate(156.640625 0)"/>
      <use xlink:href="#DejaVuSans-6c" transform="translate(220.019531 0)"/>
      <use xlink:href="#DejaVuSans-6c" transform="translate(247.802734 0)"/>
      <use xlink:href="#DejaVuSans-20" transform="translate(275.585938 0)"/>
      <use xlink:href="#DejaVuSans-54" transform="translate(307.373047 0)"/>
      <use xlink:href="#DejaVuSans-2d" transform="translate(359.332031 0)"/>
      <use xlink:href="#DejaVuSans-6d" transform="translate(395.416016 0)"/>
      <use xlink:href="#DejaVuSans-61" transform="translate(492.828125 0)"/>
      <use xlink:href="#DejaVuSans-74" transform="translate(554.107422 0)"/>
      <use xlink:href="#DejaVuSans-72" transform="translate(593.316406 0)"/>
      <use xlink:href="#DejaVuSans-69" transform="translate(634.429688 0)"/>
      <use xlink:href="#DejaVuSans-78" transform="translate(662.212891 0)"/>
      <use xlink:href="#DejaVuSans-20" transform="translate(721.392578 0)"/>
      <use xlink:href="#DejaVuSans-69" transform="translate(753.179688 0)"/>
      <use xlink:href="#DejaVuSans-6e" transform="translate(780.962891 0)"/>
      <use xlink:href="#DejaVuSans-76" transform="translate(844.341797 0)"/>
      <use xlink:href="#DejaVuSans-65" transform="translate(903.521484 0)"/>
      <use xlink:href="#DejaVuSans-72" transform="translate(965.044922 0)"/>
      <use xlink:href="#DejaVuSans-73" transform="translate(1006.158203 0)"/>
      <use xlink:href="#DejaVuSans-69" transform="translate(1058.257812 0)"/>
      <use xlink:href="#DejaVuSans-6f" transform="translate(1086.041016 0)"/>
      <use xlink:href="#DejaVuSans-6e" transform="translate(1147.222656 0)"/>
      <use xlink:href="#DejaVuSans-20" transform="translate(1210.601562 0)"/>
      <use xlink:href="#DejaVuSans-28" transform="translate(1242.388672 0)"/>
      <use xlink:href="#DejaVuSans-66" transform="translate(1281.402344 0)"/>
      <use xlink:href="#DejaVuSans-75" transform="translate(1316.607422 0)"/>
      <use xlink:href="#DejaVuSans-6c" transform="translate(1379.986328 0)"/>
      <use xlink:href="#DejaVuSans-6c" transform="translate(1407.769531 0)"/>
      <use xlink:href="#DejaVuSans-20" transform="translate(1435.552734 0)"/>
      <use xlink:href="#DejaVuSans-37" transform="translate(1467.339844 0)"/>
      <use xlink:href="#DejaVuSans-30" transform="translate(1530.962891 0)"/>
      <use xlink:href="#DejaVuSans-2d" transform="translate(1594.585938 0)"/>
      <use xlink:href="#DejaVuSans-62" transform="translate(1630.669922 0)"/>
      <use xlink:href="#DejaVuSans-61" transform="translate(1694.146484 0)"/>
      <use xlink:href="#DejaVuSans-6e" transform="translate(1755.425781 0)"/>
      <use xlink:href="#DejaVuSans-64" transform="translate(1818.804688 0)"/>
      <use xlink:href="#DejaVuSans-29" transform="translate(1882.28125 0)"/>
     </g>
    </g>
    <g id="line2d_23">
     <path d="M 52.33125 78.275953 
L 61.83125 78.275953 
L 71.33125 78.275953 
" style="fill: none; stroke-dasharray: 6.29,2.72; stroke-dashoffset: 0; stroke: #c0399a; stroke-width: 1.7"/>
    </g>
    <g id="text_24">
     <!-- ③ downfolding (active 7–17 + static rest) -->
     <g transform="translate(78.93125 81.600953) scale(0.095 -0.095)">
      <defs>
       <path id="DejaVuSans-77" d="M 269 3500 
L 844 3500 
L 1563 769 
L 2278 3500 
L 2956 3500 
L 3675 769 
L 4391 3500 
L 4966 3500 
L 4050 0 
L 3372 0 
L 2619 2869 
L 1863 0 
L 1184 0 
L 269 3500 
z
" transform="scale(0.015625)"/>
       <path id="DejaVuSans-2013" d="M 313 1978 
L 2888 1978 
L 2888 1528 
L 313 1528 
L 313 1978 
z
" transform="scale(0.015625)"/>
      </defs>
      <use xlink:href="#DejaVuSans-2462"/>
      <use xlink:href="#DejaVuSans-20" transform="translate(89.648438 0)"/>
      <use xlink:href="#DejaVuSans-64" transform="translate(121.435547 0)"/>
      <use xlink:href="#DejaVuSans-6f" transform="translate(184.912109 0)"/>
      <use xlink:href="#DejaVuSans-77" transform="translate(246.09375 0)"/>
      <use xlink:href="#DejaVuSans-6e" transform="translate(327.880859 0)"/>
      <use xlink:href="#DejaVuSans-66" transform="translate(391.259766 0)"/>
      <use xlink:href="#DejaVuSans-6f" transform="translate(426.464844 0)"/>
      <use xlink:href="#DejaVuSans-6c" transform="translate(487.646484 0)"/>
      <use xlink:href="#DejaVuSans-64" transform="translate(515.429688 0)"/>
      <use xlink:href="#DejaVuSans-69" transform="translate(578.90625 0)"/>
      <use xlink:href="#DejaVuSans-6e" transform="translate(606.689453 0)"/>
      <use xlink:href="#DejaVuSans-67" transform="translate(670.068359 0)"/>
      <use xlink:href="#DejaVuSans-20" transform="translate(733.544922 0)"/>
      <use xlink:href="#DejaVuSans-28" transform="translate(765.332031 0)"/>
      <use xlink:href="#DejaVuSans-61" transform="translate(804.345703 0)"/>
      <use xlink:href="#DejaVuSans-63" transform="translate(865.625 0)"/>
      <use xlink:href="#DejaVuSans-74" transform="translate(920.605469 0)"/>
      <use xlink:href="#DejaVuSans-69" transform="translate(959.814453 0)"/>
      <use xlink:href="#DejaVuSans-76" transform="translate(987.597656 0)"/>
      <use xlink:href="#DejaVuSans-65" transform="translate(1046.777344 0)"/>
      <use xlink:href="#DejaVuSans-20" transform="translate(1108.300781 0)"/>
      <use xlink:href="#DejaVuSans-37" transform="translate(1140.087891 0)"/>
      <use xlink:href="#DejaVuSans-2013" transform="translate(1203.710938 0)"/>
      <use xlink:href="#DejaVuSans-31" transform="translate(1253.710938 0)"/>
      <use xlink:href="#DejaVuSans-37" transform="translate(1317.333984 0)"/>
      <use xlink:href="#DejaVuSans-20" transform="translate(1380.957031 0)"/>
      <use xlink:href="#DejaVuSans-2b" transform="translate(1412.744141 0)"/>
      <use xlink:href="#DejaVuSans-20" transform="translate(1496.533203 0)"/>
      <use xlink:href="#DejaVuSans-73" transform="translate(1528.320312 0)"/>
      <use xlink:href="#DejaVuSans-74" transform="translate(1580.419922 0)"/>
      <use xlink:href="#DejaVuSans-61" transform="translate(1619.628906 0)"/>
      <use xlink:href="#DejaVuSans-74" transform="translate(1680.908203 0)"/>
      <use xlink:href="#DejaVuSans-69" transform="translate(1720.117188 0)"/>
      <use xlink:href="#DejaVuSans-63" transform="translate(1747.900391 0)"/>
      <use xlink:href="#DejaVuSans-20" transform="translate(1802.880859 0)"/>
      <use xlink:href="#DejaVuSans-72" transform="translate(1834.667969 0)"/>
      <use xlink:href="#DejaVuSans-65" transform="translate(1873.53125 0)"/>
      <use xlink:href="#DejaVuSans-73" transform="translate(1935.054688 0)"/>
      <use xlink:href="#DejaVuSans-74" transform="translate(1987.154297 0)"/>
      <use xlink:href="#DejaVuSans-29" transform="translate(2026.363281 0)"/>
     </g>
    </g>
   </g>
  </g>
 </g>
 <defs>
  <clipPath id="p206b5eaa59">
   <rect x="43.78125" y="37.944" width="513.36" height="299.376"/>
  </clipPath>
 </defs>
</svg>
