<?xml version="1.0" encoding="utf-8" standalone="no"?>
<!DOCTYPE svg PUBLIC "-//W3C//DTD SVG 1.1//EN"
  "http://www.w3.org/Graphics/SVG/1.1/DTD/svg11.dtd">
<svg xmlns:xlink="http://www.w3.org/1999/xlink" width="633.6pt" height="446.4pt" viewBox="0 0 633.6 446.4" xmlns="http://www.w3.org/2000/svg" version="1.1">
 <metadata>
  <rdf:RDF xmlns:dc="http://purl.org/dc/elements/1.1/" xmlns:cc="http://creativecommons.org/ns#" xmlns:rdf="http://www.w3.org/1999/02/22-rdf-syntax-ns#">
   <cc:Work>
    <dc:type rdf:resource="http://purl.org/dc/dcmitype/StillImage"/>
    <dc:date>2026-07-11T02:26:50.203459</dc:date>
    <dc:format>image/svg+xml</dc:format>
    <dc:creator>
     <cc:Agent>
      <dc:title>Matplotlib v3.10.8, https://matplotlib.org/</dc:title>
     </cc:Agent>
    </dc:creator>
   </cc:Work>
  </rdf:RDF>
 </metadata>
 <defs>
  <style type="text/css">*{stroke-linejoin: round; stroke-linecap: butt}</style>
 </defs>
 <g id="figure_1">
  <g id="patch_1">
   <path d="M 0 446.4 
L 633.6 446.4 
L 633.6 0 
L 0 0 
z
" style="fill: #ffffff"/>
  </g>
  <g id="axes_1">
   <g id="patch_2">
    <path d="M 51.145553 210.33416 
L 630.59976 210.33416 
L 630.59976 17.36024 
L 51.145553 17.36024 
z
" style="fill: #ffffff"/>
   </g>
   <g id="FillBetweenPolyCollection_1">
    <path d="M -71.431299 104.721709 
L -71.431299 100.804244 
L -70.316964 103.13227 
L -69.202629 106.479257 
L -68.088294 106.752049 
L -66.973959 98.208002 
L -65.859624 84.097584 
L -64.745289 78.578073 
L -63.630954 90.90921 
L -62.516619 112.262531 
L -61.402284 125.79219 
L -60.287949 125.294207 
L -59.173614 117.381459 
L -58.059279 110.184399 
L -56.944944 106.435886 
L -55.830609 105.117963 
L -54.716274 104.789184 
L -53.601939 104.730064 
L -52.487604 104.722434 
L -51.373269 104.721749 
L -50.258934 104.72171 
L -49.144599 104.721709 
L -48.030264 104.721709 
L -46.915929 104.721709 
L -45.801594 104.721709 
L -44.687259 104.721709 
L -43.572924 104.721709 
L -42.458589 104.721709 
L -41.344254 104.721709 
L -40.229919 104.721709 
L -39.115584 104.721709 
L -38.001249 104.721708 
L -36.886914 104.721697 
L -35.772579 104.721537 
L -34.658244 104.719823 
L -33.543909 104.7057 
L -32.429574 104.616551 
L -31.315239 104.188812 
L -30.200904 102.648755 
L -29.086569 98.582214 
L -27.972234 91.073095 
L -26.857899 82.572201 
L -25.743563 80.169747 
L -24.629228 90.155141 
L -23.514893 109.306192 
L -22.400558 125.470067 
L -21.286223 129.502355 
L -20.171888 123.258225 
L -19.057553 114.55008 
L -17.943218 108.57754 
L -16.828883 105.863444 
L -15.714548 104.979624 
L -14.600213 104.76644 
L -13.485878 104.727689 
L -12.371543 104.722327 
L -11.257208 104.721758 
L -10.142873 104.721712 
L -9.028538 104.721709 
L -7.914203 104.721709 
L -6.799868 104.721709 
L -5.685533 104.721709 
L -4.571198 104.721709 
L -3.456863 104.721708 
L -2.342528 104.721698 
L -1.228193 104.72156 
L -0.113858 104.720092 
L 1.000477 104.708113 
L 2.114812 104.633464 
L 3.229147 104.281186 
L 4.343482 103.040609 
L 5.457817 99.865931 
L 6.572152 94.289848 
L 7.686487 88.629215 
L 8.800822 88.422117 
L 9.915157 97.488479 
L 11.029492 111.710069 
L 12.143827 121.436638 
L 13.258162 121.490041 
L 14.372497 115.366907 
L 15.486832 109.282328 
L 16.601167 106.007526 
L 17.715502 104.919711 
L 18.829837 104.715115 
L 19.944172 104.709434 
L 21.058507 104.718203 
L 22.172842 104.721105 
L 23.287177 104.721636 
L 24.401512 104.721703 
L 25.515847 104.721707 
L 26.630182 104.721683 
L 27.744517 104.721361 
L 28.858852 104.718062 
L 29.973187 104.691762 
L 31.087522 104.529242 
L 32.201857 103.75526 
L 33.316192 100.946317 
L 34.430527 93.346731 
L 35.544862 78.729069 
L 36.659197 61.202506 
L 37.773532 55.701372 
L 38.887867 78.612032 
L 40.002202 125.509434 
L 41.116537 165.185828 
L 42.230872 168.960963 
L 43.345207 141.345883 
L 44.459542 110.446364 
L 45.573877 95.504092 
L 46.688212 95.056266 
L 47.802547 99.414151 
L 48.916882 102.734689 
L 50.031217 104.177174 
L 51.145553 104.609221 
L 52.259888 104.703938 
L 53.374223 104.719545 
L 54.488558 104.721505 
L 55.602893 104.721694 
L 56.717228 104.721708 
L 57.831563 104.721709 
L 58.945898 104.721709 
L 60.060233 104.721709 
L 61.174568 104.721709 
L 62.288903 104.721709 
L 63.403238 104.721709 
L 64.517573 104.721709 
L 65.631908 104.721709 
L 66.746243 104.721709 
L 67.860578 104.721709 
L 68.974913 104.721709 
L 70.089248 104.721709 
L 71.203583 104.721709 
L 72.317918 104.721709 
L 73.432253 104.721707 
L 74.546588 104.721679 
L 75.660923 104.721302 
L 76.775258 104.717456 
L 77.889593 104.687367 
L 79.003928 104.508205 
L 80.118263 103.703825 
L 81.232598 101.023351 
L 82.346933 94.583276 
L 83.461268 84.125506 
L 84.575603 74.84219 
L 85.689938 76.677768 
L 86.804273 94.471238 
L 87.918608 119.032986 
L 89.032943 134.271344 
L 90.147278 133.483661 
L 91.261613 123.326191 
L 92.375948 113.39216 
L 93.490283 107.728111 
L 94.604618 105.509858 
L 95.718953 104.879364 
L 96.833288 104.745909 
L 97.947623 104.724571 
L 99.061958 104.72197 
L 100.176293 104.721728 
L 101.290628 104.72171 
L 102.404963 104.721709 
L 103.519298 104.721709 
L 104.633633 104.721709 
L 105.747968 104.721709 
L 106.862303 104.721709 
L 107.976638 104.721709 
L 109.090973 104.721709 
L 110.205308 104.721709 
L 111.319643 104.721709 
L 112.433978 104.721709 
L 113.548313 104.721709 
L 114.662648 104.721709 
L 115.776983 104.721709 
L 116.891318 104.721709 
L 118.005653 104.721709 
L 119.119988 104.721709 
L 120.234323 104.721709 
L 121.348658 104.721709 
L 122.462993 104.721709 
L 123.577328 104.721709 
L 124.691663 104.721709 
L 125.805998 104.721709 
L 126.920333 104.721709 
L 128.034668 104.721709 
L 129.149004 104.721709 
L 130.263339 104.721709 
L 131.377674 104.721709 
L 132.492009 104.721709 
L 133.606344 104.721709 
L 134.720679 104.721705 
L 135.835014 104.721648 
L 136.949349 104.721039 
L 138.063684 104.71604 
L 139.178019 104.684819 
L 140.292354 104.537744 
L 141.406689 104.022017 
L 142.521024 102.705714 
L 143.635359 100.363497 
L 144.749694 97.748604 
L 145.864029 96.623398 
L 146.978364 98.097864 
L 148.092699 101.223405 
L 149.207034 104.434931 
L 150.321369 107.557248 
L 151.435704 110.71697 
L 152.550039 112.647694 
L 153.664374 112.081057 
L 154.778709 109.674356 
L 155.893044 107.186509 
L 157.007379 105.642097 
L 158.121714 104.982255 
L 159.236049 104.778031 
L 160.350384 104.731054 
L 161.464719 104.722903 
L 162.579054 104.721827 
L 163.693389 104.721718 
L 164.807724 104.72171 
L 165.922059 104.721709 
L 167.036394 104.721709 
L 168.150729 104.721709 
L 169.265064 104.721709 
L 170.379399 104.721709 
L 171.493734 104.721709 
L 172.608069 104.721709 
L 173.722404 104.721709 
L 174.836739 104.721709 
L 175.951074 104.721709 
L 177.065409 104.721709 
L 178.179744 104.721709 
L 179.294079 104.721709 
L 180.408414 104.721709 
L 181.522749 104.721709 
L 182.637084 104.721709 
L 183.751419 104.721709 
L 184.865754 104.721709 
L 185.980089 104.721709 
L 187.094424 104.721709 
L 188.208759 104.721709 
L 189.323094 104.721709 
L 190.437429 104.721709 
L 191.551764 104.721709 
L 192.666099 104.721709 
L 193.780434 104.721709 
L 194.894769 104.721709 
L 196.009104 104.721709 
L 197.123439 104.721709 
L 198.237774 104.721709 
L 199.352109 104.721709 
L 200.466444 104.721709 
L 201.580779 104.721709 
L 202.695114 104.721709 
L 203.809449 104.721709 
L 204.923784 104.721709 
L 206.03812 104.721709 
L 207.152455 104.721709 
L 208.26679 104.721709 
L 209.381125 104.721709 
L 210.49546 104.721709 
L 211.609795 104.721709 
L 212.72413 104.721709 
L 213.838465 104.721709 
L 214.9528 104.721709 
L 216.067135 104.721709 
L 217.18147 104.721709 
L 218.295805 104.721709 
L 219.41014 104.721709 
L 220.524475 104.721709 
L 221.63881 104.721709 
L 222.753145 104.721709 
L 223.86748 104.721709 
L 224.981815 104.721709 
L 226.09615 104.721709 
L 227.210485 104.721709 
L 228.32482 104.721709 
L 229.439155 104.721709 
L 230.55349 104.721709 
L 231.667825 104.721709 
L 232.78216 104.721709 
L 233.896495 104.721709 
L 235.01083 104.721709 
L 236.125165 104.721709 
L 237.2395 104.721709 
L 238.353835 104.721709 
L 239.46817 104.721709 
L 240.582505 104.721709 
L 241.69684 104.721709 
L 242.811175 104.721709 
L 243.92551 104.721709 
L 245.039845 104.721709 
L 246.15418 104.721709 
L 247.268515 104.721709 
L 248.38285 104.721709 
L 249.497185 104.721709 
L 250.61152 104.721709 
L 251.725855 104.721709 
L 252.84019 104.721709 
L 253.954525 104.721709 
L 255.06886 104.721709 
L 256.183195 104.721709 
L 257.29753 104.721709 
L 258.411865 104.721709 
L 259.5262 104.721709 
L 260.640535 104.721709 
L 261.75487 104.721709 
L 262.869205 104.721709 
L 263.98354 104.721709 
L 265.097875 104.721709 
L 266.21221 104.721709 
L 267.326545 104.721709 
L 268.44088 104.721709 
L 269.555215 104.721709 
L 270.66955 104.721709 
L 271.783885 104.721709 
L 272.89822 104.721709 
L 274.012555 104.721709 
L 275.12689 104.721709 
L 276.241225 104.721709 
L 277.35556 104.721709 
L 278.469895 104.721709 
L 279.58423 104.721709 
L 280.698565 104.721709 
L 281.8129 104.721709 
L 282.927236 104.721709 
L 284.041571 104.721709 
L 285.155906 104.721709 
L 286.270241 104.721709 
L 287.384576 104.721709 
L 288.498911 104.721709 
L 289.613246 104.721709 
L 290.727581 104.721709 
L 291.841916 104.721709 
L 292.956251 104.721709 
L 294.070586 104.721709 
L 295.184921 104.721709 
L 296.299256 104.721709 
L 297.413591 104.721709 
L 298.527926 104.721709 
L 299.642261 104.721709 
L 300.756596 104.721709 
L 301.870931 104.721709 
L 302.985266 104.721709 
L 304.099601 104.721709 
L 305.213936 104.721709 
L 306.328271 104.721709 
L 307.442606 104.721709 
L 308.556941 104.721709 
L 309.671276 104.721709 
L 310.785611 104.721709 
L 311.899946 104.721709 
L 313.014281 104.721709 
L 314.128616 104.721709 
L 315.242951 104.721709 
L 316.357286 104.721709 
L 317.471621 104.721709 
L 318.585956 104.721709 
L 319.700291 104.721709 
L 320.814626 104.721709 
L 321.928961 104.721709 
L 323.043296 104.721709 
L 324.157631 104.721709 
L 325.271966 104.721709 
L 326.386301 104.721709 
L 327.500636 104.721709 
L 328.614971 104.721709 
L 329.729306 104.721709 
L 330.843641 104.721709 
L 331.957976 104.721709 
L 333.072311 104.721709 
L 334.186646 104.721709 
L 335.300981 104.721709 
L 336.415316 104.721709 
L 337.529651 104.721709 
L 338.643986 104.721709 
L 339.758321 104.721709 
L 340.872656 104.721709 
L 341.986991 104.721709 
L 343.101326 104.721709 
L 344.215661 104.721709 
L 345.329996 104.721709 
L 346.444331 104.721709 
L 347.558666 104.721709 
L 348.673001 104.721709 
L 349.787336 104.721709 
L 350.901671 104.721709 
L 352.016006 104.721709 
L 353.130341 104.721709 
L 354.244676 104.721709 
L 355.359011 104.721709 
L 356.473346 104.721709 
L 357.587681 104.721709 
L 358.702016 104.721709 
L 359.816351 104.721709 
L 360.930687 104.721709 
L 362.045022 104.721709 
L 363.159357 104.721709 
L 364.273692 104.721709 
L 365.388027 104.721709 
L 366.502362 104.721709 
L 367.616697 104.721709 
L 368.731032 104.721709 
L 369.845367 104.721709 
L 370.959702 104.721709 
L 372.074037 104.721709 
L 373.188372 104.721709 
L 374.302707 104.721709 
L 375.417042 104.721709 
L 376.531377 104.721709 
L 377.645712 104.721709 
L 378.760047 104.721709 
L 379.874382 104.721709 
L 380.988717 104.721709 
L 382.103052 104.721709 
L 383.217387 104.721709 
L 384.331722 104.721709 
L 385.446057 104.721709 
L 386.560392 104.721709 
L 387.674727 104.721709 
L 388.789062 104.721709 
L 389.903397 104.721709 
L 391.017732 104.721709 
L 392.132067 104.721709 
L 393.246402 104.721709 
L 394.360737 104.721709 
L 395.475072 104.721709 
L 396.589407 104.721709 
L 397.703742 104.721709 
L 398.818077 104.721709 
L 399.932412 104.721709 
L 401.046747 104.721709 
L 402.161082 104.721709 
L 403.275417 104.721709 
L 404.389752 104.721709 
L 405.504087 104.721709 
L 406.618422 104.721709 
L 407.732757 104.721709 
L 408.847092 104.721709 
L 409.961427 104.721709 
L 411.075762 104.721709 
L 412.190097 104.721709 
L 413.304432 104.721709 
L 414.418767 104.721709 
L 415.533102 104.721709 
L 416.647437 104.721709 
L 417.761772 104.721709 
L 418.876107 104.721709 
L 419.990442 104.721709 
L 421.104777 104.721709 
L 422.219112 104.721709 
L 423.333447 104.721709 
L 424.447782 104.721709 
L 425.562117 104.721709 
L 426.676452 104.721709 
L 427.790787 104.721709 
L 428.905122 104.721709 
L 430.019457 104.721709 
L 431.133792 104.721709 
L 432.248127 104.721709 
L 433.362462 104.721709 
L 434.476797 104.721709 
L 435.591132 104.721709 
L 436.705467 104.721709 
L 437.819803 104.721709 
L 438.934138 104.721709 
L 440.048473 104.721709 
L 441.162808 104.721709 
L 442.277143 104.721709 
L 443.391478 104.721709 
L 444.505813 104.721709 
L 445.620148 104.721709 
L 446.734483 104.721709 
L 447.848818 104.721709 
L 448.963153 104.721709 
L 450.077488 104.721709 
L 451.191823 104.721709 
L 452.306158 104.721709 
L 453.420493 104.721709 
L 454.534828 104.721709 
L 455.649163 104.721709 
L 456.763498 104.721709 
L 457.877833 104.721709 
L 458.992168 104.721709 
L 460.106503 104.721709 
L 461.220838 104.721709 
L 462.335173 104.721709 
L 463.449508 104.721709 
L 464.563843 104.721709 
L 465.678178 104.721709 
L 466.792513 104.721709 
L 467.906848 104.721709 
L 469.021183 104.721709 
L 470.135518 104.721709 
L 471.249853 104.721709 
L 472.364188 104.721709 
L 473.478523 104.721709 
L 474.592858 104.721709 
L 475.707193 104.721709 
L 476.821528 104.721709 
L 477.935863 104.721709 
L 479.050198 104.721709 
L 480.164533 104.721709 
L 481.278868 104.721709 
L 482.393203 104.721709 
L 483.507538 104.721709 
L 484.621873 104.721709 
L 485.736208 104.721709 
L 486.850543 104.721709 
L 487.964878 104.721709 
L 489.079213 104.721709 
L 490.193548 104.721709 
L 491.307883 104.721709 
L 492.422218 104.721709 
L 493.536553 104.721709 
L 494.650888 104.721709 
L 495.765223 104.721709 
L 496.879558 104.721709 
L 497.993893 104.721709 
L 499.108228 104.721709 
L 500.222563 104.721709 
L 501.336898 104.721709 
L 502.451233 104.721709 
L 503.565568 104.721709 
L 504.679903 104.721709 
L 505.794238 104.721709 
L 506.908573 104.721708 
L 508.022908 104.721694 
L 509.137243 104.721516 
L 510.251578 104.719767 
L 511.365913 104.706681 
L 512.480248 104.632337 
L 513.594583 104.31503 
L 514.708919 103.315386 
L 515.823254 101.067329 
L 516.937589 97.73115 
L 518.051924 95.302135 
L 519.166259 96.850484 
L 520.280594 103.109069 
L 521.394929 110.447434 
L 522.509264 114.119665 
L 523.623599 113.011242 
L 524.737934 109.695094 
L 525.852269 106.887922 
L 526.966604 105.425808 
L 528.080939 104.894943 
L 529.195274 104.754241 
L 530.309609 104.726397 
L 531.423944 104.722229 
L 532.538279 104.721754 
L 533.652614 104.721712 
L 534.766949 104.721709 
L 535.881284 104.721709 
L 536.995619 104.721709 
L 538.109954 104.721709 
L 539.224289 104.721709 
L 540.338624 104.721709 
L 541.452959 104.721709 
L 542.567294 104.721709 
L 543.681629 104.721709 
L 544.795964 104.721709 
L 545.910299 104.721709 
L 547.024634 104.721709 
L 548.138969 104.721709 
L 549.253304 104.721709 
L 550.367639 104.721709 
L 551.481974 104.721709 
L 552.596309 104.721709 
L 553.710644 104.721709 
L 554.824979 104.721709 
L 555.939314 104.721709 
L 557.053649 104.721709 
L 558.167984 104.721709 
L 559.282319 104.721709 
L 560.396654 104.721709 
L 561.510989 104.721709 
L 562.625324 104.721709 
L 563.739659 104.721709 
L 564.853994 104.721709 
L 565.968329 104.721709 
L 567.082664 104.721709 
L 568.196999 104.721708 
L 569.311334 104.721697 
L 570.425669 104.721536 
L 571.540004 104.719803 
L 572.654339 104.705495 
L 573.768674 104.615518 
L 574.883009 104.18841 
L 575.997344 102.68076 
L 577.111679 98.828665 
L 578.226014 92.104934 
L 579.340349 85.376899 
L 580.454684 85.279763 
L 581.569019 96.146337 
L 582.683354 112.861139 
L 583.797689 124.190627 
L 584.912024 124.403479 
L 586.026359 117.572007 
L 587.140694 110.6254 
L 588.255029 106.682962 
L 589.369364 105.19494 
L 590.483699 104.803494 
L 591.598034 104.731369 
L 592.71237 104.722371 
L 593.826705 104.72171 
L 594.94104 104.721703 
L 596.055375 104.721708 
L 597.16971 104.721709 
L 598.284045 104.721709 
L 599.39838 104.721709 
L 600.512715 104.721709 
L 601.62705 104.721709 
L 602.741385 104.721709 
L 603.85572 104.721709 
L 604.970055 104.721709 
L 606.08439 104.721709 
L 607.198725 104.721709 
L 608.31306 104.721709 
L 609.427395 104.721709 
L 610.54173 104.721709 
L 611.656065 104.721709 
L 612.7704 104.721709 
L 613.884735 104.721709 
L 614.99907 104.721709 
L 616.113405 104.721709 
L 617.22774 104.721709 
L 618.342075 104.721709 
L 619.45641 104.721709 
L 620.570745 104.721709 
L 621.68508 104.721709 
L 622.799415 104.721709 
L 623.91375 104.721709 
L 625.028085 104.721709 
L 626.14242 104.721709 
L 627.256755 104.721709 
L 628.37109 104.721699 
L 629.485425 104.721553 
L 630.59976 104.719765 
L 631.714095 104.702867 
L 632.82843 104.580061 
L 633.942765 103.898511 
L 635.0571 101.042098 
L 636.171435 92.173457 
L 637.28577 72.523727 
L 638.400105 44.17377 
L 639.51444 26.131782 
L 640.628775 46.958015 
L 641.74311 111.430726 
L 642.857445 179.746939 
L 643.97178 201.562619 
L 645.086115 169.577424 
L 646.20045 121.212955 
L 647.314785 92.98954 
L 648.42912 91.035178 
L 649.543455 100.821526 
L 650.65779 108.555167 
L 651.772125 110.266364 
L 652.88646 108.512245 
L 654.000795 106.380782 
L 655.11513 104.825196 
L 656.229465 103.006059 
L 657.3438 99.44492 
L 658.458135 93.929527 
L 659.57247 90.376952 
L 660.686805 96.365019 
L 661.80114 114.375899 
L 662.915475 132.999579 
L 664.02981 135.032737 
L 665.144145 117.122377 
L 666.25848 93.491944 
L 667.372815 79.43256 
L 668.48715 79.627171 
L 669.601486 90.875895 
L 670.715821 106.158391 
L 671.830156 116.695509 
L 672.944491 117.759518 
L 674.058826 112.522421 
L 675.173161 107.223869 
L 676.287496 104.750493 
L 677.401831 104.325282 
L 678.516166 104.504071 
L 679.630501 104.653415 
L 680.744836 104.707037 
L 681.859171 104.719424 
L 682.973506 104.721444 
L 684.087841 104.721686 
L 685.202176 104.721707 
L 686.316511 104.721709 
L 687.430846 104.721703 
L 688.545181 104.72162 
L 689.659516 104.720673 
L 690.773851 104.712372 
L 691.888186 104.657013 
L 693.002521 104.379095 
L 694.116856 103.34743 
L 695.231191 100.608926 
L 696.345526 95.791867 
L 697.459861 91.502427 
L 698.574196 93.811361 
L 699.688531 106.130753 
L 700.802866 121.486459 
L 701.917201 126.977498 
L 703.031536 118.703849 
L 704.145871 105.96087 
L 705.260206 98.907857 
L 706.374541 98.82894 
L 707.488876 101.42666 
L 708.603211 103.467396 
L 708.603211 104.721709 
L 708.603211 104.721709 
L 707.488876 104.721709 
L 706.374541 104.721709 
L 705.260206 104.721709 
L 704.145871 104.721709 
L 703.031536 104.721709 
L 701.917201 104.721709 
L 700.802866 104.721709 
L 699.688531 104.721709 
L 698.574196 104.721709 
L 697.459861 104.721709 
L 696.345526 104.721709 
L 695.231191 104.721709 
L 694.116856 104.721709 
L 693.002521 104.721709 
L 691.888186 104.721709 
L 690.773851 104.721709 
L 689.659516 104.721709 
L 688.545181 104.721709 
L 687.430846 104.721709 
L 686.316511 104.721709 
L 685.202176 104.721709 
L 684.087841 104.721709 
L 682.973506 104.721709 
L 681.859171 104.721709 
L 680.744836 104.721709 
L 679.630501 104.721709 
L 678.516166 104.721709 
L 677.401831 104.721709 
L 676.287496 104.721709 
L 675.173161 104.721709 
L 674.058826 104.721709 
L 672.944491 104.721709 
L 671.830156 104.721709 
L 670.715821 104.721709 
L 669.601486 104.721709 
L 668.48715 104.721709 
L 667.372815 104.721709 
L 666.25848 104.721709 
L 665.144145 104.721709 
L 664.02981 104.721709 
L 662.915475 104.721709 
L 661.80114 104.721709 
L 660.686805 104.721709 
L 659.57247 104.721709 
L 658.458135 104.721709 
L 657.3438 104.721709 
L 656.229465 104.721709 
L 655.11513 104.721709 
L 654.000795 104.721709 
L 652.88646 104.721709 
L 651.772125 104.721709 
L 650.65779 104.721709 
L 649.543455 104.721709 
L 648.42912 104.721709 
L 647.314785 104.721709 
L 646.20045 104.721709 
L 645.086115 104.721709 
L 643.97178 104.721709 
L 642.857445 104.721709 
L 641.74311 104.721709 
L 640.628775 104.721709 
L 639.51444 104.721709 
L 638.400105 104.721709 
L 637.28577 104.721709 
L 636.171435 104.721709 
L 635.0571 104.721709 
L 633.942765 104.721709 
L 632.82843 104.721709 
L 631.714095 104.721709 
L 630.59976 104.721709 
L 629.485425 104.721709 
L 628.37109 104.721709 
L 627.256755 104.721709 
L 626.14242 104.721709 
L 625.028085 104.721709 
L 623.91375 104.721709 
L 622.799415 104.721709 
L 621.68508 104.721709 
L 620.570745 104.721709 
L 619.45641 104.721709 
L 618.342075 104.721709 
L 617.22774 104.721709 
L 616.113405 104.721709 
L 614.99907 104.721709 
L 613.884735 104.721709 
L 612.7704 104.721709 
L 611.656065 104.721709 
L 610.54173 104.721709 
L 609.427395 104.721709 
L 608.31306 104.721709 
L 607.198725 104.721709 
L 606.08439 104.721709 
L 604.970055 104.721709 
L 603.85572 104.721709 
L 602.741385 104.721709 
L 601.62705 104.721709 
L 600.512715 104.721709 
L 599.39838 104.721709 
L 598.284045 104.721709 
L 597.16971 104.721709 
L 596.055375 104.721709 
L 594.94104 104.721709 
L 593.826705 104.721709 
L 592.71237 104.721709 
L 591.598034 104.721709 
L 590.483699 104.721709 
L 589.369364 104.721709 
L 588.255029 104.721709 
L 587.140694 104.721709 
L 586.026359 104.721709 
L 584.912024 104.721709 
L 583.797689 104.721709 
L 582.683354 104.721709 
L 581.569019 104.721709 
L 580.454684 104.721709 
L 579.340349 104.721709 
L 578.226014 104.721709 
L 577.111679 104.721709 
L 575.997344 104.721709 
L 574.883009 104.721709 
L 573.768674 104.721709 
L 572.654339 104.721709 
L 571.540004 104.721709 
L 570.425669 104.721709 
L 569.311334 104.721709 
L 568.196999 104.721709 
L 567.082664 104.721709 
L 565.968329 104.721709 
L 564.853994 104.721709 
L 563.739659 104.721709 
L 562.625324 104.721709 
L 561.510989 104.721709 
L 560.396654 104.721709 
L 559.282319 104.721709 
L 558.167984 104.721709 
L 557.053649 104.721709 
L 555.939314 104.721709 
L 554.824979 104.721709 
L 553.710644 104.721709 
L 552.596309 104.721709 
L 551.481974 104.721709 
L 550.367639 104.721709 
L 549.253304 104.721709 
L 548.138969 104.721709 
L 547.024634 104.721709 
L 545.910299 104.721709 
L 544.795964 104.721709 
L 543.681629 104.721709 
L 542.567294 104.721709 
L 541.452959 104.721709 
L 540.338624 104.721709 
L 539.224289 104.721709 
L 538.109954 104.721709 
L 536.995619 104.721709 
L 535.881284 104.721709 
L 534.766949 104.721709 
L 533.652614 104.721709 
L 532.538279 104.721709 
L 531.423944 104.721709 
L 530.309609 104.721709 
L 529.195274 104.721709 
L 528.080939 104.721709 
L 526.966604 104.721709 
L 525.852269 104.721709 
L 524.737934 104.721709 
L 523.623599 104.721709 
L 522.509264 104.721709 
L 521.394929 104.721709 
L 520.280594 104.721709 
L 519.166259 104.721709 
L 518.051924 104.721709 
L 516.937589 104.721709 
L 515.823254 104.721709 
L 514.708919 104.721709 
L 513.594583 104.721709 
L 512.480248 104.721709 
L 511.365913 104.721709 
L 510.251578 104.721709 
L 509.137243 104.721709 
L 508.022908 104.721709 
L 506.908573 104.721709 
L 505.794238 104.721709 
L 504.679903 104.721709 
L 503.565568 104.721709 
L 502.451233 104.721709 
L 501.336898 104.721709 
L 500.222563 104.721709 
L 499.108228 104.721709 
L 497.993893 104.721709 
L 496.879558 104.721709 
L 495.765223 104.721709 
L 494.650888 104.721709 
L 493.536553 104.721709 
L 492.422218 104.721709 
L 491.307883 104.721709 
L 490.193548 104.721709 
L 489.079213 104.721709 
L 487.964878 104.721709 
L 486.850543 104.721709 
L 485.736208 104.721709 
L 484.621873 104.721709 
L 483.507538 104.721709 
L 482.393203 104.721709 
L 481.278868 104.721709 
L 480.164533 104.721709 
L 479.050198 104.721709 
L 477.935863 104.721709 
L 476.821528 104.721709 
L 475.707193 104.721709 
L 474.592858 104.721709 
L 473.478523 104.721709 
L 472.364188 104.721709 
L 471.249853 104.721709 
L 470.135518 104.721709 
L 469.021183 104.721709 
L 467.906848 104.721709 
L 466.792513 104.721709 
L 465.678178 104.721709 
L 464.563843 104.721709 
L 463.449508 104.721709 
L 462.335173 104.721709 
L 461.220838 104.721709 
L 460.106503 104.721709 
L 458.992168 104.721709 
L 457.877833 104.721709 
L 456.763498 104.721709 
L 455.649163 104.721709 
L 454.534828 104.721709 
L 453.420493 104.721709 
L 452.306158 104.721709 
L 451.191823 104.721709 
L 450.077488 104.721709 
L 448.963153 104.721709 
L 447.848818 104.721709 
L 446.734483 104.721709 
L 445.620148 104.721709 
L 444.505813 104.721709 
L 443.391478 104.721709 
L 442.277143 104.721709 
L 441.162808 104.721709 
L 440.048473 104.721709 
L 438.934138 104.721709 
L 437.819803 104.721709 
L 436.705467 104.721709 
L 435.591132 104.721709 
L 434.476797 104.721709 
L 433.362462 104.721709 
L 432.248127 104.721709 
L 431.133792 104.721709 
L 430.019457 104.721709 
L 428.905122 104.721709 
L 427.790787 104.721709 
L 426.676452 104.721709 
L 425.562117 104.721709 
L 424.447782 104.721709 
L 423.333447 104.721709 
L 422.219112 104.721709 
L 421.104777 104.721709 
L 419.990442 104.721709 
L 418.876107 104.721709 
L 417.761772 104.721709 
L 416.647437 104.721709 
L 415.533102 104.721709 
L 414.418767 104.721709 
L 413.304432 104.721709 
L 412.190097 104.721709 
L 411.075762 104.721709 
L 409.961427 104.721709 
L 408.847092 104.721709 
L 407.732757 104.721709 
L 406.618422 104.721709 
L 405.504087 104.721709 
L 404.389752 104.721709 
L 403.275417 104.721709 
L 402.161082 104.721709 
L 401.046747 104.721709 
L 399.932412 104.721709 
L 398.818077 104.721709 
L 397.703742 104.721709 
L 396.589407 104.721709 
L 395.475072 104.721709 
L 394.360737 104.721709 
L 393.246402 104.721709 
L 392.132067 104.721709 
L 391.017732 104.721709 
L 389.903397 104.721709 
L 388.789062 104.721709 
L 387.674727 104.721709 
L 386.560392 104.721709 
L 385.446057 104.721709 
L 384.331722 104.721709 
L 383.217387 104.721709 
L 382.103052 104.721709 
L 380.988717 104.721709 
L 379.874382 104.721709 
L 378.760047 104.721709 
L 377.645712 104.721709 
L 376.531377 104.721709 
L 375.417042 104.721709 
L 374.302707 104.721709 
L 373.188372 104.721709 
L 372.074037 104.721709 
L 370.959702 104.721709 
L 369.845367 104.721709 
L 368.731032 104.721709 
L 367.616697 104.721709 
L 366.502362 104.721709 
L 365.388027 104.721709 
L 364.273692 104.721709 
L 363.159357 104.721709 
L 362.045022 104.721709 
L 360.930687 104.721709 
L 359.816351 104.721709 
L 358.702016 104.721709 
L 357.587681 104.721709 
L 356.473346 104.721709 
L 355.359011 104.721709 
L 354.244676 104.721709 
L 353.130341 104.721709 
L 352.016006 104.721709 
L 350.901671 104.721709 
L 349.787336 104.721709 
L 348.673001 104.721709 
L 347.558666 104.721709 
L 346.444331 104.721709 
L 345.329996 104.721709 
L 344.215661 104.721709 
L 343.101326 104.721709 
L 341.986991 104.721709 
L 340.872656 104.721709 
L 339.758321 104.721709 
L 338.643986 104.721709 
L 337.529651 104.721709 
L 336.415316 104.721709 
L 335.300981 104.721709 
L 334.186646 104.721709 
L 333.072311 104.721709 
L 331.957976 104.721709 
L 330.843641 104.721709 
L 329.729306 104.721709 
L 328.614971 104.721709 
L 327.500636 104.721709 
L 326.386301 104.721709 
L 325.271966 104.721709 
L 324.157631 104.721709 
L 323.043296 104.721709 
L 321.928961 104.721709 
L 320.814626 104.721709 
L 319.700291 104.721709 
L 318.585956 104.721709 
L 317.471621 104.721709 
L 316.357286 104.721709 
L 315.242951 104.721709 
L 314.128616 104.721709 
L 313.014281 104.721709 
L 311.899946 104.721709 
L 310.785611 104.721709 
L 309.671276 104.721709 
L 308.556941 104.721709 
L 307.442606 104.721709 
L 306.328271 104.721709 
L 305.213936 104.721709 
L 304.099601 104.721709 
L 302.985266 104.721709 
L 301.870931 104.721709 
L 300.756596 104.721709 
L 299.642261 104.721709 
L 298.527926 104.721709 
L 297.413591 104.721709 
L 296.299256 104.721709 
L 295.184921 104.721709 
L 294.070586 104.721709 
L 292.956251 104.721709 
L 291.841916 104.721709 
L 290.727581 104.721709 
L 289.613246 104.721709 
L 288.498911 104.721709 
L 287.384576 104.721709 
L 286.270241 104.721709 
L 285.155906 104.721709 
L 284.041571 104.721709 
L 282.927236 104.721709 
L 281.8129 104.721709 
L 280.698565 104.721709 
L 279.58423 104.721709 
L 278.469895 104.721709 
L 277.35556 104.721709 
L 276.241225 104.721709 
L 275.12689 104.721709 
L 274.012555 104.721709 
L 272.89822 104.721709 
L 271.783885 104.721709 
L 270.66955 104.721709 
L 269.555215 104.721709 
L 268.44088 104.721709 
L 267.326545 104.721709 
L 266.21221 104.721709 
L 265.097875 104.721709 
L 263.98354 104.721709 
L 262.869205 104.721709 
L 261.75487 104.721709 
L 260.640535 104.721709 
L 259.5262 104.721709 
L 258.411865 104.721709 
L 257.29753 104.721709 
L 256.183195 104.721709 
L 255.06886 104.721709 
L 253.954525 104.721709 
L 252.84019 104.721709 
L 251.725855 104.721709 
L 250.61152 104.721709 
L 249.497185 104.721709 
L 248.38285 104.721709 
L 247.268515 104.721709 
L 246.15418 104.721709 
L 245.039845 104.721709 
L 243.92551 104.721709 
L 242.811175 104.721709 
L 241.69684 104.721709 
L 240.582505 104.721709 
L 239.46817 104.721709 
L 238.353835 104.721709 
L 237.2395 104.721709 
L 236.125165 104.721709 
L 235.01083 104.721709 
L 233.896495 104.721709 
L 232.78216 104.721709 
L 231.667825 104.721709 
L 230.55349 104.721709 
L 229.439155 104.721709 
L 228.32482 104.721709 
L 227.210485 104.721709 
L 226.09615 104.721709 
L 224.981815 104.721709 
L 223.86748 104.721709 
L 222.753145 104.721709 
L 221.63881 104.721709 
L 220.524475 104.721709 
L 219.41014 104.721709 
L 218.295805 104.721709 
L 217.18147 104.721709 
L 216.067135 104.721709 
L 214.9528 104.721709 
L 213.838465 104.721709 
L 212.72413 104.721709 
L 211.609795 104.721709 
L 210.49546 104.721709 
L 209.381125 104.721709 
L 208.26679 104.721709 
L 207.152455 104.721709 
L 206.03812 104.721709 
L 204.923784 104.721709 
L 203.809449 104.721709 
L 202.695114 104.721709 
L 201.580779 104.721709 
L 200.466444 104.721709 
L 199.352109 104.721709 
L 198.237774 104.721709 
L 197.123439 104.721709 
L 196.009104 104.721709 
L 194.894769 104.721709 
L 193.780434 104.721709 
L 192.666099 104.721709 
L 191.551764 104.721709 
L 190.437429 104.721709 
L 189.323094 104.721709 
L 188.208759 104.721709 
L 187.094424 104.721709 
L 185.980089 104.721709 
L 184.865754 104.721709 
L 183.751419 104.721709 
L 182.637084 104.721709 
L 181.522749 104.721709 
L 180.408414 104.721709 
L 179.294079 104.721709 
L 178.179744 104.721709 
L 177.065409 104.721709 
L 175.951074 104.721709 
L 174.836739 104.721709 
L 173.722404 104.721709 
L 172.608069 104.721709 
L 171.493734 104.721709 
L 170.379399 104.721709 
L 169.265064 104.721709 
L 168.150729 104.721709 
L 167.036394 104.721709 
L 165.922059 104.721709 
L 164.807724 104.721709 
L 163.693389 104.721709 
L 162.579054 104.721709 
L 161.464719 104.721709 
L 160.350384 104.721709 
L 159.236049 104.721709 
L 158.121714 104.721709 
L 157.007379 104.721709 
L 155.893044 104.721709 
L 154.778709 104.721709 
L 153.664374 104.721709 
L 152.550039 104.721709 
L 151.435704 104.721709 
L 150.321369 104.721709 
L 149.207034 104.721709 
L 148.092699 104.721709 
L 146.978364 104.721709 
L 145.864029 104.721709 
L 144.749694 104.721709 
L 143.635359 104.721709 
L 142.521024 104.721709 
L 141.406689 104.721709 
L 140.292354 104.721709 
L 139.178019 104.721709 
L 138.063684 104.721709 
L 136.949349 104.721709 
L 135.835014 104.721709 
L 134.720679 104.721709 
L 133.606344 104.721709 
L 132.492009 104.721709 
L 131.377674 104.721709 
L 130.263339 104.721709 
L 129.149004 104.721709 
L 128.034668 104.721709 
L 126.920333 104.721709 
L 125.805998 104.721709 
L 124.691663 104.721709 
L 123.577328 104.721709 
L 122.462993 104.721709 
L 121.348658 104.721709 
L 120.234323 104.721709 
L 119.119988 104.721709 
L 118.005653 104.721709 
L 116.891318 104.721709 
L 115.776983 104.721709 
L 114.662648 104.721709 
L 113.548313 104.721709 
L 112.433978 104.721709 
L 111.319643 104.721709 
L 110.205308 104.721709 
L 109.090973 104.721709 
L 107.976638 104.721709 
L 106.862303 104.721709 
L 105.747968 104.721709 
L 104.633633 104.721709 
L 103.519298 104.721709 
L 102.404963 104.721709 
L 101.290628 104.721709 
L 100.176293 104.721709 
L 99.061958 104.721709 
L 97.947623 104.721709 
L 96.833288 104.721709 
L 95.718953 104.721709 
L 94.604618 104.721709 
L 93.490283 104.721709 
L 92.375948 104.721709 
L 91.261613 104.721709 
L 90.147278 104.721709 
L 89.032943 104.721709 
L 87.918608 104.721709 
L 86.804273 104.721709 
L 85.689938 104.721709 
L 84.575603 104.721709 
L 83.461268 104.721709 
L 82.346933 104.721709 
L 81.232598 104.721709 
L 80.118263 104.721709 
L 79.003928 104.721709 
L 77.889593 104.721709 
L 76.775258 104.721709 
L 75.660923 104.721709 
L 74.546588 104.721709 
L 73.432253 104.721709 
L 72.317918 104.721709 
L 71.203583 104.721709 
L 70.089248 104.721709 
L 68.974913 104.721709 
L 67.860578 104.721709 
L 66.746243 104.721709 
L 65.631908 104.721709 
L 64.517573 104.721709 
L 63.403238 104.721709 
L 62.288903 104.721709 
L 61.174568 104.721709 
L 60.060233 104.721709 
L 58.945898 104.721709 
L 57.831563 104.721709 
L 56.717228 104.721709 
L 55.602893 104.721709 
L 54.488558 104.721709 
L 53.374223 104.721709 
L 52.259888 104.721709 
L 51.145553 104.721709 
L 50.031217 104.721709 
L 48.916882 104.721709 
L 47.802547 104.721709 
L 46.688212 104.721709 
L 45.573877 104.721709 
L 44.459542 104.721709 
L 43.345207 104.721709 
L 42.230872 104.721709 
L 41.116537 104.721709 
L 40.002202 104.721709 
L 38.887867 104.721709 
L 37.773532 104.721709 
L 36.659197 104.721709 
L 35.544862 104.721709 
L 34.430527 104.721709 
L 33.316192 104.721709 
L 32.201857 104.721709 
L 31.087522 104.721709 
L 29.973187 104.721709 
L 28.858852 104.721709 
L 27.744517 104.721709 
L 26.630182 104.721709 
L 25.515847 104.721709 
L 24.401512 104.721709 
L 23.287177 104.721709 
L 22.172842 104.721709 
L 21.058507 104.721709 
L 19.944172 104.721709 
L 18.829837 104.721709 
L 17.715502 104.721709 
L 16.601167 104.721709 
L 15.486832 104.721709 
L 14.372497 104.721709 
L 13.258162 104.721709 
L 12.143827 104.721709 
L 11.029492 104.721709 
L 9.915157 104.721709 
L 8.800822 104.721709 
L 7.686487 104.721709 
L 6.572152 104.721709 
L 5.457817 104.721709 
L 4.343482 104.721709 
L 3.229147 104.721709 
L 2.114812 104.721709 
L 1.000477 104.721709 
L -0.113858 104.721709 
L -1.228193 104.721709 
L -2.342528 104.721709 
L -3.456863 104.721709 
L -4.571198 104.721709 
L -5.685533 104.721709 
L -6.799868 104.721709 
L -7.914203 104.721709 
L -9.028538 104.721709 
L -10.142873 104.721709 
L -11.257208 104.721709 
L -12.371543 104.721709 
L -13.485878 104.721709 
L -14.600213 104.721709 
L -15.714548 104.721709 
L -16.828883 104.721709 
L -17.943218 104.721709 
L -19.057553 104.721709 
L -20.171888 104.721709 
L -21.286223 104.721709 
L -22.400558 104.721709 
L -23.514893 104.721709 
L -24.629228 104.721709 
L -25.743563 104.721709 
L -26.857899 104.721709 
L -27.972234 104.721709 
L -29.086569 104.721709 
L -30.200904 104.721709 
L -31.315239 104.721709 
L -32.429574 104.721709 
L -33.543909 104.721709 
L -34.658244 104.721709 
L -35.772579 104.721709 
L -36.886914 104.721709 
L -38.001249 104.721709 
L -39.115584 104.721709 
L -40.229919 104.721709 
L -41.344254 104.721709 
L -42.458589 104.721709 
L -43.572924 104.721709 
L -44.687259 104.721709 
L -45.801594 104.721709 
L -46.915929 104.721709 
L -48.030264 104.721709 
L -49.144599 104.721709 
L -50.258934 104.721709 
L -51.373269 104.721709 
L -52.487604 104.721709 
L -53.601939 104.721709 
L -54.716274 104.721709 
L -55.830609 104.721709 
L -56.944944 104.721709 
L -58.059279 104.721709 
L -59.173614 104.721709 
L -60.287949 104.721709 
L -61.402284 104.721709 
L -62.516619 104.721709 
L -63.630954 104.721709 
L -64.745289 104.721709 
L -65.859624 104.721709 
L -66.973959 104.721709 
L -68.088294 104.721709 
L -69.202629 104.721709 
L -70.316964 104.721709 
L -71.431299 104.721709 
z
" clip-path="url(#p79d83bee51)" style="fill: #b8b8b8; fill-opacity: 0.8; stroke: #b8b8b8; stroke-opacity: 0.8"/>
   </g>
   <g id="matplotlib.axis_1">
    <g id="xtick_1">
     <g id="line2d_1">
      <defs>
       <path id="m18612ff96e" d="M 0 0 
L 0 3.5 
" style="stroke: #000000; stroke-width: 0.8"/>
      </defs>
      <g>
       <use xlink:href="#m18612ff96e" x="151.435704" y="210.33416" style="stroke: #000000; stroke-width: 0.8"/>
      </g>
     </g>
    </g>
    <g id="xtick_2">
     <g id="line2d_2">
      <g>
       <use xlink:href="#m18612ff96e" x="262.869205" y="210.33416" style="stroke: #000000; stroke-width: 0.8"/>
      </g>
     </g>
    </g>
    <g id="xtick_3">
     <g id="line2d_3">
      <g>
       <use xlink:href="#m18612ff96e" x="374.302707" y="210.33416" style="stroke: #000000; stroke-width: 0.8"/>
      </g>
     </g>
    </g>
    <g id="xtick_4">
     <g id="line2d_4">
      <g>
       <use xlink:href="#m18612ff96e" x="485.736208" y="210.33416" style="stroke: #000000; stroke-width: 0.8"/>
      </g>
     </g>
    </g>
    <g id="xtick_5">
     <g id="line2d_5">
      <g>
       <use xlink:href="#m18612ff96e" x="597.16971" y="210.33416" style="stroke: #000000; stroke-width: 0.8"/>
      </g>
     </g>
    </g>
   </g>
   <g id="matplotlib.axis_2">
    <g id="ytick_1">
     <g id="line2d_6">
      <defs>
       <path id="mc7bde810e6" d="M 0 0 
L -3.5 0 
" style="stroke: #000000; stroke-width: 0.8"/>
      </defs>
      <g>
       <use xlink:href="#mc7bde810e6" x="51.145553" y="203.936744" style="stroke: #000000; stroke-width: 0.8"/>
      </g>
     </g>
     <g id="text_1">
      <!-- −150 -->
      <g transform="translate(16.678365 207.735963) scale(0.1 -0.1)">
       <defs>
        <path id="DejaVuSans-2212" d="M 678 2272 
L 4684 2272 
L 4684 1741 
L 678 1741 
L 678 2272 
z
" transform="scale(0.015625)"/>
        <path id="DejaVuSans-31" d="M 794 531 
L 1825 531 
L 1825 4091 
L 703 3866 
L 703 4441 
L 1819 4666 
L 2450 4666 
L 2450 531 
L 3481 531 
L 3481 0 
L 794 0 
L 794 531 
z
" transform="scale(0.015625)"/>
        <path id="DejaVuSans-35" d="M 691 4666 
L 3169 4666 
L 3169 4134 
L 1269 4134 
L 1269 2991 
Q 1406 3038 1543 3061 
Q 1681 3084 1819 3084 
Q 2600 3084 3056 2656 
Q 3513 2228 3513 1497 
Q 3513 744 3044 326 
Q 2575 -91 1722 -91 
Q 1428 -91 1123 -41 
Q 819 9 494 109 
L 494 744 
Q 775 591 1075 516 
Q 1375 441 1709 441 
Q 2250 441 2565 725 
Q 2881 1009 2881 1497 
Q 2881 1984 2565 2268 
Q 2250 2553 1709 2553 
Q 1456 2553 1204 2497 
Q 953 2441 691 2322 
L 691 4666 
z
" transform="scale(0.015625)"/>
        <path id="DejaVuSans-30" d="M 2034 4250 
Q 1547 4250 1301 3770 
Q 1056 3291 1056 2328 
Q 1056 1369 1301 889 
Q 1547 409 2034 409 
Q 2525 409 2770 889 
Q 3016 1369 3016 2328 
Q 3016 3291 2770 3770 
Q 2525 4250 2034 4250 
z
M 2034 4750 
Q 2819 4750 3233 4129 
Q 3647 3509 3647 2328 
Q 3647 1150 3233 529 
Q 2819 -91 2034 -91 
Q 1250 -91 836 529 
Q 422 1150 422 2328 
Q 422 3509 836 4129 
Q 1250 4750 2034 4750 
z
" transform="scale(0.015625)"/>
       </defs>
       <use xlink:href="#DejaVuSans-2212"/>
       <use xlink:href="#DejaVuSans-31" transform="translate(83.789062 0)"/>
       <use xlink:href="#DejaVuSans-35" transform="translate(147.412109 0)"/>
       <use xlink:href="#DejaVuSans-30" transform="translate(211.035156 0)"/>
      </g>
     </g>
    </g>
    <g id="ytick_2">
     <g id="line2d_7">
      <g>
       <use xlink:href="#mc7bde810e6" x="51.145553" y="170.865066" style="stroke: #000000; stroke-width: 0.8"/>
      </g>
     </g>
     <g id="text_2">
      <!-- −100 -->
      <g transform="translate(16.678365 174.664284) scale(0.1 -0.1)">
       <use xlink:href="#DejaVuSans-2212"/>
       <use xlink:href="#DejaVuSans-31" transform="translate(83.789062 0)"/>
       <use xlink:href="#DejaVuSans-30" transform="translate(147.412109 0)"/>
       <use xlink:href="#DejaVuSans-30" transform="translate(211.035156 0)"/>
      </g>
     </g>
    </g>
    <g id="ytick_3">
     <g id="line2d_8">
      <g>
       <use xlink:href="#mc7bde810e6" x="51.145553" y="137.793387" style="stroke: #000000; stroke-width: 0.8"/>
      </g>
     </g>
     <g id="text_3">
      <!-- −50 -->
      <g transform="translate(23.040865 141.592606) scale(0.1 -0.1)">
       <use xlink:href="#DejaVuSans-2212"/>
       <use xlink:href="#DejaVuSans-35" transform="translate(83.789062 0)"/>
       <use xlink:href="#DejaVuSans-30" transform="translate(147.412109 0)"/>
      </g>
     </g>
    </g>
    <g id="ytick_4">
     <g id="line2d_9">
      <g>
       <use xlink:href="#mc7bde810e6" x="51.145553" y="104.721709" style="stroke: #000000; stroke-width: 0.8"/>
      </g>
     </g>
     <g id="text_4">
      <!-- 0 -->
      <g transform="translate(37.783052 108.520928) scale(0.1 -0.1)">
       <use xlink:href="#DejaVuSans-30"/>
      </g>
     </g>
    </g>
    <g id="ytick_5">
     <g id="line2d_10">
      <g>
       <use xlink:href="#mc7bde810e6" x="51.145553" y="71.650031" style="stroke: #000000; stroke-width: 0.8"/>
      </g>
     </g>
     <g id="text_5">
      <!-- 50 -->
      <g transform="translate(31.420552 75.44925) scale(0.1 -0.1)">
       <use xlink:href="#DejaVuSans-35"/>
       <use xlink:href="#DejaVuSans-30" transform="translate(63.623047 0)"/>
      </g>
     </g>
    </g>
    <g id="ytick_6">
     <g id="line2d_11">
      <g>
       <use xlink:href="#mc7bde810e6" x="51.145553" y="38.578352" style="stroke: #000000; stroke-width: 0.8"/>
      </g>
     </g>
     <g id="text_6">
      <!-- 100 -->
      <g transform="translate(25.058052 42.377571) scale(0.1 -0.1)">
       <use xlink:href="#DejaVuSans-31"/>
       <use xlink:href="#DejaVuSans-30" transform="translate(63.623047 0)"/>
       <use xlink:href="#DejaVuSans-30" transform="translate(127.246094 0)"/>
      </g>
     </g>
    </g>
    <g id="text_7">
     <!-- $\Delta$DOS (states/eV/defect) -->
     <g transform="translate(10.598677 174.6972) rotate(-90) scale(0.1 -0.1)">
      <defs>
       <path id="DejaVuSans-394" d="M 2188 4044 
L 906 525 
L 3472 525 
L 2188 4044 
z
M 50 0 
L 1831 4666 
L 2547 4666 
L 4325 0 
L 50 0 
z
" transform="scale(0.015625)"/>
       <path id="DejaVuSans-44" d="M 1259 4147 
L 1259 519 
L 2022 519 
Q 2988 519 3436 956 
Q 3884 1394 3884 2338 
Q 3884 3275 3436 3711 
Q 2988 4147 2022 4147 
L 1259 4147 
z
M 628 4666 
L 1925 4666 
Q 3281 4666 3915 4102 
Q 4550 3538 4550 2338 
Q 4550 1131 3912 565 
Q 3275 0 1925 0 
L 628 0 
L 628 4666 
z
" transform="scale(0.015625)"/>
       <path id="DejaVuSans-4f" d="M 2522 4238 
Q 1834 4238 1429 3725 
Q 1025 3213 1025 2328 
Q 1025 1447 1429 934 
Q 1834 422 2522 422 
Q 3209 422 3611 934 
Q 4013 1447 4013 2328 
Q 4013 3213 3611 3725 
Q 3209 4238 2522 4238 
z
M 2522 4750 
Q 3503 4750 4090 4092 
Q 4678 3434 4678 2328 
Q 4678 1225 4090 567 
Q 3503 -91 2522 -91 
Q 1538 -91 948 565 
Q 359 1222 359 2328 
Q 359 3434 948 4092 
Q 1538 4750 2522 4750 
z
" transform="scale(0.015625)"/>
       <path id="DejaVuSans-53" d="M 3425 4513 
L 3425 3897 
Q 3066 4069 2747 4153 
Q 2428 4238 2131 4238 
Q 1616 4238 1336 4038 
Q 1056 3838 1056 3469 
Q 1056 3159 1242 3001 
Q 1428 2844 1947 2747 
L 2328 2669 
Q 3034 2534 3370 2195 
Q 3706 1856 3706 1288 
Q 3706 609 3251 259 
Q 2797 -91 1919 -91 
Q 1588 -91 1214 -16 
Q 841 59 441 206 
L 441 856 
Q 825 641 1194 531 
Q 1563 422 1919 422 
Q 2459 422 2753 634 
Q 3047 847 3047 1241 
Q 3047 1584 2836 1778 
Q 2625 1972 2144 2069 
L 1759 2144 
Q 1053 2284 737 2584 
Q 422 2884 422 3419 
Q 422 4038 858 4394 
Q 1294 4750 2059 4750 
Q 2388 4750 2728 4690 
Q 3069 4631 3425 4513 
z
" transform="scale(0.015625)"/>
       <path id="DejaVuSans-20" transform="scale(0.015625)"/>
       <path id="DejaVuSans-28" d="M 1984 4856 
Q 1566 4138 1362 3434 
Q 1159 2731 1159 2009 
Q 1159 1288 1364 580 
Q 1569 -128 1984 -844 
L 1484 -844 
Q 1016 -109 783 600 
Q 550 1309 550 2009 
Q 550 2706 781 3412 
Q 1013 4119 1484 4856 
L 1984 4856 
z
" transform="scale(0.015625)"/>
       <path id="DejaVuSans-73" d="M 2834 3397 
L 2834 2853 
Q 2591 2978 2328 3040 
Q 2066 3103 1784 3103 
Q 1356 3103 1142 2972 
Q 928 2841 928 2578 
Q 928 2378 1081 2264 
Q 1234 2150 1697 2047 
L 1894 2003 
Q 2506 1872 2764 1633 
Q 3022 1394 3022 966 
Q 3022 478 2636 193 
Q 2250 -91 1575 -91 
Q 1294 -91 989 -36 
Q 684 19 347 128 
L 347 722 
Q 666 556 975 473 
Q 1284 391 1588 391 
Q 1994 391 2212 530 
Q 2431 669 2431 922 
Q 2431 1156 2273 1281 
Q 2116 1406 1581 1522 
L 1381 1569 
Q 847 1681 609 1914 
Q 372 2147 372 2553 
Q 372 3047 722 3315 
Q 1072 3584 1716 3584 
Q 2034 3584 2315 3537 
Q 2597 3491 2834 3397 
z
" transform="scale(0.015625)"/>
       <path id="DejaVuSans-74" d="M 1172 4494 
L 1172 3500 
L 2356 3500 
L 2356 3053 
L 1172 3053 
L 1172 1153 
Q 1172 725 1289 603 
Q 1406 481 1766 481 
L 2356 481 
L 2356 0 
L 1766 0 
Q 1100 0 847 248 
Q 594 497 594 1153 
L 594 3053 
L 172 3053 
L 172 3500 
L 594 3500 
L 594 4494 
L 1172 4494 
z
" transform="scale(0.015625)"/>
       <path id="DejaVuSans-61" d="M 2194 1759 
Q 1497 1759 1228 1600 
Q 959 1441 959 1056 
Q 959 750 1161 570 
Q 1363 391 1709 391 
Q 2188 391 2477 730 
Q 2766 1069 2766 1631 
L 2766 1759 
L 2194 1759 
z
M 3341 1997 
L 3341 0 
L 2766 0 
L 2766 531 
Q 2569 213 2275 61 
Q 1981 -91 1556 -91 
Q 1019 -91 701 211 
Q 384 513 384 1019 
Q 384 1609 779 1909 
Q 1175 2209 1959 2209 
L 2766 2209 
L 2766 2266 
Q 2766 2663 2505 2880 
Q 2244 3097 1772 3097 
Q 1472 3097 1187 3025 
Q 903 2953 641 2809 
L 641 3341 
Q 956 3463 1253 3523 
Q 1550 3584 1831 3584 
Q 2591 3584 2966 3190 
Q 3341 2797 3341 1997 
z
" transform="scale(0.015625)"/>
       <path id="DejaVuSans-65" d="M 3597 1894 
L 3597 1613 
L 953 1613 
Q 991 1019 1311 708 
Q 1631 397 2203 397 
Q 2534 397 2845 478 
Q 3156 559 3463 722 
L 3463 178 
Q 3153 47 2828 -22 
Q 2503 -91 2169 -91 
Q 1331 -91 842 396 
Q 353 884 353 1716 
Q 353 2575 817 3079 
Q 1281 3584 2069 3584 
Q 2775 3584 3186 3129 
Q 3597 2675 3597 1894 
z
M 3022 2063 
Q 3016 2534 2758 2815 
Q 2500 3097 2075 3097 
Q 1594 3097 1305 2825 
Q 1016 2553 972 2059 
L 3022 2063 
z
" transform="scale(0.015625)"/>
       <path id="DejaVuSans-2f" d="M 1625 4666 
L 2156 4666 
L 531 -594 
L 0 -594 
L 1625 4666 
z
" transform="scale(0.015625)"/>
       <path id="DejaVuSans-56" d="M 1831 0 
L 50 4666 
L 709 4666 
L 2188 738 
L 3669 4666 
L 4325 4666 
L 2547 0 
L 1831 0 
z
" transform="scale(0.015625)"/>
       <path id="DejaVuSans-64" d="M 2906 2969 
L 2906 4863 
L 3481 4863 
L 3481 0 
L 2906 0 
L 2906 525 
Q 2725 213 2448 61 
Q 2172 -91 1784 -91 
Q 1150 -91 751 415 
Q 353 922 353 1747 
Q 353 2572 751 3078 
Q 1150 3584 1784 3584 
Q 2172 3584 2448 3432 
Q 2725 3281 2906 2969 
z
M 947 1747 
Q 947 1113 1208 752 
Q 1469 391 1925 391 
Q 2381 391 2643 752 
Q 2906 1113 2906 1747 
Q 2906 2381 2643 2742 
Q 2381 3103 1925 3103 
Q 1469 3103 1208 2742 
Q 947 2381 947 1747 
z
" transform="scale(0.015625)"/>
       <path id="DejaVuSans-66" d="M 2375 4863 
L 2375 4384 
L 1825 4384 
Q 1516 4384 1395 4259 
Q 1275 4134 1275 3809 
L 1275 3500 
L 2222 3500 
L 2222 3053 
L 1275 3053 
L 1275 0 
L 697 0 
L 697 3053 
L 147 3053 
L 147 3500 
L 697 3500 
L 697 3744 
Q 697 4328 969 4595 
Q 1241 4863 1831 4863 
L 2375 4863 
z
" transform="scale(0.015625)"/>
       <path id="DejaVuSans-63" d="M 3122 3366 
L 3122 2828 
Q 2878 2963 2633 3030 
Q 2388 3097 2138 3097 
Q 1578 3097 1268 2742 
Q 959 2388 959 1747 
Q 959 1106 1268 751 
Q 1578 397 2138 397 
Q 2388 397 2633 464 
Q 2878 531 3122 666 
L 3122 134 
Q 2881 22 2623 -34 
Q 2366 -91 2075 -91 
Q 1284 -91 818 406 
Q 353 903 353 1747 
Q 353 2603 823 3093 
Q 1294 3584 2113 3584 
Q 2378 3584 2631 3529 
Q 2884 3475 3122 3366 
z
" transform="scale(0.015625)"/>
       <path id="DejaVuSans-29" d="M 513 4856 
L 1013 4856 
Q 1481 4119 1714 3412 
Q 1947 2706 1947 2009 
Q 1947 1309 1714 600 
Q 1481 -109 1013 -844 
L 513 -844 
Q 928 -128 1133 580 
Q 1338 1288 1338 2009 
Q 1338 2731 1133 3434 
Q 928 4138 513 4856 
z
" transform="scale(0.015625)"/>
      </defs>
      <use xlink:href="#DejaVuSans-394" transform="translate(0 0.015625)"/>
      <use xlink:href="#DejaVuSans-44" transform="translate(68.408203 0.015625)"/>
      <use xlink:href="#DejaVuSans-4f" transform="translate(145.410156 0.015625)"/>
      <use xlink:href="#DejaVuSans-53" transform="translate(224.121094 0.015625)"/>
      <use xlink:href="#DejaVuSans-20" transform="translate(287.597656 0.015625)"/>
      <use xlink:href="#DejaVuSans-28" transform="translate(319.384766 0.015625)"/>
      <use xlink:href="#DejaVuSans-73" transform="translate(358.398438 0.015625)"/>
      <use xlink:href="#DejaVuSans-74" transform="translate(410.498047 0.015625)"/>
      <use xlink:href="#DejaVuSans-61" transform="translate(449.707031 0.015625)"/>
      <use xlink:href="#DejaVuSans-74" transform="translate(510.986328 0.015625)"/>
      <use xlink:href="#DejaVuSans-65" transform="translate(550.195312 0.015625)"/>
      <use xlink:href="#DejaVuSans-73" transform="translate(611.71875 0.015625)"/>
      <use xlink:href="#DejaVuSans-2f" transform="translate(663.818359 0.015625)"/>
      <use xlink:href="#DejaVuSans-65" transform="translate(697.509766 0.015625)"/>
      <use xlink:href="#DejaVuSans-56" transform="translate(759.033203 0.015625)"/>
      <use xlink:href="#DejaVuSans-2f" transform="translate(827.441406 0.015625)"/>
      <use xlink:href="#DejaVuSans-64" transform="translate(861.132812 0.015625)"/>
      <use xlink:href="#DejaVuSans-65" transform="translate(924.609375 0.015625)"/>
      <use xlink:href="#DejaVuSans-66" transform="translate(986.132812 0.015625)"/>
      <use xlink:href="#DejaVuSans-65" transform="translate(1021.337891 0.015625)"/>
      <use xlink:href="#DejaVuSans-63" transform="translate(1082.861328 0.015625)"/>
      <use xlink:href="#DejaVuSans-74" transform="translate(1137.841797 0.015625)"/>
      <use xlink:href="#DejaVuSans-29" transform="translate(1177.050781 0.015625)"/>
     </g>
    </g>
   </g>
   <g id="line2d_12">
    <path d="M 151.435704 210.33416 
L 151.435704 17.36024 
" clip-path="url(#p79d83bee51)" style="fill: none; stroke-dasharray: 0.7,1.155; stroke-dashoffset: 0; stroke: #000000; stroke-width: 0.7"/>
   </g>
   <g id="line2d_13">
    <path d="M 520.748614 210.33416 
L 520.748614 17.36024 
" clip-path="url(#p79d83bee51)" style="fill: none; stroke-dasharray: 0.7,1.155; stroke-dashoffset: 0; stroke: #000000; stroke-width: 0.7"/>
   </g>
   <g id="patch_3">
    <path d="M 51.145553 210.33416 
L 51.145553 17.36024 
" style="fill: none; stroke: #000000; stroke-width: 0.8; stroke-linejoin: miter; stroke-linecap: square"/>
   </g>
   <g id="patch_4">
    <path d="M 630.59976 210.33416 
L 630.59976 17.36024 
" style="fill: none; stroke: #000000; stroke-width: 0.8; stroke-linejoin: miter; stroke-linecap: square"/>
   </g>
   <g id="patch_5">
    <path d="M 51.145553 210.33416 
L 630.59976 210.33416 
" style="fill: none; stroke: #000000; stroke-width: 0.8; stroke-linejoin: miter; stroke-linecap: square"/>
   </g>
   <g id="patch_6">
    <path d="M 51.145553 17.36024 
L 630.59976 17.36024 
" style="fill: none; stroke: #000000; stroke-width: 0.8; stroke-linejoin: miter; stroke-linecap: square"/>
   </g>
   <g id="text_8">
    <!-- VBM -->
    <g transform="translate(142.503829 30.46446) scale(0.08 -0.08)">
     <defs>
      <path id="DejaVuSans-42" d="M 1259 2228 
L 1259 519 
L 2272 519 
Q 2781 519 3026 730 
Q 3272 941 3272 1375 
Q 3272 1813 3026 2020 
Q 2781 2228 2272 2228 
L 1259 2228 
z
M 1259 4147 
L 1259 2741 
L 2194 2741 
Q 2656 2741 2882 2914 
Q 3109 3088 3109 3444 
Q 3109 3797 2882 3972 
Q 2656 4147 2194 4147 
L 1259 4147 
z
M 628 4666 
L 2241 4666 
Q 2963 4666 3353 4366 
Q 3744 4066 3744 3513 
Q 3744 3084 3544 2831 
Q 3344 2578 2956 2516 
Q 3422 2416 3680 2098 
Q 3938 1781 3938 1306 
Q 3938 681 3513 340 
Q 3088 0 2303 0 
L 628 0 
L 628 4666 
z
" transform="scale(0.015625)"/>
      <path id="DejaVuSans-4d" d="M 628 4666 
L 1569 4666 
L 2759 1491 
L 3956 4666 
L 4897 4666 
L 4897 0 
L 4281 0 
L 4281 4097 
L 3078 897 
L 2444 897 
L 1241 4097 
L 1241 0 
L 628 0 
L 628 4666 
z
" transform="scale(0.015625)"/>
     </defs>
     <use xlink:href="#DejaVuSans-56"/>
     <use xlink:href="#DejaVuSans-42" transform="translate(68.408203 0)"/>
     <use xlink:href="#DejaVuSans-4d" transform="translate(137.011719 0)"/>
    </g>
   </g>
   <g id="text_9">
    <!-- CBM -->
    <g transform="translate(511.759864 30.46446) scale(0.08 -0.08)">
     <defs>
      <path id="DejaVuSans-43" d="M 4122 4306 
L 4122 3641 
Q 3803 3938 3442 4084 
Q 3081 4231 2675 4231 
Q 1875 4231 1450 3742 
Q 1025 3253 1025 2328 
Q 1025 1406 1450 917 
Q 1875 428 2675 428 
Q 3081 428 3442 575 
Q 3803 722 4122 1019 
L 4122 359 
Q 3791 134 3420 21 
Q 3050 -91 2638 -91 
Q 1578 -91 968 557 
Q 359 1206 359 2328 
Q 359 3453 968 4101 
Q 1578 4750 2638 4750 
Q 3056 4750 3426 4639 
Q 3797 4528 4122 4306 
z
" transform="scale(0.015625)"/>
     </defs>
     <use xlink:href="#DejaVuSans-43"/>
     <use xlink:href="#DejaVuSans-42" transform="translate(69.824219 0)"/>
     <use xlink:href="#DejaVuSans-4d" transform="translate(138.427734 0)"/>
    </g>
   </g>
   <g id="text_10">
    <!-- Se$_S$: $\Delta$DOS — supercell DFT truth vs downfolded dual-pin -->
    <g transform="translate(184.397656 11.36024) scale(0.11 -0.11)">
     <defs>
      <path id="DejaVuSans-Oblique-53" d="M 3859 4513 
L 3738 3897 
Q 3422 4066 3111 4152 
Q 2800 4238 2509 4238 
Q 1944 4238 1609 3991 
Q 1275 3744 1275 3334 
Q 1275 3109 1398 2989 
Q 1522 2869 2034 2731 
L 2413 2638 
Q 3053 2472 3303 2217 
Q 3553 1963 3553 1503 
Q 3553 797 2998 353 
Q 2444 -91 1538 -91 
Q 1166 -91 791 -17 
Q 416 56 38 206 
L 166 856 
Q 513 641 861 531 
Q 1209 422 1556 422 
Q 2147 422 2503 684 
Q 2859 947 2859 1369 
Q 2859 1650 2717 1795 
Q 2575 1941 2106 2059 
L 1728 2156 
Q 1081 2325 845 2545 
Q 609 2766 609 3163 
Q 609 3859 1145 4304 
Q 1681 4750 2541 4750 
Q 2875 4750 3203 4690 
Q 3531 4631 3859 4513 
z
" transform="scale(0.015625)"/>
      <path id="DejaVuSans-3a" d="M 750 794 
L 1409 794 
L 1409 0 
L 750 0 
L 750 794 
z
M 750 3309 
L 1409 3309 
L 1409 2516 
L 750 2516 
L 750 3309 
z
" transform="scale(0.015625)"/>
      <path id="DejaVuSansDisplay-2014" d="M 313 1978 
L 6088 1978 
L 6088 1528 
L 313 1528 
L 313 1978 
z
" transform="scale(0.015625)"/>
      <path id="DejaVuSans-75" d="M 544 1381 
L 544 3500 
L 1119 3500 
L 1119 1403 
Q 1119 906 1312 657 
Q 1506 409 1894 409 
Q 2359 409 2629 706 
Q 2900 1003 2900 1516 
L 2900 3500 
L 3475 3500 
L 3475 0 
L 2900 0 
L 2900 538 
Q 2691 219 2414 64 
Q 2138 -91 1772 -91 
Q 1169 -91 856 284 
Q 544 659 544 1381 
z
M 1991 3584 
L 1991 3584 
z
" transform="scale(0.015625)"/>
      <path id="DejaVuSans-70" d="M 1159 525 
L 1159 -1331 
L 581 -1331 
L 581 3500 
L 1159 3500 
L 1159 2969 
Q 1341 3281 1617 3432 
Q 1894 3584 2278 3584 
Q 2916 3584 3314 3078 
Q 3713 2572 3713 1747 
Q 3713 922 3314 415 
Q 2916 -91 2278 -91 
Q 1894 -91 1617 61 
Q 1341 213 1159 525 
z
M 3116 1747 
Q 3116 2381 2855 2742 
Q 2594 3103 2138 3103 
Q 1681 3103 1420 2742 
Q 1159 2381 1159 1747 
Q 1159 1113 1420 752 
Q 1681 391 2138 391 
Q 2594 391 2855 752 
Q 3116 1113 3116 1747 
z
" transform="scale(0.015625)"/>
      <path id="DejaVuSans-72" d="M 2631 2963 
Q 2534 3019 2420 3045 
Q 2306 3072 2169 3072 
Q 1681 3072 1420 2755 
Q 1159 2438 1159 1844 
L 1159 0 
L 581 0 
L 581 3500 
L 1159 3500 
L 1159 2956 
Q 1341 3275 1631 3429 
Q 1922 3584 2338 3584 
Q 2397 3584 2469 3576 
Q 2541 3569 2628 3553 
L 2631 2963 
z
" transform="scale(0.015625)"/>
      <path id="DejaVuSans-6c" d="M 603 4863 
L 1178 4863 
L 1178 0 
L 603 0 
L 603 4863 
z
" transform="scale(0.015625)"/>
      <path id="DejaVuSans-46" d="M 628 4666 
L 3309 4666 
L 3309 4134 
L 1259 4134 
L 1259 2759 
L 3109 2759 
L 3109 2228 
L 1259 2228 
L 1259 0 
L 628 0 
L 628 4666 
z
" transform="scale(0.015625)"/>
      <path id="DejaVuSans-54" d="M -19 4666 
L 3928 4666 
L 3928 4134 
L 2272 4134 
L 2272 0 
L 1638 0 
L 1638 4134 
L -19 4134 
L -19 4666 
z
" transform="scale(0.015625)"/>
      <path id="DejaVuSans-68" d="M 3513 2113 
L 3513 0 
L 2938 0 
L 2938 2094 
Q 2938 2591 2744 2837 
Q 2550 3084 2163 3084 
Q 1697 3084 1428 2787 
Q 1159 2491 1159 1978 
L 1159 0 
L 581 0 
L 581 4863 
L 1159 4863 
L 1159 2956 
Q 1366 3272 1645 3428 
Q 1925 3584 2291 3584 
Q 2894 3584 3203 3211 
Q 3513 2838 3513 2113 
z
" transform="scale(0.015625)"/>
      <path id="DejaVuSans-76" d="M 191 3500 
L 800 3500 
L 1894 563 
L 2988 3500 
L 3597 3500 
L 2284 0 
L 1503 0 
L 191 3500 
z
" transform="scale(0.015625)"/>
      <path id="DejaVuSans-6f" d="M 1959 3097 
Q 1497 3097 1228 2736 
Q 959 2375 959 1747 
Q 959 1119 1226 758 
Q 1494 397 1959 397 
Q 2419 397 2687 759 
Q 2956 1122 2956 1747 
Q 2956 2369 2687 2733 
Q 2419 3097 1959 3097 
z
M 1959 3584 
Q 2709 3584 3137 3096 
Q 3566 2609 3566 1747 
Q 3566 888 3137 398 
Q 2709 -91 1959 -91 
Q 1206 -91 779 398 
Q 353 888 353 1747 
Q 353 2609 779 3096 
Q 1206 3584 1959 3584 
z
" transform="scale(0.015625)"/>
      <path id="DejaVuSans-77" d="M 269 3500 
L 844 3500 
L 1563 769 
L 2278 3500 
L 2956 3500 
L 3675 769 
L 4391 3500 
L 4966 3500 
L 4050 0 
L 3372 0 
L 2619 2869 
L 1863 0 
L 1184 0 
L 269 3500 
z
" transform="scale(0.015625)"/>
      <path id="DejaVuSans-6e" d="M 3513 2113 
L 3513 0 
L 2938 0 
L 2938 2094 
Q 2938 2591 2744 2837 
Q 2550 3084 2163 3084 
Q 1697 3084 1428 2787 
Q 1159 2491 1159 1978 
L 1159 0 
L 581 0 
L 581 3500 
L 1159 3500 
L 1159 2956 
Q 1366 3272 1645 3428 
Q 1925 3584 2291 3584 
Q 2894 3584 3203 3211 
Q 3513 2838 3513 2113 
z
" transform="scale(0.015625)"/>
      <path id="DejaVuSans-2d" d="M 313 2009 
L 1997 2009 
L 1997 1497 
L 313 1497 
L 313 2009 
z
" transform="scale(0.015625)"/>
      <path id="DejaVuSans-69" d="M 603 3500 
L 1178 3500 
L 1178 0 
L 603 0 
L 603 3500 
z
M 603 4863 
L 1178 4863 
L 1178 4134 
L 603 4134 
L 603 4863 
z
" transform="scale(0.015625)"/>
     </defs>
     <use xlink:href="#DejaVuSans-53" transform="translate(0 0.015625)"/>
     <use xlink:href="#DejaVuSans-65" transform="translate(63.476562 0.015625)"/>
     <use xlink:href="#DejaVuSans-Oblique-53" transform="translate(125.957031 -16.390625) scale(0.7)"/>
     <use xlink:href="#DejaVuSans-3a" transform="translate(173.125 0.015625)"/>
     <use xlink:href="#DejaVuSans-20" transform="translate(206.816406 0.015625)"/>
     <use xlink:href="#DejaVuSans-394" transform="translate(238.603516 0.015625)"/>
     <use xlink:href="#DejaVuSans-44" transform="translate(307.011719 0.015625)"/>
     <use xlink:href="#DejaVuSans-4f" transform="translate(384.013672 0.015625)"/>
     <use xlink:href="#DejaVuSans-53" transform="translate(462.724609 0.015625)"/>
     <use xlink:href="#DejaVuSans-20" transform="translate(526.201172 0.015625)"/>
     <use xlink:href="#DejaVuSansDisplay-2014" transform="translate(557.988281 0.015625)"/>
     <use xlink:href="#DejaVuSans-20" transform="translate(657.988281 0.015625)"/>
     <use xlink:href="#DejaVuSans-73" transform="translate(689.775391 0.015625)"/>
     <use xlink:href="#DejaVuSans-75" transform="translate(741.875 0.015625)"/>
     <use xlink:href="#DejaVuSans-70" transform="translate(805.253906 0.015625)"/>
     <use xlink:href="#DejaVuSans-65" transform="translate(868.730469 0.015625)"/>
     <use xlink:href="#DejaVuSans-72" transform="translate(930.253906 0.015625)"/>
     <use xlink:href="#DejaVuSans-63" transform="translate(971.367188 0.015625)"/>
     <use xlink:href="#DejaVuSans-65" transform="translate(1026.347656 0.015625)"/>
     <use xlink:href="#DejaVuSans-6c" transform="translate(1087.871094 0.015625)"/>
     <use xlink:href="#DejaVuSans-6c" transform="translate(1115.654297 0.015625)"/>
     <use xlink:href="#DejaVuSans-20" transform="translate(1143.4375 0.015625)"/>
     <use xlink:href="#DejaVuSans-44" transform="translate(1175.224609 0.015625)"/>
     <use xlink:href="#DejaVuSans-46" transform="translate(1252.226562 0.015625)"/>
     <use xlink:href="#DejaVuSans-54" transform="translate(1309.746094 0.015625)"/>
     <use xlink:href="#DejaVuSans-20" transform="translate(1370.830078 0.015625)"/>
     <use xlink:href="#DejaVuSans-74" transform="translate(1402.617188 0.015625)"/>
     <use xlink:href="#DejaVuSans-72" transform="translate(1441.826172 0.015625)"/>
     <use xlink:href="#DejaVuSans-75" transform="translate(1482.939453 0.015625)"/>
     <use xlink:href="#DejaVuSans-74" transform="translate(1546.318359 0.015625)"/>
     <use xlink:href="#DejaVuSans-68" transform="translate(1585.527344 0.015625)"/>
     <use xlink:href="#DejaVuSans-20" transform="translate(1648.90625 0.015625)"/>
     <use xlink:href="#DejaVuSans-76" transform="translate(1680.693359 0.015625)"/>
     <use xlink:href="#DejaVuSans-73" transform="translate(1739.873047 0.015625)"/>
     <use xlink:href="#DejaVuSans-20" transform="translate(1791.972656 0.015625)"/>
     <use xlink:href="#DejaVuSans-64" transform="translate(1823.759766 0.015625)"/>
     <use xlink:href="#DejaVuSans-6f" transform="translate(1887.236328 0.015625)"/>
     <use xlink:href="#DejaVuSans-77" transform="translate(1948.417969 0.015625)"/>
     <use xlink:href="#DejaVuSans-6e" transform="translate(2030.205078 0.015625)"/>
     <use xlink:href="#DejaVuSans-66" transform="translate(2093.583984 0.015625)"/>
     <use xlink:href="#DejaVuSans-6f" transform="translate(2128.789062 0.015625)"/>
     <use xlink:href="#DejaVuSans-6c" transform="translate(2189.970703 0.015625)"/>
     <use xlink:href="#DejaVuSans-64" transform="translate(2217.753906 0.015625)"/>
     <use xlink:href="#DejaVuSans-65" transform="translate(2281.230469 0.015625)"/>
     <use xlink:href="#DejaVuSans-64" transform="translate(2342.753906 0.015625)"/>
     <use xlink:href="#DejaVuSans-20" transform="translate(2406.230469 0.015625)"/>
     <use xlink:href="#DejaVuSans-64" transform="translate(2438.017578 0.015625)"/>
     <use xlink:href="#DejaVuSans-75" transform="translate(2501.494141 0.015625)"/>
     <use xlink:href="#DejaVuSans-61" transform="translate(2564.873047 0.015625)"/>
     <use xlink:href="#DejaVuSans-6c" transform="translate(2626.152344 0.015625)"/>
     <use xlink:href="#DejaVuSans-2d" transform="translate(2653.935547 0.015625)"/>
     <use xlink:href="#DejaVuSans-70" transform="translate(2690.019531 0.015625)"/>
     <use xlink:href="#DejaVuSans-69" transform="translate(2753.496094 0.015625)"/>
     <use xlink:href="#DejaVuSans-6e" transform="translate(2781.279297 0.015625)"/>
    </g>
   </g>
   <g id="legend_1">
    <g id="patch_7">
     <path d="M 208.832656 206.33416 
L 472.912656 206.33416 
Q 474.512656 206.33416 474.512656 204.73416 
L 474.512656 193.77416 
Q 474.512656 192.17416 472.912656 192.17416 
L 208.832656 192.17416 
Q 207.232656 192.17416 207.232656 193.77416 
L 207.232656 204.73416 
Q 207.232656 206.33416 208.832656 206.33416 
z
" style="fill: #ffffff; opacity: 0.8; stroke: #cccccc; stroke-linejoin: miter"/>
    </g>
    <g id="patch_8">
     <path d="M 210.432656 201.45416 
L 226.432656 201.45416 
L 226.432656 195.85416 
L 210.432656 195.85416 
z
" style="fill: #b8b8b8; fill-opacity: 0.8; stroke: #b8b8b8; stroke-opacity: 0.8; stroke-linejoin: miter"/>
    </g>
    <g id="text_11">
     <!-- supercell truth (6x6 $\Gamma$, deep-aligned -10.6 meV, $\sigma$=10 meV) -->
     <g transform="translate(232.832656 201.45416) scale(0.08 -0.08)">
      <defs>
       <path id="DejaVuSans-36" d="M 2113 2584 
Q 1688 2584 1439 2293 
Q 1191 2003 1191 1497 
Q 1191 994 1439 701 
Q 1688 409 2113 409 
Q 2538 409 2786 701 
Q 3034 994 3034 1497 
Q 3034 2003 2786 2293 
Q 2538 2584 2113 2584 
z
M 3366 4563 
L 3366 3988 
Q 3128 4100 2886 4159 
Q 2644 4219 2406 4219 
Q 1781 4219 1451 3797 
Q 1122 3375 1075 2522 
Q 1259 2794 1537 2939 
Q 1816 3084 2150 3084 
Q 2853 3084 3261 2657 
Q 3669 2231 3669 1497 
Q 3669 778 3244 343 
Q 2819 -91 2113 -91 
Q 1303 -91 875 529 
Q 447 1150 447 2328 
Q 447 3434 972 4092 
Q 1497 4750 2381 4750 
Q 2619 4750 2861 4703 
Q 3103 4656 3366 4563 
z
" transform="scale(0.015625)"/>
       <path id="DejaVuSans-78" d="M 3513 3500 
L 2247 1797 
L 3578 0 
L 2900 0 
L 1881 1375 
L 863 0 
L 184 0 
L 1544 1831 
L 300 3500 
L 978 3500 
L 1906 2253 
L 2834 3500 
L 3513 3500 
z
" transform="scale(0.015625)"/>
       <path id="DejaVuSans-393" d="M 628 0 
L 628 4666 
L 3531 4666 
L 3531 4134 
L 1259 4134 
L 1259 0 
L 628 0 
z
" transform="scale(0.015625)"/>
       <path id="DejaVuSans-2c" d="M 750 794 
L 1409 794 
L 1409 256 
L 897 -744 
L 494 -744 
L 750 256 
L 750 794 
z
" transform="scale(0.015625)"/>
       <path id="DejaVuSans-67" d="M 2906 1791 
Q 2906 2416 2648 2759 
Q 2391 3103 1925 3103 
Q 1463 3103 1205 2759 
Q 947 2416 947 1791 
Q 947 1169 1205 825 
Q 1463 481 1925 481 
Q 2391 481 2648 825 
Q 2906 1169 2906 1791 
z
M 3481 434 
Q 3481 -459 3084 -895 
Q 2688 -1331 1869 -1331 
Q 1566 -1331 1297 -1286 
Q 1028 -1241 775 -1147 
L 775 -588 
Q 1028 -725 1275 -790 
Q 1522 -856 1778 -856 
Q 2344 -856 2625 -561 
Q 2906 -266 2906 331 
L 2906 616 
Q 2728 306 2450 153 
Q 2172 0 1784 0 
Q 1141 0 747 490 
Q 353 981 353 1791 
Q 353 2603 747 3093 
Q 1141 3584 1784 3584 
Q 2172 3584 2450 3431 
Q 2728 3278 2906 2969 
L 2906 3500 
L 3481 3500 
L 3481 434 
z
" transform="scale(0.015625)"/>
       <path id="DejaVuSans-2e" d="M 684 794 
L 1344 794 
L 1344 0 
L 684 0 
L 684 794 
z
" transform="scale(0.015625)"/>
       <path id="DejaVuSans-6d" d="M 3328 2828 
Q 3544 3216 3844 3400 
Q 4144 3584 4550 3584 
Q 5097 3584 5394 3201 
Q 5691 2819 5691 2113 
L 5691 0 
L 5113 0 
L 5113 2094 
Q 5113 2597 4934 2840 
Q 4756 3084 4391 3084 
Q 3944 3084 3684 2787 
Q 3425 2491 3425 1978 
L 3425 0 
L 2847 0 
L 2847 2094 
Q 2847 2600 2669 2842 
Q 2491 3084 2119 3084 
Q 1678 3084 1418 2786 
Q 1159 2488 1159 1978 
L 1159 0 
L 581 0 
L 581 3500 
L 1159 3500 
L 1159 2956 
Q 1356 3278 1631 3431 
Q 1906 3584 2284 3584 
Q 2666 3584 2933 3390 
Q 3200 3197 3328 2828 
z
" transform="scale(0.015625)"/>
       <path id="DejaVuSans-Oblique-3c3" d="M 2219 3044 
Q 1744 3044 1422 2700 
Q 1081 2341 969 1747 
Q 844 1119 1044 756 
Q 1241 397 1706 397 
Q 2166 397 2503 759 
Q 2844 1122 2966 1747 
Q 3075 2319 2881 2700 
Q 2700 3044 2219 3044 
z
M 2309 3503 
L 4219 3500 
L 4106 2925 
L 3463 2925 
Q 3706 2438 3575 1747 
Q 3406 888 2884 400 
Q 2359 -91 1609 -91 
Q 856 -91 525 400 
Q 194 888 363 1747 
Q 528 2609 1050 3097 
Q 1484 3503 2309 3503 
z
" transform="scale(0.015625)"/>
       <path id="DejaVuSans-3d" d="M 678 2906 
L 4684 2906 
L 4684 2381 
L 678 2381 
L 678 2906 
z
M 678 1631 
L 4684 1631 
L 4684 1100 
L 678 1100 
L 678 1631 
z
" transform="scale(0.015625)"/>
      </defs>
      <use xlink:href="#DejaVuSans-73" transform="translate(0 0.015625)"/>
      <use xlink:href="#DejaVuSans-75" transform="translate(52.099609 0.015625)"/>
      <use xlink:href="#DejaVuSans-70" transform="translate(115.478516 0.015625)"/>
      <use xlink:href="#DejaVuSans-65" transform="translate(178.955078 0.015625)"/>
      <use xlink:href="#DejaVuSans-72" transform="translate(240.478516 0.015625)"/>
      <use xlink:href="#DejaVuSans-63" transform="translate(281.591797 0.015625)"/>
      <use xlink:href="#DejaVuSans-65" transform="translate(336.572266 0.015625)"/>
      <use xlink:href="#DejaVuSans-6c" transform="translate(398.095703 0.015625)"/>
      <use xlink:href="#DejaVuSans-6c" transform="translate(425.878906 0.015625)"/>
      <use xlink:href="#DejaVuSans-20" transform="translate(453.662109 0.015625)"/>
      <use xlink:href="#DejaVuSans-74" transform="translate(485.449219 0.015625)"/>
      <use xlink:href="#DejaVuSans-72" transform="translate(524.658203 0.015625)"/>
      <use xlink:href="#DejaVuSans-75" transform="translate(565.771484 0.015625)"/>
      <use xlink:href="#DejaVuSans-74" transform="translate(629.150391 0.015625)"/>
      <use xlink:href="#DejaVuSans-68" transform="translate(668.359375 0.015625)"/>
      <use xlink:href="#DejaVuSans-20" transform="translate(731.738281 0.015625)"/>
      <use xlink:href="#DejaVuSans-28" transform="translate(763.525391 0.015625)"/>
      <use xlink:href="#DejaVuSans-36" transform="translate(802.539062 0.015625)"/>
      <use xlink:href="#DejaVuSans-78" transform="translate(866.162109 0.015625)"/>
      <use xlink:href="#DejaVuSans-36" transform="translate(925.341797 0.015625)"/>
      <use xlink:href="#DejaVuSans-20" transform="translate(988.964844 0.015625)"/>
      <use xlink:href="#DejaVuSans-393" transform="translate(1020.751953 0.015625)"/>
      <use xlink:href="#DejaVuSans-2c" transform="translate(1076.464844 0.015625)"/>
      <use xlink:href="#DejaVuSans-20" transform="translate(1108.251953 0.015625)"/>
      <use xlink:href="#DejaVuSans-64" transform="translate(1140.039062 0.015625)"/>
      <use xlink:href="#DejaVuSans-65" transform="translate(1203.515625 0.015625)"/>
      <use xlink:href="#DejaVuSans-65" transform="translate(1265.039062 0.015625)"/>
      <use xlink:href="#DejaVuSans-70" transform="translate(1326.5625 0.015625)"/>
      <use xlink:href="#DejaVuSans-2d" transform="translate(1390.039062 0.015625)"/>
      <use xlink:href="#DejaVuSans-61" transform="translate(1426.123047 0.015625)"/>
      <use xlink:href="#DejaVuSans-6c" transform="translate(1487.402344 0.015625)"/>
      <use xlink:href="#DejaVuSans-69" transform="translate(1515.185547 0.015625)"/>
      <use xlink:href="#DejaVuSans-67" transform="translate(1542.96875 0.015625)"/>
      <use xlink:href="#DejaVuSans-6e" transform="translate(1606.445312 0.015625)"/>
      <use xlink:href="#DejaVuSans-65" transform="translate(1669.824219 0.015625)"/>
      <use xlink:href="#DejaVuSans-64" transform="translate(1731.347656 0.015625)"/>
      <use xlink:href="#DejaVuSans-20" transform="translate(1794.824219 0.015625)"/>
      <use xlink:href="#DejaVuSans-2d" transform="translate(1826.611328 0.015625)"/>
      <use xlink:href="#DejaVuSans-31" transform="translate(1862.695312 0.015625)"/>
      <use xlink:href="#DejaVuSans-30" transform="translate(1926.318359 0.015625)"/>
      <use xlink:href="#DejaVuSans-2e" transform="translate(1989.941406 0.015625)"/>
      <use xlink:href="#DejaVuSans-36" transform="translate(2021.728516 0.015625)"/>
      <use xlink:href="#DejaVuSans-20" transform="translate(2085.351562 0.015625)"/>
      <use xlink:href="#DejaVuSans-6d" transform="translate(2117.138672 0.015625)"/>
      <use xlink:href="#DejaVuSans-65" transform="translate(2214.550781 0.015625)"/>
      <use xlink:href="#DejaVuSans-56" transform="translate(2276.074219 0.015625)"/>
      <use xlink:href="#DejaVuSans-2c" transform="translate(2344.482422 0.015625)"/>
      <use xlink:href="#DejaVuSans-20" transform="translate(2376.269531 0.015625)"/>
      <use xlink:href="#DejaVuSans-Oblique-3c3" transform="translate(2408.056641 0.015625)"/>
      <use xlink:href="#DejaVuSans-3d" transform="translate(2471.435547 0.015625)"/>
      <use xlink:href="#DejaVuSans-31" transform="translate(2555.224609 0.015625)"/>
      <use xlink:href="#DejaVuSans-30" transform="translate(2618.847656 0.015625)"/>
      <use xlink:href="#DejaVuSans-20" transform="translate(2682.470703 0.015625)"/>
      <use xlink:href="#DejaVuSans-6d" transform="translate(2714.257812 0.015625)"/>
      <use xlink:href="#DejaVuSans-65" transform="translate(2811.669922 0.015625)"/>
      <use xlink:href="#DejaVuSans-56" transform="translate(2873.193359 0.015625)"/>
      <use xlink:href="#DejaVuSans-29" transform="translate(2941.601562 0.015625)"/>
     </g>
    </g>
   </g>
  </g>
  <g id="axes_2">
   <g id="patch_9">
    <path d="M 51.145553 413.04351 
L 630.59976 413.04351 
L 630.59976 220.06959 
L 51.145553 220.06959 
z
" style="fill: #ffffff"/>
   </g>
   <g id="matplotlib.axis_3">
    <g id="xtick_6">
     <g id="line2d_14">
      <g>
       <use xlink:href="#m18612ff96e" x="151.435704" y="413.04351" style="stroke: #000000; stroke-width: 0.8"/>
      </g>
     </g>
     <g id="text_12">
      <!-- 0.0 -->
      <g transform="translate(143.484141 427.641948) scale(0.1 -0.1)">
       <use xlink:href="#DejaVuSans-30"/>
       <use xlink:href="#DejaVuSans-2e" transform="translate(63.623047 0)"/>
       <use xlink:href="#DejaVuSans-30" transform="translate(95.410156 0)"/>
      </g>
     </g>
    </g>
    <g id="xtick_7">
     <g id="line2d_15">
      <g>
       <use xlink:href="#m18612ff96e" x="262.869205" y="413.04351" style="stroke: #000000; stroke-width: 0.8"/>
      </g>
     </g>
     <g id="text_13">
      <!-- 0.5 -->
      <g transform="translate(254.917643 427.641948) scale(0.1 -0.1)">
       <use xlink:href="#DejaVuSans-30"/>
       <use xlink:href="#DejaVuSans-2e" transform="translate(63.623047 0)"/>
       <use xlink:href="#DejaVuSans-35" transform="translate(95.410156 0)"/>
      </g>
     </g>
    </g>
    <g id="xtick_8">
     <g id="line2d_16">
      <g>
       <use xlink:href="#m18612ff96e" x="374.302707" y="413.04351" style="stroke: #000000; stroke-width: 0.8"/>
      </g>
     </g>
     <g id="text_14">
      <!-- 1.0 -->
      <g transform="translate(366.351144 427.641948) scale(0.1 -0.1)">
       <use xlink:href="#DejaVuSans-31"/>
       <use xlink:href="#DejaVuSans-2e" transform="translate(63.623047 0)"/>
       <use xlink:href="#DejaVuSans-30" transform="translate(95.410156 0)"/>
      </g>
     </g>
    </g>
    <g id="xtick_9">
     <g id="line2d_17">
      <g>
       <use xlink:href="#m18612ff96e" x="485.736208" y="413.04351" style="stroke: #000000; stroke-width: 0.8"/>
      </g>
     </g>
     <g id="text_15">
      <!-- 1.5 -->
      <g transform="translate(477.784646 427.641948) scale(0.1 -0.1)">
       <use xlink:href="#DejaVuSans-31"/>
       <use xlink:href="#DejaVuSans-2e" transform="translate(63.623047 0)"/>
       <use xlink:href="#DejaVuSans-35" transform="translate(95.410156 0)"/>
      </g>
     </g>
    </g>
    <g id="xtick_10">
     <g id="line2d_18">
      <g>
       <use xlink:href="#m18612ff96e" x="597.16971" y="413.04351" style="stroke: #000000; stroke-width: 0.8"/>
      </g>
     </g>
     <g id="text_16">
      <!-- 2.0 -->
      <g transform="translate(589.218147 427.641948) scale(0.1 -0.1)">
       <defs>
        <path id="DejaVuSans-32" d="M 1228 531 
L 3431 531 
L 3431 0 
L 469 0 
L 469 531 
Q 828 903 1448 1529 
Q 2069 2156 2228 2338 
Q 2531 2678 2651 2914 
Q 2772 3150 2772 3378 
Q 2772 3750 2511 3984 
Q 2250 4219 1831 4219 
Q 1534 4219 1204 4116 
Q 875 4013 500 3803 
L 500 4441 
Q 881 4594 1212 4672 
Q 1544 4750 1819 4750 
Q 2544 4750 2975 4387 
Q 3406 4025 3406 3419 
Q 3406 3131 3298 2873 
Q 3191 2616 2906 2266 
Q 2828 2175 2409 1742 
Q 1991 1309 1228 531 
z
" transform="scale(0.015625)"/>
       </defs>
       <use xlink:href="#DejaVuSans-32"/>
       <use xlink:href="#DejaVuSans-2e" transform="translate(63.623047 0)"/>
       <use xlink:href="#DejaVuSans-30" transform="translate(95.410156 0)"/>
      </g>
     </g>
    </g>
    <g id="text_17">
     <!-- $\omega-$VBM (eV) -->
     <g transform="translate(307.372656 441.320073) scale(0.1 -0.1)">
      <defs>
       <path id="DejaVuSans-Oblique-3c9" d="M 1369 -91 
Q 72 -91 434 1766 
Q 575 2500 1256 3500 
L 1875 3500 
Q 1231 2500 1088 1750 
Q 819 397 1519 397 
Q 2166 397 2478 2078 
L 3009 2078 
Q 2669 388 3316 397 
Q 4013 403 4275 1750 
Q 4419 2500 4169 3500 
L 4788 3500 
Q 5075 2500 4934 1766 
Q 4578 -94 3278 -91 
Q 2428 -88 2503 844 
Q 2194 -91 1369 -91 
z
" transform="scale(0.015625)"/>
      </defs>
      <use xlink:href="#DejaVuSans-Oblique-3c9" transform="translate(0 0.125)"/>
      <use xlink:href="#DejaVuSans-2212" transform="translate(103.222656 0.125)"/>
      <use xlink:href="#DejaVuSans-56" transform="translate(206.494141 0.125)"/>
      <use xlink:href="#DejaVuSans-42" transform="translate(274.902344 0.125)"/>
      <use xlink:href="#DejaVuSans-4d" transform="translate(343.505859 0.125)"/>
      <use xlink:href="#DejaVuSans-20" transform="translate(429.785156 0.125)"/>
      <use xlink:href="#DejaVuSans-28" transform="translate(461.572266 0.125)"/>
      <use xlink:href="#DejaVuSans-65" transform="translate(500.585938 0.125)"/>
      <use xlink:href="#DejaVuSans-56" transform="translate(562.109375 0.125)"/>
      <use xlink:href="#DejaVuSans-29" transform="translate(630.517578 0.125)"/>
     </g>
    </g>
   </g>
   <g id="matplotlib.axis_4">
    <g id="ytick_7">
     <g id="line2d_19">
      <g>
       <use xlink:href="#mc7bde810e6" x="51.145553" y="410.495346" style="stroke: #000000; stroke-width: 0.8"/>
      </g>
     </g>
     <g id="text_18">
      <!-- −40 -->
      <g transform="translate(23.040865 414.294565) scale(0.1 -0.1)">
       <defs>
        <path id="DejaVuSans-34" d="M 2419 4116 
L 825 1625 
L 2419 1625 
L 2419 4116 
z
M 2253 4666 
L 3047 4666 
L 3047 1625 
L 3713 1625 
L 3713 1100 
L 3047 1100 
L 3047 0 
L 2419 0 
L 2419 1100 
L 313 1100 
L 313 1709 
L 2253 4666 
z
" transform="scale(0.015625)"/>
       </defs>
       <use xlink:href="#DejaVuSans-2212"/>
       <use xlink:href="#DejaVuSans-34" transform="translate(83.789062 0)"/>
       <use xlink:href="#DejaVuSans-30" transform="translate(147.412109 0)"/>
      </g>
     </g>
    </g>
    <g id="ytick_8">
     <g id="line2d_20">
      <g>
       <use xlink:href="#mc7bde810e6" x="51.145553" y="383.801738" style="stroke: #000000; stroke-width: 0.8"/>
      </g>
     </g>
     <g id="text_19">
      <!-- −20 -->
      <g transform="translate(23.040865 387.600957) scale(0.1 -0.1)">
       <use xlink:href="#DejaVuSans-2212"/>
       <use xlink:href="#DejaVuSans-32" transform="translate(83.789062 0)"/>
       <use xlink:href="#DejaVuSans-30" transform="translate(147.412109 0)"/>
      </g>
     </g>
    </g>
    <g id="ytick_9">
     <g id="line2d_21">
      <g>
       <use xlink:href="#mc7bde810e6" x="51.145553" y="357.10813" style="stroke: #000000; stroke-width: 0.8"/>
      </g>
     </g>
     <g id="text_20">
      <!-- 0 -->
      <g transform="translate(37.783052 360.907349) scale(0.1 -0.1)">
       <use xlink:href="#DejaVuSans-30"/>
      </g>
     </g>
    </g>
    <g id="ytick_10">
     <g id="line2d_22">
      <g>
       <use xlink:href="#mc7bde810e6" x="51.145553" y="330.414522" style="stroke: #000000; stroke-width: 0.8"/>
      </g>
     </g>
     <g id="text_21">
      <!-- 20 -->
      <g transform="translate(31.420552 334.21374) scale(0.1 -0.1)">
       <use xlink:href="#DejaVuSans-32"/>
       <use xlink:href="#DejaVuSans-30" transform="translate(63.623047 0)"/>
      </g>
     </g>
    </g>
    <g id="ytick_11">
     <g id="line2d_23">
      <g>
       <use xlink:href="#mc7bde810e6" x="51.145553" y="303.720914" style="stroke: #000000; stroke-width: 0.8"/>
      </g>
     </g>
     <g id="text_22">
      <!-- 40 -->
      <g transform="translate(31.420552 307.520132) scale(0.1 -0.1)">
       <use xlink:href="#DejaVuSans-34"/>
       <use xlink:href="#DejaVuSans-30" transform="translate(63.623047 0)"/>
      </g>
     </g>
    </g>
    <g id="ytick_12">
     <g id="line2d_24">
      <g>
       <use xlink:href="#mc7bde810e6" x="51.145553" y="277.027305" style="stroke: #000000; stroke-width: 0.8"/>
      </g>
     </g>
     <g id="text_23">
      <!-- 60 -->
      <g transform="translate(31.420552 280.826524) scale(0.1 -0.1)">
       <use xlink:href="#DejaVuSans-36"/>
       <use xlink:href="#DejaVuSans-30" transform="translate(63.623047 0)"/>
      </g>
     </g>
    </g>
    <g id="ytick_13">
     <g id="line2d_25">
      <g>
       <use xlink:href="#mc7bde810e6" x="51.145553" y="250.333697" style="stroke: #000000; stroke-width: 0.8"/>
      </g>
     </g>
     <g id="text_24">
      <!-- 80 -->
      <g transform="translate(31.420552 254.132916) scale(0.1 -0.1)">
       <defs>
        <path id="DejaVuSans-38" d="M 2034 2216 
Q 1584 2216 1326 1975 
Q 1069 1734 1069 1313 
Q 1069 891 1326 650 
Q 1584 409 2034 409 
Q 2484 409 2743 651 
Q 3003 894 3003 1313 
Q 3003 1734 2745 1975 
Q 2488 2216 2034 2216 
z
M 1403 2484 
Q 997 2584 770 2862 
Q 544 3141 544 3541 
Q 544 4100 942 4425 
Q 1341 4750 2034 4750 
Q 2731 4750 3128 4425 
Q 3525 4100 3525 3541 
Q 3525 3141 3298 2862 
Q 3072 2584 2669 2484 
Q 3125 2378 3379 2068 
Q 3634 1759 3634 1313 
Q 3634 634 3220 271 
Q 2806 -91 2034 -91 
Q 1263 -91 848 271 
Q 434 634 434 1313 
Q 434 1759 690 2068 
Q 947 2378 1403 2484 
z
M 1172 3481 
Q 1172 3119 1398 2916 
Q 1625 2713 2034 2713 
Q 2441 2713 2670 2916 
Q 2900 3119 2900 3481 
Q 2900 3844 2670 4047 
Q 2441 4250 2034 4250 
Q 1625 4250 1398 4047 
Q 1172 3844 1172 3481 
z
" transform="scale(0.015625)"/>
       </defs>
       <use xlink:href="#DejaVuSans-38"/>
       <use xlink:href="#DejaVuSans-30" transform="translate(63.623047 0)"/>
      </g>
     </g>
    </g>
    <g id="ytick_14">
     <g id="line2d_26">
      <g>
       <use xlink:href="#mc7bde810e6" x="51.145553" y="223.640089" style="stroke: #000000; stroke-width: 0.8"/>
      </g>
     </g>
     <g id="text_25">
      <!-- 100 -->
      <g transform="translate(25.058052 227.439308) scale(0.1 -0.1)">
       <use xlink:href="#DejaVuSans-31"/>
       <use xlink:href="#DejaVuSans-30" transform="translate(63.623047 0)"/>
       <use xlink:href="#DejaVuSans-30" transform="translate(127.246094 0)"/>
      </g>
     </g>
    </g>
    <g id="text_26">
     <!-- $\Delta$DOS (states/eV/defect) -->
     <g transform="translate(16.961177 377.40655) rotate(-90) scale(0.1 -0.1)">
      <use xlink:href="#DejaVuSans-394" transform="translate(0 0.015625)"/>
      <use xlink:href="#DejaVuSans-44" transform="translate(68.408203 0.015625)"/>
      <use xlink:href="#DejaVuSans-4f" transform="translate(145.410156 0.015625)"/>
      <use xlink:href="#DejaVuSans-53" transform="translate(224.121094 0.015625)"/>
      <use xlink:href="#DejaVuSans-20" transform="translate(287.597656 0.015625)"/>
      <use xlink:href="#DejaVuSans-28" transform="translate(319.384766 0.015625)"/>
      <use xlink:href="#DejaVuSans-73" transform="translate(358.398438 0.015625)"/>
      <use xlink:href="#DejaVuSans-74" transform="translate(410.498047 0.015625)"/>
      <use xlink:href="#DejaVuSans-61" transform="translate(449.707031 0.015625)"/>
      <use xlink:href="#DejaVuSans-74" transform="translate(510.986328 0.015625)"/>
      <use xlink:href="#DejaVuSans-65" transform="translate(550.195312 0.015625)"/>
      <use xlink:href="#DejaVuSans-73" transform="translate(611.71875 0.015625)"/>
      <use xlink:href="#DejaVuSans-2f" transform="translate(663.818359 0.015625)"/>
      <use xlink:href="#DejaVuSans-65" transform="translate(697.509766 0.015625)"/>
      <use xlink:href="#DejaVuSans-56" transform="translate(759.033203 0.015625)"/>
      <use xlink:href="#DejaVuSans-2f" transform="translate(827.441406 0.015625)"/>
      <use xlink:href="#DejaVuSans-64" transform="translate(861.132812 0.015625)"/>
      <use xlink:href="#DejaVuSans-65" transform="translate(924.609375 0.015625)"/>
      <use xlink:href="#DejaVuSans-66" transform="translate(986.132812 0.015625)"/>
      <use xlink:href="#DejaVuSans-65" transform="translate(1021.337891 0.015625)"/>
      <use xlink:href="#DejaVuSans-63" transform="translate(1082.861328 0.015625)"/>
      <use xlink:href="#DejaVuSans-74" transform="translate(1137.841797 0.015625)"/>
      <use xlink:href="#DejaVuSans-29" transform="translate(1177.050781 0.015625)"/>
     </g>
    </g>
   </g>
   <g id="line2d_27">
    <path d="M -1 356.038821 
L 4.343482 357.194968 
L 7.686487 358.427032 
L 8.800822 359.120123 
L 9.915157 359.518717 
L 11.029492 358.249431 
L 12.143827 355.615103 
L 13.258162 354.45222 
L 14.372497 354.366216 
L 16.601167 354.717363 
L 17.715502 354.992223 
L 18.829837 355.065749 
L 19.944172 355.45069 
L 22.172842 355.499759 
L 25.515847 355.780763 
L 26.630182 355.673975 
L 27.744517 356.109264 
L 32.201857 356.086733 
L 42.230872 356.227832 
L 43.345207 356.125724 
L 44.459542 356.156571 
L 45.573877 356.346154 
L 46.688212 356.163148 
L 47.802547 356.281354 
L 48.916882 356.130296 
L 50.031217 356.192056 
L 51.145553 356.13665 
L 52.259888 355.929726 
L 53.374223 355.971154 
L 54.488558 356.157671 
L 55.602893 355.89641 
L 58.945898 355.56382 
L 60.060233 355.912295 
L 61.174568 355.483724 
L 62.288903 355.597752 
L 63.403238 355.25972 
L 64.517573 355.263442 
L 65.631908 355.734843 
L 66.746243 355.035645 
L 67.860578 355.048676 
L 68.974913 355.275406 
L 70.089248 355.069977 
L 71.203583 355.396455 
L 72.317918 354.858092 
L 74.546588 355.154812 
L 75.660923 355.055824 
L 76.775258 355.225328 
L 77.889593 354.972347 
L 79.003928 354.997633 
L 80.118263 355.21104 
L 81.232598 355.160967 
L 84.575603 355.341024 
L 86.804273 355.339729 
L 87.918608 355.607493 
L 90.147278 355.49743 
L 91.261613 355.516916 
L 93.490283 355.743081 
L 97.947623 355.807791 
L 99.061958 356.040084 
L 101.290628 356.022344 
L 102.404963 355.982493 
L 105.747968 356.196996 
L 109.090973 356.314215 
L 111.319643 356.391623 
L 125.805998 356.844157 
L 126.920333 356.79661 
L 130.263339 357.050715 
L 131.377674 356.952459 
L 133.606344 357.141008 
L 135.835014 357.114255 
L 138.063684 357.216133 
L 139.178019 357.230959 
L 142.521024 356.831961 
L 143.635359 356.311502 
L 144.749694 355.454945 
L 145.864029 353.655044 
L 146.978364 351.21295 
L 148.092699 351.122169 
L 149.207034 352.048957 
L 150.321369 349.502426 
L 151.435704 342.667206 
L 152.550039 341.863944 
L 153.664374 346.988345 
L 154.778709 350.983422 
L 155.893044 353.242577 
L 157.007379 354.51159 
L 158.121714 355.264498 
L 159.236049 355.738715 
L 161.464719 356.272089 
L 164.807724 356.635256 
L 169.265064 356.840328 
L 178.179744 356.986873 
L 201.580779 357.071911 
L 309.671276 357.106788 
L 505.794238 357.2314 
L 512.480248 357.407033 
L 514.708919 357.594601 
L 515.823254 357.770829 
L 516.937589 358.064963 
L 518.051924 358.583232 
L 519.166259 359.483465 
L 520.280594 360.593022 
L 521.394929 360.627667 
L 522.509264 359.648547 
L 523.623599 358.845276 
L 524.737934 358.371669 
L 526.966604 357.961838 
L 529.195274 357.709824 
L 536.995619 357.597677 
L 539.224289 357.572483 
L 542.567294 357.578402 
L 550.367639 357.636552 
L 554.824979 357.660318 
L 557.053649 357.715471 
L 560.396654 357.784181 
L 562.625324 357.825825 
L 564.853994 357.92785 
L 570.425669 358.4049 
L 572.654339 358.77215 
L 574.883009 359.409858 
L 575.997344 360.070371 
L 577.111679 360.996458 
L 578.226014 362.533964 
L 579.340349 365.248524 
L 580.454684 369.906497 
L 581.569019 376.43869 
L 582.683354 378.655816 
L 584.912024 369.379121 
L 586.026359 366.538649 
L 587.140694 364.783382 
L 588.255029 363.726403 
L 590.483699 362.299812 
L 594.94104 361.487777 
L 600.512715 361.251297 
L 603.85572 361.381005 
L 604.970055 361.702537 
L 608.31306 361.838007 
L 611.656065 362.481042 
L 612.7704 362.587317 
L 614.99907 363.378037 
L 617.22774 364.018624 
L 619.45641 365.033905 
L 620.570745 365.552987 
L 622.799415 367.294371 
L 623.91375 367.814723 
L 625.028085 368.974288 
L 627.256755 372.311179 
L 628.37109 374.204993 
L 629.485425 377.047262 
L 630.59976 380.330855 
L 631.714095 384.448764 
L 632.82843 388.056914 
L 633.942765 386.866845 
L 634.6 384.768632 
L 634.6 384.768632 
" clip-path="url(#p4582f26358)" style="fill: none; stroke: #c0392b; stroke-width: 1.2; stroke-linecap: square"/>
   </g>
   <g id="line2d_28">
    <path d="M -1 356.054168 
L 4.343482 357.195161 
L 7.686487 358.408092 
L 8.800822 359.088466 
L 9.915157 359.47165 
L 11.029492 358.203634 
L 12.143827 355.60189 
L 13.258162 354.465952 
L 14.372497 354.390052 
L 16.601167 354.745032 
L 17.715502 355.019056 
L 18.829837 355.092445 
L 19.944172 355.472914 
L 22.172842 355.521776 
L 25.515847 355.798678 
L 26.630182 355.69443 
L 27.744517 356.125144 
L 32.201857 356.101317 
L 41.116537 356.296455 
L 44.459542 356.169961 
L 45.573877 356.35917 
L 46.688212 356.177434 
L 47.802547 356.292571 
L 48.916882 356.145084 
L 50.031217 356.206052 
L 51.145553 356.149127 
L 52.259888 355.945119 
L 53.374223 355.986169 
L 54.488558 356.172244 
L 55.602893 355.913259 
L 58.945898 355.584548 
L 60.060233 355.931305 
L 61.174568 355.505334 
L 62.288903 355.616758 
L 63.403238 355.28528 
L 64.517573 355.288444 
L 65.631908 355.75652 
L 66.746243 355.066701 
L 67.860578 355.075185 
L 68.974913 355.30115 
L 70.089248 355.098742 
L 71.203583 355.421362 
L 72.317918 354.889902 
L 74.546588 355.182115 
L 75.660923 355.084689 
L 76.775258 355.252724 
L 77.889593 355.002935 
L 79.003928 355.025934 
L 80.118263 355.237485 
L 81.232598 355.187628 
L 84.575603 355.364391 
L 86.804273 355.363467 
L 87.918608 355.62854 
L 90.147278 355.518419 
L 91.261613 355.538352 
L 93.490283 355.761359 
L 97.947623 355.824106 
L 99.061958 356.053991 
L 101.290628 356.035735 
L 102.404963 355.996086 
L 105.747968 356.208396 
L 109.090973 356.324064 
L 111.319643 356.400425 
L 125.805998 356.84542 
L 126.920333 356.797974 
L 130.263339 357.049245 
L 131.377674 356.951973 
L 133.606344 357.13835 
L 135.835014 357.110273 
L 138.063684 357.210341 
L 139.178019 357.224242 
L 142.521024 356.821634 
L 143.635359 356.301548 
L 144.749694 355.44726 
L 145.864029 353.656479 
L 146.978364 351.228681 
L 148.092699 351.123684 
L 149.207034 352.012289 
L 150.321369 349.470276 
L 151.435704 342.811521 
L 152.550039 342.165635 
L 153.664374 347.215064 
L 154.778709 351.117492 
L 155.893044 353.322644 
L 157.007379 354.562387 
L 158.121714 355.298749 
L 159.236049 355.763032 
L 161.464719 356.285889 
L 164.807724 356.642476 
L 170.379399 356.873782 
L 181.522749 357.01283 
L 212.72413 357.0839 
L 399.932412 357.114508 
L 505.794238 357.230904 
L 512.480248 357.405968 
L 514.708919 357.592947 
L 515.823254 357.768629 
L 516.937589 358.061859 
L 518.051924 358.578545 
L 519.166259 359.476029 
L 520.280594 360.582112 
L 521.394929 360.616331 
L 522.509264 359.639941 
L 523.623599 358.839076 
L 524.737934 358.366953 
L 526.966604 357.958464 
L 529.195274 357.707311 
L 536.995619 357.595607 
L 539.224289 357.570552 
L 542.567294 357.576433 
L 550.367639 357.634387 
L 554.824979 357.658011 
L 557.053649 357.712937 
L 560.396654 357.781313 
L 562.625324 357.822729 
L 564.853994 357.924289 
L 570.425669 358.399001 
L 572.654339 358.764392 
L 574.883009 359.398805 
L 575.997344 360.056115 
L 577.111679 360.97748 
L 578.226014 362.50733 
L 579.340349 365.208433 
L 580.454684 369.843106 
L 581.569019 376.342169 
L 582.683354 378.543803 
L 584.912024 369.304845 
L 586.026359 366.478298 
L 587.140694 364.73191 
L 588.255029 363.681621 
L 590.483699 362.263386 
L 594.94104 361.458179 
L 600.512715 361.225539 
L 603.85572 361.35649 
L 604.970055 361.676406 
L 608.31306 361.812338 
L 611.656065 362.456747 
L 612.7704 362.561358 
L 614.99907 363.348636 
L 617.22774 363.988671 
L 619.45641 364.999862 
L 620.570745 365.517596 
L 622.799415 367.253603 
L 623.91375 367.772175 
L 625.028085 368.927252 
L 627.256755 372.251285 
L 628.37109 374.137648 
L 629.485425 376.967576 
L 630.59976 380.23417 
L 631.714095 384.331043 
L 632.82843 387.913205 
L 633.942765 386.715413 
L 634.6 384.634779 
L 634.6 384.634779 
" clip-path="url(#p4582f26358)" style="fill: none; stroke-dasharray: 4.44,1.92; stroke-dashoffset: 0; stroke: #2471a3; stroke-width: 1.2"/>
   </g>
   <g id="line2d_29">
    <path d="M 151.435704 413.04351 
L 151.435704 220.06959 
" clip-path="url(#p4582f26358)" style="fill: none; stroke-dasharray: 0.7,1.155; stroke-dashoffset: 0; stroke: #000000; stroke-width: 0.7"/>
   </g>
   <g id="line2d_30">
    <path d="M 520.748614 413.04351 
L 520.748614 220.06959 
" clip-path="url(#p4582f26358)" style="fill: none; stroke-dasharray: 0.7,1.155; stroke-dashoffset: 0; stroke: #000000; stroke-width: 0.7"/>
   </g>
   <g id="patch_10">
    <path d="M 51.145553 413.04351 
L 51.145553 220.06959 
" style="fill: none; stroke: #000000; stroke-width: 0.8; stroke-linejoin: miter; stroke-linecap: square"/>
   </g>
   <g id="patch_11">
    <path d="M 630.59976 413.04351 
L 630.59976 220.06959 
" style="fill: none; stroke: #000000; stroke-width: 0.8; stroke-linejoin: miter; stroke-linecap: square"/>
   </g>
   <g id="patch_12">
    <path d="M 51.145553 413.04351 
L 630.59976 413.04351 
" style="fill: none; stroke: #000000; stroke-width: 0.8; stroke-linejoin: miter; stroke-linecap: square"/>
   </g>
   <g id="patch_13">
    <path d="M 51.145553 220.06959 
L 630.59976 220.06959 
" style="fill: none; stroke: #000000; stroke-width: 0.8; stroke-linejoin: miter; stroke-linecap: square"/>
   </g>
   <g id="legend_2">
    <g id="patch_14">
     <path d="M 277.192656 409.04351 
L 404.552656 409.04351 
Q 406.152656 409.04351 406.152656 407.44351 
L 406.152656 384.72351 
Q 406.152656 383.12351 404.552656 383.12351 
L 277.192656 383.12351 
Q 275.592656 383.12351 275.592656 384.72351 
L 275.592656 407.44351 
Q 275.592656 409.04351 277.192656 409.04351 
z
" style="fill: #ffffff; opacity: 0.8; stroke: #cccccc; stroke-linejoin: miter"/>
    </g>
    <g id="line2d_31">
     <path d="M 278.792656 389.60351 
L 286.792656 389.60351 
L 294.792656 389.60351 
" style="fill: none; stroke: #c0392b; stroke-width: 1.2; stroke-linecap: square"/>
    </g>
    <g id="text_27">
     <!-- downfolded, pin $\omega_0$=VBM -->
     <g transform="translate(301.192656 392.40351) scale(0.08 -0.08)">
      <use xlink:href="#DejaVuSans-64" transform="translate(0 0.015625)"/>
      <use xlink:href="#DejaVuSans-6f" transform="translate(63.476562 0.015625)"/>
      <use xlink:href="#DejaVuSans-77" transform="translate(124.658203 0.015625)"/>
      <use xlink:href="#DejaVuSans-6e" transform="translate(206.445312 0.015625)"/>
      <use xlink:href="#DejaVuSans-66" transform="translate(269.824219 0.015625)"/>
      <use xlink:href="#DejaVuSans-6f" transform="translate(305.029297 0.015625)"/>
      <use xlink:href="#DejaVuSans-6c" transform="translate(366.210938 0.015625)"/>
      <use xlink:href="#DejaVuSans-64" transform="translate(393.994141 0.015625)"/>
      <use xlink:href="#DejaVuSans-65" transform="translate(457.470703 0.015625)"/>
      <use xlink:href="#DejaVuSans-64" transform="translate(518.994141 0.015625)"/>
      <use xlink:href="#DejaVuSans-2c" transform="translate(582.470703 0.015625)"/>
      <use xlink:href="#DejaVuSans-20" transform="translate(614.257812 0.015625)"/>
      <use xlink:href="#DejaVuSans-70" transform="translate(646.044922 0.015625)"/>
      <use xlink:href="#DejaVuSans-69" transform="translate(709.521484 0.015625)"/>
      <use xlink:href="#DejaVuSans-6e" transform="translate(737.304688 0.015625)"/>
      <use xlink:href="#DejaVuSans-20" transform="translate(800.683594 0.015625)"/>
      <use xlink:href="#DejaVuSans-Oblique-3c9" transform="translate(832.470703 0.015625)"/>
      <use xlink:href="#DejaVuSans-30" transform="translate(916.210938 -16.390625) scale(0.7)"/>
      <use xlink:href="#DejaVuSans-3d" transform="translate(963.481445 0.015625)"/>
      <use xlink:href="#DejaVuSans-56" transform="translate(1047.270508 0.015625)"/>
      <use xlink:href="#DejaVuSans-42" transform="translate(1115.678711 0.015625)"/>
      <use xlink:href="#DejaVuSans-4d" transform="translate(1184.282227 0.015625)"/>
     </g>
    </g>
    <g id="line2d_32">
     <path d="M 278.792656 401.36351 
L 286.792656 401.36351 
L 294.792656 401.36351 
" style="fill: none; stroke-dasharray: 4.44,1.92; stroke-dashoffset: 0; stroke: #2471a3; stroke-width: 1.2"/>
    </g>
    <g id="text_28">
     <!-- downfolded, pin $\omega_0$=CBM -->
     <g transform="translate(301.192656 404.16351) scale(0.08 -0.08)">
      <use xlink:href="#DejaVuSans-64" transform="translate(0 0.015625)"/>
      <use xlink:href="#DejaVuSans-6f" transform="translate(63.476562 0.015625)"/>
      <use xlink:href="#DejaVuSans-77" transform="translate(124.658203 0.015625)"/>
      <use xlink:href="#DejaVuSans-6e" transform="translate(206.445312 0.015625)"/>
      <use xlink:href="#DejaVuSans-66" transform="translate(269.824219 0.015625)"/>
      <use xlink:href="#DejaVuSans-6f" transform="translate(305.029297 0.015625)"/>
      <use xlink:href="#DejaVuSans-6c" transform="translate(366.210938 0.015625)"/>
      <use xlink:href="#DejaVuSans-64" transform="translate(393.994141 0.015625)"/>
      <use xlink:href="#DejaVuSans-65" transform="translate(457.470703 0.015625)"/>
      <use xlink:href="#DejaVuSans-64" transform="translate(518.994141 0.015625)"/>
      <use xlink:href="#DejaVuSans-2c" transform="translate(582.470703 0.015625)"/>
      <use xlink:href="#DejaVuSans-20" transform="translate(614.257812 0.015625)"/>
      <use xlink:href="#DejaVuSans-70" transform="translate(646.044922 0.015625)"/>
      <use xlink:href="#DejaVuSans-69" transform="translate(709.521484 0.015625)"/>
      <use xlink:href="#DejaVuSans-6e" transform="translate(737.304688 0.015625)"/>
      <use xlink:href="#DejaVuSans-20" transform="translate(800.683594 0.015625)"/>
      <use xlink:href="#DejaVuSans-Oblique-3c9" transform="translate(832.470703 0.015625)"/>
      <use xlink:href="#DejaVuSans-30" transform="translate(916.210938 -16.390625) scale(0.7)"/>
      <use xlink:href="#DejaVuSans-3d" transform="translate(963.481445 0.015625)"/>
      <use xlink:href="#DejaVuSans-43" transform="translate(1047.270508 0.015625)"/>
      <use xlink:href="#DejaVuSans-42" transform="translate(1117.094727 0.015625)"/>
      <use xlink:href="#DejaVuSans-4d" transform="translate(1185.698242 0.015625)"/>
     </g>
    </g>
   </g>
  </g>
 </g>
 <defs>
  <clipPath id="p79d83bee51">
   <rect x="51.145553" y="17.36024" width="579.454208" height="192.97392"/>
  </clipPath>
  <clipPath id="p4582f26358">
   <rect x="51.145553" y="220.06959" width="579.454208" height="192.97392"/>
  </clipPath>
 </defs>
</svg>
