<?xml version="1.0" encoding="utf-8" standalone="no"?>
<!DOCTYPE svg PUBLIC "-//W3C//DTD SVG 1.1//EN"
  "http://www.w3.org/Graphics/SVG/1.1/DTD/svg11.dtd">
<svg xmlns:xlink="http://www.w3.org/1999/xlink" width="691.2pt" height="547.2pt" viewBox="0 0 691.2 547.2" xmlns="http://www.w3.org/2000/svg" version="1.1">
 <metadata>
  <rdf:RDF xmlns:dc="http://purl.org/dc/elements/1.1/" xmlns:cc="http://creativecommons.org/ns#" xmlns:rdf="http://www.w3.org/1999/02/22-rdf-syntax-ns#">
   <cc:Work>
    <dc:type rdf:resource="http://purl.org/dc/dcmitype/StillImage"/>
    <dc:date>2026-07-08T11:49:28.820341</dc:date>
    <dc:format>image/svg+xml</dc:format>
    <dc:creator>
     <cc:Agent>
      <dc:title>Matplotlib v3.10.8, https://matplotlib.org/</dc:title>
     </cc:Agent>
    </dc:creator>
   </cc:Work>
  </rdf:RDF>
 </metadata>
 <defs>
  <style type="text/css">*{stroke-linejoin: round; stroke-linecap: butt}</style>
 </defs>
 <g id="figure_1">
  <g id="patch_1">
   <path d="M 0 547.2 
L 691.2 547.2 
L 691.2 0 
L 0 0 
z
" style="fill: #ffffff"/>
  </g>
  <g id="axes_1">
   <g id="patch_2">
    <path d="M 53.93 275.566 
L 672.435 275.566 
L 672.435 78.72 
L 53.93 78.72 
z
" style="fill: #ffffff"/>
   </g>
   <g id="matplotlib.axis_1">
    <g id="xtick_1">
     <g id="line2d_1">
      <defs>
       <path id="m8fc0f7192e" d="M 0 0 
L 0 3.5 
" style="stroke: #000000; stroke-width: 0.8"/>
      </defs>
      <g>
       <use xlink:href="#m8fc0f7192e" x="53.93" y="275.566" style="stroke: #000000; stroke-width: 0.8"/>
      </g>
     </g>
    </g>
    <g id="xtick_2">
     <g id="line2d_2">
      <g>
       <use xlink:href="#m8fc0f7192e" x="142.287857" y="275.566" style="stroke: #000000; stroke-width: 0.8"/>
      </g>
     </g>
    </g>
    <g id="xtick_3">
     <g id="line2d_3">
      <g>
       <use xlink:href="#m8fc0f7192e" x="230.645714" y="275.566" style="stroke: #000000; stroke-width: 0.8"/>
      </g>
     </g>
    </g>
    <g id="xtick_4">
     <g id="line2d_4">
      <g>
       <use xlink:href="#m8fc0f7192e" x="319.003571" y="275.566" style="stroke: #000000; stroke-width: 0.8"/>
      </g>
     </g>
    </g>
    <g id="xtick_5">
     <g id="line2d_5">
      <g>
       <use xlink:href="#m8fc0f7192e" x="407.361429" y="275.566" style="stroke: #000000; stroke-width: 0.8"/>
      </g>
     </g>
    </g>
    <g id="xtick_6">
     <g id="line2d_6">
      <g>
       <use xlink:href="#m8fc0f7192e" x="495.719286" y="275.566" style="stroke: #000000; stroke-width: 0.8"/>
      </g>
     </g>
    </g>
    <g id="xtick_7">
     <g id="line2d_7">
      <g>
       <use xlink:href="#m8fc0f7192e" x="584.077143" y="275.566" style="stroke: #000000; stroke-width: 0.8"/>
      </g>
     </g>
    </g>
    <g id="xtick_8">
     <g id="line2d_8">
      <g>
       <use xlink:href="#m8fc0f7192e" x="672.435" y="275.566" style="stroke: #000000; stroke-width: 0.8"/>
      </g>
     </g>
    </g>
   </g>
   <g id="matplotlib.axis_2">
    <g id="ytick_1">
     <g id="line2d_9">
      <defs>
       <path id="m20b4fbaef0" d="M 0 0 
L -3.5 0 
" style="stroke: #000000; stroke-width: 0.8"/>
      </defs>
      <g>
       <use xlink:href="#m20b4fbaef0" x="53.93" y="266.908555" style="stroke: #000000; stroke-width: 0.8"/>
      </g>
     </g>
     <g id="text_1">
      <!-- 0 -->
      <g transform="translate(40.5675 270.707773) scale(0.1 -0.1)">
       <defs>
        <path id="DejaVuSans-30" d="M 2034 4250 
Q 1547 4250 1301 3770 
Q 1056 3291 1056 2328 
Q 1056 1369 1301 889 
Q 1547 409 2034 409 
Q 2525 409 2770 889 
Q 3016 1369 3016 2328 
Q 3016 3291 2770 3770 
Q 2525 4250 2034 4250 
z
M 2034 4750 
Q 2819 4750 3233 4129 
Q 3647 3509 3647 2328 
Q 3647 1150 3233 529 
Q 2819 -91 2034 -91 
Q 1250 -91 836 529 
Q 422 1150 422 2328 
Q 422 3509 836 4129 
Q 1250 4750 2034 4750 
z
" transform="scale(0.015625)"/>
       </defs>
       <use xlink:href="#DejaVuSans-30"/>
      </g>
     </g>
    </g>
    <g id="ytick_2">
     <g id="line2d_10">
      <g>
       <use xlink:href="#m20b4fbaef0" x="53.93" y="239.857866" style="stroke: #000000; stroke-width: 0.8"/>
      </g>
     </g>
     <g id="text_2">
      <!-- 25 -->
      <g transform="translate(34.205 243.657084) scale(0.1 -0.1)">
       <defs>
        <path id="DejaVuSans-32" d="M 1228 531 
L 3431 531 
L 3431 0 
L 469 0 
L 469 531 
Q 828 903 1448 1529 
Q 2069 2156 2228 2338 
Q 2531 2678 2651 2914 
Q 2772 3150 2772 3378 
Q 2772 3750 2511 3984 
Q 2250 4219 1831 4219 
Q 1534 4219 1204 4116 
Q 875 4013 500 3803 
L 500 4441 
Q 881 4594 1212 4672 
Q 1544 4750 1819 4750 
Q 2544 4750 2975 4387 
Q 3406 4025 3406 3419 
Q 3406 3131 3298 2873 
Q 3191 2616 2906 2266 
Q 2828 2175 2409 1742 
Q 1991 1309 1228 531 
z
" transform="scale(0.015625)"/>
        <path id="DejaVuSans-35" d="M 691 4666 
L 3169 4666 
L 3169 4134 
L 1269 4134 
L 1269 2991 
Q 1406 3038 1543 3061 
Q 1681 3084 1819 3084 
Q 2600 3084 3056 2656 
Q 3513 2228 3513 1497 
Q 3513 744 3044 326 
Q 2575 -91 1722 -91 
Q 1428 -91 1123 -41 
Q 819 9 494 109 
L 494 744 
Q 775 591 1075 516 
Q 1375 441 1709 441 
Q 2250 441 2565 725 
Q 2881 1009 2881 1497 
Q 2881 1984 2565 2268 
Q 2250 2553 1709 2553 
Q 1456 2553 1204 2497 
Q 953 2441 691 2322 
L 691 4666 
z
" transform="scale(0.015625)"/>
       </defs>
       <use xlink:href="#DejaVuSans-32"/>
       <use xlink:href="#DejaVuSans-35" transform="translate(63.623047 0)"/>
      </g>
     </g>
    </g>
    <g id="ytick_3">
     <g id="line2d_11">
      <g>
       <use xlink:href="#m20b4fbaef0" x="53.93" y="212.807177" style="stroke: #000000; stroke-width: 0.8"/>
      </g>
     </g>
     <g id="text_3">
      <!-- 50 -->
      <g transform="translate(34.205 216.606396) scale(0.1 -0.1)">
       <use xlink:href="#DejaVuSans-35"/>
       <use xlink:href="#DejaVuSans-30" transform="translate(63.623047 0)"/>
      </g>
     </g>
    </g>
    <g id="ytick_4">
     <g id="line2d_12">
      <g>
       <use xlink:href="#m20b4fbaef0" x="53.93" y="185.756488" style="stroke: #000000; stroke-width: 0.8"/>
      </g>
     </g>
     <g id="text_4">
      <!-- 75 -->
      <g transform="translate(34.205 189.555707) scale(0.1 -0.1)">
       <defs>
        <path id="DejaVuSans-37" d="M 525 4666 
L 3525 4666 
L 3525 4397 
L 1831 0 
L 1172 0 
L 2766 4134 
L 525 4134 
L 525 4666 
z
" transform="scale(0.015625)"/>
       </defs>
       <use xlink:href="#DejaVuSans-37"/>
       <use xlink:href="#DejaVuSans-35" transform="translate(63.623047 0)"/>
      </g>
     </g>
    </g>
    <g id="ytick_5">
     <g id="line2d_13">
      <g>
       <use xlink:href="#m20b4fbaef0" x="53.93" y="158.705799" style="stroke: #000000; stroke-width: 0.8"/>
      </g>
     </g>
     <g id="text_5">
      <!-- 100 -->
      <g transform="translate(27.8425 162.505018) scale(0.1 -0.1)">
       <defs>
        <path id="DejaVuSans-31" d="M 794 531 
L 1825 531 
L 1825 4091 
L 703 3866 
L 703 4441 
L 1819 4666 
L 2450 4666 
L 2450 531 
L 3481 531 
L 3481 0 
L 794 0 
L 794 531 
z
" transform="scale(0.015625)"/>
       </defs>
       <use xlink:href="#DejaVuSans-31"/>
       <use xlink:href="#DejaVuSans-30" transform="translate(63.623047 0)"/>
       <use xlink:href="#DejaVuSans-30" transform="translate(127.246094 0)"/>
      </g>
     </g>
    </g>
    <g id="ytick_6">
     <g id="line2d_14">
      <g>
       <use xlink:href="#m20b4fbaef0" x="53.93" y="131.65511" style="stroke: #000000; stroke-width: 0.8"/>
      </g>
     </g>
     <g id="text_6">
      <!-- 125 -->
      <g transform="translate(27.8425 135.454329) scale(0.1 -0.1)">
       <use xlink:href="#DejaVuSans-31"/>
       <use xlink:href="#DejaVuSans-32" transform="translate(63.623047 0)"/>
       <use xlink:href="#DejaVuSans-35" transform="translate(127.246094 0)"/>
      </g>
     </g>
    </g>
    <g id="ytick_7">
     <g id="line2d_15">
      <g>
       <use xlink:href="#m20b4fbaef0" x="53.93" y="104.604421" style="stroke: #000000; stroke-width: 0.8"/>
      </g>
     </g>
     <g id="text_7">
      <!-- 150 -->
      <g transform="translate(27.8425 108.40364) scale(0.1 -0.1)">
       <use xlink:href="#DejaVuSans-31"/>
       <use xlink:href="#DejaVuSans-35" transform="translate(63.623047 0)"/>
       <use xlink:href="#DejaVuSans-30" transform="translate(127.246094 0)"/>
      </g>
     </g>
    </g>
    <g id="text_8">
     <!-- DOS (states/eV per 6$\times$6 cell) -->
     <g transform="translate(21.7425 249.293) rotate(-90) scale(0.1 -0.1)">
      <defs>
       <path id="DejaVuSans-44" d="M 1259 4147 
L 1259 519 
L 2022 519 
Q 2988 519 3436 956 
Q 3884 1394 3884 2338 
Q 3884 3275 3436 3711 
Q 2988 4147 2022 4147 
L 1259 4147 
z
M 628 4666 
L 1925 4666 
Q 3281 4666 3915 4102 
Q 4550 3538 4550 2338 
Q 4550 1131 3912 565 
Q 3275 0 1925 0 
L 628 0 
L 628 4666 
z
" transform="scale(0.015625)"/>
       <path id="DejaVuSans-4f" d="M 2522 4238 
Q 1834 4238 1429 3725 
Q 1025 3213 1025 2328 
Q 1025 1447 1429 934 
Q 1834 422 2522 422 
Q 3209 422 3611 934 
Q 4013 1447 4013 2328 
Q 4013 3213 3611 3725 
Q 3209 4238 2522 4238 
z
M 2522 4750 
Q 3503 4750 4090 4092 
Q 4678 3434 4678 2328 
Q 4678 1225 4090 567 
Q 3503 -91 2522 -91 
Q 1538 -91 948 565 
Q 359 1222 359 2328 
Q 359 3434 948 4092 
Q 1538 4750 2522 4750 
z
" transform="scale(0.015625)"/>
       <path id="DejaVuSans-53" d="M 3425 4513 
L 3425 3897 
Q 3066 4069 2747 4153 
Q 2428 4238 2131 4238 
Q 1616 4238 1336 4038 
Q 1056 3838 1056 3469 
Q 1056 3159 1242 3001 
Q 1428 2844 1947 2747 
L 2328 2669 
Q 3034 2534 3370 2195 
Q 3706 1856 3706 1288 
Q 3706 609 3251 259 
Q 2797 -91 1919 -91 
Q 1588 -91 1214 -16 
Q 841 59 441 206 
L 441 856 
Q 825 641 1194 531 
Q 1563 422 1919 422 
Q 2459 422 2753 634 
Q 3047 847 3047 1241 
Q 3047 1584 2836 1778 
Q 2625 1972 2144 2069 
L 1759 2144 
Q 1053 2284 737 2584 
Q 422 2884 422 3419 
Q 422 4038 858 4394 
Q 1294 4750 2059 4750 
Q 2388 4750 2728 4690 
Q 3069 4631 3425 4513 
z
" transform="scale(0.015625)"/>
       <path id="DejaVuSans-20" transform="scale(0.015625)"/>
       <path id="DejaVuSans-28" d="M 1984 4856 
Q 1566 4138 1362 3434 
Q 1159 2731 1159 2009 
Q 1159 1288 1364 580 
Q 1569 -128 1984 -844 
L 1484 -844 
Q 1016 -109 783 600 
Q 550 1309 550 2009 
Q 550 2706 781 3412 
Q 1013 4119 1484 4856 
L 1984 4856 
z
" transform="scale(0.015625)"/>
       <path id="DejaVuSans-73" d="M 2834 3397 
L 2834 2853 
Q 2591 2978 2328 3040 
Q 2066 3103 1784 3103 
Q 1356 3103 1142 2972 
Q 928 2841 928 2578 
Q 928 2378 1081 2264 
Q 1234 2150 1697 2047 
L 1894 2003 
Q 2506 1872 2764 1633 
Q 3022 1394 3022 966 
Q 3022 478 2636 193 
Q 2250 -91 1575 -91 
Q 1294 -91 989 -36 
Q 684 19 347 128 
L 347 722 
Q 666 556 975 473 
Q 1284 391 1588 391 
Q 1994 391 2212 530 
Q 2431 669 2431 922 
Q 2431 1156 2273 1281 
Q 2116 1406 1581 1522 
L 1381 1569 
Q 847 1681 609 1914 
Q 372 2147 372 2553 
Q 372 3047 722 3315 
Q 1072 3584 1716 3584 
Q 2034 3584 2315 3537 
Q 2597 3491 2834 3397 
z
" transform="scale(0.015625)"/>
       <path id="DejaVuSans-74" d="M 1172 4494 
L 1172 3500 
L 2356 3500 
L 2356 3053 
L 1172 3053 
L 1172 1153 
Q 1172 725 1289 603 
Q 1406 481 1766 481 
L 2356 481 
L 2356 0 
L 1766 0 
Q 1100 0 847 248 
Q 594 497 594 1153 
L 594 3053 
L 172 3053 
L 172 3500 
L 594 3500 
L 594 4494 
L 1172 4494 
z
" transform="scale(0.015625)"/>
       <path id="DejaVuSans-61" d="M 2194 1759 
Q 1497 1759 1228 1600 
Q 959 1441 959 1056 
Q 959 750 1161 570 
Q 1363 391 1709 391 
Q 2188 391 2477 730 
Q 2766 1069 2766 1631 
L 2766 1759 
L 2194 1759 
z
M 3341 1997 
L 3341 0 
L 2766 0 
L 2766 531 
Q 2569 213 2275 61 
Q 1981 -91 1556 -91 
Q 1019 -91 701 211 
Q 384 513 384 1019 
Q 384 1609 779 1909 
Q 1175 2209 1959 2209 
L 2766 2209 
L 2766 2266 
Q 2766 2663 2505 2880 
Q 2244 3097 1772 3097 
Q 1472 3097 1187 3025 
Q 903 2953 641 2809 
L 641 3341 
Q 956 3463 1253 3523 
Q 1550 3584 1831 3584 
Q 2591 3584 2966 3190 
Q 3341 2797 3341 1997 
z
" transform="scale(0.015625)"/>
       <path id="DejaVuSans-65" d="M 3597 1894 
L 3597 1613 
L 953 1613 
Q 991 1019 1311 708 
Q 1631 397 2203 397 
Q 2534 397 2845 478 
Q 3156 559 3463 722 
L 3463 178 
Q 3153 47 2828 -22 
Q 2503 -91 2169 -91 
Q 1331 -91 842 396 
Q 353 884 353 1716 
Q 353 2575 817 3079 
Q 1281 3584 2069 3584 
Q 2775 3584 3186 3129 
Q 3597 2675 3597 1894 
z
M 3022 2063 
Q 3016 2534 2758 2815 
Q 2500 3097 2075 3097 
Q 1594 3097 1305 2825 
Q 1016 2553 972 2059 
L 3022 2063 
z
" transform="scale(0.015625)"/>
       <path id="DejaVuSans-2f" d="M 1625 4666 
L 2156 4666 
L 531 -594 
L 0 -594 
L 1625 4666 
z
" transform="scale(0.015625)"/>
       <path id="DejaVuSans-56" d="M 1831 0 
L 50 4666 
L 709 4666 
L 2188 738 
L 3669 4666 
L 4325 4666 
L 2547 0 
L 1831 0 
z
" transform="scale(0.015625)"/>
       <path id="DejaVuSans-70" d="M 1159 525 
L 1159 -1331 
L 581 -1331 
L 581 3500 
L 1159 3500 
L 1159 2969 
Q 1341 3281 1617 3432 
Q 1894 3584 2278 3584 
Q 2916 3584 3314 3078 
Q 3713 2572 3713 1747 
Q 3713 922 3314 415 
Q 2916 -91 2278 -91 
Q 1894 -91 1617 61 
Q 1341 213 1159 525 
z
M 3116 1747 
Q 3116 2381 2855 2742 
Q 2594 3103 2138 3103 
Q 1681 3103 1420 2742 
Q 1159 2381 1159 1747 
Q 1159 1113 1420 752 
Q 1681 391 2138 391 
Q 2594 391 2855 752 
Q 3116 1113 3116 1747 
z
" transform="scale(0.015625)"/>
       <path id="DejaVuSans-72" d="M 2631 2963 
Q 2534 3019 2420 3045 
Q 2306 3072 2169 3072 
Q 1681 3072 1420 2755 
Q 1159 2438 1159 1844 
L 1159 0 
L 581 0 
L 581 3500 
L 1159 3500 
L 1159 2956 
Q 1341 3275 1631 3429 
Q 1922 3584 2338 3584 
Q 2397 3584 2469 3576 
Q 2541 3569 2628 3553 
L 2631 2963 
z
" transform="scale(0.015625)"/>
       <path id="DejaVuSans-36" d="M 2113 2584 
Q 1688 2584 1439 2293 
Q 1191 2003 1191 1497 
Q 1191 994 1439 701 
Q 1688 409 2113 409 
Q 2538 409 2786 701 
Q 3034 994 3034 1497 
Q 3034 2003 2786 2293 
Q 2538 2584 2113 2584 
z
M 3366 4563 
L 3366 3988 
Q 3128 4100 2886 4159 
Q 2644 4219 2406 4219 
Q 1781 4219 1451 3797 
Q 1122 3375 1075 2522 
Q 1259 2794 1537 2939 
Q 1816 3084 2150 3084 
Q 2853 3084 3261 2657 
Q 3669 2231 3669 1497 
Q 3669 778 3244 343 
Q 2819 -91 2113 -91 
Q 1303 -91 875 529 
Q 447 1150 447 2328 
Q 447 3434 972 4092 
Q 1497 4750 2381 4750 
Q 2619 4750 2861 4703 
Q 3103 4656 3366 4563 
z
" transform="scale(0.015625)"/>
       <path id="DejaVuSans-d7" d="M 4488 3438 
L 3059 2003 
L 4488 575 
L 4116 197 
L 2681 1631 
L 1247 197 
L 878 575 
L 2303 2003 
L 878 3438 
L 1247 3816 
L 2681 2381 
L 4116 3816 
L 4488 3438 
z
" transform="scale(0.015625)"/>
       <path id="DejaVuSans-63" d="M 3122 3366 
L 3122 2828 
Q 2878 2963 2633 3030 
Q 2388 3097 2138 3097 
Q 1578 3097 1268 2742 
Q 959 2388 959 1747 
Q 959 1106 1268 751 
Q 1578 397 2138 397 
Q 2388 397 2633 464 
Q 2878 531 3122 666 
L 3122 134 
Q 2881 22 2623 -34 
Q 2366 -91 2075 -91 
Q 1284 -91 818 406 
Q 353 903 353 1747 
Q 353 2603 823 3093 
Q 1294 3584 2113 3584 
Q 2378 3584 2631 3529 
Q 2884 3475 3122 3366 
z
" transform="scale(0.015625)"/>
       <path id="DejaVuSans-6c" d="M 603 4863 
L 1178 4863 
L 1178 0 
L 603 0 
L 603 4863 
z
" transform="scale(0.015625)"/>
       <path id="DejaVuSans-29" d="M 513 4856 
L 1013 4856 
Q 1481 4119 1714 3412 
Q 1947 2706 1947 2009 
Q 1947 1309 1714 600 
Q 1481 -109 1013 -844 
L 513 -844 
Q 928 -128 1133 580 
Q 1338 1288 1338 2009 
Q 1338 2731 1133 3434 
Q 928 4138 513 4856 
z
" transform="scale(0.015625)"/>
      </defs>
      <use xlink:href="#DejaVuSans-44" transform="translate(0 0.015625)"/>
      <use xlink:href="#DejaVuSans-4f" transform="translate(77.001953 0.015625)"/>
      <use xlink:href="#DejaVuSans-53" transform="translate(155.712891 0.015625)"/>
      <use xlink:href="#DejaVuSans-20" transform="translate(219.189453 0.015625)"/>
      <use xlink:href="#DejaVuSans-28" transform="translate(250.976562 0.015625)"/>
      <use xlink:href="#DejaVuSans-73" transform="translate(289.990234 0.015625)"/>
      <use xlink:href="#DejaVuSans-74" transform="translate(342.089844 0.015625)"/>
      <use xlink:href="#DejaVuSans-61" transform="translate(381.298828 0.015625)"/>
      <use xlink:href="#DejaVuSans-74" transform="translate(442.578125 0.015625)"/>
      <use xlink:href="#DejaVuSans-65" transform="translate(481.787109 0.015625)"/>
      <use xlink:href="#DejaVuSans-73" transform="translate(543.310547 0.015625)"/>
      <use xlink:href="#DejaVuSans-2f" transform="translate(595.410156 0.015625)"/>
      <use xlink:href="#DejaVuSans-65" transform="translate(629.101562 0.015625)"/>
      <use xlink:href="#DejaVuSans-56" transform="translate(690.625 0.015625)"/>
      <use xlink:href="#DejaVuSans-20" transform="translate(759.033203 0.015625)"/>
      <use xlink:href="#DejaVuSans-70" transform="translate(790.820312 0.015625)"/>
      <use xlink:href="#DejaVuSans-65" transform="translate(854.296875 0.015625)"/>
      <use xlink:href="#DejaVuSans-72" transform="translate(915.820312 0.015625)"/>
      <use xlink:href="#DejaVuSans-20" transform="translate(956.933594 0.015625)"/>
      <use xlink:href="#DejaVuSans-36" transform="translate(988.720703 0.015625)"/>
      <use xlink:href="#DejaVuSans-d7" transform="translate(1052.34375 0.015625)"/>
      <use xlink:href="#DejaVuSans-36" transform="translate(1136.132812 0.015625)"/>
      <use xlink:href="#DejaVuSans-20" transform="translate(1199.755859 0.015625)"/>
      <use xlink:href="#DejaVuSans-63" transform="translate(1231.542969 0.015625)"/>
      <use xlink:href="#DejaVuSans-65" transform="translate(1286.523438 0.015625)"/>
      <use xlink:href="#DejaVuSans-6c" transform="translate(1348.046875 0.015625)"/>
      <use xlink:href="#DejaVuSans-6c" transform="translate(1375.830078 0.015625)"/>
      <use xlink:href="#DejaVuSans-29" transform="translate(1403.613281 0.015625)"/>
     </g>
    </g>
   </g>
   <g id="line2d_16">
    <path d="M 53.93 220.027527 
L 55.697157 221.530205 
L 56.580736 222.583257 
L 57.464314 223.81151 
L 58.347893 224.573992 
L 59.231471 224.227742 
L 60.11505 222.517302 
L 60.998629 220.058598 
L 61.882207 218.164749 
L 62.765786 217.170577 
L 63.649364 216.898018 
L 64.532943 217.266806 
L 65.416521 218.488354 
L 66.3001 221.024271 
L 68.067257 228.944385 
L 68.950836 231.31854 
L 69.834414 232.362749 
L 70.717993 232.666083 
L 71.601571 232.500231 
L 72.48515 232.014016 
L 74.252307 230.47529 
L 76.019464 228.27765 
L 77.786621 225.521364 
L 79.553779 222.055613 
L 80.437357 219.984352 
L 82.204514 214.952011 
L 83.088093 211.862457 
L 83.971671 208.220393 
L 84.85525 203.90548 
L 85.738829 198.724527 
L 88.389564 180.408272 
L 89.273143 179.994802 
L 90.156721 183.483953 
L 91.923879 191.423014 
L 92.807457 194.662299 
L 93.691036 197.346432 
L 94.574614 199.652398 
L 95.458193 201.533329 
L 97.22535 204.591941 
L 98.992507 207.027045 
L 100.759664 208.923709 
L 103.4104 211.083829 
L 105.177557 212.161973 
L 106.944714 212.988504 
L 109.59545 213.853596 
L 111.362607 214.145941 
L 113.129764 214.230858 
L 114.896921 214.032394 
L 116.664079 213.498296 
L 119.314814 212.240918 
L 120.198393 212.567934 
L 123.732707 215.535814 
L 125.499864 216.635217 
L 127.267021 217.531734 
L 129.034179 218.32699 
L 133.452071 219.865379 
L 137.869964 221.126338 
L 147.589329 223.495561 
L 152.007221 224.656854 
L 159.07585 227.031569 
L 163.493743 228.953332 
L 175.863843 234.996066 
L 180.281736 236.853227 
L 188.233943 239.546784 
L 192.651836 240.679017 
L 198.836886 241.880477 
L 202.3712 242.403192 
L 206.789093 242.871886 
L 212.974143 243.184436 
L 222.693507 243.223616 
L 224.460664 243.559878 
L 225.344243 243.978184 
L 226.227821 244.728912 
L 227.1114 246.014246 
L 228.878557 249.594567 
L 229.762136 252.017979 
L 231.529293 258.637061 
L 232.412871 260.906873 
L 233.29645 262.306449 
L 234.180029 263.196961 
L 235.063607 263.798651 
L 236.830764 264.548593 
L 238.597921 264.993578 
L 241.248657 265.399794 
L 245.66655 265.772598 
L 252.735179 266.070619 
L 264.2217 266.296912 
L 286.311164 266.477482 
L 333.140829 266.598312 
L 420.615107 266.586454 
L 480.69845 266.39476 
L 504.555071 266.13601 
L 513.390857 265.875229 
L 517.80875 265.54592 
L 519.575907 265.262428 
L 520.459486 265.031809 
L 521.343064 264.683324 
L 522.226643 264.125794 
L 523.110221 263.252885 
L 523.9938 262.193928 
L 524.877379 261.344184 
L 525.760957 260.792823 
L 527.528114 260.162101 
L 530.17885 259.626871 
L 539.898214 258.377086 
L 547.850421 257.319169 
L 554.035471 256.288692 
L 559.336943 255.111431 
L 561.987679 254.303578 
L 563.754836 253.594497 
L 565.521993 252.658765 
L 566.405571 252.068759 
L 567.28915 251.326479 
L 568.172729 250.354854 
L 569.056307 249.018805 
L 569.939886 247.053508 
L 570.823464 243.975088 
L 571.707043 239.157972 
L 572.590621 232.997659 
L 573.4742 227.711724 
L 574.357779 224.188252 
L 575.241357 221.793798 
L 576.124936 220.038262 
L 577.892093 217.42365 
L 579.65925 215.389793 
L 583.193564 211.736068 
L 588.495036 206.247637 
L 591.145771 203.131712 
L 593.796507 199.726395 
L 596.447243 195.760473 
L 598.2144 192.785188 
L 599.981557 189.389358 
L 601.748714 185.522739 
L 603.515871 181.034781 
L 605.283029 175.615565 
L 606.166607 172.592015 
L 607.050186 169.153742 
L 608.817343 160.864612 
L 609.700921 155.861673 
L 610.5845 150.049437 
L 611.468079 143.365915 
L 613.235236 128.27104 
L 615.002393 114.583331 
L 615.885971 105.377016 
L 616.76955 94.746279 
L 617.653129 87.667545 
L 618.536707 88.95369 
L 620.303864 99.854315 
L 621.187443 103.338605 
L 622.071021 104.887587 
L 622.9546 104.735355 
L 623.838179 103.764143 
L 624.721757 105.107629 
L 625.605336 112.889453 
L 626.488914 128.921093 
L 629.13965 202.938091 
L 630.023229 214.695957 
L 630.906807 221.536569 
L 631.790386 225.632623 
L 632.673964 228.141713 
L 633.557543 229.655894 
L 634.441121 230.506485 
L 635.3247 230.910834 
L 636.208279 230.996263 
L 637.091857 230.822403 
L 637.975436 230.453686 
L 639.742593 229.274086 
L 641.50975 227.633435 
L 643.276907 225.619045 
L 645.044064 223.156257 
L 646.811221 220.447013 
L 648.578379 217.20831 
L 650.345536 213.535508 
L 652.112693 209.24983 
L 653.87985 204.199506 
L 655.647007 198.095038 
L 657.414164 190.479996 
L 658.297743 185.886355 
L 659.181321 180.58242 
L 660.0649 174.361809 
L 662.715636 151.865924 
L 663.599214 148.230781 
L 664.482793 146.661722 
L 665.366371 145.388942 
L 666.24995 144.967314 
L 667.133529 145.195533 
L 668.900686 145.986104 
L 669.784264 146.233194 
L 670.667843 146.339932 
L 672.435 146.044421 
L 672.435 146.044421 
" clip-path="url(#pf2f8cd8d74)" style="fill: none; stroke-dasharray: 1,1.65; stroke-dashoffset: 0; stroke: #999999"/>
   </g>
   <g id="line2d_17">
    <path d="M 53.93 224.511803 
L 54.813579 225.429908 
L 55.697157 227.248558 
L 56.580736 229.499851 
L 57.464314 230.253442 
L 58.347893 227.835017 
L 59.231471 223.218891 
L 60.11505 217.89017 
L 60.998629 216.147306 
L 61.882207 217.445601 
L 63.649364 220.912862 
L 64.532943 223.620287 
L 65.416521 228.270458 
L 66.3001 235.560485 
L 67.183679 241.29812 
L 68.067257 240.3441 
L 68.950836 236.881277 
L 69.834414 234.371596 
L 71.601571 230.932245 
L 76.019464 223.05777 
L 76.903043 221.016749 
L 78.6702 216.256217 
L 79.553779 213.411376 
L 80.437357 210.129578 
L 81.320936 206.409683 
L 82.204514 202.116718 
L 83.971671 191.117755 
L 85.738829 177.870805 
L 86.622407 172.885472 
L 87.505986 174.309889 
L 89.273143 199.049932 
L 90.156721 201.990748 
L 91.0403 202.20053 
L 91.923879 203.07617 
L 92.807457 203.633633 
L 93.691036 204.861837 
L 94.574614 205.708947 
L 95.458193 206.371346 
L 96.341771 207.634564 
L 97.22535 208.615736 
L 99.876086 210.69895 
L 100.759664 211.117851 
L 102.526821 212.328832 
L 104.293979 213.130986 
L 106.061136 213.875046 
L 107.828293 214.123469 
L 109.59545 214.460903 
L 111.362607 214.451402 
L 113.129764 214.311595 
L 114.013343 214.094105 
L 116.664079 212.955718 
L 117.547657 212.489481 
L 118.431236 212.415863 
L 119.314814 213.496183 
L 120.198393 215.001297 
L 121.081971 215.707154 
L 122.849129 216.600595 
L 124.616286 217.36009 
L 125.499864 217.902428 
L 126.383443 218.098793 
L 127.267021 218.621656 
L 129.034179 219.223792 
L 130.801336 219.787248 
L 131.684914 220.205722 
L 132.568493 220.24392 
L 134.33565 220.839553 
L 136.102807 221.34098 
L 138.753543 221.968656 
L 145.822171 223.856712 
L 146.70575 223.897946 
L 147.589329 224.282924 
L 149.356486 224.660892 
L 150.240064 224.882759 
L 152.8908 225.941248 
L 153.774379 226.028478 
L 154.657957 226.474761 
L 156.425114 227.119473 
L 157.308693 227.577176 
L 158.192271 227.636532 
L 159.07585 228.350525 
L 159.959429 228.590076 
L 160.843007 229.144618 
L 161.726586 229.547052 
L 162.610164 229.526717 
L 163.493743 230.358948 
L 164.377321 230.920536 
L 165.2609 231.127643 
L 166.144479 231.674998 
L 167.028057 231.862876 
L 167.911636 232.625923 
L 170.562371 233.814946 
L 171.44595 234.116231 
L 173.213107 235.156932 
L 174.096686 235.389714 
L 174.980264 235.849717 
L 176.747421 236.515117 
L 179.398157 237.647132 
L 180.281736 237.774487 
L 182.048893 238.54032 
L 184.699629 239.327155 
L 188.233943 240.407309 
L 189.117521 240.440619 
L 192.651836 241.364016 
L 194.418993 241.682286 
L 196.18615 242.012136 
L 200.604043 242.67496 
L 203.254779 242.972805 
L 205.021936 243.136004 
L 206.789093 243.277071 
L 209.439829 243.411503 
L 212.090564 243.560259 
L 213.857721 243.516928 
L 214.7413 243.607815 
L 216.508457 243.557692 
L 218.275614 243.62862 
L 219.159193 243.567403 
L 220.92635 243.686549 
L 222.693507 244.168399 
L 223.577086 244.551682 
L 224.460664 245.337495 
L 225.344243 246.602011 
L 226.227821 248.797449 
L 227.1114 251.766056 
L 228.878557 256.139004 
L 230.645714 263.225473 
L 231.529293 264.473797 
L 243.015814 265.779795 
L 250.084443 266.072649 
L 262.454543 266.308939 
L 285.427586 266.485849 
L 334.024407 266.60082 
L 421.498686 266.575974 
L 478.047714 266.374674 
L 501.020757 266.099657 
L 509.856543 265.813372 
L 514.274436 265.472708 
L 516.925171 265.018473 
L 518.692329 264.380291 
L 519.575907 263.810351 
L 520.459486 262.887403 
L 521.343064 261.301749 
L 522.226643 258.614442 
L 523.110221 255.435641 
L 523.9938 255.281668 
L 524.877379 257.281854 
L 525.760957 258.488928 
L 526.644536 258.942997 
L 528.411693 258.991879 
L 532.829586 258.427229 
L 534.596743 258.118276 
L 539.898214 257.248662 
L 540.781793 256.98651 
L 542.54895 256.732077 
L 544.316107 256.233575 
L 545.199686 256.179956 
L 551.384736 254.382711 
L 555.802629 252.19015 
L 556.686207 251.674348 
L 557.569786 250.798724 
L 558.453364 250.200692 
L 560.220521 248.147611 
L 561.1041 246.806012 
L 562.871257 243.084696 
L 563.754836 240.229902 
L 564.638414 236.636251 
L 565.521993 231.483433 
L 566.405571 223.960623 
L 568.172729 202.434748 
L 569.056307 199.856705 
L 569.939886 206.307669 
L 570.823464 216.211678 
L 571.707043 228.18294 
L 572.590621 237.471944 
L 573.4742 237.272966 
L 575.241357 227.328421 
L 576.124936 223.643014 
L 577.008514 220.518475 
L 577.892093 218.135692 
L 579.65925 214.370806 
L 582.309986 210.085723 
L 585.8443 205.368557 
L 587.611457 203.214723 
L 590.262193 199.487261 
L 592.02935 197.216265 
L 593.796507 194.319999 
L 597.330821 188.114751 
L 599.981557 182.317989 
L 602.632293 175.145431 
L 605.283029 165.849558 
L 607.050186 157.450713 
L 608.817343 147.148159 
L 610.5845 134.066721 
L 611.468079 126.489244 
L 612.351657 120.221627 
L 613.235236 116.364648 
L 614.118814 109.664489 
L 615.002393 98.157701 
L 615.885971 88.165994 
L 616.76955 89.036071 
L 617.653129 105.443091 
L 618.536707 116.923915 
L 619.420286 117.128303 
L 620.303864 115.376109 
L 621.187443 114.383595 
L 622.071021 114.90635 
L 622.9546 118.703372 
L 623.838179 129.878024 
L 624.721757 150.22724 
L 625.605336 175.400443 
L 627.372493 237.010226 
L 628.256071 241.952301 
L 629.13965 235.27816 
L 630.023229 230.218695 
L 630.906807 227.472372 
L 631.790386 225.825936 
L 633.557543 223.576469 
L 634.441121 222.521827 
L 635.3247 221.90974 
L 639.742593 217.600638 
L 640.626171 216.868429 
L 642.393329 214.550955 
L 643.276907 213.074522 
L 645.044064 210.906434 
L 645.927643 209.177865 
L 647.6948 205.390288 
L 648.578379 203.789604 
L 649.461957 201.208771 
L 650.345536 199.281854 
L 652.112693 194.569978 
L 653.87985 189.242494 
L 655.647007 183.097729 
L 657.414164 175.832632 
L 658.297743 171.60441 
L 660.948479 157.386995 
L 661.832057 155.803251 
L 662.715636 158.842734 
L 663.599214 159.451005 
L 664.482793 156.445921 
L 665.366371 156.813564 
L 666.24995 156.397247 
L 667.133529 154.789421 
L 668.017107 153.554339 
L 668.900686 152.059114 
L 670.667843 149.837378 
L 671.551421 149.391775 
L 672.435 148.620049 
L 672.435 148.620049 
" clip-path="url(#pf2f8cd8d74)" style="fill: none; stroke: #2e6da4; stroke-width: 1.5; stroke-linecap: square"/>
   </g>
   <g id="line2d_18">
    <path d="M 53.93 225.386567 
L 54.813579 226.339381 
L 55.697157 228.272715 
L 56.580736 230.560079 
L 57.464314 231.109769 
L 58.347893 228.305706 
L 60.11505 217.809998 
L 60.998629 216.311445 
L 61.882207 217.952393 
L 63.649364 221.84134 
L 64.532943 224.76687 
L 65.416521 229.722964 
L 66.3001 237.339118 
L 67.183679 242.999815 
L 68.067257 241.412508 
L 68.950836 237.32584 
L 69.834414 234.44671 
L 70.717993 232.381176 
L 72.48515 228.96045 
L 73.368729 227.515255 
L 76.019464 222.272485 
L 76.903043 220.119772 
L 78.6702 215.141615 
L 79.553779 212.168055 
L 81.320936 204.899482 
L 82.204514 200.481959 
L 83.971671 189.478411 
L 85.738829 177.108315 
L 86.622407 173.176034 
L 87.505986 175.87936 
L 89.273143 201.031911 
L 90.156721 203.333988 
L 91.0403 203.110866 
L 91.923879 203.728694 
L 92.807457 204.091853 
L 93.691036 205.253772 
L 94.574614 205.998365 
L 95.458193 206.585158 
L 96.341771 207.833959 
L 97.22535 208.780794 
L 99.876086 210.768714 
L 100.759664 211.162578 
L 102.526821 212.359377 
L 104.293979 213.123253 
L 106.061136 213.861159 
L 106.944714 213.898065 
L 109.59545 214.401184 
L 111.362607 214.351244 
L 113.129764 214.194206 
L 114.013343 213.96394 
L 117.547657 212.364505 
L 118.431236 212.37595 
L 119.314814 213.638208 
L 120.198393 215.267509 
L 121.081971 215.964998 
L 122.849129 216.771917 
L 124.616286 217.497836 
L 125.499864 218.044348 
L 126.383443 218.200694 
L 127.267021 218.745919 
L 129.034179 219.335839 
L 129.917757 219.538376 
L 131.684914 220.321146 
L 132.568493 220.33607 
L 133.452071 220.703245 
L 141.404279 222.837612 
L 142.287857 222.94934 
L 145.822171 223.995646 
L 146.70575 224.026012 
L 147.589329 224.426273 
L 149.356486 224.797226 
L 150.240064 225.021613 
L 152.8908 226.11423 
L 153.774379 226.188864 
L 154.657957 226.649075 
L 156.425114 227.29341 
L 157.308693 227.764118 
L 158.192271 227.806133 
L 159.07585 228.547741 
L 159.959429 228.763758 
L 160.843007 229.346177 
L 161.726586 229.736154 
L 162.610164 229.693841 
L 163.493743 230.566758 
L 164.377321 231.118677 
L 165.2609 231.301194 
L 166.144479 231.866255 
L 167.028057 232.031742 
L 167.911636 232.821706 
L 172.329529 234.871615 
L 173.213107 235.315994 
L 174.096686 235.524298 
L 174.980264 235.995701 
L 176.747421 236.645611 
L 179.398157 237.766727 
L 180.281736 237.873235 
L 182.048893 238.646402 
L 183.81605 239.173316 
L 188.233943 240.48394 
L 189.117521 240.497303 
L 192.651836 241.415165 
L 194.418993 241.732038 
L 196.18615 242.049708 
L 205.905514 243.245345 
L 209.439829 243.386135 
L 212.090564 243.513841 
L 213.857721 243.456464 
L 214.7413 243.561319 
L 216.508457 243.493376 
L 218.275614 243.56898 
L 219.159193 243.518123 
L 220.92635 243.674779 
L 222.693507 244.245958 
L 223.577086 244.709075 
L 224.460664 245.605117 
L 225.344243 247.010612 
L 226.227821 249.39076 
L 227.1114 252.554503 
L 228.878557 257.124335 
L 230.645714 264.170166 
L 231.529293 265.13628 
L 233.29645 264.924916 
L 235.063607 265.071702 
L 240.365079 265.631489 
L 246.550129 265.967759 
L 256.269493 266.221864 
L 273.941064 266.421396 
L 310.167786 266.56561 
L 385.271964 266.610761 
L 460.376143 266.462841 
L 492.184971 266.213316 
L 505.43865 265.922353 
L 511.6237 265.588164 
L 514.274436 265.296811 
L 516.041593 264.966257 
L 517.80875 264.37966 
L 518.692329 263.886018 
L 519.575907 263.126719 
L 520.459486 261.879574 
L 521.343064 259.712152 
L 523.110221 251.9945 
L 523.9938 252.682992 
L 524.877379 256.026328 
L 525.760957 257.822538 
L 526.644536 258.452974 
L 527.528114 258.533903 
L 530.17885 258.360525 
L 531.062429 258.00171 
L 535.480321 256.944466 
L 536.3639 256.671756 
L 537.247479 256.564148 
L 539.014636 255.823325 
L 539.898214 255.635649 
L 540.781793 255.138788 
L 541.665371 254.928209 
L 543.432529 253.968987 
L 544.316107 253.372527 
L 545.199686 253.04032 
L 546.966843 251.287729 
L 547.850421 250.346676 
L 548.734 249.177042 
L 549.617579 247.561832 
L 550.501157 245.499629 
L 551.384736 242.42492 
L 552.268314 237.935839 
L 554.035471 225.693844 
L 554.91905 222.964072 
L 555.802629 225.319302 
L 556.686207 230.175683 
L 557.569786 233.528392 
L 558.453364 235.83032 
L 559.336943 236.768796 
L 560.220521 237.185261 
L 561.987679 237.359825 
L 562.871257 237.760685 
L 563.754836 237.899913 
L 564.638414 238.332126 
L 565.521993 238.888576 
L 566.405571 239.179467 
L 569.939886 241.331867 
L 570.823464 242.483209 
L 571.707043 244.205511 
L 572.590621 243.865645 
L 573.4742 239.047116 
L 574.357779 232.743847 
L 575.241357 227.904123 
L 576.124936 224.302253 
L 577.008514 221.276812 
L 577.892093 218.989216 
L 579.65925 215.4359 
L 582.309986 211.263837 
L 584.960721 207.830871 
L 590.262193 200.999864 
L 592.02935 198.644698 
L 593.796507 195.860908 
L 598.2144 187.885838 
L 600.865136 181.677907 
L 602.632293 176.827467 
L 605.283029 167.579506 
L 607.050186 159.297875 
L 608.817343 149.058977 
L 610.5845 136.147824 
L 611.468079 128.628489 
L 612.351657 122.331762 
L 613.235236 118.268847 
L 614.118814 111.291229 
L 615.002393 99.669557 
L 615.885971 89.626929 
L 616.76955 90.338712 
L 617.653129 106.426063 
L 618.536707 117.531104 
L 619.420286 117.565754 
L 620.303864 115.857699 
L 621.187443 114.973899 
L 622.071021 115.595324 
L 622.9546 119.480215 
L 623.838179 130.682687 
L 624.721757 150.896146 
L 625.605336 175.833309 
L 627.372493 236.056666 
L 628.256071 239.856886 
L 629.13965 232.413174 
L 630.023229 226.810921 
L 630.906807 223.741619 
L 631.790386 221.926006 
L 632.673964 220.630374 
L 634.441121 218.834063 
L 635.3247 218.579618 
L 637.975436 216.825655 
L 638.859014 216.554277 
L 639.742593 215.904671 
L 640.626171 215.405302 
L 643.276907 212.404709 
L 645.044064 210.757468 
L 647.6948 206.506481 
L 648.578379 205.327869 
L 649.461957 203.334601 
L 650.345536 201.857101 
L 652.112693 197.89843 
L 652.996271 195.578412 
L 654.763429 190.020081 
L 656.530586 183.137036 
L 658.297743 174.510476 
L 660.948479 158.979933 
L 661.832057 156.699428 
L 662.715636 158.959604 
L 663.599214 159.129057 
L 664.482793 156.058714 
L 665.366371 156.418127 
L 666.24995 156.077789 
L 667.133529 154.572195 
L 668.017107 153.408827 
L 668.900686 151.966317 
L 670.667843 149.849527 
L 671.551421 149.436246 
L 672.435 148.68633 
L 672.435 148.68633 
" clip-path="url(#pf2f8cd8d74)" style="fill: none; stroke-dasharray: 5.55,2.4; stroke-dashoffset: 0; stroke: #c1602f; stroke-width: 1.5"/>
   </g>
   <g id="line2d_19">
    <path d="M 230.645714 275.566 
L 230.645714 78.72 
" clip-path="url(#pf2f8cd8d74)" style="fill: none; stroke-dasharray: 2.96,1.28; stroke-dashoffset: 0; stroke: #777777; stroke-width: 0.8"/>
   </g>
   <g id="line2d_20">
    <path d="M 523.481324 275.566 
L 523.481324 78.72 
" clip-path="url(#pf2f8cd8d74)" style="fill: none; stroke-dasharray: 2.96,1.28; stroke-dashoffset: 0; stroke: #777777; stroke-width: 0.8"/>
   </g>
   <g id="patch_3">
    <path d="M 53.93 275.566 
L 53.93 78.72 
" style="fill: none; stroke: #000000; stroke-width: 0.8; stroke-linejoin: miter; stroke-linecap: square"/>
   </g>
   <g id="patch_4">
    <path d="M 672.435 275.566 
L 672.435 78.72 
" style="fill: none; stroke: #000000; stroke-width: 0.8; stroke-linejoin: miter; stroke-linecap: square"/>
   </g>
   <g id="patch_5">
    <path d="M 53.93 275.566 
L 672.435 275.566 
" style="fill: none; stroke: #000000; stroke-width: 0.8; stroke-linejoin: miter; stroke-linecap: square"/>
   </g>
   <g id="patch_6">
    <path d="M 53.93 78.72 
L 672.435 78.72 
" style="fill: none; stroke: #000000; stroke-width: 0.8; stroke-linejoin: miter; stroke-linecap: square"/>
   </g>
   <g id="text_9">
    <!-- O$_S$ (A1-augmented) -->
    <g transform="translate(309.2825 72.72) scale(0.11 -0.11)">
     <defs>
      <path id="DejaVuSans-Oblique-53" d="M 3859 4513 
L 3738 3897 
Q 3422 4066 3111 4152 
Q 2800 4238 2509 4238 
Q 1944 4238 1609 3991 
Q 1275 3744 1275 3334 
Q 1275 3109 1398 2989 
Q 1522 2869 2034 2731 
L 2413 2638 
Q 3053 2472 3303 2217 
Q 3553 1963 3553 1503 
Q 3553 797 2998 353 
Q 2444 -91 1538 -91 
Q 1166 -91 791 -17 
Q 416 56 38 206 
L 166 856 
Q 513 641 861 531 
Q 1209 422 1556 422 
Q 2147 422 2503 684 
Q 2859 947 2859 1369 
Q 2859 1650 2717 1795 
Q 2575 1941 2106 2059 
L 1728 2156 
Q 1081 2325 845 2545 
Q 609 2766 609 3163 
Q 609 3859 1145 4304 
Q 1681 4750 2541 4750 
Q 2875 4750 3203 4690 
Q 3531 4631 3859 4513 
z
" transform="scale(0.015625)"/>
      <path id="DejaVuSans-41" d="M 2188 4044 
L 1331 1722 
L 3047 1722 
L 2188 4044 
z
M 1831 4666 
L 2547 4666 
L 4325 0 
L 3669 0 
L 3244 1197 
L 1141 1197 
L 716 0 
L 50 0 
L 1831 4666 
z
" transform="scale(0.015625)"/>
      <path id="DejaVuSans-2d" d="M 313 2009 
L 1997 2009 
L 1997 1497 
L 313 1497 
L 313 2009 
z
" transform="scale(0.015625)"/>
      <path id="DejaVuSans-75" d="M 544 1381 
L 544 3500 
L 1119 3500 
L 1119 1403 
Q 1119 906 1312 657 
Q 1506 409 1894 409 
Q 2359 409 2629 706 
Q 2900 1003 2900 1516 
L 2900 3500 
L 3475 3500 
L 3475 0 
L 2900 0 
L 2900 538 
Q 2691 219 2414 64 
Q 2138 -91 1772 -91 
Q 1169 -91 856 284 
Q 544 659 544 1381 
z
M 1991 3584 
L 1991 3584 
z
" transform="scale(0.015625)"/>
      <path id="DejaVuSans-67" d="M 2906 1791 
Q 2906 2416 2648 2759 
Q 2391 3103 1925 3103 
Q 1463 3103 1205 2759 
Q 947 2416 947 1791 
Q 947 1169 1205 825 
Q 1463 481 1925 481 
Q 2391 481 2648 825 
Q 2906 1169 2906 1791 
z
M 3481 434 
Q 3481 -459 3084 -895 
Q 2688 -1331 1869 -1331 
Q 1566 -1331 1297 -1286 
Q 1028 -1241 775 -1147 
L 775 -588 
Q 1028 -725 1275 -790 
Q 1522 -856 1778 -856 
Q 2344 -856 2625 -561 
Q 2906 -266 2906 331 
L 2906 616 
Q 2728 306 2450 153 
Q 2172 0 1784 0 
Q 1141 0 747 490 
Q 353 981 353 1791 
Q 353 2603 747 3093 
Q 1141 3584 1784 3584 
Q 2172 3584 2450 3431 
Q 2728 3278 2906 2969 
L 2906 3500 
L 3481 3500 
L 3481 434 
z
" transform="scale(0.015625)"/>
      <path id="DejaVuSans-6d" d="M 3328 2828 
Q 3544 3216 3844 3400 
Q 4144 3584 4550 3584 
Q 5097 3584 5394 3201 
Q 5691 2819 5691 2113 
L 5691 0 
L 5113 0 
L 5113 2094 
Q 5113 2597 4934 2840 
Q 4756 3084 4391 3084 
Q 3944 3084 3684 2787 
Q 3425 2491 3425 1978 
L 3425 0 
L 2847 0 
L 2847 2094 
Q 2847 2600 2669 2842 
Q 2491 3084 2119 3084 
Q 1678 3084 1418 2786 
Q 1159 2488 1159 1978 
L 1159 0 
L 581 0 
L 581 3500 
L 1159 3500 
L 1159 2956 
Q 1356 3278 1631 3431 
Q 1906 3584 2284 3584 
Q 2666 3584 2933 3390 
Q 3200 3197 3328 2828 
z
" transform="scale(0.015625)"/>
      <path id="DejaVuSans-6e" d="M 3513 2113 
L 3513 0 
L 2938 0 
L 2938 2094 
Q 2938 2591 2744 2837 
Q 2550 3084 2163 3084 
Q 1697 3084 1428 2787 
Q 1159 2491 1159 1978 
L 1159 0 
L 581 0 
L 581 3500 
L 1159 3500 
L 1159 2956 
Q 1366 3272 1645 3428 
Q 1925 3584 2291 3584 
Q 2894 3584 3203 3211 
Q 3513 2838 3513 2113 
z
" transform="scale(0.015625)"/>
      <path id="DejaVuSans-64" d="M 2906 2969 
L 2906 4863 
L 3481 4863 
L 3481 0 
L 2906 0 
L 2906 525 
Q 2725 213 2448 61 
Q 2172 -91 1784 -91 
Q 1150 -91 751 415 
Q 353 922 353 1747 
Q 353 2572 751 3078 
Q 1150 3584 1784 3584 
Q 2172 3584 2448 3432 
Q 2725 3281 2906 2969 
z
M 947 1747 
Q 947 1113 1208 752 
Q 1469 391 1925 391 
Q 2381 391 2643 752 
Q 2906 1113 2906 1747 
Q 2906 2381 2643 2742 
Q 2381 3103 1925 3103 
Q 1469 3103 1208 2742 
Q 947 2381 947 1747 
z
" transform="scale(0.015625)"/>
     </defs>
     <use xlink:href="#DejaVuSans-4f" transform="translate(0 0.015625)"/>
     <use xlink:href="#DejaVuSans-Oblique-53" transform="translate(79.667969 -16.390625) scale(0.7)"/>
     <use xlink:href="#DejaVuSans-20" transform="translate(126.835938 0.015625)"/>
     <use xlink:href="#DejaVuSans-28" transform="translate(158.623047 0.015625)"/>
     <use xlink:href="#DejaVuSans-41" transform="translate(197.636719 0.015625)"/>
     <use xlink:href="#DejaVuSans-31" transform="translate(266.044922 0.015625)"/>
     <use xlink:href="#DejaVuSans-2d" transform="translate(329.667969 0.015625)"/>
     <use xlink:href="#DejaVuSans-61" transform="translate(365.751953 0.015625)"/>
     <use xlink:href="#DejaVuSans-75" transform="translate(427.03125 0.015625)"/>
     <use xlink:href="#DejaVuSans-67" transform="translate(490.410156 0.015625)"/>
     <use xlink:href="#DejaVuSans-6d" transform="translate(553.886719 0.015625)"/>
     <use xlink:href="#DejaVuSans-65" transform="translate(651.298828 0.015625)"/>
     <use xlink:href="#DejaVuSans-6e" transform="translate(712.822266 0.015625)"/>
     <use xlink:href="#DejaVuSans-74" transform="translate(776.201172 0.015625)"/>
     <use xlink:href="#DejaVuSans-65" transform="translate(815.410156 0.015625)"/>
     <use xlink:href="#DejaVuSans-64" transform="translate(876.933594 0.015625)"/>
     <use xlink:href="#DejaVuSans-29" transform="translate(940.410156 0.015625)"/>
    </g>
   </g>
   <g id="legend_1">
    <g id="line2d_21">
     <path d="M 62.03 90.508594 
L 71.03 90.508594 
L 80.03 90.508594 
" style="fill: none; stroke-dasharray: 1,1.65; stroke-dashoffset: 0; stroke: #999999"/>
    </g>
    <g id="text_10">
     <!-- host (no defect) -->
     <g transform="translate(87.23 93.658594) scale(0.09 -0.09)">
      <defs>
       <path id="DejaVuSans-68" d="M 3513 2113 
L 3513 0 
L 2938 0 
L 2938 2094 
Q 2938 2591 2744 2837 
Q 2550 3084 2163 3084 
Q 1697 3084 1428 2787 
Q 1159 2491 1159 1978 
L 1159 0 
L 581 0 
L 581 4863 
L 1159 4863 
L 1159 2956 
Q 1366 3272 1645 3428 
Q 1925 3584 2291 3584 
Q 2894 3584 3203 3211 
Q 3513 2838 3513 2113 
z
" transform="scale(0.015625)"/>
       <path id="DejaVuSans-6f" d="M 1959 3097 
Q 1497 3097 1228 2736 
Q 959 2375 959 1747 
Q 959 1119 1226 758 
Q 1494 397 1959 397 
Q 2419 397 2687 759 
Q 2956 1122 2956 1747 
Q 2956 2369 2687 2733 
Q 2419 3097 1959 3097 
z
M 1959 3584 
Q 2709 3584 3137 3096 
Q 3566 2609 3566 1747 
Q 3566 888 3137 398 
Q 2709 -91 1959 -91 
Q 1206 -91 779 398 
Q 353 888 353 1747 
Q 353 2609 779 3096 
Q 1206 3584 1959 3584 
z
" transform="scale(0.015625)"/>
       <path id="DejaVuSans-66" d="M 2375 4863 
L 2375 4384 
L 1825 4384 
Q 1516 4384 1395 4259 
Q 1275 4134 1275 3809 
L 1275 3500 
L 2222 3500 
L 2222 3053 
L 1275 3053 
L 1275 0 
L 697 0 
L 697 3053 
L 147 3053 
L 147 3500 
L 697 3500 
L 697 3744 
Q 697 4328 969 4595 
Q 1241 4863 1831 4863 
L 2375 4863 
z
" transform="scale(0.015625)"/>
      </defs>
      <use xlink:href="#DejaVuSans-68"/>
      <use xlink:href="#DejaVuSans-6f" transform="translate(63.378906 0)"/>
      <use xlink:href="#DejaVuSans-73" transform="translate(124.560547 0)"/>
      <use xlink:href="#DejaVuSans-74" transform="translate(176.660156 0)"/>
      <use xlink:href="#DejaVuSans-20" transform="translate(215.869141 0)"/>
      <use xlink:href="#DejaVuSans-28" transform="translate(247.65625 0)"/>
      <use xlink:href="#DejaVuSans-6e" transform="translate(286.669922 0)"/>
      <use xlink:href="#DejaVuSans-6f" transform="translate(350.048828 0)"/>
      <use xlink:href="#DejaVuSans-20" transform="translate(411.230469 0)"/>
      <use xlink:href="#DejaVuSans-64" transform="translate(443.017578 0)"/>
      <use xlink:href="#DejaVuSans-65" transform="translate(506.494141 0)"/>
      <use xlink:href="#DejaVuSans-66" transform="translate(568.017578 0)"/>
      <use xlink:href="#DejaVuSans-65" transform="translate(603.222656 0)"/>
      <use xlink:href="#DejaVuSans-63" transform="translate(664.746094 0)"/>
      <use xlink:href="#DejaVuSans-74" transform="translate(719.726562 0)"/>
      <use xlink:href="#DejaVuSans-29" transform="translate(758.935547 0)"/>
     </g>
    </g>
    <g id="line2d_22">
     <path d="M 62.03 103.720312 
L 71.03 103.720312 
L 80.03 103.720312 
" style="fill: none; stroke: #2e6da4; stroke-width: 1.5; stroke-linecap: square"/>
    </g>
    <g id="text_11">
     <!-- $\omega_0$ = VBM pin -->
     <g transform="translate(87.23 106.870312) scale(0.09 -0.09)">
      <defs>
       <path id="DejaVuSans-Oblique-3c9" d="M 1369 -91 
Q 72 -91 434 1766 
Q 575 2500 1256 3500 
L 1875 3500 
Q 1231 2500 1088 1750 
Q 819 397 1519 397 
Q 2166 397 2478 2078 
L 3009 2078 
Q 2669 388 3316 397 
Q 4013 403 4275 1750 
Q 4419 2500 4169 3500 
L 4788 3500 
Q 5075 2500 4934 1766 
Q 4578 -94 3278 -91 
Q 2428 -88 2503 844 
Q 2194 -91 1369 -91 
z
" transform="scale(0.015625)"/>
       <path id="DejaVuSans-3d" d="M 678 2906 
L 4684 2906 
L 4684 2381 
L 678 2381 
L 678 2906 
z
M 678 1631 
L 4684 1631 
L 4684 1100 
L 678 1100 
L 678 1631 
z
" transform="scale(0.015625)"/>
       <path id="DejaVuSans-42" d="M 1259 2228 
L 1259 519 
L 2272 519 
Q 2781 519 3026 730 
Q 3272 941 3272 1375 
Q 3272 1813 3026 2020 
Q 2781 2228 2272 2228 
L 1259 2228 
z
M 1259 4147 
L 1259 2741 
L 2194 2741 
Q 2656 2741 2882 2914 
Q 3109 3088 3109 3444 
Q 3109 3797 2882 3972 
Q 2656 4147 2194 4147 
L 1259 4147 
z
M 628 4666 
L 2241 4666 
Q 2963 4666 3353 4366 
Q 3744 4066 3744 3513 
Q 3744 3084 3544 2831 
Q 3344 2578 2956 2516 
Q 3422 2416 3680 2098 
Q 3938 1781 3938 1306 
Q 3938 681 3513 340 
Q 3088 0 2303 0 
L 628 0 
L 628 4666 
z
" transform="scale(0.015625)"/>
       <path id="DejaVuSans-4d" d="M 628 4666 
L 1569 4666 
L 2759 1491 
L 3956 4666 
L 4897 4666 
L 4897 0 
L 4281 0 
L 4281 4097 
L 3078 897 
L 2444 897 
L 1241 4097 
L 1241 0 
L 628 0 
L 628 4666 
z
" transform="scale(0.015625)"/>
       <path id="DejaVuSans-69" d="M 603 3500 
L 1178 3500 
L 1178 0 
L 603 0 
L 603 3500 
z
M 603 4863 
L 1178 4863 
L 1178 4134 
L 603 4134 
L 603 4863 
z
" transform="scale(0.015625)"/>
      </defs>
      <use xlink:href="#DejaVuSans-Oblique-3c9" transform="translate(0 0.015625)"/>
      <use xlink:href="#DejaVuSans-30" transform="translate(83.740234 -16.390625) scale(0.7)"/>
      <use xlink:href="#DejaVuSans-20" transform="translate(131.010742 0.015625)"/>
      <use xlink:href="#DejaVuSans-3d" transform="translate(162.797852 0.015625)"/>
      <use xlink:href="#DejaVuSans-20" transform="translate(246.586914 0.015625)"/>
      <use xlink:href="#DejaVuSans-56" transform="translate(278.374023 0.015625)"/>
      <use xlink:href="#DejaVuSans-42" transform="translate(346.782227 0.015625)"/>
      <use xlink:href="#DejaVuSans-4d" transform="translate(415.385742 0.015625)"/>
      <use xlink:href="#DejaVuSans-20" transform="translate(501.665039 0.015625)"/>
      <use xlink:href="#DejaVuSans-70" transform="translate(533.452148 0.015625)"/>
      <use xlink:href="#DejaVuSans-69" transform="translate(596.928711 0.015625)"/>
      <use xlink:href="#DejaVuSans-6e" transform="translate(624.711914 0.015625)"/>
     </g>
    </g>
    <g id="line2d_23">
     <path d="M 62.03 116.950312 
L 71.03 116.950312 
L 80.03 116.950312 
" style="fill: none; stroke-dasharray: 5.55,2.4; stroke-dashoffset: 0; stroke: #c1602f; stroke-width: 1.5"/>
    </g>
    <g id="text_12">
     <!-- $\omega_0$ = CBM pin -->
     <g transform="translate(87.23 120.100312) scale(0.09 -0.09)">
      <defs>
       <path id="DejaVuSans-43" d="M 4122 4306 
L 4122 3641 
Q 3803 3938 3442 4084 
Q 3081 4231 2675 4231 
Q 1875 4231 1450 3742 
Q 1025 3253 1025 2328 
Q 1025 1406 1450 917 
Q 1875 428 2675 428 
Q 3081 428 3442 575 
Q 3803 722 4122 1019 
L 4122 359 
Q 3791 134 3420 21 
Q 3050 -91 2638 -91 
Q 1578 -91 968 557 
Q 359 1206 359 2328 
Q 359 3453 968 4101 
Q 1578 4750 2638 4750 
Q 3056 4750 3426 4639 
Q 3797 4528 4122 4306 
z
" transform="scale(0.015625)"/>
      </defs>
      <use xlink:href="#DejaVuSans-Oblique-3c9" transform="translate(0 0.015625)"/>
      <use xlink:href="#DejaVuSans-30" transform="translate(83.740234 -16.390625) scale(0.7)"/>
      <use xlink:href="#DejaVuSans-20" transform="translate(131.010742 0.015625)"/>
      <use xlink:href="#DejaVuSans-3d" transform="translate(162.797852 0.015625)"/>
      <use xlink:href="#DejaVuSans-20" transform="translate(246.586914 0.015625)"/>
      <use xlink:href="#DejaVuSans-43" transform="translate(278.374023 0.015625)"/>
      <use xlink:href="#DejaVuSans-42" transform="translate(348.198242 0.015625)"/>
      <use xlink:href="#DejaVuSans-4d" transform="translate(416.801758 0.015625)"/>
      <use xlink:href="#DejaVuSans-20" transform="translate(503.081055 0.015625)"/>
      <use xlink:href="#DejaVuSans-70" transform="translate(534.868164 0.015625)"/>
      <use xlink:href="#DejaVuSans-69" transform="translate(598.344727 0.015625)"/>
      <use xlink:href="#DejaVuSans-6e" transform="translate(626.12793 0.015625)"/>
     </g>
    </g>
   </g>
  </g>
  <g id="axes_2">
   <g id="patch_7">
    <path d="M 53.93 502.792 
L 672.435 502.792 
L 672.435 305.946 
L 53.93 305.946 
z
" style="fill: #ffffff"/>
   </g>
   <g id="matplotlib.axis_3">
    <g id="xtick_9">
     <g id="line2d_24">
      <g>
       <use xlink:href="#m8fc0f7192e" x="53.93" y="502.792" style="stroke: #000000; stroke-width: 0.8"/>
      </g>
     </g>
     <g id="text_13">
      <!-- −1.0 -->
      <g transform="translate(41.788594 517.390437) scale(0.1 -0.1)">
       <defs>
        <path id="DejaVuSans-2212" d="M 678 2272 
L 4684 2272 
L 4684 1741 
L 678 1741 
L 678 2272 
z
" transform="scale(0.015625)"/>
        <path id="DejaVuSans-2e" d="M 684 794 
L 1344 794 
L 1344 0 
L 684 0 
L 684 794 
z
" transform="scale(0.015625)"/>
       </defs>
       <use xlink:href="#DejaVuSans-2212"/>
       <use xlink:href="#DejaVuSans-31" transform="translate(83.789062 0)"/>
       <use xlink:href="#DejaVuSans-2e" transform="translate(147.412109 0)"/>
       <use xlink:href="#DejaVuSans-30" transform="translate(179.199219 0)"/>
      </g>
     </g>
    </g>
    <g id="xtick_10">
     <g id="line2d_25">
      <g>
       <use xlink:href="#m8fc0f7192e" x="142.287857" y="502.792" style="stroke: #000000; stroke-width: 0.8"/>
      </g>
     </g>
     <g id="text_14">
      <!-- −0.5 -->
      <g transform="translate(130.146451 517.390437) scale(0.1 -0.1)">
       <use xlink:href="#DejaVuSans-2212"/>
       <use xlink:href="#DejaVuSans-30" transform="translate(83.789062 0)"/>
       <use xlink:href="#DejaVuSans-2e" transform="translate(147.412109 0)"/>
       <use xlink:href="#DejaVuSans-35" transform="translate(179.199219 0)"/>
      </g>
     </g>
    </g>
    <g id="xtick_11">
     <g id="line2d_26">
      <g>
       <use xlink:href="#m8fc0f7192e" x="230.645714" y="502.792" style="stroke: #000000; stroke-width: 0.8"/>
      </g>
     </g>
     <g id="text_15">
      <!-- 0.0 -->
      <g transform="translate(222.694152 517.390437) scale(0.1 -0.1)">
       <use xlink:href="#DejaVuSans-30"/>
       <use xlink:href="#DejaVuSans-2e" transform="translate(63.623047 0)"/>
       <use xlink:href="#DejaVuSans-30" transform="translate(95.410156 0)"/>
      </g>
     </g>
    </g>
    <g id="xtick_12">
     <g id="line2d_27">
      <g>
       <use xlink:href="#m8fc0f7192e" x="319.003571" y="502.792" style="stroke: #000000; stroke-width: 0.8"/>
      </g>
     </g>
     <g id="text_16">
      <!-- 0.5 -->
      <g transform="translate(311.052009 517.390437) scale(0.1 -0.1)">
       <use xlink:href="#DejaVuSans-30"/>
       <use xlink:href="#DejaVuSans-2e" transform="translate(63.623047 0)"/>
       <use xlink:href="#DejaVuSans-35" transform="translate(95.410156 0)"/>
      </g>
     </g>
    </g>
    <g id="xtick_13">
     <g id="line2d_28">
      <g>
       <use xlink:href="#m8fc0f7192e" x="407.361429" y="502.792" style="stroke: #000000; stroke-width: 0.8"/>
      </g>
     </g>
     <g id="text_17">
      <!-- 1.0 -->
      <g transform="translate(399.409866 517.390437) scale(0.1 -0.1)">
       <use xlink:href="#DejaVuSans-31"/>
       <use xlink:href="#DejaVuSans-2e" transform="translate(63.623047 0)"/>
       <use xlink:href="#DejaVuSans-30" transform="translate(95.410156 0)"/>
      </g>
     </g>
    </g>
    <g id="xtick_14">
     <g id="line2d_29">
      <g>
       <use xlink:href="#m8fc0f7192e" x="495.719286" y="502.792" style="stroke: #000000; stroke-width: 0.8"/>
      </g>
     </g>
     <g id="text_18">
      <!-- 1.5 -->
      <g transform="translate(487.767723 517.390437) scale(0.1 -0.1)">
       <use xlink:href="#DejaVuSans-31"/>
       <use xlink:href="#DejaVuSans-2e" transform="translate(63.623047 0)"/>
       <use xlink:href="#DejaVuSans-35" transform="translate(95.410156 0)"/>
      </g>
     </g>
    </g>
    <g id="xtick_15">
     <g id="line2d_30">
      <g>
       <use xlink:href="#m8fc0f7192e" x="584.077143" y="502.792" style="stroke: #000000; stroke-width: 0.8"/>
      </g>
     </g>
     <g id="text_19">
      <!-- 2.0 -->
      <g transform="translate(576.12558 517.390437) scale(0.1 -0.1)">
       <use xlink:href="#DejaVuSans-32"/>
       <use xlink:href="#DejaVuSans-2e" transform="translate(63.623047 0)"/>
       <use xlink:href="#DejaVuSans-30" transform="translate(95.410156 0)"/>
      </g>
     </g>
    </g>
    <g id="xtick_16">
     <g id="line2d_31">
      <g>
       <use xlink:href="#m8fc0f7192e" x="672.435" y="502.792" style="stroke: #000000; stroke-width: 0.8"/>
      </g>
     </g>
     <g id="text_20">
      <!-- 2.5 -->
      <g transform="translate(664.483438 517.390437) scale(0.1 -0.1)">
       <use xlink:href="#DejaVuSans-32"/>
       <use xlink:href="#DejaVuSans-2e" transform="translate(63.623047 0)"/>
       <use xlink:href="#DejaVuSans-35" transform="translate(95.410156 0)"/>
      </g>
     </g>
    </g>
    <g id="text_21">
     <!-- $E - E_{\rm VBM}$  (eV) -->
     <g transform="translate(329.1825 531.068562) scale(0.1 -0.1)">
      <defs>
       <path id="DejaVuSans-Oblique-45" d="M 1081 4666 
L 4031 4666 
L 3928 4134 
L 1606 4134 
L 1338 2753 
L 3566 2753 
L 3463 2222 
L 1234 2222 
L 909 531 
L 3284 531 
L 3181 0 
L 172 0 
L 1081 4666 
z
" transform="scale(0.015625)"/>
      </defs>
      <use xlink:href="#DejaVuSans-Oblique-45" transform="translate(0 0.125)"/>
      <use xlink:href="#DejaVuSans-2212" transform="translate(82.666016 0.125)"/>
      <use xlink:href="#DejaVuSans-Oblique-45" transform="translate(185.9375 0.125)"/>
      <use xlink:href="#DejaVuSans-56" transform="translate(249.121094 -16.28125) scale(0.7)"/>
      <use xlink:href="#DejaVuSans-42" transform="translate(297.006836 -16.28125) scale(0.7)"/>
      <use xlink:href="#DejaVuSans-4d" transform="translate(345.029297 -16.28125) scale(0.7)"/>
      <use xlink:href="#DejaVuSans-20" transform="translate(408.15918 0.125)"/>
      <use xlink:href="#DejaVuSans-20" transform="translate(439.946289 0.125)"/>
      <use xlink:href="#DejaVuSans-28" transform="translate(471.733398 0.125)"/>
      <use xlink:href="#DejaVuSans-65" transform="translate(510.74707 0.125)"/>
      <use xlink:href="#DejaVuSans-56" transform="translate(572.270508 0.125)"/>
      <use xlink:href="#DejaVuSans-29" transform="translate(640.678711 0.125)"/>
     </g>
    </g>
   </g>
   <g id="matplotlib.axis_4">
    <g id="ytick_8">
     <g id="line2d_32">
      <g>
       <use xlink:href="#m20b4fbaef0" x="53.93" y="491.979251" style="stroke: #000000; stroke-width: 0.8"/>
      </g>
     </g>
     <g id="text_22">
      <!-- 0 -->
      <g transform="translate(40.5675 495.77847) scale(0.1 -0.1)">
       <use xlink:href="#DejaVuSans-30"/>
      </g>
     </g>
    </g>
    <g id="ytick_9">
     <g id="line2d_33">
      <g>
       <use xlink:href="#m20b4fbaef0" x="53.93" y="465.253836" style="stroke: #000000; stroke-width: 0.8"/>
      </g>
     </g>
     <g id="text_23">
      <!-- 25 -->
      <g transform="translate(34.205 469.053055) scale(0.1 -0.1)">
       <use xlink:href="#DejaVuSans-32"/>
       <use xlink:href="#DejaVuSans-35" transform="translate(63.623047 0)"/>
      </g>
     </g>
    </g>
    <g id="ytick_10">
     <g id="line2d_34">
      <g>
       <use xlink:href="#m20b4fbaef0" x="53.93" y="438.528421" style="stroke: #000000; stroke-width: 0.8"/>
      </g>
     </g>
     <g id="text_24">
      <!-- 50 -->
      <g transform="translate(34.205 442.32764) scale(0.1 -0.1)">
       <use xlink:href="#DejaVuSans-35"/>
       <use xlink:href="#DejaVuSans-30" transform="translate(63.623047 0)"/>
      </g>
     </g>
    </g>
    <g id="ytick_11">
     <g id="line2d_35">
      <g>
       <use xlink:href="#m20b4fbaef0" x="53.93" y="411.803006" style="stroke: #000000; stroke-width: 0.8"/>
      </g>
     </g>
     <g id="text_25">
      <!-- 75 -->
      <g transform="translate(34.205 415.602225) scale(0.1 -0.1)">
       <use xlink:href="#DejaVuSans-37"/>
       <use xlink:href="#DejaVuSans-35" transform="translate(63.623047 0)"/>
      </g>
     </g>
    </g>
    <g id="ytick_12">
     <g id="line2d_36">
      <g>
       <use xlink:href="#m20b4fbaef0" x="53.93" y="385.077591" style="stroke: #000000; stroke-width: 0.8"/>
      </g>
     </g>
     <g id="text_26">
      <!-- 100 -->
      <g transform="translate(27.8425 388.87681) scale(0.1 -0.1)">
       <use xlink:href="#DejaVuSans-31"/>
       <use xlink:href="#DejaVuSans-30" transform="translate(63.623047 0)"/>
       <use xlink:href="#DejaVuSans-30" transform="translate(127.246094 0)"/>
      </g>
     </g>
    </g>
    <g id="ytick_13">
     <g id="line2d_37">
      <g>
       <use xlink:href="#m20b4fbaef0" x="53.93" y="358.352177" style="stroke: #000000; stroke-width: 0.8"/>
      </g>
     </g>
     <g id="text_27">
      <!-- 125 -->
      <g transform="translate(27.8425 362.151395) scale(0.1 -0.1)">
       <use xlink:href="#DejaVuSans-31"/>
       <use xlink:href="#DejaVuSans-32" transform="translate(63.623047 0)"/>
       <use xlink:href="#DejaVuSans-35" transform="translate(127.246094 0)"/>
      </g>
     </g>
    </g>
    <g id="ytick_14">
     <g id="line2d_38">
      <g>
       <use xlink:href="#m20b4fbaef0" x="53.93" y="331.626762" style="stroke: #000000; stroke-width: 0.8"/>
      </g>
     </g>
     <g id="text_28">
      <!-- 150 -->
      <g transform="translate(27.8425 335.42598) scale(0.1 -0.1)">
       <use xlink:href="#DejaVuSans-31"/>
       <use xlink:href="#DejaVuSans-35" transform="translate(63.623047 0)"/>
       <use xlink:href="#DejaVuSans-30" transform="translate(127.246094 0)"/>
      </g>
     </g>
    </g>
    <g id="text_29">
     <!-- DOS (states/eV per 6$\times$6 cell) -->
     <g transform="translate(21.7425 476.519) rotate(-90) scale(0.1 -0.1)">
      <use xlink:href="#DejaVuSans-44" transform="translate(0 0.015625)"/>
      <use xlink:href="#DejaVuSans-4f" transform="translate(77.001953 0.015625)"/>
      <use xlink:href="#DejaVuSans-53" transform="translate(155.712891 0.015625)"/>
      <use xlink:href="#DejaVuSans-20" transform="translate(219.189453 0.015625)"/>
      <use xlink:href="#DejaVuSans-28" transform="translate(250.976562 0.015625)"/>
      <use xlink:href="#DejaVuSans-73" transform="translate(289.990234 0.015625)"/>
      <use xlink:href="#DejaVuSans-74" transform="translate(342.089844 0.015625)"/>
      <use xlink:href="#DejaVuSans-61" transform="translate(381.298828 0.015625)"/>
      <use xlink:href="#DejaVuSans-74" transform="translate(442.578125 0.015625)"/>
      <use xlink:href="#DejaVuSans-65" transform="translate(481.787109 0.015625)"/>
      <use xlink:href="#DejaVuSans-73" transform="translate(543.310547 0.015625)"/>
      <use xlink:href="#DejaVuSans-2f" transform="translate(595.410156 0.015625)"/>
      <use xlink:href="#DejaVuSans-65" transform="translate(629.101562 0.015625)"/>
      <use xlink:href="#DejaVuSans-56" transform="translate(690.625 0.015625)"/>
      <use xlink:href="#DejaVuSans-20" transform="translate(759.033203 0.015625)"/>
      <use xlink:href="#DejaVuSans-70" transform="translate(790.820312 0.015625)"/>
      <use xlink:href="#DejaVuSans-65" transform="translate(854.296875 0.015625)"/>
      <use xlink:href="#DejaVuSans-72" transform="translate(915.820312 0.015625)"/>
      <use xlink:href="#DejaVuSans-20" transform="translate(956.933594 0.015625)"/>
      <use xlink:href="#DejaVuSans-36" transform="translate(988.720703 0.015625)"/>
      <use xlink:href="#DejaVuSans-d7" transform="translate(1052.34375 0.015625)"/>
      <use xlink:href="#DejaVuSans-36" transform="translate(1136.132812 0.015625)"/>
      <use xlink:href="#DejaVuSans-20" transform="translate(1199.755859 0.015625)"/>
      <use xlink:href="#DejaVuSans-63" transform="translate(1231.542969 0.015625)"/>
      <use xlink:href="#DejaVuSans-65" transform="translate(1286.523438 0.015625)"/>
      <use xlink:href="#DejaVuSans-6c" transform="translate(1348.046875 0.015625)"/>
      <use xlink:href="#DejaVuSans-6c" transform="translate(1375.830078 0.015625)"/>
      <use xlink:href="#DejaVuSans-29" transform="translate(1403.613281 0.015625)"/>
     </g>
    </g>
   </g>
   <g id="line2d_39">
    <path d="M 53.93 445.661949 
L 55.697157 447.146558 
L 56.580736 448.186947 
L 57.464314 449.400432 
L 58.347893 450.153745 
L 59.231471 449.811658 
L 60.11505 448.121786 
L 60.998629 445.692647 
L 61.882207 443.821571 
L 62.765786 442.839353 
L 63.649364 442.570072 
L 64.532943 442.934425 
L 65.416521 444.141284 
L 66.3001 446.646708 
L 68.067257 454.471585 
L 68.950836 456.817193 
L 69.834414 457.848845 
L 70.717993 458.148532 
L 71.601571 457.984674 
L 72.48515 457.504306 
L 74.252307 455.984082 
L 76.019464 453.812868 
L 77.786621 451.089725 
L 79.553779 447.665648 
L 80.437357 445.619293 
L 82.204514 440.647465 
L 83.088093 437.595061 
L 83.971671 433.996792 
L 84.85525 429.733764 
L 85.738829 424.61511 
L 88.389564 406.5191 
L 89.273143 406.110602 
L 90.156721 409.557798 
L 91.923879 417.401395 
L 92.807457 420.601728 
L 93.691036 423.253586 
L 94.574614 425.531823 
L 95.458193 427.390137 
L 97.22535 430.41197 
L 98.992507 432.817793 
L 100.759664 434.691651 
L 103.4104 436.825796 
L 105.177557 437.890976 
L 106.944714 438.707568 
L 109.59545 439.562258 
L 111.362607 439.851088 
L 113.129764 439.934983 
L 114.896921 439.738905 
L 116.664079 439.21123 
L 119.314814 437.968972 
L 120.198393 438.292055 
L 123.732707 441.224248 
L 125.499864 442.310431 
L 127.267021 443.196167 
L 129.034179 443.981861 
L 133.452071 445.501751 
L 137.869964 446.747547 
L 147.589329 449.088282 
L 152.007221 450.23561 
L 159.07585 452.581771 
L 163.493743 454.480425 
L 175.863843 460.450497 
L 180.281736 462.285327 
L 188.233943 464.946495 
L 192.651836 466.065114 
L 198.836886 467.252126 
L 203.254779 467.875329 
L 207.672671 468.28764 
L 212.974143 468.540405 
L 222.693507 468.579115 
L 224.460664 468.911333 
L 225.344243 469.324609 
L 226.227821 470.06631 
L 227.1114 471.336188 
L 228.878557 474.873457 
L 229.762136 477.267728 
L 231.529293 483.807219 
L 232.412871 486.049737 
L 233.29645 487.432483 
L 234.180029 488.312287 
L 235.063607 488.906742 
L 236.830764 489.647667 
L 238.597921 490.087302 
L 241.248657 490.488633 
L 245.66655 490.856954 
L 252.735179 491.151392 
L 265.105279 491.386273 
L 288.078321 491.561829 
L 337.558721 491.677346 
L 426.800157 491.651865 
L 483.349186 491.453974 
L 505.43865 491.198747 
L 514.274436 490.913684 
L 517.80875 490.633002 
L 519.575907 490.352918 
L 520.459486 490.125072 
L 521.343064 489.780777 
L 522.226643 489.229952 
L 523.110221 488.367539 
L 523.9938 487.321316 
L 524.877379 486.48179 
L 525.760957 485.937059 
L 527.528114 485.313921 
L 530.17885 484.785127 
L 539.898214 483.55037 
L 547.850421 482.505174 
L 554.035471 481.487088 
L 559.336943 480.323983 
L 561.987679 479.525844 
L 563.754836 478.825289 
L 565.521993 477.900809 
L 566.405571 477.317898 
L 567.28915 476.584544 
L 568.172729 475.624602 
L 569.056307 474.304618 
L 569.939886 472.362954 
L 570.823464 469.321551 
L 571.707043 464.562358 
L 572.590621 458.47612 
L 573.4742 453.253747 
L 574.357779 449.772644 
L 575.241357 447.406981 
L 576.124936 445.672555 
L 577.892093 443.089383 
L 579.65925 441.079982 
L 583.193564 437.470192 
L 588.495036 432.047758 
L 591.145771 428.9693 
L 593.796507 425.60493 
L 596.447243 421.686697 
L 598.2144 418.747189 
L 599.981557 415.392193 
L 601.748714 411.572068 
L 603.515871 407.138076 
L 605.283029 401.784024 
L 606.166607 398.796831 
L 607.050186 395.399902 
L 608.817343 387.210445 
L 609.700921 382.267665 
L 610.5845 376.525319 
L 611.468079 369.922164 
L 613.235236 355.008799 
L 615.002393 341.485679 
L 615.885971 332.390067 
L 616.76955 321.88716 
L 617.653129 314.893545 
L 618.536707 316.164225 
L 620.303864 326.933774 
L 621.187443 330.376167 
L 622.071021 331.906523 
L 622.9546 331.756121 
L 623.838179 330.796587 
L 624.721757 332.123919 
L 625.605336 339.81217 
L 626.488914 355.651035 
L 629.13965 428.778007 
L 630.023229 440.39449 
L 630.906807 447.152846 
L 631.790386 451.199647 
L 632.673964 453.678566 
L 633.557543 455.174539 
L 634.441121 456.014902 
L 635.3247 456.414389 
L 636.208279 456.49879 
L 637.091857 456.327021 
L 637.975436 455.962738 
L 639.742593 454.797322 
L 641.50975 453.176399 
L 643.276907 451.186232 
L 645.044064 448.753058 
L 646.811221 446.076391 
L 648.578379 442.876633 
L 650.345536 439.247995 
L 652.112693 435.01385 
L 653.87985 430.024255 
L 655.647007 423.99319 
L 657.414164 416.469716 
L 658.297743 411.931312 
L 659.181321 406.691154 
L 660.0649 400.545344 
L 662.715636 378.319964 
L 663.599214 374.728531 
L 664.482793 373.17834 
L 665.366371 371.920865 
L 666.24995 371.504307 
L 667.133529 371.729782 
L 668.900686 372.510846 
L 669.784264 372.754965 
L 670.667843 372.860419 
L 672.435 372.568461 
L 672.435 372.568461 
" clip-path="url(#p4a09bedae5)" style="fill: none; stroke-dasharray: 1,1.65; stroke-dashoffset: 0; stroke: #999999"/>
   </g>
   <g id="line2d_40">
    <path d="M 53.93 450.405223 
L 54.813579 451.643905 
L 56.580736 455.176779 
L 57.464314 455.849517 
L 58.347893 455.618158 
L 60.11505 455.992164 
L 60.998629 454.118033 
L 61.882207 451.499561 
L 62.765786 450.310737 
L 63.649364 450.557172 
L 64.532943 452.04293 
L 65.416521 455.715162 
L 66.3001 461.464868 
L 67.183679 466.137616 
L 68.067257 466.16341 
L 68.950836 464.022117 
L 69.834414 462.193252 
L 70.717993 460.787927 
L 75.135886 454.770621 
L 76.903043 451.764644 
L 78.6702 448.142896 
L 80.437357 443.932657 
L 81.320936 441.391747 
L 83.088093 435.178426 
L 84.85525 427.795589 
L 86.622407 419.730101 
L 87.505986 417.737972 
L 88.389564 418.39039 
L 89.273143 417.479659 
L 90.156721 416.241682 
L 91.0403 417.103421 
L 93.691036 423.088937 
L 95.458193 426.80993 
L 96.341771 428.46304 
L 98.108929 430.912757 
L 99.876086 432.97663 
L 101.643243 434.568221 
L 105.177557 437.168762 
L 106.061136 437.704971 
L 107.828293 438.142067 
L 110.479029 439.158162 
L 114.013343 439.523055 
L 115.7805 439.253933 
L 116.664079 439.171236 
L 119.314814 439.443387 
L 120.198393 438.932539 
L 121.081971 438.817416 
L 123.732707 440.292133 
L 125.499864 441.558429 
L 126.383443 441.938344 
L 128.1506 443.044932 
L 129.034179 443.508577 
L 130.801336 444.00746 
L 132.568493 444.762674 
L 133.452071 445.260533 
L 135.219229 445.662617 
L 136.986386 446.271108 
L 137.869964 446.580653 
L 139.637121 446.921443 
L 141.404279 447.475198 
L 142.287857 447.859044 
L 143.171436 448.077388 
L 144.938593 448.341423 
L 146.70575 448.987434 
L 149.356486 449.639832 
L 150.240064 449.776646 
L 152.007221 450.338559 
L 154.657957 451.52924 
L 155.541536 451.578501 
L 157.308693 452.080013 
L 159.07585 452.922407 
L 160.843007 453.530725 
L 161.726586 453.874416 
L 162.610164 454.40016 
L 164.377321 454.897737 
L 167.028057 456.298871 
L 169.678793 457.344416 
L 174.980264 459.754249 
L 182.048893 462.537706 
L 183.81605 463.0758 
L 185.583207 463.779091 
L 187.350364 464.186681 
L 189.117521 464.729228 
L 190.884679 465.136388 
L 192.651836 465.624934 
L 201.487621 467.082084 
L 208.55625 467.516 
L 212.090564 467.495289 
L 215.624879 467.277533 
L 220.92635 466.865688 
L 221.809929 466.838086 
L 223.577086 467.113391 
L 224.460664 467.467608 
L 225.344243 468.109773 
L 226.227821 469.23032 
L 227.1114 471.074288 
L 227.994979 473.533637 
L 228.878557 476.613514 
L 230.645714 485.032638 
L 231.529293 487.250688 
L 232.412871 488.121604 
L 234.180029 489.070056 
L 235.947186 489.66132 
L 238.597921 490.197552 
L 242.132236 490.596441 
L 247.433707 490.91034 
L 255.385914 491.125729 
L 265.105279 491.181091 
L 272.173907 491.026661 
L 275.708221 490.769495 
L 278.358957 490.341141 
L 280.126114 489.780409 
L 281.009693 489.331638 
L 281.893271 488.68498 
L 282.77685 487.713025 
L 283.660429 486.176045 
L 284.544007 483.600387 
L 285.427586 479.047482 
L 286.311164 471.052757 
L 287.194743 460.55335 
L 288.078321 458.686814 
L 289.845479 477.44829 
L 290.729057 482.726481 
L 291.612636 485.691792 
L 292.496214 487.438813 
L 293.379793 488.531394 
L 294.263371 489.252633 
L 295.14695 489.750979 
L 296.914107 490.373677 
L 298.681264 490.732388 
L 301.332 491.040292 
L 305.749893 491.293535 
L 313.7021 491.478533 
L 331.373671 491.604227 
L 374.669021 491.642678 
L 410.012164 491.501455 
L 421.498686 491.276128 
L 426.800157 491.008862 
L 430.334471 490.652725 
L 432.985207 490.160046 
L 434.752364 489.604243 
L 435.635943 489.204711 
L 436.519521 488.678465 
L 437.4031 487.966719 
L 438.286679 486.973287 
L 439.170257 485.533325 
L 440.053836 483.349172 
L 440.937414 479.853054 
L 441.820993 473.913986 
L 442.704571 463.337458 
L 444.471729 425.835041 
L 445.355307 429.697513 
L 446.238886 450.712487 
L 447.122464 466.675152 
L 448.006043 475.76564 
L 448.889621 480.912393 
L 449.7732 483.987538 
L 450.656779 485.935654 
L 451.540357 487.23489 
L 452.423936 488.139443 
L 453.307514 488.792066 
L 455.074671 489.646685 
L 456.841829 490.162147 
L 459.492564 490.618396 
L 463.026879 490.943587 
L 468.32835 491.176309 
L 477.164136 491.317053 
L 493.952129 491.323822 
L 518.692329 491.218375 
L 519.575907 491.336264 
L 520.459486 491.572286 
L 521.343064 492.044095 
L 523.110221 493.844455 
L 523.9938 492.968336 
L 524.877379 490.630442 
L 525.760957 488.774461 
L 526.644536 487.603128 
L 527.528114 486.890485 
L 528.411693 486.370396 
L 530.17885 485.607866 
L 534.596743 484.741127 
L 538.131057 484.187793 
L 539.014636 484.131957 
L 539.898214 483.93783 
L 541.665371 483.729823 
L 543.432529 483.476015 
L 544.316107 483.429244 
L 546.083264 483.077891 
L 547.850421 482.944183 
L 551.384736 482.290207 
L 554.035471 481.992585 
L 556.686207 481.432287 
L 557.569786 481.347814 
L 560.220521 480.743327 
L 563.754836 479.937183 
L 566.405571 479.125455 
L 568.172729 478.870091 
L 569.056307 478.9434 
L 569.939886 479.484998 
L 571.707043 482.142051 
L 572.590621 478.636482 
L 573.4742 469.434194 
L 574.357779 461.638091 
L 575.241357 456.55011 
L 576.124936 453.0522 
L 577.008514 450.633196 
L 578.775671 446.965359 
L 581.426407 443.357874 
L 584.960721 439.242367 
L 585.8443 438.423717 
L 589.378614 434.485279 
L 590.262193 433.676844 
L 591.145771 432.661319 
L 592.912929 430.272505 
L 595.563664 426.932887 
L 596.447243 425.472005 
L 598.2144 423.07106 
L 599.981557 419.992983 
L 602.632293 414.877127 
L 604.39945 411.054618 
L 606.166607 406.010153 
L 607.050186 403.681824 
L 607.933764 400.919366 
L 611.468079 387.846941 
L 612.351657 384.187281 
L 613.235236 378.500586 
L 614.118814 371.138463 
L 615.002393 366.170841 
L 616.76955 361.523533 
L 617.653129 353.1166 
L 618.536707 339.6472 
L 619.420286 333.928096 
L 620.303864 334.999876 
L 622.071021 341.698632 
L 622.9546 345.317839 
L 624.721757 355.072489 
L 625.605336 362.824718 
L 626.488914 375.840792 
L 627.372493 377.875992 
L 628.256071 353.804928 
L 629.13965 343.235401 
L 630.023229 360.528482 
L 630.906807 385.795715 
L 631.790386 405.267142 
L 632.673964 418.174861 
L 633.557543 427.244367 
L 634.441121 433.941384 
L 635.3247 438.909245 
L 636.208279 442.224234 
L 637.975436 446.382707 
L 638.859014 447.850389 
L 639.742593 448.559921 
L 640.626171 449.04473 
L 643.276907 448.926079 
L 644.160486 448.630182 
L 645.044064 447.955958 
L 645.927643 446.897803 
L 647.6948 445.346989 
L 651.229114 440.14182 
L 652.996271 436.732051 
L 654.763429 432.609302 
L 656.530586 427.86565 
L 658.297743 422.436296 
L 660.0649 416.879935 
L 660.948479 414.718431 
L 661.832057 413.394604 
L 662.715636 410.532353 
L 663.599214 402.670833 
L 666.24995 385.641407 
L 667.133529 382.486965 
L 668.017107 380.987382 
L 668.900686 379.980794 
L 669.784264 379.72124 
L 670.667843 379.587075 
L 671.551421 379.575398 
L 672.435 378.949668 
L 672.435 378.949668 
" clip-path="url(#p4a09bedae5)" style="fill: none; stroke: #2e6da4; stroke-width: 1.5; stroke-linecap: square"/>
   </g>
   <g id="line2d_41">
    <path d="M 53.93 450.518626 
L 54.813579 451.698555 
L 56.580736 455.12228 
L 57.464314 455.578792 
L 58.347893 455.02662 
L 60.11505 454.412032 
L 60.998629 452.808113 
L 61.882207 450.754068 
L 62.765786 449.888562 
L 63.649364 450.299221 
L 64.532943 451.937748 
L 65.416521 455.687622 
L 66.3001 461.497631 
L 67.183679 465.965498 
L 68.067257 465.537419 
L 68.950836 462.976916 
L 69.834414 460.91821 
L 70.717993 459.320596 
L 76.019464 451.080692 
L 78.6702 445.615829 
L 80.437357 441.513844 
L 81.320936 439.153131 
L 83.971671 430.757231 
L 85.738829 424.722882 
L 86.622407 422.327066 
L 87.505986 421.969241 
L 88.389564 423.410989 
L 89.273143 421.42006 
L 90.156721 418.719491 
L 91.0403 418.689074 
L 93.691036 423.579531 
L 96.341771 428.542588 
L 98.992507 431.873922 
L 100.759664 433.497992 
L 102.526821 434.832689 
L 105.177557 436.575374 
L 106.061136 437.061346 
L 107.828293 437.441165 
L 110.479029 438.219923 
L 114.013343 438.463423 
L 116.664079 438.24414 
L 117.547657 438.471017 
L 119.314814 439.509258 
L 121.081971 438.751933 
L 121.96555 438.972951 
L 122.849129 439.321771 
L 123.732707 439.814363 
L 125.499864 441.002373 
L 126.383443 441.26102 
L 127.267021 441.954388 
L 129.034179 442.805638 
L 129.917757 443.022211 
L 132.568493 444.078336 
L 133.452071 444.656855 
L 135.219229 444.958127 
L 137.869964 445.93367 
L 138.753543 446.062508 
L 141.404279 446.957023 
L 142.287857 447.332242 
L 144.938593 447.849915 
L 145.822171 448.256074 
L 148.472907 449.027983 
L 150.240064 449.23749 
L 153.774379 450.863136 
L 154.657957 451.08129 
L 155.541536 450.981702 
L 157.308693 451.603743 
L 158.192271 452.069008 
L 160.843007 452.951119 
L 161.726586 453.13514 
L 162.610164 453.698242 
L 163.493743 453.549734 
L 164.377321 453.849617 
L 165.2609 454.326542 
L 166.144479 454.607085 
L 167.028057 455.052903 
L 168.795214 454.996291 
L 169.678793 455.445878 
L 171.44595 456.059502 
L 172.329529 455.882461 
L 174.096686 456.050812 
L 175.863843 456.251206 
L 176.747421 456.316031 
L 177.631 456.567129 
L 178.514579 456.620598 
L 180.281736 457.083037 
L 182.932471 457.971905 
L 183.81605 458.736565 
L 184.699629 459.290959 
L 185.583207 459.531356 
L 187.350364 460.808488 
L 189.117521 461.887417 
L 190.884679 462.93219 
L 193.535414 464.122305 
L 195.302571 464.861101 
L 200.604043 466.612133 
L 206.789093 467.91322 
L 213.857721 468.852131 
L 215.624879 468.960411 
L 221.809929 469.874018 
L 223.577086 470.489259 
L 224.460664 471.003944 
L 225.344243 471.77332 
L 226.227821 472.983709 
L 227.1114 474.765496 
L 227.994979 476.81778 
L 228.878557 478.443044 
L 229.762136 477.8121 
L 230.645714 471.591293 
L 231.529293 468.079963 
L 233.29645 480.416587 
L 234.180029 484.146471 
L 235.063607 486.28537 
L 235.947186 487.579349 
L 236.830764 488.41527 
L 237.714343 488.987895 
L 239.4815 489.708135 
L 241.248657 490.136242 
L 243.899393 490.525456 
L 248.317286 490.88042 
L 255.385914 491.163093 
L 267.756014 491.388945 
L 291.612636 491.561716 
L 341.093036 491.660798 
L 396.758486 491.579313 
L 413.546479 491.382855 
L 420.615107 491.126807 
L 425.033 490.765856 
L 427.683736 490.352983 
L 429.450893 489.901757 
L 431.21805 489.176882 
L 432.101629 488.637868 
L 432.985207 487.907045 
L 433.868786 486.883982 
L 434.752364 485.395837 
L 435.635943 483.129086 
L 436.519521 479.483038 
L 437.4031 473.258821 
L 438.286679 462.154677 
L 440.053836 424.959602 
L 440.937414 431.251535 
L 441.820993 452.374181 
L 442.704571 467.668872 
L 443.58815 476.325623 
L 444.471729 481.244224 
L 445.355307 484.197902 
L 446.238886 486.077807 
L 447.122464 487.336531 
L 448.006043 488.215788 
L 448.889621 488.851931 
L 450.656779 489.687685 
L 452.423936 490.193627 
L 455.074671 490.643038 
L 458.608986 490.964767 
L 463.910457 491.196599 
L 473.629821 491.346334 
L 491.301393 491.3514 
L 512.507279 491.147801 
L 517.80875 491.147027 
L 519.575907 491.30795 
L 520.459486 491.52885 
L 521.343064 491.974332 
L 523.110221 493.668684 
L 523.9938 492.778264 
L 524.877379 490.481522 
L 525.760957 488.666925 
L 526.644536 487.523453 
L 527.528114 486.827497 
L 528.411693 486.319343 
L 530.17885 485.574043 
L 534.596743 484.721341 
L 538.131057 484.175608 
L 539.014636 484.117458 
L 539.898214 483.926062 
L 541.665371 483.717284 
L 543.432529 483.466997 
L 544.316107 483.417617 
L 546.083264 483.070869 
L 547.850421 482.932904 
L 551.384736 482.283884 
L 554.035471 481.98086 
L 556.686207 481.423005 
L 557.569786 481.335577 
L 560.220521 480.73069 
L 563.754836 479.91531 
L 567.28915 478.953279 
L 568.172729 478.808371 
L 569.056307 478.855197 
L 569.939886 479.347687 
L 571.707043 481.789832 
L 572.590621 478.202301 
L 573.4742 469.058121 
L 574.357779 461.341365 
L 575.241357 456.308542 
L 576.124936 452.852437 
L 577.008514 450.454808 
L 578.775671 446.821473 
L 581.426407 443.238656 
L 584.960721 439.140315 
L 585.8443 438.323171 
L 589.378614 434.390305 
L 590.262193 433.587159 
L 591.145771 432.568319 
L 592.912929 430.184261 
L 595.563664 426.827394 
L 596.447243 425.378711 
L 598.2144 422.97581 
L 599.981557 419.896398 
L 602.632293 414.773114 
L 604.39945 410.943007 
L 606.166607 405.881232 
L 607.050186 403.548878 
L 607.933764 400.780868 
L 611.468079 387.695642 
L 612.351657 384.022227 
L 613.235236 378.338713 
L 614.118814 370.956556 
L 615.002393 365.902357 
L 616.76955 360.918852 
L 617.653129 352.431556 
L 618.536707 339.050681 
L 619.420286 333.414707 
L 620.303864 334.552718 
L 622.9546 344.772294 
L 624.721757 354.243639 
L 625.605336 361.786721 
L 626.488914 374.467431 
L 627.372493 375.912442 
L 628.256071 351.723384 
L 629.13965 341.917015 
L 630.023229 359.768839 
L 630.906807 385.432493 
L 631.790386 405.271253 
L 632.673964 418.514876 
L 633.557543 427.89908 
L 634.441121 434.831956 
L 635.3247 439.874499 
L 636.208279 443.227613 
L 637.091857 445.50164 
L 637.975436 447.457503 
L 638.859014 448.851864 
L 639.742593 449.501584 
L 640.626171 449.912681 
L 643.276907 449.602903 
L 644.160486 449.232852 
L 645.044064 448.503067 
L 645.927643 447.398696 
L 647.6948 445.766594 
L 651.229114 440.414513 
L 652.996271 436.936716 
L 654.763429 432.762791 
L 656.530586 427.963355 
L 658.297743 422.466818 
L 660.0649 416.792418 
L 660.948479 414.514097 
L 661.832057 412.976602 
L 662.715636 409.790569 
L 663.599214 401.735448 
L 665.366371 390.403154 
L 666.24995 385.078211 
L 667.133529 382.023614 
L 668.017107 380.585842 
L 668.900686 379.623879 
L 670.667843 379.255133 
L 671.551421 379.241846 
L 672.435 378.65237 
L 672.435 378.65237 
" clip-path="url(#p4a09bedae5)" style="fill: none; stroke-dasharray: 5.55,2.4; stroke-dashoffset: 0; stroke: #c1602f; stroke-width: 1.5"/>
   </g>
   <g id="line2d_42">
    <path d="M 230.645714 502.792 
L 230.645714 305.946 
" clip-path="url(#p4a09bedae5)" style="fill: none; stroke-dasharray: 2.96,1.28; stroke-dashoffset: 0; stroke: #777777; stroke-width: 0.8"/>
   </g>
   <g id="line2d_43">
    <path d="M 523.481324 502.792 
L 523.481324 305.946 
" clip-path="url(#p4a09bedae5)" style="fill: none; stroke-dasharray: 2.96,1.28; stroke-dashoffset: 0; stroke: #777777; stroke-width: 0.8"/>
   </g>
   <g id="patch_8">
    <path d="M 53.93 502.792 
L 53.93 305.946 
" style="fill: none; stroke: #000000; stroke-width: 0.8; stroke-linejoin: miter; stroke-linecap: square"/>
   </g>
   <g id="patch_9">
    <path d="M 672.435 502.792 
L 672.435 305.946 
" style="fill: none; stroke: #000000; stroke-width: 0.8; stroke-linejoin: miter; stroke-linecap: square"/>
   </g>
   <g id="patch_10">
    <path d="M 53.93 502.792 
L 672.435 502.792 
" style="fill: none; stroke: #000000; stroke-width: 0.8; stroke-linejoin: miter; stroke-linecap: square"/>
   </g>
   <g id="patch_11">
    <path d="M 53.93 305.946 
L 672.435 305.946 
" style="fill: none; stroke: #000000; stroke-width: 0.8; stroke-linejoin: miter; stroke-linecap: square"/>
   </g>
   <g id="text_30">
    <!-- V$_S$ (regauged) -->
    <g transform="translate(324.3525 299.946) scale(0.11 -0.11)">
     <use xlink:href="#DejaVuSans-56" transform="translate(0 0.015625)"/>
     <use xlink:href="#DejaVuSans-Oblique-53" transform="translate(69.365234 -16.390625) scale(0.7)"/>
     <use xlink:href="#DejaVuSans-20" transform="translate(116.533203 0.015625)"/>
     <use xlink:href="#DejaVuSans-28" transform="translate(148.320312 0.015625)"/>
     <use xlink:href="#DejaVuSans-72" transform="translate(187.333984 0.015625)"/>
     <use xlink:href="#DejaVuSans-65" transform="translate(228.447266 0.015625)"/>
     <use xlink:href="#DejaVuSans-67" transform="translate(289.970703 0.015625)"/>
     <use xlink:href="#DejaVuSans-61" transform="translate(353.447266 0.015625)"/>
     <use xlink:href="#DejaVuSans-75" transform="translate(414.726562 0.015625)"/>
     <use xlink:href="#DejaVuSans-67" transform="translate(478.105469 0.015625)"/>
     <use xlink:href="#DejaVuSans-65" transform="translate(541.582031 0.015625)"/>
     <use xlink:href="#DejaVuSans-64" transform="translate(603.105469 0.015625)"/>
     <use xlink:href="#DejaVuSans-29" transform="translate(666.582031 0.015625)"/>
    </g>
   </g>
   <g id="legend_2">
    <g id="line2d_44">
     <path d="M 62.03 317.734594 
L 71.03 317.734594 
L 80.03 317.734594 
" style="fill: none; stroke-dasharray: 1,1.65; stroke-dashoffset: 0; stroke: #999999"/>
    </g>
    <g id="text_31">
     <!-- host (no defect) -->
     <g transform="translate(87.23 320.884594) scale(0.09 -0.09)">
      <use xlink:href="#DejaVuSans-68"/>
      <use xlink:href="#DejaVuSans-6f" transform="translate(63.378906 0)"/>
      <use xlink:href="#DejaVuSans-73" transform="translate(124.560547 0)"/>
      <use xlink:href="#DejaVuSans-74" transform="translate(176.660156 0)"/>
      <use xlink:href="#DejaVuSans-20" transform="translate(215.869141 0)"/>
      <use xlink:href="#DejaVuSans-28" transform="translate(247.65625 0)"/>
      <use xlink:href="#DejaVuSans-6e" transform="translate(286.669922 0)"/>
      <use xlink:href="#DejaVuSans-6f" transform="translate(350.048828 0)"/>
      <use xlink:href="#DejaVuSans-20" transform="translate(411.230469 0)"/>
      <use xlink:href="#DejaVuSans-64" transform="translate(443.017578 0)"/>
      <use xlink:href="#DejaVuSans-65" transform="translate(506.494141 0)"/>
      <use xlink:href="#DejaVuSans-66" transform="translate(568.017578 0)"/>
      <use xlink:href="#DejaVuSans-65" transform="translate(603.222656 0)"/>
      <use xlink:href="#DejaVuSans-63" transform="translate(664.746094 0)"/>
      <use xlink:href="#DejaVuSans-74" transform="translate(719.726562 0)"/>
      <use xlink:href="#DejaVuSans-29" transform="translate(758.935547 0)"/>
     </g>
    </g>
    <g id="line2d_45">
     <path d="M 62.03 330.946312 
L 71.03 330.946312 
L 80.03 330.946312 
" style="fill: none; stroke: #2e6da4; stroke-width: 1.5; stroke-linecap: square"/>
    </g>
    <g id="text_32">
     <!-- $\omega_0$ = VBM pin -->
     <g transform="translate(87.23 334.096312) scale(0.09 -0.09)">
      <use xlink:href="#DejaVuSans-Oblique-3c9" transform="translate(0 0.015625)"/>
      <use xlink:href="#DejaVuSans-30" transform="translate(83.740234 -16.390625) scale(0.7)"/>
      <use xlink:href="#DejaVuSans-20" transform="translate(131.010742 0.015625)"/>
      <use xlink:href="#DejaVuSans-3d" transform="translate(162.797852 0.015625)"/>
      <use xlink:href="#DejaVuSans-20" transform="translate(246.586914 0.015625)"/>
      <use xlink:href="#DejaVuSans-56" transform="translate(278.374023 0.015625)"/>
      <use xlink:href="#DejaVuSans-42" transform="translate(346.782227 0.015625)"/>
      <use xlink:href="#DejaVuSans-4d" transform="translate(415.385742 0.015625)"/>
      <use xlink:href="#DejaVuSans-20" transform="translate(501.665039 0.015625)"/>
      <use xlink:href="#DejaVuSans-70" transform="translate(533.452148 0.015625)"/>
      <use xlink:href="#DejaVuSans-69" transform="translate(596.928711 0.015625)"/>
      <use xlink:href="#DejaVuSans-6e" transform="translate(624.711914 0.015625)"/>
     </g>
    </g>
    <g id="line2d_46">
     <path d="M 62.03 344.176312 
L 71.03 344.176312 
L 80.03 344.176312 
" style="fill: none; stroke-dasharray: 5.55,2.4; stroke-dashoffset: 0; stroke: #c1602f; stroke-width: 1.5"/>
    </g>
    <g id="text_33">
     <!-- $\omega_0$ = CBM pin -->
     <g transform="translate(87.23 347.326312) scale(0.09 -0.09)">
      <use xlink:href="#DejaVuSans-Oblique-3c9" transform="translate(0 0.015625)"/>
      <use xlink:href="#DejaVuSans-30" transform="translate(83.740234 -16.390625) scale(0.7)"/>
      <use xlink:href="#DejaVuSans-20" transform="translate(131.010742 0.015625)"/>
      <use xlink:href="#DejaVuSans-3d" transform="translate(162.797852 0.015625)"/>
      <use xlink:href="#DejaVuSans-20" transform="translate(246.586914 0.015625)"/>
      <use xlink:href="#DejaVuSans-43" transform="translate(278.374023 0.015625)"/>
      <use xlink:href="#DejaVuSans-42" transform="translate(348.198242 0.015625)"/>
      <use xlink:href="#DejaVuSans-4d" transform="translate(416.801758 0.015625)"/>
      <use xlink:href="#DejaVuSans-20" transform="translate(503.081055 0.015625)"/>
      <use xlink:href="#DejaVuSans-70" transform="translate(534.868164 0.015625)"/>
      <use xlink:href="#DejaVuSans-69" transform="translate(598.344727 0.015625)"/>
      <use xlink:href="#DejaVuSans-6e" transform="translate(626.12793 0.015625)"/>
     </g>
    </g>
   </g>
  </g>
  <g id="text_34">
   <!-- Downfolding-pin comparison: $T$-matrix DOS with $\omega_0$=VBM vs CBM (KS engine, $\eta$=10 meV, one impurity / 6$\times$6) -->
   <g transform="translate(42.99 19.304) scale(0.11 -0.11)">
    <defs>
     <path id="DejaVuSans-77" d="M 269 3500 
L 844 3500 
L 1563 769 
L 2278 3500 
L 2956 3500 
L 3675 769 
L 4391 3500 
L 4966 3500 
L 4050 0 
L 3372 0 
L 2619 2869 
L 1863 0 
L 1184 0 
L 269 3500 
z
" transform="scale(0.015625)"/>
     <path id="DejaVuSans-3a" d="M 750 794 
L 1409 794 
L 1409 0 
L 750 0 
L 750 794 
z
M 750 3309 
L 1409 3309 
L 1409 2516 
L 750 2516 
L 750 3309 
z
" transform="scale(0.015625)"/>
     <path id="DejaVuSans-Oblique-54" d="M 378 4666 
L 4325 4666 
L 4225 4134 
L 2559 4134 
L 1759 0 
L 1125 0 
L 1925 4134 
L 275 4134 
L 378 4666 
z
" transform="scale(0.015625)"/>
     <path id="DejaVuSans-78" d="M 3513 3500 
L 2247 1797 
L 3578 0 
L 2900 0 
L 1881 1375 
L 863 0 
L 184 0 
L 1544 1831 
L 300 3500 
L 978 3500 
L 1906 2253 
L 2834 3500 
L 3513 3500 
z
" transform="scale(0.015625)"/>
     <path id="DejaVuSans-76" d="M 191 3500 
L 800 3500 
L 1894 563 
L 2988 3500 
L 3597 3500 
L 2284 0 
L 1503 0 
L 191 3500 
z
" transform="scale(0.015625)"/>
     <path id="DejaVuSans-4b" d="M 628 4666 
L 1259 4666 
L 1259 2694 
L 3353 4666 
L 4166 4666 
L 1850 2491 
L 4331 0 
L 3500 0 
L 1259 2247 
L 1259 0 
L 628 0 
L 628 4666 
z
" transform="scale(0.015625)"/>
     <path id="DejaVuSans-2c" d="M 750 794 
L 1409 794 
L 1409 256 
L 897 -744 
L 494 -744 
L 750 256 
L 750 794 
z
" transform="scale(0.015625)"/>
     <path id="DejaVuSans-Oblique-3b7" d="M 3703 2113 
L 3034 -1331 
L 2459 -1331 
L 3125 2094 
Q 3222 2591 3075 2838 
Q 2931 3084 2544 3084 
Q 2078 3084 1750 2788 
Q 1425 2491 1325 1978 
L 941 0 
L 363 0 
L 1044 3500 
L 1622 3500 
L 1516 2956 
Q 1781 3272 2094 3428 
Q 2403 3584 2769 3584 
Q 3372 3584 3609 3213 
Q 3844 2838 3703 2113 
z
" transform="scale(0.015625)"/>
     <path id="DejaVuSans-79" d="M 2059 -325 
Q 1816 -950 1584 -1140 
Q 1353 -1331 966 -1331 
L 506 -1331 
L 506 -850 
L 844 -850 
Q 1081 -850 1212 -737 
Q 1344 -625 1503 -206 
L 1606 56 
L 191 3500 
L 800 3500 
L 1894 763 
L 2988 3500 
L 3597 3500 
L 2059 -325 
z
" transform="scale(0.015625)"/>
    </defs>
    <use xlink:href="#DejaVuSans-44" transform="translate(0 0.015625)"/>
    <use xlink:href="#DejaVuSans-6f" transform="translate(77.001953 0.015625)"/>
    <use xlink:href="#DejaVuSans-77" transform="translate(138.183594 0.015625)"/>
    <use xlink:href="#DejaVuSans-6e" transform="translate(219.970703 0.015625)"/>
    <use xlink:href="#DejaVuSans-66" transform="translate(283.349609 0.015625)"/>
    <use xlink:href="#DejaVuSans-6f" transform="translate(318.554688 0.015625)"/>
    <use xlink:href="#DejaVuSans-6c" transform="translate(379.736328 0.015625)"/>
    <use xlink:href="#DejaVuSans-64" transform="translate(407.519531 0.015625)"/>
    <use xlink:href="#DejaVuSans-69" transform="translate(470.996094 0.015625)"/>
    <use xlink:href="#DejaVuSans-6e" transform="translate(498.779297 0.015625)"/>
    <use xlink:href="#DejaVuSans-67" transform="translate(562.158203 0.015625)"/>
    <use xlink:href="#DejaVuSans-2d" transform="translate(625.634766 0.015625)"/>
    <use xlink:href="#DejaVuSans-70" transform="translate(661.71875 0.015625)"/>
    <use xlink:href="#DejaVuSans-69" transform="translate(725.195312 0.015625)"/>
    <use xlink:href="#DejaVuSans-6e" transform="translate(752.978516 0.015625)"/>
    <use xlink:href="#DejaVuSans-20" transform="translate(816.357422 0.015625)"/>
    <use xlink:href="#DejaVuSans-63" transform="translate(848.144531 0.015625)"/>
    <use xlink:href="#DejaVuSans-6f" transform="translate(903.125 0.015625)"/>
    <use xlink:href="#DejaVuSans-6d" transform="translate(964.306641 0.015625)"/>
    <use xlink:href="#DejaVuSans-70" transform="translate(1061.71875 0.015625)"/>
    <use xlink:href="#DejaVuSans-61" transform="translate(1125.195312 0.015625)"/>
    <use xlink:href="#DejaVuSans-72" transform="translate(1186.474609 0.015625)"/>
    <use xlink:href="#DejaVuSans-69" transform="translate(1227.587891 0.015625)"/>
    <use xlink:href="#DejaVuSans-73" transform="translate(1255.371094 0.015625)"/>
    <use xlink:href="#DejaVuSans-6f" transform="translate(1307.470703 0.015625)"/>
    <use xlink:href="#DejaVuSans-6e" transform="translate(1368.652344 0.015625)"/>
    <use xlink:href="#DejaVuSans-3a" transform="translate(1432.03125 0.015625)"/>
    <use xlink:href="#DejaVuSans-20" transform="translate(1465.722656 0.015625)"/>
    <use xlink:href="#DejaVuSans-Oblique-54" transform="translate(1497.509766 0.015625)"/>
    <use xlink:href="#DejaVuSans-2d" transform="translate(1558.59375 0.015625)"/>
    <use xlink:href="#DejaVuSans-6d" transform="translate(1592.927734 0.015625)"/>
    <use xlink:href="#DejaVuSans-61" transform="translate(1690.339844 0.015625)"/>
    <use xlink:href="#DejaVuSans-74" transform="translate(1751.619141 0.015625)"/>
    <use xlink:href="#DejaVuSans-72" transform="translate(1790.828125 0.015625)"/>
    <use xlink:href="#DejaVuSans-69" transform="translate(1831.941406 0.015625)"/>
    <use xlink:href="#DejaVuSans-78" transform="translate(1859.724609 0.015625)"/>
    <use xlink:href="#DejaVuSans-20" transform="translate(1918.904297 0.015625)"/>
    <use xlink:href="#DejaVuSans-44" transform="translate(1950.691406 0.015625)"/>
    <use xlink:href="#DejaVuSans-4f" transform="translate(2027.693359 0.015625)"/>
    <use xlink:href="#DejaVuSans-53" transform="translate(2106.404297 0.015625)"/>
    <use xlink:href="#DejaVuSans-20" transform="translate(2169.880859 0.015625)"/>
    <use xlink:href="#DejaVuSans-77" transform="translate(2201.667969 0.015625)"/>
    <use xlink:href="#DejaVuSans-69" transform="translate(2283.455078 0.015625)"/>
    <use xlink:href="#DejaVuSans-74" transform="translate(2311.238281 0.015625)"/>
    <use xlink:href="#DejaVuSans-68" transform="translate(2350.447266 0.015625)"/>
    <use xlink:href="#DejaVuSans-20" transform="translate(2413.826172 0.015625)"/>
    <use xlink:href="#DejaVuSans-Oblique-3c9" transform="translate(2445.613281 0.015625)"/>
    <use xlink:href="#DejaVuSans-30" transform="translate(2529.353516 -16.390625) scale(0.7)"/>
    <use xlink:href="#DejaVuSans-3d" transform="translate(2576.624023 0.015625)"/>
    <use xlink:href="#DejaVuSans-56" transform="translate(2660.413086 0.015625)"/>
    <use xlink:href="#DejaVuSans-42" transform="translate(2728.821289 0.015625)"/>
    <use xlink:href="#DejaVuSans-4d" transform="translate(2797.424805 0.015625)"/>
    <use xlink:href="#DejaVuSans-20" transform="translate(2883.704102 0.015625)"/>
    <use xlink:href="#DejaVuSans-76" transform="translate(2915.491211 0.015625)"/>
    <use xlink:href="#DejaVuSans-73" transform="translate(2974.670898 0.015625)"/>
    <use xlink:href="#DejaVuSans-20" transform="translate(3026.770508 0.015625)"/>
    <use xlink:href="#DejaVuSans-43" transform="translate(3058.557617 0.015625)"/>
    <use xlink:href="#DejaVuSans-42" transform="translate(3128.381836 0.015625)"/>
    <use xlink:href="#DejaVuSans-4d" transform="translate(3196.985352 0.015625)"/>
    <use xlink:href="#DejaVuSans-20" transform="translate(3283.264648 0.015625)"/>
    <use xlink:href="#DejaVuSans-28" transform="translate(3315.051758 0.015625)"/>
    <use xlink:href="#DejaVuSans-4b" transform="translate(3354.06543 0.015625)"/>
    <use xlink:href="#DejaVuSans-53" transform="translate(3419.641602 0.015625)"/>
    <use xlink:href="#DejaVuSans-20" transform="translate(3483.118164 0.015625)"/>
    <use xlink:href="#DejaVuSans-65" transform="translate(3514.905273 0.015625)"/>
    <use xlink:href="#DejaVuSans-6e" transform="translate(3576.428711 0.015625)"/>
    <use xlink:href="#DejaVuSans-67" transform="translate(3639.807617 0.015625)"/>
    <use xlink:href="#DejaVuSans-69" transform="translate(3703.28418 0.015625)"/>
    <use xlink:href="#DejaVuSans-6e" transform="translate(3731.067383 0.015625)"/>
    <use xlink:href="#DejaVuSans-65" transform="translate(3794.446289 0.015625)"/>
    <use xlink:href="#DejaVuSans-2c" transform="translate(3855.969727 0.015625)"/>
    <use xlink:href="#DejaVuSans-20" transform="translate(3887.756836 0.015625)"/>
    <use xlink:href="#DejaVuSans-Oblique-3b7" transform="translate(3919.543945 0.015625)"/>
    <use xlink:href="#DejaVuSans-3d" transform="translate(3982.922852 0.015625)"/>
    <use xlink:href="#DejaVuSans-31" transform="translate(4066.711914 0.015625)"/>
    <use xlink:href="#DejaVuSans-30" transform="translate(4130.334961 0.015625)"/>
    <use xlink:href="#DejaVuSans-20" transform="translate(4193.958008 0.015625)"/>
    <use xlink:href="#DejaVuSans-6d" transform="translate(4225.745117 0.015625)"/>
    <use xlink:href="#DejaVuSans-65" transform="translate(4323.157227 0.015625)"/>
    <use xlink:href="#DejaVuSans-56" transform="translate(4384.680664 0.015625)"/>
    <use xlink:href="#DejaVuSans-2c" transform="translate(4453.088867 0.015625)"/>
    <use xlink:href="#DejaVuSans-20" transform="translate(4484.875977 0.015625)"/>
    <use xlink:href="#DejaVuSans-6f" transform="translate(4516.663086 0.015625)"/>
    <use xlink:href="#DejaVuSans-6e" transform="translate(4577.844727 0.015625)"/>
    <use xlink:href="#DejaVuSans-65" transform="translate(4641.223633 0.015625)"/>
    <use xlink:href="#DejaVuSans-20" transform="translate(4702.74707 0.015625)"/>
    <use xlink:href="#DejaVuSans-69" transform="translate(4734.53418 0.015625)"/>
    <use xlink:href="#DejaVuSans-6d" transform="translate(4762.317383 0.015625)"/>
    <use xlink:href="#DejaVuSans-70" transform="translate(4859.729492 0.015625)"/>
    <use xlink:href="#DejaVuSans-75" transform="translate(4923.206055 0.015625)"/>
    <use xlink:href="#DejaVuSans-72" transform="translate(4986.584961 0.015625)"/>
    <use xlink:href="#DejaVuSans-69" transform="translate(5027.698242 0.015625)"/>
    <use xlink:href="#DejaVuSans-74" transform="translate(5055.481445 0.015625)"/>
    <use xlink:href="#DejaVuSans-79" transform="translate(5094.69043 0.015625)"/>
    <use xlink:href="#DejaVuSans-20" transform="translate(5153.870117 0.015625)"/>
    <use xlink:href="#DejaVuSans-2f" transform="translate(5185.657227 0.015625)"/>
    <use xlink:href="#DejaVuSans-20" transform="translate(5219.348633 0.015625)"/>
    <use xlink:href="#DejaVuSans-36" transform="translate(5251.135742 0.015625)"/>
    <use xlink:href="#DejaVuSans-d7" transform="translate(5314.758789 0.015625)"/>
    <use xlink:href="#DejaVuSans-36" transform="translate(5398.547852 0.015625)"/>
    <use xlink:href="#DejaVuSans-29" transform="translate(5462.170898 0.015625)"/>
   </g>
  </g>
 </g>
 <defs>
  <clipPath id="pf2f8cd8d74">
   <rect x="53.93" y="78.72" width="618.505" height="196.846"/>
  </clipPath>
  <clipPath id="p4a09bedae5">
   <rect x="53.93" y="305.946" width="618.505" height="196.846"/>
  </clipPath>
 </defs>
</svg>
