<?xml version="1.0" encoding="utf-8" standalone="no"?>
<!DOCTYPE svg PUBLIC "-//W3C//DTD SVG 1.1//EN"
  "http://www.w3.org/Graphics/SVG/1.1/DTD/svg11.dtd">
<svg xmlns:xlink="http://www.w3.org/1999/xlink" width="633.6pt" height="331.2pt" viewBox="0 0 633.6 331.2" xmlns="http://www.w3.org/2000/svg" version="1.1">
 <metadata>
  <rdf:RDF xmlns:dc="http://purl.org/dc/elements/1.1/" xmlns:cc="http://creativecommons.org/ns#" xmlns:rdf="http://www.w3.org/1999/02/22-rdf-syntax-ns#">
   <cc:Work>
    <dc:type rdf:resource="http://purl.org/dc/dcmitype/StillImage"/>
    <dc:date>2026-07-08T13:18:55.976122</dc:date>
    <dc:format>image/svg+xml</dc:format>
    <dc:creator>
     <cc:Agent>
      <dc:title>Matplotlib v3.10.8, https://matplotlib.org/</dc:title>
     </cc:Agent>
    </dc:creator>
   </cc:Work>
  </rdf:RDF>
 </metadata>
 <defs>
  <style type="text/css">*{stroke-linejoin: round; stroke-linecap: butt}</style>
 </defs>
 <g id="figure_1">
  <g id="patch_1">
   <path d="M 0 331.2 
L 633.6 331.2 
L 633.6 0 
L 0 0 
z
" style="fill: #ffffff"/>
  </g>
  <g id="axes_1">
   <g id="patch_2">
    <path d="M 47.108 286.792 
L 622.8 286.792 
L 622.8 26.16 
L 47.108 26.16 
z
" style="fill: #ffffff"/>
   </g>
   <g id="matplotlib.axis_1">
    <g id="xtick_1">
     <g id="line2d_1">
      <defs>
       <path id="m0cc4f4b026" d="M 0 0 
L 0 3.5 
" style="stroke: #000000; stroke-width: 0.8"/>
      </defs>
      <g>
       <use xlink:href="#m0cc4f4b026" x="104.6772" y="286.792" style="stroke: #000000; stroke-width: 0.8"/>
      </g>
     </g>
     <g id="text_1">
      <!-- 0 -->
      <g transform="translate(101.49595 301.390438) scale(0.1 -0.1)">
       <defs>
        <path id="DejaVuSans-30" d="M 2034 4250 
Q 1547 4250 1301 3770 
Q 1056 3291 1056 2328 
Q 1056 1369 1301 889 
Q 1547 409 2034 409 
Q 2525 409 2770 889 
Q 3016 1369 3016 2328 
Q 3016 3291 2770 3770 
Q 2525 4250 2034 4250 
z
M 2034 4750 
Q 2819 4750 3233 4129 
Q 3647 3509 3647 2328 
Q 3647 1150 3233 529 
Q 2819 -91 2034 -91 
Q 1250 -91 836 529 
Q 422 1150 422 2328 
Q 422 3509 836 4129 
Q 1250 4750 2034 4750 
z
" transform="scale(0.015625)"/>
       </defs>
       <use xlink:href="#DejaVuSans-30"/>
      </g>
     </g>
    </g>
    <g id="xtick_2">
     <g id="line2d_2">
      <g>
       <use xlink:href="#m0cc4f4b026" x="219.8156" y="286.792" style="stroke: #000000; stroke-width: 0.8"/>
      </g>
     </g>
     <g id="text_2">
      <!-- 100 -->
      <g transform="translate(210.27185 301.390438) scale(0.1 -0.1)">
       <defs>
        <path id="DejaVuSans-31" d="M 794 531 
L 1825 531 
L 1825 4091 
L 703 3866 
L 703 4441 
L 1819 4666 
L 2450 4666 
L 2450 531 
L 3481 531 
L 3481 0 
L 794 0 
L 794 531 
z
" transform="scale(0.015625)"/>
       </defs>
       <use xlink:href="#DejaVuSans-31"/>
       <use xlink:href="#DejaVuSans-30" transform="translate(63.623047 0)"/>
       <use xlink:href="#DejaVuSans-30" transform="translate(127.246094 0)"/>
      </g>
     </g>
    </g>
    <g id="xtick_3">
     <g id="line2d_3">
      <g>
       <use xlink:href="#m0cc4f4b026" x="334.954" y="286.792" style="stroke: #000000; stroke-width: 0.8"/>
      </g>
     </g>
     <g id="text_3">
      <!-- 200 -->
      <g transform="translate(325.41025 301.390438) scale(0.1 -0.1)">
       <defs>
        <path id="DejaVuSans-32" d="M 1228 531 
L 3431 531 
L 3431 0 
L 469 0 
L 469 531 
Q 828 903 1448 1529 
Q 2069 2156 2228 2338 
Q 2531 2678 2651 2914 
Q 2772 3150 2772 3378 
Q 2772 3750 2511 3984 
Q 2250 4219 1831 4219 
Q 1534 4219 1204 4116 
Q 875 4013 500 3803 
L 500 4441 
Q 881 4594 1212 4672 
Q 1544 4750 1819 4750 
Q 2544 4750 2975 4387 
Q 3406 4025 3406 3419 
Q 3406 3131 3298 2873 
Q 3191 2616 2906 2266 
Q 2828 2175 2409 1742 
Q 1991 1309 1228 531 
z
" transform="scale(0.015625)"/>
       </defs>
       <use xlink:href="#DejaVuSans-32"/>
       <use xlink:href="#DejaVuSans-30" transform="translate(63.623047 0)"/>
       <use xlink:href="#DejaVuSans-30" transform="translate(127.246094 0)"/>
      </g>
     </g>
    </g>
    <g id="xtick_4">
     <g id="line2d_4">
      <g>
       <use xlink:href="#m0cc4f4b026" x="450.0924" y="286.792" style="stroke: #000000; stroke-width: 0.8"/>
      </g>
     </g>
     <g id="text_4">
      <!-- 300 -->
      <g transform="translate(440.54865 301.390438) scale(0.1 -0.1)">
       <defs>
        <path id="DejaVuSans-33" d="M 2597 2516 
Q 3050 2419 3304 2112 
Q 3559 1806 3559 1356 
Q 3559 666 3084 287 
Q 2609 -91 1734 -91 
Q 1441 -91 1130 -33 
Q 819 25 488 141 
L 488 750 
Q 750 597 1062 519 
Q 1375 441 1716 441 
Q 2309 441 2620 675 
Q 2931 909 2931 1356 
Q 2931 1769 2642 2001 
Q 2353 2234 1838 2234 
L 1294 2234 
L 1294 2753 
L 1863 2753 
Q 2328 2753 2575 2939 
Q 2822 3125 2822 3475 
Q 2822 3834 2567 4026 
Q 2313 4219 1838 4219 
Q 1578 4219 1281 4162 
Q 984 4106 628 3988 
L 628 4550 
Q 988 4650 1302 4700 
Q 1616 4750 1894 4750 
Q 2613 4750 3031 4423 
Q 3450 4097 3450 3541 
Q 3450 3153 3228 2886 
Q 3006 2619 2597 2516 
z
" transform="scale(0.015625)"/>
       </defs>
       <use xlink:href="#DejaVuSans-33"/>
       <use xlink:href="#DejaVuSans-30" transform="translate(63.623047 0)"/>
       <use xlink:href="#DejaVuSans-30" transform="translate(127.246094 0)"/>
      </g>
     </g>
    </g>
    <g id="xtick_5">
     <g id="line2d_5">
      <g>
       <use xlink:href="#m0cc4f4b026" x="565.2308" y="286.792" style="stroke: #000000; stroke-width: 0.8"/>
      </g>
     </g>
     <g id="text_5">
      <!-- 400 -->
      <g transform="translate(555.68705 301.390438) scale(0.1 -0.1)">
       <defs>
        <path id="DejaVuSans-34" d="M 2419 4116 
L 825 1625 
L 2419 1625 
L 2419 4116 
z
M 2253 4666 
L 3047 4666 
L 3047 1625 
L 3713 1625 
L 3713 1100 
L 3047 1100 
L 3047 0 
L 2419 0 
L 2419 1100 
L 313 1100 
L 313 1709 
L 2253 4666 
z
" transform="scale(0.015625)"/>
       </defs>
       <use xlink:href="#DejaVuSans-34"/>
       <use xlink:href="#DejaVuSans-30" transform="translate(63.623047 0)"/>
       <use xlink:href="#DejaVuSans-30" transform="translate(127.246094 0)"/>
      </g>
     </g>
    </g>
    <g id="text_6">
     <!-- $\omega - E_{\rm CBM}$  (meV) -->
     <g transform="translate(295.004 315.068562) scale(0.1 -0.1)">
      <defs>
       <path id="DejaVuSans-Oblique-3c9" d="M 1369 -91 
Q 72 -91 434 1766 
Q 575 2500 1256 3500 
L 1875 3500 
Q 1231 2500 1088 1750 
Q 819 397 1519 397 
Q 2166 397 2478 2078 
L 3009 2078 
Q 2669 388 3316 397 
Q 4013 403 4275 1750 
Q 4419 2500 4169 3500 
L 4788 3500 
Q 5075 2500 4934 1766 
Q 4578 -94 3278 -91 
Q 2428 -88 2503 844 
Q 2194 -91 1369 -91 
z
" transform="scale(0.015625)"/>
       <path id="DejaVuSans-2212" d="M 678 2272 
L 4684 2272 
L 4684 1741 
L 678 1741 
L 678 2272 
z
" transform="scale(0.015625)"/>
       <path id="DejaVuSans-Oblique-45" d="M 1081 4666 
L 4031 4666 
L 3928 4134 
L 1606 4134 
L 1338 2753 
L 3566 2753 
L 3463 2222 
L 1234 2222 
L 909 531 
L 3284 531 
L 3181 0 
L 172 0 
L 1081 4666 
z
" transform="scale(0.015625)"/>
       <path id="DejaVuSans-43" d="M 4122 4306 
L 4122 3641 
Q 3803 3938 3442 4084 
Q 3081 4231 2675 4231 
Q 1875 4231 1450 3742 
Q 1025 3253 1025 2328 
Q 1025 1406 1450 917 
Q 1875 428 2675 428 
Q 3081 428 3442 575 
Q 3803 722 4122 1019 
L 4122 359 
Q 3791 134 3420 21 
Q 3050 -91 2638 -91 
Q 1578 -91 968 557 
Q 359 1206 359 2328 
Q 359 3453 968 4101 
Q 1578 4750 2638 4750 
Q 3056 4750 3426 4639 
Q 3797 4528 4122 4306 
z
" transform="scale(0.015625)"/>
       <path id="DejaVuSans-42" d="M 1259 2228 
L 1259 519 
L 2272 519 
Q 2781 519 3026 730 
Q 3272 941 3272 1375 
Q 3272 1813 3026 2020 
Q 2781 2228 2272 2228 
L 1259 2228 
z
M 1259 4147 
L 1259 2741 
L 2194 2741 
Q 2656 2741 2882 2914 
Q 3109 3088 3109 3444 
Q 3109 3797 2882 3972 
Q 2656 4147 2194 4147 
L 1259 4147 
z
M 628 4666 
L 2241 4666 
Q 2963 4666 3353 4366 
Q 3744 4066 3744 3513 
Q 3744 3084 3544 2831 
Q 3344 2578 2956 2516 
Q 3422 2416 3680 2098 
Q 3938 1781 3938 1306 
Q 3938 681 3513 340 
Q 3088 0 2303 0 
L 628 0 
L 628 4666 
z
" transform="scale(0.015625)"/>
       <path id="DejaVuSans-4d" d="M 628 4666 
L 1569 4666 
L 2759 1491 
L 3956 4666 
L 4897 4666 
L 4897 0 
L 4281 0 
L 4281 4097 
L 3078 897 
L 2444 897 
L 1241 4097 
L 1241 0 
L 628 0 
L 628 4666 
z
" transform="scale(0.015625)"/>
       <path id="DejaVuSans-20" transform="scale(0.015625)"/>
       <path id="DejaVuSans-28" d="M 1984 4856 
Q 1566 4138 1362 3434 
Q 1159 2731 1159 2009 
Q 1159 1288 1364 580 
Q 1569 -128 1984 -844 
L 1484 -844 
Q 1016 -109 783 600 
Q 550 1309 550 2009 
Q 550 2706 781 3412 
Q 1013 4119 1484 4856 
L 1984 4856 
z
" transform="scale(0.015625)"/>
       <path id="DejaVuSans-6d" d="M 3328 2828 
Q 3544 3216 3844 3400 
Q 4144 3584 4550 3584 
Q 5097 3584 5394 3201 
Q 5691 2819 5691 2113 
L 5691 0 
L 5113 0 
L 5113 2094 
Q 5113 2597 4934 2840 
Q 4756 3084 4391 3084 
Q 3944 3084 3684 2787 
Q 3425 2491 3425 1978 
L 3425 0 
L 2847 0 
L 2847 2094 
Q 2847 2600 2669 2842 
Q 2491 3084 2119 3084 
Q 1678 3084 1418 2786 
Q 1159 2488 1159 1978 
L 1159 0 
L 581 0 
L 581 3500 
L 1159 3500 
L 1159 2956 
Q 1356 3278 1631 3431 
Q 1906 3584 2284 3584 
Q 2666 3584 2933 3390 
Q 3200 3197 3328 2828 
z
" transform="scale(0.015625)"/>
       <path id="DejaVuSans-65" d="M 3597 1894 
L 3597 1613 
L 953 1613 
Q 991 1019 1311 708 
Q 1631 397 2203 397 
Q 2534 397 2845 478 
Q 3156 559 3463 722 
L 3463 178 
Q 3153 47 2828 -22 
Q 2503 -91 2169 -91 
Q 1331 -91 842 396 
Q 353 884 353 1716 
Q 353 2575 817 3079 
Q 1281 3584 2069 3584 
Q 2775 3584 3186 3129 
Q 3597 2675 3597 1894 
z
M 3022 2063 
Q 3016 2534 2758 2815 
Q 2500 3097 2075 3097 
Q 1594 3097 1305 2825 
Q 1016 2553 972 2059 
L 3022 2063 
z
" transform="scale(0.015625)"/>
       <path id="DejaVuSans-56" d="M 1831 0 
L 50 4666 
L 709 4666 
L 2188 738 
L 3669 4666 
L 4325 4666 
L 2547 0 
L 1831 0 
z
" transform="scale(0.015625)"/>
       <path id="DejaVuSans-29" d="M 513 4856 
L 1013 4856 
Q 1481 4119 1714 3412 
Q 1947 2706 1947 2009 
Q 1947 1309 1714 600 
Q 1481 -109 1013 -844 
L 513 -844 
Q 928 -128 1133 580 
Q 1338 1288 1338 2009 
Q 1338 2731 1133 3434 
Q 928 4138 513 4856 
z
" transform="scale(0.015625)"/>
      </defs>
      <use xlink:href="#DejaVuSans-Oblique-3c9" transform="translate(0 0.125)"/>
      <use xlink:href="#DejaVuSans-2212" transform="translate(103.222656 0.125)"/>
      <use xlink:href="#DejaVuSans-Oblique-45" transform="translate(206.494141 0.125)"/>
      <use xlink:href="#DejaVuSans-43" transform="translate(269.677734 -16.28125) scale(0.7)"/>
      <use xlink:href="#DejaVuSans-42" transform="translate(318.554688 -16.28125) scale(0.7)"/>
      <use xlink:href="#DejaVuSans-4d" transform="translate(366.577148 -16.28125) scale(0.7)"/>
      <use xlink:href="#DejaVuSans-20" transform="translate(429.707031 0.125)"/>
      <use xlink:href="#DejaVuSans-20" transform="translate(461.494141 0.125)"/>
      <use xlink:href="#DejaVuSans-28" transform="translate(493.28125 0.125)"/>
      <use xlink:href="#DejaVuSans-6d" transform="translate(532.294922 0.125)"/>
      <use xlink:href="#DejaVuSans-65" transform="translate(629.707031 0.125)"/>
      <use xlink:href="#DejaVuSans-56" transform="translate(691.230469 0.125)"/>
      <use xlink:href="#DejaVuSans-29" transform="translate(759.638672 0.125)"/>
     </g>
    </g>
   </g>
   <g id="matplotlib.axis_2">
    <g id="ytick_1">
     <g id="line2d_6">
      <defs>
       <path id="mc0c01e6c5d" d="M 0 0 
L -3.5 0 
" style="stroke: #000000; stroke-width: 0.8"/>
      </defs>
      <g>
       <use xlink:href="#mc0c01e6c5d" x="47.108" y="286.792" style="stroke: #000000; stroke-width: 0.8"/>
      </g>
     </g>
     <g id="text_7">
      <!-- 0 -->
      <g transform="translate(33.7455 290.591219) scale(0.1 -0.1)">
       <use xlink:href="#DejaVuSans-30"/>
      </g>
     </g>
    </g>
    <g id="ytick_2">
     <g id="line2d_7">
      <g>
       <use xlink:href="#mc0c01e6c5d" x="47.108" y="255.026959" style="stroke: #000000; stroke-width: 0.8"/>
      </g>
     </g>
     <g id="text_8">
      <!-- 10 -->
      <g transform="translate(27.383 258.826177) scale(0.1 -0.1)">
       <use xlink:href="#DejaVuSans-31"/>
       <use xlink:href="#DejaVuSans-30" transform="translate(63.623047 0)"/>
      </g>
     </g>
    </g>
    <g id="ytick_3">
     <g id="line2d_8">
      <g>
       <use xlink:href="#mc0c01e6c5d" x="47.108" y="223.261917" style="stroke: #000000; stroke-width: 0.8"/>
      </g>
     </g>
     <g id="text_9">
      <!-- 20 -->
      <g transform="translate(27.383 227.061136) scale(0.1 -0.1)">
       <use xlink:href="#DejaVuSans-32"/>
       <use xlink:href="#DejaVuSans-30" transform="translate(63.623047 0)"/>
      </g>
     </g>
    </g>
    <g id="ytick_4">
     <g id="line2d_9">
      <g>
       <use xlink:href="#mc0c01e6c5d" x="47.108" y="191.496876" style="stroke: #000000; stroke-width: 0.8"/>
      </g>
     </g>
     <g id="text_10">
      <!-- 30 -->
      <g transform="translate(27.383 195.296095) scale(0.1 -0.1)">
       <use xlink:href="#DejaVuSans-33"/>
       <use xlink:href="#DejaVuSans-30" transform="translate(63.623047 0)"/>
      </g>
     </g>
    </g>
    <g id="ytick_5">
     <g id="line2d_10">
      <g>
       <use xlink:href="#mc0c01e6c5d" x="47.108" y="159.731835" style="stroke: #000000; stroke-width: 0.8"/>
      </g>
     </g>
     <g id="text_11">
      <!-- 40 -->
      <g transform="translate(27.383 163.531054) scale(0.1 -0.1)">
       <use xlink:href="#DejaVuSans-34"/>
       <use xlink:href="#DejaVuSans-30" transform="translate(63.623047 0)"/>
      </g>
     </g>
    </g>
    <g id="ytick_6">
     <g id="line2d_11">
      <g>
       <use xlink:href="#mc0c01e6c5d" x="47.108" y="127.966794" style="stroke: #000000; stroke-width: 0.8"/>
      </g>
     </g>
     <g id="text_12">
      <!-- 50 -->
      <g transform="translate(27.383 131.766012) scale(0.1 -0.1)">
       <defs>
        <path id="DejaVuSans-35" d="M 691 4666 
L 3169 4666 
L 3169 4134 
L 1269 4134 
L 1269 2991 
Q 1406 3038 1543 3061 
Q 1681 3084 1819 3084 
Q 2600 3084 3056 2656 
Q 3513 2228 3513 1497 
Q 3513 744 3044 326 
Q 2575 -91 1722 -91 
Q 1428 -91 1123 -41 
Q 819 9 494 109 
L 494 744 
Q 775 591 1075 516 
Q 1375 441 1709 441 
Q 2250 441 2565 725 
Q 2881 1009 2881 1497 
Q 2881 1984 2565 2268 
Q 2250 2553 1709 2553 
Q 1456 2553 1204 2497 
Q 953 2441 691 2322 
L 691 4666 
z
" transform="scale(0.015625)"/>
       </defs>
       <use xlink:href="#DejaVuSans-35"/>
       <use xlink:href="#DejaVuSans-30" transform="translate(63.623047 0)"/>
      </g>
     </g>
    </g>
    <g id="ytick_7">
     <g id="line2d_12">
      <g>
       <use xlink:href="#mc0c01e6c5d" x="47.108" y="96.201752" style="stroke: #000000; stroke-width: 0.8"/>
      </g>
     </g>
     <g id="text_13">
      <!-- 60 -->
      <g transform="translate(27.383 100.000971) scale(0.1 -0.1)">
       <defs>
        <path id="DejaVuSans-36" d="M 2113 2584 
Q 1688 2584 1439 2293 
Q 1191 2003 1191 1497 
Q 1191 994 1439 701 
Q 1688 409 2113 409 
Q 2538 409 2786 701 
Q 3034 994 3034 1497 
Q 3034 2003 2786 2293 
Q 2538 2584 2113 2584 
z
M 3366 4563 
L 3366 3988 
Q 3128 4100 2886 4159 
Q 2644 4219 2406 4219 
Q 1781 4219 1451 3797 
Q 1122 3375 1075 2522 
Q 1259 2794 1537 2939 
Q 1816 3084 2150 3084 
Q 2853 3084 3261 2657 
Q 3669 2231 3669 1497 
Q 3669 778 3244 343 
Q 2819 -91 2113 -91 
Q 1303 -91 875 529 
Q 447 1150 447 2328 
Q 447 3434 972 4092 
Q 1497 4750 2381 4750 
Q 2619 4750 2861 4703 
Q 3103 4656 3366 4563 
z
" transform="scale(0.015625)"/>
       </defs>
       <use xlink:href="#DejaVuSans-36"/>
       <use xlink:href="#DejaVuSans-30" transform="translate(63.623047 0)"/>
      </g>
     </g>
    </g>
    <g id="ytick_8">
     <g id="line2d_13">
      <g>
       <use xlink:href="#mc0c01e6c5d" x="47.108" y="64.436711" style="stroke: #000000; stroke-width: 0.8"/>
      </g>
     </g>
     <g id="text_14">
      <!-- 70 -->
      <g transform="translate(27.383 68.23593) scale(0.1 -0.1)">
       <defs>
        <path id="DejaVuSans-37" d="M 525 4666 
L 3525 4666 
L 3525 4397 
L 1831 0 
L 1172 0 
L 2766 4134 
L 525 4134 
L 525 4666 
z
" transform="scale(0.015625)"/>
       </defs>
       <use xlink:href="#DejaVuSans-37"/>
       <use xlink:href="#DejaVuSans-30" transform="translate(63.623047 0)"/>
      </g>
     </g>
    </g>
    <g id="ytick_9">
     <g id="line2d_14">
      <g>
       <use xlink:href="#mc0c01e6c5d" x="47.108" y="32.67167" style="stroke: #000000; stroke-width: 0.8"/>
      </g>
     </g>
     <g id="text_15">
      <!-- 80 -->
      <g transform="translate(27.383 36.470889) scale(0.1 -0.1)">
       <defs>
        <path id="DejaVuSans-38" d="M 2034 2216 
Q 1584 2216 1326 1975 
Q 1069 1734 1069 1313 
Q 1069 891 1326 650 
Q 1584 409 2034 409 
Q 2484 409 2743 651 
Q 3003 894 3003 1313 
Q 3003 1734 2745 1975 
Q 2488 2216 2034 2216 
z
M 1403 2484 
Q 997 2584 770 2862 
Q 544 3141 544 3541 
Q 544 4100 942 4425 
Q 1341 4750 2034 4750 
Q 2731 4750 3128 4425 
Q 3525 4100 3525 3541 
Q 3525 3141 3298 2862 
Q 3072 2584 2669 2484 
Q 3125 2378 3379 2068 
Q 3634 1759 3634 1313 
Q 3634 634 3220 271 
Q 2806 -91 2034 -91 
Q 1263 -91 848 271 
Q 434 634 434 1313 
Q 434 1759 690 2068 
Q 947 2378 1403 2484 
z
M 1172 3481 
Q 1172 3119 1398 2916 
Q 1625 2713 2034 2713 
Q 2441 2713 2670 2916 
Q 2900 3119 2900 3481 
Q 2900 3844 2670 4047 
Q 2441 4250 2034 4250 
Q 1625 4250 1398 4047 
Q 1172 3844 1172 3481 
z
" transform="scale(0.015625)"/>
       </defs>
       <use xlink:href="#DejaVuSans-38"/>
       <use xlink:href="#DejaVuSans-30" transform="translate(63.623047 0)"/>
      </g>
     </g>
    </g>
    <g id="text_16">
     <!-- $-\,\mathrm{Im}\,\Sigma_{K}(\omega)$  (meV) -->
     <g transform="translate(21.303312 200.676) rotate(-90) scale(0.1 -0.1)">
      <defs>
       <path id="DejaVuSans-49" d="M 628 4666 
L 1259 4666 
L 1259 0 
L 628 0 
L 628 4666 
z
" transform="scale(0.015625)"/>
       <path id="DejaVuSans-3a3" d="M 1353 531 
L 3634 531 
L 3634 0 
L 628 0 
L 628 531 
L 2125 2481 
L 628 4134 
L 628 4666 
L 3578 4666 
L 3578 4134 
L 1353 4134 
L 2850 2494 
L 1353 531 
z
" transform="scale(0.015625)"/>
       <path id="DejaVuSans-Oblique-4b" d="M 1081 4666 
L 1716 4666 
L 1331 2700 
L 3781 4666 
L 4622 4666 
L 1850 2438 
L 3878 0 
L 3109 0 
L 1247 2272 
L 806 0 
L 172 0 
L 1081 4666 
z
" transform="scale(0.015625)"/>
      </defs>
      <use xlink:href="#DejaVuSans-2212" transform="translate(0 0.125)"/>
      <use xlink:href="#DejaVuSans-49" transform="translate(100.024739 0.125)"/>
      <use xlink:href="#DejaVuSans-6d" transform="translate(125.891926 0.125)"/>
      <use xlink:href="#DejaVuSans-3a3" transform="translate(239.539712 0.125)"/>
      <use xlink:href="#DejaVuSans-Oblique-4b" transform="translate(303.680337 -16.28125) scale(0.7)"/>
      <use xlink:href="#DejaVuSans-28" transform="translate(352.318032 0.125)"/>
      <use xlink:href="#DejaVuSans-Oblique-3c9" transform="translate(391.331704 0.125)"/>
      <use xlink:href="#DejaVuSans-29" transform="translate(475.071938 0.125)"/>
      <use xlink:href="#DejaVuSans-20" transform="translate(514.08561 0.125)"/>
      <use xlink:href="#DejaVuSans-20" transform="translate(545.87272 0.125)"/>
      <use xlink:href="#DejaVuSans-28" transform="translate(577.659829 0.125)"/>
      <use xlink:href="#DejaVuSans-6d" transform="translate(616.673501 0.125)"/>
      <use xlink:href="#DejaVuSans-65" transform="translate(714.08561 0.125)"/>
      <use xlink:href="#DejaVuSans-56" transform="translate(775.609048 0.125)"/>
      <use xlink:href="#DejaVuSans-29" transform="translate(844.017251 0.125)"/>
     </g>
    </g>
   </g>
   <g id="line2d_15">
    <path d="M 47.108 166.322002 
L 52.86492 147.249171 
L 58.62184 133.486435 
L 64.37876 129.925522 
L 70.13568 137.98987 
L 75.8926 154.353157 
L 81.64952 173.78185 
L 87.40644 192.34588 
L 93.16336 208.245543 
L 98.92028 221.132703 
L 104.6772 231.31233 
L 110.43412 239.272302 
L 116.19104 245.482184 
L 121.94796 250.330797 
L 127.70488 254.120522 
L 133.4618 257.079943 
L 139.21872 259.379632 
L 144.97564 261.146042 
L 150.73256 262.472382 
L 156.48948 263.426698 
L 162.2464 264.05769 
L 168.00332 264.398808 
L 173.76024 264.471023 
L 179.51716 264.284584 
L 185.27408 263.839963 
L 191.031 263.128075 
L 196.78792 262.129827 
L 202.54484 260.814949 
L 208.30176 259.139989 
L 214.05868 257.045274 
L 219.8156 254.45052 
L 225.57252 251.248629 
L 231.32944 247.297055 
L 237.08636 242.405903 
L 242.84328 236.321876 
L 248.6002 228.70742 
L 254.35712 219.11584 
L 260.11404 206.96761 
L 265.87096 191.545064 
L 271.62788 172.051199 
L 277.3848 147.836545 
L 283.14172 118.981334 
L 288.89864 87.411332 
L 294.65556 58.215933 
L 300.41248 39.447401 
L 306.1694 38.179236 
L 311.92632 54.939344 
L 317.68324 83.234129 
L 323.44016 114.82762 
L 329.19708 144.167686 
L 334.954 168.98152 
L 340.71092 189.022107 
L 346.46784 204.885995 
L 352.22476 217.368146 
L 357.98168 227.20095 
L 363.7386 234.980959 
L 369.49552 241.169249 
L 375.25244 246.113999 
L 381.00936 250.075598 
L 386.76628 253.248077 
L 392.5232 255.775811 
L 398.28012 257.76607 
L 404.03704 259.298165 
L 409.79396 260.429386 
L 415.55088 261.197644 
L 421.3078 261.622163 
L 427.06472 261.704676 
L 432.82164 261.431135 
L 438.57856 260.771665 
L 444.33548 259.677841 
L 450.0924 258.077739 
L 455.84932 255.868958 
L 461.60624 252.909408 
L 467.36316 249.005903 
L 473.12008 243.902218 
L 478.877 237.272704 
L 484.63392 228.738601 
L 490.39084 217.947869 
L 496.14776 204.79864 
L 501.90468 189.908041 
L 507.6616 175.278975 
L 513.41852 164.54452 
L 519.17544 161.593979 
L 524.93236 167.758561 
L 530.68928 180.622567 
L 536.4462 196.106548 
L 542.20312 211.046319 
L 547.96004 223.948393 
L 553.71696 234.494536 
L 559.47388 242.907732 
L 565.2308 249.569147 
L 570.98772 254.851374 
L 576.74464 259.065377 
L 582.50156 262.454523 
L 588.25848 265.204121 
L 594.0154 267.453856 
L 599.77232 269.308877 
L 605.52924 270.848577 
L 611.28616 272.133179 
L 617.04308 273.208582 
L 622.8 274.109872 
L 628.55692 274.863862 
L 634.31384 275.49091 
L 634.6 275.516524 
" clip-path="url(#p11745f8358)" style="fill: none; stroke: #2e6da4; stroke-width: 1.7; stroke-linecap: square"/>
   </g>
   <g id="line2d_16">
    <path d="M 47.108 173.531568 
L 52.86492 191.386519 
L 58.62184 205.955495 
L 64.37876 217.555803 
L 70.13568 226.598754 
L 75.8926 233.501783 
L 81.64952 238.635892 
L 87.40644 242.301016 
L 93.16336 244.72945 
L 98.92028 246.109711 
L 104.6772 246.61786 
L 110.43412 246.424885 
L 116.19104 245.637813 
L 121.94796 244.199746 
L 127.70488 241.865775 
L 133.4618 238.286843 
L 139.21872 233.101887 
L 144.97564 226.005055 
L 150.73256 216.876138 
L 156.48948 206.090464 
L 162.2464 195.018233 
L 168.00332 186.322308 
L 173.76024 183.132904 
L 179.51716 186.91441 
L 185.27408 196.171657 
L 191.031 207.766493 
L 196.78792 219.043304 
L 202.54484 228.634699 
L 208.30176 236.150338 
L 214.05868 241.666482 
L 219.8156 245.402914 
L 225.57252 247.593551 
L 231.32944 248.486356 
L 237.08636 248.433868 
L 242.84328 248.024456 
L 248.6002 248.096856 
L 254.35712 249.415593 
L 260.11404 252.15105 
L 265.87096 255.789434 
L 271.62788 259.607145 
L 277.3848 263.10474 
L 283.14172 266.082232 
L 288.89864 268.528181 
L 294.65556 270.50936 
L 300.41248 272.109795 
L 306.1694 273.406101 
L 311.92632 274.460684 
L 317.68324 275.321926 
L 323.44016 276.026462 
L 329.19708 276.601644 
L 334.954 277.067607 
L 340.71092 277.438824 
L 346.46784 277.725188 
L 352.22476 277.932703 
L 357.98168 278.06385 
L 363.7386 278.117677 
L 369.49552 278.089688 
L 375.25244 277.971688 
L 381.00936 277.751944 
L 386.76628 277.416582 
L 392.5232 276.954066 
L 398.28012 276.365562 
L 404.03704 275.6825 
L 409.79396 274.983089 
L 415.55088 274.381699 
L 421.3078 273.967261 
L 427.06472 273.726819 
L 432.82164 273.536618 
L 438.57856 273.228985 
L 444.33548 272.6574 
L 450.0924 271.712577 
L 455.84932 270.309391 
L 461.60624 268.381028 
L 467.36316 265.905814 
L 473.12008 262.984689 
L 478.877 259.95987 
L 484.63392 257.466688 
L 490.39084 256.207914 
L 496.14776 256.472389 
L 501.90468 257.918343 
L 507.6616 259.909335 
L 513.41852 261.963609 
L 519.17544 263.930318 
L 524.93236 265.889184 
L 530.68928 267.914396 
L 536.4462 269.934789 
L 542.20312 271.800881 
L 547.96004 273.405025 
L 553.71696 274.717291 
L 559.47388 275.759318 
L 565.2308 276.572236 
L 570.98772 277.198212 
L 576.74464 277.673278 
L 582.50156 278.025869 
L 588.25848 278.277516 
L 594.0154 278.444086 
L 599.77232 278.53696 
L 605.52924 278.563963 
L 611.28616 278.530049 
L 617.04308 278.437749 
L 622.8 278.287443 
L 628.55692 278.077457 
L 634.31384 277.804013 
L 634.6 277.786964 
" clip-path="url(#p11745f8358)" style="fill: none; stroke: #7a4fa3; stroke-width: 1.7; stroke-linecap: square"/>
   </g>
   <g id="line2d_17">
    <path d="M 314.229088 286.792 
L 314.229088 26.16 
" clip-path="url(#p11745f8358)" style="fill: none; stroke-dasharray: 0.8,1.32; stroke-dashoffset: 0; stroke: #444444; stroke-width: 0.8"/>
   </g>
   <g id="line2d_18">
    <path d="M 367.883582 286.792 
L 367.883582 26.16 
" clip-path="url(#p11745f8358)" style="fill: none; stroke-dasharray: 0.8,1.32; stroke-dashoffset: 0; stroke: #444444; stroke-width: 0.8"/>
   </g>
   <g id="line2d_19">
    <path d="M 456.309874 286.792 
L 456.309874 26.16 
" clip-path="url(#p11745f8358)" style="fill: none; stroke-dasharray: 0.8,1.32; stroke-dashoffset: 0; stroke: #444444; stroke-width: 0.8"/>
   </g>
   <g id="line2d_20">
    <path d="M 462.757624 286.792 
L 462.757624 26.16 
" clip-path="url(#p11745f8358)" style="fill: none; stroke-dasharray: 0.8,1.32; stroke-dashoffset: 0; stroke: #444444; stroke-width: 0.8"/>
   </g>
   <g id="line2d_21">
    <path d="M 115.269933 286.792 
L 115.269933 26.16 
" clip-path="url(#p11745f8358)" style="fill: none; stroke-dasharray: 3.33,1.44; stroke-dashoffset: 0; stroke: #2a7a4a; stroke-width: 0.9"/>
   </g>
   <g id="patch_3">
    <path d="M 47.108 286.792 
L 47.108 26.16 
" style="fill: none; stroke: #000000; stroke-width: 0.8; stroke-linejoin: miter; stroke-linecap: square"/>
   </g>
   <g id="patch_4">
    <path d="M 622.8 286.792 
L 622.8 26.16 
" style="fill: none; stroke: #000000; stroke-width: 0.8; stroke-linejoin: miter; stroke-linecap: square"/>
   </g>
   <g id="patch_5">
    <path d="M 47.108 286.792 
L 622.8 286.792 
" style="fill: none; stroke: #000000; stroke-width: 0.8; stroke-linejoin: miter; stroke-linecap: square"/>
   </g>
   <g id="patch_6">
    <path d="M 47.108 26.16 
L 622.8 26.16 
" style="fill: none; stroke: #000000; stroke-width: 0.8; stroke-linejoin: miter; stroke-linecap: square"/>
   </g>
   <g id="text_17">
    <!-- supercell resonance fingerprint -->
    <g style="fill: #444444" transform="translate(314.682133 80.330603) scale(0.085 -0.085)">
     <defs>
      <path id="DejaVuSans-73" d="M 2834 3397 
L 2834 2853 
Q 2591 2978 2328 3040 
Q 2066 3103 1784 3103 
Q 1356 3103 1142 2972 
Q 928 2841 928 2578 
Q 928 2378 1081 2264 
Q 1234 2150 1697 2047 
L 1894 2003 
Q 2506 1872 2764 1633 
Q 3022 1394 3022 966 
Q 3022 478 2636 193 
Q 2250 -91 1575 -91 
Q 1294 -91 989 -36 
Q 684 19 347 128 
L 347 722 
Q 666 556 975 473 
Q 1284 391 1588 391 
Q 1994 391 2212 530 
Q 2431 669 2431 922 
Q 2431 1156 2273 1281 
Q 2116 1406 1581 1522 
L 1381 1569 
Q 847 1681 609 1914 
Q 372 2147 372 2553 
Q 372 3047 722 3315 
Q 1072 3584 1716 3584 
Q 2034 3584 2315 3537 
Q 2597 3491 2834 3397 
z
" transform="scale(0.015625)"/>
      <path id="DejaVuSans-75" d="M 544 1381 
L 544 3500 
L 1119 3500 
L 1119 1403 
Q 1119 906 1312 657 
Q 1506 409 1894 409 
Q 2359 409 2629 706 
Q 2900 1003 2900 1516 
L 2900 3500 
L 3475 3500 
L 3475 0 
L 2900 0 
L 2900 538 
Q 2691 219 2414 64 
Q 2138 -91 1772 -91 
Q 1169 -91 856 284 
Q 544 659 544 1381 
z
M 1991 3584 
L 1991 3584 
z
" transform="scale(0.015625)"/>
      <path id="DejaVuSans-70" d="M 1159 525 
L 1159 -1331 
L 581 -1331 
L 581 3500 
L 1159 3500 
L 1159 2969 
Q 1341 3281 1617 3432 
Q 1894 3584 2278 3584 
Q 2916 3584 3314 3078 
Q 3713 2572 3713 1747 
Q 3713 922 3314 415 
Q 2916 -91 2278 -91 
Q 1894 -91 1617 61 
Q 1341 213 1159 525 
z
M 3116 1747 
Q 3116 2381 2855 2742 
Q 2594 3103 2138 3103 
Q 1681 3103 1420 2742 
Q 1159 2381 1159 1747 
Q 1159 1113 1420 752 
Q 1681 391 2138 391 
Q 2594 391 2855 752 
Q 3116 1113 3116 1747 
z
" transform="scale(0.015625)"/>
      <path id="DejaVuSans-72" d="M 2631 2963 
Q 2534 3019 2420 3045 
Q 2306 3072 2169 3072 
Q 1681 3072 1420 2755 
Q 1159 2438 1159 1844 
L 1159 0 
L 581 0 
L 581 3500 
L 1159 3500 
L 1159 2956 
Q 1341 3275 1631 3429 
Q 1922 3584 2338 3584 
Q 2397 3584 2469 3576 
Q 2541 3569 2628 3553 
L 2631 2963 
z
" transform="scale(0.015625)"/>
      <path id="DejaVuSans-63" d="M 3122 3366 
L 3122 2828 
Q 2878 2963 2633 3030 
Q 2388 3097 2138 3097 
Q 1578 3097 1268 2742 
Q 959 2388 959 1747 
Q 959 1106 1268 751 
Q 1578 397 2138 397 
Q 2388 397 2633 464 
Q 2878 531 3122 666 
L 3122 134 
Q 2881 22 2623 -34 
Q 2366 -91 2075 -91 
Q 1284 -91 818 406 
Q 353 903 353 1747 
Q 353 2603 823 3093 
Q 1294 3584 2113 3584 
Q 2378 3584 2631 3529 
Q 2884 3475 3122 3366 
z
" transform="scale(0.015625)"/>
      <path id="DejaVuSans-6c" d="M 603 4863 
L 1178 4863 
L 1178 0 
L 603 0 
L 603 4863 
z
" transform="scale(0.015625)"/>
      <path id="DejaVuSans-6f" d="M 1959 3097 
Q 1497 3097 1228 2736 
Q 959 2375 959 1747 
Q 959 1119 1226 758 
Q 1494 397 1959 397 
Q 2419 397 2687 759 
Q 2956 1122 2956 1747 
Q 2956 2369 2687 2733 
Q 2419 3097 1959 3097 
z
M 1959 3584 
Q 2709 3584 3137 3096 
Q 3566 2609 3566 1747 
Q 3566 888 3137 398 
Q 2709 -91 1959 -91 
Q 1206 -91 779 398 
Q 353 888 353 1747 
Q 353 2609 779 3096 
Q 1206 3584 1959 3584 
z
" transform="scale(0.015625)"/>
      <path id="DejaVuSans-6e" d="M 3513 2113 
L 3513 0 
L 2938 0 
L 2938 2094 
Q 2938 2591 2744 2837 
Q 2550 3084 2163 3084 
Q 1697 3084 1428 2787 
Q 1159 2491 1159 1978 
L 1159 0 
L 581 0 
L 581 3500 
L 1159 3500 
L 1159 2956 
Q 1366 3272 1645 3428 
Q 1925 3584 2291 3584 
Q 2894 3584 3203 3211 
Q 3513 2838 3513 2113 
z
" transform="scale(0.015625)"/>
      <path id="DejaVuSans-61" d="M 2194 1759 
Q 1497 1759 1228 1600 
Q 959 1441 959 1056 
Q 959 750 1161 570 
Q 1363 391 1709 391 
Q 2188 391 2477 730 
Q 2766 1069 2766 1631 
L 2766 1759 
L 2194 1759 
z
M 3341 1997 
L 3341 0 
L 2766 0 
L 2766 531 
Q 2569 213 2275 61 
Q 1981 -91 1556 -91 
Q 1019 -91 701 211 
Q 384 513 384 1019 
Q 384 1609 779 1909 
Q 1175 2209 1959 2209 
L 2766 2209 
L 2766 2266 
Q 2766 2663 2505 2880 
Q 2244 3097 1772 3097 
Q 1472 3097 1187 3025 
Q 903 2953 641 2809 
L 641 3341 
Q 956 3463 1253 3523 
Q 1550 3584 1831 3584 
Q 2591 3584 2966 3190 
Q 3341 2797 3341 1997 
z
" transform="scale(0.015625)"/>
      <path id="DejaVuSans-66" d="M 2375 4863 
L 2375 4384 
L 1825 4384 
Q 1516 4384 1395 4259 
Q 1275 4134 1275 3809 
L 1275 3500 
L 2222 3500 
L 2222 3053 
L 1275 3053 
L 1275 0 
L 697 0 
L 697 3053 
L 147 3053 
L 147 3500 
L 697 3500 
L 697 3744 
Q 697 4328 969 4595 
Q 1241 4863 1831 4863 
L 2375 4863 
z
" transform="scale(0.015625)"/>
      <path id="DejaVuSans-69" d="M 603 3500 
L 1178 3500 
L 1178 0 
L 603 0 
L 603 3500 
z
M 603 4863 
L 1178 4863 
L 1178 4134 
L 603 4134 
L 603 4863 
z
" transform="scale(0.015625)"/>
      <path id="DejaVuSans-67" d="M 2906 1791 
Q 2906 2416 2648 2759 
Q 2391 3103 1925 3103 
Q 1463 3103 1205 2759 
Q 947 2416 947 1791 
Q 947 1169 1205 825 
Q 1463 481 1925 481 
Q 2391 481 2648 825 
Q 2906 1169 2906 1791 
z
M 3481 434 
Q 3481 -459 3084 -895 
Q 2688 -1331 1869 -1331 
Q 1566 -1331 1297 -1286 
Q 1028 -1241 775 -1147 
L 775 -588 
Q 1028 -725 1275 -790 
Q 1522 -856 1778 -856 
Q 2344 -856 2625 -561 
Q 2906 -266 2906 331 
L 2906 616 
Q 2728 306 2450 153 
Q 2172 0 1784 0 
Q 1141 0 747 490 
Q 353 981 353 1791 
Q 353 2603 747 3093 
Q 1141 3584 1784 3584 
Q 2172 3584 2450 3431 
Q 2728 3278 2906 2969 
L 2906 3500 
L 3481 3500 
L 3481 434 
z
" transform="scale(0.015625)"/>
      <path id="DejaVuSans-74" d="M 1172 4494 
L 1172 3500 
L 2356 3500 
L 2356 3053 
L 1172 3053 
L 1172 1153 
Q 1172 725 1289 603 
Q 1406 481 1766 481 
L 2356 481 
L 2356 0 
L 1766 0 
Q 1100 0 847 248 
Q 594 497 594 1153 
L 594 3053 
L 172 3053 
L 172 3500 
L 594 3500 
L 594 4494 
L 1172 4494 
z
" transform="scale(0.015625)"/>
     </defs>
     <use xlink:href="#DejaVuSans-73"/>
     <use xlink:href="#DejaVuSans-75" transform="translate(52.099609 0)"/>
     <use xlink:href="#DejaVuSans-70" transform="translate(115.478516 0)"/>
     <use xlink:href="#DejaVuSans-65" transform="translate(178.955078 0)"/>
     <use xlink:href="#DejaVuSans-72" transform="translate(240.478516 0)"/>
     <use xlink:href="#DejaVuSans-63" transform="translate(279.341797 0)"/>
     <use xlink:href="#DejaVuSans-65" transform="translate(334.322266 0)"/>
     <use xlink:href="#DejaVuSans-6c" transform="translate(395.845703 0)"/>
     <use xlink:href="#DejaVuSans-6c" transform="translate(423.628906 0)"/>
     <use xlink:href="#DejaVuSans-20" transform="translate(451.412109 0)"/>
     <use xlink:href="#DejaVuSans-72" transform="translate(483.199219 0)"/>
     <use xlink:href="#DejaVuSans-65" transform="translate(522.0625 0)"/>
     <use xlink:href="#DejaVuSans-73" transform="translate(583.585938 0)"/>
     <use xlink:href="#DejaVuSans-6f" transform="translate(635.685547 0)"/>
     <use xlink:href="#DejaVuSans-6e" transform="translate(696.867188 0)"/>
     <use xlink:href="#DejaVuSans-61" transform="translate(760.246094 0)"/>
     <use xlink:href="#DejaVuSans-6e" transform="translate(821.525391 0)"/>
     <use xlink:href="#DejaVuSans-63" transform="translate(884.904297 0)"/>
     <use xlink:href="#DejaVuSans-65" transform="translate(939.884766 0)"/>
     <use xlink:href="#DejaVuSans-20" transform="translate(1001.408203 0)"/>
     <use xlink:href="#DejaVuSans-66" transform="translate(1033.195312 0)"/>
     <use xlink:href="#DejaVuSans-69" transform="translate(1068.400391 0)"/>
     <use xlink:href="#DejaVuSans-6e" transform="translate(1096.183594 0)"/>
     <use xlink:href="#DejaVuSans-67" transform="translate(1159.5625 0)"/>
     <use xlink:href="#DejaVuSans-65" transform="translate(1223.039062 0)"/>
     <use xlink:href="#DejaVuSans-72" transform="translate(1284.5625 0)"/>
     <use xlink:href="#DejaVuSans-70" transform="translate(1325.675781 0)"/>
     <use xlink:href="#DejaVuSans-72" transform="translate(1389.152344 0)"/>
     <use xlink:href="#DejaVuSans-69" transform="translate(1430.265625 0)"/>
     <use xlink:href="#DejaVuSans-6e" transform="translate(1458.048828 0)"/>
     <use xlink:href="#DejaVuSans-74" transform="translate(1521.427734 0)"/>
    </g>
    <!-- (both NC and PAW supercells) -->
    <g style="fill: #444444" transform="translate(317.922094 89.848744) scale(0.085 -0.085)">
     <defs>
      <path id="DejaVuSans-62" d="M 3116 1747 
Q 3116 2381 2855 2742 
Q 2594 3103 2138 3103 
Q 1681 3103 1420 2742 
Q 1159 2381 1159 1747 
Q 1159 1113 1420 752 
Q 1681 391 2138 391 
Q 2594 391 2855 752 
Q 3116 1113 3116 1747 
z
M 1159 2969 
Q 1341 3281 1617 3432 
Q 1894 3584 2278 3584 
Q 2916 3584 3314 3078 
Q 3713 2572 3713 1747 
Q 3713 922 3314 415 
Q 2916 -91 2278 -91 
Q 1894 -91 1617 61 
Q 1341 213 1159 525 
L 1159 0 
L 581 0 
L 581 4863 
L 1159 4863 
L 1159 2969 
z
" transform="scale(0.015625)"/>
      <path id="DejaVuSans-68" d="M 3513 2113 
L 3513 0 
L 2938 0 
L 2938 2094 
Q 2938 2591 2744 2837 
Q 2550 3084 2163 3084 
Q 1697 3084 1428 2787 
Q 1159 2491 1159 1978 
L 1159 0 
L 581 0 
L 581 4863 
L 1159 4863 
L 1159 2956 
Q 1366 3272 1645 3428 
Q 1925 3584 2291 3584 
Q 2894 3584 3203 3211 
Q 3513 2838 3513 2113 
z
" transform="scale(0.015625)"/>
      <path id="DejaVuSans-4e" d="M 628 4666 
L 1478 4666 
L 3547 763 
L 3547 4666 
L 4159 4666 
L 4159 0 
L 3309 0 
L 1241 3903 
L 1241 0 
L 628 0 
L 628 4666 
z
" transform="scale(0.015625)"/>
      <path id="DejaVuSans-64" d="M 2906 2969 
L 2906 4863 
L 3481 4863 
L 3481 0 
L 2906 0 
L 2906 525 
Q 2725 213 2448 61 
Q 2172 -91 1784 -91 
Q 1150 -91 751 415 
Q 353 922 353 1747 
Q 353 2572 751 3078 
Q 1150 3584 1784 3584 
Q 2172 3584 2448 3432 
Q 2725 3281 2906 2969 
z
M 947 1747 
Q 947 1113 1208 752 
Q 1469 391 1925 391 
Q 2381 391 2643 752 
Q 2906 1113 2906 1747 
Q 2906 2381 2643 2742 
Q 2381 3103 1925 3103 
Q 1469 3103 1208 2742 
Q 947 2381 947 1747 
z
" transform="scale(0.015625)"/>
      <path id="DejaVuSans-50" d="M 1259 4147 
L 1259 2394 
L 2053 2394 
Q 2494 2394 2734 2622 
Q 2975 2850 2975 3272 
Q 2975 3691 2734 3919 
Q 2494 4147 2053 4147 
L 1259 4147 
z
M 628 4666 
L 2053 4666 
Q 2838 4666 3239 4311 
Q 3641 3956 3641 3272 
Q 3641 2581 3239 2228 
Q 2838 1875 2053 1875 
L 1259 1875 
L 1259 0 
L 628 0 
L 628 4666 
z
" transform="scale(0.015625)"/>
      <path id="DejaVuSans-41" d="M 2188 4044 
L 1331 1722 
L 3047 1722 
L 2188 4044 
z
M 1831 4666 
L 2547 4666 
L 4325 0 
L 3669 0 
L 3244 1197 
L 1141 1197 
L 716 0 
L 50 0 
L 1831 4666 
z
" transform="scale(0.015625)"/>
      <path id="DejaVuSans-57" d="M 213 4666 
L 850 4666 
L 1831 722 
L 2809 4666 
L 3519 4666 
L 4500 722 
L 5478 4666 
L 6119 4666 
L 4947 0 
L 4153 0 
L 3169 4050 
L 2175 0 
L 1381 0 
L 213 4666 
z
" transform="scale(0.015625)"/>
     </defs>
     <use xlink:href="#DejaVuSans-28"/>
     <use xlink:href="#DejaVuSans-62" transform="translate(39.013672 0)"/>
     <use xlink:href="#DejaVuSans-6f" transform="translate(102.490234 0)"/>
     <use xlink:href="#DejaVuSans-74" transform="translate(163.671875 0)"/>
     <use xlink:href="#DejaVuSans-68" transform="translate(202.880859 0)"/>
     <use xlink:href="#DejaVuSans-20" transform="translate(266.259766 0)"/>
     <use xlink:href="#DejaVuSans-4e" transform="translate(298.046875 0)"/>
     <use xlink:href="#DejaVuSans-43" transform="translate(372.851562 0)"/>
     <use xlink:href="#DejaVuSans-20" transform="translate(442.675781 0)"/>
     <use xlink:href="#DejaVuSans-61" transform="translate(474.462891 0)"/>
     <use xlink:href="#DejaVuSans-6e" transform="translate(535.742188 0)"/>
     <use xlink:href="#DejaVuSans-64" transform="translate(599.121094 0)"/>
     <use xlink:href="#DejaVuSans-20" transform="translate(662.597656 0)"/>
     <use xlink:href="#DejaVuSans-50" transform="translate(694.384766 0)"/>
     <use xlink:href="#DejaVuSans-41" transform="translate(748.3125 0)"/>
     <use xlink:href="#DejaVuSans-57" transform="translate(811.220703 0)"/>
     <use xlink:href="#DejaVuSans-20" transform="translate(910.097656 0)"/>
     <use xlink:href="#DejaVuSans-73" transform="translate(941.884766 0)"/>
     <use xlink:href="#DejaVuSans-75" transform="translate(993.984375 0)"/>
     <use xlink:href="#DejaVuSans-70" transform="translate(1057.363281 0)"/>
     <use xlink:href="#DejaVuSans-65" transform="translate(1120.839844 0)"/>
     <use xlink:href="#DejaVuSans-72" transform="translate(1182.363281 0)"/>
     <use xlink:href="#DejaVuSans-63" transform="translate(1221.226562 0)"/>
     <use xlink:href="#DejaVuSans-65" transform="translate(1276.207031 0)"/>
     <use xlink:href="#DejaVuSans-6c" transform="translate(1337.730469 0)"/>
     <use xlink:href="#DejaVuSans-6c" transform="translate(1365.513672 0)"/>
     <use xlink:href="#DejaVuSans-73" transform="translate(1393.296875 0)"/>
     <use xlink:href="#DejaVuSans-29" transform="translate(1445.396484 0)"/>
    </g>
   </g>
   <g id="text_18">
    <!-- edge doublet -->
    <g style="fill: #2a7a4a" transform="translate(118.493808 118.448653) scale(0.085 -0.085)">
     <use xlink:href="#DejaVuSans-65"/>
     <use xlink:href="#DejaVuSans-64" transform="translate(61.523438 0)"/>
     <use xlink:href="#DejaVuSans-67" transform="translate(125 0)"/>
     <use xlink:href="#DejaVuSans-65" transform="translate(188.476562 0)"/>
     <use xlink:href="#DejaVuSans-20" transform="translate(250 0)"/>
     <use xlink:href="#DejaVuSans-64" transform="translate(281.787109 0)"/>
     <use xlink:href="#DejaVuSans-6f" transform="translate(345.263672 0)"/>
     <use xlink:href="#DejaVuSans-75" transform="translate(406.445312 0)"/>
     <use xlink:href="#DejaVuSans-62" transform="translate(469.824219 0)"/>
     <use xlink:href="#DejaVuSans-6c" transform="translate(533.300781 0)"/>
     <use xlink:href="#DejaVuSans-65" transform="translate(561.083984 0)"/>
     <use xlink:href="#DejaVuSans-74" transform="translate(622.607422 0)"/>
    </g>
    <!-- (+9 meV, both supercells) -->
    <g style="fill: #2a7a4a" transform="translate(118.493808 127.966794) scale(0.085 -0.085)">
     <defs>
      <path id="DejaVuSans-2b" d="M 2944 4013 
L 2944 2272 
L 4684 2272 
L 4684 1741 
L 2944 1741 
L 2944 0 
L 2419 0 
L 2419 1741 
L 678 1741 
L 678 2272 
L 2419 2272 
L 2419 4013 
L 2944 4013 
z
" transform="scale(0.015625)"/>
      <path id="DejaVuSans-39" d="M 703 97 
L 703 672 
Q 941 559 1184 500 
Q 1428 441 1663 441 
Q 2288 441 2617 861 
Q 2947 1281 2994 2138 
Q 2813 1869 2534 1725 
Q 2256 1581 1919 1581 
Q 1219 1581 811 2004 
Q 403 2428 403 3163 
Q 403 3881 828 4315 
Q 1253 4750 1959 4750 
Q 2769 4750 3195 4129 
Q 3622 3509 3622 2328 
Q 3622 1225 3098 567 
Q 2575 -91 1691 -91 
Q 1453 -91 1209 -44 
Q 966 3 703 97 
z
M 1959 2075 
Q 2384 2075 2632 2365 
Q 2881 2656 2881 3163 
Q 2881 3666 2632 3958 
Q 2384 4250 1959 4250 
Q 1534 4250 1286 3958 
Q 1038 3666 1038 3163 
Q 1038 2656 1286 2365 
Q 1534 2075 1959 2075 
z
" transform="scale(0.015625)"/>
      <path id="DejaVuSans-2c" d="M 750 794 
L 1409 794 
L 1409 256 
L 897 -744 
L 494 -744 
L 750 256 
L 750 794 
z
" transform="scale(0.015625)"/>
     </defs>
     <use xlink:href="#DejaVuSans-28"/>
     <use xlink:href="#DejaVuSans-2b" transform="translate(39.013672 0)"/>
     <use xlink:href="#DejaVuSans-39" transform="translate(122.802734 0)"/>
     <use xlink:href="#DejaVuSans-20" transform="translate(186.425781 0)"/>
     <use xlink:href="#DejaVuSans-6d" transform="translate(218.212891 0)"/>
     <use xlink:href="#DejaVuSans-65" transform="translate(315.625 0)"/>
     <use xlink:href="#DejaVuSans-56" transform="translate(377.148438 0)"/>
     <use xlink:href="#DejaVuSans-2c" transform="translate(445.556641 0)"/>
     <use xlink:href="#DejaVuSans-20" transform="translate(477.34375 0)"/>
     <use xlink:href="#DejaVuSans-62" transform="translate(509.130859 0)"/>
     <use xlink:href="#DejaVuSans-6f" transform="translate(572.607422 0)"/>
     <use xlink:href="#DejaVuSans-74" transform="translate(633.789062 0)"/>
     <use xlink:href="#DejaVuSans-68" transform="translate(672.998047 0)"/>
     <use xlink:href="#DejaVuSans-20" transform="translate(736.376953 0)"/>
     <use xlink:href="#DejaVuSans-73" transform="translate(768.164062 0)"/>
     <use xlink:href="#DejaVuSans-75" transform="translate(820.263672 0)"/>
     <use xlink:href="#DejaVuSans-70" transform="translate(883.642578 0)"/>
     <use xlink:href="#DejaVuSans-65" transform="translate(947.119141 0)"/>
     <use xlink:href="#DejaVuSans-72" transform="translate(1008.642578 0)"/>
     <use xlink:href="#DejaVuSans-63" transform="translate(1047.505859 0)"/>
     <use xlink:href="#DejaVuSans-65" transform="translate(1102.486328 0)"/>
     <use xlink:href="#DejaVuSans-6c" transform="translate(1164.009766 0)"/>
     <use xlink:href="#DejaVuSans-6c" transform="translate(1191.792969 0)"/>
     <use xlink:href="#DejaVuSans-73" transform="translate(1219.576172 0)"/>
     <use xlink:href="#DejaVuSans-29" transform="translate(1271.675781 0)"/>
    </g>
   </g>
   <g id="text_19">
    <!-- Conduction resonance: pipelines vs supercell ground truths (O$_S$, 36-$k$ torus, K-point CBM state) -->
    <g transform="translate(85.4215 20.16) scale(0.105 -0.105)">
     <defs>
      <path id="DejaVuSans-3a" d="M 750 794 
L 1409 794 
L 1409 0 
L 750 0 
L 750 794 
z
M 750 3309 
L 1409 3309 
L 1409 2516 
L 750 2516 
L 750 3309 
z
" transform="scale(0.015625)"/>
      <path id="DejaVuSans-76" d="M 191 3500 
L 800 3500 
L 1894 563 
L 2988 3500 
L 3597 3500 
L 2284 0 
L 1503 0 
L 191 3500 
z
" transform="scale(0.015625)"/>
      <path id="DejaVuSans-4f" d="M 2522 4238 
Q 1834 4238 1429 3725 
Q 1025 3213 1025 2328 
Q 1025 1447 1429 934 
Q 1834 422 2522 422 
Q 3209 422 3611 934 
Q 4013 1447 4013 2328 
Q 4013 3213 3611 3725 
Q 3209 4238 2522 4238 
z
M 2522 4750 
Q 3503 4750 4090 4092 
Q 4678 3434 4678 2328 
Q 4678 1225 4090 567 
Q 3503 -91 2522 -91 
Q 1538 -91 948 565 
Q 359 1222 359 2328 
Q 359 3434 948 4092 
Q 1538 4750 2522 4750 
z
" transform="scale(0.015625)"/>
      <path id="DejaVuSans-Oblique-53" d="M 3859 4513 
L 3738 3897 
Q 3422 4066 3111 4152 
Q 2800 4238 2509 4238 
Q 1944 4238 1609 3991 
Q 1275 3744 1275 3334 
Q 1275 3109 1398 2989 
Q 1522 2869 2034 2731 
L 2413 2638 
Q 3053 2472 3303 2217 
Q 3553 1963 3553 1503 
Q 3553 797 2998 353 
Q 2444 -91 1538 -91 
Q 1166 -91 791 -17 
Q 416 56 38 206 
L 166 856 
Q 513 641 861 531 
Q 1209 422 1556 422 
Q 2147 422 2503 684 
Q 2859 947 2859 1369 
Q 2859 1650 2717 1795 
Q 2575 1941 2106 2059 
L 1728 2156 
Q 1081 2325 845 2545 
Q 609 2766 609 3163 
Q 609 3859 1145 4304 
Q 1681 4750 2541 4750 
Q 2875 4750 3203 4690 
Q 3531 4631 3859 4513 
z
" transform="scale(0.015625)"/>
      <path id="DejaVuSans-2d" d="M 313 2009 
L 1997 2009 
L 1997 1497 
L 313 1497 
L 313 2009 
z
" transform="scale(0.015625)"/>
      <path id="DejaVuSans-Oblique-6b" d="M 1172 4863 
L 1747 4863 
L 1197 2028 
L 3169 3500 
L 3916 3500 
L 1716 1825 
L 3322 0 
L 2625 0 
L 1131 1709 
L 800 0 
L 225 0 
L 1172 4863 
z
" transform="scale(0.015625)"/>
      <path id="DejaVuSans-4b" d="M 628 4666 
L 1259 4666 
L 1259 2694 
L 3353 4666 
L 4166 4666 
L 1850 2491 
L 4331 0 
L 3500 0 
L 1259 2247 
L 1259 0 
L 628 0 
L 628 4666 
z
" transform="scale(0.015625)"/>
     </defs>
     <use xlink:href="#DejaVuSans-43" transform="translate(0 0.015625)"/>
     <use xlink:href="#DejaVuSans-6f" transform="translate(69.824219 0.015625)"/>
     <use xlink:href="#DejaVuSans-6e" transform="translate(131.005859 0.015625)"/>
     <use xlink:href="#DejaVuSans-64" transform="translate(194.384766 0.015625)"/>
     <use xlink:href="#DejaVuSans-75" transform="translate(257.861328 0.015625)"/>
     <use xlink:href="#DejaVuSans-63" transform="translate(321.240234 0.015625)"/>
     <use xlink:href="#DejaVuSans-74" transform="translate(376.220703 0.015625)"/>
     <use xlink:href="#DejaVuSans-69" transform="translate(415.429688 0.015625)"/>
     <use xlink:href="#DejaVuSans-6f" transform="translate(443.212891 0.015625)"/>
     <use xlink:href="#DejaVuSans-6e" transform="translate(504.394531 0.015625)"/>
     <use xlink:href="#DejaVuSans-20" transform="translate(567.773438 0.015625)"/>
     <use xlink:href="#DejaVuSans-72" transform="translate(599.560547 0.015625)"/>
     <use xlink:href="#DejaVuSans-65" transform="translate(640.673828 0.015625)"/>
     <use xlink:href="#DejaVuSans-73" transform="translate(702.197266 0.015625)"/>
     <use xlink:href="#DejaVuSans-6f" transform="translate(754.296875 0.015625)"/>
     <use xlink:href="#DejaVuSans-6e" transform="translate(815.478516 0.015625)"/>
     <use xlink:href="#DejaVuSans-61" transform="translate(878.857422 0.015625)"/>
     <use xlink:href="#DejaVuSans-6e" transform="translate(940.136719 0.015625)"/>
     <use xlink:href="#DejaVuSans-63" transform="translate(1003.515625 0.015625)"/>
     <use xlink:href="#DejaVuSans-65" transform="translate(1058.496094 0.015625)"/>
     <use xlink:href="#DejaVuSans-3a" transform="translate(1120.019531 0.015625)"/>
     <use xlink:href="#DejaVuSans-20" transform="translate(1153.710938 0.015625)"/>
     <use xlink:href="#DejaVuSans-70" transform="translate(1185.498047 0.015625)"/>
     <use xlink:href="#DejaVuSans-69" transform="translate(1248.974609 0.015625)"/>
     <use xlink:href="#DejaVuSans-70" transform="translate(1276.757812 0.015625)"/>
     <use xlink:href="#DejaVuSans-65" transform="translate(1340.234375 0.015625)"/>
     <use xlink:href="#DejaVuSans-6c" transform="translate(1401.757812 0.015625)"/>
     <use xlink:href="#DejaVuSans-69" transform="translate(1429.541016 0.015625)"/>
     <use xlink:href="#DejaVuSans-6e" transform="translate(1457.324219 0.015625)"/>
     <use xlink:href="#DejaVuSans-65" transform="translate(1520.703125 0.015625)"/>
     <use xlink:href="#DejaVuSans-73" transform="translate(1582.226562 0.015625)"/>
     <use xlink:href="#DejaVuSans-20" transform="translate(1634.326172 0.015625)"/>
     <use xlink:href="#DejaVuSans-76" transform="translate(1666.113281 0.015625)"/>
     <use xlink:href="#DejaVuSans-73" transform="translate(1725.292969 0.015625)"/>
     <use xlink:href="#DejaVuSans-20" transform="translate(1777.392578 0.015625)"/>
     <use xlink:href="#DejaVuSans-73" transform="translate(1809.179688 0.015625)"/>
     <use xlink:href="#DejaVuSans-75" transform="translate(1861.279297 0.015625)"/>
     <use xlink:href="#DejaVuSans-70" transform="translate(1924.658203 0.015625)"/>
     <use xlink:href="#DejaVuSans-65" transform="translate(1988.134766 0.015625)"/>
     <use xlink:href="#DejaVuSans-72" transform="translate(2049.658203 0.015625)"/>
     <use xlink:href="#DejaVuSans-63" transform="translate(2090.771484 0.015625)"/>
     <use xlink:href="#DejaVuSans-65" transform="translate(2145.751953 0.015625)"/>
     <use xlink:href="#DejaVuSans-6c" transform="translate(2207.275391 0.015625)"/>
     <use xlink:href="#DejaVuSans-6c" transform="translate(2235.058594 0.015625)"/>
     <use xlink:href="#DejaVuSans-20" transform="translate(2262.841797 0.015625)"/>
     <use xlink:href="#DejaVuSans-67" transform="translate(2294.628906 0.015625)"/>
     <use xlink:href="#DejaVuSans-72" transform="translate(2358.105469 0.015625)"/>
     <use xlink:href="#DejaVuSans-6f" transform="translate(2399.21875 0.015625)"/>
     <use xlink:href="#DejaVuSans-75" transform="translate(2460.400391 0.015625)"/>
     <use xlink:href="#DejaVuSans-6e" transform="translate(2523.779297 0.015625)"/>
     <use xlink:href="#DejaVuSans-64" transform="translate(2587.158203 0.015625)"/>
     <use xlink:href="#DejaVuSans-20" transform="translate(2650.634766 0.015625)"/>
     <use xlink:href="#DejaVuSans-74" transform="translate(2682.421875 0.015625)"/>
     <use xlink:href="#DejaVuSans-72" transform="translate(2721.630859 0.015625)"/>
     <use xlink:href="#DejaVuSans-75" transform="translate(2762.744141 0.015625)"/>
     <use xlink:href="#DejaVuSans-74" transform="translate(2826.123047 0.015625)"/>
     <use xlink:href="#DejaVuSans-68" transform="translate(2865.332031 0.015625)"/>
     <use xlink:href="#DejaVuSans-73" transform="translate(2928.710938 0.015625)"/>
     <use xlink:href="#DejaVuSans-20" transform="translate(2980.810547 0.015625)"/>
     <use xlink:href="#DejaVuSans-28" transform="translate(3012.597656 0.015625)"/>
     <use xlink:href="#DejaVuSans-4f" transform="translate(3051.611328 0.015625)"/>
     <use xlink:href="#DejaVuSans-Oblique-53" transform="translate(3131.279297 -16.390625) scale(0.7)"/>
     <use xlink:href="#DejaVuSans-2c" transform="translate(3178.447266 0.015625)"/>
     <use xlink:href="#DejaVuSans-20" transform="translate(3210.234375 0.015625)"/>
     <use xlink:href="#DejaVuSans-33" transform="translate(3242.021484 0.015625)"/>
     <use xlink:href="#DejaVuSans-36" transform="translate(3305.644531 0.015625)"/>
     <use xlink:href="#DejaVuSans-2d" transform="translate(3369.267578 0.015625)"/>
     <use xlink:href="#DejaVuSans-Oblique-6b" transform="translate(3405.351562 0.015625)"/>
     <use xlink:href="#DejaVuSans-20" transform="translate(3463.261719 0.015625)"/>
     <use xlink:href="#DejaVuSans-74" transform="translate(3495.048828 0.015625)"/>
     <use xlink:href="#DejaVuSans-6f" transform="translate(3534.257812 0.015625)"/>
     <use xlink:href="#DejaVuSans-72" transform="translate(3595.439453 0.015625)"/>
     <use xlink:href="#DejaVuSans-75" transform="translate(3636.552734 0.015625)"/>
     <use xlink:href="#DejaVuSans-73" transform="translate(3699.931641 0.015625)"/>
     <use xlink:href="#DejaVuSans-2c" transform="translate(3752.03125 0.015625)"/>
     <use xlink:href="#DejaVuSans-20" transform="translate(3783.818359 0.015625)"/>
     <use xlink:href="#DejaVuSans-4b" transform="translate(3815.605469 0.015625)"/>
     <use xlink:href="#DejaVuSans-2d" transform="translate(3881.181641 0.015625)"/>
     <use xlink:href="#DejaVuSans-70" transform="translate(3917.265625 0.015625)"/>
     <use xlink:href="#DejaVuSans-6f" transform="translate(3980.742188 0.015625)"/>
     <use xlink:href="#DejaVuSans-69" transform="translate(4041.923828 0.015625)"/>
     <use xlink:href="#DejaVuSans-6e" transform="translate(4069.707031 0.015625)"/>
     <use xlink:href="#DejaVuSans-74" transform="translate(4133.085938 0.015625)"/>
     <use xlink:href="#DejaVuSans-20" transform="translate(4172.294922 0.015625)"/>
     <use xlink:href="#DejaVuSans-43" transform="translate(4204.082031 0.015625)"/>
     <use xlink:href="#DejaVuSans-42" transform="translate(4273.90625 0.015625)"/>
     <use xlink:href="#DejaVuSans-4d" transform="translate(4342.509766 0.015625)"/>
     <use xlink:href="#DejaVuSans-20" transform="translate(4428.789062 0.015625)"/>
     <use xlink:href="#DejaVuSans-73" transform="translate(4460.576172 0.015625)"/>
     <use xlink:href="#DejaVuSans-74" transform="translate(4512.675781 0.015625)"/>
     <use xlink:href="#DejaVuSans-61" transform="translate(4551.884766 0.015625)"/>
     <use xlink:href="#DejaVuSans-74" transform="translate(4613.164062 0.015625)"/>
     <use xlink:href="#DejaVuSans-65" transform="translate(4652.373047 0.015625)"/>
     <use xlink:href="#DejaVuSans-29" transform="translate(4713.896484 0.015625)"/>
    </g>
   </g>
   <g id="legend_1">
    <g id="line2d_22">
     <path d="M 460.53 37.95 
L 469.53 37.95 
L 478.53 37.95 
" style="fill: none; stroke: #2e6da4; stroke-width: 1.7; stroke-linecap: square"/>
    </g>
    <g id="text_20">
     <!-- NC+A1 pipeline ($\eta$=25 meV) -->
     <g transform="translate(485.73 41.1) scale(0.09 -0.09)">
      <defs>
       <path id="DejaVuSans-Oblique-3b7" d="M 3703 2113 
L 3034 -1331 
L 2459 -1331 
L 3125 2094 
Q 3222 2591 3075 2838 
Q 2931 3084 2544 3084 
Q 2078 3084 1750 2788 
Q 1425 2491 1325 1978 
L 941 0 
L 363 0 
L 1044 3500 
L 1622 3500 
L 1516 2956 
Q 1781 3272 2094 3428 
Q 2403 3584 2769 3584 
Q 3372 3584 3609 3213 
Q 3844 2838 3703 2113 
z
" transform="scale(0.015625)"/>
       <path id="DejaVuSans-3d" d="M 678 2906 
L 4684 2906 
L 4684 2381 
L 678 2381 
L 678 2906 
z
M 678 1631 
L 4684 1631 
L 4684 1100 
L 678 1100 
L 678 1631 
z
" transform="scale(0.015625)"/>
      </defs>
      <use xlink:href="#DejaVuSans-4e" transform="translate(0 0.015625)"/>
      <use xlink:href="#DejaVuSans-43" transform="translate(74.804688 0.015625)"/>
      <use xlink:href="#DejaVuSans-2b" transform="translate(144.628906 0.015625)"/>
      <use xlink:href="#DejaVuSans-41" transform="translate(228.417969 0.015625)"/>
      <use xlink:href="#DejaVuSans-31" transform="translate(296.826172 0.015625)"/>
      <use xlink:href="#DejaVuSans-20" transform="translate(360.449219 0.015625)"/>
      <use xlink:href="#DejaVuSans-70" transform="translate(392.236328 0.015625)"/>
      <use xlink:href="#DejaVuSans-69" transform="translate(455.712891 0.015625)"/>
      <use xlink:href="#DejaVuSans-70" transform="translate(483.496094 0.015625)"/>
      <use xlink:href="#DejaVuSans-65" transform="translate(546.972656 0.015625)"/>
      <use xlink:href="#DejaVuSans-6c" transform="translate(608.496094 0.015625)"/>
      <use xlink:href="#DejaVuSans-69" transform="translate(636.279297 0.015625)"/>
      <use xlink:href="#DejaVuSans-6e" transform="translate(664.0625 0.015625)"/>
      <use xlink:href="#DejaVuSans-65" transform="translate(727.441406 0.015625)"/>
      <use xlink:href="#DejaVuSans-20" transform="translate(788.964844 0.015625)"/>
      <use xlink:href="#DejaVuSans-28" transform="translate(820.751953 0.015625)"/>
      <use xlink:href="#DejaVuSans-Oblique-3b7" transform="translate(859.765625 0.015625)"/>
      <use xlink:href="#DejaVuSans-3d" transform="translate(923.144531 0.015625)"/>
      <use xlink:href="#DejaVuSans-32" transform="translate(1006.933594 0.015625)"/>
      <use xlink:href="#DejaVuSans-35" transform="translate(1070.556641 0.015625)"/>
      <use xlink:href="#DejaVuSans-20" transform="translate(1134.179688 0.015625)"/>
      <use xlink:href="#DejaVuSans-6d" transform="translate(1165.966797 0.015625)"/>
      <use xlink:href="#DejaVuSans-65" transform="translate(1263.378906 0.015625)"/>
      <use xlink:href="#DejaVuSans-56" transform="translate(1324.902344 0.015625)"/>
      <use xlink:href="#DejaVuSans-29" transform="translate(1393.310547 0.015625)"/>
     </g>
    </g>
    <g id="line2d_23">
     <path d="M 460.53 51.18 
L 469.53 51.18 
L 478.53 51.18 
" style="fill: none; stroke: #7a4fa3; stroke-width: 1.7; stroke-linecap: square"/>
    </g>
    <g id="text_21">
     <!-- PAW pipeline ($\eta$=25 meV) -->
     <g transform="translate(485.73 54.33) scale(0.09 -0.09)">
      <use xlink:href="#DejaVuSans-50" transform="translate(0 0.015625)"/>
      <use xlink:href="#DejaVuSans-41" transform="translate(60.302734 0.015625)"/>
      <use xlink:href="#DejaVuSans-57" transform="translate(128.710938 0.015625)"/>
      <use xlink:href="#DejaVuSans-20" transform="translate(227.587891 0.015625)"/>
      <use xlink:href="#DejaVuSans-70" transform="translate(259.375 0.015625)"/>
      <use xlink:href="#DejaVuSans-69" transform="translate(322.851562 0.015625)"/>
      <use xlink:href="#DejaVuSans-70" transform="translate(350.634766 0.015625)"/>
      <use xlink:href="#DejaVuSans-65" transform="translate(414.111328 0.015625)"/>
      <use xlink:href="#DejaVuSans-6c" transform="translate(475.634766 0.015625)"/>
      <use xlink:href="#DejaVuSans-69" transform="translate(503.417969 0.015625)"/>
      <use xlink:href="#DejaVuSans-6e" transform="translate(531.201172 0.015625)"/>
      <use xlink:href="#DejaVuSans-65" transform="translate(594.580078 0.015625)"/>
      <use xlink:href="#DejaVuSans-20" transform="translate(656.103516 0.015625)"/>
      <use xlink:href="#DejaVuSans-28" transform="translate(687.890625 0.015625)"/>
      <use xlink:href="#DejaVuSans-Oblique-3b7" transform="translate(726.904297 0.015625)"/>
      <use xlink:href="#DejaVuSans-3d" transform="translate(790.283203 0.015625)"/>
      <use xlink:href="#DejaVuSans-32" transform="translate(874.072266 0.015625)"/>
      <use xlink:href="#DejaVuSans-35" transform="translate(937.695312 0.015625)"/>
      <use xlink:href="#DejaVuSans-20" transform="translate(1001.318359 0.015625)"/>
      <use xlink:href="#DejaVuSans-6d" transform="translate(1033.105469 0.015625)"/>
      <use xlink:href="#DejaVuSans-65" transform="translate(1130.517578 0.015625)"/>
      <use xlink:href="#DejaVuSans-56" transform="translate(1192.041016 0.015625)"/>
      <use xlink:href="#DejaVuSans-29" transform="translate(1260.449219 0.015625)"/>
     </g>
    </g>
   </g>
  </g>
 </g>
 <defs>
  <clipPath id="p11745f8358">
   <rect x="47.108" y="26.16" width="575.692" height="260.632"/>
  </clipPath>
 </defs>
</svg>
