<?xml version="1.0" encoding="utf-8" standalone="no"?>
<!DOCTYPE svg PUBLIC "-//W3C//DTD SVG 1.1//EN"
  "http://www.w3.org/Graphics/SVG/1.1/DTD/svg11.dtd">
<svg xmlns:xlink="http://www.w3.org/1999/xlink" width="828pt" height="302.4pt" viewBox="0 0 828 302.4" xmlns="http://www.w3.org/2000/svg" version="1.1">
 <metadata>
  <rdf:RDF xmlns:dc="http://purl.org/dc/elements/1.1/" xmlns:cc="http://creativecommons.org/ns#" xmlns:rdf="http://www.w3.org/1999/02/22-rdf-syntax-ns#">
   <cc:Work>
    <dc:type rdf:resource="http://purl.org/dc/dcmitype/StillImage"/>
    <dc:date>2026-07-14T23:23:50.650472</dc:date>
    <dc:format>image/svg+xml</dc:format>
    <dc:creator>
     <cc:Agent>
      <dc:title>Matplotlib v3.10.8, https://matplotlib.org/</dc:title>
     </cc:Agent>
    </dc:creator>
   </cc:Work>
  </rdf:RDF>
 </metadata>
 <defs>
  <style type="text/css">*{stroke-linejoin: round; stroke-linecap: butt}</style>
 </defs>
 <g id="figure_1">
  <g id="patch_1">
   <path d="M 0 302.4 
L 828 302.4 
L 828 0 
L 0 0 
z
" style="fill: #ffffff"/>
  </g>
  <g id="axes_1">
   <g id="patch_2">
    <path d="M 50.65024 269.04351 
L 414.8725 269.04351 
L 414.8725 16.60024 
L 50.65024 16.60024 
z
" style="fill: #ffffff"/>
   </g>
   <g id="matplotlib.axis_1">
    <g id="xtick_1">
     <g id="line2d_1">
      <defs>
       <path id="m67cf727dd1" d="M 0 0 
L 0 3.5 
" style="stroke: #000000; stroke-width: 0.8"/>
      </defs>
      <g>
       <use xlink:href="#m67cf727dd1" x="67.205797" y="269.04351" style="stroke: #000000; stroke-width: 0.8"/>
      </g>
     </g>
     <g id="text_1">
      <!-- 100 -->
      <g transform="translate(57.662047 283.641948) scale(0.1 -0.1)">
       <defs>
        <path id="DejaVuSans-31" d="M 794 531 
L 1825 531 
L 1825 4091 
L 703 3866 
L 703 4441 
L 1819 4666 
L 2450 4666 
L 2450 531 
L 3481 531 
L 3481 0 
L 794 0 
L 794 531 
z
" transform="scale(0.015625)"/>
        <path id="DejaVuSans-30" d="M 2034 4250 
Q 1547 4250 1301 3770 
Q 1056 3291 1056 2328 
Q 1056 1369 1301 889 
Q 1547 409 2034 409 
Q 2525 409 2770 889 
Q 3016 1369 3016 2328 
Q 3016 3291 2770 3770 
Q 2525 4250 2034 4250 
z
M 2034 4750 
Q 2819 4750 3233 4129 
Q 3647 3509 3647 2328 
Q 3647 1150 3233 529 
Q 2819 -91 2034 -91 
Q 1250 -91 836 529 
Q 422 1150 422 2328 
Q 422 3509 836 4129 
Q 1250 4750 2034 4750 
z
" transform="scale(0.015625)"/>
       </defs>
       <use xlink:href="#DejaVuSans-31"/>
       <use xlink:href="#DejaVuSans-30" transform="translate(63.623047 0)"/>
       <use xlink:href="#DejaVuSans-30" transform="translate(127.246094 0)"/>
      </g>
     </g>
    </g>
    <g id="xtick_2">
     <g id="line2d_2">
      <g>
       <use xlink:href="#m67cf727dd1" x="122.390988" y="269.04351" style="stroke: #000000; stroke-width: 0.8"/>
      </g>
     </g>
     <g id="text_2">
      <!-- 150 -->
      <g transform="translate(112.847238 283.641948) scale(0.1 -0.1)">
       <defs>
        <path id="DejaVuSans-35" d="M 691 4666 
L 3169 4666 
L 3169 4134 
L 1269 4134 
L 1269 2991 
Q 1406 3038 1543 3061 
Q 1681 3084 1819 3084 
Q 2600 3084 3056 2656 
Q 3513 2228 3513 1497 
Q 3513 744 3044 326 
Q 2575 -91 1722 -91 
Q 1428 -91 1123 -41 
Q 819 9 494 109 
L 494 744 
Q 775 591 1075 516 
Q 1375 441 1709 441 
Q 2250 441 2565 725 
Q 2881 1009 2881 1497 
Q 2881 1984 2565 2268 
Q 2250 2553 1709 2553 
Q 1456 2553 1204 2497 
Q 953 2441 691 2322 
L 691 4666 
z
" transform="scale(0.015625)"/>
       </defs>
       <use xlink:href="#DejaVuSans-31"/>
       <use xlink:href="#DejaVuSans-35" transform="translate(63.623047 0)"/>
       <use xlink:href="#DejaVuSans-30" transform="translate(127.246094 0)"/>
      </g>
     </g>
    </g>
    <g id="xtick_3">
     <g id="line2d_3">
      <g>
       <use xlink:href="#m67cf727dd1" x="177.576179" y="269.04351" style="stroke: #000000; stroke-width: 0.8"/>
      </g>
     </g>
     <g id="text_3">
      <!-- 200 -->
      <g transform="translate(168.032429 283.641948) scale(0.1 -0.1)">
       <defs>
        <path id="DejaVuSans-32" d="M 1228 531 
L 3431 531 
L 3431 0 
L 469 0 
L 469 531 
Q 828 903 1448 1529 
Q 2069 2156 2228 2338 
Q 2531 2678 2651 2914 
Q 2772 3150 2772 3378 
Q 2772 3750 2511 3984 
Q 2250 4219 1831 4219 
Q 1534 4219 1204 4116 
Q 875 4013 500 3803 
L 500 4441 
Q 881 4594 1212 4672 
Q 1544 4750 1819 4750 
Q 2544 4750 2975 4387 
Q 3406 4025 3406 3419 
Q 3406 3131 3298 2873 
Q 3191 2616 2906 2266 
Q 2828 2175 2409 1742 
Q 1991 1309 1228 531 
z
" transform="scale(0.015625)"/>
       </defs>
       <use xlink:href="#DejaVuSans-32"/>
       <use xlink:href="#DejaVuSans-30" transform="translate(63.623047 0)"/>
       <use xlink:href="#DejaVuSans-30" transform="translate(127.246094 0)"/>
      </g>
     </g>
    </g>
    <g id="xtick_4">
     <g id="line2d_4">
      <g>
       <use xlink:href="#m67cf727dd1" x="232.76137" y="269.04351" style="stroke: #000000; stroke-width: 0.8"/>
      </g>
     </g>
     <g id="text_4">
      <!-- 250 -->
      <g transform="translate(223.21762 283.641948) scale(0.1 -0.1)">
       <use xlink:href="#DejaVuSans-32"/>
       <use xlink:href="#DejaVuSans-35" transform="translate(63.623047 0)"/>
       <use xlink:href="#DejaVuSans-30" transform="translate(127.246094 0)"/>
      </g>
     </g>
    </g>
    <g id="xtick_5">
     <g id="line2d_5">
      <g>
       <use xlink:href="#m67cf727dd1" x="287.946561" y="269.04351" style="stroke: #000000; stroke-width: 0.8"/>
      </g>
     </g>
     <g id="text_5">
      <!-- 300 -->
      <g transform="translate(278.402811 283.641948) scale(0.1 -0.1)">
       <defs>
        <path id="DejaVuSans-33" d="M 2597 2516 
Q 3050 2419 3304 2112 
Q 3559 1806 3559 1356 
Q 3559 666 3084 287 
Q 2609 -91 1734 -91 
Q 1441 -91 1130 -33 
Q 819 25 488 141 
L 488 750 
Q 750 597 1062 519 
Q 1375 441 1716 441 
Q 2309 441 2620 675 
Q 2931 909 2931 1356 
Q 2931 1769 2642 2001 
Q 2353 2234 1838 2234 
L 1294 2234 
L 1294 2753 
L 1863 2753 
Q 2328 2753 2575 2939 
Q 2822 3125 2822 3475 
Q 2822 3834 2567 4026 
Q 2313 4219 1838 4219 
Q 1578 4219 1281 4162 
Q 984 4106 628 3988 
L 628 4550 
Q 988 4650 1302 4700 
Q 1616 4750 1894 4750 
Q 2613 4750 3031 4423 
Q 3450 4097 3450 3541 
Q 3450 3153 3228 2886 
Q 3006 2619 2597 2516 
z
" transform="scale(0.015625)"/>
       </defs>
       <use xlink:href="#DejaVuSans-33"/>
       <use xlink:href="#DejaVuSans-30" transform="translate(63.623047 0)"/>
       <use xlink:href="#DejaVuSans-30" transform="translate(127.246094 0)"/>
      </g>
     </g>
    </g>
    <g id="xtick_6">
     <g id="line2d_6">
      <g>
       <use xlink:href="#m67cf727dd1" x="343.131752" y="269.04351" style="stroke: #000000; stroke-width: 0.8"/>
      </g>
     </g>
     <g id="text_6">
      <!-- 350 -->
      <g transform="translate(333.588002 283.641948) scale(0.1 -0.1)">
       <use xlink:href="#DejaVuSans-33"/>
       <use xlink:href="#DejaVuSans-35" transform="translate(63.623047 0)"/>
       <use xlink:href="#DejaVuSans-30" transform="translate(127.246094 0)"/>
      </g>
     </g>
    </g>
    <g id="xtick_7">
     <g id="line2d_7">
      <g>
       <use xlink:href="#m67cf727dd1" x="398.316943" y="269.04351" style="stroke: #000000; stroke-width: 0.8"/>
      </g>
     </g>
     <g id="text_7">
      <!-- 400 -->
      <g transform="translate(388.773193 283.641948) scale(0.1 -0.1)">
       <defs>
        <path id="DejaVuSans-34" d="M 2419 4116 
L 825 1625 
L 2419 1625 
L 2419 4116 
z
M 2253 4666 
L 3047 4666 
L 3047 1625 
L 3713 1625 
L 3713 1100 
L 3047 1100 
L 3047 0 
L 2419 0 
L 2419 1100 
L 313 1100 
L 313 1709 
L 2253 4666 
z
" transform="scale(0.015625)"/>
       </defs>
       <use xlink:href="#DejaVuSans-34"/>
       <use xlink:href="#DejaVuSans-30" transform="translate(63.623047 0)"/>
       <use xlink:href="#DejaVuSans-30" transform="translate(127.246094 0)"/>
      </g>
     </g>
    </g>
    <g id="text_8">
     <!-- $T$ (K) -->
     <g transform="translate(220.91137 297.320073) scale(0.1 -0.1)">
      <defs>
       <path id="DejaVuSans-Oblique-54" d="M 378 4666 
L 4325 4666 
L 4225 4134 
L 2559 4134 
L 1759 0 
L 1125 0 
L 1925 4134 
L 275 4134 
L 378 4666 
z
" transform="scale(0.015625)"/>
       <path id="DejaVuSans-20" transform="scale(0.015625)"/>
       <path id="DejaVuSans-28" d="M 1984 4856 
Q 1566 4138 1362 3434 
Q 1159 2731 1159 2009 
Q 1159 1288 1364 580 
Q 1569 -128 1984 -844 
L 1484 -844 
Q 1016 -109 783 600 
Q 550 1309 550 2009 
Q 550 2706 781 3412 
Q 1013 4119 1484 4856 
L 1984 4856 
z
" transform="scale(0.015625)"/>
       <path id="DejaVuSans-4b" d="M 628 4666 
L 1259 4666 
L 1259 2694 
L 3353 4666 
L 4166 4666 
L 1850 2491 
L 4331 0 
L 3500 0 
L 1259 2247 
L 1259 0 
L 628 0 
L 628 4666 
z
" transform="scale(0.015625)"/>
       <path id="DejaVuSans-29" d="M 513 4856 
L 1013 4856 
Q 1481 4119 1714 3412 
Q 1947 2706 1947 2009 
Q 1947 1309 1714 600 
Q 1481 -109 1013 -844 
L 513 -844 
Q 928 -128 1133 580 
Q 1338 1288 1338 2009 
Q 1338 2731 1133 3434 
Q 928 4138 513 4856 
z
" transform="scale(0.015625)"/>
      </defs>
      <use xlink:href="#DejaVuSans-Oblique-54" transform="translate(0 0.125)"/>
      <use xlink:href="#DejaVuSans-20" transform="translate(61.083984 0.125)"/>
      <use xlink:href="#DejaVuSans-28" transform="translate(92.871094 0.125)"/>
      <use xlink:href="#DejaVuSans-4b" transform="translate(131.884766 0.125)"/>
      <use xlink:href="#DejaVuSans-29" transform="translate(197.460938 0.125)"/>
     </g>
    </g>
   </g>
   <g id="matplotlib.axis_2">
    <g id="ytick_1">
     <g id="line2d_8">
      <defs>
       <path id="m5b2caebf65" d="M 0 0 
L -3.5 0 
" style="stroke: #000000; stroke-width: 0.8"/>
      </defs>
      <g>
       <use xlink:href="#m5b2caebf65" x="50.65024" y="269.04351" style="stroke: #000000; stroke-width: 0.8"/>
      </g>
     </g>
     <g id="text_9">
      <!-- 0 -->
      <g transform="translate(37.28774 272.842729) scale(0.1 -0.1)">
       <use xlink:href="#DejaVuSans-30"/>
      </g>
     </g>
    </g>
    <g id="ytick_2">
     <g id="line2d_9">
      <g>
       <use xlink:href="#m5b2caebf65" x="50.65024" y="220.959078" style="stroke: #000000; stroke-width: 0.8"/>
      </g>
     </g>
     <g id="text_10">
      <!-- 200 -->
      <g transform="translate(24.56274 224.758296) scale(0.1 -0.1)">
       <use xlink:href="#DejaVuSans-32"/>
       <use xlink:href="#DejaVuSans-30" transform="translate(63.623047 0)"/>
       <use xlink:href="#DejaVuSans-30" transform="translate(127.246094 0)"/>
      </g>
     </g>
    </g>
    <g id="ytick_3">
     <g id="line2d_10">
      <g>
       <use xlink:href="#m5b2caebf65" x="50.65024" y="172.874645" style="stroke: #000000; stroke-width: 0.8"/>
      </g>
     </g>
     <g id="text_11">
      <!-- 400 -->
      <g transform="translate(24.56274 176.673864) scale(0.1 -0.1)">
       <use xlink:href="#DejaVuSans-34"/>
       <use xlink:href="#DejaVuSans-30" transform="translate(63.623047 0)"/>
       <use xlink:href="#DejaVuSans-30" transform="translate(127.246094 0)"/>
      </g>
     </g>
    </g>
    <g id="ytick_4">
     <g id="line2d_11">
      <g>
       <use xlink:href="#m5b2caebf65" x="50.65024" y="124.790213" style="stroke: #000000; stroke-width: 0.8"/>
      </g>
     </g>
     <g id="text_12">
      <!-- 600 -->
      <g transform="translate(24.56274 128.589432) scale(0.1 -0.1)">
       <defs>
        <path id="DejaVuSans-36" d="M 2113 2584 
Q 1688 2584 1439 2293 
Q 1191 2003 1191 1497 
Q 1191 994 1439 701 
Q 1688 409 2113 409 
Q 2538 409 2786 701 
Q 3034 994 3034 1497 
Q 3034 2003 2786 2293 
Q 2538 2584 2113 2584 
z
M 3366 4563 
L 3366 3988 
Q 3128 4100 2886 4159 
Q 2644 4219 2406 4219 
Q 1781 4219 1451 3797 
Q 1122 3375 1075 2522 
Q 1259 2794 1537 2939 
Q 1816 3084 2150 3084 
Q 2853 3084 3261 2657 
Q 3669 2231 3669 1497 
Q 3669 778 3244 343 
Q 2819 -91 2113 -91 
Q 1303 -91 875 529 
Q 447 1150 447 2328 
Q 447 3434 972 4092 
Q 1497 4750 2381 4750 
Q 2619 4750 2861 4703 
Q 3103 4656 3366 4563 
z
" transform="scale(0.015625)"/>
       </defs>
       <use xlink:href="#DejaVuSans-36"/>
       <use xlink:href="#DejaVuSans-30" transform="translate(63.623047 0)"/>
       <use xlink:href="#DejaVuSans-30" transform="translate(127.246094 0)"/>
      </g>
     </g>
    </g>
    <g id="ytick_5">
     <g id="line2d_12">
      <g>
       <use xlink:href="#m5b2caebf65" x="50.65024" y="76.70578" style="stroke: #000000; stroke-width: 0.8"/>
      </g>
     </g>
     <g id="text_13">
      <!-- 800 -->
      <g transform="translate(24.56274 80.504999) scale(0.1 -0.1)">
       <defs>
        <path id="DejaVuSans-38" d="M 2034 2216 
Q 1584 2216 1326 1975 
Q 1069 1734 1069 1313 
Q 1069 891 1326 650 
Q 1584 409 2034 409 
Q 2484 409 2743 651 
Q 3003 894 3003 1313 
Q 3003 1734 2745 1975 
Q 2488 2216 2034 2216 
z
M 1403 2484 
Q 997 2584 770 2862 
Q 544 3141 544 3541 
Q 544 4100 942 4425 
Q 1341 4750 2034 4750 
Q 2731 4750 3128 4425 
Q 3525 4100 3525 3541 
Q 3525 3141 3298 2862 
Q 3072 2584 2669 2484 
Q 3125 2378 3379 2068 
Q 3634 1759 3634 1313 
Q 3634 634 3220 271 
Q 2806 -91 2034 -91 
Q 1263 -91 848 271 
Q 434 634 434 1313 
Q 434 1759 690 2068 
Q 947 2378 1403 2484 
z
M 1172 3481 
Q 1172 3119 1398 2916 
Q 1625 2713 2034 2713 
Q 2441 2713 2670 2916 
Q 2900 3119 2900 3481 
Q 2900 3844 2670 4047 
Q 2441 4250 2034 4250 
Q 1625 4250 1398 4047 
Q 1172 3844 1172 3481 
z
" transform="scale(0.015625)"/>
       </defs>
       <use xlink:href="#DejaVuSans-38"/>
       <use xlink:href="#DejaVuSans-30" transform="translate(63.623047 0)"/>
       <use xlink:href="#DejaVuSans-30" transform="translate(127.246094 0)"/>
      </g>
     </g>
    </g>
    <g id="ytick_6">
     <g id="line2d_13">
      <g>
       <use xlink:href="#m5b2caebf65" x="50.65024" y="28.621348" style="stroke: #000000; stroke-width: 0.8"/>
      </g>
     </g>
     <g id="text_14">
      <!-- 1000 -->
      <g transform="translate(18.20024 32.420567) scale(0.1 -0.1)">
       <use xlink:href="#DejaVuSans-31"/>
       <use xlink:href="#DejaVuSans-30" transform="translate(63.623047 0)"/>
       <use xlink:href="#DejaVuSans-30" transform="translate(127.246094 0)"/>
       <use xlink:href="#DejaVuSans-30" transform="translate(190.869141 0)"/>
      </g>
     </g>
    </g>
    <g id="text_15">
     <!-- $\mu_e$ (cm$^2$/V·s) -->
     <g transform="translate(12.10024 173.121875) rotate(-90) scale(0.1 -0.1)">
      <defs>
       <path id="DejaVuSans-Oblique-3bc" d="M -84 -1331 
L 856 3500 
L 1434 3500 
L 1009 1322 
Q 997 1256 987 1175 
Q 978 1094 978 1013 
Q 978 722 1161 565 
Q 1344 409 1684 409 
Q 2147 409 2431 671 
Q 2716 934 2816 1459 
L 3213 3500 
L 3788 3500 
L 3266 809 
Q 3253 750 3248 706 
Q 3244 663 3244 628 
Q 3244 531 3283 486 
Q 3322 441 3406 441 
Q 3438 441 3492 456 
Q 3547 472 3647 513 
L 3559 50 
Q 3422 -19 3297 -55 
Q 3172 -91 3053 -91 
Q 2847 -91 2730 40 
Q 2613 172 2613 403 
Q 2438 153 2195 31 
Q 1953 -91 1625 -91 
Q 1334 -91 1117 43 
Q 900 178 831 397 
L 494 -1331 
L -84 -1331 
z
" transform="scale(0.015625)"/>
       <path id="DejaVuSans-Oblique-65" d="M 3078 2063 
Q 3088 2113 3092 2166 
Q 3097 2219 3097 2272 
Q 3097 2653 2873 2875 
Q 2650 3097 2266 3097 
Q 1838 3097 1509 2826 
Q 1181 2556 1013 2059 
L 3078 2063 
z
M 3578 1613 
L 903 1613 
Q 884 1494 878 1425 
Q 872 1356 872 1306 
Q 872 872 1139 634 
Q 1406 397 1894 397 
Q 2269 397 2603 481 
Q 2938 566 3225 728 
L 3116 159 
Q 2806 34 2476 -28 
Q 2147 -91 1806 -91 
Q 1078 -91 686 257 
Q 294 606 294 1247 
Q 294 1794 489 2264 
Q 684 2734 1063 3103 
Q 1306 3334 1642 3459 
Q 1978 3584 2356 3584 
Q 2950 3584 3301 3228 
Q 3653 2872 3653 2272 
Q 3653 2128 3634 1964 
Q 3616 1800 3578 1613 
z
" transform="scale(0.015625)"/>
       <path id="DejaVuSans-63" d="M 3122 3366 
L 3122 2828 
Q 2878 2963 2633 3030 
Q 2388 3097 2138 3097 
Q 1578 3097 1268 2742 
Q 959 2388 959 1747 
Q 959 1106 1268 751 
Q 1578 397 2138 397 
Q 2388 397 2633 464 
Q 2878 531 3122 666 
L 3122 134 
Q 2881 22 2623 -34 
Q 2366 -91 2075 -91 
Q 1284 -91 818 406 
Q 353 903 353 1747 
Q 353 2603 823 3093 
Q 1294 3584 2113 3584 
Q 2378 3584 2631 3529 
Q 2884 3475 3122 3366 
z
" transform="scale(0.015625)"/>
       <path id="DejaVuSans-6d" d="M 3328 2828 
Q 3544 3216 3844 3400 
Q 4144 3584 4550 3584 
Q 5097 3584 5394 3201 
Q 5691 2819 5691 2113 
L 5691 0 
L 5113 0 
L 5113 2094 
Q 5113 2597 4934 2840 
Q 4756 3084 4391 3084 
Q 3944 3084 3684 2787 
Q 3425 2491 3425 1978 
L 3425 0 
L 2847 0 
L 2847 2094 
Q 2847 2600 2669 2842 
Q 2491 3084 2119 3084 
Q 1678 3084 1418 2786 
Q 1159 2488 1159 1978 
L 1159 0 
L 581 0 
L 581 3500 
L 1159 3500 
L 1159 2956 
Q 1356 3278 1631 3431 
Q 1906 3584 2284 3584 
Q 2666 3584 2933 3390 
Q 3200 3197 3328 2828 
z
" transform="scale(0.015625)"/>
       <path id="DejaVuSans-2f" d="M 1625 4666 
L 2156 4666 
L 531 -594 
L 0 -594 
L 1625 4666 
z
" transform="scale(0.015625)"/>
       <path id="DejaVuSans-56" d="M 1831 0 
L 50 4666 
L 709 4666 
L 2188 738 
L 3669 4666 
L 4325 4666 
L 2547 0 
L 1831 0 
z
" transform="scale(0.015625)"/>
       <path id="DejaVuSans-b7" d="M 684 2619 
L 1344 2619 
L 1344 1825 
L 684 1825 
L 684 2619 
z
" transform="scale(0.015625)"/>
       <path id="DejaVuSans-73" d="M 2834 3397 
L 2834 2853 
Q 2591 2978 2328 3040 
Q 2066 3103 1784 3103 
Q 1356 3103 1142 2972 
Q 928 2841 928 2578 
Q 928 2378 1081 2264 
Q 1234 2150 1697 2047 
L 1894 2003 
Q 2506 1872 2764 1633 
Q 3022 1394 3022 966 
Q 3022 478 2636 193 
Q 2250 -91 1575 -91 
Q 1294 -91 989 -36 
Q 684 19 347 128 
L 347 722 
Q 666 556 975 473 
Q 1284 391 1588 391 
Q 1994 391 2212 530 
Q 2431 669 2431 922 
Q 2431 1156 2273 1281 
Q 2116 1406 1581 1522 
L 1381 1569 
Q 847 1681 609 1914 
Q 372 2147 372 2553 
Q 372 3047 722 3315 
Q 1072 3584 1716 3584 
Q 2034 3584 2315 3537 
Q 2597 3491 2834 3397 
z
" transform="scale(0.015625)"/>
      </defs>
      <use xlink:href="#DejaVuSans-Oblique-3bc" transform="translate(0 0.765625)"/>
      <use xlink:href="#DejaVuSans-Oblique-65" transform="translate(63.623047 -15.640625) scale(0.7)"/>
      <use xlink:href="#DejaVuSans-20" transform="translate(109.423828 0.765625)"/>
      <use xlink:href="#DejaVuSans-28" transform="translate(141.210938 0.765625)"/>
      <use xlink:href="#DejaVuSans-63" transform="translate(180.224609 0.765625)"/>
      <use xlink:href="#DejaVuSans-6d" transform="translate(235.205078 0.765625)"/>
      <use xlink:href="#DejaVuSans-32" transform="translate(333.574219 39.046875) scale(0.7)"/>
      <use xlink:href="#DejaVuSans-2f" transform="translate(380.844727 0.765625)"/>
      <use xlink:href="#DejaVuSans-56" transform="translate(414.536133 0.765625)"/>
      <use xlink:href="#DejaVuSans-b7" transform="translate(482.944336 0.765625)"/>
      <use xlink:href="#DejaVuSans-73" transform="translate(514.731445 0.765625)"/>
      <use xlink:href="#DejaVuSans-29" transform="translate(566.831055 0.765625)"/>
     </g>
    </g>
   </g>
   <g id="line2d_14">
    <path d="M 67.205797 78.717064 
L 177.576179 81.719033 
L 287.946561 80.240301 
L 398.316943 78.950803 
" clip-path="url(#pf5fbe020d3)" style="fill: none; stroke: #2471a3; stroke-width: 1.5; stroke-linecap: square"/>
    <defs>
     <path id="m39d0b7b603" d="M 0 3 
C 0.795609 3 1.55874 2.683901 2.12132 2.12132 
C 2.683901 1.55874 3 0.795609 3 0 
C 3 -0.795609 2.683901 -1.55874 2.12132 -2.12132 
C 1.55874 -2.683901 0.795609 -3 0 -3 
C -0.795609 -3 -1.55874 -2.683901 -2.12132 -2.12132 
C -2.683901 -1.55874 -3 -0.795609 -3 0 
C -3 0.795609 -2.683901 1.55874 -2.12132 2.12132 
C -1.55874 2.683901 -0.795609 3 0 3 
z
" style="stroke: #2471a3"/>
    </defs>
    <g clip-path="url(#pf5fbe020d3)">
     <use xlink:href="#m39d0b7b603" x="67.205797" y="78.717064" style="fill: #2471a3; stroke: #2471a3"/>
     <use xlink:href="#m39d0b7b603" x="177.576179" y="81.719033" style="fill: #2471a3; stroke: #2471a3"/>
     <use xlink:href="#m39d0b7b603" x="287.946561" y="80.240301" style="fill: #2471a3; stroke: #2471a3"/>
     <use xlink:href="#m39d0b7b603" x="398.316943" y="78.950803" style="fill: #2471a3; stroke: #2471a3"/>
    </g>
   </g>
   <g id="line2d_15">
    <path d="M 67.205797 229.107588 
L 177.576179 186.333708 
L 287.946561 161.353851 
L 398.316943 145.593582 
" clip-path="url(#pf5fbe020d3)" style="fill: none; stroke: #c0392b; stroke-width: 1.5; stroke-linecap: square"/>
    <defs>
     <path id="m65356f518a" d="M -3 3 
L 3 3 
L 3 -3 
L -3 -3 
z
" style="stroke: #c0392b; stroke-linejoin: miter"/>
    </defs>
    <g clip-path="url(#pf5fbe020d3)">
     <use xlink:href="#m65356f518a" x="67.205797" y="229.107588" style="fill: #c0392b; stroke: #c0392b; stroke-linejoin: miter"/>
     <use xlink:href="#m65356f518a" x="177.576179" y="186.333708" style="fill: #c0392b; stroke: #c0392b; stroke-linejoin: miter"/>
     <use xlink:href="#m65356f518a" x="287.946561" y="161.353851" style="fill: #c0392b; stroke: #c0392b; stroke-linejoin: miter"/>
     <use xlink:href="#m65356f518a" x="398.316943" y="145.593582" style="fill: #c0392b; stroke: #c0392b; stroke-linejoin: miter"/>
    </g>
   </g>
   <g id="line2d_16">
    <path d="M 67.205797 41.360593 
L 177.576179 71.555676 
L 287.946561 76.662186 
L 398.316943 78.285614 
" clip-path="url(#pf5fbe020d3)" style="fill: none; stroke-dasharray: 4.81,2.08; stroke-dashoffset: 0; stroke: #e67e22; stroke-width: 1.3"/>
    <defs>
     <path id="mce63ab12c0" d="M 0 -3 
L -3 3 
L 3 3 
z
" style="stroke: #e67e22; stroke-linejoin: miter"/>
    </defs>
    <g clip-path="url(#pf5fbe020d3)">
     <use xlink:href="#mce63ab12c0" x="67.205797" y="41.360593" style="fill: #e67e22; stroke: #e67e22; stroke-linejoin: miter"/>
     <use xlink:href="#mce63ab12c0" x="177.576179" y="71.555676" style="fill: #e67e22; stroke: #e67e22; stroke-linejoin: miter"/>
     <use xlink:href="#mce63ab12c0" x="287.946561" y="76.662186" style="fill: #e67e22; stroke: #e67e22; stroke-linejoin: miter"/>
     <use xlink:href="#mce63ab12c0" x="398.316943" y="78.285614" style="fill: #e67e22; stroke: #e67e22; stroke-linejoin: miter"/>
    </g>
   </g>
   <g id="patch_3">
    <path d="M 50.65024 269.04351 
L 50.65024 16.60024 
" style="fill: none; stroke: #000000; stroke-width: 0.8; stroke-linejoin: miter; stroke-linecap: square"/>
   </g>
   <g id="patch_4">
    <path d="M 414.8725 269.04351 
L 414.8725 16.60024 
" style="fill: none; stroke: #000000; stroke-width: 0.8; stroke-linejoin: miter; stroke-linecap: square"/>
   </g>
   <g id="patch_5">
    <path d="M 50.65024 269.04351 
L 414.8725 269.04351 
" style="fill: none; stroke: #000000; stroke-width: 0.8; stroke-linejoin: miter; stroke-linecap: square"/>
   </g>
   <g id="patch_6">
    <path d="M 50.65024 16.60024 
L 414.8725 16.60024 
" style="fill: none; stroke: #000000; stroke-width: 0.8; stroke-linejoin: miter; stroke-linecap: square"/>
   </g>
   <g id="text_16">
    <!-- Se$_S$ electrons: the spectral-weight Boltzmann renormalization -->
    <g transform="translate(78.26137 10.60024) scale(0.1 -0.1)">
     <defs>
      <path id="DejaVuSans-53" d="M 3425 4513 
L 3425 3897 
Q 3066 4069 2747 4153 
Q 2428 4238 2131 4238 
Q 1616 4238 1336 4038 
Q 1056 3838 1056 3469 
Q 1056 3159 1242 3001 
Q 1428 2844 1947 2747 
L 2328 2669 
Q 3034 2534 3370 2195 
Q 3706 1856 3706 1288 
Q 3706 609 3251 259 
Q 2797 -91 1919 -91 
Q 1588 -91 1214 -16 
Q 841 59 441 206 
L 441 856 
Q 825 641 1194 531 
Q 1563 422 1919 422 
Q 2459 422 2753 634 
Q 3047 847 3047 1241 
Q 3047 1584 2836 1778 
Q 2625 1972 2144 2069 
L 1759 2144 
Q 1053 2284 737 2584 
Q 422 2884 422 3419 
Q 422 4038 858 4394 
Q 1294 4750 2059 4750 
Q 2388 4750 2728 4690 
Q 3069 4631 3425 4513 
z
" transform="scale(0.015625)"/>
      <path id="DejaVuSans-65" d="M 3597 1894 
L 3597 1613 
L 953 1613 
Q 991 1019 1311 708 
Q 1631 397 2203 397 
Q 2534 397 2845 478 
Q 3156 559 3463 722 
L 3463 178 
Q 3153 47 2828 -22 
Q 2503 -91 2169 -91 
Q 1331 -91 842 396 
Q 353 884 353 1716 
Q 353 2575 817 3079 
Q 1281 3584 2069 3584 
Q 2775 3584 3186 3129 
Q 3597 2675 3597 1894 
z
M 3022 2063 
Q 3016 2534 2758 2815 
Q 2500 3097 2075 3097 
Q 1594 3097 1305 2825 
Q 1016 2553 972 2059 
L 3022 2063 
z
" transform="scale(0.015625)"/>
      <path id="DejaVuSans-Oblique-53" d="M 3859 4513 
L 3738 3897 
Q 3422 4066 3111 4152 
Q 2800 4238 2509 4238 
Q 1944 4238 1609 3991 
Q 1275 3744 1275 3334 
Q 1275 3109 1398 2989 
Q 1522 2869 2034 2731 
L 2413 2638 
Q 3053 2472 3303 2217 
Q 3553 1963 3553 1503 
Q 3553 797 2998 353 
Q 2444 -91 1538 -91 
Q 1166 -91 791 -17 
Q 416 56 38 206 
L 166 856 
Q 513 641 861 531 
Q 1209 422 1556 422 
Q 2147 422 2503 684 
Q 2859 947 2859 1369 
Q 2859 1650 2717 1795 
Q 2575 1941 2106 2059 
L 1728 2156 
Q 1081 2325 845 2545 
Q 609 2766 609 3163 
Q 609 3859 1145 4304 
Q 1681 4750 2541 4750 
Q 2875 4750 3203 4690 
Q 3531 4631 3859 4513 
z
" transform="scale(0.015625)"/>
      <path id="DejaVuSans-6c" d="M 603 4863 
L 1178 4863 
L 1178 0 
L 603 0 
L 603 4863 
z
" transform="scale(0.015625)"/>
      <path id="DejaVuSans-74" d="M 1172 4494 
L 1172 3500 
L 2356 3500 
L 2356 3053 
L 1172 3053 
L 1172 1153 
Q 1172 725 1289 603 
Q 1406 481 1766 481 
L 2356 481 
L 2356 0 
L 1766 0 
Q 1100 0 847 248 
Q 594 497 594 1153 
L 594 3053 
L 172 3053 
L 172 3500 
L 594 3500 
L 594 4494 
L 1172 4494 
z
" transform="scale(0.015625)"/>
      <path id="DejaVuSans-72" d="M 2631 2963 
Q 2534 3019 2420 3045 
Q 2306 3072 2169 3072 
Q 1681 3072 1420 2755 
Q 1159 2438 1159 1844 
L 1159 0 
L 581 0 
L 581 3500 
L 1159 3500 
L 1159 2956 
Q 1341 3275 1631 3429 
Q 1922 3584 2338 3584 
Q 2397 3584 2469 3576 
Q 2541 3569 2628 3553 
L 2631 2963 
z
" transform="scale(0.015625)"/>
      <path id="DejaVuSans-6f" d="M 1959 3097 
Q 1497 3097 1228 2736 
Q 959 2375 959 1747 
Q 959 1119 1226 758 
Q 1494 397 1959 397 
Q 2419 397 2687 759 
Q 2956 1122 2956 1747 
Q 2956 2369 2687 2733 
Q 2419 3097 1959 3097 
z
M 1959 3584 
Q 2709 3584 3137 3096 
Q 3566 2609 3566 1747 
Q 3566 888 3137 398 
Q 2709 -91 1959 -91 
Q 1206 -91 779 398 
Q 353 888 353 1747 
Q 353 2609 779 3096 
Q 1206 3584 1959 3584 
z
" transform="scale(0.015625)"/>
      <path id="DejaVuSans-6e" d="M 3513 2113 
L 3513 0 
L 2938 0 
L 2938 2094 
Q 2938 2591 2744 2837 
Q 2550 3084 2163 3084 
Q 1697 3084 1428 2787 
Q 1159 2491 1159 1978 
L 1159 0 
L 581 0 
L 581 3500 
L 1159 3500 
L 1159 2956 
Q 1366 3272 1645 3428 
Q 1925 3584 2291 3584 
Q 2894 3584 3203 3211 
Q 3513 2838 3513 2113 
z
" transform="scale(0.015625)"/>
      <path id="DejaVuSans-3a" d="M 750 794 
L 1409 794 
L 1409 0 
L 750 0 
L 750 794 
z
M 750 3309 
L 1409 3309 
L 1409 2516 
L 750 2516 
L 750 3309 
z
" transform="scale(0.015625)"/>
      <path id="DejaVuSans-68" d="M 3513 2113 
L 3513 0 
L 2938 0 
L 2938 2094 
Q 2938 2591 2744 2837 
Q 2550 3084 2163 3084 
Q 1697 3084 1428 2787 
Q 1159 2491 1159 1978 
L 1159 0 
L 581 0 
L 581 4863 
L 1159 4863 
L 1159 2956 
Q 1366 3272 1645 3428 
Q 1925 3584 2291 3584 
Q 2894 3584 3203 3211 
Q 3513 2838 3513 2113 
z
" transform="scale(0.015625)"/>
      <path id="DejaVuSans-70" d="M 1159 525 
L 1159 -1331 
L 581 -1331 
L 581 3500 
L 1159 3500 
L 1159 2969 
Q 1341 3281 1617 3432 
Q 1894 3584 2278 3584 
Q 2916 3584 3314 3078 
Q 3713 2572 3713 1747 
Q 3713 922 3314 415 
Q 2916 -91 2278 -91 
Q 1894 -91 1617 61 
Q 1341 213 1159 525 
z
M 3116 1747 
Q 3116 2381 2855 2742 
Q 2594 3103 2138 3103 
Q 1681 3103 1420 2742 
Q 1159 2381 1159 1747 
Q 1159 1113 1420 752 
Q 1681 391 2138 391 
Q 2594 391 2855 752 
Q 3116 1113 3116 1747 
z
" transform="scale(0.015625)"/>
      <path id="DejaVuSans-61" d="M 2194 1759 
Q 1497 1759 1228 1600 
Q 959 1441 959 1056 
Q 959 750 1161 570 
Q 1363 391 1709 391 
Q 2188 391 2477 730 
Q 2766 1069 2766 1631 
L 2766 1759 
L 2194 1759 
z
M 3341 1997 
L 3341 0 
L 2766 0 
L 2766 531 
Q 2569 213 2275 61 
Q 1981 -91 1556 -91 
Q 1019 -91 701 211 
Q 384 513 384 1019 
Q 384 1609 779 1909 
Q 1175 2209 1959 2209 
L 2766 2209 
L 2766 2266 
Q 2766 2663 2505 2880 
Q 2244 3097 1772 3097 
Q 1472 3097 1187 3025 
Q 903 2953 641 2809 
L 641 3341 
Q 956 3463 1253 3523 
Q 1550 3584 1831 3584 
Q 2591 3584 2966 3190 
Q 3341 2797 3341 1997 
z
" transform="scale(0.015625)"/>
      <path id="DejaVuSans-2d" d="M 313 2009 
L 1997 2009 
L 1997 1497 
L 313 1497 
L 313 2009 
z
" transform="scale(0.015625)"/>
      <path id="DejaVuSans-77" d="M 269 3500 
L 844 3500 
L 1563 769 
L 2278 3500 
L 2956 3500 
L 3675 769 
L 4391 3500 
L 4966 3500 
L 4050 0 
L 3372 0 
L 2619 2869 
L 1863 0 
L 1184 0 
L 269 3500 
z
" transform="scale(0.015625)"/>
      <path id="DejaVuSans-69" d="M 603 3500 
L 1178 3500 
L 1178 0 
L 603 0 
L 603 3500 
z
M 603 4863 
L 1178 4863 
L 1178 4134 
L 603 4134 
L 603 4863 
z
" transform="scale(0.015625)"/>
      <path id="DejaVuSans-67" d="M 2906 1791 
Q 2906 2416 2648 2759 
Q 2391 3103 1925 3103 
Q 1463 3103 1205 2759 
Q 947 2416 947 1791 
Q 947 1169 1205 825 
Q 1463 481 1925 481 
Q 2391 481 2648 825 
Q 2906 1169 2906 1791 
z
M 3481 434 
Q 3481 -459 3084 -895 
Q 2688 -1331 1869 -1331 
Q 1566 -1331 1297 -1286 
Q 1028 -1241 775 -1147 
L 775 -588 
Q 1028 -725 1275 -790 
Q 1522 -856 1778 -856 
Q 2344 -856 2625 -561 
Q 2906 -266 2906 331 
L 2906 616 
Q 2728 306 2450 153 
Q 2172 0 1784 0 
Q 1141 0 747 490 
Q 353 981 353 1791 
Q 353 2603 747 3093 
Q 1141 3584 1784 3584 
Q 2172 3584 2450 3431 
Q 2728 3278 2906 2969 
L 2906 3500 
L 3481 3500 
L 3481 434 
z
" transform="scale(0.015625)"/>
      <path id="DejaVuSans-42" d="M 1259 2228 
L 1259 519 
L 2272 519 
Q 2781 519 3026 730 
Q 3272 941 3272 1375 
Q 3272 1813 3026 2020 
Q 2781 2228 2272 2228 
L 1259 2228 
z
M 1259 4147 
L 1259 2741 
L 2194 2741 
Q 2656 2741 2882 2914 
Q 3109 3088 3109 3444 
Q 3109 3797 2882 3972 
Q 2656 4147 2194 4147 
L 1259 4147 
z
M 628 4666 
L 2241 4666 
Q 2963 4666 3353 4366 
Q 3744 4066 3744 3513 
Q 3744 3084 3544 2831 
Q 3344 2578 2956 2516 
Q 3422 2416 3680 2098 
Q 3938 1781 3938 1306 
Q 3938 681 3513 340 
Q 3088 0 2303 0 
L 628 0 
L 628 4666 
z
" transform="scale(0.015625)"/>
      <path id="DejaVuSans-7a" d="M 353 3500 
L 3084 3500 
L 3084 2975 
L 922 459 
L 3084 459 
L 3084 0 
L 275 0 
L 275 525 
L 2438 3041 
L 353 3041 
L 353 3500 
z
" transform="scale(0.015625)"/>
     </defs>
     <use xlink:href="#DejaVuSans-53" transform="translate(0 0.015625)"/>
     <use xlink:href="#DejaVuSans-65" transform="translate(63.476562 0.015625)"/>
     <use xlink:href="#DejaVuSans-Oblique-53" transform="translate(125.957031 -16.390625) scale(0.7)"/>
     <use xlink:href="#DejaVuSans-20" transform="translate(173.125 0.015625)"/>
     <use xlink:href="#DejaVuSans-65" transform="translate(204.912109 0.015625)"/>
     <use xlink:href="#DejaVuSans-6c" transform="translate(266.435547 0.015625)"/>
     <use xlink:href="#DejaVuSans-65" transform="translate(294.21875 0.015625)"/>
     <use xlink:href="#DejaVuSans-63" transform="translate(355.742188 0.015625)"/>
     <use xlink:href="#DejaVuSans-74" transform="translate(410.722656 0.015625)"/>
     <use xlink:href="#DejaVuSans-72" transform="translate(449.931641 0.015625)"/>
     <use xlink:href="#DejaVuSans-6f" transform="translate(491.044922 0.015625)"/>
     <use xlink:href="#DejaVuSans-6e" transform="translate(552.226562 0.015625)"/>
     <use xlink:href="#DejaVuSans-73" transform="translate(615.605469 0.015625)"/>
     <use xlink:href="#DejaVuSans-3a" transform="translate(667.705078 0.015625)"/>
     <use xlink:href="#DejaVuSans-20" transform="translate(701.396484 0.015625)"/>
     <use xlink:href="#DejaVuSans-74" transform="translate(733.183594 0.015625)"/>
     <use xlink:href="#DejaVuSans-68" transform="translate(772.392578 0.015625)"/>
     <use xlink:href="#DejaVuSans-65" transform="translate(835.771484 0.015625)"/>
     <use xlink:href="#DejaVuSans-20" transform="translate(897.294922 0.015625)"/>
     <use xlink:href="#DejaVuSans-73" transform="translate(929.082031 0.015625)"/>
     <use xlink:href="#DejaVuSans-70" transform="translate(981.181641 0.015625)"/>
     <use xlink:href="#DejaVuSans-65" transform="translate(1044.658203 0.015625)"/>
     <use xlink:href="#DejaVuSans-63" transform="translate(1106.181641 0.015625)"/>
     <use xlink:href="#DejaVuSans-74" transform="translate(1161.162109 0.015625)"/>
     <use xlink:href="#DejaVuSans-72" transform="translate(1200.371094 0.015625)"/>
     <use xlink:href="#DejaVuSans-61" transform="translate(1241.484375 0.015625)"/>
     <use xlink:href="#DejaVuSans-6c" transform="translate(1302.763672 0.015625)"/>
     <use xlink:href="#DejaVuSans-2d" transform="translate(1330.546875 0.015625)"/>
     <use xlink:href="#DejaVuSans-77" transform="translate(1366.630859 0.015625)"/>
     <use xlink:href="#DejaVuSans-65" transform="translate(1448.417969 0.015625)"/>
     <use xlink:href="#DejaVuSans-69" transform="translate(1509.941406 0.015625)"/>
     <use xlink:href="#DejaVuSans-67" transform="translate(1537.724609 0.015625)"/>
     <use xlink:href="#DejaVuSans-68" transform="translate(1601.201172 0.015625)"/>
     <use xlink:href="#DejaVuSans-74" transform="translate(1664.580078 0.015625)"/>
     <use xlink:href="#DejaVuSans-20" transform="translate(1703.789062 0.015625)"/>
     <use xlink:href="#DejaVuSans-42" transform="translate(1735.576172 0.015625)"/>
     <use xlink:href="#DejaVuSans-6f" transform="translate(1804.179688 0.015625)"/>
     <use xlink:href="#DejaVuSans-6c" transform="translate(1865.361328 0.015625)"/>
     <use xlink:href="#DejaVuSans-74" transform="translate(1893.144531 0.015625)"/>
     <use xlink:href="#DejaVuSans-7a" transform="translate(1932.353516 0.015625)"/>
     <use xlink:href="#DejaVuSans-6d" transform="translate(1984.84375 0.015625)"/>
     <use xlink:href="#DejaVuSans-61" transform="translate(2082.255859 0.015625)"/>
     <use xlink:href="#DejaVuSans-6e" transform="translate(2143.535156 0.015625)"/>
     <use xlink:href="#DejaVuSans-6e" transform="translate(2206.914062 0.015625)"/>
     <use xlink:href="#DejaVuSans-20" transform="translate(2270.292969 0.015625)"/>
     <use xlink:href="#DejaVuSans-72" transform="translate(2302.080078 0.015625)"/>
     <use xlink:href="#DejaVuSans-65" transform="translate(2343.193359 0.015625)"/>
     <use xlink:href="#DejaVuSans-6e" transform="translate(2404.716797 0.015625)"/>
     <use xlink:href="#DejaVuSans-6f" transform="translate(2468.095703 0.015625)"/>
     <use xlink:href="#DejaVuSans-72" transform="translate(2529.277344 0.015625)"/>
     <use xlink:href="#DejaVuSans-6d" transform="translate(2570.390625 0.015625)"/>
     <use xlink:href="#DejaVuSans-61" transform="translate(2667.802734 0.015625)"/>
     <use xlink:href="#DejaVuSans-6c" transform="translate(2729.082031 0.015625)"/>
     <use xlink:href="#DejaVuSans-69" transform="translate(2756.865234 0.015625)"/>
     <use xlink:href="#DejaVuSans-7a" transform="translate(2784.648438 0.015625)"/>
     <use xlink:href="#DejaVuSans-61" transform="translate(2837.138672 0.015625)"/>
     <use xlink:href="#DejaVuSans-74" transform="translate(2898.417969 0.015625)"/>
     <use xlink:href="#DejaVuSans-69" transform="translate(2937.626953 0.015625)"/>
     <use xlink:href="#DejaVuSans-6f" transform="translate(2965.410156 0.015625)"/>
     <use xlink:href="#DejaVuSans-6e" transform="translate(3026.591797 0.015625)"/>
    </g>
   </g>
   <g id="legend_1">
    <g id="patch_7">
     <path d="M 254.7125 59.30274 
L 409.2725 59.30274 
Q 410.8725 59.30274 410.8725 57.70274 
L 410.8725 22.20024 
Q 410.8725 20.60024 409.2725 20.60024 
L 254.7125 20.60024 
Q 253.1125 20.60024 253.1125 22.20024 
L 253.1125 57.70274 
Q 253.1125 59.30274 254.7125 59.30274 
z
" style="fill: #ffffff; opacity: 0.8; stroke: #cccccc; stroke-linejoin: miter"/>
    </g>
    <g id="line2d_17">
     <path d="M 256.3125 27.07899 
L 264.3125 27.07899 
L 272.3125 27.07899 
" style="fill: none; stroke: #2471a3; stroke-width: 1.5; stroke-linecap: square"/>
     <g>
      <use xlink:href="#m39d0b7b603" x="264.3125" y="27.07899" style="fill: #2471a3; stroke: #2471a3"/>
     </g>
    </g>
    <g id="text_17">
     <!-- K1 (QP-Lorentzian $\equiv$ SERTA) -->
     <g transform="translate(278.7125 29.87899) scale(0.08 -0.08)">
      <defs>
       <path id="DejaVuSans-51" d="M 2522 4238 
Q 1834 4238 1429 3725 
Q 1025 3213 1025 2328 
Q 1025 1447 1429 934 
Q 1834 422 2522 422 
Q 3209 422 3611 934 
Q 4013 1447 4013 2328 
Q 4013 3213 3611 3725 
Q 3209 4238 2522 4238 
z
M 3406 84 
L 4238 -825 
L 3475 -825 
L 2784 -78 
Q 2681 -84 2626 -87 
Q 2572 -91 2522 -91 
Q 1538 -91 948 567 
Q 359 1225 359 2328 
Q 359 3434 948 4092 
Q 1538 4750 2522 4750 
Q 3503 4750 4090 4092 
Q 4678 3434 4678 2328 
Q 4678 1516 4351 937 
Q 4025 359 3406 84 
z
" transform="scale(0.015625)"/>
       <path id="DejaVuSans-50" d="M 1259 4147 
L 1259 2394 
L 2053 2394 
Q 2494 2394 2734 2622 
Q 2975 2850 2975 3272 
Q 2975 3691 2734 3919 
Q 2494 4147 2053 4147 
L 1259 4147 
z
M 628 4666 
L 2053 4666 
Q 2838 4666 3239 4311 
Q 3641 3956 3641 3272 
Q 3641 2581 3239 2228 
Q 2838 1875 2053 1875 
L 1259 1875 
L 1259 0 
L 628 0 
L 628 4666 
z
" transform="scale(0.015625)"/>
       <path id="DejaVuSans-4c" d="M 628 4666 
L 1259 4666 
L 1259 531 
L 3531 531 
L 3531 0 
L 628 0 
L 628 4666 
z
" transform="scale(0.015625)"/>
       <path id="DejaVuSans-2261" d="M 678 2272 
L 4684 2272 
L 4684 1741 
L 678 1741 
L 678 2272 
z
M 678 3438 
L 4684 3438 
L 4684 2906 
L 678 2906 
L 678 3438 
z
M 678 1106 
L 4684 1106 
L 4684 575 
L 678 575 
L 678 1106 
z
" transform="scale(0.015625)"/>
       <path id="DejaVuSans-45" d="M 628 4666 
L 3578 4666 
L 3578 4134 
L 1259 4134 
L 1259 2753 
L 3481 2753 
L 3481 2222 
L 1259 2222 
L 1259 531 
L 3634 531 
L 3634 0 
L 628 0 
L 628 4666 
z
" transform="scale(0.015625)"/>
       <path id="DejaVuSans-52" d="M 2841 2188 
Q 3044 2119 3236 1894 
Q 3428 1669 3622 1275 
L 4263 0 
L 3584 0 
L 2988 1197 
Q 2756 1666 2539 1819 
Q 2322 1972 1947 1972 
L 1259 1972 
L 1259 0 
L 628 0 
L 628 4666 
L 2053 4666 
Q 2853 4666 3247 4331 
Q 3641 3997 3641 3322 
Q 3641 2881 3436 2590 
Q 3231 2300 2841 2188 
z
M 1259 4147 
L 1259 2491 
L 2053 2491 
Q 2509 2491 2742 2702 
Q 2975 2913 2975 3322 
Q 2975 3731 2742 3939 
Q 2509 4147 2053 4147 
L 1259 4147 
z
" transform="scale(0.015625)"/>
       <path id="DejaVuSans-54" d="M -19 4666 
L 3928 4666 
L 3928 4134 
L 2272 4134 
L 2272 0 
L 1638 0 
L 1638 4134 
L -19 4134 
L -19 4666 
z
" transform="scale(0.015625)"/>
       <path id="DejaVuSans-41" d="M 2188 4044 
L 1331 1722 
L 3047 1722 
L 2188 4044 
z
M 1831 4666 
L 2547 4666 
L 4325 0 
L 3669 0 
L 3244 1197 
L 1141 1197 
L 716 0 
L 50 0 
L 1831 4666 
z
" transform="scale(0.015625)"/>
      </defs>
      <use xlink:href="#DejaVuSans-4b" transform="translate(0 0.015625)"/>
      <use xlink:href="#DejaVuSans-31" transform="translate(65.576172 0.015625)"/>
      <use xlink:href="#DejaVuSans-20" transform="translate(129.199219 0.015625)"/>
      <use xlink:href="#DejaVuSans-28" transform="translate(160.986328 0.015625)"/>
      <use xlink:href="#DejaVuSans-51" transform="translate(200 0.015625)"/>
      <use xlink:href="#DejaVuSans-50" transform="translate(278.710938 0.015625)"/>
      <use xlink:href="#DejaVuSans-2d" transform="translate(339.013672 0.015625)"/>
      <use xlink:href="#DejaVuSans-4c" transform="translate(375.097656 0.015625)"/>
      <use xlink:href="#DejaVuSans-6f" transform="translate(430.810547 0.015625)"/>
      <use xlink:href="#DejaVuSans-72" transform="translate(491.992188 0.015625)"/>
      <use xlink:href="#DejaVuSans-65" transform="translate(533.105469 0.015625)"/>
      <use xlink:href="#DejaVuSans-6e" transform="translate(594.628906 0.015625)"/>
      <use xlink:href="#DejaVuSans-74" transform="translate(658.007812 0.015625)"/>
      <use xlink:href="#DejaVuSans-7a" transform="translate(697.216797 0.015625)"/>
      <use xlink:href="#DejaVuSans-69" transform="translate(749.707031 0.015625)"/>
      <use xlink:href="#DejaVuSans-61" transform="translate(777.490234 0.015625)"/>
      <use xlink:href="#DejaVuSans-6e" transform="translate(838.769531 0.015625)"/>
      <use xlink:href="#DejaVuSans-20" transform="translate(902.148438 0.015625)"/>
      <use xlink:href="#DejaVuSans-2261" transform="translate(953.417969 0.015625)"/>
      <use xlink:href="#DejaVuSans-20" transform="translate(1056.689453 0.015625)"/>
      <use xlink:href="#DejaVuSans-53" transform="translate(1088.476562 0.015625)"/>
      <use xlink:href="#DejaVuSans-45" transform="translate(1151.953125 0.015625)"/>
      <use xlink:href="#DejaVuSans-52" transform="translate(1215.136719 0.015625)"/>
      <use xlink:href="#DejaVuSans-54" transform="translate(1284.619141 0.015625)"/>
      <use xlink:href="#DejaVuSans-41" transform="translate(1345.703125 0.015625)"/>
      <use xlink:href="#DejaVuSans-29" transform="translate(1414.111328 0.015625)"/>
     </g>
    </g>
    <g id="line2d_18">
     <path d="M 256.3125 38.82274 
L 264.3125 38.82274 
L 272.3125 38.82274 
" style="fill: none; stroke: #c0392b; stroke-width: 1.5; stroke-linecap: square"/>
     <g>
      <use xlink:href="#m65356f518a" x="264.3125" y="38.82274" style="fill: #c0392b; stroke: #c0392b; stroke-linejoin: miter"/>
     </g>
    </g>
    <g id="text_18">
     <!-- K2$_{\rm band}$ (full lineshape) -->
     <g transform="translate(278.7125 41.62274) scale(0.08 -0.08)">
      <defs>
       <path id="DejaVuSans-62" d="M 3116 1747 
Q 3116 2381 2855 2742 
Q 2594 3103 2138 3103 
Q 1681 3103 1420 2742 
Q 1159 2381 1159 1747 
Q 1159 1113 1420 752 
Q 1681 391 2138 391 
Q 2594 391 2855 752 
Q 3116 1113 3116 1747 
z
M 1159 2969 
Q 1341 3281 1617 3432 
Q 1894 3584 2278 3584 
Q 2916 3584 3314 3078 
Q 3713 2572 3713 1747 
Q 3713 922 3314 415 
Q 2916 -91 2278 -91 
Q 1894 -91 1617 61 
Q 1341 213 1159 525 
L 1159 0 
L 581 0 
L 581 4863 
L 1159 4863 
L 1159 2969 
z
" transform="scale(0.015625)"/>
       <path id="DejaVuSans-64" d="M 2906 2969 
L 2906 4863 
L 3481 4863 
L 3481 0 
L 2906 0 
L 2906 525 
Q 2725 213 2448 61 
Q 2172 -91 1784 -91 
Q 1150 -91 751 415 
Q 353 922 353 1747 
Q 353 2572 751 3078 
Q 1150 3584 1784 3584 
Q 2172 3584 2448 3432 
Q 2725 3281 2906 2969 
z
M 947 1747 
Q 947 1113 1208 752 
Q 1469 391 1925 391 
Q 2381 391 2643 752 
Q 2906 1113 2906 1747 
Q 2906 2381 2643 2742 
Q 2381 3103 1925 3103 
Q 1469 3103 1208 2742 
Q 947 2381 947 1747 
z
" transform="scale(0.015625)"/>
       <path id="DejaVuSans-66" d="M 2375 4863 
L 2375 4384 
L 1825 4384 
Q 1516 4384 1395 4259 
Q 1275 4134 1275 3809 
L 1275 3500 
L 2222 3500 
L 2222 3053 
L 1275 3053 
L 1275 0 
L 697 0 
L 697 3053 
L 147 3053 
L 147 3500 
L 697 3500 
L 697 3744 
Q 697 4328 969 4595 
Q 1241 4863 1831 4863 
L 2375 4863 
z
" transform="scale(0.015625)"/>
       <path id="DejaVuSans-75" d="M 544 1381 
L 544 3500 
L 1119 3500 
L 1119 1403 
Q 1119 906 1312 657 
Q 1506 409 1894 409 
Q 2359 409 2629 706 
Q 2900 1003 2900 1516 
L 2900 3500 
L 3475 3500 
L 3475 0 
L 2900 0 
L 2900 538 
Q 2691 219 2414 64 
Q 2138 -91 1772 -91 
Q 1169 -91 856 284 
Q 544 659 544 1381 
z
M 1991 3584 
L 1991 3584 
z
" transform="scale(0.015625)"/>
      </defs>
      <use xlink:href="#DejaVuSans-4b" transform="translate(0 0.015625)"/>
      <use xlink:href="#DejaVuSans-32" transform="translate(65.576172 0.015625)"/>
      <use xlink:href="#DejaVuSans-62" transform="translate(130.15625 -16.390625) scale(0.7)"/>
      <use xlink:href="#DejaVuSans-61" transform="translate(174.589844 -16.390625) scale(0.7)"/>
      <use xlink:href="#DejaVuSans-6e" transform="translate(217.485352 -16.390625) scale(0.7)"/>
      <use xlink:href="#DejaVuSans-64" transform="translate(261.850586 -16.390625) scale(0.7)"/>
      <use xlink:href="#DejaVuSans-20" transform="translate(309.018555 0.015625)"/>
      <use xlink:href="#DejaVuSans-28" transform="translate(340.805664 0.015625)"/>
      <use xlink:href="#DejaVuSans-66" transform="translate(379.819336 0.015625)"/>
      <use xlink:href="#DejaVuSans-75" transform="translate(415.024414 0.015625)"/>
      <use xlink:href="#DejaVuSans-6c" transform="translate(478.40332 0.015625)"/>
      <use xlink:href="#DejaVuSans-6c" transform="translate(506.186523 0.015625)"/>
      <use xlink:href="#DejaVuSans-20" transform="translate(533.969727 0.015625)"/>
      <use xlink:href="#DejaVuSans-6c" transform="translate(565.756836 0.015625)"/>
      <use xlink:href="#DejaVuSans-69" transform="translate(593.540039 0.015625)"/>
      <use xlink:href="#DejaVuSans-6e" transform="translate(621.323242 0.015625)"/>
      <use xlink:href="#DejaVuSans-65" transform="translate(684.702148 0.015625)"/>
      <use xlink:href="#DejaVuSans-73" transform="translate(746.225586 0.015625)"/>
      <use xlink:href="#DejaVuSans-68" transform="translate(798.325195 0.015625)"/>
      <use xlink:href="#DejaVuSans-61" transform="translate(861.704102 0.015625)"/>
      <use xlink:href="#DejaVuSans-70" transform="translate(922.983398 0.015625)"/>
      <use xlink:href="#DejaVuSans-65" transform="translate(986.459961 0.015625)"/>
      <use xlink:href="#DejaVuSans-29" transform="translate(1047.983398 0.015625)"/>
     </g>
    </g>
    <g id="line2d_19">
     <path d="M 256.3125 51.63899 
L 264.3125 51.63899 
L 272.3125 51.63899 
" style="fill: none; stroke-dasharray: 4.81,2.08; stroke-dashoffset: 0; stroke: #e67e22; stroke-width: 1.3"/>
     <g>
      <use xlink:href="#mce63ab12c0" x="264.3125" y="51.63899" style="fill: #e67e22; stroke: #e67e22; stroke-linejoin: miter"/>
     </g>
    </g>
    <g id="text_19">
     <!-- K2$_{\rm band}\times e^{+{\rm Re}\Sigma/k_BT}$ (Re$\Sigma$=15 meV) -->
     <g transform="translate(278.7125 54.43899) scale(0.08 -0.08)">
      <defs>
       <path id="DejaVuSans-d7" d="M 4488 3438 
L 3059 2003 
L 4488 575 
L 4116 197 
L 2681 1631 
L 1247 197 
L 878 575 
L 2303 2003 
L 878 3438 
L 1247 3816 
L 2681 2381 
L 4116 3816 
L 4488 3438 
z
" transform="scale(0.015625)"/>
       <path id="DejaVuSans-2b" d="M 2944 4013 
L 2944 2272 
L 4684 2272 
L 4684 1741 
L 2944 1741 
L 2944 0 
L 2419 0 
L 2419 1741 
L 678 1741 
L 678 2272 
L 2419 2272 
L 2419 4013 
L 2944 4013 
z
" transform="scale(0.015625)"/>
       <path id="DejaVuSans-3a3" d="M 1353 531 
L 3634 531 
L 3634 0 
L 628 0 
L 628 531 
L 2125 2481 
L 628 4134 
L 628 4666 
L 3578 4666 
L 3578 4134 
L 1353 4134 
L 2850 2494 
L 1353 531 
z
" transform="scale(0.015625)"/>
       <path id="DejaVuSans-Oblique-6b" d="M 1172 4863 
L 1747 4863 
L 1197 2028 
L 3169 3500 
L 3916 3500 
L 1716 1825 
L 3322 0 
L 2625 0 
L 1131 1709 
L 800 0 
L 225 0 
L 1172 4863 
z
" transform="scale(0.015625)"/>
       <path id="DejaVuSans-Oblique-42" d="M 1081 4666 
L 2694 4666 
Q 3350 4666 3675 4422 
Q 4000 4178 4000 3688 
Q 4000 3238 3720 2911 
Q 3441 2584 2988 2516 
Q 3375 2428 3569 2181 
Q 3763 1934 3763 1522 
Q 3763 819 3242 409 
Q 2722 0 1819 0 
L 172 0 
L 1081 4666 
z
M 1234 2228 
L 903 519 
L 1919 519 
Q 2491 519 2800 781 
Q 3109 1044 3109 1522 
Q 3109 1891 2904 2059 
Q 2700 2228 2247 2228 
L 1234 2228 
z
M 1606 4147 
L 1331 2741 
L 2272 2741 
Q 2775 2741 3058 2959 
Q 3341 3178 3341 3566 
Q 3341 3869 3150 4008 
Q 2959 4147 2541 4147 
L 1606 4147 
z
" transform="scale(0.015625)"/>
       <path id="DejaVuSans-3d" d="M 678 2906 
L 4684 2906 
L 4684 2381 
L 678 2381 
L 678 2906 
z
M 678 1631 
L 4684 1631 
L 4684 1100 
L 678 1100 
L 678 1631 
z
" transform="scale(0.015625)"/>
      </defs>
      <use xlink:href="#DejaVuSans-4b" transform="translate(0 0.529687)"/>
      <use xlink:href="#DejaVuSans-32" transform="translate(65.576172 0.529687)"/>
      <use xlink:href="#DejaVuSans-62" transform="translate(130.15625 -15.876563) scale(0.7)"/>
      <use xlink:href="#DejaVuSans-61" transform="translate(174.589844 -15.876563) scale(0.7)"/>
      <use xlink:href="#DejaVuSans-6e" transform="translate(217.485352 -15.876563) scale(0.7)"/>
      <use xlink:href="#DejaVuSans-64" transform="translate(261.850586 -15.876563) scale(0.7)"/>
      <use xlink:href="#DejaVuSans-d7" transform="translate(328.500977 0.529687)"/>
      <use xlink:href="#DejaVuSans-Oblique-65" transform="translate(431.772461 0.529687)"/>
      <use xlink:href="#DejaVuSans-2b" transform="translate(497.945794 38.810937) scale(0.7)"/>
      <use xlink:href="#DejaVuSans-52" transform="translate(556.598138 38.810937) scale(0.7)"/>
      <use xlink:href="#DejaVuSans-65" transform="translate(605.235833 38.810937) scale(0.7)"/>
      <use xlink:href="#DejaVuSans-3a3" transform="translate(648.30224 38.810937) scale(0.7)"/>
      <use xlink:href="#DejaVuSans-2f" transform="translate(692.530755 38.810937) scale(0.7)"/>
      <use xlink:href="#DejaVuSans-Oblique-6b" transform="translate(716.11474 38.810937) scale(0.7)"/>
      <use xlink:href="#DejaVuSans-Oblique-42" transform="translate(756.651849 27.326562) scale(0.49)"/>
      <use xlink:href="#DejaVuSans-Oblique-54" transform="translate(792.181634 38.810937) scale(0.7)"/>
      <use xlink:href="#DejaVuSans-20" transform="translate(837.674798 0.529687)"/>
      <use xlink:href="#DejaVuSans-28" transform="translate(869.461908 0.529687)"/>
      <use xlink:href="#DejaVuSans-52" transform="translate(908.475579 0.529687)"/>
      <use xlink:href="#DejaVuSans-65" transform="translate(977.958001 0.529687)"/>
      <use xlink:href="#DejaVuSans-3a3" transform="translate(1039.481439 0.529687)"/>
      <use xlink:href="#DejaVuSans-3d" transform="translate(1102.665033 0.529687)"/>
      <use xlink:href="#DejaVuSans-31" transform="translate(1186.454095 0.529687)"/>
      <use xlink:href="#DejaVuSans-35" transform="translate(1250.077142 0.529687)"/>
      <use xlink:href="#DejaVuSans-20" transform="translate(1313.700189 0.529687)"/>
      <use xlink:href="#DejaVuSans-6d" transform="translate(1345.487298 0.529687)"/>
      <use xlink:href="#DejaVuSans-65" transform="translate(1442.899408 0.529687)"/>
      <use xlink:href="#DejaVuSans-56" transform="translate(1504.422845 0.529687)"/>
      <use xlink:href="#DejaVuSans-29" transform="translate(1572.831048 0.529687)"/>
     </g>
    </g>
   </g>
  </g>
  <g id="axes_2">
   <g id="patch_8">
    <path d="M 460.7775 269.04351 
L 824.99976 269.04351 
L 824.99976 16.60024 
L 460.7775 16.60024 
z
" style="fill: #ffffff"/>
   </g>
   <g id="patch_9">
    <path d="M 477.333057 269.04351 
L 523.00356 269.04351 
L 523.00356 264.142818 
L 477.333057 264.142818 
z
" clip-path="url(#p78f6f5790d)" style="fill: #1e8449"/>
   </g>
   <g id="patch_10">
    <path d="M 534.421186 269.04351 
L 580.091689 269.04351 
L 580.091689 28.621348 
L 534.421186 28.621348 
z
" clip-path="url(#p78f6f5790d)" style="fill: #c0392b"/>
   </g>
   <g id="patch_11">
    <path d="M 591.509314 269.04351 
L 637.179817 269.04351 
L 637.179817 136.724838 
L 591.509314 136.724838 
z
" clip-path="url(#p78f6f5790d)" style="fill: #c0392b"/>
   </g>
   <g id="patch_12">
    <path d="M 648.597443 269.04351 
L 694.267946 269.04351 
L 694.267946 268.178682 
L 648.597443 268.178682 
z
" clip-path="url(#p78f6f5790d)" style="fill: #1e8449"/>
   </g>
   <g id="patch_13">
    <path d="M 705.685571 269.04351 
L 751.356074 269.04351 
L 751.356074 265.584198 
L 705.685571 265.584198 
z
" clip-path="url(#p78f6f5790d)" style="fill: #1e8449"/>
   </g>
   <g id="patch_14">
    <path d="M 762.7737 269.04351 
L 808.444203 269.04351 
L 808.444203 263.566267 
L 762.7737 263.566267 
z
" clip-path="url(#p78f6f5790d)" style="fill: #1e8449"/>
   </g>
   <g id="matplotlib.axis_3">
    <g id="xtick_8">
     <g id="line2d_20">
      <g>
       <use xlink:href="#m67cf727dd1" x="500.168309" y="269.04351" style="stroke: #000000; stroke-width: 0.8"/>
      </g>
     </g>
     <g id="text_20">
      <!-- O$_S$/h -->
      <g transform="translate(490.088309 282.882104) scale(0.09 -0.09)">
       <defs>
        <path id="DejaVuSans-4f" d="M 2522 4238 
Q 1834 4238 1429 3725 
Q 1025 3213 1025 2328 
Q 1025 1447 1429 934 
Q 1834 422 2522 422 
Q 3209 422 3611 934 
Q 4013 1447 4013 2328 
Q 4013 3213 3611 3725 
Q 3209 4238 2522 4238 
z
M 2522 4750 
Q 3503 4750 4090 4092 
Q 4678 3434 4678 2328 
Q 4678 1225 4090 567 
Q 3503 -91 2522 -91 
Q 1538 -91 948 565 
Q 359 1222 359 2328 
Q 359 3434 948 4092 
Q 1538 4750 2522 4750 
z
" transform="scale(0.015625)"/>
       </defs>
       <use xlink:href="#DejaVuSans-4f" transform="translate(0 0.015625)"/>
       <use xlink:href="#DejaVuSans-Oblique-53" transform="translate(79.667969 -16.390625) scale(0.7)"/>
       <use xlink:href="#DejaVuSans-2f" transform="translate(126.835938 0.015625)"/>
       <use xlink:href="#DejaVuSans-68" transform="translate(160.527344 0.015625)"/>
      </g>
     </g>
    </g>
    <g id="xtick_9">
     <g id="line2d_21">
      <g>
       <use xlink:href="#m67cf727dd1" x="557.256437" y="269.04351" style="stroke: #000000; stroke-width: 0.8"/>
      </g>
     </g>
     <g id="text_21">
      <!-- O$_S$/e -->
      <g transform="translate(547.221437 282.882104) scale(0.09 -0.09)">
       <use xlink:href="#DejaVuSans-4f" transform="translate(0 0.78125)"/>
       <use xlink:href="#DejaVuSans-Oblique-53" transform="translate(79.667969 -15.625) scale(0.7)"/>
       <use xlink:href="#DejaVuSans-2f" transform="translate(126.835938 0.78125)"/>
       <use xlink:href="#DejaVuSans-65" transform="translate(160.527344 0.78125)"/>
      </g>
     </g>
    </g>
    <g id="xtick_10">
     <g id="line2d_22">
      <g>
       <use xlink:href="#m67cf727dd1" x="614.344566" y="269.04351" style="stroke: #000000; stroke-width: 0.8"/>
      </g>
     </g>
     <g id="text_22">
      <!-- Se$_S$/h -->
      <g transform="translate(602.149566 282.882104) scale(0.09 -0.09)">
       <use xlink:href="#DejaVuSans-53" transform="translate(0 0.015625)"/>
       <use xlink:href="#DejaVuSans-65" transform="translate(63.476562 0.015625)"/>
       <use xlink:href="#DejaVuSans-Oblique-53" transform="translate(125.957031 -16.390625) scale(0.7)"/>
       <use xlink:href="#DejaVuSans-2f" transform="translate(173.125 0.015625)"/>
       <use xlink:href="#DejaVuSans-68" transform="translate(206.816406 0.015625)"/>
      </g>
     </g>
    </g>
    <g id="xtick_11">
     <g id="line2d_23">
      <g>
       <use xlink:href="#m67cf727dd1" x="671.432694" y="269.04351" style="stroke: #000000; stroke-width: 0.8"/>
      </g>
     </g>
     <g id="text_23">
      <!-- Se$_S$/e -->
      <g transform="translate(659.327694 282.882104) scale(0.09 -0.09)">
       <use xlink:href="#DejaVuSans-53" transform="translate(0 0.78125)"/>
       <use xlink:href="#DejaVuSans-65" transform="translate(63.476562 0.78125)"/>
       <use xlink:href="#DejaVuSans-Oblique-53" transform="translate(125.957031 -15.625) scale(0.7)"/>
       <use xlink:href="#DejaVuSans-2f" transform="translate(173.125 0.78125)"/>
       <use xlink:href="#DejaVuSans-65" transform="translate(206.816406 0.78125)"/>
      </g>
     </g>
    </g>
    <g id="xtick_12">
     <g id="line2d_24">
      <g>
       <use xlink:href="#m67cf727dd1" x="728.520823" y="269.04351" style="stroke: #000000; stroke-width: 0.8"/>
      </g>
     </g>
     <g id="text_24">
      <!-- V$_S$/h -->
      <g transform="translate(718.890823 282.882104) scale(0.09 -0.09)">
       <use xlink:href="#DejaVuSans-56" transform="translate(0 0.015625)"/>
       <use xlink:href="#DejaVuSans-Oblique-53" transform="translate(69.365234 -16.390625) scale(0.7)"/>
       <use xlink:href="#DejaVuSans-2f" transform="translate(116.533203 0.015625)"/>
       <use xlink:href="#DejaVuSans-68" transform="translate(150.224609 0.015625)"/>
      </g>
     </g>
    </g>
    <g id="xtick_13">
     <g id="line2d_25">
      <g>
       <use xlink:href="#m67cf727dd1" x="785.608951" y="269.04351" style="stroke: #000000; stroke-width: 0.8"/>
      </g>
     </g>
     <g id="text_25">
      <!-- V$_S$/e -->
      <g transform="translate(776.068951 282.882104) scale(0.09 -0.09)">
       <use xlink:href="#DejaVuSans-56" transform="translate(0 0.09375)"/>
       <use xlink:href="#DejaVuSans-Oblique-53" transform="translate(69.365234 -16.3125) scale(0.7)"/>
       <use xlink:href="#DejaVuSans-2f" transform="translate(116.533203 0.09375)"/>
       <use xlink:href="#DejaVuSans-65" transform="translate(150.224609 0.09375)"/>
      </g>
     </g>
    </g>
   </g>
   <g id="matplotlib.axis_4">
    <g id="ytick_7">
     <g id="line2d_26">
      <g>
       <use xlink:href="#m5b2caebf65" x="460.7775" y="269.04351" style="stroke: #000000; stroke-width: 0.8"/>
      </g>
     </g>
     <g id="text_26">
      <!-- 0 -->
      <g transform="translate(447.415 272.842729) scale(0.1 -0.1)">
       <use xlink:href="#DejaVuSans-30"/>
      </g>
     </g>
    </g>
    <g id="ytick_8">
     <g id="line2d_27">
      <g>
       <use xlink:href="#m5b2caebf65" x="460.7775" y="240.215913" style="stroke: #000000; stroke-width: 0.8"/>
      </g>
     </g>
     <g id="text_27">
      <!-- 10 -->
      <g transform="translate(441.0525 244.015131) scale(0.1 -0.1)">
       <use xlink:href="#DejaVuSans-31"/>
       <use xlink:href="#DejaVuSans-30" transform="translate(63.623047 0)"/>
      </g>
     </g>
    </g>
    <g id="ytick_9">
     <g id="line2d_28">
      <g>
       <use xlink:href="#m5b2caebf65" x="460.7775" y="211.388315" style="stroke: #000000; stroke-width: 0.8"/>
      </g>
     </g>
     <g id="text_28">
      <!-- 20 -->
      <g transform="translate(441.0525 215.187534) scale(0.1 -0.1)">
       <use xlink:href="#DejaVuSans-32"/>
       <use xlink:href="#DejaVuSans-30" transform="translate(63.623047 0)"/>
      </g>
     </g>
    </g>
    <g id="ytick_10">
     <g id="line2d_29">
      <g>
       <use xlink:href="#m5b2caebf65" x="460.7775" y="182.560718" style="stroke: #000000; stroke-width: 0.8"/>
      </g>
     </g>
     <g id="text_29">
      <!-- 30 -->
      <g transform="translate(441.0525 186.359937) scale(0.1 -0.1)">
       <use xlink:href="#DejaVuSans-33"/>
       <use xlink:href="#DejaVuSans-30" transform="translate(63.623047 0)"/>
      </g>
     </g>
    </g>
    <g id="ytick_11">
     <g id="line2d_30">
      <g>
       <use xlink:href="#m5b2caebf65" x="460.7775" y="153.733121" style="stroke: #000000; stroke-width: 0.8"/>
      </g>
     </g>
     <g id="text_30">
      <!-- 40 -->
      <g transform="translate(441.0525 157.532339) scale(0.1 -0.1)">
       <use xlink:href="#DejaVuSans-34"/>
       <use xlink:href="#DejaVuSans-30" transform="translate(63.623047 0)"/>
      </g>
     </g>
    </g>
    <g id="ytick_12">
     <g id="line2d_31">
      <g>
       <use xlink:href="#m5b2caebf65" x="460.7775" y="124.905523" style="stroke: #000000; stroke-width: 0.8"/>
      </g>
     </g>
     <g id="text_31">
      <!-- 50 -->
      <g transform="translate(441.0525 128.704742) scale(0.1 -0.1)">
       <use xlink:href="#DejaVuSans-35"/>
       <use xlink:href="#DejaVuSans-30" transform="translate(63.623047 0)"/>
      </g>
     </g>
    </g>
    <g id="ytick_13">
     <g id="line2d_32">
      <g>
       <use xlink:href="#m5b2caebf65" x="460.7775" y="96.077926" style="stroke: #000000; stroke-width: 0.8"/>
      </g>
     </g>
     <g id="text_32">
      <!-- 60 -->
      <g transform="translate(441.0525 99.877145) scale(0.1 -0.1)">
       <use xlink:href="#DejaVuSans-36"/>
       <use xlink:href="#DejaVuSans-30" transform="translate(63.623047 0)"/>
      </g>
     </g>
    </g>
    <g id="ytick_14">
     <g id="line2d_33">
      <g>
       <use xlink:href="#m5b2caebf65" x="460.7775" y="67.250329" style="stroke: #000000; stroke-width: 0.8"/>
      </g>
     </g>
     <g id="text_33">
      <!-- 70 -->
      <g transform="translate(441.0525 71.049547) scale(0.1 -0.1)">
       <defs>
        <path id="DejaVuSans-37" d="M 525 4666 
L 3525 4666 
L 3525 4397 
L 1831 0 
L 1172 0 
L 2766 4134 
L 525 4134 
L 525 4666 
z
" transform="scale(0.015625)"/>
       </defs>
       <use xlink:href="#DejaVuSans-37"/>
       <use xlink:href="#DejaVuSans-30" transform="translate(63.623047 0)"/>
      </g>
     </g>
    </g>
    <g id="ytick_15">
     <g id="line2d_34">
      <g>
       <use xlink:href="#m5b2caebf65" x="460.7775" y="38.422731" style="stroke: #000000; stroke-width: 0.8"/>
      </g>
     </g>
     <g id="text_34">
      <!-- 80 -->
      <g transform="translate(441.0525 42.22195) scale(0.1 -0.1)">
       <use xlink:href="#DejaVuSans-38"/>
       <use xlink:href="#DejaVuSans-30" transform="translate(63.623047 0)"/>
      </g>
     </g>
    </g>
    <g id="text_35">
     <!-- gap-side spectral weight in $\int(-f')A$ (%) -->
     <g transform="translate(433.9525 240.821875) rotate(-90) scale(0.1 -0.1)">
      <defs>
       <path id="DejaVuSansDisplay-222b" d="M 2134 5525 
Q 2172 6263 2528 6556 
Q 2884 6850 3218 6850 
Q 3553 6850 3833 6575 
Q 4113 6300 4200 5678 
L 3544 5613 
Q 3469 6188 3219 6188 
Q 2906 6188 2869 5413 
L 2581 -597 
Q 2547 -1334 2187 -1628 
Q 1828 -1922 1497 -1922 
Q 1163 -1922 883 -1647 
Q 603 -1372 516 -750 
L 1172 -684 
Q 1247 -1259 1497 -1259 
Q 1809 -1259 1847 -488 
L 2134 5525 
z
" transform="scale(0.015625)"/>
       <path id="DejaVuSans-2212" d="M 678 2272 
L 4684 2272 
L 4684 1741 
L 678 1741 
L 678 2272 
z
" transform="scale(0.015625)"/>
       <path id="DejaVuSans-Oblique-66" d="M 3059 4863 
L 2969 4384 
L 2419 4384 
Q 2106 4384 1964 4261 
Q 1822 4138 1753 3809 
L 1691 3500 
L 2638 3500 
L 2553 3053 
L 1606 3053 
L 1013 0 
L 434 0 
L 1031 3053 
L 481 3053 
L 563 3500 
L 1113 3500 
L 1159 3744 
Q 1278 4363 1576 4613 
Q 1875 4863 2516 4863 
L 3059 4863 
z
" transform="scale(0.015625)"/>
       <path id="Cmsy10-30" d="M 225 347 
Q 184 359 184 409 
L 966 3316 
Q 1003 3434 1093 3506 
Q 1184 3578 1300 3578 
Q 1450 3578 1564 3479 
Q 1678 3381 1678 3231 
Q 1678 3166 1644 3084 
L 488 319 
Q 466 275 428 275 
Q 394 275 320 306 
Q 247 338 225 347 
z
" transform="scale(0.015625)"/>
       <path id="DejaVuSans-Oblique-41" d="M 2356 4666 
L 3072 4666 
L 3938 0 
L 3278 0 
L 3084 1197 
L 984 1197 
L 325 0 
L -341 0 
L 2356 4666 
z
M 2584 4044 
L 1275 1722 
L 2988 1722 
L 2584 4044 
z
" transform="scale(0.015625)"/>
       <path id="DejaVuSans-25" d="M 4653 2053 
Q 4381 2053 4226 1822 
Q 4072 1591 4072 1178 
Q 4072 772 4226 539 
Q 4381 306 4653 306 
Q 4919 306 5073 539 
Q 5228 772 5228 1178 
Q 5228 1588 5073 1820 
Q 4919 2053 4653 2053 
z
M 4653 2450 
Q 5147 2450 5437 2106 
Q 5728 1763 5728 1178 
Q 5728 594 5436 251 
Q 5144 -91 4653 -91 
Q 4153 -91 3862 251 
Q 3572 594 3572 1178 
Q 3572 1766 3864 2108 
Q 4156 2450 4653 2450 
z
M 1428 4353 
Q 1159 4353 1004 4120 
Q 850 3888 850 3481 
Q 850 3069 1003 2837 
Q 1156 2606 1428 2606 
Q 1700 2606 1854 2837 
Q 2009 3069 2009 3481 
Q 2009 3884 1853 4118 
Q 1697 4353 1428 4353 
z
M 4250 4750 
L 4750 4750 
L 1831 -91 
L 1331 -91 
L 4250 4750 
z
M 1428 4750 
Q 1922 4750 2215 4408 
Q 2509 4066 2509 3481 
Q 2509 2891 2217 2550 
Q 1925 2209 1428 2209 
Q 931 2209 642 2551 
Q 353 2894 353 3481 
Q 353 4063 643 4406 
Q 934 4750 1428 4750 
z
" transform="scale(0.015625)"/>
      </defs>
      <use xlink:href="#DejaVuSans-67" transform="translate(0 0.96875)"/>
      <use xlink:href="#DejaVuSans-61" transform="translate(63.476562 0.96875)"/>
      <use xlink:href="#DejaVuSans-70" transform="translate(124.755859 0.96875)"/>
      <use xlink:href="#DejaVuSans-2d" transform="translate(188.232422 0.96875)"/>
      <use xlink:href="#DejaVuSans-73" transform="translate(224.316406 0.96875)"/>
      <use xlink:href="#DejaVuSans-69" transform="translate(276.416016 0.96875)"/>
      <use xlink:href="#DejaVuSans-64" transform="translate(304.199219 0.96875)"/>
      <use xlink:href="#DejaVuSans-65" transform="translate(367.675781 0.96875)"/>
      <use xlink:href="#DejaVuSans-20" transform="translate(429.199219 0.96875)"/>
      <use xlink:href="#DejaVuSans-73" transform="translate(460.986328 0.96875)"/>
      <use xlink:href="#DejaVuSans-70" transform="translate(513.085938 0.96875)"/>
      <use xlink:href="#DejaVuSans-65" transform="translate(576.5625 0.96875)"/>
      <use xlink:href="#DejaVuSans-63" transform="translate(638.085938 0.96875)"/>
      <use xlink:href="#DejaVuSans-74" transform="translate(693.066406 0.96875)"/>
      <use xlink:href="#DejaVuSans-72" transform="translate(732.275391 0.96875)"/>
      <use xlink:href="#DejaVuSans-61" transform="translate(773.388672 0.96875)"/>
      <use xlink:href="#DejaVuSans-6c" transform="translate(834.667969 0.96875)"/>
      <use xlink:href="#DejaVuSans-20" transform="translate(862.451172 0.96875)"/>
      <use xlink:href="#DejaVuSans-77" transform="translate(894.238281 0.96875)"/>
      <use xlink:href="#DejaVuSans-65" transform="translate(976.025391 0.96875)"/>
      <use xlink:href="#DejaVuSans-69" transform="translate(1037.548828 0.96875)"/>
      <use xlink:href="#DejaVuSans-67" transform="translate(1065.332031 0.96875)"/>
      <use xlink:href="#DejaVuSans-68" transform="translate(1128.808594 0.96875)"/>
      <use xlink:href="#DejaVuSans-74" transform="translate(1192.1875 0.96875)"/>
      <use xlink:href="#DejaVuSans-20" transform="translate(1231.396484 0.96875)"/>
      <use xlink:href="#DejaVuSans-69" transform="translate(1263.183594 0.96875)"/>
      <use xlink:href="#DejaVuSans-6e" transform="translate(1290.966797 0.96875)"/>
      <use xlink:href="#DejaVuSans-20" transform="translate(1354.345703 0.96875)"/>
      <use xlink:href="#DejaVuSansDisplay-222b" transform="translate(1386.132812 0.96875)"/>
      <use xlink:href="#DejaVuSans-28" transform="translate(1459.765625 0.96875)"/>
      <use xlink:href="#DejaVuSans-2212" transform="translate(1498.779297 0.96875)"/>
      <use xlink:href="#DejaVuSans-Oblique-66" transform="translate(1582.568359 0.96875)"/>
      <use xlink:href="#Cmsy10-30" transform="translate(1625.221146 39.25) scale(0.7)"/>
      <use xlink:href="#DejaVuSans-29" transform="translate(1647.198685 0.96875)"/>
      <use xlink:href="#DejaVuSans-Oblique-41" transform="translate(1686.212357 0.96875)"/>
      <use xlink:href="#DejaVuSans-20" transform="translate(1754.62056 0.96875)"/>
      <use xlink:href="#DejaVuSans-28" transform="translate(1786.407669 0.96875)"/>
      <use xlink:href="#DejaVuSans-25" transform="translate(1825.421341 0.96875)"/>
      <use xlink:href="#DejaVuSans-29" transform="translate(1920.440872 0.96875)"/>
     </g>
    </g>
   </g>
   <g id="line2d_35">
    <path d="M 460.7775 240.215913 
L 824.99976 240.215913 
" clip-path="url(#p78f6f5790d)" style="fill: none; stroke-dasharray: 2.96,1.28; stroke-dashoffset: 0; stroke: #666666; stroke-width: 0.8"/>
   </g>
   <g id="patch_15">
    <path d="M 460.7775 269.04351 
L 460.7775 16.60024 
" style="fill: none; stroke: #000000; stroke-width: 0.8; stroke-linejoin: miter; stroke-linecap: square"/>
   </g>
   <g id="patch_16">
    <path d="M 824.99976 269.04351 
L 824.99976 16.60024 
" style="fill: none; stroke: #000000; stroke-width: 0.8; stroke-linejoin: miter; stroke-linecap: square"/>
   </g>
   <g id="patch_17">
    <path d="M 460.7775 269.04351 
L 824.99976 269.04351 
" style="fill: none; stroke: #000000; stroke-width: 0.8; stroke-linejoin: miter; stroke-linecap: square"/>
   </g>
   <g id="patch_18">
    <path d="M 460.7775 16.60024 
L 824.99976 16.60024 
" style="fill: none; stroke: #000000; stroke-width: 0.8; stroke-linejoin: miter; stroke-linecap: square"/>
   </g>
   <g id="text_36">
    <!-- trust -->
    <g style="fill: #595959" transform="translate(793.674781 226.052034) scale(0.075 -0.075)">
     <use xlink:href="#DejaVuSans-74"/>
     <use xlink:href="#DejaVuSans-72" transform="translate(39.208984 0)"/>
     <use xlink:href="#DejaVuSans-75" transform="translate(80.322266 0)"/>
     <use xlink:href="#DejaVuSans-73" transform="translate(143.701172 0)"/>
     <use xlink:href="#DejaVuSans-74" transform="translate(195.800781 0)"/>
    </g>
    <!-- boundary -->
    <g style="fill: #595959" transform="translate(775.562281 234.450393) scale(0.075 -0.075)">
     <defs>
      <path id="DejaVuSans-79" d="M 2059 -325 
Q 1816 -950 1584 -1140 
Q 1353 -1331 966 -1331 
L 506 -1331 
L 506 -850 
L 844 -850 
Q 1081 -850 1212 -737 
Q 1344 -625 1503 -206 
L 1606 56 
L 191 3500 
L 800 3500 
L 1894 763 
L 2988 3500 
L 3597 3500 
L 2059 -325 
z
" transform="scale(0.015625)"/>
     </defs>
     <use xlink:href="#DejaVuSans-62"/>
     <use xlink:href="#DejaVuSans-6f" transform="translate(63.476562 0)"/>
     <use xlink:href="#DejaVuSans-75" transform="translate(124.658203 0)"/>
     <use xlink:href="#DejaVuSans-6e" transform="translate(188.037109 0)"/>
     <use xlink:href="#DejaVuSans-64" transform="translate(251.416016 0)"/>
     <use xlink:href="#DejaVuSans-61" transform="translate(314.892578 0)"/>
     <use xlink:href="#DejaVuSans-72" transform="translate(376.171875 0)"/>
     <use xlink:href="#DejaVuSans-79" transform="translate(417.285156 0)"/>
    </g>
   </g>
   <g id="text_37">
    <!-- bubble applicability: edge-resonance carriers fail it -->
    <g transform="translate(516.069099 10.60024) scale(0.1 -0.1)">
     <use xlink:href="#DejaVuSans-62"/>
     <use xlink:href="#DejaVuSans-75" transform="translate(63.476562 0)"/>
     <use xlink:href="#DejaVuSans-62" transform="translate(126.855469 0)"/>
     <use xlink:href="#DejaVuSans-62" transform="translate(190.332031 0)"/>
     <use xlink:href="#DejaVuSans-6c" transform="translate(253.808594 0)"/>
     <use xlink:href="#DejaVuSans-65" transform="translate(281.591797 0)"/>
     <use xlink:href="#DejaVuSans-20" transform="translate(343.115234 0)"/>
     <use xlink:href="#DejaVuSans-61" transform="translate(374.902344 0)"/>
     <use xlink:href="#DejaVuSans-70" transform="translate(436.181641 0)"/>
     <use xlink:href="#DejaVuSans-70" transform="translate(499.658203 0)"/>
     <use xlink:href="#DejaVuSans-6c" transform="translate(563.134766 0)"/>
     <use xlink:href="#DejaVuSans-69" transform="translate(590.917969 0)"/>
     <use xlink:href="#DejaVuSans-63" transform="translate(618.701172 0)"/>
     <use xlink:href="#DejaVuSans-61" transform="translate(673.681641 0)"/>
     <use xlink:href="#DejaVuSans-62" transform="translate(734.960938 0)"/>
     <use xlink:href="#DejaVuSans-69" transform="translate(798.4375 0)"/>
     <use xlink:href="#DejaVuSans-6c" transform="translate(826.220703 0)"/>
     <use xlink:href="#DejaVuSans-69" transform="translate(854.003906 0)"/>
     <use xlink:href="#DejaVuSans-74" transform="translate(881.787109 0)"/>
     <use xlink:href="#DejaVuSans-79" transform="translate(920.996094 0)"/>
     <use xlink:href="#DejaVuSans-3a" transform="translate(972.925781 0)"/>
     <use xlink:href="#DejaVuSans-20" transform="translate(1006.617188 0)"/>
     <use xlink:href="#DejaVuSans-65" transform="translate(1038.404297 0)"/>
     <use xlink:href="#DejaVuSans-64" transform="translate(1099.927734 0)"/>
     <use xlink:href="#DejaVuSans-67" transform="translate(1163.404297 0)"/>
     <use xlink:href="#DejaVuSans-65" transform="translate(1226.880859 0)"/>
     <use xlink:href="#DejaVuSans-2d" transform="translate(1288.404297 0)"/>
     <use xlink:href="#DejaVuSans-72" transform="translate(1324.488281 0)"/>
     <use xlink:href="#DejaVuSans-65" transform="translate(1363.351562 0)"/>
     <use xlink:href="#DejaVuSans-73" transform="translate(1424.875 0)"/>
     <use xlink:href="#DejaVuSans-6f" transform="translate(1476.974609 0)"/>
     <use xlink:href="#DejaVuSans-6e" transform="translate(1538.15625 0)"/>
     <use xlink:href="#DejaVuSans-61" transform="translate(1601.535156 0)"/>
     <use xlink:href="#DejaVuSans-6e" transform="translate(1662.814453 0)"/>
     <use xlink:href="#DejaVuSans-63" transform="translate(1726.193359 0)"/>
     <use xlink:href="#DejaVuSans-65" transform="translate(1781.173828 0)"/>
     <use xlink:href="#DejaVuSans-20" transform="translate(1842.697266 0)"/>
     <use xlink:href="#DejaVuSans-63" transform="translate(1874.484375 0)"/>
     <use xlink:href="#DejaVuSans-61" transform="translate(1929.464844 0)"/>
     <use xlink:href="#DejaVuSans-72" transform="translate(1990.744141 0)"/>
     <use xlink:href="#DejaVuSans-72" transform="translate(2030.107422 0)"/>
     <use xlink:href="#DejaVuSans-69" transform="translate(2071.220703 0)"/>
     <use xlink:href="#DejaVuSans-65" transform="translate(2099.003906 0)"/>
     <use xlink:href="#DejaVuSans-72" transform="translate(2160.527344 0)"/>
     <use xlink:href="#DejaVuSans-73" transform="translate(2201.640625 0)"/>
     <use xlink:href="#DejaVuSans-20" transform="translate(2253.740234 0)"/>
     <use xlink:href="#DejaVuSans-66" transform="translate(2285.527344 0)"/>
     <use xlink:href="#DejaVuSans-61" transform="translate(2320.732422 0)"/>
     <use xlink:href="#DejaVuSans-69" transform="translate(2382.011719 0)"/>
     <use xlink:href="#DejaVuSans-6c" transform="translate(2409.794922 0)"/>
     <use xlink:href="#DejaVuSans-20" transform="translate(2437.578125 0)"/>
     <use xlink:href="#DejaVuSans-69" transform="translate(2469.365234 0)"/>
     <use xlink:href="#DejaVuSans-74" transform="translate(2497.148438 0)"/>
    </g>
   </g>
  </g>
 </g>
 <defs>
  <clipPath id="pf5fbe020d3">
   <rect x="50.65024" y="16.60024" width="364.22226" height="252.44327"/>
  </clipPath>
  <clipPath id="p78f6f5790d">
   <rect x="460.7775" y="16.60024" width="364.22226" height="252.44327"/>
  </clipPath>
 </defs>
</svg>
