<?xml version="1.0" encoding="utf-8" standalone="no"?>
<!DOCTYPE svg PUBLIC "-//W3C//DTD SVG 1.1//EN"
  "http://www.w3.org/Graphics/SVG/1.1/DTD/svg11.dtd">
<svg xmlns:xlink="http://www.w3.org/1999/xlink" width="828pt" height="331.2pt" viewBox="0 0 828 331.2" xmlns="http://www.w3.org/2000/svg" version="1.1">
 <metadata>
  <rdf:RDF xmlns:dc="http://purl.org/dc/elements/1.1/" xmlns:cc="http://creativecommons.org/ns#" xmlns:rdf="http://www.w3.org/1999/02/22-rdf-syntax-ns#">
   <cc:Work>
    <dc:type rdf:resource="http://purl.org/dc/dcmitype/StillImage"/>
    <dc:date>2026-07-08T14:03:00.387991</dc:date>
    <dc:format>image/svg+xml</dc:format>
    <dc:creator>
     <cc:Agent>
      <dc:title>Matplotlib v3.10.8, https://matplotlib.org/</dc:title>
     </cc:Agent>
    </dc:creator>
   </cc:Work>
  </rdf:RDF>
 </metadata>
 <defs>
  <style type="text/css">*{stroke-linejoin: round; stroke-linecap: butt}</style>
 </defs>
 <g id="figure_1">
  <g id="patch_1">
   <path d="M 0 331.2 
L 828 331.2 
L 828 0 
L 0 0 
z
" style="fill: #ffffff"/>
  </g>
  <g id="axes_1">
   <g id="patch_2">
    <path d="M 47.108 303.32 
L 413.399 303.32 
L 413.399 76.488 
L 47.108 76.488 
z
" style="fill: #ffffff"/>
   </g>
   <g id="matplotlib.axis_1">
    <g id="xtick_1">
     <g id="line2d_1">
      <defs>
       <path id="md829d623ae" d="M 0 0 
L 0 3.5 
" style="stroke: #000000; stroke-width: 0.8"/>
      </defs>
      <g>
       <use xlink:href="#md829d623ae" x="47.108" y="303.32" style="stroke: #000000; stroke-width: 0.8"/>
      </g>
     </g>
     <g id="text_1">
      <!-- $\Gamma$ -->
      <g transform="translate(44.308 317.918437) scale(0.1 -0.1)">
       <defs>
        <path id="DejaVuSans-393" d="M 628 0 
L 628 4666 
L 3531 4666 
L 3531 4134 
L 1259 4134 
L 1259 0 
L 628 0 
z
" transform="scale(0.015625)"/>
       </defs>
       <use xlink:href="#DejaVuSans-393" transform="translate(0 0.09375)"/>
      </g>
     </g>
    </g>
    <g id="xtick_2">
     <g id="line2d_2">
      <g>
       <use xlink:href="#md829d623ae" x="201.920793" y="303.32" style="stroke: #000000; stroke-width: 0.8"/>
      </g>
     </g>
     <g id="text_2">
      <!-- K -->
      <g transform="translate(198.641886 317.918437) scale(0.1 -0.1)">
       <defs>
        <path id="DejaVuSans-4b" d="M 628 4666 
L 1259 4666 
L 1259 2694 
L 3353 4666 
L 4166 4666 
L 1850 2491 
L 4331 0 
L 3500 0 
L 1259 2247 
L 1259 0 
L 628 0 
L 628 4666 
z
" transform="scale(0.015625)"/>
       </defs>
       <use xlink:href="#DejaVuSans-4b"/>
      </g>
     </g>
    </g>
    <g id="xtick_3">
     <g id="line2d_3">
      <g>
       <use xlink:href="#md829d623ae" x="279.327189" y="303.32" style="stroke: #000000; stroke-width: 0.8"/>
      </g>
     </g>
     <g id="text_3">
      <!-- M -->
      <g transform="translate(275.013126 317.918437) scale(0.1 -0.1)">
       <defs>
        <path id="DejaVuSans-4d" d="M 628 4666 
L 1569 4666 
L 2759 1491 
L 3956 4666 
L 4897 4666 
L 4897 0 
L 4281 0 
L 4281 4097 
L 3078 897 
L 2444 897 
L 1241 4097 
L 1241 0 
L 628 0 
L 628 4666 
z
" transform="scale(0.015625)"/>
       </defs>
       <use xlink:href="#DejaVuSans-4d"/>
      </g>
     </g>
    </g>
    <g id="xtick_4">
     <g id="line2d_4">
      <g>
       <use xlink:href="#md829d623ae" x="413.399" y="303.32" style="stroke: #000000; stroke-width: 0.8"/>
      </g>
     </g>
     <g id="text_4">
      <!-- $\Gamma$ -->
      <g transform="translate(410.599 317.918437) scale(0.1 -0.1)">
       <use xlink:href="#DejaVuSans-393" transform="translate(0 0.09375)"/>
      </g>
     </g>
    </g>
   </g>
   <g id="matplotlib.axis_2">
    <g id="ytick_1">
     <g id="line2d_5">
      <defs>
       <path id="m1bbcde805d" d="M 0 0 
L -3.5 0 
" style="stroke: #000000; stroke-width: 0.8"/>
      </defs>
      <g>
       <use xlink:href="#m1bbcde805d" x="47.108" y="303.32" style="stroke: #000000; stroke-width: 0.8"/>
      </g>
     </g>
     <g id="text_5">
      <!-- 0 -->
      <g transform="translate(33.7455 307.119219) scale(0.1 -0.1)">
       <defs>
        <path id="DejaVuSans-30" d="M 2034 4250 
Q 1547 4250 1301 3770 
Q 1056 3291 1056 2328 
Q 1056 1369 1301 889 
Q 1547 409 2034 409 
Q 2525 409 2770 889 
Q 3016 1369 3016 2328 
Q 3016 3291 2770 3770 
Q 2525 4250 2034 4250 
z
M 2034 4750 
Q 2819 4750 3233 4129 
Q 3647 3509 3647 2328 
Q 3647 1150 3233 529 
Q 2819 -91 2034 -91 
Q 1250 -91 836 529 
Q 422 1150 422 2328 
Q 422 3509 836 4129 
Q 1250 4750 2034 4750 
z
" transform="scale(0.015625)"/>
       </defs>
       <use xlink:href="#DejaVuSans-30"/>
      </g>
     </g>
    </g>
    <g id="ytick_2">
     <g id="line2d_6">
      <g>
       <use xlink:href="#m1bbcde805d" x="47.108" y="269.254387" style="stroke: #000000; stroke-width: 0.8"/>
      </g>
     </g>
     <g id="text_6">
      <!-- 2 -->
      <g transform="translate(33.7455 273.053605) scale(0.1 -0.1)">
       <defs>
        <path id="DejaVuSans-32" d="M 1228 531 
L 3431 531 
L 3431 0 
L 469 0 
L 469 531 
Q 828 903 1448 1529 
Q 2069 2156 2228 2338 
Q 2531 2678 2651 2914 
Q 2772 3150 2772 3378 
Q 2772 3750 2511 3984 
Q 2250 4219 1831 4219 
Q 1534 4219 1204 4116 
Q 875 4013 500 3803 
L 500 4441 
Q 881 4594 1212 4672 
Q 1544 4750 1819 4750 
Q 2544 4750 2975 4387 
Q 3406 4025 3406 3419 
Q 3406 3131 3298 2873 
Q 3191 2616 2906 2266 
Q 2828 2175 2409 1742 
Q 1991 1309 1228 531 
z
" transform="scale(0.015625)"/>
       </defs>
       <use xlink:href="#DejaVuSans-32"/>
      </g>
     </g>
    </g>
    <g id="ytick_3">
     <g id="line2d_7">
      <g>
       <use xlink:href="#m1bbcde805d" x="47.108" y="235.188773" style="stroke: #000000; stroke-width: 0.8"/>
      </g>
     </g>
     <g id="text_7">
      <!-- 4 -->
      <g transform="translate(33.7455 238.987992) scale(0.1 -0.1)">
       <defs>
        <path id="DejaVuSans-34" d="M 2419 4116 
L 825 1625 
L 2419 1625 
L 2419 4116 
z
M 2253 4666 
L 3047 4666 
L 3047 1625 
L 3713 1625 
L 3713 1100 
L 3047 1100 
L 3047 0 
L 2419 0 
L 2419 1100 
L 313 1100 
L 313 1709 
L 2253 4666 
z
" transform="scale(0.015625)"/>
       </defs>
       <use xlink:href="#DejaVuSans-34"/>
      </g>
     </g>
    </g>
    <g id="ytick_4">
     <g id="line2d_8">
      <g>
       <use xlink:href="#m1bbcde805d" x="47.108" y="201.12316" style="stroke: #000000; stroke-width: 0.8"/>
      </g>
     </g>
     <g id="text_8">
      <!-- 6 -->
      <g transform="translate(33.7455 204.922379) scale(0.1 -0.1)">
       <defs>
        <path id="DejaVuSans-36" d="M 2113 2584 
Q 1688 2584 1439 2293 
Q 1191 2003 1191 1497 
Q 1191 994 1439 701 
Q 1688 409 2113 409 
Q 2538 409 2786 701 
Q 3034 994 3034 1497 
Q 3034 2003 2786 2293 
Q 2538 2584 2113 2584 
z
M 3366 4563 
L 3366 3988 
Q 3128 4100 2886 4159 
Q 2644 4219 2406 4219 
Q 1781 4219 1451 3797 
Q 1122 3375 1075 2522 
Q 1259 2794 1537 2939 
Q 1816 3084 2150 3084 
Q 2853 3084 3261 2657 
Q 3669 2231 3669 1497 
Q 3669 778 3244 343 
Q 2819 -91 2113 -91 
Q 1303 -91 875 529 
Q 447 1150 447 2328 
Q 447 3434 972 4092 
Q 1497 4750 2381 4750 
Q 2619 4750 2861 4703 
Q 3103 4656 3366 4563 
z
" transform="scale(0.015625)"/>
       </defs>
       <use xlink:href="#DejaVuSans-36"/>
      </g>
     </g>
    </g>
    <g id="ytick_5">
     <g id="line2d_9">
      <g>
       <use xlink:href="#m1bbcde805d" x="47.108" y="167.057547" style="stroke: #000000; stroke-width: 0.8"/>
      </g>
     </g>
     <g id="text_9">
      <!-- 8 -->
      <g transform="translate(33.7455 170.856766) scale(0.1 -0.1)">
       <defs>
        <path id="DejaVuSans-38" d="M 2034 2216 
Q 1584 2216 1326 1975 
Q 1069 1734 1069 1313 
Q 1069 891 1326 650 
Q 1584 409 2034 409 
Q 2484 409 2743 651 
Q 3003 894 3003 1313 
Q 3003 1734 2745 1975 
Q 2488 2216 2034 2216 
z
M 1403 2484 
Q 997 2584 770 2862 
Q 544 3141 544 3541 
Q 544 4100 942 4425 
Q 1341 4750 2034 4750 
Q 2731 4750 3128 4425 
Q 3525 4100 3525 3541 
Q 3525 3141 3298 2862 
Q 3072 2584 2669 2484 
Q 3125 2378 3379 2068 
Q 3634 1759 3634 1313 
Q 3634 634 3220 271 
Q 2806 -91 2034 -91 
Q 1263 -91 848 271 
Q 434 634 434 1313 
Q 434 1759 690 2068 
Q 947 2378 1403 2484 
z
M 1172 3481 
Q 1172 3119 1398 2916 
Q 1625 2713 2034 2713 
Q 2441 2713 2670 2916 
Q 2900 3119 2900 3481 
Q 2900 3844 2670 4047 
Q 2441 4250 2034 4250 
Q 1625 4250 1398 4047 
Q 1172 3844 1172 3481 
z
" transform="scale(0.015625)"/>
       </defs>
       <use xlink:href="#DejaVuSans-38"/>
      </g>
     </g>
    </g>
    <g id="ytick_6">
     <g id="line2d_10">
      <g>
       <use xlink:href="#m1bbcde805d" x="47.108" y="132.991933" style="stroke: #000000; stroke-width: 0.8"/>
      </g>
     </g>
     <g id="text_10">
      <!-- 10 -->
      <g transform="translate(27.383 136.791152) scale(0.1 -0.1)">
       <defs>
        <path id="DejaVuSans-31" d="M 794 531 
L 1825 531 
L 1825 4091 
L 703 3866 
L 703 4441 
L 1819 4666 
L 2450 4666 
L 2450 531 
L 3481 531 
L 3481 0 
L 794 0 
L 794 531 
z
" transform="scale(0.015625)"/>
       </defs>
       <use xlink:href="#DejaVuSans-31"/>
       <use xlink:href="#DejaVuSans-30" transform="translate(63.623047 0)"/>
      </g>
     </g>
    </g>
    <g id="ytick_7">
     <g id="line2d_11">
      <g>
       <use xlink:href="#m1bbcde805d" x="47.108" y="98.92632" style="stroke: #000000; stroke-width: 0.8"/>
      </g>
     </g>
     <g id="text_11">
      <!-- 12 -->
      <g transform="translate(27.383 102.725539) scale(0.1 -0.1)">
       <use xlink:href="#DejaVuSans-31"/>
       <use xlink:href="#DejaVuSans-32" transform="translate(63.623047 0)"/>
      </g>
     </g>
    </g>
    <g id="text_12">
     <!-- $-\,\mathrm{Im}\,\Sigma_n(k,\varepsilon_{nk})$  (meV) -->
     <g transform="translate(21.303313 242.354) rotate(-90) scale(0.1 -0.1)">
      <defs>
       <path id="DejaVuSans-2212" d="M 678 2272 
L 4684 2272 
L 4684 1741 
L 678 1741 
L 678 2272 
z
" transform="scale(0.015625)"/>
       <path id="DejaVuSans-49" d="M 628 4666 
L 1259 4666 
L 1259 0 
L 628 0 
L 628 4666 
z
" transform="scale(0.015625)"/>
       <path id="DejaVuSans-6d" d="M 3328 2828 
Q 3544 3216 3844 3400 
Q 4144 3584 4550 3584 
Q 5097 3584 5394 3201 
Q 5691 2819 5691 2113 
L 5691 0 
L 5113 0 
L 5113 2094 
Q 5113 2597 4934 2840 
Q 4756 3084 4391 3084 
Q 3944 3084 3684 2787 
Q 3425 2491 3425 1978 
L 3425 0 
L 2847 0 
L 2847 2094 
Q 2847 2600 2669 2842 
Q 2491 3084 2119 3084 
Q 1678 3084 1418 2786 
Q 1159 2488 1159 1978 
L 1159 0 
L 581 0 
L 581 3500 
L 1159 3500 
L 1159 2956 
Q 1356 3278 1631 3431 
Q 1906 3584 2284 3584 
Q 2666 3584 2933 3390 
Q 3200 3197 3328 2828 
z
" transform="scale(0.015625)"/>
       <path id="DejaVuSans-3a3" d="M 1353 531 
L 3634 531 
L 3634 0 
L 628 0 
L 628 531 
L 2125 2481 
L 628 4134 
L 628 4666 
L 3578 4666 
L 3578 4134 
L 1353 4134 
L 2850 2494 
L 1353 531 
z
" transform="scale(0.015625)"/>
       <path id="DejaVuSans-Oblique-6e" d="M 3566 2113 
L 3156 0 
L 2578 0 
L 2988 2091 
Q 3016 2238 3031 2350 
Q 3047 2463 3047 2528 
Q 3047 2791 2881 2937 
Q 2716 3084 2419 3084 
Q 1956 3084 1622 2776 
Q 1288 2469 1184 1941 
L 800 0 
L 225 0 
L 903 3500 
L 1478 3500 
L 1363 2950 
Q 1603 3253 1940 3418 
Q 2278 3584 2650 3584 
Q 3113 3584 3367 3334 
Q 3622 3084 3622 2631 
Q 3622 2519 3608 2391 
Q 3594 2263 3566 2113 
z
" transform="scale(0.015625)"/>
       <path id="DejaVuSans-28" d="M 1984 4856 
Q 1566 4138 1362 3434 
Q 1159 2731 1159 2009 
Q 1159 1288 1364 580 
Q 1569 -128 1984 -844 
L 1484 -844 
Q 1016 -109 783 600 
Q 550 1309 550 2009 
Q 550 2706 781 3412 
Q 1013 4119 1484 4856 
L 1984 4856 
z
" transform="scale(0.015625)"/>
       <path id="DejaVuSans-Oblique-6b" d="M 1172 4863 
L 1747 4863 
L 1197 2028 
L 3169 3500 
L 3916 3500 
L 1716 1825 
L 3322 0 
L 2625 0 
L 1131 1709 
L 800 0 
L 225 0 
L 1172 4863 
z
" transform="scale(0.015625)"/>
       <path id="DejaVuSans-2c" d="M 750 794 
L 1409 794 
L 1409 256 
L 897 -744 
L 494 -744 
L 750 256 
L 750 794 
z
" transform="scale(0.015625)"/>
       <path id="DejaVuSans-Oblique-3b5" d="M 1263 1888 
Q 925 1963 778 2166 
Q 669 2309 669 2503 
Q 669 3034 1175 3344 
Q 1575 3588 2188 3588 
Q 2425 3588 2684 3550 
Q 2944 3513 3234 3438 
L 3134 2916 
Q 2847 3006 2606 3047 
Q 2359 3088 2138 3088 
Q 1766 3088 1522 2944 
Q 1228 2772 1228 2522 
Q 1228 2356 1381 2241 
Q 1563 2103 1925 2103 
L 2409 2103 
L 2319 1628 
L 1856 1628 
Q 1425 1628 1172 1469 
Q 828 1253 828 916 
Q 828 703 1013 563 
Q 1244 388 1716 388 
Q 2006 388 2284 444 
Q 2563 503 2806 619 
L 2700 84 
Q 2403 -3 2131 -47 
Q 1859 -91 1609 -91 
Q 866 -91 516 194 
Q 250 413 250 781 
Q 250 1278 600 1584 
Q 859 1813 1263 1888 
z
" transform="scale(0.015625)"/>
       <path id="DejaVuSans-29" d="M 513 4856 
L 1013 4856 
Q 1481 4119 1714 3412 
Q 1947 2706 1947 2009 
Q 1947 1309 1714 600 
Q 1481 -109 1013 -844 
L 513 -844 
Q 928 -128 1133 580 
Q 1338 1288 1338 2009 
Q 1338 2731 1133 3434 
Q 928 4138 513 4856 
z
" transform="scale(0.015625)"/>
       <path id="DejaVuSans-20" transform="scale(0.015625)"/>
       <path id="DejaVuSans-65" d="M 3597 1894 
L 3597 1613 
L 953 1613 
Q 991 1019 1311 708 
Q 1631 397 2203 397 
Q 2534 397 2845 478 
Q 3156 559 3463 722 
L 3463 178 
Q 3153 47 2828 -22 
Q 2503 -91 2169 -91 
Q 1331 -91 842 396 
Q 353 884 353 1716 
Q 353 2575 817 3079 
Q 1281 3584 2069 3584 
Q 2775 3584 3186 3129 
Q 3597 2675 3597 1894 
z
M 3022 2063 
Q 3016 2534 2758 2815 
Q 2500 3097 2075 3097 
Q 1594 3097 1305 2825 
Q 1016 2553 972 2059 
L 3022 2063 
z
" transform="scale(0.015625)"/>
       <path id="DejaVuSans-56" d="M 1831 0 
L 50 4666 
L 709 4666 
L 2188 738 
L 3669 4666 
L 4325 4666 
L 2547 0 
L 1831 0 
z
" transform="scale(0.015625)"/>
      </defs>
      <use xlink:href="#DejaVuSans-2212" transform="translate(0 0.015625)"/>
      <use xlink:href="#DejaVuSans-49" transform="translate(100.024739 0.015625)"/>
      <use xlink:href="#DejaVuSans-6d" transform="translate(125.891926 0.015625)"/>
      <use xlink:href="#DejaVuSans-3a3" transform="translate(239.539712 0.015625)"/>
      <use xlink:href="#DejaVuSans-Oblique-6e" transform="translate(303.680337 -16.390625) scale(0.7)"/>
      <use xlink:href="#DejaVuSans-28" transform="translate(350.779946 0.015625)"/>
      <use xlink:href="#DejaVuSans-Oblique-6b" transform="translate(389.793618 0.015625)"/>
      <use xlink:href="#DejaVuSans-2c" transform="translate(447.703774 0.015625)"/>
      <use xlink:href="#DejaVuSans-Oblique-3b5" transform="translate(498.973306 0.015625)"/>
      <use xlink:href="#DejaVuSans-Oblique-6e" transform="translate(553.02604 -16.390625) scale(0.7)"/>
      <use xlink:href="#DejaVuSans-Oblique-6b" transform="translate(597.391274 -16.390625) scale(0.7)"/>
      <use xlink:href="#DejaVuSans-29" transform="translate(640.662759 0.015625)"/>
      <use xlink:href="#DejaVuSans-20" transform="translate(679.676431 0.015625)"/>
      <use xlink:href="#DejaVuSans-20" transform="translate(711.46354 0.015625)"/>
      <use xlink:href="#DejaVuSans-28" transform="translate(743.250649 0.015625)"/>
      <use xlink:href="#DejaVuSans-6d" transform="translate(782.264321 0.015625)"/>
      <use xlink:href="#DejaVuSans-65" transform="translate(879.676431 0.015625)"/>
      <use xlink:href="#DejaVuSans-56" transform="translate(941.199868 0.015625)"/>
      <use xlink:href="#DejaVuSans-29" transform="translate(1009.608071 0.015625)"/>
     </g>
    </g>
   </g>
   <g id="line2d_12">
    <path d="M 47.108 275.803455 
L 48.398107 274.504565 
L 49.688213 270.552286 
L 50.97832 264.323885 
L 53.558533 250.570503 
L 54.84864 245.201045 
L 56.138746 241.355783 
L 57.428853 239.438721 
L 58.718959 239.264312 
L 60.009066 240.988253 
L 61.299173 244.441622 
L 62.589279 248.764109 
L 63.879386 255.014565 
L 66.459599 266.076476 
L 67.749706 270.761727 
L 69.039812 274.643776 
L 70.329919 277.492293 
L 71.620025 279.596354 
L 72.910132 280.657587 
L 74.200239 281.183336 
L 75.490345 281.859704 
L 76.780452 281.794602 
L 78.070559 281.525231 
L 79.360665 282.23674 
L 80.650772 282.470104 
L 81.940878 282.512099 
L 83.230985 283.877893 
L 84.521092 283.881919 
L 85.811198 284.765607 
L 87.101305 286.191953 
L 89.681518 286.011281 
L 90.971625 287.527684 
L 92.261731 286.745303 
L 93.551838 285.756168 
L 94.841944 286.340699 
L 97.422158 280.908083 
L 98.712264 280.376383 
L 100.002371 278.452938 
L 101.292477 275.910174 
L 102.582584 275.336097 
L 103.872691 272.806489 
L 105.162797 270.889356 
L 106.452904 270.484521 
L 107.74301 266.750498 
L 109.033117 266.095133 
L 110.323224 264.447001 
L 111.61333 259.296706 
L 112.903437 262.954575 
L 114.193543 264.417627 
L 115.48365 262.349893 
L 116.773757 261.145563 
L 118.063863 258.573537 
L 119.35397 254.461839 
L 121.934183 244.579651 
L 123.22429 233.914169 
L 124.514396 224.864864 
L 125.804503 212.994894 
L 127.094609 196.534407 
L 128.384716 174.894816 
L 129.674823 144.047862 
L 130.964929 123.783683 
L 132.255036 133.753082 
L 133.545143 160.079022 
L 134.835249 179.897097 
L 136.125356 193.572199 
L 137.415462 203.131217 
L 138.705569 211.263906 
L 142.575889 228.017435 
L 143.865995 230.801784 
L 145.156102 235.564563 
L 146.446209 238.109571 
L 147.736315 239.599412 
L 149.026422 244.3017 
L 150.316528 245.3096 
L 151.606635 245.40498 
L 152.896742 247.560707 
L 154.186848 247.709325 
L 155.476955 243.82239 
L 156.767061 248.988282 
L 158.057168 249.758747 
L 159.347275 249.80661 
L 160.637381 255.112569 
L 161.927488 255.19031 
L 163.217594 253.208041 
L 164.507701 257.971426 
L 165.797808 259.008728 
L 167.087914 257.154974 
L 168.378021 262.963971 
L 169.668127 264.555912 
L 170.958234 255.799871 
L 172.248341 267.751061 
L 173.538447 273.746876 
L 174.828554 269.56767 
L 176.11866 271.298964 
L 177.408767 274.598934 
L 178.698874 270.932902 
L 179.98898 270.76831 
L 181.279087 271.894131 
L 182.569193 266.915836 
L 183.8593 265.091424 
L 185.149407 265.116237 
L 186.439513 261.390717 
L 187.72962 259.383674 
L 189.019727 258.634836 
L 190.309833 255.939123 
L 191.59994 255.190016 
L 192.890046 256.341526 
L 194.180153 254.371187 
L 196.760366 257.722303 
L 198.050473 261.14706 
L 199.340579 267.45432 
L 200.630686 277.566616 
L 201.920793 282.813828 
L 203.210899 277.738268 
L 204.501006 268.110647 
L 205.791112 262.793732 
L 207.081219 259.62635 
L 208.371326 259.216698 
L 209.661432 258.610423 
L 210.951539 259.963575 
L 212.241645 260.649967 
L 216.111965 264.461635 
L 217.402072 264.265768 
L 218.692178 266.272557 
L 219.982285 267.843116 
L 222.562498 269.98323 
L 223.852605 268.408236 
L 225.142711 267.593805 
L 226.432818 270.229559 
L 227.722925 268.05981 
L 229.013031 268.415891 
L 230.303138 267.776851 
L 231.593244 267.584762 
L 232.883351 264.661106 
L 234.173458 265.544082 
L 235.463564 264.170131 
L 236.753671 261.604432 
L 239.333884 258.810183 
L 240.623991 258.028885 
L 244.494311 253.373166 
L 245.784417 251.497362 
L 247.074524 248.576167 
L 248.36463 245.265635 
L 249.654737 240.732803 
L 250.944844 238.356459 
L 252.23495 240.354313 
L 253.525057 240.361476 
L 254.815163 236.847072 
L 256.10527 235.797658 
L 257.395377 235.312673 
L 258.685483 230.258675 
L 259.97559 230.29482 
L 261.265696 228.56499 
L 262.555803 227.589839 
L 263.84591 227.846008 
L 265.136016 228.549666 
L 266.426123 228.754411 
L 267.716229 229.253959 
L 269.006336 231.860109 
L 270.296443 230.021561 
L 271.586549 231.071685 
L 272.876656 230.92233 
L 274.166762 229.876368 
L 275.456869 228.404761 
L 276.746976 223.089285 
L 279.327189 203.645456 
L 280.604063 201.930987 
L 281.880938 202.289199 
L 283.157812 202.355543 
L 284.434686 209.176684 
L 286.988435 217.630752 
L 288.26531 221.025852 
L 289.542184 225.854015 
L 292.095933 230.808122 
L 294.649682 234.261873 
L 297.20343 235.454281 
L 299.757179 231.494133 
L 301.034053 227.113266 
L 302.310928 205.378149 
L 303.587802 229.101757 
L 304.864677 244.30727 
L 306.141551 249.907966 
L 307.418425 253.548919 
L 308.6953 256.805021 
L 309.972174 257.447636 
L 311.249049 257.211383 
L 312.525923 257.86931 
L 313.802797 257.006392 
L 315.079672 251.277227 
L 316.356546 248.645968 
L 317.633421 244.929452 
L 318.910295 241.634613 
L 320.187169 238.876786 
L 321.464044 241.126253 
L 322.740918 251.150627 
L 324.017793 249.76078 
L 325.294667 241.232893 
L 326.571541 242.339362 
L 327.848416 246.946769 
L 329.12529 249.888333 
L 330.402165 254.293341 
L 331.679039 258.024414 
L 332.955913 260.672342 
L 334.232788 262.150174 
L 335.509662 262.137299 
L 336.786536 261.478841 
L 338.063411 260.089871 
L 339.340285 258.143863 
L 340.61716 254.158728 
L 341.894034 253.357934 
L 343.170908 262.786774 
L 344.447783 264.427443 
L 345.724657 264.153904 
L 347.001532 265.248345 
L 349.55528 261.087095 
L 350.832155 251.046411 
L 352.109029 260.844139 
L 353.385904 264.059421 
L 354.662778 266.501466 
L 357.216527 270.732907 
L 358.493401 273.62208 
L 359.770276 274.936264 
L 362.324024 279.496175 
L 363.600899 281.074802 
L 364.877773 284.474962 
L 366.154647 286.107875 
L 367.431522 287.013077 
L 368.708396 287.243318 
L 371.262145 288.13832 
L 372.539019 287.331882 
L 375.092768 286.408976 
L 376.369643 285.415456 
L 377.646517 284.006693 
L 378.923391 283.364047 
L 381.47714 280.153454 
L 382.754015 279.459443 
L 385.307763 276.764238 
L 386.584638 275.739482 
L 389.138387 273.375826 
L 390.415261 271.861621 
L 391.692135 269.857785 
L 394.245884 263.906368 
L 396.799633 255.556812 
L 398.076507 250.751969 
L 399.353382 247.196836 
L 400.630256 244.144899 
L 401.90713 242.490829 
L 403.184005 242.369684 
L 404.460879 243.816245 
L 405.737754 247.051572 
L 407.014628 251.825107 
L 408.291502 257.954572 
L 409.568377 264.690556 
L 410.845251 270.690757 
L 412.122126 274.534777 
L 413.399 275.803455 
L 413.399 275.803455 
" clip-path="url(#pb2b924ad35)" style="fill: none; stroke: #9ecae1; stroke-width: 1.2; stroke-linecap: square"/>
   </g>
   <g id="line2d_13">
    <path d="M 47.108 255.220309 
L 48.398107 253.102174 
L 49.688213 246.56616 
L 50.97832 235.871518 
L 57.428853 170.430556 
L 58.718959 159.482414 
L 60.009066 149.580465 
L 61.299173 141.52178 
L 62.589279 134.905167 
L 63.879386 130.020055 
L 65.169492 128.274938 
L 66.459599 129.940041 
L 67.749706 131.911331 
L 69.039812 137.187455 
L 72.910132 160.695961 
L 75.490345 180.133087 
L 78.070559 193.624677 
L 79.360665 201.280973 
L 81.940878 211.009348 
L 83.230985 217.417497 
L 84.521092 218.263721 
L 87.101305 228.019237 
L 88.391411 228.049584 
L 89.681518 228.305318 
L 90.971625 232.14087 
L 92.261731 231.145737 
L 93.551838 229.634906 
L 94.841944 232.130043 
L 96.132051 224.131335 
L 98.712264 223.677666 
L 100.002371 215.639113 
L 101.292477 209.717064 
L 102.582584 207.76871 
L 103.872691 203.431962 
L 105.162797 201.822868 
L 106.452904 200.747776 
L 107.74301 196.017625 
L 109.033117 197.902373 
L 110.323224 197.158883 
L 111.61333 186.765731 
L 114.193543 195.732415 
L 115.48365 197.394411 
L 116.773757 198.478547 
L 118.063863 197.369876 
L 119.35397 195.130317 
L 120.644076 193.480508 
L 121.934183 189.417431 
L 123.22429 179.24181 
L 124.514396 171.66089 
L 125.804503 162.865764 
L 127.094609 151.080964 
L 128.384716 136.920649 
L 129.674823 114.574644 
L 130.964929 97.5111 
L 132.255036 103.056246 
L 133.545143 117.884051 
L 134.835249 124.833353 
L 136.125356 128.669823 
L 137.415462 129.561349 
L 138.705569 130.811648 
L 139.995676 129.465648 
L 141.285782 130.763324 
L 142.575889 133.078969 
L 143.865995 131.641401 
L 146.446209 135.258259 
L 147.736315 133.774912 
L 149.026422 136.676084 
L 150.316528 136.27166 
L 151.606635 128.624224 
L 152.896742 129.17881 
L 154.186848 135.240585 
L 155.476955 122.112392 
L 156.767061 136.090177 
L 158.057168 136.54878 
L 159.347275 133.735296 
L 160.637381 145.619695 
L 161.927488 147.800753 
L 163.217594 141.866887 
L 164.507701 155.337662 
L 165.797808 159.489103 
L 167.087914 156.326687 
L 168.378021 167.27393 
L 169.668127 173.178731 
L 170.958234 151.942492 
L 172.248341 167.631082 
L 173.538447 187.353406 
L 176.11866 174.081771 
L 177.408767 182.587082 
L 178.698874 175.933547 
L 179.98898 171.157604 
L 181.279087 177.704491 
L 182.569193 167.185647 
L 183.8593 161.988865 
L 185.149407 167.421401 
L 186.439513 163.653204 
L 187.72962 161.609796 
L 189.019727 165.478474 
L 190.309833 164.998607 
L 191.59994 167.396648 
L 192.890046 175.527376 
L 194.180153 176.047412 
L 196.760366 193.105963 
L 198.050473 205.506918 
L 199.340579 222.255693 
L 200.630686 245.923482 
L 201.920793 257.164437 
L 203.210899 246.238418 
L 204.501006 223.52183 
L 205.791112 208.707806 
L 207.081219 196.501333 
L 208.371326 190.57527 
L 209.661432 185.177178 
L 210.951539 182.807795 
L 212.241645 179.69871 
L 213.531752 179.531943 
L 214.821859 179.120443 
L 216.111965 178.23941 
L 217.402072 175.167368 
L 218.692178 178.069127 
L 219.982285 179.950188 
L 221.272392 182.097122 
L 222.562498 183.015643 
L 223.852605 176.442842 
L 225.142711 176.590039 
L 226.432818 183.408619 
L 227.722925 175.24901 
L 229.013031 181.169361 
L 230.303138 177.003107 
L 231.593244 180.452787 
L 232.883351 170.496584 
L 234.173458 174.679307 
L 235.463564 174.102759 
L 236.753671 168.202209 
L 238.043777 163.078429 
L 239.333884 159.494486 
L 240.623991 160.503312 
L 244.494311 157.084666 
L 245.784417 154.139073 
L 248.36463 142.795086 
L 249.654737 130.862395 
L 250.944844 113.600483 
L 252.23495 112.64327 
L 253.525057 122.262813 
L 254.815163 107.282792 
L 256.10527 113.837691 
L 257.395377 108.278578 
L 258.685483 93.719394 
L 259.97559 94.028851 
L 261.265696 96.202344 
L 262.555803 86.566587 
L 263.84591 91.260534 
L 265.136016 87.989973 
L 266.426123 87.138946 
L 267.716229 96.169355 
L 269.006336 106.571651 
L 270.296443 108.419511 
L 271.586549 116.539571 
L 272.876656 123.418487 
L 275.456869 146.72921 
L 276.746976 151.67732 
L 278.037082 148.6626 
L 279.327189 133.924745 
L 280.604063 127.85834 
L 281.880938 117.975584 
L 283.157812 112.328076 
L 284.434686 113.324873 
L 285.711561 116.172795 
L 286.988435 120.339034 
L 288.26531 125.866386 
L 289.542184 130.5092 
L 290.819058 142.022675 
L 292.095933 148.581861 
L 293.372807 153.87275 
L 294.649682 162.551651 
L 295.926556 168.121073 
L 297.20343 176.532709 
L 298.480305 177.899346 
L 299.757179 181.314429 
L 301.034053 183.81553 
L 302.310928 169.854511 
L 303.587802 162.512894 
L 304.864677 179.756864 
L 306.141551 193.796342 
L 307.418425 205.010125 
L 308.6953 217.80481 
L 309.972174 226.698225 
L 311.249049 232.626643 
L 312.525923 240.287046 
L 313.802797 245.855351 
L 315.079672 232.457494 
L 317.633421 219.700271 
L 320.187169 208.094157 
L 321.464044 203.818563 
L 322.740918 208.476439 
L 324.017793 208.361899 
L 325.294667 207.212372 
L 326.571541 214.171856 
L 327.848416 222.079469 
L 329.12529 227.615361 
L 330.402165 235.021285 
L 331.679039 246.372455 
L 332.955913 249.464202 
L 334.232788 243.698398 
L 335.509662 234.171406 
L 336.786536 219.400931 
L 338.063411 200.846296 
L 339.340285 192.720797 
L 340.61716 212.44931 
L 341.894034 222.823651 
L 343.170908 223.689358 
L 344.447783 216.845732 
L 345.724657 210.644804 
L 347.001532 206.488972 
L 348.278406 198.274731 
L 349.55528 189.138036 
L 350.832155 185.176926 
L 352.109029 192.256532 
L 353.385904 194.335119 
L 354.662778 193.178327 
L 355.939652 197.643345 
L 357.216527 200.095204 
L 358.493401 201.66902 
L 359.770276 204.675489 
L 361.04715 211.191518 
L 362.324024 213.515512 
L 363.600899 215.416803 
L 366.154647 225.759383 
L 367.431522 225.971511 
L 368.708396 223.328193 
L 369.985271 222.151496 
L 371.262145 224.724189 
L 372.539019 219.364855 
L 373.815894 215.520352 
L 375.092768 214.654814 
L 376.369643 211.080986 
L 377.646517 205.087112 
L 378.923391 202.783337 
L 380.200266 197.929617 
L 381.47714 190.523217 
L 382.754015 187.297097 
L 384.030889 180.567896 
L 385.307763 173.05518 
L 389.138387 153.017465 
L 390.415261 147.800243 
L 391.692135 143.558553 
L 392.96901 138.822372 
L 394.245884 138.53598 
L 395.522759 137.595017 
L 396.799633 138.664302 
L 399.353382 149.486506 
L 400.630256 156.444397 
L 401.90713 165.21493 
L 403.184005 174.963714 
L 404.460879 185.843194 
L 407.014628 210.412367 
L 409.568377 236.302001 
L 410.845251 246.727775 
L 412.122126 253.137393 
L 413.399 255.220309 
L 413.399 255.220309 
" clip-path="url(#pb2b924ad35)" style="fill: none; stroke: #636363; stroke-width: 1.7; stroke-linecap: square"/>
   </g>
   <g id="line2d_14">
    <path d="M 201.920793 303.32 
L 201.920793 76.488 
" clip-path="url(#pb2b924ad35)" style="fill: none; stroke: #dddddd; stroke-width: 0.6; stroke-linecap: square"/>
   </g>
   <g id="line2d_15">
    <path d="M 279.327189 303.32 
L 279.327189 76.488 
" clip-path="url(#pb2b924ad35)" style="fill: none; stroke: #dddddd; stroke-width: 0.6; stroke-linecap: square"/>
   </g>
   <g id="patch_3">
    <path d="M 47.108 303.32 
L 47.108 76.488 
" style="fill: none; stroke: #000000; stroke-width: 0.8; stroke-linejoin: miter; stroke-linecap: square"/>
   </g>
   <g id="patch_4">
    <path d="M 413.399 303.32 
L 413.399 76.488 
" style="fill: none; stroke: #000000; stroke-width: 0.8; stroke-linejoin: miter; stroke-linecap: square"/>
   </g>
   <g id="patch_5">
    <path d="M 47.108 303.32 
L 413.399 303.32 
" style="fill: none; stroke: #000000; stroke-width: 0.8; stroke-linejoin: miter; stroke-linecap: square"/>
   </g>
   <g id="patch_6">
    <path d="M 47.108 76.488 
L 413.399 76.488 
" style="fill: none; stroke: #000000; stroke-width: 0.8; stroke-linejoin: miter; stroke-linecap: square"/>
   </g>
   <g id="text_13">
    <!-- highest VB  —  O$_S$ -->
    <g transform="translate(181.0835 70.488) scale(0.11 -0.11)">
     <defs>
      <path id="DejaVuSans-68" d="M 3513 2113 
L 3513 0 
L 2938 0 
L 2938 2094 
Q 2938 2591 2744 2837 
Q 2550 3084 2163 3084 
Q 1697 3084 1428 2787 
Q 1159 2491 1159 1978 
L 1159 0 
L 581 0 
L 581 4863 
L 1159 4863 
L 1159 2956 
Q 1366 3272 1645 3428 
Q 1925 3584 2291 3584 
Q 2894 3584 3203 3211 
Q 3513 2838 3513 2113 
z
" transform="scale(0.015625)"/>
      <path id="DejaVuSans-69" d="M 603 3500 
L 1178 3500 
L 1178 0 
L 603 0 
L 603 3500 
z
M 603 4863 
L 1178 4863 
L 1178 4134 
L 603 4134 
L 603 4863 
z
" transform="scale(0.015625)"/>
      <path id="DejaVuSans-67" d="M 2906 1791 
Q 2906 2416 2648 2759 
Q 2391 3103 1925 3103 
Q 1463 3103 1205 2759 
Q 947 2416 947 1791 
Q 947 1169 1205 825 
Q 1463 481 1925 481 
Q 2391 481 2648 825 
Q 2906 1169 2906 1791 
z
M 3481 434 
Q 3481 -459 3084 -895 
Q 2688 -1331 1869 -1331 
Q 1566 -1331 1297 -1286 
Q 1028 -1241 775 -1147 
L 775 -588 
Q 1028 -725 1275 -790 
Q 1522 -856 1778 -856 
Q 2344 -856 2625 -561 
Q 2906 -266 2906 331 
L 2906 616 
Q 2728 306 2450 153 
Q 2172 0 1784 0 
Q 1141 0 747 490 
Q 353 981 353 1791 
Q 353 2603 747 3093 
Q 1141 3584 1784 3584 
Q 2172 3584 2450 3431 
Q 2728 3278 2906 2969 
L 2906 3500 
L 3481 3500 
L 3481 434 
z
" transform="scale(0.015625)"/>
      <path id="DejaVuSans-73" d="M 2834 3397 
L 2834 2853 
Q 2591 2978 2328 3040 
Q 2066 3103 1784 3103 
Q 1356 3103 1142 2972 
Q 928 2841 928 2578 
Q 928 2378 1081 2264 
Q 1234 2150 1697 2047 
L 1894 2003 
Q 2506 1872 2764 1633 
Q 3022 1394 3022 966 
Q 3022 478 2636 193 
Q 2250 -91 1575 -91 
Q 1294 -91 989 -36 
Q 684 19 347 128 
L 347 722 
Q 666 556 975 473 
Q 1284 391 1588 391 
Q 1994 391 2212 530 
Q 2431 669 2431 922 
Q 2431 1156 2273 1281 
Q 2116 1406 1581 1522 
L 1381 1569 
Q 847 1681 609 1914 
Q 372 2147 372 2553 
Q 372 3047 722 3315 
Q 1072 3584 1716 3584 
Q 2034 3584 2315 3537 
Q 2597 3491 2834 3397 
z
" transform="scale(0.015625)"/>
      <path id="DejaVuSans-74" d="M 1172 4494 
L 1172 3500 
L 2356 3500 
L 2356 3053 
L 1172 3053 
L 1172 1153 
Q 1172 725 1289 603 
Q 1406 481 1766 481 
L 2356 481 
L 2356 0 
L 1766 0 
Q 1100 0 847 248 
Q 594 497 594 1153 
L 594 3053 
L 172 3053 
L 172 3500 
L 594 3500 
L 594 4494 
L 1172 4494 
z
" transform="scale(0.015625)"/>
      <path id="DejaVuSans-42" d="M 1259 2228 
L 1259 519 
L 2272 519 
Q 2781 519 3026 730 
Q 3272 941 3272 1375 
Q 3272 1813 3026 2020 
Q 2781 2228 2272 2228 
L 1259 2228 
z
M 1259 4147 
L 1259 2741 
L 2194 2741 
Q 2656 2741 2882 2914 
Q 3109 3088 3109 3444 
Q 3109 3797 2882 3972 
Q 2656 4147 2194 4147 
L 1259 4147 
z
M 628 4666 
L 2241 4666 
Q 2963 4666 3353 4366 
Q 3744 4066 3744 3513 
Q 3744 3084 3544 2831 
Q 3344 2578 2956 2516 
Q 3422 2416 3680 2098 
Q 3938 1781 3938 1306 
Q 3938 681 3513 340 
Q 3088 0 2303 0 
L 628 0 
L 628 4666 
z
" transform="scale(0.015625)"/>
      <path id="DejaVuSansDisplay-2014" d="M 313 1978 
L 6088 1978 
L 6088 1528 
L 313 1528 
L 313 1978 
z
" transform="scale(0.015625)"/>
      <path id="DejaVuSans-4f" d="M 2522 4238 
Q 1834 4238 1429 3725 
Q 1025 3213 1025 2328 
Q 1025 1447 1429 934 
Q 1834 422 2522 422 
Q 3209 422 3611 934 
Q 4013 1447 4013 2328 
Q 4013 3213 3611 3725 
Q 3209 4238 2522 4238 
z
M 2522 4750 
Q 3503 4750 4090 4092 
Q 4678 3434 4678 2328 
Q 4678 1225 4090 567 
Q 3503 -91 2522 -91 
Q 1538 -91 948 565 
Q 359 1222 359 2328 
Q 359 3434 948 4092 
Q 1538 4750 2522 4750 
z
" transform="scale(0.015625)"/>
      <path id="DejaVuSans-Oblique-53" d="M 3859 4513 
L 3738 3897 
Q 3422 4066 3111 4152 
Q 2800 4238 2509 4238 
Q 1944 4238 1609 3991 
Q 1275 3744 1275 3334 
Q 1275 3109 1398 2989 
Q 1522 2869 2034 2731 
L 2413 2638 
Q 3053 2472 3303 2217 
Q 3553 1963 3553 1503 
Q 3553 797 2998 353 
Q 2444 -91 1538 -91 
Q 1166 -91 791 -17 
Q 416 56 38 206 
L 166 856 
Q 513 641 861 531 
Q 1209 422 1556 422 
Q 2147 422 2503 684 
Q 2859 947 2859 1369 
Q 2859 1650 2717 1795 
Q 2575 1941 2106 2059 
L 1728 2156 
Q 1081 2325 845 2545 
Q 609 2766 609 3163 
Q 609 3859 1145 4304 
Q 1681 4750 2541 4750 
Q 2875 4750 3203 4690 
Q 3531 4631 3859 4513 
z
" transform="scale(0.015625)"/>
     </defs>
     <use xlink:href="#DejaVuSans-68" transform="translate(0 0.015625)"/>
     <use xlink:href="#DejaVuSans-69" transform="translate(63.378906 0.015625)"/>
     <use xlink:href="#DejaVuSans-67" transform="translate(91.162109 0.015625)"/>
     <use xlink:href="#DejaVuSans-68" transform="translate(154.638672 0.015625)"/>
     <use xlink:href="#DejaVuSans-65" transform="translate(218.017578 0.015625)"/>
     <use xlink:href="#DejaVuSans-73" transform="translate(279.541016 0.015625)"/>
     <use xlink:href="#DejaVuSans-74" transform="translate(331.640625 0.015625)"/>
     <use xlink:href="#DejaVuSans-20" transform="translate(370.849609 0.015625)"/>
     <use xlink:href="#DejaVuSans-56" transform="translate(402.636719 0.015625)"/>
     <use xlink:href="#DejaVuSans-42" transform="translate(471.044922 0.015625)"/>
     <use xlink:href="#DejaVuSans-20" transform="translate(539.648438 0.015625)"/>
     <use xlink:href="#DejaVuSans-20" transform="translate(571.435547 0.015625)"/>
     <use xlink:href="#DejaVuSansDisplay-2014" transform="translate(603.222656 0.015625)"/>
     <use xlink:href="#DejaVuSans-20" transform="translate(703.222656 0.015625)"/>
     <use xlink:href="#DejaVuSans-20" transform="translate(735.009766 0.015625)"/>
     <use xlink:href="#DejaVuSans-4f" transform="translate(766.796875 0.015625)"/>
     <use xlink:href="#DejaVuSans-Oblique-53" transform="translate(846.464844 -16.390625) scale(0.7)"/>
    </g>
   </g>
   <g id="legend_1">
    <g id="line2d_16">
     <path d="M 54.758 88.048 
L 63.258 88.048 
L 71.758 88.048 
" style="fill: none; stroke: #9ecae1; stroke-width: 1.2; stroke-linecap: square"/>
    </g>
    <g id="text_14">
     <!-- with 4$\tilde\chi/k$ (A1-cured, reference) -->
     <g transform="translate(78.558 91.023) scale(0.085 -0.085)">
      <defs>
       <path id="DejaVuSans-77" d="M 269 3500 
L 844 3500 
L 1563 769 
L 2278 3500 
L 2956 3500 
L 3675 769 
L 4391 3500 
L 4966 3500 
L 4050 0 
L 3372 0 
L 2619 2869 
L 1863 0 
L 1184 0 
L 269 3500 
z
" transform="scale(0.015625)"/>
       <path id="DejaVuSans-303" d="M -1619 4281 
L -1797 4453 
Q -1866 4516 -1917 4545 
Q -1969 4575 -2009 4575 
Q -2128 4575 -2184 4461 
Q -2241 4347 -2247 4091 
L -2638 4091 
Q -2631 4513 -2472 4742 
Q -2313 4972 -2028 4972 
Q -1909 4972 -1809 4928 
Q -1709 4884 -1594 4781 
L -1416 4609 
Q -1347 4547 -1295 4517 
Q -1244 4488 -1203 4488 
Q -1084 4488 -1028 4602 
Q -972 4716 -966 4972 
L -575 4972 
Q -581 4550 -740 4320 
Q -900 4091 -1184 4091 
Q -1303 4091 -1403 4134 
Q -1503 4178 -1619 4281 
z
" transform="scale(0.015625)"/>
       <path id="DejaVuSans-Oblique-3c7" d="M 1922 -781 
L 1691 416 
L 394 -1334 
L -284 -1334 
L 1553 1141 
L 1269 2613 
Q 1194 3006 713 3006 
L 559 3006 
L 653 3500 
L 872 3494 
Q 1675 3472 1775 2950 
L 2006 1753 
L 3303 3503 
L 3981 3503 
L 2144 1028 
L 2428 -444 
Q 2503 -838 2984 -838 
L 3138 -838 
L 3044 -1331 
L 2825 -1325 
Q 2022 -1303 1922 -781 
z
" transform="scale(0.015625)"/>
       <path id="DejaVuSans-2f" d="M 1625 4666 
L 2156 4666 
L 531 -594 
L 0 -594 
L 1625 4666 
z
" transform="scale(0.015625)"/>
       <path id="DejaVuSans-41" d="M 2188 4044 
L 1331 1722 
L 3047 1722 
L 2188 4044 
z
M 1831 4666 
L 2547 4666 
L 4325 0 
L 3669 0 
L 3244 1197 
L 1141 1197 
L 716 0 
L 50 0 
L 1831 4666 
z
" transform="scale(0.015625)"/>
       <path id="DejaVuSans-2d" d="M 313 2009 
L 1997 2009 
L 1997 1497 
L 313 1497 
L 313 2009 
z
" transform="scale(0.015625)"/>
       <path id="DejaVuSans-63" d="M 3122 3366 
L 3122 2828 
Q 2878 2963 2633 3030 
Q 2388 3097 2138 3097 
Q 1578 3097 1268 2742 
Q 959 2388 959 1747 
Q 959 1106 1268 751 
Q 1578 397 2138 397 
Q 2388 397 2633 464 
Q 2878 531 3122 666 
L 3122 134 
Q 2881 22 2623 -34 
Q 2366 -91 2075 -91 
Q 1284 -91 818 406 
Q 353 903 353 1747 
Q 353 2603 823 3093 
Q 1294 3584 2113 3584 
Q 2378 3584 2631 3529 
Q 2884 3475 3122 3366 
z
" transform="scale(0.015625)"/>
       <path id="DejaVuSans-75" d="M 544 1381 
L 544 3500 
L 1119 3500 
L 1119 1403 
Q 1119 906 1312 657 
Q 1506 409 1894 409 
Q 2359 409 2629 706 
Q 2900 1003 2900 1516 
L 2900 3500 
L 3475 3500 
L 3475 0 
L 2900 0 
L 2900 538 
Q 2691 219 2414 64 
Q 2138 -91 1772 -91 
Q 1169 -91 856 284 
Q 544 659 544 1381 
z
M 1991 3584 
L 1991 3584 
z
" transform="scale(0.015625)"/>
       <path id="DejaVuSans-72" d="M 2631 2963 
Q 2534 3019 2420 3045 
Q 2306 3072 2169 3072 
Q 1681 3072 1420 2755 
Q 1159 2438 1159 1844 
L 1159 0 
L 581 0 
L 581 3500 
L 1159 3500 
L 1159 2956 
Q 1341 3275 1631 3429 
Q 1922 3584 2338 3584 
Q 2397 3584 2469 3576 
Q 2541 3569 2628 3553 
L 2631 2963 
z
" transform="scale(0.015625)"/>
       <path id="DejaVuSans-64" d="M 2906 2969 
L 2906 4863 
L 3481 4863 
L 3481 0 
L 2906 0 
L 2906 525 
Q 2725 213 2448 61 
Q 2172 -91 1784 -91 
Q 1150 -91 751 415 
Q 353 922 353 1747 
Q 353 2572 751 3078 
Q 1150 3584 1784 3584 
Q 2172 3584 2448 3432 
Q 2725 3281 2906 2969 
z
M 947 1747 
Q 947 1113 1208 752 
Q 1469 391 1925 391 
Q 2381 391 2643 752 
Q 2906 1113 2906 1747 
Q 2906 2381 2643 2742 
Q 2381 3103 1925 3103 
Q 1469 3103 1208 2742 
Q 947 2381 947 1747 
z
" transform="scale(0.015625)"/>
       <path id="DejaVuSans-66" d="M 2375 4863 
L 2375 4384 
L 1825 4384 
Q 1516 4384 1395 4259 
Q 1275 4134 1275 3809 
L 1275 3500 
L 2222 3500 
L 2222 3053 
L 1275 3053 
L 1275 0 
L 697 0 
L 697 3053 
L 147 3053 
L 147 3500 
L 697 3500 
L 697 3744 
Q 697 4328 969 4595 
Q 1241 4863 1831 4863 
L 2375 4863 
z
" transform="scale(0.015625)"/>
       <path id="DejaVuSans-6e" d="M 3513 2113 
L 3513 0 
L 2938 0 
L 2938 2094 
Q 2938 2591 2744 2837 
Q 2550 3084 2163 3084 
Q 1697 3084 1428 2787 
Q 1159 2491 1159 1978 
L 1159 0 
L 581 0 
L 581 3500 
L 1159 3500 
L 1159 2956 
Q 1366 3272 1645 3428 
Q 1925 3584 2291 3584 
Q 2894 3584 3203 3211 
Q 3513 2838 3513 2113 
z
" transform="scale(0.015625)"/>
      </defs>
      <use xlink:href="#DejaVuSans-77"/>
      <use xlink:href="#DejaVuSans-69" transform="translate(81.787109 0)"/>
      <use xlink:href="#DejaVuSans-74" transform="translate(109.570312 0)"/>
      <use xlink:href="#DejaVuSans-68" transform="translate(148.779297 0)"/>
      <use xlink:href="#DejaVuSans-20" transform="translate(212.158203 0)"/>
      <use xlink:href="#DejaVuSans-34" transform="translate(243.945312 0)"/>
      <use xlink:href="#DejaVuSans-303" transform="translate(374.447266 3.3125)"/>
      <use xlink:href="#DejaVuSans-Oblique-3c7" transform="translate(307.568359 0)"/>
      <use xlink:href="#DejaVuSans-2f" transform="translate(374.208984 0)"/>
      <use xlink:href="#DejaVuSans-Oblique-6b" transform="translate(407.900391 0)"/>
      <use xlink:href="#DejaVuSans-20" transform="translate(465.810547 0)"/>
      <use xlink:href="#DejaVuSans-28" transform="translate(497.597656 0)"/>
      <use xlink:href="#DejaVuSans-41" transform="translate(536.611328 0)"/>
      <use xlink:href="#DejaVuSans-31" transform="translate(605.019531 0)"/>
      <use xlink:href="#DejaVuSans-2d" transform="translate(668.642578 0)"/>
      <use xlink:href="#DejaVuSans-63" transform="translate(704.726562 0)"/>
      <use xlink:href="#DejaVuSans-75" transform="translate(759.707031 0)"/>
      <use xlink:href="#DejaVuSans-72" transform="translate(823.085938 0)"/>
      <use xlink:href="#DejaVuSans-65" transform="translate(864.199219 0)"/>
      <use xlink:href="#DejaVuSans-64" transform="translate(925.722656 0)"/>
      <use xlink:href="#DejaVuSans-2c" transform="translate(989.199219 0)"/>
      <use xlink:href="#DejaVuSans-20" transform="translate(1020.986328 0)"/>
      <use xlink:href="#DejaVuSans-72" transform="translate(1052.773438 0)"/>
      <use xlink:href="#DejaVuSans-65" transform="translate(1093.886719 0)"/>
      <use xlink:href="#DejaVuSans-66" transform="translate(1155.410156 0)"/>
      <use xlink:href="#DejaVuSans-65" transform="translate(1190.615234 0)"/>
      <use xlink:href="#DejaVuSans-72" transform="translate(1252.138672 0)"/>
      <use xlink:href="#DejaVuSans-65" transform="translate(1293.251953 0)"/>
      <use xlink:href="#DejaVuSans-6e" transform="translate(1354.775391 0)"/>
      <use xlink:href="#DejaVuSans-63" transform="translate(1418.154297 0)"/>
      <use xlink:href="#DejaVuSans-65" transform="translate(1473.134766 0)"/>
      <use xlink:href="#DejaVuSans-29" transform="translate(1534.658203 0)"/>
     </g>
    </g>
    <g id="line2d_17">
     <path d="M 54.758 100.968 
L 63.258 100.968 
L 71.758 100.968 
" style="fill: none; stroke: #636363; stroke-width: 1.7; stroke-linecap: square"/>
    </g>
    <g id="text_15">
     <!-- NC without $\tilde\chi$ (uncured) -->
     <g transform="translate(78.558 103.943) scale(0.085 -0.085)">
      <defs>
       <path id="DejaVuSans-4e" d="M 628 4666 
L 1478 4666 
L 3547 763 
L 3547 4666 
L 4159 4666 
L 4159 0 
L 3309 0 
L 1241 3903 
L 1241 0 
L 628 0 
L 628 4666 
z
" transform="scale(0.015625)"/>
       <path id="DejaVuSans-43" d="M 4122 4306 
L 4122 3641 
Q 3803 3938 3442 4084 
Q 3081 4231 2675 4231 
Q 1875 4231 1450 3742 
Q 1025 3253 1025 2328 
Q 1025 1406 1450 917 
Q 1875 428 2675 428 
Q 3081 428 3442 575 
Q 3803 722 4122 1019 
L 4122 359 
Q 3791 134 3420 21 
Q 3050 -91 2638 -91 
Q 1578 -91 968 557 
Q 359 1206 359 2328 
Q 359 3453 968 4101 
Q 1578 4750 2638 4750 
Q 3056 4750 3426 4639 
Q 3797 4528 4122 4306 
z
" transform="scale(0.015625)"/>
       <path id="DejaVuSans-6f" d="M 1959 3097 
Q 1497 3097 1228 2736 
Q 959 2375 959 1747 
Q 959 1119 1226 758 
Q 1494 397 1959 397 
Q 2419 397 2687 759 
Q 2956 1122 2956 1747 
Q 2956 2369 2687 2733 
Q 2419 3097 1959 3097 
z
M 1959 3584 
Q 2709 3584 3137 3096 
Q 3566 2609 3566 1747 
Q 3566 888 3137 398 
Q 2709 -91 1959 -91 
Q 1206 -91 779 398 
Q 353 888 353 1747 
Q 353 2609 779 3096 
Q 1206 3584 1959 3584 
z
" transform="scale(0.015625)"/>
      </defs>
      <use xlink:href="#DejaVuSans-4e"/>
      <use xlink:href="#DejaVuSans-43" transform="translate(74.804688 0)"/>
      <use xlink:href="#DejaVuSans-20" transform="translate(144.628906 0)"/>
      <use xlink:href="#DejaVuSans-77" transform="translate(176.416016 0)"/>
      <use xlink:href="#DejaVuSans-69" transform="translate(258.203125 0)"/>
      <use xlink:href="#DejaVuSans-74" transform="translate(285.986328 0)"/>
      <use xlink:href="#DejaVuSans-68" transform="translate(325.195312 0)"/>
      <use xlink:href="#DejaVuSans-6f" transform="translate(388.574219 0)"/>
      <use xlink:href="#DejaVuSans-75" transform="translate(449.755859 0)"/>
      <use xlink:href="#DejaVuSans-74" transform="translate(513.134766 0)"/>
      <use xlink:href="#DejaVuSans-20" transform="translate(552.34375 0)"/>
      <use xlink:href="#DejaVuSans-303" transform="translate(651.009766 3.3125)"/>
      <use xlink:href="#DejaVuSans-Oblique-3c7" transform="translate(584.130859 0)"/>
      <use xlink:href="#DejaVuSans-20" transform="translate(650.771484 0)"/>
      <use xlink:href="#DejaVuSans-28" transform="translate(682.558594 0)"/>
      <use xlink:href="#DejaVuSans-75" transform="translate(721.572266 0)"/>
      <use xlink:href="#DejaVuSans-6e" transform="translate(784.951172 0)"/>
      <use xlink:href="#DejaVuSans-63" transform="translate(848.330078 0)"/>
      <use xlink:href="#DejaVuSans-75" transform="translate(903.310547 0)"/>
      <use xlink:href="#DejaVuSans-72" transform="translate(966.689453 0)"/>
      <use xlink:href="#DejaVuSans-65" transform="translate(1007.802734 0)"/>
      <use xlink:href="#DejaVuSans-64" transform="translate(1069.326172 0)"/>
      <use xlink:href="#DejaVuSans-29" transform="translate(1132.802734 0)"/>
     </g>
    </g>
   </g>
  </g>
  <g id="axes_2">
   <g id="patch_7">
    <path d="M 447.444 303.32 
L 813.735 303.32 
L 813.735 76.488 
L 447.444 76.488 
z
" style="fill: #ffffff"/>
   </g>
   <g id="matplotlib.axis_3">
    <g id="xtick_5">
     <g id="line2d_18">
      <g>
       <use xlink:href="#md829d623ae" x="447.444" y="303.32" style="stroke: #000000; stroke-width: 0.8"/>
      </g>
     </g>
     <g id="text_16">
      <!-- $\Gamma$ -->
      <g transform="translate(444.644 317.918437) scale(0.1 -0.1)">
       <use xlink:href="#DejaVuSans-393" transform="translate(0 0.09375)"/>
      </g>
     </g>
    </g>
    <g id="xtick_6">
     <g id="line2d_19">
      <g>
       <use xlink:href="#md829d623ae" x="602.256793" y="303.32" style="stroke: #000000; stroke-width: 0.8"/>
      </g>
     </g>
     <g id="text_17">
      <!-- K -->
      <g transform="translate(598.977886 317.918437) scale(0.1 -0.1)">
       <use xlink:href="#DejaVuSans-4b"/>
      </g>
     </g>
    </g>
    <g id="xtick_7">
     <g id="line2d_20">
      <g>
       <use xlink:href="#md829d623ae" x="679.663189" y="303.32" style="stroke: #000000; stroke-width: 0.8"/>
      </g>
     </g>
     <g id="text_18">
      <!-- M -->
      <g transform="translate(675.349126 317.918437) scale(0.1 -0.1)">
       <use xlink:href="#DejaVuSans-4d"/>
      </g>
     </g>
    </g>
    <g id="xtick_8">
     <g id="line2d_21">
      <g>
       <use xlink:href="#md829d623ae" x="813.735" y="303.32" style="stroke: #000000; stroke-width: 0.8"/>
      </g>
     </g>
     <g id="text_19">
      <!-- $\Gamma$ -->
      <g transform="translate(810.935 317.918437) scale(0.1 -0.1)">
       <use xlink:href="#DejaVuSans-393" transform="translate(0 0.09375)"/>
      </g>
     </g>
    </g>
   </g>
   <g id="matplotlib.axis_4">
    <g id="ytick_8">
     <g id="line2d_22">
      <g>
       <use xlink:href="#m1bbcde805d" x="447.444" y="303.32" style="stroke: #000000; stroke-width: 0.8"/>
      </g>
     </g>
     <g id="text_20">
      <!-- 0 -->
      <g transform="translate(434.0815 307.119219) scale(0.1 -0.1)">
       <use xlink:href="#DejaVuSans-30"/>
      </g>
     </g>
    </g>
    <g id="ytick_9">
     <g id="line2d_23">
      <g>
       <use xlink:href="#m1bbcde805d" x="447.444" y="274.556834" style="stroke: #000000; stroke-width: 0.8"/>
      </g>
     </g>
     <g id="text_21">
      <!-- 10 -->
      <g transform="translate(427.719 278.356052) scale(0.1 -0.1)">
       <use xlink:href="#DejaVuSans-31"/>
       <use xlink:href="#DejaVuSans-30" transform="translate(63.623047 0)"/>
      </g>
     </g>
    </g>
    <g id="ytick_10">
     <g id="line2d_24">
      <g>
       <use xlink:href="#m1bbcde805d" x="447.444" y="245.793667" style="stroke: #000000; stroke-width: 0.8"/>
      </g>
     </g>
     <g id="text_22">
      <!-- 20 -->
      <g transform="translate(427.719 249.592886) scale(0.1 -0.1)">
       <use xlink:href="#DejaVuSans-32"/>
       <use xlink:href="#DejaVuSans-30" transform="translate(63.623047 0)"/>
      </g>
     </g>
    </g>
    <g id="ytick_11">
     <g id="line2d_25">
      <g>
       <use xlink:href="#m1bbcde805d" x="447.444" y="217.030501" style="stroke: #000000; stroke-width: 0.8"/>
      </g>
     </g>
     <g id="text_23">
      <!-- 30 -->
      <g transform="translate(427.719 220.82972) scale(0.1 -0.1)">
       <defs>
        <path id="DejaVuSans-33" d="M 2597 2516 
Q 3050 2419 3304 2112 
Q 3559 1806 3559 1356 
Q 3559 666 3084 287 
Q 2609 -91 1734 -91 
Q 1441 -91 1130 -33 
Q 819 25 488 141 
L 488 750 
Q 750 597 1062 519 
Q 1375 441 1716 441 
Q 2309 441 2620 675 
Q 2931 909 2931 1356 
Q 2931 1769 2642 2001 
Q 2353 2234 1838 2234 
L 1294 2234 
L 1294 2753 
L 1863 2753 
Q 2328 2753 2575 2939 
Q 2822 3125 2822 3475 
Q 2822 3834 2567 4026 
Q 2313 4219 1838 4219 
Q 1578 4219 1281 4162 
Q 984 4106 628 3988 
L 628 4550 
Q 988 4650 1302 4700 
Q 1616 4750 1894 4750 
Q 2613 4750 3031 4423 
Q 3450 4097 3450 3541 
Q 3450 3153 3228 2886 
Q 3006 2619 2597 2516 
z
" transform="scale(0.015625)"/>
       </defs>
       <use xlink:href="#DejaVuSans-33"/>
       <use xlink:href="#DejaVuSans-30" transform="translate(63.623047 0)"/>
      </g>
     </g>
    </g>
    <g id="ytick_12">
     <g id="line2d_26">
      <g>
       <use xlink:href="#m1bbcde805d" x="447.444" y="188.267334" style="stroke: #000000; stroke-width: 0.8"/>
      </g>
     </g>
     <g id="text_24">
      <!-- 40 -->
      <g transform="translate(427.719 192.066553) scale(0.1 -0.1)">
       <use xlink:href="#DejaVuSans-34"/>
       <use xlink:href="#DejaVuSans-30" transform="translate(63.623047 0)"/>
      </g>
     </g>
    </g>
    <g id="ytick_13">
     <g id="line2d_27">
      <g>
       <use xlink:href="#m1bbcde805d" x="447.444" y="159.504168" style="stroke: #000000; stroke-width: 0.8"/>
      </g>
     </g>
     <g id="text_25">
      <!-- 50 -->
      <g transform="translate(427.719 163.303387) scale(0.1 -0.1)">
       <defs>
        <path id="DejaVuSans-35" d="M 691 4666 
L 3169 4666 
L 3169 4134 
L 1269 4134 
L 1269 2991 
Q 1406 3038 1543 3061 
Q 1681 3084 1819 3084 
Q 2600 3084 3056 2656 
Q 3513 2228 3513 1497 
Q 3513 744 3044 326 
Q 2575 -91 1722 -91 
Q 1428 -91 1123 -41 
Q 819 9 494 109 
L 494 744 
Q 775 591 1075 516 
Q 1375 441 1709 441 
Q 2250 441 2565 725 
Q 2881 1009 2881 1497 
Q 2881 1984 2565 2268 
Q 2250 2553 1709 2553 
Q 1456 2553 1204 2497 
Q 953 2441 691 2322 
L 691 4666 
z
" transform="scale(0.015625)"/>
       </defs>
       <use xlink:href="#DejaVuSans-35"/>
       <use xlink:href="#DejaVuSans-30" transform="translate(63.623047 0)"/>
      </g>
     </g>
    </g>
    <g id="ytick_14">
     <g id="line2d_28">
      <g>
       <use xlink:href="#m1bbcde805d" x="447.444" y="130.741002" style="stroke: #000000; stroke-width: 0.8"/>
      </g>
     </g>
     <g id="text_26">
      <!-- 60 -->
      <g transform="translate(427.719 134.54022) scale(0.1 -0.1)">
       <use xlink:href="#DejaVuSans-36"/>
       <use xlink:href="#DejaVuSans-30" transform="translate(63.623047 0)"/>
      </g>
     </g>
    </g>
    <g id="ytick_15">
     <g id="line2d_29">
      <g>
       <use xlink:href="#m1bbcde805d" x="447.444" y="101.977835" style="stroke: #000000; stroke-width: 0.8"/>
      </g>
     </g>
     <g id="text_27">
      <!-- 70 -->
      <g transform="translate(427.719 105.777054) scale(0.1 -0.1)">
       <defs>
        <path id="DejaVuSans-37" d="M 525 4666 
L 3525 4666 
L 3525 4397 
L 1831 0 
L 1172 0 
L 2766 4134 
L 525 4134 
L 525 4666 
z
" transform="scale(0.015625)"/>
       </defs>
       <use xlink:href="#DejaVuSans-37"/>
       <use xlink:href="#DejaVuSans-30" transform="translate(63.623047 0)"/>
      </g>
     </g>
    </g>
   </g>
   <g id="line2d_30">
    <path d="M 447.444 273.265746 
L 448.734107 275.125486 
L 450.024213 275.008555 
L 451.31432 275.504267 
L 452.604426 274.89759 
L 453.894533 274.653298 
L 455.18464 272.978652 
L 457.764853 271.815206 
L 459.054959 271.899633 
L 461.635173 272.311115 
L 462.925279 272.238865 
L 464.215386 271.982831 
L 465.505492 273.352929 
L 468.085706 274.179213 
L 469.375812 273.462373 
L 470.665919 274.138712 
L 471.956025 274.23635 
L 473.246132 274.508316 
L 474.536239 275.107784 
L 475.826345 275.434094 
L 477.116452 275.645458 
L 478.406559 271.116951 
L 479.696665 260.259008 
L 480.986772 260.246684 
L 482.276878 263.807167 
L 483.566985 268.805515 
L 484.857092 255.237951 
L 486.147198 237.119032 
L 487.437305 213.9063 
L 488.727411 197.849146 
L 490.017518 197.838303 
L 491.307625 201.386147 
L 492.597731 224.387088 
L 493.887838 263.926973 
L 495.177944 274.121415 
L 496.468051 270.169601 
L 497.758158 273.21066 
L 499.048264 271.926416 
L 500.338371 269.443083 
L 501.628477 264.676524 
L 504.208691 256.658736 
L 505.498797 255.0537 
L 508.07901 249.27961 
L 509.369117 248.16429 
L 510.659224 246.891844 
L 511.94933 244.421247 
L 513.239437 243.790837 
L 514.529543 242.872159 
L 515.81965 242.122022 
L 517.109757 243.626244 
L 518.399863 244.380935 
L 519.68997 246.343795 
L 522.270183 255.455343 
L 523.56029 261.688668 
L 524.850396 268.907049 
L 526.140503 274.512166 
L 527.430609 274.523421 
L 528.720716 269.843197 
L 530.010823 265.803768 
L 531.300929 262.252448 
L 532.591036 261.486239 
L 533.881143 261.12158 
L 535.171249 261.79268 
L 536.461356 262.813246 
L 537.751462 263.668598 
L 539.041569 265.531337 
L 542.911889 269.563983 
L 544.201995 270.973548 
L 545.492102 271.869597 
L 548.072315 274.253586 
L 549.362422 274.971465 
L 550.652528 276.459822 
L 551.942635 276.657939 
L 553.232742 273.973396 
L 554.522848 275.538171 
L 555.812955 277.412573 
L 557.103061 280.378065 
L 558.393168 281.248147 
L 559.683275 278.747928 
L 560.973381 276.698919 
L 562.263488 275.556607 
L 563.553594 276.516942 
L 564.843701 277.206963 
L 567.423914 274.527306 
L 571.294234 269.126868 
L 572.584341 266.886678 
L 575.164554 263.076728 
L 576.45466 261.988144 
L 577.744767 263.204352 
L 579.034874 282.617504 
L 580.32498 228.872251 
L 581.615087 134.862278 
L 582.905193 115.537147 
L 584.1953 87.282308 
L 585.485407 189.806057 
L 586.775513 217.073339 
L 588.06562 236.319763 
L 589.355727 244.475571 
L 590.645833 247.123185 
L 591.93594 252.493263 
L 593.226046 253.915561 
L 594.516153 252.253067 
L 595.80626 251.408701 
L 597.096366 247.323564 
L 598.386473 241.81347 
L 599.676579 233.440349 
L 600.966686 231.146537 
L 602.256793 241.363732 
L 603.546899 231.2764 
L 604.837006 233.514779 
L 606.127112 241.951848 
L 607.417219 248.407334 
L 608.707326 251.511322 
L 609.997432 253.946102 
L 611.287539 253.507047 
L 612.577645 255.20127 
L 613.867752 249.814772 
L 615.157859 248.728586 
L 616.447965 244.096893 
L 617.738072 226.935708 
L 619.028178 219.324521 
L 620.318285 192.674443 
L 621.608392 125.69329 
L 622.898498 119.135842 
L 624.188605 101.142837 
L 625.478711 186.480417 
L 626.768818 246.011109 
L 628.058925 274.056137 
L 629.349031 262.767426 
L 630.639138 262.241076 
L 631.929244 263.113188 
L 633.219351 264.829594 
L 634.509458 267.686027 
L 637.089671 272.019065 
L 638.379777 273.916806 
L 639.669884 277.000774 
L 640.959991 278.467442 
L 642.250097 281.083146 
L 644.830311 284.44909 
L 646.120417 283.847236 
L 647.410524 284.039733 
L 648.70063 281.143923 
L 649.990737 277.854177 
L 651.280844 275.320823 
L 652.57095 273.89663 
L 653.861057 274.387958 
L 655.151163 276.213306 
L 656.44127 279.143588 
L 660.31159 292.094109 
L 661.601696 294.121993 
L 662.891803 294.457102 
L 664.18191 293.441079 
L 665.472016 291.408919 
L 666.762123 289.118863 
L 668.052229 287.35876 
L 669.342336 286.179908 
L 670.632443 285.454703 
L 673.212656 284.552923 
L 674.502762 283.952163 
L 675.792869 282.951541 
L 677.082976 281.58776 
L 678.373082 280.387469 
L 680.940063 279.577642 
L 682.216938 278.512766 
L 683.493812 276.721327 
L 686.047561 272.164448 
L 687.324435 270.210108 
L 688.60131 268.796749 
L 689.878184 268.037131 
L 691.155058 267.463835 
L 692.431933 267.715016 
L 693.708807 268.458362 
L 694.985682 269.495046 
L 696.262556 270.739131 
L 697.53943 272.66516 
L 698.816305 273.745916 
L 701.370053 276.288635 
L 702.646928 277.214101 
L 703.923802 277.72172 
L 705.200677 278.101363 
L 706.477551 278.086148 
L 707.754425 277.702971 
L 709.0313 276.851222 
L 711.585049 274.091961 
L 712.861923 273.250173 
L 714.138797 273.424086 
L 715.415672 274.704615 
L 719.246295 280.814321 
L 720.523169 282.090665 
L 721.800044 283.055949 
L 724.353793 284.391216 
L 725.630667 284.837881 
L 726.907541 285.022971 
L 728.184416 285.45589 
L 729.46129 285.51004 
L 730.738165 285.851195 
L 732.015039 287.366314 
L 733.291913 289.891378 
L 734.568788 289.929435 
L 735.845662 287.717832 
L 737.122536 285.876389 
L 738.399411 284.763076 
L 739.676285 284.398813 
L 740.95316 285.010594 
L 742.230034 283.819591 
L 743.506908 281.767887 
L 744.783783 280.449706 
L 746.060657 278.063708 
L 747.337532 276.921316 
L 748.614406 274.818515 
L 749.89128 273.259583 
L 751.168155 273.217124 
L 752.445029 274.334822 
L 753.721904 274.508284 
L 754.998778 275.649407 
L 756.275652 275.955787 
L 757.552527 277.568761 
L 758.829401 276.488963 
L 760.106276 273.775669 
L 761.38315 273.453141 
L 762.660024 273.795443 
L 763.936899 276.404357 
L 765.213773 276.304542 
L 766.490647 253.799938 
L 767.767522 228.1689 
L 769.044396 210.532811 
L 770.321271 202.946451 
L 771.598145 200.992017 
L 772.875019 210.388686 
L 774.151894 224.244613 
L 775.428768 243.41601 
L 776.705643 258.73126 
L 777.982517 267.185867 
L 779.259391 260.539284 
L 780.536266 257.777966 
L 781.81314 257.884995 
L 783.090015 263.816979 
L 784.366889 273.2159 
L 785.643763 273.540021 
L 786.920638 272.82394 
L 788.197512 273.577039 
L 790.751261 272.883082 
L 792.028135 272.875406 
L 793.30501 273.039093 
L 794.581884 272.960939 
L 795.858759 272.029239 
L 797.135633 273.024558 
L 798.412507 272.393354 
L 799.689382 272.065533 
L 800.966256 272.364866 
L 802.24313 271.289429 
L 803.520005 271.933254 
L 806.073754 272.637251 
L 807.350628 274.274998 
L 808.627502 274.513082 
L 809.904377 274.952564 
L 811.181251 274.433617 
L 812.458126 274.617469 
L 813.735 273.265746 
L 813.735 273.265746 
" clip-path="url(#p1d183d4713)" style="fill: none; stroke: #9ecae1; stroke-width: 1.2; stroke-linecap: square"/>
   </g>
   <g id="line2d_31">
    <path d="M 447.444 243.948412 
L 448.734107 247.545065 
L 450.024213 248.458301 
L 451.31432 248.616607 
L 452.604426 249.852242 
L 453.894533 252.173929 
L 455.18464 250.373939 
L 456.474746 249.501563 
L 457.764853 249.77969 
L 459.054959 249.098179 
L 460.345066 251.181662 
L 462.925279 251.788588 
L 464.215386 253.55761 
L 465.505492 255.87636 
L 466.795599 257.799665 
L 468.085706 259.359349 
L 471.956025 265.071588 
L 473.246132 267.331346 
L 474.536239 270.23648 
L 475.826345 272.522097 
L 477.116452 276.859571 
L 478.406559 275.654613 
L 479.696665 255.210994 
L 480.986772 258.115045 
L 482.276878 263.209924 
L 483.566985 276.544841 
L 484.857092 275.236162 
L 487.437305 270.250195 
L 488.727411 269.855268 
L 490.017518 270.81784 
L 491.307625 270.580721 
L 492.597731 264.472265 
L 493.887838 223.103348 
L 495.177944 239.74132 
L 496.468051 259.889542 
L 499.048264 277.680727 
L 500.338371 281.713987 
L 501.628477 282.838554 
L 504.208691 284.359084 
L 505.498797 285.109995 
L 506.788904 285.993076 
L 508.07901 286.696834 
L 510.659224 287.88958 
L 511.94933 288.529361 
L 513.239437 288.937729 
L 514.529543 289.547488 
L 515.81965 289.569475 
L 517.109757 289.870265 
L 519.68997 290.26307 
L 520.980076 290.607565 
L 522.270183 290.741897 
L 523.56029 291.626076 
L 524.850396 293.113679 
L 526.140503 294.823781 
L 527.430609 294.260858 
L 528.720716 291.991231 
L 530.010823 290.429662 
L 531.300929 289.08772 
L 533.881143 287.544137 
L 537.751462 285.246871 
L 539.041569 284.390005 
L 540.331676 283.788599 
L 542.911889 281.882638 
L 544.201995 281.301268 
L 545.492102 280.424899 
L 546.782209 279.366422 
L 548.072315 279.268266 
L 549.362422 278.43665 
L 550.652528 278.47074 
L 551.942635 277.562118 
L 553.232742 274.477862 
L 554.522848 276.138306 
L 555.812955 277.469706 
L 557.103061 279.643795 
L 558.393168 280.507404 
L 559.683275 279.024733 
L 560.973381 278.190997 
L 562.263488 277.951691 
L 563.553594 279.474716 
L 564.843701 282.073295 
L 566.133808 283.185102 
L 567.423914 283.93572 
L 571.294234 286.553809 
L 572.584341 287.711151 
L 575.164554 289.800988 
L 576.45466 291.168553 
L 577.744767 293.192959 
L 579.034874 300.15636 
L 580.32498 301.368681 
L 581.615087 301.42765 
L 582.905193 301.247024 
L 585.485407 301.328678 
L 586.775513 301.194941 
L 589.355727 301.262685 
L 591.93594 301.048979 
L 593.226046 300.973014 
L 594.516153 300.704056 
L 595.80626 300.313853 
L 597.096366 299.503139 
L 598.386473 297.473571 
L 599.676579 291.608498 
L 602.256793 303.168474 
L 604.837006 292.086465 
L 606.127112 297.990244 
L 607.417219 300.068541 
L 608.707326 300.926574 
L 609.997432 301.38201 
L 611.287539 301.640271 
L 613.867752 301.825785 
L 616.447965 301.800329 
L 617.738072 301.599021 
L 620.318285 301.510411 
L 621.608392 301.189395 
L 624.188605 301.181974 
L 625.478711 300.929377 
L 626.768818 300.833992 
L 628.058925 297.266507 
L 629.349031 294.531237 
L 630.639138 293.654398 
L 633.219351 292.570687 
L 634.509458 292.463704 
L 637.089671 291.87534 
L 638.379777 291.6196 
L 639.669884 291.599016 
L 640.959991 291.232776 
L 642.250097 291.214412 
L 643.540204 290.789967 
L 644.830311 290.168564 
L 647.410524 286.781456 
L 648.70063 282.350132 
L 649.990737 279.358438 
L 651.280844 276.898656 
L 652.57095 275.313255 
L 653.861057 275.440523 
L 655.151163 277.109264 
L 656.44127 279.956321 
L 657.731377 283.596987 
L 659.021483 287.752623 
L 660.31159 291.268282 
L 661.601696 293.133536 
L 662.891803 293.59882 
L 664.18191 292.914846 
L 665.472016 291.265617 
L 666.762123 289.290814 
L 668.052229 287.743756 
L 669.342336 286.774895 
L 670.632443 286.187991 
L 673.212656 285.27956 
L 674.502762 284.6939 
L 675.792869 283.749878 
L 678.373082 281.321019 
L 680.940063 280.555932 
L 682.216938 279.552891 
L 683.493812 277.872727 
L 686.047561 273.659912 
L 687.324435 271.878525 
L 688.60131 270.647653 
L 689.878184 270.108163 
L 691.155058 269.689519 
L 692.431933 269.872883 
L 693.708807 270.631267 
L 696.262556 272.698544 
L 697.53943 274.440222 
L 702.646928 278.580119 
L 705.200677 279.305569 
L 706.477551 279.403047 
L 707.754425 279.168066 
L 709.0313 278.496375 
L 711.585049 276.159266 
L 712.861923 275.463863 
L 714.138797 275.642308 
L 715.415672 276.743709 
L 717.969421 280.238206 
L 719.246295 281.497123 
L 720.523169 282.075717 
L 721.800044 282.24971 
L 723.076918 282.296664 
L 724.353793 281.521746 
L 725.630667 280.936317 
L 728.184416 277.206873 
L 729.46129 273.74347 
L 730.738165 267.266022 
L 732.015039 258.701704 
L 733.291913 234.564163 
L 734.568788 274.457558 
L 735.845662 278.381118 
L 737.122536 278.966636 
L 738.399411 279.198198 
L 739.676285 279.967205 
L 740.95316 282.424346 
L 742.230034 284.412354 
L 743.506908 284.092843 
L 744.783783 283.458992 
L 746.060657 282.570226 
L 748.614406 281.214622 
L 749.89128 280.554355 
L 751.168155 280.680726 
L 752.445029 281.20578 
L 753.721904 281.259377 
L 754.998778 281.880307 
L 756.275652 281.645903 
L 757.552527 280.88126 
L 758.829401 275.013899 
L 760.106276 270.783446 
L 761.38315 267.962504 
L 762.660024 263.515208 
L 763.936899 252.233845 
L 765.213773 207.323559 
L 766.490647 253.644567 
L 767.767522 269.015322 
L 769.044396 272.935647 
L 770.321271 272.349994 
L 771.598145 271.051075 
L 772.875019 270.334686 
L 774.151894 271.075516 
L 775.428768 273.371132 
L 776.705643 275.410948 
L 777.982517 273.711185 
L 779.259391 259.574695 
L 780.536266 255.454555 
L 781.81314 252.70783 
L 783.090015 252.24522 
L 784.366889 268.50732 
L 785.643763 267.519741 
L 789.474387 262.460222 
L 790.751261 260.02326 
L 792.028135 258.800346 
L 793.30501 257.229455 
L 794.581884 256.489256 
L 797.135633 252.508532 
L 798.412507 251.901965 
L 799.689382 250.102644 
L 800.966256 250.104629 
L 802.24313 249.085256 
L 803.520005 249.584755 
L 804.796879 248.89429 
L 806.073754 249.136045 
L 807.350628 251.402627 
L 808.627502 248.909539 
L 809.904377 247.442472 
L 811.181251 247.599548 
L 812.458126 246.58442 
L 813.735 243.948412 
L 813.735 243.948412 
" clip-path="url(#p1d183d4713)" style="fill: none; stroke: #636363; stroke-width: 1.7; stroke-linecap: square"/>
   </g>
   <g id="line2d_32">
    <path d="M 602.256793 303.32 
L 602.256793 76.488 
" clip-path="url(#p1d183d4713)" style="fill: none; stroke: #dddddd; stroke-width: 0.6; stroke-linecap: square"/>
   </g>
   <g id="line2d_33">
    <path d="M 679.663189 303.32 
L 679.663189 76.488 
" clip-path="url(#p1d183d4713)" style="fill: none; stroke: #dddddd; stroke-width: 0.6; stroke-linecap: square"/>
   </g>
   <g id="patch_8">
    <path d="M 447.444 303.32 
L 447.444 76.488 
" style="fill: none; stroke: #000000; stroke-width: 0.8; stroke-linejoin: miter; stroke-linecap: square"/>
   </g>
   <g id="patch_9">
    <path d="M 813.735 303.32 
L 813.735 76.488 
" style="fill: none; stroke: #000000; stroke-width: 0.8; stroke-linejoin: miter; stroke-linecap: square"/>
   </g>
   <g id="patch_10">
    <path d="M 447.444 303.32 
L 813.735 303.32 
" style="fill: none; stroke: #000000; stroke-width: 0.8; stroke-linejoin: miter; stroke-linecap: square"/>
   </g>
   <g id="patch_11">
    <path d="M 447.444 76.488 
L 813.735 76.488 
" style="fill: none; stroke: #000000; stroke-width: 0.8; stroke-linejoin: miter; stroke-linecap: square"/>
   </g>
   <g id="text_28">
    <!-- lowest CB  —  O$_S$ -->
    <g transform="translate(583.9495 70.488) scale(0.11 -0.11)">
     <defs>
      <path id="DejaVuSans-6c" d="M 603 4863 
L 1178 4863 
L 1178 0 
L 603 0 
L 603 4863 
z
" transform="scale(0.015625)"/>
     </defs>
     <use xlink:href="#DejaVuSans-6c" transform="translate(0 0.015625)"/>
     <use xlink:href="#DejaVuSans-6f" transform="translate(27.783203 0.015625)"/>
     <use xlink:href="#DejaVuSans-77" transform="translate(88.964844 0.015625)"/>
     <use xlink:href="#DejaVuSans-65" transform="translate(170.751953 0.015625)"/>
     <use xlink:href="#DejaVuSans-73" transform="translate(232.275391 0.015625)"/>
     <use xlink:href="#DejaVuSans-74" transform="translate(284.375 0.015625)"/>
     <use xlink:href="#DejaVuSans-20" transform="translate(323.583984 0.015625)"/>
     <use xlink:href="#DejaVuSans-43" transform="translate(355.371094 0.015625)"/>
     <use xlink:href="#DejaVuSans-42" transform="translate(425.195312 0.015625)"/>
     <use xlink:href="#DejaVuSans-20" transform="translate(493.798828 0.015625)"/>
     <use xlink:href="#DejaVuSans-20" transform="translate(525.585938 0.015625)"/>
     <use xlink:href="#DejaVuSansDisplay-2014" transform="translate(557.373047 0.015625)"/>
     <use xlink:href="#DejaVuSans-20" transform="translate(657.373047 0.015625)"/>
     <use xlink:href="#DejaVuSans-20" transform="translate(689.160156 0.015625)"/>
     <use xlink:href="#DejaVuSans-4f" transform="translate(720.947266 0.015625)"/>
     <use xlink:href="#DejaVuSans-Oblique-53" transform="translate(800.615234 -16.390625) scale(0.7)"/>
    </g>
   </g>
   <g id="legend_2">
    <g id="line2d_34">
     <path d="M 648.495 88.048 
L 656.995 88.048 
L 665.495 88.048 
" style="fill: none; stroke: #9ecae1; stroke-width: 1.2; stroke-linecap: square"/>
    </g>
    <g id="text_29">
     <!-- with 4$\tilde\chi/k$ (A1-cured, reference) -->
     <g transform="translate(672.295 91.023) scale(0.085 -0.085)">
      <use xlink:href="#DejaVuSans-77"/>
      <use xlink:href="#DejaVuSans-69" transform="translate(81.787109 0)"/>
      <use xlink:href="#DejaVuSans-74" transform="translate(109.570312 0)"/>
      <use xlink:href="#DejaVuSans-68" transform="translate(148.779297 0)"/>
      <use xlink:href="#DejaVuSans-20" transform="translate(212.158203 0)"/>
      <use xlink:href="#DejaVuSans-34" transform="translate(243.945312 0)"/>
      <use xlink:href="#DejaVuSans-303" transform="translate(374.447266 3.3125)"/>
      <use xlink:href="#DejaVuSans-Oblique-3c7" transform="translate(307.568359 0)"/>
      <use xlink:href="#DejaVuSans-2f" transform="translate(374.208984 0)"/>
      <use xlink:href="#DejaVuSans-Oblique-6b" transform="translate(407.900391 0)"/>
      <use xlink:href="#DejaVuSans-20" transform="translate(465.810547 0)"/>
      <use xlink:href="#DejaVuSans-28" transform="translate(497.597656 0)"/>
      <use xlink:href="#DejaVuSans-41" transform="translate(536.611328 0)"/>
      <use xlink:href="#DejaVuSans-31" transform="translate(605.019531 0)"/>
      <use xlink:href="#DejaVuSans-2d" transform="translate(668.642578 0)"/>
      <use xlink:href="#DejaVuSans-63" transform="translate(704.726562 0)"/>
      <use xlink:href="#DejaVuSans-75" transform="translate(759.707031 0)"/>
      <use xlink:href="#DejaVuSans-72" transform="translate(823.085938 0)"/>
      <use xlink:href="#DejaVuSans-65" transform="translate(864.199219 0)"/>
      <use xlink:href="#DejaVuSans-64" transform="translate(925.722656 0)"/>
      <use xlink:href="#DejaVuSans-2c" transform="translate(989.199219 0)"/>
      <use xlink:href="#DejaVuSans-20" transform="translate(1020.986328 0)"/>
      <use xlink:href="#DejaVuSans-72" transform="translate(1052.773438 0)"/>
      <use xlink:href="#DejaVuSans-65" transform="translate(1093.886719 0)"/>
      <use xlink:href="#DejaVuSans-66" transform="translate(1155.410156 0)"/>
      <use xlink:href="#DejaVuSans-65" transform="translate(1190.615234 0)"/>
      <use xlink:href="#DejaVuSans-72" transform="translate(1252.138672 0)"/>
      <use xlink:href="#DejaVuSans-65" transform="translate(1293.251953 0)"/>
      <use xlink:href="#DejaVuSans-6e" transform="translate(1354.775391 0)"/>
      <use xlink:href="#DejaVuSans-63" transform="translate(1418.154297 0)"/>
      <use xlink:href="#DejaVuSans-65" transform="translate(1473.134766 0)"/>
      <use xlink:href="#DejaVuSans-29" transform="translate(1534.658203 0)"/>
     </g>
    </g>
    <g id="line2d_35">
     <path d="M 648.495 100.968 
L 656.995 100.968 
L 665.495 100.968 
" style="fill: none; stroke: #636363; stroke-width: 1.7; stroke-linecap: square"/>
    </g>
    <g id="text_30">
     <!-- NC without $\tilde\chi$ (uncured) -->
     <g transform="translate(672.295 103.943) scale(0.085 -0.085)">
      <use xlink:href="#DejaVuSans-4e"/>
      <use xlink:href="#DejaVuSans-43" transform="translate(74.804688 0)"/>
      <use xlink:href="#DejaVuSans-20" transform="translate(144.628906 0)"/>
      <use xlink:href="#DejaVuSans-77" transform="translate(176.416016 0)"/>
      <use xlink:href="#DejaVuSans-69" transform="translate(258.203125 0)"/>
      <use xlink:href="#DejaVuSans-74" transform="translate(285.986328 0)"/>
      <use xlink:href="#DejaVuSans-68" transform="translate(325.195312 0)"/>
      <use xlink:href="#DejaVuSans-6f" transform="translate(388.574219 0)"/>
      <use xlink:href="#DejaVuSans-75" transform="translate(449.755859 0)"/>
      <use xlink:href="#DejaVuSans-74" transform="translate(513.134766 0)"/>
      <use xlink:href="#DejaVuSans-20" transform="translate(552.34375 0)"/>
      <use xlink:href="#DejaVuSans-303" transform="translate(651.009766 3.3125)"/>
      <use xlink:href="#DejaVuSans-Oblique-3c7" transform="translate(584.130859 0)"/>
      <use xlink:href="#DejaVuSans-20" transform="translate(650.771484 0)"/>
      <use xlink:href="#DejaVuSans-28" transform="translate(682.558594 0)"/>
      <use xlink:href="#DejaVuSans-75" transform="translate(721.572266 0)"/>
      <use xlink:href="#DejaVuSans-6e" transform="translate(784.951172 0)"/>
      <use xlink:href="#DejaVuSans-63" transform="translate(848.330078 0)"/>
      <use xlink:href="#DejaVuSans-75" transform="translate(903.310547 0)"/>
      <use xlink:href="#DejaVuSans-72" transform="translate(966.689453 0)"/>
      <use xlink:href="#DejaVuSans-65" transform="translate(1007.802734 0)"/>
      <use xlink:href="#DejaVuSans-64" transform="translate(1069.326172 0)"/>
      <use xlink:href="#DejaVuSans-29" transform="translate(1132.802734 0)"/>
     </g>
    </g>
   </g>
  </g>
  <g id="text_31">
   <!-- NC pseudopotential without augmentation: on-shell rates along $\Gamma$–K–M–$\Gamma$ ($480^2$, $\eta$=2 meV, $c$=1/36) -->
   <g transform="translate(142.41 16.634) scale(0.11 -0.11)">
    <defs>
     <path id="DejaVuSans-70" d="M 1159 525 
L 1159 -1331 
L 581 -1331 
L 581 3500 
L 1159 3500 
L 1159 2969 
Q 1341 3281 1617 3432 
Q 1894 3584 2278 3584 
Q 2916 3584 3314 3078 
Q 3713 2572 3713 1747 
Q 3713 922 3314 415 
Q 2916 -91 2278 -91 
Q 1894 -91 1617 61 
Q 1341 213 1159 525 
z
M 3116 1747 
Q 3116 2381 2855 2742 
Q 2594 3103 2138 3103 
Q 1681 3103 1420 2742 
Q 1159 2381 1159 1747 
Q 1159 1113 1420 752 
Q 1681 391 2138 391 
Q 2594 391 2855 752 
Q 3116 1113 3116 1747 
z
" transform="scale(0.015625)"/>
     <path id="DejaVuSans-61" d="M 2194 1759 
Q 1497 1759 1228 1600 
Q 959 1441 959 1056 
Q 959 750 1161 570 
Q 1363 391 1709 391 
Q 2188 391 2477 730 
Q 2766 1069 2766 1631 
L 2766 1759 
L 2194 1759 
z
M 3341 1997 
L 3341 0 
L 2766 0 
L 2766 531 
Q 2569 213 2275 61 
Q 1981 -91 1556 -91 
Q 1019 -91 701 211 
Q 384 513 384 1019 
Q 384 1609 779 1909 
Q 1175 2209 1959 2209 
L 2766 2209 
L 2766 2266 
Q 2766 2663 2505 2880 
Q 2244 3097 1772 3097 
Q 1472 3097 1187 3025 
Q 903 2953 641 2809 
L 641 3341 
Q 956 3463 1253 3523 
Q 1550 3584 1831 3584 
Q 2591 3584 2966 3190 
Q 3341 2797 3341 1997 
z
" transform="scale(0.015625)"/>
     <path id="DejaVuSans-3a" d="M 750 794 
L 1409 794 
L 1409 0 
L 750 0 
L 750 794 
z
M 750 3309 
L 1409 3309 
L 1409 2516 
L 750 2516 
L 750 3309 
z
" transform="scale(0.015625)"/>
     <path id="DejaVuSansDisplay-2013" d="M 313 1978 
L 2888 1978 
L 2888 1528 
L 313 1528 
L 313 1978 
z
" transform="scale(0.015625)"/>
     <path id="DejaVuSans-Oblique-3b7" d="M 3703 2113 
L 3034 -1331 
L 2459 -1331 
L 3125 2094 
Q 3222 2591 3075 2838 
Q 2931 3084 2544 3084 
Q 2078 3084 1750 2788 
Q 1425 2491 1325 1978 
L 941 0 
L 363 0 
L 1044 3500 
L 1622 3500 
L 1516 2956 
Q 1781 3272 2094 3428 
Q 2403 3584 2769 3584 
Q 3372 3584 3609 3213 
Q 3844 2838 3703 2113 
z
" transform="scale(0.015625)"/>
     <path id="DejaVuSans-3d" d="M 678 2906 
L 4684 2906 
L 4684 2381 
L 678 2381 
L 678 2906 
z
M 678 1631 
L 4684 1631 
L 4684 1100 
L 678 1100 
L 678 1631 
z
" transform="scale(0.015625)"/>
     <path id="DejaVuSans-Oblique-63" d="M 3431 3366 
L 3316 2797 
Q 3109 2947 2876 3022 
Q 2644 3097 2394 3097 
Q 2119 3097 1870 3000 
Q 1622 2903 1453 2725 
Q 1184 2453 1037 2087 
Q 891 1722 891 1331 
Q 891 859 1127 628 
Q 1363 397 1844 397 
Q 2081 397 2348 469 
Q 2616 541 2906 684 
L 2797 116 
Q 2547 13 2283 -39 
Q 2019 -91 1741 -91 
Q 1044 -91 669 257 
Q 294 606 294 1253 
Q 294 1797 489 2255 
Q 684 2713 1069 3078 
Q 1331 3328 1684 3456 
Q 2038 3584 2456 3584 
Q 2700 3584 2940 3529 
Q 3181 3475 3431 3366 
z
" transform="scale(0.015625)"/>
    </defs>
    <use xlink:href="#DejaVuSans-4e" transform="translate(0 0.765625)"/>
    <use xlink:href="#DejaVuSans-43" transform="translate(74.804688 0.765625)"/>
    <use xlink:href="#DejaVuSans-20" transform="translate(144.628906 0.765625)"/>
    <use xlink:href="#DejaVuSans-70" transform="translate(176.416016 0.765625)"/>
    <use xlink:href="#DejaVuSans-73" transform="translate(239.892578 0.765625)"/>
    <use xlink:href="#DejaVuSans-65" transform="translate(291.992188 0.765625)"/>
    <use xlink:href="#DejaVuSans-75" transform="translate(353.515625 0.765625)"/>
    <use xlink:href="#DejaVuSans-64" transform="translate(416.894531 0.765625)"/>
    <use xlink:href="#DejaVuSans-6f" transform="translate(480.371094 0.765625)"/>
    <use xlink:href="#DejaVuSans-70" transform="translate(541.552734 0.765625)"/>
    <use xlink:href="#DejaVuSans-6f" transform="translate(605.029297 0.765625)"/>
    <use xlink:href="#DejaVuSans-74" transform="translate(666.210938 0.765625)"/>
    <use xlink:href="#DejaVuSans-65" transform="translate(705.419922 0.765625)"/>
    <use xlink:href="#DejaVuSans-6e" transform="translate(766.943359 0.765625)"/>
    <use xlink:href="#DejaVuSans-74" transform="translate(830.322266 0.765625)"/>
    <use xlink:href="#DejaVuSans-69" transform="translate(869.53125 0.765625)"/>
    <use xlink:href="#DejaVuSans-61" transform="translate(897.314453 0.765625)"/>
    <use xlink:href="#DejaVuSans-6c" transform="translate(958.59375 0.765625)"/>
    <use xlink:href="#DejaVuSans-20" transform="translate(986.376953 0.765625)"/>
    <use xlink:href="#DejaVuSans-77" transform="translate(1018.164062 0.765625)"/>
    <use xlink:href="#DejaVuSans-69" transform="translate(1099.951172 0.765625)"/>
    <use xlink:href="#DejaVuSans-74" transform="translate(1127.734375 0.765625)"/>
    <use xlink:href="#DejaVuSans-68" transform="translate(1166.943359 0.765625)"/>
    <use xlink:href="#DejaVuSans-6f" transform="translate(1230.322266 0.765625)"/>
    <use xlink:href="#DejaVuSans-75" transform="translate(1291.503906 0.765625)"/>
    <use xlink:href="#DejaVuSans-74" transform="translate(1354.882812 0.765625)"/>
    <use xlink:href="#DejaVuSans-20" transform="translate(1394.091797 0.765625)"/>
    <use xlink:href="#DejaVuSans-61" transform="translate(1425.878906 0.765625)"/>
    <use xlink:href="#DejaVuSans-75" transform="translate(1487.158203 0.765625)"/>
    <use xlink:href="#DejaVuSans-67" transform="translate(1550.537109 0.765625)"/>
    <use xlink:href="#DejaVuSans-6d" transform="translate(1614.013672 0.765625)"/>
    <use xlink:href="#DejaVuSans-65" transform="translate(1711.425781 0.765625)"/>
    <use xlink:href="#DejaVuSans-6e" transform="translate(1772.949219 0.765625)"/>
    <use xlink:href="#DejaVuSans-74" transform="translate(1836.328125 0.765625)"/>
    <use xlink:href="#DejaVuSans-61" transform="translate(1875.537109 0.765625)"/>
    <use xlink:href="#DejaVuSans-74" transform="translate(1936.816406 0.765625)"/>
    <use xlink:href="#DejaVuSans-69" transform="translate(1976.025391 0.765625)"/>
    <use xlink:href="#DejaVuSans-6f" transform="translate(2003.808594 0.765625)"/>
    <use xlink:href="#DejaVuSans-6e" transform="translate(2064.990234 0.765625)"/>
    <use xlink:href="#DejaVuSans-3a" transform="translate(2128.369141 0.765625)"/>
    <use xlink:href="#DejaVuSans-20" transform="translate(2162.060547 0.765625)"/>
    <use xlink:href="#DejaVuSans-6f" transform="translate(2193.847656 0.765625)"/>
    <use xlink:href="#DejaVuSans-6e" transform="translate(2255.029297 0.765625)"/>
    <use xlink:href="#DejaVuSans-2d" transform="translate(2318.408203 0.765625)"/>
    <use xlink:href="#DejaVuSans-73" transform="translate(2354.492188 0.765625)"/>
    <use xlink:href="#DejaVuSans-68" transform="translate(2406.591797 0.765625)"/>
    <use xlink:href="#DejaVuSans-65" transform="translate(2469.970703 0.765625)"/>
    <use xlink:href="#DejaVuSans-6c" transform="translate(2531.494141 0.765625)"/>
    <use xlink:href="#DejaVuSans-6c" transform="translate(2559.277344 0.765625)"/>
    <use xlink:href="#DejaVuSans-20" transform="translate(2587.060547 0.765625)"/>
    <use xlink:href="#DejaVuSans-72" transform="translate(2618.847656 0.765625)"/>
    <use xlink:href="#DejaVuSans-61" transform="translate(2659.960938 0.765625)"/>
    <use xlink:href="#DejaVuSans-74" transform="translate(2721.240234 0.765625)"/>
    <use xlink:href="#DejaVuSans-65" transform="translate(2760.449219 0.765625)"/>
    <use xlink:href="#DejaVuSans-73" transform="translate(2821.972656 0.765625)"/>
    <use xlink:href="#DejaVuSans-20" transform="translate(2874.072266 0.765625)"/>
    <use xlink:href="#DejaVuSans-61" transform="translate(2905.859375 0.765625)"/>
    <use xlink:href="#DejaVuSans-6c" transform="translate(2967.138672 0.765625)"/>
    <use xlink:href="#DejaVuSans-6f" transform="translate(2994.921875 0.765625)"/>
    <use xlink:href="#DejaVuSans-6e" transform="translate(3056.103516 0.765625)"/>
    <use xlink:href="#DejaVuSans-67" transform="translate(3119.482422 0.765625)"/>
    <use xlink:href="#DejaVuSans-20" transform="translate(3182.958984 0.765625)"/>
    <use xlink:href="#DejaVuSans-393" transform="translate(3214.746094 0.765625)"/>
    <use xlink:href="#DejaVuSansDisplay-2013" transform="translate(3270.458984 0.765625)"/>
    <use xlink:href="#DejaVuSans-4b" transform="translate(3320.458984 0.765625)"/>
    <use xlink:href="#DejaVuSansDisplay-2013" transform="translate(3386.035156 0.765625)"/>
    <use xlink:href="#DejaVuSans-4d" transform="translate(3436.035156 0.765625)"/>
    <use xlink:href="#DejaVuSansDisplay-2013" transform="translate(3522.314453 0.765625)"/>
    <use xlink:href="#DejaVuSans-393" transform="translate(3572.314453 0.765625)"/>
    <use xlink:href="#DejaVuSans-20" transform="translate(3628.027344 0.765625)"/>
    <use xlink:href="#DejaVuSans-28" transform="translate(3659.814453 0.765625)"/>
    <use xlink:href="#DejaVuSans-34" transform="translate(3698.828125 0.765625)"/>
    <use xlink:href="#DejaVuSans-38" transform="translate(3762.451172 0.765625)"/>
    <use xlink:href="#DejaVuSans-30" transform="translate(3826.074219 0.765625)"/>
    <use xlink:href="#DejaVuSans-32" transform="translate(3890.654297 39.046875) scale(0.7)"/>
    <use xlink:href="#DejaVuSans-2c" transform="translate(3937.924805 0.765625)"/>
    <use xlink:href="#DejaVuSans-20" transform="translate(3969.711914 0.765625)"/>
    <use xlink:href="#DejaVuSans-Oblique-3b7" transform="translate(4001.499023 0.765625)"/>
    <use xlink:href="#DejaVuSans-3d" transform="translate(4064.87793 0.765625)"/>
    <use xlink:href="#DejaVuSans-32" transform="translate(4148.666992 0.765625)"/>
    <use xlink:href="#DejaVuSans-20" transform="translate(4212.290039 0.765625)"/>
    <use xlink:href="#DejaVuSans-6d" transform="translate(4244.077148 0.765625)"/>
    <use xlink:href="#DejaVuSans-65" transform="translate(4341.489258 0.765625)"/>
    <use xlink:href="#DejaVuSans-56" transform="translate(4403.012695 0.765625)"/>
    <use xlink:href="#DejaVuSans-2c" transform="translate(4471.420898 0.765625)"/>
    <use xlink:href="#DejaVuSans-20" transform="translate(4503.208008 0.765625)"/>
    <use xlink:href="#DejaVuSans-Oblique-63" transform="translate(4534.995117 0.765625)"/>
    <use xlink:href="#DejaVuSans-3d" transform="translate(4589.975586 0.765625)"/>
    <use xlink:href="#DejaVuSans-31" transform="translate(4673.764648 0.765625)"/>
    <use xlink:href="#DejaVuSans-2f" transform="translate(4737.387695 0.765625)"/>
    <use xlink:href="#DejaVuSans-33" transform="translate(4771.079102 0.765625)"/>
    <use xlink:href="#DejaVuSans-36" transform="translate(4834.702148 0.765625)"/>
    <use xlink:href="#DejaVuSans-29" transform="translate(4898.325195 0.765625)"/>
   </g>
  </g>
 </g>
 <defs>
  <clipPath id="pb2b924ad35">
   <rect x="47.108" y="76.488" width="366.291" height="226.832"/>
  </clipPath>
  <clipPath id="p1d183d4713">
   <rect x="447.444" y="76.488" width="366.291" height="226.832"/>
  </clipPath>
 </defs>
</svg>
