<?xml version="1.0" encoding="utf-8" standalone="no"?>
<!DOCTYPE svg PUBLIC "-//W3C//DTD SVG 1.1//EN"
  "http://www.w3.org/Graphics/SVG/1.1/DTD/svg11.dtd">
<svg xmlns:xlink="http://www.w3.org/1999/xlink" width="619.2pt" height="309.6pt" viewBox="0 0 619.2 309.6" xmlns="http://www.w3.org/2000/svg" version="1.1">
 <metadata>
  <rdf:RDF xmlns:dc="http://purl.org/dc/elements/1.1/" xmlns:cc="http://creativecommons.org/ns#" xmlns:rdf="http://www.w3.org/1999/02/22-rdf-syntax-ns#">
   <cc:Work>
    <dc:type rdf:resource="http://purl.org/dc/dcmitype/StillImage"/>
    <dc:date>2026-07-13T23:15:24.983778</dc:date>
    <dc:format>image/svg+xml</dc:format>
    <dc:creator>
     <cc:Agent>
      <dc:title>Matplotlib v3.10.8, https://matplotlib.org/</dc:title>
     </cc:Agent>
    </dc:creator>
   </cc:Work>
  </rdf:RDF>
 </metadata>
 <defs>
  <style type="text/css">*{stroke-linejoin: round; stroke-linecap: butt}</style>
 </defs>
 <g id="figure_1">
  <g id="patch_1">
   <path d="M 0 309.6 
L 619.2 309.6 
L 619.2 0 
L 0 0 
z
" style="fill: #ffffff"/>
  </g>
  <g id="axes_1">
   <g id="patch_2">
    <path d="M 39.58149 276.24351 
L 616.19976 276.24351 
L 616.19976 16.22024 
L 39.58149 16.22024 
z
" style="fill: #ffffff"/>
   </g>
   <g id="matplotlib.axis_1">
    <g id="xtick_1">
     <g id="line2d_1">
      <defs>
       <path id="m4fc8a9e916" d="M 0 0 
L 0 3.5 
" style="stroke: #000000; stroke-width: 0.8"/>
      </defs>
      <g>
       <use xlink:href="#m4fc8a9e916" x="39.58149" y="276.24351" style="stroke: #000000; stroke-width: 0.8"/>
      </g>
     </g>
     <g id="text_1">
      <!-- 1.75 -->
      <g transform="translate(28.448678 290.841947) scale(0.1 -0.1)">
       <defs>
        <path id="DejaVuSans-31" d="M 794 531 
L 1825 531 
L 1825 4091 
L 703 3866 
L 703 4441 
L 1819 4666 
L 2450 4666 
L 2450 531 
L 3481 531 
L 3481 0 
L 794 0 
L 794 531 
z
" transform="scale(0.015625)"/>
        <path id="DejaVuSans-2e" d="M 684 794 
L 1344 794 
L 1344 0 
L 684 0 
L 684 794 
z
" transform="scale(0.015625)"/>
        <path id="DejaVuSans-37" d="M 525 4666 
L 3525 4666 
L 3525 4397 
L 1831 0 
L 1172 0 
L 2766 4134 
L 525 4134 
L 525 4666 
z
" transform="scale(0.015625)"/>
        <path id="DejaVuSans-35" d="M 691 4666 
L 3169 4666 
L 3169 4134 
L 1269 4134 
L 1269 2991 
Q 1406 3038 1543 3061 
Q 1681 3084 1819 3084 
Q 2600 3084 3056 2656 
Q 3513 2228 3513 1497 
Q 3513 744 3044 326 
Q 2575 -91 1722 -91 
Q 1428 -91 1123 -41 
Q 819 9 494 109 
L 494 744 
Q 775 591 1075 516 
Q 1375 441 1709 441 
Q 2250 441 2565 725 
Q 2881 1009 2881 1497 
Q 2881 1984 2565 2268 
Q 2250 2553 1709 2553 
Q 1456 2553 1204 2497 
Q 953 2441 691 2322 
L 691 4666 
z
" transform="scale(0.015625)"/>
       </defs>
       <use xlink:href="#DejaVuSans-31"/>
       <use xlink:href="#DejaVuSans-2e" transform="translate(63.623047 0)"/>
       <use xlink:href="#DejaVuSans-37" transform="translate(95.410156 0)"/>
       <use xlink:href="#DejaVuSans-35" transform="translate(159.033203 0)"/>
      </g>
     </g>
    </g>
    <g id="xtick_2">
     <g id="line2d_2">
      <g>
       <use xlink:href="#m4fc8a9e916" x="117.502878" y="276.24351" style="stroke: #000000; stroke-width: 0.8"/>
      </g>
     </g>
     <g id="text_2">
      <!-- 1.80 -->
      <g transform="translate(106.370065 290.841947) scale(0.1 -0.1)">
       <defs>
        <path id="DejaVuSans-38" d="M 2034 2216 
Q 1584 2216 1326 1975 
Q 1069 1734 1069 1313 
Q 1069 891 1326 650 
Q 1584 409 2034 409 
Q 2484 409 2743 651 
Q 3003 894 3003 1313 
Q 3003 1734 2745 1975 
Q 2488 2216 2034 2216 
z
M 1403 2484 
Q 997 2584 770 2862 
Q 544 3141 544 3541 
Q 544 4100 942 4425 
Q 1341 4750 2034 4750 
Q 2731 4750 3128 4425 
Q 3525 4100 3525 3541 
Q 3525 3141 3298 2862 
Q 3072 2584 2669 2484 
Q 3125 2378 3379 2068 
Q 3634 1759 3634 1313 
Q 3634 634 3220 271 
Q 2806 -91 2034 -91 
Q 1263 -91 848 271 
Q 434 634 434 1313 
Q 434 1759 690 2068 
Q 947 2378 1403 2484 
z
M 1172 3481 
Q 1172 3119 1398 2916 
Q 1625 2713 2034 2713 
Q 2441 2713 2670 2916 
Q 2900 3119 2900 3481 
Q 2900 3844 2670 4047 
Q 2441 4250 2034 4250 
Q 1625 4250 1398 4047 
Q 1172 3844 1172 3481 
z
" transform="scale(0.015625)"/>
        <path id="DejaVuSans-30" d="M 2034 4250 
Q 1547 4250 1301 3770 
Q 1056 3291 1056 2328 
Q 1056 1369 1301 889 
Q 1547 409 2034 409 
Q 2525 409 2770 889 
Q 3016 1369 3016 2328 
Q 3016 3291 2770 3770 
Q 2525 4250 2034 4250 
z
M 2034 4750 
Q 2819 4750 3233 4129 
Q 3647 3509 3647 2328 
Q 3647 1150 3233 529 
Q 2819 -91 2034 -91 
Q 1250 -91 836 529 
Q 422 1150 422 2328 
Q 422 3509 836 4129 
Q 1250 4750 2034 4750 
z
" transform="scale(0.015625)"/>
       </defs>
       <use xlink:href="#DejaVuSans-31"/>
       <use xlink:href="#DejaVuSans-2e" transform="translate(63.623047 0)"/>
       <use xlink:href="#DejaVuSans-38" transform="translate(95.410156 0)"/>
       <use xlink:href="#DejaVuSans-30" transform="translate(159.033203 0)"/>
      </g>
     </g>
    </g>
    <g id="xtick_3">
     <g id="line2d_3">
      <g>
       <use xlink:href="#m4fc8a9e916" x="195.424266" y="276.24351" style="stroke: #000000; stroke-width: 0.8"/>
      </g>
     </g>
     <g id="text_3">
      <!-- 1.85 -->
      <g transform="translate(184.291453 290.841947) scale(0.1 -0.1)">
       <use xlink:href="#DejaVuSans-31"/>
       <use xlink:href="#DejaVuSans-2e" transform="translate(63.623047 0)"/>
       <use xlink:href="#DejaVuSans-38" transform="translate(95.410156 0)"/>
       <use xlink:href="#DejaVuSans-35" transform="translate(159.033203 0)"/>
      </g>
     </g>
    </g>
    <g id="xtick_4">
     <g id="line2d_4">
      <g>
       <use xlink:href="#m4fc8a9e916" x="273.345654" y="276.24351" style="stroke: #000000; stroke-width: 0.8"/>
      </g>
     </g>
     <g id="text_4">
      <!-- 1.90 -->
      <g transform="translate(262.212841 290.841947) scale(0.1 -0.1)">
       <defs>
        <path id="DejaVuSans-39" d="M 703 97 
L 703 672 
Q 941 559 1184 500 
Q 1428 441 1663 441 
Q 2288 441 2617 861 
Q 2947 1281 2994 2138 
Q 2813 1869 2534 1725 
Q 2256 1581 1919 1581 
Q 1219 1581 811 2004 
Q 403 2428 403 3163 
Q 403 3881 828 4315 
Q 1253 4750 1959 4750 
Q 2769 4750 3195 4129 
Q 3622 3509 3622 2328 
Q 3622 1225 3098 567 
Q 2575 -91 1691 -91 
Q 1453 -91 1209 -44 
Q 966 3 703 97 
z
M 1959 2075 
Q 2384 2075 2632 2365 
Q 2881 2656 2881 3163 
Q 2881 3666 2632 3958 
Q 2384 4250 1959 4250 
Q 1534 4250 1286 3958 
Q 1038 3666 1038 3163 
Q 1038 2656 1286 2365 
Q 1534 2075 1959 2075 
z
" transform="scale(0.015625)"/>
       </defs>
       <use xlink:href="#DejaVuSans-31"/>
       <use xlink:href="#DejaVuSans-2e" transform="translate(63.623047 0)"/>
       <use xlink:href="#DejaVuSans-39" transform="translate(95.410156 0)"/>
       <use xlink:href="#DejaVuSans-30" transform="translate(159.033203 0)"/>
      </g>
     </g>
    </g>
    <g id="xtick_5">
     <g id="line2d_5">
      <g>
       <use xlink:href="#m4fc8a9e916" x="351.267041" y="276.24351" style="stroke: #000000; stroke-width: 0.8"/>
      </g>
     </g>
     <g id="text_5">
      <!-- 1.95 -->
      <g transform="translate(340.134229 290.841947) scale(0.1 -0.1)">
       <use xlink:href="#DejaVuSans-31"/>
       <use xlink:href="#DejaVuSans-2e" transform="translate(63.623047 0)"/>
       <use xlink:href="#DejaVuSans-39" transform="translate(95.410156 0)"/>
       <use xlink:href="#DejaVuSans-35" transform="translate(159.033203 0)"/>
      </g>
     </g>
    </g>
    <g id="xtick_6">
     <g id="line2d_6">
      <g>
       <use xlink:href="#m4fc8a9e916" x="429.188429" y="276.24351" style="stroke: #000000; stroke-width: 0.8"/>
      </g>
     </g>
     <g id="text_6">
      <!-- 2.00 -->
      <g transform="translate(418.055617 290.841947) scale(0.1 -0.1)">
       <defs>
        <path id="DejaVuSans-32" d="M 1228 531 
L 3431 531 
L 3431 0 
L 469 0 
L 469 531 
Q 828 903 1448 1529 
Q 2069 2156 2228 2338 
Q 2531 2678 2651 2914 
Q 2772 3150 2772 3378 
Q 2772 3750 2511 3984 
Q 2250 4219 1831 4219 
Q 1534 4219 1204 4116 
Q 875 4013 500 3803 
L 500 4441 
Q 881 4594 1212 4672 
Q 1544 4750 1819 4750 
Q 2544 4750 2975 4387 
Q 3406 4025 3406 3419 
Q 3406 3131 3298 2873 
Q 3191 2616 2906 2266 
Q 2828 2175 2409 1742 
Q 1991 1309 1228 531 
z
" transform="scale(0.015625)"/>
       </defs>
       <use xlink:href="#DejaVuSans-32"/>
       <use xlink:href="#DejaVuSans-2e" transform="translate(63.623047 0)"/>
       <use xlink:href="#DejaVuSans-30" transform="translate(95.410156 0)"/>
       <use xlink:href="#DejaVuSans-30" transform="translate(159.033203 0)"/>
      </g>
     </g>
    </g>
    <g id="xtick_7">
     <g id="line2d_7">
      <g>
       <use xlink:href="#m4fc8a9e916" x="507.109817" y="276.24351" style="stroke: #000000; stroke-width: 0.8"/>
      </g>
     </g>
     <g id="text_7">
      <!-- 2.05 -->
      <g transform="translate(495.977005 290.841947) scale(0.1 -0.1)">
       <use xlink:href="#DejaVuSans-32"/>
       <use xlink:href="#DejaVuSans-2e" transform="translate(63.623047 0)"/>
       <use xlink:href="#DejaVuSans-30" transform="translate(95.410156 0)"/>
       <use xlink:href="#DejaVuSans-35" transform="translate(159.033203 0)"/>
      </g>
     </g>
    </g>
    <g id="xtick_8">
     <g id="line2d_8">
      <g>
       <use xlink:href="#m4fc8a9e916" x="585.031205" y="276.24351" style="stroke: #000000; stroke-width: 0.8"/>
      </g>
     </g>
     <g id="text_8">
      <!-- 2.10 -->
      <g transform="translate(573.898392 290.841947) scale(0.1 -0.1)">
       <use xlink:href="#DejaVuSans-32"/>
       <use xlink:href="#DejaVuSans-2e" transform="translate(63.623047 0)"/>
       <use xlink:href="#DejaVuSans-31" transform="translate(95.410156 0)"/>
       <use xlink:href="#DejaVuSans-30" transform="translate(159.033203 0)"/>
      </g>
     </g>
    </g>
    <g id="text_9">
     <!-- $E-E_{\rm VBM}$ (eV) -->
     <g transform="translate(295.490625 304.520072) scale(0.1 -0.1)">
      <defs>
       <path id="DejaVuSans-Oblique-45" d="M 1081 4666 
L 4031 4666 
L 3928 4134 
L 1606 4134 
L 1338 2753 
L 3566 2753 
L 3463 2222 
L 1234 2222 
L 909 531 
L 3284 531 
L 3181 0 
L 172 0 
L 1081 4666 
z
" transform="scale(0.015625)"/>
       <path id="DejaVuSans-2212" d="M 678 2272 
L 4684 2272 
L 4684 1741 
L 678 1741 
L 678 2272 
z
" transform="scale(0.015625)"/>
       <path id="DejaVuSans-56" d="M 1831 0 
L 50 4666 
L 709 4666 
L 2188 738 
L 3669 4666 
L 4325 4666 
L 2547 0 
L 1831 0 
z
" transform="scale(0.015625)"/>
       <path id="DejaVuSans-42" d="M 1259 2228 
L 1259 519 
L 2272 519 
Q 2781 519 3026 730 
Q 3272 941 3272 1375 
Q 3272 1813 3026 2020 
Q 2781 2228 2272 2228 
L 1259 2228 
z
M 1259 4147 
L 1259 2741 
L 2194 2741 
Q 2656 2741 2882 2914 
Q 3109 3088 3109 3444 
Q 3109 3797 2882 3972 
Q 2656 4147 2194 4147 
L 1259 4147 
z
M 628 4666 
L 2241 4666 
Q 2963 4666 3353 4366 
Q 3744 4066 3744 3513 
Q 3744 3084 3544 2831 
Q 3344 2578 2956 2516 
Q 3422 2416 3680 2098 
Q 3938 1781 3938 1306 
Q 3938 681 3513 340 
Q 3088 0 2303 0 
L 628 0 
L 628 4666 
z
" transform="scale(0.015625)"/>
       <path id="DejaVuSans-4d" d="M 628 4666 
L 1569 4666 
L 2759 1491 
L 3956 4666 
L 4897 4666 
L 4897 0 
L 4281 0 
L 4281 4097 
L 3078 897 
L 2444 897 
L 1241 4097 
L 1241 0 
L 628 0 
L 628 4666 
z
" transform="scale(0.015625)"/>
       <path id="DejaVuSans-20" transform="scale(0.015625)"/>
       <path id="DejaVuSans-28" d="M 1984 4856 
Q 1566 4138 1362 3434 
Q 1159 2731 1159 2009 
Q 1159 1288 1364 580 
Q 1569 -128 1984 -844 
L 1484 -844 
Q 1016 -109 783 600 
Q 550 1309 550 2009 
Q 550 2706 781 3412 
Q 1013 4119 1484 4856 
L 1984 4856 
z
" transform="scale(0.015625)"/>
       <path id="DejaVuSans-65" d="M 3597 1894 
L 3597 1613 
L 953 1613 
Q 991 1019 1311 708 
Q 1631 397 2203 397 
Q 2534 397 2845 478 
Q 3156 559 3463 722 
L 3463 178 
Q 3153 47 2828 -22 
Q 2503 -91 2169 -91 
Q 1331 -91 842 396 
Q 353 884 353 1716 
Q 353 2575 817 3079 
Q 1281 3584 2069 3584 
Q 2775 3584 3186 3129 
Q 3597 2675 3597 1894 
z
M 3022 2063 
Q 3016 2534 2758 2815 
Q 2500 3097 2075 3097 
Q 1594 3097 1305 2825 
Q 1016 2553 972 2059 
L 3022 2063 
z
" transform="scale(0.015625)"/>
       <path id="DejaVuSans-29" d="M 513 4856 
L 1013 4856 
Q 1481 4119 1714 3412 
Q 1947 2706 1947 2009 
Q 1947 1309 1714 600 
Q 1481 -109 1013 -844 
L 513 -844 
Q 928 -128 1133 580 
Q 1338 1288 1338 2009 
Q 1338 2731 1133 3434 
Q 928 4138 513 4856 
z
" transform="scale(0.015625)"/>
      </defs>
      <use xlink:href="#DejaVuSans-Oblique-45" transform="translate(0 0.125)"/>
      <use xlink:href="#DejaVuSans-2212" transform="translate(82.666016 0.125)"/>
      <use xlink:href="#DejaVuSans-Oblique-45" transform="translate(185.9375 0.125)"/>
      <use xlink:href="#DejaVuSans-56" transform="translate(249.121094 -16.28125) scale(0.7)"/>
      <use xlink:href="#DejaVuSans-42" transform="translate(297.006836 -16.28125) scale(0.7)"/>
      <use xlink:href="#DejaVuSans-4d" transform="translate(345.029297 -16.28125) scale(0.7)"/>
      <use xlink:href="#DejaVuSans-20" transform="translate(408.15918 0.125)"/>
      <use xlink:href="#DejaVuSans-28" transform="translate(439.946289 0.125)"/>
      <use xlink:href="#DejaVuSans-65" transform="translate(478.959961 0.125)"/>
      <use xlink:href="#DejaVuSans-56" transform="translate(540.483398 0.125)"/>
      <use xlink:href="#DejaVuSans-29" transform="translate(608.891602 0.125)"/>
     </g>
    </g>
   </g>
   <g id="matplotlib.axis_2">
    <g id="ytick_1">
     <g id="line2d_9">
      <defs>
       <path id="m84a21b1234" d="M 0 0 
L -3.5 0 
" style="stroke: #000000; stroke-width: 0.8"/>
      </defs>
      <g>
       <use xlink:href="#m84a21b1234" x="39.58149" y="276.24351" style="stroke: #000000; stroke-width: 0.8"/>
      </g>
     </g>
     <g id="text_10">
      <!-- 0.0 -->
      <g transform="translate(16.678365 280.042729) scale(0.1 -0.1)">
       <use xlink:href="#DejaVuSans-30"/>
       <use xlink:href="#DejaVuSans-2e" transform="translate(63.623047 0)"/>
       <use xlink:href="#DejaVuSans-30" transform="translate(95.410156 0)"/>
      </g>
     </g>
    </g>
    <g id="ytick_2">
     <g id="line2d_10">
      <g>
       <use xlink:href="#m84a21b1234" x="39.58149" y="246.526565" style="stroke: #000000; stroke-width: 0.8"/>
      </g>
     </g>
     <g id="text_11">
      <!-- 0.2 -->
      <g transform="translate(16.678365 250.325784) scale(0.1 -0.1)">
       <use xlink:href="#DejaVuSans-30"/>
       <use xlink:href="#DejaVuSans-2e" transform="translate(63.623047 0)"/>
       <use xlink:href="#DejaVuSans-32" transform="translate(95.410156 0)"/>
      </g>
     </g>
    </g>
    <g id="ytick_3">
     <g id="line2d_11">
      <g>
       <use xlink:href="#m84a21b1234" x="39.58149" y="216.80962" style="stroke: #000000; stroke-width: 0.8"/>
      </g>
     </g>
     <g id="text_12">
      <!-- 0.4 -->
      <g transform="translate(16.678365 220.608838) scale(0.1 -0.1)">
       <defs>
        <path id="DejaVuSans-34" d="M 2419 4116 
L 825 1625 
L 2419 1625 
L 2419 4116 
z
M 2253 4666 
L 3047 4666 
L 3047 1625 
L 3713 1625 
L 3713 1100 
L 3047 1100 
L 3047 0 
L 2419 0 
L 2419 1100 
L 313 1100 
L 313 1709 
L 2253 4666 
z
" transform="scale(0.015625)"/>
       </defs>
       <use xlink:href="#DejaVuSans-30"/>
       <use xlink:href="#DejaVuSans-2e" transform="translate(63.623047 0)"/>
       <use xlink:href="#DejaVuSans-34" transform="translate(95.410156 0)"/>
      </g>
     </g>
    </g>
    <g id="ytick_4">
     <g id="line2d_12">
      <g>
       <use xlink:href="#m84a21b1234" x="39.58149" y="187.092675" style="stroke: #000000; stroke-width: 0.8"/>
      </g>
     </g>
     <g id="text_13">
      <!-- 0.6 -->
      <g transform="translate(16.678365 190.891893) scale(0.1 -0.1)">
       <defs>
        <path id="DejaVuSans-36" d="M 2113 2584 
Q 1688 2584 1439 2293 
Q 1191 2003 1191 1497 
Q 1191 994 1439 701 
Q 1688 409 2113 409 
Q 2538 409 2786 701 
Q 3034 994 3034 1497 
Q 3034 2003 2786 2293 
Q 2538 2584 2113 2584 
z
M 3366 4563 
L 3366 3988 
Q 3128 4100 2886 4159 
Q 2644 4219 2406 4219 
Q 1781 4219 1451 3797 
Q 1122 3375 1075 2522 
Q 1259 2794 1537 2939 
Q 1816 3084 2150 3084 
Q 2853 3084 3261 2657 
Q 3669 2231 3669 1497 
Q 3669 778 3244 343 
Q 2819 -91 2113 -91 
Q 1303 -91 875 529 
Q 447 1150 447 2328 
Q 447 3434 972 4092 
Q 1497 4750 2381 4750 
Q 2619 4750 2861 4703 
Q 3103 4656 3366 4563 
z
" transform="scale(0.015625)"/>
       </defs>
       <use xlink:href="#DejaVuSans-30"/>
       <use xlink:href="#DejaVuSans-2e" transform="translate(63.623047 0)"/>
       <use xlink:href="#DejaVuSans-36" transform="translate(95.410156 0)"/>
      </g>
     </g>
    </g>
    <g id="ytick_5">
     <g id="line2d_13">
      <g>
       <use xlink:href="#m84a21b1234" x="39.58149" y="157.375729" style="stroke: #000000; stroke-width: 0.8"/>
      </g>
     </g>
     <g id="text_14">
      <!-- 0.8 -->
      <g transform="translate(16.678365 161.174948) scale(0.1 -0.1)">
       <use xlink:href="#DejaVuSans-30"/>
       <use xlink:href="#DejaVuSans-2e" transform="translate(63.623047 0)"/>
       <use xlink:href="#DejaVuSans-38" transform="translate(95.410156 0)"/>
      </g>
     </g>
    </g>
    <g id="ytick_6">
     <g id="line2d_14">
      <g>
       <use xlink:href="#m84a21b1234" x="39.58149" y="127.658784" style="stroke: #000000; stroke-width: 0.8"/>
      </g>
     </g>
     <g id="text_15">
      <!-- 1.0 -->
      <g transform="translate(16.678365 131.458003) scale(0.1 -0.1)">
       <use xlink:href="#DejaVuSans-31"/>
       <use xlink:href="#DejaVuSans-2e" transform="translate(63.623047 0)"/>
       <use xlink:href="#DejaVuSans-30" transform="translate(95.410156 0)"/>
      </g>
     </g>
    </g>
    <g id="ytick_7">
     <g id="line2d_15">
      <g>
       <use xlink:href="#m84a21b1234" x="39.58149" y="97.941839" style="stroke: #000000; stroke-width: 0.8"/>
      </g>
     </g>
     <g id="text_16">
      <!-- 1.2 -->
      <g transform="translate(16.678365 101.741058) scale(0.1 -0.1)">
       <use xlink:href="#DejaVuSans-31"/>
       <use xlink:href="#DejaVuSans-2e" transform="translate(63.623047 0)"/>
       <use xlink:href="#DejaVuSans-32" transform="translate(95.410156 0)"/>
      </g>
     </g>
    </g>
    <g id="ytick_8">
     <g id="line2d_16">
      <g>
       <use xlink:href="#m84a21b1234" x="39.58149" y="68.224894" style="stroke: #000000; stroke-width: 0.8"/>
      </g>
     </g>
     <g id="text_17">
      <!-- 1.4 -->
      <g transform="translate(16.678365 72.024113) scale(0.1 -0.1)">
       <use xlink:href="#DejaVuSans-31"/>
       <use xlink:href="#DejaVuSans-2e" transform="translate(63.623047 0)"/>
       <use xlink:href="#DejaVuSans-34" transform="translate(95.410156 0)"/>
      </g>
     </g>
    </g>
    <g id="ytick_9">
     <g id="line2d_17">
      <g>
       <use xlink:href="#m84a21b1234" x="39.58149" y="38.507949" style="stroke: #000000; stroke-width: 0.8"/>
      </g>
     </g>
     <g id="text_18">
      <!-- 1.6 -->
      <g transform="translate(16.678365 42.307168) scale(0.1 -0.1)">
       <use xlink:href="#DejaVuSans-31"/>
       <use xlink:href="#DejaVuSans-2e" transform="translate(63.623047 0)"/>
       <use xlink:href="#DejaVuSans-36" transform="translate(95.410156 0)"/>
      </g>
     </g>
    </g>
    <g id="text_19">
     <!-- median$_k$ $A(\omega)$ (states/eV) -->
     <g transform="translate(10.598678 209.231875) rotate(-90) scale(0.1 -0.1)">
      <defs>
       <path id="DejaVuSans-6d" d="M 3328 2828 
Q 3544 3216 3844 3400 
Q 4144 3584 4550 3584 
Q 5097 3584 5394 3201 
Q 5691 2819 5691 2113 
L 5691 0 
L 5113 0 
L 5113 2094 
Q 5113 2597 4934 2840 
Q 4756 3084 4391 3084 
Q 3944 3084 3684 2787 
Q 3425 2491 3425 1978 
L 3425 0 
L 2847 0 
L 2847 2094 
Q 2847 2600 2669 2842 
Q 2491 3084 2119 3084 
Q 1678 3084 1418 2786 
Q 1159 2488 1159 1978 
L 1159 0 
L 581 0 
L 581 3500 
L 1159 3500 
L 1159 2956 
Q 1356 3278 1631 3431 
Q 1906 3584 2284 3584 
Q 2666 3584 2933 3390 
Q 3200 3197 3328 2828 
z
" transform="scale(0.015625)"/>
       <path id="DejaVuSans-64" d="M 2906 2969 
L 2906 4863 
L 3481 4863 
L 3481 0 
L 2906 0 
L 2906 525 
Q 2725 213 2448 61 
Q 2172 -91 1784 -91 
Q 1150 -91 751 415 
Q 353 922 353 1747 
Q 353 2572 751 3078 
Q 1150 3584 1784 3584 
Q 2172 3584 2448 3432 
Q 2725 3281 2906 2969 
z
M 947 1747 
Q 947 1113 1208 752 
Q 1469 391 1925 391 
Q 2381 391 2643 752 
Q 2906 1113 2906 1747 
Q 2906 2381 2643 2742 
Q 2381 3103 1925 3103 
Q 1469 3103 1208 2742 
Q 947 2381 947 1747 
z
" transform="scale(0.015625)"/>
       <path id="DejaVuSans-69" d="M 603 3500 
L 1178 3500 
L 1178 0 
L 603 0 
L 603 3500 
z
M 603 4863 
L 1178 4863 
L 1178 4134 
L 603 4134 
L 603 4863 
z
" transform="scale(0.015625)"/>
       <path id="DejaVuSans-61" d="M 2194 1759 
Q 1497 1759 1228 1600 
Q 959 1441 959 1056 
Q 959 750 1161 570 
Q 1363 391 1709 391 
Q 2188 391 2477 730 
Q 2766 1069 2766 1631 
L 2766 1759 
L 2194 1759 
z
M 3341 1997 
L 3341 0 
L 2766 0 
L 2766 531 
Q 2569 213 2275 61 
Q 1981 -91 1556 -91 
Q 1019 -91 701 211 
Q 384 513 384 1019 
Q 384 1609 779 1909 
Q 1175 2209 1959 2209 
L 2766 2209 
L 2766 2266 
Q 2766 2663 2505 2880 
Q 2244 3097 1772 3097 
Q 1472 3097 1187 3025 
Q 903 2953 641 2809 
L 641 3341 
Q 956 3463 1253 3523 
Q 1550 3584 1831 3584 
Q 2591 3584 2966 3190 
Q 3341 2797 3341 1997 
z
" transform="scale(0.015625)"/>
       <path id="DejaVuSans-6e" d="M 3513 2113 
L 3513 0 
L 2938 0 
L 2938 2094 
Q 2938 2591 2744 2837 
Q 2550 3084 2163 3084 
Q 1697 3084 1428 2787 
Q 1159 2491 1159 1978 
L 1159 0 
L 581 0 
L 581 3500 
L 1159 3500 
L 1159 2956 
Q 1366 3272 1645 3428 
Q 1925 3584 2291 3584 
Q 2894 3584 3203 3211 
Q 3513 2838 3513 2113 
z
" transform="scale(0.015625)"/>
       <path id="DejaVuSans-Oblique-6b" d="M 1172 4863 
L 1747 4863 
L 1197 2028 
L 3169 3500 
L 3916 3500 
L 1716 1825 
L 3322 0 
L 2625 0 
L 1131 1709 
L 800 0 
L 225 0 
L 1172 4863 
z
" transform="scale(0.015625)"/>
       <path id="DejaVuSans-Oblique-41" d="M 2356 4666 
L 3072 4666 
L 3938 0 
L 3278 0 
L 3084 1197 
L 984 1197 
L 325 0 
L -341 0 
L 2356 4666 
z
M 2584 4044 
L 1275 1722 
L 2988 1722 
L 2584 4044 
z
" transform="scale(0.015625)"/>
       <path id="DejaVuSans-Oblique-3c9" d="M 1369 -91 
Q 72 -91 434 1766 
Q 575 2500 1256 3500 
L 1875 3500 
Q 1231 2500 1088 1750 
Q 819 397 1519 397 
Q 2166 397 2478 2078 
L 3009 2078 
Q 2669 388 3316 397 
Q 4013 403 4275 1750 
Q 4419 2500 4169 3500 
L 4788 3500 
Q 5075 2500 4934 1766 
Q 4578 -94 3278 -91 
Q 2428 -88 2503 844 
Q 2194 -91 1369 -91 
z
" transform="scale(0.015625)"/>
       <path id="DejaVuSans-73" d="M 2834 3397 
L 2834 2853 
Q 2591 2978 2328 3040 
Q 2066 3103 1784 3103 
Q 1356 3103 1142 2972 
Q 928 2841 928 2578 
Q 928 2378 1081 2264 
Q 1234 2150 1697 2047 
L 1894 2003 
Q 2506 1872 2764 1633 
Q 3022 1394 3022 966 
Q 3022 478 2636 193 
Q 2250 -91 1575 -91 
Q 1294 -91 989 -36 
Q 684 19 347 128 
L 347 722 
Q 666 556 975 473 
Q 1284 391 1588 391 
Q 1994 391 2212 530 
Q 2431 669 2431 922 
Q 2431 1156 2273 1281 
Q 2116 1406 1581 1522 
L 1381 1569 
Q 847 1681 609 1914 
Q 372 2147 372 2553 
Q 372 3047 722 3315 
Q 1072 3584 1716 3584 
Q 2034 3584 2315 3537 
Q 2597 3491 2834 3397 
z
" transform="scale(0.015625)"/>
       <path id="DejaVuSans-74" d="M 1172 4494 
L 1172 3500 
L 2356 3500 
L 2356 3053 
L 1172 3053 
L 1172 1153 
Q 1172 725 1289 603 
Q 1406 481 1766 481 
L 2356 481 
L 2356 0 
L 1766 0 
Q 1100 0 847 248 
Q 594 497 594 1153 
L 594 3053 
L 172 3053 
L 172 3500 
L 594 3500 
L 594 4494 
L 1172 4494 
z
" transform="scale(0.015625)"/>
       <path id="DejaVuSans-2f" d="M 1625 4666 
L 2156 4666 
L 531 -594 
L 0 -594 
L 1625 4666 
z
" transform="scale(0.015625)"/>
      </defs>
      <use xlink:href="#DejaVuSans-6d" transform="translate(0 0.015625)"/>
      <use xlink:href="#DejaVuSans-65" transform="translate(97.412109 0.015625)"/>
      <use xlink:href="#DejaVuSans-64" transform="translate(158.935547 0.015625)"/>
      <use xlink:href="#DejaVuSans-69" transform="translate(222.412109 0.015625)"/>
      <use xlink:href="#DejaVuSans-61" transform="translate(250.195312 0.015625)"/>
      <use xlink:href="#DejaVuSans-6e" transform="translate(311.474609 0.015625)"/>
      <use xlink:href="#DejaVuSans-Oblique-6b" transform="translate(375.810547 -16.390625) scale(0.7)"/>
      <use xlink:href="#DejaVuSans-20" transform="translate(419.082031 0.015625)"/>
      <use xlink:href="#DejaVuSans-Oblique-41" transform="translate(450.869141 0.015625)"/>
      <use xlink:href="#DejaVuSans-28" transform="translate(519.277344 0.015625)"/>
      <use xlink:href="#DejaVuSans-Oblique-3c9" transform="translate(558.291016 0.015625)"/>
      <use xlink:href="#DejaVuSans-29" transform="translate(642.03125 0.015625)"/>
      <use xlink:href="#DejaVuSans-20" transform="translate(681.044922 0.015625)"/>
      <use xlink:href="#DejaVuSans-28" transform="translate(712.832031 0.015625)"/>
      <use xlink:href="#DejaVuSans-73" transform="translate(751.845703 0.015625)"/>
      <use xlink:href="#DejaVuSans-74" transform="translate(803.945312 0.015625)"/>
      <use xlink:href="#DejaVuSans-61" transform="translate(843.154297 0.015625)"/>
      <use xlink:href="#DejaVuSans-74" transform="translate(904.433594 0.015625)"/>
      <use xlink:href="#DejaVuSans-65" transform="translate(943.642578 0.015625)"/>
      <use xlink:href="#DejaVuSans-73" transform="translate(1005.166016 0.015625)"/>
      <use xlink:href="#DejaVuSans-2f" transform="translate(1057.265625 0.015625)"/>
      <use xlink:href="#DejaVuSans-65" transform="translate(1090.957031 0.015625)"/>
      <use xlink:href="#DejaVuSans-56" transform="translate(1152.480469 0.015625)"/>
      <use xlink:href="#DejaVuSans-29" transform="translate(1220.888672 0.015625)"/>
     </g>
    </g>
   </g>
   <g id="line2d_18">
    <path d="M 39.191883 252.086705 
L 44.256773 253.391437 
L 47.763236 254.153841 
L 50.490484 254.678214 
L 52.828126 255.104194 
L 54.776161 255.402085 
L 57.113802 255.795818 
L 57.893016 255.882256 
L 62.178692 256.450758 
L 63.73712 256.579192 
L 66.464369 256.904147 
L 67.243583 256.958818 
L 69.191617 257.140265 
L 69.970831 257.190205 
L 71.918866 257.375701 
L 72.69808 257.383959 
L 74.646115 257.544944 
L 75.425328 257.539887 
L 76.204542 257.640027 
L 76.983756 257.622279 
L 78.152577 257.657287 
L 80.879826 257.734886 
L 83.607074 257.770755 
L 84.775895 257.784069 
L 88.671964 257.751049 
L 89.451178 257.707048 
L 90.230392 257.675813 
L 91.009606 257.648067 
L 91.399213 257.671081 
L 92.178427 257.550325 
L 92.957641 257.563647 
L 93.736855 257.457306 
L 94.516068 257.427794 
L 95.295282 257.343505 
L 97.632924 257.125288 
L 98.412138 257.045511 
L 98.801745 257.047676 
L 99.191352 256.897115 
L 100.749779 256.701766 
L 103.087421 256.394995 
L 103.477028 256.202296 
L 104.645849 256.020268 
L 105.425063 255.849064 
L 109.710739 254.716746 
L 111.658774 253.902568 
L 112.048381 253.826083 
L 113.606808 253.074928 
L 115.165236 252.364147 
L 115.94445 251.923794 
L 116.334057 251.72936 
L 116.723664 251.401104 
L 117.113271 251.260723 
L 117.892485 250.690469 
L 118.282092 250.503069 
L 118.671699 250.096489 
L 119.061306 249.906584 
L 119.450913 249.473791 
L 120.230126 248.921506 
L 121.398947 247.765505 
L 121.788554 247.526154 
L 122.178161 246.999382 
L 122.957375 246.278719 
L 126.074231 242.153372 
L 127.632658 239.655944 
L 128.022265 238.713765 
L 128.411872 238.172504 
L 129.580693 235.59471 
L 130.749514 232.813255 
L 131.918335 229.572689 
L 132.307942 228.121892 
L 132.697548 227.106995 
L 135.03519 217.998727 
L 136.204011 212.21526 
L 137.372832 205.703066 
L 138.541653 198.237399 
L 140.10008 186.465677 
L 142.048115 169.631569 
L 143.606543 154.886031 
L 144.385757 146.969627 
L 146.333791 129.280513 
L 149.840254 100.357989 
L 150.619468 93.415288 
L 152.177895 82.002428 
L 152.957109 78.685666 
L 153.736323 77.258176 
L 154.12593 77.939091 
L 154.515537 78.957297 
L 154.905144 80.932297 
L 155.684358 87.042005 
L 156.463572 95.258453 
L 158.022 115.699095 
L 159.580427 138.547107 
L 161.528462 164.01714 
L 163.08689 180.989742 
L 163.866104 188.477724 
L 165.814138 203.851196 
L 167.762173 215.42713 
L 168.930994 220.852479 
L 169.710208 224.154594 
L 170.489422 227.117507 
L 171.268635 229.798976 
L 172.437456 233.441637 
L 174.385491 238.261463 
L 175.554312 240.840259 
L 177.891953 244.8016 
L 179.060774 246.512104 
L 179.450381 246.854298 
L 180.229595 247.97133 
L 180.619202 248.349305 
L 181.008809 248.902422 
L 181.398416 249.192116 
L 182.17763 250.161722 
L 182.567237 250.393887 
L 183.346451 251.213521 
L 183.736058 251.497711 
L 184.515271 252.201171 
L 188.411341 254.940954 
L 188.800948 255.215398 
L 189.580162 255.575169 
L 190.359375 256.011422 
L 191.138589 256.432155 
L 192.697017 257.156544 
L 193.086624 257.233324 
L 194.255445 257.768879 
L 195.034659 258.09207 
L 195.813873 258.336325 
L 198.541121 259.249702 
L 200.489156 259.794366 
L 201.26837 260.005686 
L 208.670902 261.575896 
L 209.839722 261.763847 
L 210.618936 261.865959 
L 211.39815 261.999451 
L 212.177364 262.119255 
L 212.956578 262.215104 
L 213.735792 262.3472 
L 214.515006 262.41257 
L 215.29422 262.567747 
L 216.073433 262.593392 
L 217.242254 262.750288 
L 221.917538 263.279679 
L 223.086358 263.324266 
L 225.034393 263.493113 
L 227.761642 263.673952 
L 230.099283 263.829336 
L 230.878497 263.861903 
L 234.38496 264.078906 
L 235.164173 264.061677 
L 236.332994 264.152404 
L 237.112208 264.121652 
L 238.281029 264.209083 
L 239.44985 264.203523 
L 240.229064 264.226972 
L 241.787491 264.252802 
L 244.51474 264.219868 
L 252.306879 263.763598 
L 253.086093 263.666224 
L 253.865307 263.516987 
L 255.423734 263.271533 
L 260.488625 262.481035 
L 261.267838 262.472689 
L 262.826266 262.520323 
L 263.215873 262.513832 
L 263.60548 262.624547 
L 264.384694 262.594686 
L 264.774301 262.712894 
L 265.943122 262.777858 
L 267.891156 262.972998 
L 268.67037 263.068502 
L 269.449584 263.160881 
L 270.618405 263.287146 
L 272.956047 263.604902 
L 274.514474 263.7842 
L 276.072902 263.977667 
L 277.63133 264.105379 
L 279.968971 264.385208 
L 281.527399 264.401374 
L 283.475434 264.53293 
L 284.644255 264.46017 
L 286.592289 264.520702 
L 287.76111 264.379127 
L 289.709145 264.319463 
L 290.877966 264.123018 
L 292.436394 263.975282 
L 294.774035 263.447249 
L 295.553249 263.243004 
L 296.72207 262.797109 
L 298.280498 262.224711 
L 299.838925 261.31617 
L 301.397353 260.420277 
L 303.345388 258.889808 
L 304.903816 257.954261 
L 306.072636 257.47306 
L 306.85185 257.340372 
L 307.631064 257.385739 
L 308.799885 257.754773 
L 309.968706 258.439119 
L 315.033596 262.084922 
L 316.981631 262.99398 
L 317.760845 263.38375 
L 318.929665 263.703313 
L 320.488093 264.214993 
L 321.656914 264.439338 
L 323.215342 264.744581 
L 323.994556 264.848044 
L 325.552983 265.086723 
L 326.332197 265.136896 
L 327.890625 265.319211 
L 328.669839 265.337667 
L 330.228267 265.463764 
L 331.007481 265.470791 
L 332.565908 265.533206 
L 333.345122 265.550139 
L 334.513943 265.584013 
L 335.293157 265.550421 
L 336.461978 265.585001 
L 337.241192 265.522389 
L 338.410012 265.534272 
L 339.189226 265.467238 
L 339.96844 265.503157 
L 341.137261 265.386763 
L 341.916475 265.343476 
L 342.695689 265.262895 
L 343.474903 265.210017 
L 344.254116 265.119246 
L 345.03333 265.018377 
L 346.981365 264.740231 
L 347.760579 264.5619 
L 348.539793 264.469677 
L 349.319007 264.27959 
L 352.046255 263.445677 
L 354.383897 262.392066 
L 355.942325 261.157726 
L 357.111145 259.998596 
L 357.890359 259.128002 
L 359.838394 256.583522 
L 363.344856 251.566255 
L 364.513677 250.437842 
L 365.292891 250.04492 
L 366.072105 249.909258 
L 366.851319 250.13148 
L 367.630533 250.559081 
L 368.799354 251.534854 
L 370.747388 253.399794 
L 371.916209 254.368161 
L 373.08503 255.062124 
L 373.864244 255.137208 
L 375.033065 255.02326 
L 376.591492 254.265814 
L 378.14992 252.898656 
L 378.929134 251.902375 
L 380.097955 250.237043 
L 381.266776 248.101529 
L 382.435596 245.419523 
L 383.604417 242.227771 
L 387.890094 228.848487 
L 388.279701 228.092459 
L 388.669308 226.908706 
L 389.838128 225.328362 
L 390.617342 225.091506 
L 391.006949 225.345756 
L 391.396556 225.83561 
L 391.786163 226.113345 
L 393.344591 229.81227 
L 394.123805 232.302501 
L 395.292625 236.282602 
L 397.630267 244.075033 
L 400.357516 250.995703 
L 401.915943 253.950067 
L 403.084764 255.682602 
L 403.863978 256.841441 
L 405.032799 258.136575 
L 405.422406 258.581946 
L 405.812013 258.856267 
L 406.591227 259.653852 
L 408.928868 261.290824 
L 409.708082 261.826881 
L 410.487296 262.178404 
L 411.26651 262.608353 
L 412.045724 262.9037 
L 412.824938 263.259074 
L 413.604152 263.500361 
L 414.383366 263.805103 
L 415.162579 263.994131 
L 415.941793 264.266312 
L 417.110614 264.536597 
L 417.889828 264.700109 
L 418.669042 264.868679 
L 419.448256 265.024589 
L 420.22747 265.1505 
L 421.006683 265.302452 
L 422.175504 265.472335 
L 424.123539 265.744898 
L 425.681967 265.893576 
L 431.526071 266.288716 
L 433.474106 266.360894 
L 436.590961 266.467586 
L 441.266244 266.426779 
L 443.214279 266.407999 
L 462.694626 265.408095 
L 468.149123 264.98176 
L 475.941262 265.607891 
L 483.343794 265.965336 
L 491.915146 266.172041 
L 495.421609 266.041737 
L 498.538464 265.696352 
L 501.265713 265.242735 
L 503.603355 264.639922 
L 505.940996 263.806775 
L 507.889031 262.90339 
L 511.005886 261.386155 
L 512.953921 260.577782 
L 514.122742 260.399057 
L 514.901956 260.46978 
L 516.070777 260.857915 
L 517.239597 261.514356 
L 519.966846 263.447813 
L 522.304488 264.93864 
L 524.252522 265.905905 
L 526.200557 266.647049 
L 528.538199 267.30802 
L 531.265447 267.856365 
L 535.161517 268.386274 
L 539.447193 268.756355 
L 542.174442 268.835854 
L 554.641864 268.892371 
L 558.537933 269.182931 
L 563.213216 269.604236 
L 579.576708 270.641654 
L 591.654523 270.925407 
L 595.940199 270.882209 
L 603.342731 270.581723 
L 606.06998 270.608235 
L 609.966049 270.803159 
L 612.693298 270.996714 
L 616.19976 271.099046 
L 616.19976 271.099046 
" clip-path="url(#p2d81085098)" style="fill: none; stroke: #c0392b; stroke-width: 1.5; stroke-linecap: square"/>
   </g>
   <g id="line2d_19">
    <path d="M 39.191883 252.576081 
L 41.529525 252.988663 
L 42.308739 253.069624 
L 43.867166 253.295264 
L 48.152843 253.727172 
L 51.269698 253.98856 
L 52.048912 254.004347 
L 54.776161 254.136165 
L 55.555375 254.133179 
L 56.334588 254.127496 
L 58.67223 254.170834 
L 67.63319 253.711379 
L 68.022797 253.574241 
L 68.80201 253.592753 
L 69.191617 253.416102 
L 69.970831 253.426058 
L 70.360438 253.232796 
L 71.139652 253.230263 
L 71.918866 253.022557 
L 73.087687 252.788766 
L 74.646115 252.440891 
L 75.035721 252.420222 
L 75.814935 252.173452 
L 76.204542 252.142699 
L 76.594149 251.91116 
L 77.373363 251.790949 
L 77.76297 251.588698 
L 78.152577 251.547425 
L 78.542184 251.301147 
L 79.711005 250.921139 
L 81.269432 250.350181 
L 82.438253 249.743582 
L 82.82786 249.66189 
L 84.386288 248.779386 
L 84.775895 248.675358 
L 85.165502 248.324729 
L 85.555109 248.183518 
L 85.944716 247.786456 
L 86.334323 247.66158 
L 86.72393 247.250109 
L 87.113537 247.107551 
L 87.89275 246.519258 
L 88.282357 246.28594 
L 89.061571 245.60814 
L 90.230392 244.694135 
L 90.619999 244.121315 
L 91.009606 243.91069 
L 91.78882 243.076627 
L 92.178427 242.729258 
L 92.568034 242.188115 
L 92.957641 241.86199 
L 93.347248 241.221239 
L 93.736855 240.931078 
L 94.126461 240.23053 
L 94.516068 239.878107 
L 95.295282 238.584713 
L 95.684889 238.104424 
L 96.074496 237.301971 
L 96.464103 236.821522 
L 99.580959 230.74962 
L 100.360173 228.779453 
L 100.749779 227.858024 
L 103.866635 217.817658 
L 106.204277 207.580879 
L 106.593884 205.35029 
L 106.98349 203.817915 
L 108.152311 196.576543 
L 110.489953 179.881675 
L 111.269167 173.855667 
L 116.334057 128.260807 
L 117.892485 117.245156 
L 119.450913 107.654235 
L 120.619733 100.055927 
L 121.398947 93.40563 
L 122.178161 85.410081 
L 122.957375 74.839386 
L 123.736589 61.856463 
L 124.515803 46.515912 
L 124.90541 44.081339 
L 126.463837 64.206989 
L 128.022265 81.165458 
L 129.191086 91.723093 
L 130.749514 103.49372 
L 132.307942 113.154618 
L 133.476762 119.212332 
L 134.645583 124.387147 
L 135.814404 128.783491 
L 136.593618 131.326421 
L 136.983225 134.208656 
L 138.152046 152.408548 
L 139.320866 167.63267 
L 140.489687 180.285353 
L 141.658508 190.683211 
L 142.827329 199.265253 
L 144.385757 208.977282 
L 145.944184 216.757291 
L 147.502612 222.97049 
L 150.229861 231.410842 
L 152.957109 237.577202 
L 154.905144 241.074282 
L 158.411606 245.989687 
L 159.580427 247.17681 
L 161.528462 249.135989 
L 163.08689 250.440538 
L 163.476497 250.791347 
L 163.866104 250.975058 
L 164.645317 251.675854 
L 165.034924 251.843396 
L 165.814138 252.402542 
L 167.762173 253.653511 
L 168.15178 253.790892 
L 168.930994 254.290806 
L 169.320601 254.436938 
L 170.099815 254.874933 
L 171.658242 255.577523 
L 172.047849 255.820472 
L 172.827063 256.081607 
L 173.606277 256.415634 
L 175.554312 257.181565 
L 175.943919 257.365991 
L 176.333526 257.364282 
L 177.11274 257.738776 
L 177.891953 257.884185 
L 178.671167 258.178968 
L 179.060774 258.210639 
L 180.229595 258.568747 
L 181.788023 258.969283 
L 184.125664 259.52974 
L 184.515271 259.651933 
L 184.904878 259.632882 
L 186.073699 259.95755 
L 186.463306 259.945279 
L 187.632127 260.245624 
L 188.411341 260.357782 
L 189.190555 260.517348 
L 189.969769 260.616639 
L 190.748982 260.773727 
L 202.826798 262.159255 
L 203.216404 262.113144 
L 204.385225 262.253632 
L 204.774832 262.194379 
L 205.943653 262.371919 
L 206.722867 262.385128 
L 207.502081 262.454923 
L 209.450115 262.548166 
L 210.229329 262.54383 
L 211.008543 262.584235 
L 212.566971 262.651828 
L 213.735792 262.644326 
L 214.125399 262.685576 
L 214.515006 262.597273 
L 215.683827 262.634485 
L 217.242254 262.581996 
L 218.021468 262.63694 
L 218.411075 262.543927 
L 219.190289 262.575513 
L 219.969503 262.505364 
L 221.138324 262.455675 
L 223.086358 262.248904 
L 223.865572 262.146297 
L 227.372035 261.527739 
L 227.761642 261.392214 
L 228.151249 261.387326 
L 228.540856 261.158538 
L 228.930462 261.135271 
L 232.826532 259.464556 
L 237.112208 256.235549 
L 238.281029 255.126369 
L 240.618671 253.717579 
L 242.177098 253.108306 
L 242.566705 253.213381 
L 242.956312 253.167147 
L 244.51474 253.758244 
L 244.904347 254.075092 
L 245.293954 254.070339 
L 245.683561 254.390797 
L 247.241989 254.886412 
L 248.410809 255.606562 
L 252.306879 256.144788 
L 252.696486 256.117426 
L 253.086093 256.205235 
L 253.865307 256.176203 
L 254.254913 256.322818 
L 254.64452 256.324417 
L 255.423734 256.516656 
L 256.592555 256.680613 
L 256.982162 256.850111 
L 257.371769 256.832639 
L 258.150983 257.196969 
L 258.54059 257.177846 
L 259.319804 257.517609 
L 259.709411 257.492335 
L 260.488625 257.806145 
L 260.878231 257.85104 
L 261.657445 258.081573 
L 262.826266 258.518169 
L 263.60548 258.877281 
L 265.553515 259.711296 
L 267.111942 260.392938 
L 269.059977 261.279309 
L 269.839191 261.639236 
L 274.124867 262.814204 
L 274.904081 262.92628 
L 275.293688 263.041779 
L 276.462509 263.111496 
L 277.63133 263.268351 
L 278.020937 263.220843 
L 278.410544 263.299796 
L 279.579365 263.287201 
L 280.358578 263.272847 
L 281.137792 263.241624 
L 281.527399 263.276615 
L 281.917006 263.135593 
L 283.085827 263.038937 
L 286.981896 262.384196 
L 289.319538 262.2698 
L 291.267573 262.62046 
L 293.994821 263.352196 
L 297.890891 264.54134 
L 301.007746 265.106076 
L 306.462243 265.59832 
L 308.020671 265.665668 
L 325.163376 266.14717 
L 326.332197 266.09869 
L 332.176301 265.90784 
L 333.345122 265.846607 
L 334.124336 265.782371 
L 336.851585 265.563101 
L 338.410012 265.387668 
L 340.358047 265.082861 
L 343.474903 264.471137 
L 344.254116 264.220036 
L 345.422937 263.882868 
L 346.591758 263.363179 
L 347.370972 263.022354 
L 348.150186 262.654949 
L 348.9294 262.126849 
L 350.877434 260.351218 
L 352.046255 259.079335 
L 353.99429 256.613036 
L 356.331932 253.608222 
L 357.500752 252.478192 
L 358.279966 251.927324 
L 359.05918 251.668692 
L 360.228001 251.67547 
L 361.786429 252.247805 
L 364.12407 253.182773 
L 365.292891 253.227184 
L 366.072105 252.847088 
L 367.240926 252.085376 
L 369.188961 249.651795 
L 369.968174 248.404614 
L 371.916209 244.809123 
L 373.08503 242.34789 
L 373.474637 241.779659 
L 374.253851 240.287929 
L 374.643458 239.856845 
L 375.033065 239.237387 
L 376.591492 238.563651 
L 376.981099 238.648222 
L 377.760313 239.360547 
L 378.929134 241.122047 
L 380.097955 243.502367 
L 381.266776 246.272042 
L 383.994024 252.342179 
L 385.942059 255.65102 
L 387.500487 257.887997 
L 390.227735 260.507214 
L 391.786163 261.699962 
L 396.071839 263.774536 
L 399.188695 264.717748 
L 400.357516 264.980401 
L 401.526337 265.209885 
L 402.695157 265.449637 
L 405.032799 265.813112 
L 408.149654 266.090758 
L 409.708082 266.255989 
L 412.045724 266.401462 
L 419.837863 266.701126 
L 425.681967 266.681067 
L 431.915678 266.518971 
L 449.837597 265.417064 
L 456.460915 264.92383 
L 463.47384 265.400814 
L 471.655586 265.683881 
L 478.278904 266.056033 
L 484.902221 266.403181 
L 488.019077 266.308453 
L 491.915146 265.938209 
L 494.252788 265.581627 
L 496.59043 264.876401 
L 500.876106 263.266783 
L 502.824141 262.436538 
L 504.382568 261.721039 
L 506.72021 261.136609 
L 507.889031 261.123752 
L 508.668245 261.333099 
L 509.837066 261.877001 
L 511.7851 263.08746 
L 514.512349 264.778523 
L 516.460384 265.738165 
L 518.408418 266.47219 
L 520.74606 267.109389 
L 523.083702 267.50778 
L 525.81095 267.740608 
L 530.486233 267.819141 
L 532.823875 267.739679 
L 538.667979 267.980132 
L 541.395228 268.271978 
L 543.343262 268.427774 
L 548.018546 268.817515 
L 556.979505 269.73287 
L 561.265182 270.026349 
L 566.330072 270.140792 
L 578.01828 270.122687 
L 579.966315 269.980917 
L 581.524742 269.901244 
L 584.251991 269.593405 
L 585.420812 269.475009 
L 586.97924 269.227201 
L 587.758453 269.130517 
L 592.433737 268.775287 
L 595.940199 268.99895 
L 597.888234 269.314559 
L 599.446662 269.518524 
L 600.615482 269.739447 
L 605.290766 270.361627 
L 607.628407 270.523041 
L 609.186835 270.628751 
L 612.303691 270.691974 
L 616.19976 270.57062 
L 616.19976 270.57062 
" clip-path="url(#p2d81085098)" style="fill: none; stroke-dasharray: 5.55,2.4; stroke-dashoffset: 0; stroke: #e67e22; stroke-width: 1.5"/>
   </g>
   <g id="line2d_20">
    <path d="M 178.437403 276.24351 
L 178.437403 16.22024 
" clip-path="url(#p2d81085098)" style="fill: none; stroke-dasharray: 0.9,1.485; stroke-dashoffset: 0; stroke: #00b8d4; stroke-opacity: 0.9; stroke-width: 0.9"/>
   </g>
   <g id="line2d_21">
    <path d="M 251.683508 276.24351 
L 251.683508 16.22024 
" clip-path="url(#p2d81085098)" style="fill: none; stroke-dasharray: 0.9,1.485; stroke-dashoffset: 0; stroke: #00b8d4; stroke-opacity: 0.9; stroke-width: 0.9"/>
   </g>
   <g id="line2d_22">
    <path d="M 370.124017 276.24351 
L 370.124017 16.22024 
" clip-path="url(#p2d81085098)" style="fill: none; stroke-dasharray: 0.9,1.485; stroke-dashoffset: 0; stroke: #00b8d4; stroke-opacity: 0.9; stroke-width: 0.9"/>
   </g>
   <g id="line2d_23">
    <path d="M 379.474584 276.24351 
L 379.474584 16.22024 
" clip-path="url(#p2d81085098)" style="fill: none; stroke-dasharray: 0.9,1.485; stroke-dashoffset: 0; stroke: #00b8d4; stroke-opacity: 0.9; stroke-width: 0.9"/>
   </g>
   <g id="patch_3">
    <path d="M 39.58149 276.24351 
L 39.58149 16.22024 
" style="fill: none; stroke: #000000; stroke-width: 0.8; stroke-linejoin: miter; stroke-linecap: square"/>
   </g>
   <g id="patch_4">
    <path d="M 616.19976 276.24351 
L 616.19976 16.22024 
" style="fill: none; stroke: #000000; stroke-width: 0.8; stroke-linejoin: miter; stroke-linecap: square"/>
   </g>
   <g id="patch_5">
    <path d="M 39.58149 276.24351 
L 616.19976 276.24351 
" style="fill: none; stroke: #000000; stroke-width: 0.8; stroke-linejoin: miter; stroke-linecap: square"/>
   </g>
   <g id="patch_6">
    <path d="M 39.58149 16.22024 
L 616.19976 16.22024 
" style="fill: none; stroke: #000000; stroke-width: 0.8; stroke-linejoin: miter; stroke-linecap: square"/>
   </g>
   <g id="text_20">
    <!-- 182 -->
    <g style="fill: #0097a7" transform="translate(180.368966 36.992036) rotate(-90) scale(0.07 -0.07)">
     <use xlink:href="#DejaVuSans-31"/>
     <use xlink:href="#DejaVuSans-38" transform="translate(63.623047 0)"/>
     <use xlink:href="#DejaVuSans-32" transform="translate(127.246094 0)"/>
    </g>
   </g>
   <g id="text_21">
    <!-- 229$\times$2 -->
    <g style="fill: #0097a7" transform="translate(253.61507 36.992036) rotate(-90) scale(0.07 -0.07)">
     <defs>
      <path id="DejaVuSans-d7" d="M 4488 3438 
L 3059 2003 
L 4488 575 
L 4116 197 
L 2681 1631 
L 1247 197 
L 878 575 
L 2303 2003 
L 878 3438 
L 1247 3816 
L 2681 2381 
L 4116 3816 
L 4488 3438 
z
" transform="scale(0.015625)"/>
     </defs>
     <use xlink:href="#DejaVuSans-32" transform="translate(0 0.78125)"/>
     <use xlink:href="#DejaVuSans-32" transform="translate(63.623047 0.78125)"/>
     <use xlink:href="#DejaVuSans-39" transform="translate(125.496094 0.78125)"/>
     <use xlink:href="#DejaVuSans-d7" transform="translate(189.119141 0.78125)"/>
     <use xlink:href="#DejaVuSans-32" transform="translate(272.908203 0.78125)"/>
    </g>
   </g>
   <g id="text_22">
    <!-- 305 -->
    <g style="fill: #0097a7" transform="translate(372.05558 36.992036) rotate(-90) scale(0.07 -0.07)">
     <defs>
      <path id="DejaVuSans-33" d="M 2597 2516 
Q 3050 2419 3304 2112 
Q 3559 1806 3559 1356 
Q 3559 666 3084 287 
Q 2609 -91 1734 -91 
Q 1441 -91 1130 -33 
Q 819 25 488 141 
L 488 750 
Q 750 597 1062 519 
Q 1375 441 1716 441 
Q 2309 441 2620 675 
Q 2931 909 2931 1356 
Q 2931 1769 2642 2001 
Q 2353 2234 1838 2234 
L 1294 2234 
L 1294 2753 
L 1863 2753 
Q 2328 2753 2575 2939 
Q 2822 3125 2822 3475 
Q 2822 3834 2567 4026 
Q 2313 4219 1838 4219 
Q 1578 4219 1281 4162 
Q 984 4106 628 3988 
L 628 4550 
Q 988 4650 1302 4700 
Q 1616 4750 1894 4750 
Q 2613 4750 3031 4423 
Q 3450 4097 3450 3541 
Q 3450 3153 3228 2886 
Q 3006 2619 2597 2516 
z
" transform="scale(0.015625)"/>
     </defs>
     <use xlink:href="#DejaVuSans-33"/>
     <use xlink:href="#DejaVuSans-30" transform="translate(63.623047 0)"/>
     <use xlink:href="#DejaVuSans-35" transform="translate(127.246094 0)"/>
    </g>
   </g>
   <g id="text_23">
    <!-- 311$\times$2 -->
    <g style="fill: #0097a7" transform="translate(381.406146 36.992036) rotate(-90) scale(0.07 -0.07)">
     <use xlink:href="#DejaVuSans-33" transform="translate(0 0.78125)"/>
     <use xlink:href="#DejaVuSans-31" transform="translate(63.623047 0.78125)"/>
     <use xlink:href="#DejaVuSans-31" transform="translate(127.246094 0.78125)"/>
     <use xlink:href="#DejaVuSans-d7" transform="translate(190.869141 0.78125)"/>
     <use xlink:href="#DejaVuSans-32" transform="translate(274.658203 0.78125)"/>
    </g>
   </g>
   <g id="text_24">
    <!-- O$_S$ resonance ladder: pseudopotential-family comparison (Dyson, $\eta$=5 meV; cyan = supercell capture fingerprint) -->
    <g transform="translate(56.998125 10.22024) scale(0.095 -0.095)">
     <defs>
      <path id="DejaVuSans-4f" d="M 2522 4238 
Q 1834 4238 1429 3725 
Q 1025 3213 1025 2328 
Q 1025 1447 1429 934 
Q 1834 422 2522 422 
Q 3209 422 3611 934 
Q 4013 1447 4013 2328 
Q 4013 3213 3611 3725 
Q 3209 4238 2522 4238 
z
M 2522 4750 
Q 3503 4750 4090 4092 
Q 4678 3434 4678 2328 
Q 4678 1225 4090 567 
Q 3503 -91 2522 -91 
Q 1538 -91 948 565 
Q 359 1222 359 2328 
Q 359 3434 948 4092 
Q 1538 4750 2522 4750 
z
" transform="scale(0.015625)"/>
      <path id="DejaVuSans-Oblique-53" d="M 3859 4513 
L 3738 3897 
Q 3422 4066 3111 4152 
Q 2800 4238 2509 4238 
Q 1944 4238 1609 3991 
Q 1275 3744 1275 3334 
Q 1275 3109 1398 2989 
Q 1522 2869 2034 2731 
L 2413 2638 
Q 3053 2472 3303 2217 
Q 3553 1963 3553 1503 
Q 3553 797 2998 353 
Q 2444 -91 1538 -91 
Q 1166 -91 791 -17 
Q 416 56 38 206 
L 166 856 
Q 513 641 861 531 
Q 1209 422 1556 422 
Q 2147 422 2503 684 
Q 2859 947 2859 1369 
Q 2859 1650 2717 1795 
Q 2575 1941 2106 2059 
L 1728 2156 
Q 1081 2325 845 2545 
Q 609 2766 609 3163 
Q 609 3859 1145 4304 
Q 1681 4750 2541 4750 
Q 2875 4750 3203 4690 
Q 3531 4631 3859 4513 
z
" transform="scale(0.015625)"/>
      <path id="DejaVuSans-72" d="M 2631 2963 
Q 2534 3019 2420 3045 
Q 2306 3072 2169 3072 
Q 1681 3072 1420 2755 
Q 1159 2438 1159 1844 
L 1159 0 
L 581 0 
L 581 3500 
L 1159 3500 
L 1159 2956 
Q 1341 3275 1631 3429 
Q 1922 3584 2338 3584 
Q 2397 3584 2469 3576 
Q 2541 3569 2628 3553 
L 2631 2963 
z
" transform="scale(0.015625)"/>
      <path id="DejaVuSans-6f" d="M 1959 3097 
Q 1497 3097 1228 2736 
Q 959 2375 959 1747 
Q 959 1119 1226 758 
Q 1494 397 1959 397 
Q 2419 397 2687 759 
Q 2956 1122 2956 1747 
Q 2956 2369 2687 2733 
Q 2419 3097 1959 3097 
z
M 1959 3584 
Q 2709 3584 3137 3096 
Q 3566 2609 3566 1747 
Q 3566 888 3137 398 
Q 2709 -91 1959 -91 
Q 1206 -91 779 398 
Q 353 888 353 1747 
Q 353 2609 779 3096 
Q 1206 3584 1959 3584 
z
" transform="scale(0.015625)"/>
      <path id="DejaVuSans-63" d="M 3122 3366 
L 3122 2828 
Q 2878 2963 2633 3030 
Q 2388 3097 2138 3097 
Q 1578 3097 1268 2742 
Q 959 2388 959 1747 
Q 959 1106 1268 751 
Q 1578 397 2138 397 
Q 2388 397 2633 464 
Q 2878 531 3122 666 
L 3122 134 
Q 2881 22 2623 -34 
Q 2366 -91 2075 -91 
Q 1284 -91 818 406 
Q 353 903 353 1747 
Q 353 2603 823 3093 
Q 1294 3584 2113 3584 
Q 2378 3584 2631 3529 
Q 2884 3475 3122 3366 
z
" transform="scale(0.015625)"/>
      <path id="DejaVuSans-6c" d="M 603 4863 
L 1178 4863 
L 1178 0 
L 603 0 
L 603 4863 
z
" transform="scale(0.015625)"/>
      <path id="DejaVuSans-3a" d="M 750 794 
L 1409 794 
L 1409 0 
L 750 0 
L 750 794 
z
M 750 3309 
L 1409 3309 
L 1409 2516 
L 750 2516 
L 750 3309 
z
" transform="scale(0.015625)"/>
      <path id="DejaVuSans-70" d="M 1159 525 
L 1159 -1331 
L 581 -1331 
L 581 3500 
L 1159 3500 
L 1159 2969 
Q 1341 3281 1617 3432 
Q 1894 3584 2278 3584 
Q 2916 3584 3314 3078 
Q 3713 2572 3713 1747 
Q 3713 922 3314 415 
Q 2916 -91 2278 -91 
Q 1894 -91 1617 61 
Q 1341 213 1159 525 
z
M 3116 1747 
Q 3116 2381 2855 2742 
Q 2594 3103 2138 3103 
Q 1681 3103 1420 2742 
Q 1159 2381 1159 1747 
Q 1159 1113 1420 752 
Q 1681 391 2138 391 
Q 2594 391 2855 752 
Q 3116 1113 3116 1747 
z
" transform="scale(0.015625)"/>
      <path id="DejaVuSans-75" d="M 544 1381 
L 544 3500 
L 1119 3500 
L 1119 1403 
Q 1119 906 1312 657 
Q 1506 409 1894 409 
Q 2359 409 2629 706 
Q 2900 1003 2900 1516 
L 2900 3500 
L 3475 3500 
L 3475 0 
L 2900 0 
L 2900 538 
Q 2691 219 2414 64 
Q 2138 -91 1772 -91 
Q 1169 -91 856 284 
Q 544 659 544 1381 
z
M 1991 3584 
L 1991 3584 
z
" transform="scale(0.015625)"/>
      <path id="DejaVuSans-2d" d="M 313 2009 
L 1997 2009 
L 1997 1497 
L 313 1497 
L 313 2009 
z
" transform="scale(0.015625)"/>
      <path id="DejaVuSans-66" d="M 2375 4863 
L 2375 4384 
L 1825 4384 
Q 1516 4384 1395 4259 
Q 1275 4134 1275 3809 
L 1275 3500 
L 2222 3500 
L 2222 3053 
L 1275 3053 
L 1275 0 
L 697 0 
L 697 3053 
L 147 3053 
L 147 3500 
L 697 3500 
L 697 3744 
Q 697 4328 969 4595 
Q 1241 4863 1831 4863 
L 2375 4863 
z
" transform="scale(0.015625)"/>
      <path id="DejaVuSans-79" d="M 2059 -325 
Q 1816 -950 1584 -1140 
Q 1353 -1331 966 -1331 
L 506 -1331 
L 506 -850 
L 844 -850 
Q 1081 -850 1212 -737 
Q 1344 -625 1503 -206 
L 1606 56 
L 191 3500 
L 800 3500 
L 1894 763 
L 2988 3500 
L 3597 3500 
L 2059 -325 
z
" transform="scale(0.015625)"/>
      <path id="DejaVuSans-44" d="M 1259 4147 
L 1259 519 
L 2022 519 
Q 2988 519 3436 956 
Q 3884 1394 3884 2338 
Q 3884 3275 3436 3711 
Q 2988 4147 2022 4147 
L 1259 4147 
z
M 628 4666 
L 1925 4666 
Q 3281 4666 3915 4102 
Q 4550 3538 4550 2338 
Q 4550 1131 3912 565 
Q 3275 0 1925 0 
L 628 0 
L 628 4666 
z
" transform="scale(0.015625)"/>
      <path id="DejaVuSans-2c" d="M 750 794 
L 1409 794 
L 1409 256 
L 897 -744 
L 494 -744 
L 750 256 
L 750 794 
z
" transform="scale(0.015625)"/>
      <path id="DejaVuSans-Oblique-3b7" d="M 3703 2113 
L 3034 -1331 
L 2459 -1331 
L 3125 2094 
Q 3222 2591 3075 2838 
Q 2931 3084 2544 3084 
Q 2078 3084 1750 2788 
Q 1425 2491 1325 1978 
L 941 0 
L 363 0 
L 1044 3500 
L 1622 3500 
L 1516 2956 
Q 1781 3272 2094 3428 
Q 2403 3584 2769 3584 
Q 3372 3584 3609 3213 
Q 3844 2838 3703 2113 
z
" transform="scale(0.015625)"/>
      <path id="DejaVuSans-3d" d="M 678 2906 
L 4684 2906 
L 4684 2381 
L 678 2381 
L 678 2906 
z
M 678 1631 
L 4684 1631 
L 4684 1100 
L 678 1100 
L 678 1631 
z
" transform="scale(0.015625)"/>
      <path id="DejaVuSans-3b" d="M 750 3309 
L 1409 3309 
L 1409 2516 
L 750 2516 
L 750 3309 
z
M 750 794 
L 1409 794 
L 1409 256 
L 897 -744 
L 494 -744 
L 750 256 
L 750 794 
z
" transform="scale(0.015625)"/>
      <path id="DejaVuSans-67" d="M 2906 1791 
Q 2906 2416 2648 2759 
Q 2391 3103 1925 3103 
Q 1463 3103 1205 2759 
Q 947 2416 947 1791 
Q 947 1169 1205 825 
Q 1463 481 1925 481 
Q 2391 481 2648 825 
Q 2906 1169 2906 1791 
z
M 3481 434 
Q 3481 -459 3084 -895 
Q 2688 -1331 1869 -1331 
Q 1566 -1331 1297 -1286 
Q 1028 -1241 775 -1147 
L 775 -588 
Q 1028 -725 1275 -790 
Q 1522 -856 1778 -856 
Q 2344 -856 2625 -561 
Q 2906 -266 2906 331 
L 2906 616 
Q 2728 306 2450 153 
Q 2172 0 1784 0 
Q 1141 0 747 490 
Q 353 981 353 1791 
Q 353 2603 747 3093 
Q 1141 3584 1784 3584 
Q 2172 3584 2450 3431 
Q 2728 3278 2906 2969 
L 2906 3500 
L 3481 3500 
L 3481 434 
z
" transform="scale(0.015625)"/>
     </defs>
     <use xlink:href="#DejaVuSans-4f" transform="translate(0 0.015625)"/>
     <use xlink:href="#DejaVuSans-Oblique-53" transform="translate(79.667969 -16.390625) scale(0.7)"/>
     <use xlink:href="#DejaVuSans-20" transform="translate(126.835938 0.015625)"/>
     <use xlink:href="#DejaVuSans-72" transform="translate(158.623047 0.015625)"/>
     <use xlink:href="#DejaVuSans-65" transform="translate(199.736328 0.015625)"/>
     <use xlink:href="#DejaVuSans-73" transform="translate(261.259766 0.015625)"/>
     <use xlink:href="#DejaVuSans-6f" transform="translate(313.359375 0.015625)"/>
     <use xlink:href="#DejaVuSans-6e" transform="translate(374.541016 0.015625)"/>
     <use xlink:href="#DejaVuSans-61" transform="translate(437.919922 0.015625)"/>
     <use xlink:href="#DejaVuSans-6e" transform="translate(499.199219 0.015625)"/>
     <use xlink:href="#DejaVuSans-63" transform="translate(562.578125 0.015625)"/>
     <use xlink:href="#DejaVuSans-65" transform="translate(617.558594 0.015625)"/>
     <use xlink:href="#DejaVuSans-20" transform="translate(679.082031 0.015625)"/>
     <use xlink:href="#DejaVuSans-6c" transform="translate(710.869141 0.015625)"/>
     <use xlink:href="#DejaVuSans-61" transform="translate(738.652344 0.015625)"/>
     <use xlink:href="#DejaVuSans-64" transform="translate(799.931641 0.015625)"/>
     <use xlink:href="#DejaVuSans-64" transform="translate(863.408203 0.015625)"/>
     <use xlink:href="#DejaVuSans-65" transform="translate(926.884766 0.015625)"/>
     <use xlink:href="#DejaVuSans-72" transform="translate(988.408203 0.015625)"/>
     <use xlink:href="#DejaVuSans-3a" transform="translate(1029.521484 0.015625)"/>
     <use xlink:href="#DejaVuSans-20" transform="translate(1063.212891 0.015625)"/>
     <use xlink:href="#DejaVuSans-70" transform="translate(1095 0.015625)"/>
     <use xlink:href="#DejaVuSans-73" transform="translate(1158.476562 0.015625)"/>
     <use xlink:href="#DejaVuSans-65" transform="translate(1210.576172 0.015625)"/>
     <use xlink:href="#DejaVuSans-75" transform="translate(1272.099609 0.015625)"/>
     <use xlink:href="#DejaVuSans-64" transform="translate(1335.478516 0.015625)"/>
     <use xlink:href="#DejaVuSans-6f" transform="translate(1398.955078 0.015625)"/>
     <use xlink:href="#DejaVuSans-70" transform="translate(1460.136719 0.015625)"/>
     <use xlink:href="#DejaVuSans-6f" transform="translate(1523.613281 0.015625)"/>
     <use xlink:href="#DejaVuSans-74" transform="translate(1584.794922 0.015625)"/>
     <use xlink:href="#DejaVuSans-65" transform="translate(1624.003906 0.015625)"/>
     <use xlink:href="#DejaVuSans-6e" transform="translate(1685.527344 0.015625)"/>
     <use xlink:href="#DejaVuSans-74" transform="translate(1748.90625 0.015625)"/>
     <use xlink:href="#DejaVuSans-69" transform="translate(1788.115234 0.015625)"/>
     <use xlink:href="#DejaVuSans-61" transform="translate(1815.898438 0.015625)"/>
     <use xlink:href="#DejaVuSans-6c" transform="translate(1877.177734 0.015625)"/>
     <use xlink:href="#DejaVuSans-2d" transform="translate(1904.960938 0.015625)"/>
     <use xlink:href="#DejaVuSans-66" transform="translate(1941.044922 0.015625)"/>
     <use xlink:href="#DejaVuSans-61" transform="translate(1976.25 0.015625)"/>
     <use xlink:href="#DejaVuSans-6d" transform="translate(2037.529297 0.015625)"/>
     <use xlink:href="#DejaVuSans-69" transform="translate(2134.941406 0.015625)"/>
     <use xlink:href="#DejaVuSans-6c" transform="translate(2162.724609 0.015625)"/>
     <use xlink:href="#DejaVuSans-79" transform="translate(2190.507812 0.015625)"/>
     <use xlink:href="#DejaVuSans-20" transform="translate(2249.6875 0.015625)"/>
     <use xlink:href="#DejaVuSans-63" transform="translate(2281.474609 0.015625)"/>
     <use xlink:href="#DejaVuSans-6f" transform="translate(2336.455078 0.015625)"/>
     <use xlink:href="#DejaVuSans-6d" transform="translate(2397.636719 0.015625)"/>
     <use xlink:href="#DejaVuSans-70" transform="translate(2495.048828 0.015625)"/>
     <use xlink:href="#DejaVuSans-61" transform="translate(2558.525391 0.015625)"/>
     <use xlink:href="#DejaVuSans-72" transform="translate(2619.804688 0.015625)"/>
     <use xlink:href="#DejaVuSans-69" transform="translate(2660.917969 0.015625)"/>
     <use xlink:href="#DejaVuSans-73" transform="translate(2688.701172 0.015625)"/>
     <use xlink:href="#DejaVuSans-6f" transform="translate(2740.800781 0.015625)"/>
     <use xlink:href="#DejaVuSans-6e" transform="translate(2801.982422 0.015625)"/>
     <use xlink:href="#DejaVuSans-20" transform="translate(2865.361328 0.015625)"/>
     <use xlink:href="#DejaVuSans-28" transform="translate(2897.148438 0.015625)"/>
     <use xlink:href="#DejaVuSans-44" transform="translate(2936.162109 0.015625)"/>
     <use xlink:href="#DejaVuSans-79" transform="translate(3013.164062 0.015625)"/>
     <use xlink:href="#DejaVuSans-73" transform="translate(3072.34375 0.015625)"/>
     <use xlink:href="#DejaVuSans-6f" transform="translate(3124.443359 0.015625)"/>
     <use xlink:href="#DejaVuSans-6e" transform="translate(3185.625 0.015625)"/>
     <use xlink:href="#DejaVuSans-2c" transform="translate(3249.003906 0.015625)"/>
     <use xlink:href="#DejaVuSans-20" transform="translate(3280.791016 0.015625)"/>
     <use xlink:href="#DejaVuSans-Oblique-3b7" transform="translate(3312.578125 0.015625)"/>
     <use xlink:href="#DejaVuSans-3d" transform="translate(3375.957031 0.015625)"/>
     <use xlink:href="#DejaVuSans-35" transform="translate(3459.746094 0.015625)"/>
     <use xlink:href="#DejaVuSans-20" transform="translate(3523.369141 0.015625)"/>
     <use xlink:href="#DejaVuSans-6d" transform="translate(3555.15625 0.015625)"/>
     <use xlink:href="#DejaVuSans-65" transform="translate(3652.568359 0.015625)"/>
     <use xlink:href="#DejaVuSans-56" transform="translate(3714.091797 0.015625)"/>
     <use xlink:href="#DejaVuSans-3b" transform="translate(3782.5 0.015625)"/>
     <use xlink:href="#DejaVuSans-20" transform="translate(3816.191406 0.015625)"/>
     <use xlink:href="#DejaVuSans-63" transform="translate(3847.978516 0.015625)"/>
     <use xlink:href="#DejaVuSans-79" transform="translate(3902.958984 0.015625)"/>
     <use xlink:href="#DejaVuSans-61" transform="translate(3962.138672 0.015625)"/>
     <use xlink:href="#DejaVuSans-6e" transform="translate(4023.417969 0.015625)"/>
     <use xlink:href="#DejaVuSans-20" transform="translate(4086.796875 0.015625)"/>
     <use xlink:href="#DejaVuSans-3d" transform="translate(4118.583984 0.015625)"/>
     <use xlink:href="#DejaVuSans-20" transform="translate(4202.373047 0.015625)"/>
     <use xlink:href="#DejaVuSans-73" transform="translate(4234.160156 0.015625)"/>
     <use xlink:href="#DejaVuSans-75" transform="translate(4286.259766 0.015625)"/>
     <use xlink:href="#DejaVuSans-70" transform="translate(4349.638672 0.015625)"/>
     <use xlink:href="#DejaVuSans-65" transform="translate(4413.115234 0.015625)"/>
     <use xlink:href="#DejaVuSans-72" transform="translate(4474.638672 0.015625)"/>
     <use xlink:href="#DejaVuSans-63" transform="translate(4515.751953 0.015625)"/>
     <use xlink:href="#DejaVuSans-65" transform="translate(4570.732422 0.015625)"/>
     <use xlink:href="#DejaVuSans-6c" transform="translate(4632.255859 0.015625)"/>
     <use xlink:href="#DejaVuSans-6c" transform="translate(4660.039062 0.015625)"/>
     <use xlink:href="#DejaVuSans-20" transform="translate(4687.822266 0.015625)"/>
     <use xlink:href="#DejaVuSans-63" transform="translate(4719.609375 0.015625)"/>
     <use xlink:href="#DejaVuSans-61" transform="translate(4774.589844 0.015625)"/>
     <use xlink:href="#DejaVuSans-70" transform="translate(4835.869141 0.015625)"/>
     <use xlink:href="#DejaVuSans-74" transform="translate(4899.345703 0.015625)"/>
     <use xlink:href="#DejaVuSans-75" transform="translate(4938.554688 0.015625)"/>
     <use xlink:href="#DejaVuSans-72" transform="translate(5001.933594 0.015625)"/>
     <use xlink:href="#DejaVuSans-65" transform="translate(5043.046875 0.015625)"/>
     <use xlink:href="#DejaVuSans-20" transform="translate(5104.570312 0.015625)"/>
     <use xlink:href="#DejaVuSans-66" transform="translate(5136.357422 0.015625)"/>
     <use xlink:href="#DejaVuSans-69" transform="translate(5171.5625 0.015625)"/>
     <use xlink:href="#DejaVuSans-6e" transform="translate(5199.345703 0.015625)"/>
     <use xlink:href="#DejaVuSans-67" transform="translate(5262.724609 0.015625)"/>
     <use xlink:href="#DejaVuSans-65" transform="translate(5326.201172 0.015625)"/>
     <use xlink:href="#DejaVuSans-72" transform="translate(5387.724609 0.015625)"/>
     <use xlink:href="#DejaVuSans-70" transform="translate(5428.837891 0.015625)"/>
     <use xlink:href="#DejaVuSans-72" transform="translate(5492.314453 0.015625)"/>
     <use xlink:href="#DejaVuSans-69" transform="translate(5533.427734 0.015625)"/>
     <use xlink:href="#DejaVuSans-6e" transform="translate(5561.210938 0.015625)"/>
     <use xlink:href="#DejaVuSans-74" transform="translate(5624.589844 0.015625)"/>
     <use xlink:href="#DejaVuSans-29" transform="translate(5663.798828 0.015625)"/>
    </g>
   </g>
   <g id="legend_1">
    <g id="patch_7">
     <path d="M 424.60976 48.01024 
L 610.24976 48.01024 
Q 611.94976 48.01024 611.94976 46.31024 
L 611.94976 22.17024 
Q 611.94976 20.47024 610.24976 20.47024 
L 424.60976 20.47024 
Q 422.90976 20.47024 422.90976 22.17024 
L 422.90976 46.31024 
Q 422.90976 48.01024 424.60976 48.01024 
z
" style="fill: #ffffff; opacity: 0.8; stroke: #cccccc; stroke-linejoin: miter"/>
    </g>
    <g id="line2d_24">
     <path d="M 426.30976 27.35524 
L 434.80976 27.35524 
L 443.30976 27.35524 
" style="fill: none; stroke: #c0392b; stroke-width: 1.5; stroke-linecap: square"/>
    </g>
    <g id="text_25">
     <!-- O$_S$ / dojo-O vertex (+ dojo 2s2p $\chi$) -->
     <g transform="translate(450.10976 30.33024) scale(0.085 -0.085)">
      <defs>
       <path id="DejaVuSans-6a" d="M 603 3500 
L 1178 3500 
L 1178 -63 
Q 1178 -731 923 -1031 
Q 669 -1331 103 -1331 
L -116 -1331 
L -116 -844 
L 38 -844 
Q 366 -844 484 -692 
Q 603 -541 603 -63 
L 603 3500 
z
M 603 4863 
L 1178 4863 
L 1178 4134 
L 603 4134 
L 603 4863 
z
" transform="scale(0.015625)"/>
       <path id="DejaVuSans-76" d="M 191 3500 
L 800 3500 
L 1894 563 
L 2988 3500 
L 3597 3500 
L 2284 0 
L 1503 0 
L 191 3500 
z
" transform="scale(0.015625)"/>
       <path id="DejaVuSans-78" d="M 3513 3500 
L 2247 1797 
L 3578 0 
L 2900 0 
L 1881 1375 
L 863 0 
L 184 0 
L 1544 1831 
L 300 3500 
L 978 3500 
L 1906 2253 
L 2834 3500 
L 3513 3500 
z
" transform="scale(0.015625)"/>
       <path id="DejaVuSans-2b" d="M 2944 4013 
L 2944 2272 
L 4684 2272 
L 4684 1741 
L 2944 1741 
L 2944 0 
L 2419 0 
L 2419 1741 
L 678 1741 
L 678 2272 
L 2419 2272 
L 2419 4013 
L 2944 4013 
z
" transform="scale(0.015625)"/>
       <path id="DejaVuSans-Oblique-3c7" d="M 1922 -781 
L 1691 416 
L 394 -1334 
L -284 -1334 
L 1553 1141 
L 1269 2613 
Q 1194 3006 713 3006 
L 559 3006 
L 653 3500 
L 872 3494 
Q 1675 3472 1775 2950 
L 2006 1753 
L 3303 3503 
L 3981 3503 
L 2144 1028 
L 2428 -444 
Q 2503 -838 2984 -838 
L 3138 -838 
L 3044 -1331 
L 2825 -1325 
Q 2022 -1303 1922 -781 
z
" transform="scale(0.015625)"/>
      </defs>
      <use xlink:href="#DejaVuSans-4f" transform="translate(0 0.015625)"/>
      <use xlink:href="#DejaVuSans-Oblique-53" transform="translate(79.667969 -16.390625) scale(0.7)"/>
      <use xlink:href="#DejaVuSans-20" transform="translate(126.835938 0.015625)"/>
      <use xlink:href="#DejaVuSans-2f" transform="translate(158.623047 0.015625)"/>
      <use xlink:href="#DejaVuSans-20" transform="translate(192.314453 0.015625)"/>
      <use xlink:href="#DejaVuSans-64" transform="translate(224.101562 0.015625)"/>
      <use xlink:href="#DejaVuSans-6f" transform="translate(287.578125 0.015625)"/>
      <use xlink:href="#DejaVuSans-6a" transform="translate(348.759766 0.015625)"/>
      <use xlink:href="#DejaVuSans-6f" transform="translate(376.542969 0.015625)"/>
      <use xlink:href="#DejaVuSans-2d" transform="translate(437.724609 0.015625)"/>
      <use xlink:href="#DejaVuSans-4f" transform="translate(473.808594 0.015625)"/>
      <use xlink:href="#DejaVuSans-20" transform="translate(552.519531 0.015625)"/>
      <use xlink:href="#DejaVuSans-76" transform="translate(584.306641 0.015625)"/>
      <use xlink:href="#DejaVuSans-65" transform="translate(643.486328 0.015625)"/>
      <use xlink:href="#DejaVuSans-72" transform="translate(705.009766 0.015625)"/>
      <use xlink:href="#DejaVuSans-74" transform="translate(746.123047 0.015625)"/>
      <use xlink:href="#DejaVuSans-65" transform="translate(785.332031 0.015625)"/>
      <use xlink:href="#DejaVuSans-78" transform="translate(846.855469 0.015625)"/>
      <use xlink:href="#DejaVuSans-20" transform="translate(906.035156 0.015625)"/>
      <use xlink:href="#DejaVuSans-28" transform="translate(937.822266 0.015625)"/>
      <use xlink:href="#DejaVuSans-2b" transform="translate(976.835938 0.015625)"/>
      <use xlink:href="#DejaVuSans-20" transform="translate(1060.625 0.015625)"/>
      <use xlink:href="#DejaVuSans-64" transform="translate(1092.412109 0.015625)"/>
      <use xlink:href="#DejaVuSans-6f" transform="translate(1155.888672 0.015625)"/>
      <use xlink:href="#DejaVuSans-6a" transform="translate(1217.070312 0.015625)"/>
      <use xlink:href="#DejaVuSans-6f" transform="translate(1244.853516 0.015625)"/>
      <use xlink:href="#DejaVuSans-20" transform="translate(1306.035156 0.015625)"/>
      <use xlink:href="#DejaVuSans-32" transform="translate(1337.822266 0.015625)"/>
      <use xlink:href="#DejaVuSans-73" transform="translate(1401.445312 0.015625)"/>
      <use xlink:href="#DejaVuSans-32" transform="translate(1453.544922 0.015625)"/>
      <use xlink:href="#DejaVuSans-70" transform="translate(1517.167969 0.015625)"/>
      <use xlink:href="#DejaVuSans-20" transform="translate(1580.644531 0.015625)"/>
      <use xlink:href="#DejaVuSans-Oblique-3c7" transform="translate(1612.431641 0.015625)"/>
      <use xlink:href="#DejaVuSans-29" transform="translate(1671.611328 0.015625)"/>
     </g>
    </g>
    <g id="line2d_25">
     <path d="M 426.30976 39.85024 
L 434.80976 39.85024 
L 443.30976 39.85024 
" style="fill: none; stroke-dasharray: 5.55,2.4; stroke-dashoffset: 0; stroke: #e67e22; stroke-width: 1.5"/>
    </g>
    <g id="text_26">
     <!-- O$_S$ / SG15-O vertex (+ native 2s2p $\chi$) -->
     <g transform="translate(450.10976 42.82524) scale(0.085 -0.085)">
      <defs>
       <path id="DejaVuSans-53" d="M 3425 4513 
L 3425 3897 
Q 3066 4069 2747 4153 
Q 2428 4238 2131 4238 
Q 1616 4238 1336 4038 
Q 1056 3838 1056 3469 
Q 1056 3159 1242 3001 
Q 1428 2844 1947 2747 
L 2328 2669 
Q 3034 2534 3370 2195 
Q 3706 1856 3706 1288 
Q 3706 609 3251 259 
Q 2797 -91 1919 -91 
Q 1588 -91 1214 -16 
Q 841 59 441 206 
L 441 856 
Q 825 641 1194 531 
Q 1563 422 1919 422 
Q 2459 422 2753 634 
Q 3047 847 3047 1241 
Q 3047 1584 2836 1778 
Q 2625 1972 2144 2069 
L 1759 2144 
Q 1053 2284 737 2584 
Q 422 2884 422 3419 
Q 422 4038 858 4394 
Q 1294 4750 2059 4750 
Q 2388 4750 2728 4690 
Q 3069 4631 3425 4513 
z
" transform="scale(0.015625)"/>
       <path id="DejaVuSans-47" d="M 3809 666 
L 3809 1919 
L 2778 1919 
L 2778 2438 
L 4434 2438 
L 4434 434 
Q 4069 175 3628 42 
Q 3188 -91 2688 -91 
Q 1594 -91 976 548 
Q 359 1188 359 2328 
Q 359 3472 976 4111 
Q 1594 4750 2688 4750 
Q 3144 4750 3555 4637 
Q 3966 4525 4313 4306 
L 4313 3634 
Q 3963 3931 3569 4081 
Q 3175 4231 2741 4231 
Q 1884 4231 1454 3753 
Q 1025 3275 1025 2328 
Q 1025 1384 1454 906 
Q 1884 428 2741 428 
Q 3075 428 3337 486 
Q 3600 544 3809 666 
z
" transform="scale(0.015625)"/>
      </defs>
      <use xlink:href="#DejaVuSans-4f" transform="translate(0 0.015625)"/>
      <use xlink:href="#DejaVuSans-Oblique-53" transform="translate(79.667969 -16.390625) scale(0.7)"/>
      <use xlink:href="#DejaVuSans-20" transform="translate(126.835938 0.015625)"/>
      <use xlink:href="#DejaVuSans-2f" transform="translate(158.623047 0.015625)"/>
      <use xlink:href="#DejaVuSans-20" transform="translate(192.314453 0.015625)"/>
      <use xlink:href="#DejaVuSans-53" transform="translate(224.101562 0.015625)"/>
      <use xlink:href="#DejaVuSans-47" transform="translate(287.578125 0.015625)"/>
      <use xlink:href="#DejaVuSans-31" transform="translate(365.068359 0.015625)"/>
      <use xlink:href="#DejaVuSans-35" transform="translate(428.691406 0.015625)"/>
      <use xlink:href="#DejaVuSans-2d" transform="translate(492.314453 0.015625)"/>
      <use xlink:href="#DejaVuSans-4f" transform="translate(528.398438 0.015625)"/>
      <use xlink:href="#DejaVuSans-20" transform="translate(607.109375 0.015625)"/>
      <use xlink:href="#DejaVuSans-76" transform="translate(638.896484 0.015625)"/>
      <use xlink:href="#DejaVuSans-65" transform="translate(698.076172 0.015625)"/>
      <use xlink:href="#DejaVuSans-72" transform="translate(759.599609 0.015625)"/>
      <use xlink:href="#DejaVuSans-74" transform="translate(800.712891 0.015625)"/>
      <use xlink:href="#DejaVuSans-65" transform="translate(839.921875 0.015625)"/>
      <use xlink:href="#DejaVuSans-78" transform="translate(901.445312 0.015625)"/>
      <use xlink:href="#DejaVuSans-20" transform="translate(960.625 0.015625)"/>
      <use xlink:href="#DejaVuSans-28" transform="translate(992.412109 0.015625)"/>
      <use xlink:href="#DejaVuSans-2b" transform="translate(1031.425781 0.015625)"/>
      <use xlink:href="#DejaVuSans-20" transform="translate(1115.214844 0.015625)"/>
      <use xlink:href="#DejaVuSans-6e" transform="translate(1147.001953 0.015625)"/>
      <use xlink:href="#DejaVuSans-61" transform="translate(1210.380859 0.015625)"/>
      <use xlink:href="#DejaVuSans-74" transform="translate(1271.660156 0.015625)"/>
      <use xlink:href="#DejaVuSans-69" transform="translate(1310.869141 0.015625)"/>
      <use xlink:href="#DejaVuSans-76" transform="translate(1338.652344 0.015625)"/>
      <use xlink:href="#DejaVuSans-65" transform="translate(1397.832031 0.015625)"/>
      <use xlink:href="#DejaVuSans-20" transform="translate(1459.355469 0.015625)"/>
      <use xlink:href="#DejaVuSans-32" transform="translate(1491.142578 0.015625)"/>
      <use xlink:href="#DejaVuSans-73" transform="translate(1554.765625 0.015625)"/>
      <use xlink:href="#DejaVuSans-32" transform="translate(1606.865234 0.015625)"/>
      <use xlink:href="#DejaVuSans-70" transform="translate(1670.488281 0.015625)"/>
      <use xlink:href="#DejaVuSans-20" transform="translate(1733.964844 0.015625)"/>
      <use xlink:href="#DejaVuSans-Oblique-3c7" transform="translate(1765.751953 0.015625)"/>
      <use xlink:href="#DejaVuSans-29" transform="translate(1824.931641 0.015625)"/>
     </g>
    </g>
   </g>
  </g>
 </g>
 <defs>
  <clipPath id="p2d81085098">
   <rect x="39.58149" y="16.22024" width="576.61827" height="260.02327"/>
  </clipPath>
 </defs>
</svg>
