<?xml version="1.0" encoding="utf-8" standalone="no"?>
<!DOCTYPE svg PUBLIC "-//W3C//DTD SVG 1.1//EN"
  "http://www.w3.org/Graphics/SVG/1.1/DTD/svg11.dtd">
<svg xmlns:xlink="http://www.w3.org/1999/xlink" width="691.2pt" height="345.6pt" viewBox="0 0 691.2 345.6" xmlns="http://www.w3.org/2000/svg" version="1.1">
 <metadata>
  <rdf:RDF xmlns:dc="http://purl.org/dc/elements/1.1/" xmlns:cc="http://creativecommons.org/ns#" xmlns:rdf="http://www.w3.org/1999/02/22-rdf-syntax-ns#">
   <cc:Work>
    <dc:type rdf:resource="http://purl.org/dc/dcmitype/StillImage"/>
    <dc:date>2026-07-08T16:59:53.256870</dc:date>
    <dc:format>image/svg+xml</dc:format>
    <dc:creator>
     <cc:Agent>
      <dc:title>Matplotlib v3.10.8, https://matplotlib.org/</dc:title>
     </cc:Agent>
    </dc:creator>
   </cc:Work>
  </rdf:RDF>
 </metadata>
 <defs>
  <style type="text/css">*{stroke-linejoin: round; stroke-linecap: butt}</style>
 </defs>
 <g id="figure_1">
  <g id="patch_1">
   <path d="M 0 345.6 
L 691.2 345.6 
L 691.2 0 
L 0 0 
z
" style="fill: #ffffff"/>
  </g>
  <g id="axes_1">
   <g id="patch_2">
    <path d="M 57.44 301.192 
L 672.435 301.192 
L 672.435 26.16 
L 57.44 26.16 
z
" style="fill: #ffffff"/>
   </g>
   <g id="matplotlib.axis_1">
    <g id="xtick_1">
     <g id="line2d_1">
      <defs>
       <path id="m33fc166f6e" d="M 0 0 
L 0 3.5 
" style="stroke: #000000; stroke-width: 0.8"/>
      </defs>
      <g>
       <use xlink:href="#m33fc166f6e" x="57.44" y="301.192" style="stroke: #000000; stroke-width: 0.8"/>
      </g>
     </g>
     <g id="text_1">
      <!-- −1.0 -->
      <g transform="translate(45.298594 315.790437) scale(0.1 -0.1)">
       <defs>
        <path id="DejaVuSans-2212" d="M 678 2272 
L 4684 2272 
L 4684 1741 
L 678 1741 
L 678 2272 
z
" transform="scale(0.015625)"/>
        <path id="DejaVuSans-31" d="M 794 531 
L 1825 531 
L 1825 4091 
L 703 3866 
L 703 4441 
L 1819 4666 
L 2450 4666 
L 2450 531 
L 3481 531 
L 3481 0 
L 794 0 
L 794 531 
z
" transform="scale(0.015625)"/>
        <path id="DejaVuSans-2e" d="M 684 794 
L 1344 794 
L 1344 0 
L 684 0 
L 684 794 
z
" transform="scale(0.015625)"/>
        <path id="DejaVuSans-30" d="M 2034 4250 
Q 1547 4250 1301 3770 
Q 1056 3291 1056 2328 
Q 1056 1369 1301 889 
Q 1547 409 2034 409 
Q 2525 409 2770 889 
Q 3016 1369 3016 2328 
Q 3016 3291 2770 3770 
Q 2525 4250 2034 4250 
z
M 2034 4750 
Q 2819 4750 3233 4129 
Q 3647 3509 3647 2328 
Q 3647 1150 3233 529 
Q 2819 -91 2034 -91 
Q 1250 -91 836 529 
Q 422 1150 422 2328 
Q 422 3509 836 4129 
Q 1250 4750 2034 4750 
z
" transform="scale(0.015625)"/>
       </defs>
       <use xlink:href="#DejaVuSans-2212"/>
       <use xlink:href="#DejaVuSans-31" transform="translate(83.789062 0)"/>
       <use xlink:href="#DejaVuSans-2e" transform="translate(147.412109 0)"/>
       <use xlink:href="#DejaVuSans-30" transform="translate(179.199219 0)"/>
      </g>
     </g>
    </g>
    <g id="xtick_2">
     <g id="line2d_2">
      <g>
       <use xlink:href="#m33fc166f6e" x="145.296429" y="301.192" style="stroke: #000000; stroke-width: 0.8"/>
      </g>
     </g>
     <g id="text_2">
      <!-- −0.5 -->
      <g transform="translate(133.155022 315.790437) scale(0.1 -0.1)">
       <defs>
        <path id="DejaVuSans-35" d="M 691 4666 
L 3169 4666 
L 3169 4134 
L 1269 4134 
L 1269 2991 
Q 1406 3038 1543 3061 
Q 1681 3084 1819 3084 
Q 2600 3084 3056 2656 
Q 3513 2228 3513 1497 
Q 3513 744 3044 326 
Q 2575 -91 1722 -91 
Q 1428 -91 1123 -41 
Q 819 9 494 109 
L 494 744 
Q 775 591 1075 516 
Q 1375 441 1709 441 
Q 2250 441 2565 725 
Q 2881 1009 2881 1497 
Q 2881 1984 2565 2268 
Q 2250 2553 1709 2553 
Q 1456 2553 1204 2497 
Q 953 2441 691 2322 
L 691 4666 
z
" transform="scale(0.015625)"/>
       </defs>
       <use xlink:href="#DejaVuSans-2212"/>
       <use xlink:href="#DejaVuSans-30" transform="translate(83.789062 0)"/>
       <use xlink:href="#DejaVuSans-2e" transform="translate(147.412109 0)"/>
       <use xlink:href="#DejaVuSans-35" transform="translate(179.199219 0)"/>
      </g>
     </g>
    </g>
    <g id="xtick_3">
     <g id="line2d_3">
      <g>
       <use xlink:href="#m33fc166f6e" x="233.152857" y="301.192" style="stroke: #000000; stroke-width: 0.8"/>
      </g>
     </g>
     <g id="text_3">
      <!-- 0.0 -->
      <g transform="translate(225.201295 315.790437) scale(0.1 -0.1)">
       <use xlink:href="#DejaVuSans-30"/>
       <use xlink:href="#DejaVuSans-2e" transform="translate(63.623047 0)"/>
       <use xlink:href="#DejaVuSans-30" transform="translate(95.410156 0)"/>
      </g>
     </g>
    </g>
    <g id="xtick_4">
     <g id="line2d_4">
      <g>
       <use xlink:href="#m33fc166f6e" x="321.009286" y="301.192" style="stroke: #000000; stroke-width: 0.8"/>
      </g>
     </g>
     <g id="text_4">
      <!-- 0.5 -->
      <g transform="translate(313.057723 315.790437) scale(0.1 -0.1)">
       <use xlink:href="#DejaVuSans-30"/>
       <use xlink:href="#DejaVuSans-2e" transform="translate(63.623047 0)"/>
       <use xlink:href="#DejaVuSans-35" transform="translate(95.410156 0)"/>
      </g>
     </g>
    </g>
    <g id="xtick_5">
     <g id="line2d_5">
      <g>
       <use xlink:href="#m33fc166f6e" x="408.865714" y="301.192" style="stroke: #000000; stroke-width: 0.8"/>
      </g>
     </g>
     <g id="text_5">
      <!-- 1.0 -->
      <g transform="translate(400.914152 315.790437) scale(0.1 -0.1)">
       <use xlink:href="#DejaVuSans-31"/>
       <use xlink:href="#DejaVuSans-2e" transform="translate(63.623047 0)"/>
       <use xlink:href="#DejaVuSans-30" transform="translate(95.410156 0)"/>
      </g>
     </g>
    </g>
    <g id="xtick_6">
     <g id="line2d_6">
      <g>
       <use xlink:href="#m33fc166f6e" x="496.722143" y="301.192" style="stroke: #000000; stroke-width: 0.8"/>
      </g>
     </g>
     <g id="text_6">
      <!-- 1.5 -->
      <g transform="translate(488.77058 315.790437) scale(0.1 -0.1)">
       <use xlink:href="#DejaVuSans-31"/>
       <use xlink:href="#DejaVuSans-2e" transform="translate(63.623047 0)"/>
       <use xlink:href="#DejaVuSans-35" transform="translate(95.410156 0)"/>
      </g>
     </g>
    </g>
    <g id="xtick_7">
     <g id="line2d_7">
      <g>
       <use xlink:href="#m33fc166f6e" x="584.578571" y="301.192" style="stroke: #000000; stroke-width: 0.8"/>
      </g>
     </g>
     <g id="text_7">
      <!-- 2.0 -->
      <g transform="translate(576.627009 315.790437) scale(0.1 -0.1)">
       <defs>
        <path id="DejaVuSans-32" d="M 1228 531 
L 3431 531 
L 3431 0 
L 469 0 
L 469 531 
Q 828 903 1448 1529 
Q 2069 2156 2228 2338 
Q 2531 2678 2651 2914 
Q 2772 3150 2772 3378 
Q 2772 3750 2511 3984 
Q 2250 4219 1831 4219 
Q 1534 4219 1204 4116 
Q 875 4013 500 3803 
L 500 4441 
Q 881 4594 1212 4672 
Q 1544 4750 1819 4750 
Q 2544 4750 2975 4387 
Q 3406 4025 3406 3419 
Q 3406 3131 3298 2873 
Q 3191 2616 2906 2266 
Q 2828 2175 2409 1742 
Q 1991 1309 1228 531 
z
" transform="scale(0.015625)"/>
       </defs>
       <use xlink:href="#DejaVuSans-32"/>
       <use xlink:href="#DejaVuSans-2e" transform="translate(63.623047 0)"/>
       <use xlink:href="#DejaVuSans-30" transform="translate(95.410156 0)"/>
      </g>
     </g>
    </g>
    <g id="xtick_8">
     <g id="line2d_8">
      <g>
       <use xlink:href="#m33fc166f6e" x="672.435" y="301.192" style="stroke: #000000; stroke-width: 0.8"/>
      </g>
     </g>
     <g id="text_8">
      <!-- 2.5 -->
      <g transform="translate(664.483437 315.790437) scale(0.1 -0.1)">
       <use xlink:href="#DejaVuSans-32"/>
       <use xlink:href="#DejaVuSans-2e" transform="translate(63.623047 0)"/>
       <use xlink:href="#DejaVuSans-35" transform="translate(95.410156 0)"/>
      </g>
     </g>
    </g>
    <g id="text_9">
     <!-- $E - E_{\rm VBM}$  (eV) -->
     <g transform="translate(330.9375 329.468562) scale(0.1 -0.1)">
      <defs>
       <path id="DejaVuSans-Oblique-45" d="M 1081 4666 
L 4031 4666 
L 3928 4134 
L 1606 4134 
L 1338 2753 
L 3566 2753 
L 3463 2222 
L 1234 2222 
L 909 531 
L 3284 531 
L 3181 0 
L 172 0 
L 1081 4666 
z
" transform="scale(0.015625)"/>
       <path id="DejaVuSans-56" d="M 1831 0 
L 50 4666 
L 709 4666 
L 2188 738 
L 3669 4666 
L 4325 4666 
L 2547 0 
L 1831 0 
z
" transform="scale(0.015625)"/>
       <path id="DejaVuSans-42" d="M 1259 2228 
L 1259 519 
L 2272 519 
Q 2781 519 3026 730 
Q 3272 941 3272 1375 
Q 3272 1813 3026 2020 
Q 2781 2228 2272 2228 
L 1259 2228 
z
M 1259 4147 
L 1259 2741 
L 2194 2741 
Q 2656 2741 2882 2914 
Q 3109 3088 3109 3444 
Q 3109 3797 2882 3972 
Q 2656 4147 2194 4147 
L 1259 4147 
z
M 628 4666 
L 2241 4666 
Q 2963 4666 3353 4366 
Q 3744 4066 3744 3513 
Q 3744 3084 3544 2831 
Q 3344 2578 2956 2516 
Q 3422 2416 3680 2098 
Q 3938 1781 3938 1306 
Q 3938 681 3513 340 
Q 3088 0 2303 0 
L 628 0 
L 628 4666 
z
" transform="scale(0.015625)"/>
       <path id="DejaVuSans-4d" d="M 628 4666 
L 1569 4666 
L 2759 1491 
L 3956 4666 
L 4897 4666 
L 4897 0 
L 4281 0 
L 4281 4097 
L 3078 897 
L 2444 897 
L 1241 4097 
L 1241 0 
L 628 0 
L 628 4666 
z
" transform="scale(0.015625)"/>
       <path id="DejaVuSans-20" transform="scale(0.015625)"/>
       <path id="DejaVuSans-28" d="M 1984 4856 
Q 1566 4138 1362 3434 
Q 1159 2731 1159 2009 
Q 1159 1288 1364 580 
Q 1569 -128 1984 -844 
L 1484 -844 
Q 1016 -109 783 600 
Q 550 1309 550 2009 
Q 550 2706 781 3412 
Q 1013 4119 1484 4856 
L 1984 4856 
z
" transform="scale(0.015625)"/>
       <path id="DejaVuSans-65" d="M 3597 1894 
L 3597 1613 
L 953 1613 
Q 991 1019 1311 708 
Q 1631 397 2203 397 
Q 2534 397 2845 478 
Q 3156 559 3463 722 
L 3463 178 
Q 3153 47 2828 -22 
Q 2503 -91 2169 -91 
Q 1331 -91 842 396 
Q 353 884 353 1716 
Q 353 2575 817 3079 
Q 1281 3584 2069 3584 
Q 2775 3584 3186 3129 
Q 3597 2675 3597 1894 
z
M 3022 2063 
Q 3016 2534 2758 2815 
Q 2500 3097 2075 3097 
Q 1594 3097 1305 2825 
Q 1016 2553 972 2059 
L 3022 2063 
z
" transform="scale(0.015625)"/>
       <path id="DejaVuSans-29" d="M 513 4856 
L 1013 4856 
Q 1481 4119 1714 3412 
Q 1947 2706 1947 2009 
Q 1947 1309 1714 600 
Q 1481 -109 1013 -844 
L 513 -844 
Q 928 -128 1133 580 
Q 1338 1288 1338 2009 
Q 1338 2731 1133 3434 
Q 928 4138 513 4856 
z
" transform="scale(0.015625)"/>
      </defs>
      <use xlink:href="#DejaVuSans-Oblique-45" transform="translate(0 0.125)"/>
      <use xlink:href="#DejaVuSans-2212" transform="translate(82.666016 0.125)"/>
      <use xlink:href="#DejaVuSans-Oblique-45" transform="translate(185.9375 0.125)"/>
      <use xlink:href="#DejaVuSans-56" transform="translate(249.121094 -16.28125) scale(0.7)"/>
      <use xlink:href="#DejaVuSans-42" transform="translate(297.006836 -16.28125) scale(0.7)"/>
      <use xlink:href="#DejaVuSans-4d" transform="translate(345.029297 -16.28125) scale(0.7)"/>
      <use xlink:href="#DejaVuSans-20" transform="translate(408.15918 0.125)"/>
      <use xlink:href="#DejaVuSans-20" transform="translate(439.946289 0.125)"/>
      <use xlink:href="#DejaVuSans-28" transform="translate(471.733398 0.125)"/>
      <use xlink:href="#DejaVuSans-65" transform="translate(510.74707 0.125)"/>
      <use xlink:href="#DejaVuSans-56" transform="translate(572.270508 0.125)"/>
      <use xlink:href="#DejaVuSans-29" transform="translate(640.678711 0.125)"/>
     </g>
    </g>
   </g>
   <g id="matplotlib.axis_2">
    <g id="ytick_1">
     <g id="line2d_9">
      <defs>
       <path id="mc408209960" d="M 0 0 
L -3.5 0 
" style="stroke: #000000; stroke-width: 0.8"/>
      </defs>
      <g>
       <use xlink:href="#mc408209960" x="57.44" y="301.192" style="stroke: #000000; stroke-width: 0.8"/>
      </g>
     </g>
     <g id="text_10">
      <!-- 0 -->
      <g transform="translate(44.0775 304.991219) scale(0.1 -0.1)">
       <use xlink:href="#DejaVuSans-30"/>
      </g>
     </g>
    </g>
    <g id="ytick_2">
     <g id="line2d_10">
      <g>
       <use xlink:href="#mc408209960" x="57.44" y="264.299713" style="stroke: #000000; stroke-width: 0.8"/>
      </g>
     </g>
     <g id="text_11">
      <!-- 200 -->
      <g transform="translate(31.3525 268.098932) scale(0.1 -0.1)">
       <use xlink:href="#DejaVuSans-32"/>
       <use xlink:href="#DejaVuSans-30" transform="translate(63.623047 0)"/>
       <use xlink:href="#DejaVuSans-30" transform="translate(127.246094 0)"/>
      </g>
     </g>
    </g>
    <g id="ytick_3">
     <g id="line2d_11">
      <g>
       <use xlink:href="#mc408209960" x="57.44" y="227.407426" style="stroke: #000000; stroke-width: 0.8"/>
      </g>
     </g>
     <g id="text_12">
      <!-- 400 -->
      <g transform="translate(31.3525 231.206645) scale(0.1 -0.1)">
       <defs>
        <path id="DejaVuSans-34" d="M 2419 4116 
L 825 1625 
L 2419 1625 
L 2419 4116 
z
M 2253 4666 
L 3047 4666 
L 3047 1625 
L 3713 1625 
L 3713 1100 
L 3047 1100 
L 3047 0 
L 2419 0 
L 2419 1100 
L 313 1100 
L 313 1709 
L 2253 4666 
z
" transform="scale(0.015625)"/>
       </defs>
       <use xlink:href="#DejaVuSans-34"/>
       <use xlink:href="#DejaVuSans-30" transform="translate(63.623047 0)"/>
       <use xlink:href="#DejaVuSans-30" transform="translate(127.246094 0)"/>
      </g>
     </g>
    </g>
    <g id="ytick_4">
     <g id="line2d_12">
      <g>
       <use xlink:href="#mc408209960" x="57.44" y="190.515139" style="stroke: #000000; stroke-width: 0.8"/>
      </g>
     </g>
     <g id="text_13">
      <!-- 600 -->
      <g transform="translate(31.3525 194.314358) scale(0.1 -0.1)">
       <defs>
        <path id="DejaVuSans-36" d="M 2113 2584 
Q 1688 2584 1439 2293 
Q 1191 2003 1191 1497 
Q 1191 994 1439 701 
Q 1688 409 2113 409 
Q 2538 409 2786 701 
Q 3034 994 3034 1497 
Q 3034 2003 2786 2293 
Q 2538 2584 2113 2584 
z
M 3366 4563 
L 3366 3988 
Q 3128 4100 2886 4159 
Q 2644 4219 2406 4219 
Q 1781 4219 1451 3797 
Q 1122 3375 1075 2522 
Q 1259 2794 1537 2939 
Q 1816 3084 2150 3084 
Q 2853 3084 3261 2657 
Q 3669 2231 3669 1497 
Q 3669 778 3244 343 
Q 2819 -91 2113 -91 
Q 1303 -91 875 529 
Q 447 1150 447 2328 
Q 447 3434 972 4092 
Q 1497 4750 2381 4750 
Q 2619 4750 2861 4703 
Q 3103 4656 3366 4563 
z
" transform="scale(0.015625)"/>
       </defs>
       <use xlink:href="#DejaVuSans-36"/>
       <use xlink:href="#DejaVuSans-30" transform="translate(63.623047 0)"/>
       <use xlink:href="#DejaVuSans-30" transform="translate(127.246094 0)"/>
      </g>
     </g>
    </g>
    <g id="ytick_5">
     <g id="line2d_13">
      <g>
       <use xlink:href="#mc408209960" x="57.44" y="153.622852" style="stroke: #000000; stroke-width: 0.8"/>
      </g>
     </g>
     <g id="text_14">
      <!-- 800 -->
      <g transform="translate(31.3525 157.422071) scale(0.1 -0.1)">
       <defs>
        <path id="DejaVuSans-38" d="M 2034 2216 
Q 1584 2216 1326 1975 
Q 1069 1734 1069 1313 
Q 1069 891 1326 650 
Q 1584 409 2034 409 
Q 2484 409 2743 651 
Q 3003 894 3003 1313 
Q 3003 1734 2745 1975 
Q 2488 2216 2034 2216 
z
M 1403 2484 
Q 997 2584 770 2862 
Q 544 3141 544 3541 
Q 544 4100 942 4425 
Q 1341 4750 2034 4750 
Q 2731 4750 3128 4425 
Q 3525 4100 3525 3541 
Q 3525 3141 3298 2862 
Q 3072 2584 2669 2484 
Q 3125 2378 3379 2068 
Q 3634 1759 3634 1313 
Q 3634 634 3220 271 
Q 2806 -91 2034 -91 
Q 1263 -91 848 271 
Q 434 634 434 1313 
Q 434 1759 690 2068 
Q 947 2378 1403 2484 
z
M 1172 3481 
Q 1172 3119 1398 2916 
Q 1625 2713 2034 2713 
Q 2441 2713 2670 2916 
Q 2900 3119 2900 3481 
Q 2900 3844 2670 4047 
Q 2441 4250 2034 4250 
Q 1625 4250 1398 4047 
Q 1172 3844 1172 3481 
z
" transform="scale(0.015625)"/>
       </defs>
       <use xlink:href="#DejaVuSans-38"/>
       <use xlink:href="#DejaVuSans-30" transform="translate(63.623047 0)"/>
       <use xlink:href="#DejaVuSans-30" transform="translate(127.246094 0)"/>
      </g>
     </g>
    </g>
    <g id="ytick_6">
     <g id="line2d_14">
      <g>
       <use xlink:href="#mc408209960" x="57.44" y="116.730565" style="stroke: #000000; stroke-width: 0.8"/>
      </g>
     </g>
     <g id="text_15">
      <!-- 1000 -->
      <g transform="translate(24.99 120.529783) scale(0.1 -0.1)">
       <use xlink:href="#DejaVuSans-31"/>
       <use xlink:href="#DejaVuSans-30" transform="translate(63.623047 0)"/>
       <use xlink:href="#DejaVuSans-30" transform="translate(127.246094 0)"/>
       <use xlink:href="#DejaVuSans-30" transform="translate(190.869141 0)"/>
      </g>
     </g>
    </g>
    <g id="ytick_7">
     <g id="line2d_15">
      <g>
       <use xlink:href="#mc408209960" x="57.44" y="79.838278" style="stroke: #000000; stroke-width: 0.8"/>
      </g>
     </g>
     <g id="text_16">
      <!-- 1200 -->
      <g transform="translate(24.99 83.637496) scale(0.1 -0.1)">
       <use xlink:href="#DejaVuSans-31"/>
       <use xlink:href="#DejaVuSans-32" transform="translate(63.623047 0)"/>
       <use xlink:href="#DejaVuSans-30" transform="translate(127.246094 0)"/>
       <use xlink:href="#DejaVuSans-30" transform="translate(190.869141 0)"/>
      </g>
     </g>
    </g>
    <g id="ytick_8">
     <g id="line2d_16">
      <g>
       <use xlink:href="#mc408209960" x="57.44" y="42.945991" style="stroke: #000000; stroke-width: 0.8"/>
      </g>
     </g>
     <g id="text_17">
      <!-- 1400 -->
      <g transform="translate(24.99 46.745209) scale(0.1 -0.1)">
       <use xlink:href="#DejaVuSans-31"/>
       <use xlink:href="#DejaVuSans-34" transform="translate(63.623047 0)"/>
       <use xlink:href="#DejaVuSans-30" transform="translate(127.246094 0)"/>
       <use xlink:href="#DejaVuSans-30" transform="translate(190.869141 0)"/>
      </g>
     </g>
    </g>
    <g id="text_18">
     <!-- DOS (states/eV) -->
     <g transform="translate(18.910312 203.578344) rotate(-90) scale(0.1 -0.1)">
      <defs>
       <path id="DejaVuSans-44" d="M 1259 4147 
L 1259 519 
L 2022 519 
Q 2988 519 3436 956 
Q 3884 1394 3884 2338 
Q 3884 3275 3436 3711 
Q 2988 4147 2022 4147 
L 1259 4147 
z
M 628 4666 
L 1925 4666 
Q 3281 4666 3915 4102 
Q 4550 3538 4550 2338 
Q 4550 1131 3912 565 
Q 3275 0 1925 0 
L 628 0 
L 628 4666 
z
" transform="scale(0.015625)"/>
       <path id="DejaVuSans-4f" d="M 2522 4238 
Q 1834 4238 1429 3725 
Q 1025 3213 1025 2328 
Q 1025 1447 1429 934 
Q 1834 422 2522 422 
Q 3209 422 3611 934 
Q 4013 1447 4013 2328 
Q 4013 3213 3611 3725 
Q 3209 4238 2522 4238 
z
M 2522 4750 
Q 3503 4750 4090 4092 
Q 4678 3434 4678 2328 
Q 4678 1225 4090 567 
Q 3503 -91 2522 -91 
Q 1538 -91 948 565 
Q 359 1222 359 2328 
Q 359 3434 948 4092 
Q 1538 4750 2522 4750 
z
" transform="scale(0.015625)"/>
       <path id="DejaVuSans-53" d="M 3425 4513 
L 3425 3897 
Q 3066 4069 2747 4153 
Q 2428 4238 2131 4238 
Q 1616 4238 1336 4038 
Q 1056 3838 1056 3469 
Q 1056 3159 1242 3001 
Q 1428 2844 1947 2747 
L 2328 2669 
Q 3034 2534 3370 2195 
Q 3706 1856 3706 1288 
Q 3706 609 3251 259 
Q 2797 -91 1919 -91 
Q 1588 -91 1214 -16 
Q 841 59 441 206 
L 441 856 
Q 825 641 1194 531 
Q 1563 422 1919 422 
Q 2459 422 2753 634 
Q 3047 847 3047 1241 
Q 3047 1584 2836 1778 
Q 2625 1972 2144 2069 
L 1759 2144 
Q 1053 2284 737 2584 
Q 422 2884 422 3419 
Q 422 4038 858 4394 
Q 1294 4750 2059 4750 
Q 2388 4750 2728 4690 
Q 3069 4631 3425 4513 
z
" transform="scale(0.015625)"/>
       <path id="DejaVuSans-73" d="M 2834 3397 
L 2834 2853 
Q 2591 2978 2328 3040 
Q 2066 3103 1784 3103 
Q 1356 3103 1142 2972 
Q 928 2841 928 2578 
Q 928 2378 1081 2264 
Q 1234 2150 1697 2047 
L 1894 2003 
Q 2506 1872 2764 1633 
Q 3022 1394 3022 966 
Q 3022 478 2636 193 
Q 2250 -91 1575 -91 
Q 1294 -91 989 -36 
Q 684 19 347 128 
L 347 722 
Q 666 556 975 473 
Q 1284 391 1588 391 
Q 1994 391 2212 530 
Q 2431 669 2431 922 
Q 2431 1156 2273 1281 
Q 2116 1406 1581 1522 
L 1381 1569 
Q 847 1681 609 1914 
Q 372 2147 372 2553 
Q 372 3047 722 3315 
Q 1072 3584 1716 3584 
Q 2034 3584 2315 3537 
Q 2597 3491 2834 3397 
z
" transform="scale(0.015625)"/>
       <path id="DejaVuSans-74" d="M 1172 4494 
L 1172 3500 
L 2356 3500 
L 2356 3053 
L 1172 3053 
L 1172 1153 
Q 1172 725 1289 603 
Q 1406 481 1766 481 
L 2356 481 
L 2356 0 
L 1766 0 
Q 1100 0 847 248 
Q 594 497 594 1153 
L 594 3053 
L 172 3053 
L 172 3500 
L 594 3500 
L 594 4494 
L 1172 4494 
z
" transform="scale(0.015625)"/>
       <path id="DejaVuSans-61" d="M 2194 1759 
Q 1497 1759 1228 1600 
Q 959 1441 959 1056 
Q 959 750 1161 570 
Q 1363 391 1709 391 
Q 2188 391 2477 730 
Q 2766 1069 2766 1631 
L 2766 1759 
L 2194 1759 
z
M 3341 1997 
L 3341 0 
L 2766 0 
L 2766 531 
Q 2569 213 2275 61 
Q 1981 -91 1556 -91 
Q 1019 -91 701 211 
Q 384 513 384 1019 
Q 384 1609 779 1909 
Q 1175 2209 1959 2209 
L 2766 2209 
L 2766 2266 
Q 2766 2663 2505 2880 
Q 2244 3097 1772 3097 
Q 1472 3097 1187 3025 
Q 903 2953 641 2809 
L 641 3341 
Q 956 3463 1253 3523 
Q 1550 3584 1831 3584 
Q 2591 3584 2966 3190 
Q 3341 2797 3341 1997 
z
" transform="scale(0.015625)"/>
       <path id="DejaVuSans-2f" d="M 1625 4666 
L 2156 4666 
L 531 -594 
L 0 -594 
L 1625 4666 
z
" transform="scale(0.015625)"/>
      </defs>
      <use xlink:href="#DejaVuSans-44"/>
      <use xlink:href="#DejaVuSans-4f" transform="translate(77.001953 0)"/>
      <use xlink:href="#DejaVuSans-53" transform="translate(155.712891 0)"/>
      <use xlink:href="#DejaVuSans-20" transform="translate(219.189453 0)"/>
      <use xlink:href="#DejaVuSans-28" transform="translate(250.976562 0)"/>
      <use xlink:href="#DejaVuSans-73" transform="translate(289.990234 0)"/>
      <use xlink:href="#DejaVuSans-74" transform="translate(342.089844 0)"/>
      <use xlink:href="#DejaVuSans-61" transform="translate(381.298828 0)"/>
      <use xlink:href="#DejaVuSans-74" transform="translate(442.578125 0)"/>
      <use xlink:href="#DejaVuSans-65" transform="translate(481.787109 0)"/>
      <use xlink:href="#DejaVuSans-73" transform="translate(543.310547 0)"/>
      <use xlink:href="#DejaVuSans-2f" transform="translate(595.410156 0)"/>
      <use xlink:href="#DejaVuSans-65" transform="translate(629.101562 0)"/>
      <use xlink:href="#DejaVuSans-56" transform="translate(690.625 0)"/>
      <use xlink:href="#DejaVuSans-29" transform="translate(759.033203 0)"/>
     </g>
    </g>
   </g>
   <g id="line2d_17">
    <path d="M 56.789862 273.153862 
L 57.668427 292.134944 
L 58.546991 299.371366 
L 59.425555 300.845213 
L 60.30412 300.094454 
L 61.182684 295.492142 
L 62.061248 283.004102 
L 62.939812 265.775404 
L 63.818377 258.396947 
L 64.696941 264.853097 
L 65.575505 267.251096 
L 66.45407 253.60095 
L 67.332634 232.572346 
L 68.211198 219.844507 
L 69.089762 225.37835 
L 69.968327 242.902186 
L 70.846891 253.416488 
L 71.725455 254.89218 
L 72.60402 263.93079 
L 73.482584 281.454626 
L 74.361148 294.772742 
L 75.239712 299.917371 
L 76.118277 301.038528 
L 76.996841 301.180803 
L 86.661048 301.192 
L 93.689562 301.181025 
L 94.568127 301.04812 
L 95.446691 300.005913 
L 96.325255 294.957203 
L 97.20382 279.794474 
L 98.960948 226.116196 
L 99.839512 218.737738 
L 100.718077 228.329733 
L 101.596641 241.426495 
L 102.475205 258.212486 
L 103.35377 278.872166 
L 104.232334 293.647527 
L 105.110898 299.624078 
L 105.989462 300.992782 
L 106.868027 301.176671 
L 113.896541 301.192 
L 120.925055 301.171156 
L 121.80362 300.968802 
L 122.682184 299.725532 
L 123.560748 295.363019 
L 124.439312 287.172931 
L 125.317877 280.532319 
L 126.196441 281.823549 
L 127.075005 284.959394 
L 127.95357 278.318782 
L 128.832134 264.115252 
L 129.710698 260.241561 
L 130.589262 273.338323 
L 131.467827 289.755391 
L 132.346391 298.332848 
L 133.224955 300.758516 
L 134.10352 301.152156 
L 137.617777 301.192 
L 142.010598 301.151418 
L 142.889162 300.752982 
L 143.767727 298.295955 
L 144.646291 289.644714 
L 146.40342 258.212486 
L 147.281984 253.047565 
L 148.160548 239.397419 
L 149.917677 147.166702 
L 150.796241 152.516083 
L 152.55337 263.377406 
L 153.431934 278.872166 
L 155.189062 259.503716 
L 156.067627 267.988942 
L 156.946191 285.051624 
L 157.824755 296.432895 
L 158.70332 300.343477 
L 159.581884 301.100138 
L 161.339012 301.19176 
L 182.424555 301.16636 
L 183.30312 300.85628 
L 184.181684 298.461971 
L 185.060248 287.449623 
L 185.938812 257.47464 
L 186.817377 212.46605 
L 187.695941 184.981296 
L 188.574505 202.505132 
L 189.45307 246.775877 
L 190.331634 282.008011 
L 191.210198 296.875602 
L 192.088762 300.586966 
L 192.967327 301.139244 
L 195.60302 301.191998 
L 229.867027 301.1184 
L 230.745591 300.479979 
L 231.624155 297.023172 
L 232.50272 286.398193 
L 233.381284 269.280172 
L 234.259848 259.503716 
L 235.138412 267.620019 
L 236.016977 282.561395 
L 236.895541 287.541854 
L 237.774105 282.838087 
L 238.65267 280.532319 
L 239.531234 286.416639 
L 240.409798 294.791188 
L 241.288362 299.509712 
L 242.166927 300.924531 
L 243.045491 301.165991 
L 247.438312 301.192 
L 521.55037 301.111206 
L 522.428934 300.426485 
L 523.307498 296.783372 
L 524.186062 285.844809 
L 525.064627 268.726787 
L 525.943191 259.503716 
L 526.821755 268.726787 
L 527.70032 285.900147 
L 528.578884 296.820264 
L 529.457448 300.432019 
L 530.336012 301.111944 
L 532.093141 301.191803 
L 551.421555 301.182832 
L 552.30012 301.076896 
L 553.178684 300.315808 
L 554.057248 297.152295 
L 555.814377 282.008011 
L 556.692941 281.270165 
L 558.45007 296.488233 
L 559.328634 300.105522 
L 560.207198 300.935599 
L 561.085762 300.229111 
L 561.964327 296.02708 
L 562.842891 284.129317 
L 563.721455 267.066634 
L 564.60002 259.688177 
L 565.478584 270.571402 
L 566.357148 287.541854 
L 567.235712 297.484325 
L 568.114277 300.583277 
L 568.992841 301.131312 
L 571.628534 301.191954 
L 573.385662 301.168942 
L 574.264227 300.931909 
L 575.142791 299.347386 
L 576.021355 292.854343 
L 576.89992 276.843091 
L 577.778484 254.707718 
L 578.657048 242.902186 
L 579.535612 253.785411 
L 580.414177 276.658629 
L 581.292741 293.186374 
L 582.171305 299.574273 
L 583.04987 300.990937 
L 583.928434 301.17669 
L 590.956948 301.189067 
L 591.835512 301.141826 
L 592.714077 300.669974 
L 593.592641 297.89014 
L 594.471205 288.556392 
L 595.34977 271.67817 
L 596.228334 258.396947 
L 597.106898 259.872638 
L 597.985462 268.542326 
L 598.864027 274.814015 
L 599.742591 282.192472 
L 600.621155 291.710682 
L 601.49972 298.203725 
L 602.378284 300.614636 
L 603.256848 301.124303 
L 605.013977 301.191793 
L 619.071005 301.180526 
L 619.94957 301.016024 
L 620.828134 299.456218 
L 621.706698 290.087422 
L 622.585262 255.076641 
L 623.463827 176.680531 
L 624.342391 81.682892 
L 625.220955 39.256762 
L 626.09952 83.527506 
L 626.978084 160.816848 
L 627.856648 216.155278 
L 628.735212 231.650039 
L 629.613777 229.805425 
L 630.492341 239.212958 
L 631.370905 257.47464 
L 632.24947 272.9694 
L 633.128034 281.085704 
L 634.006598 276.843091 
L 634.885162 263.746329 
L 635.763727 260.0571 
L 636.642291 273.153862 
L 637.520855 289.183561 
L 638.39942 295.621265 
L 639.277984 289.146668 
L 640.156548 269.280172 
L 641.035112 246.038031 
L 641.913677 240.504188 
L 642.792241 255.076641 
L 643.670805 267.620019 
L 644.54937 264.853097 
L 645.427934 249.911721 
L 646.306498 228.329733 
L 647.185062 212.281588 
L 648.063627 217.815431 
L 649.820755 276.289706 
L 650.69932 293.998004 
L 651.577884 299.889702 
L 652.456448 301.046275 
L 653.335012 301.181965 
L 658.606398 301.18429 
L 659.484962 301.074314 
L 660.363527 300.090765 
L 661.242091 294.883419 
L 662.120655 279.056628 
L 662.99922 253.969873 
L 663.877784 239.212958 
L 664.756348 251.571874 
L 665.634912 277.027552 
L 666.513477 293.887327 
L 667.392041 299.292047 
L 668.270605 297.761017 
L 669.14917 288.962207 
L 670.906298 251.202951 
L 671.784862 245.115724 
L 672.663427 259.319254 
L 672.663427 259.319254 
" clip-path="url(#p516cc56498)" style="fill: none; stroke: #999999; stroke-linecap: square"/>
   </g>
   <g id="line2d_18">
    <path d="M 56.789862 299.997612 
L 57.668427 300.954414 
L 58.546991 301.142546 
L 59.425555 301.047382 
L 60.30412 299.975661 
L 61.182684 294.787499 
L 62.061248 280.790565 
L 62.939812 261.680361 
L 63.818377 254.707718 
L 64.696941 267.490896 
L 65.575505 284.276886 
L 66.45407 290.552264 
L 67.332634 289.312684 
L 68.211198 289.312684 
L 69.968327 297.034239 
L 70.846891 298.570803 
L 71.725455 298.60954 
L 72.60402 299.035646 
L 73.482584 300.035058 
L 74.361148 300.81367 
L 75.239712 301.11698 
L 76.996841 301.19134 
L 94.568127 301.155329 
L 95.446691 300.885978 
L 96.325255 299.56505 
L 97.20382 295.600974 
L 98.082384 288.744542 
L 98.960948 283.114779 
L 99.839512 283.760394 
L 100.718077 288.73163 
L 101.596641 293.005602 
L 103.35377 298.506242 
L 104.232334 300.28943 
L 105.110898 301.00348 
L 105.989462 301.168112 
L 111.260848 301.192 
L 120.925055 301.172115 
L 121.80362 300.977656 
L 122.682184 299.784559 
L 123.560748 295.626798 
L 124.439312 287.763208 
L 125.317877 281.565303 
L 126.196441 283.889517 
L 127.075005 291.856407 
L 127.95357 298.118872 
L 128.832134 300.53089 
L 129.710698 301.051256 
L 131.467827 301.172632 
L 138.496341 301.192 
L 142.010598 301.132862 
L 142.889162 300.55155 
L 143.767727 296.98259 
L 144.646291 284.406009 
L 145.524855 260.518254 
L 146.40342 241.02068 
L 147.281984 245.410862 
L 148.160548 265.683174 
L 149.039112 280.919688 
L 149.917677 288.822016 
L 150.796241 294.619639 
L 151.674805 298.738663 
L 152.55337 300.462455 
L 153.431934 300.56188 
L 154.310498 300.00536 
L 155.189062 299.642524 
L 156.067627 299.949837 
L 156.946191 300.588996 
L 157.824755 301.015101 
L 158.70332 301.160365 
L 163.096141 301.192 
L 183.30312 301.173665 
L 184.181684 300.993151 
L 185.060248 299.836208 
L 185.938812 295.381465 
L 187.695941 275.754768 
L 188.574505 275.367399 
L 190.331634 295.123219 
L 191.210198 299.784559 
L 192.088762 300.993151 
L 192.967327 301.174956 
L 199.117277 301.192 
L 229.867027 301.176505 
L 230.745591 301.043509 
L 231.624155 300.319128 
L 232.50272 298.093048 
L 233.381284 294.516341 
L 234.259848 292.450373 
L 235.138412 294.116059 
L 236.016977 296.969678 
L 236.895541 297.357047 
L 237.774105 295.458939 
L 238.65267 294.619639 
L 239.531234 296.504835 
L 240.409798 299.164769 
L 241.288362 300.658722 
L 242.166927 301.106908 
L 243.924055 301.191517 
L 453.90092 301.192 
L 521.55037 301.110007 
L 522.428934 300.41468 
L 523.307498 296.724344 
L 524.186062 285.568116 
L 525.064627 268.265634 
L 525.943191 258.968777 
L 526.821755 268.265634 
L 527.70032 285.697239 
L 528.578884 296.750169 
L 529.457448 300.419844 
L 530.336012 301.110782 
L 532.093141 301.191799 
L 551.421555 301.129634 
L 552.30012 300.409515 
L 553.178684 295.239429 
L 554.057248 273.6888 
L 555.814377 170.777765 
L 556.692941 166.904075 
L 558.45007 269.298618 
L 559.328634 293.819076 
L 560.207198 299.694173 
L 561.085762 296.81473 
L 561.964327 277.820736 
L 562.842891 223.976443 
L 563.721455 146.244394 
L 564.60002 113.963643 
L 565.478584 163.030385 
L 566.357148 239.471204 
L 567.235712 284.406009 
L 568.114277 298.44168 
L 568.992841 300.918259 
L 569.871405 301.175472 
L 576.021355 301.181425 
L 580.414177 301.098902 
L 583.04987 301.191148 
L 590.956948 301.183775 
L 591.835512 301.051256 
L 592.714077 299.719998 
L 593.592641 291.920968 
L 594.471205 265.683174 
L 595.34977 218.165908 
L 596.228334 180.84936 
L 597.106898 185.110419 
L 597.985462 209.64379 
L 598.864027 227.72101 
L 599.742591 248.380691 
L 600.621155 274.721784 
L 601.49972 292.850654 
L 602.378284 299.577962 
L 603.256848 301.00348 
L 604.135412 301.178571 
L 612.042491 301.192 
L 626.978084 301.087152 
L 627.856648 300.932463 
L 628.735212 300.512813 
L 629.613777 299.56505 
L 631.370905 295.949606 
L 632.24947 295.575149 
L 633.128034 295.910869 
L 634.006598 293.677041 
L 634.885162 289.23521 
L 635.763727 288.021454 
L 636.642291 292.166302 
L 637.520855 297.447433 
L 638.39942 300.239072 
L 639.277984 301.006063 
L 640.156548 301.074498 
L 641.913677 300.91955 
L 642.792241 300.601908 
L 643.670805 299.862033 
L 645.427934 297.82189 
L 646.306498 297.098801 
L 647.185062 297.31831 
L 648.942191 299.908517 
L 649.820755 300.758147 
L 650.69932 301.091542 
L 652.456448 301.190463 
L 659.484962 301.147065 
L 660.363527 300.758147 
L 661.242091 298.635365 
L 662.120655 291.946793 
L 662.99922 280.790565 
L 663.877784 273.817923 
L 664.756348 278.724597 
L 665.634912 289.958299 
L 666.513477 297.77024 
L 667.392041 300.556715 
L 668.270605 301.119949 
L 670.027734 301.182058 
L 672.663427 301.163851 
L 672.663427 301.163851 
" clip-path="url(#p516cc56498)" style="fill: none; stroke: #c1602f; stroke-width: 1.5; stroke-linecap: square"/>
   </g>
   <g id="line2d_19">
    <path d="M 56.789862 301.190966 
L 64.696941 301.144999 
L 65.575505 301.006063 
L 67.332634 300.53089 
L 68.211198 300.595452 
L 69.968327 301.076693 
L 71.725455 301.188501 
L 94.568127 301.186073 
L 95.446691 301.147582 
L 96.325255 300.990568 
L 98.082384 300.262314 
L 98.960948 300.249402 
L 100.718077 300.975073 
L 101.596641 301.143062 
L 104.232334 301.191972 
L 148.160548 301.123952 
L 149.917677 300.999607 
L 156.946191 301.192 
L 185.060248 301.120078 
L 185.938812 300.905347 
L 187.695941 300.084125 
L 188.574505 300.133191 
L 190.331634 300.969908 
L 191.210198 301.143579 
L 193.845891 301.191975 
L 552.30012 301.114397 
L 553.178684 300.601908 
L 554.057248 298.467505 
L 555.814377 288.150577 
L 556.692941 287.763208 
L 558.45007 298.028486 
L 559.328634 300.463746 
L 560.207198 301.09038 
L 561.964327 301.19156 
L 595.34977 301.10807 
L 596.228334 300.654848 
L 597.106898 299.11312 
L 597.985462 296.285326 
L 598.864027 294.180621 
L 599.742591 295.123219 
L 600.621155 298.002662 
L 601.49972 300.175802 
L 602.378284 300.995733 
L 603.256848 301.169016 
L 608.528234 301.192 
L 627.856648 301.176247 
L 628.735212 301.080825 
L 629.613777 300.676799 
L 631.370905 298.712838 
L 632.24947 298.622452 
L 634.006598 300.578666 
L 634.885162 301.049965 
L 636.642291 301.190308 
L 659.484962 301.183465 
L 660.363527 301.118787 
L 661.242091 300.811087 
L 662.120655 299.991156 
L 662.99922 298.893611 
L 663.877784 298.519154 
L 664.756348 299.319716 
L 665.634912 300.390146 
L 666.513477 300.984112 
L 667.392041 301.159332 
L 670.906298 301.191974 
L 672.663427 301.183943 
L 672.663427 301.183943 
" clip-path="url(#p516cc56498)" style="fill: none; stroke-dasharray: 4.44,1.92; stroke-dashoffset: 0; stroke: #2a7a4a; stroke-width: 1.2"/>
   </g>
   <g id="line2d_20">
    <path d="M 233.152857 301.192 
L 233.152857 26.16 
" clip-path="url(#p516cc56498)" style="fill: none; stroke-dasharray: 2.96,1.28; stroke-dashoffset: 0; stroke: #777777; stroke-width: 0.8"/>
   </g>
   <g id="line2d_21">
    <path d="M 524.326633 301.192 
L 524.326633 26.16 
" clip-path="url(#p516cc56498)" style="fill: none; stroke-dasharray: 2.96,1.28; stroke-dashoffset: 0; stroke: #777777; stroke-width: 0.8"/>
   </g>
   <g id="line2d_22">
    <path d="M 556.306373 301.192 
L 556.306373 26.16 
" clip-path="url(#p516cc56498)" style="fill: none; stroke-dasharray: 0.7,1.155; stroke-dashoffset: 0; stroke: #2e6da4; stroke-width: 0.7"/>
   </g>
   <g id="line2d_23">
    <path d="M 564.564877 301.192 
L 564.564877 26.16 
" clip-path="url(#p516cc56498)" style="fill: none; stroke-dasharray: 0.7,1.155; stroke-dashoffset: 0; stroke: #2e6da4; stroke-width: 0.7"/>
   </g>
   <g id="line2d_24">
    <path d="M 577.919054 301.192 
L 577.919054 26.16 
" clip-path="url(#p516cc56498)" style="fill: none; stroke-dasharray: 0.7,1.155; stroke-dashoffset: 0; stroke: #2e6da4; stroke-width: 0.7"/>
   </g>
   <g id="line2d_25">
    <path d="M 578.973331 301.192 
L 578.973331 26.16 
" clip-path="url(#p516cc56498)" style="fill: none; stroke-dasharray: 0.7,1.155; stroke-dashoffset: 0; stroke: #2e6da4; stroke-width: 0.7"/>
   </g>
   <g id="patch_3">
    <path d="M 57.44 301.192 
L 57.44 26.16 
" style="fill: none; stroke: #000000; stroke-width: 0.8; stroke-linejoin: miter; stroke-linecap: square"/>
   </g>
   <g id="patch_4">
    <path d="M 672.435 301.192 
L 672.435 26.16 
" style="fill: none; stroke: #000000; stroke-width: 0.8; stroke-linejoin: miter; stroke-linecap: square"/>
   </g>
   <g id="patch_5">
    <path d="M 57.44 301.192 
L 672.435 301.192 
" style="fill: none; stroke: #000000; stroke-width: 0.8; stroke-linejoin: miter; stroke-linecap: square"/>
   </g>
   <g id="patch_6">
    <path d="M 57.44 26.16 
L 672.435 26.16 
" style="fill: none; stroke: #000000; stroke-width: 0.8; stroke-linejoin: miter; stroke-linecap: square"/>
   </g>
   <g id="text_19">
    <!-- VBM -->
    <g style="fill: #555555" transform="translate(233.152857 47.114819) scale(0.09 -0.09)">
     <use xlink:href="#DejaVuSans-56"/>
     <use xlink:href="#DejaVuSans-42" transform="translate(68.408203 0)"/>
     <use xlink:href="#DejaVuSans-4d" transform="translate(137.011719 0)"/>
    </g>
   </g>
   <g id="text_20">
    <!-- CBM -->
    <g style="fill: #555555" transform="translate(524.326633 47.114819) scale(0.09 -0.09)">
     <defs>
      <path id="DejaVuSans-43" d="M 4122 4306 
L 4122 3641 
Q 3803 3938 3442 4084 
Q 3081 4231 2675 4231 
Q 1875 4231 1450 3742 
Q 1025 3253 1025 2328 
Q 1025 1406 1450 917 
Q 1875 428 2675 428 
Q 3081 428 3442 575 
Q 3803 722 4122 1019 
L 4122 359 
Q 3791 134 3420 21 
Q 3050 -91 2638 -91 
Q 1578 -91 968 557 
Q 359 1206 359 2328 
Q 359 3453 968 4101 
Q 1578 4750 2638 4750 
Q 3056 4750 3426 4639 
Q 3797 4528 4122 4306 
z
" transform="scale(0.015625)"/>
     </defs>
     <use xlink:href="#DejaVuSans-43"/>
     <use xlink:href="#DejaVuSans-42" transform="translate(69.824219 0)"/>
     <use xlink:href="#DejaVuSans-4d" transform="translate(138.427734 0)"/>
    </g>
   </g>
   <g id="text_21">
    <!-- resonance fingerprint -->
    <g style="fill: #2e6da4" transform="translate(522.463753 103.080488) scale(0.085 -0.085)">
     <defs>
      <path id="DejaVuSans-72" d="M 2631 2963 
Q 2534 3019 2420 3045 
Q 2306 3072 2169 3072 
Q 1681 3072 1420 2755 
Q 1159 2438 1159 1844 
L 1159 0 
L 581 0 
L 581 3500 
L 1159 3500 
L 1159 2956 
Q 1341 3275 1631 3429 
Q 1922 3584 2338 3584 
Q 2397 3584 2469 3576 
Q 2541 3569 2628 3553 
L 2631 2963 
z
" transform="scale(0.015625)"/>
      <path id="DejaVuSans-6f" d="M 1959 3097 
Q 1497 3097 1228 2736 
Q 959 2375 959 1747 
Q 959 1119 1226 758 
Q 1494 397 1959 397 
Q 2419 397 2687 759 
Q 2956 1122 2956 1747 
Q 2956 2369 2687 2733 
Q 2419 3097 1959 3097 
z
M 1959 3584 
Q 2709 3584 3137 3096 
Q 3566 2609 3566 1747 
Q 3566 888 3137 398 
Q 2709 -91 1959 -91 
Q 1206 -91 779 398 
Q 353 888 353 1747 
Q 353 2609 779 3096 
Q 1206 3584 1959 3584 
z
" transform="scale(0.015625)"/>
      <path id="DejaVuSans-6e" d="M 3513 2113 
L 3513 0 
L 2938 0 
L 2938 2094 
Q 2938 2591 2744 2837 
Q 2550 3084 2163 3084 
Q 1697 3084 1428 2787 
Q 1159 2491 1159 1978 
L 1159 0 
L 581 0 
L 581 3500 
L 1159 3500 
L 1159 2956 
Q 1366 3272 1645 3428 
Q 1925 3584 2291 3584 
Q 2894 3584 3203 3211 
Q 3513 2838 3513 2113 
z
" transform="scale(0.015625)"/>
      <path id="DejaVuSans-63" d="M 3122 3366 
L 3122 2828 
Q 2878 2963 2633 3030 
Q 2388 3097 2138 3097 
Q 1578 3097 1268 2742 
Q 959 2388 959 1747 
Q 959 1106 1268 751 
Q 1578 397 2138 397 
Q 2388 397 2633 464 
Q 2878 531 3122 666 
L 3122 134 
Q 2881 22 2623 -34 
Q 2366 -91 2075 -91 
Q 1284 -91 818 406 
Q 353 903 353 1747 
Q 353 2603 823 3093 
Q 1294 3584 2113 3584 
Q 2378 3584 2631 3529 
Q 2884 3475 3122 3366 
z
" transform="scale(0.015625)"/>
      <path id="DejaVuSans-66" d="M 2375 4863 
L 2375 4384 
L 1825 4384 
Q 1516 4384 1395 4259 
Q 1275 4134 1275 3809 
L 1275 3500 
L 2222 3500 
L 2222 3053 
L 1275 3053 
L 1275 0 
L 697 0 
L 697 3053 
L 147 3053 
L 147 3500 
L 697 3500 
L 697 3744 
Q 697 4328 969 4595 
Q 1241 4863 1831 4863 
L 2375 4863 
z
" transform="scale(0.015625)"/>
      <path id="DejaVuSans-69" d="M 603 3500 
L 1178 3500 
L 1178 0 
L 603 0 
L 603 3500 
z
M 603 4863 
L 1178 4863 
L 1178 4134 
L 603 4134 
L 603 4863 
z
" transform="scale(0.015625)"/>
      <path id="DejaVuSans-67" d="M 2906 1791 
Q 2906 2416 2648 2759 
Q 2391 3103 1925 3103 
Q 1463 3103 1205 2759 
Q 947 2416 947 1791 
Q 947 1169 1205 825 
Q 1463 481 1925 481 
Q 2391 481 2648 825 
Q 2906 1169 2906 1791 
z
M 3481 434 
Q 3481 -459 3084 -895 
Q 2688 -1331 1869 -1331 
Q 1566 -1331 1297 -1286 
Q 1028 -1241 775 -1147 
L 775 -588 
Q 1028 -725 1275 -790 
Q 1522 -856 1778 -856 
Q 2344 -856 2625 -561 
Q 2906 -266 2906 331 
L 2906 616 
Q 2728 306 2450 153 
Q 2172 0 1784 0 
Q 1141 0 747 490 
Q 353 981 353 1791 
Q 353 2603 747 3093 
Q 1141 3584 1784 3584 
Q 2172 3584 2450 3431 
Q 2728 3278 2906 2969 
L 2906 3500 
L 3481 3500 
L 3481 434 
z
" transform="scale(0.015625)"/>
      <path id="DejaVuSans-70" d="M 1159 525 
L 1159 -1331 
L 581 -1331 
L 581 3500 
L 1159 3500 
L 1159 2969 
Q 1341 3281 1617 3432 
Q 1894 3584 2278 3584 
Q 2916 3584 3314 3078 
Q 3713 2572 3713 1747 
Q 3713 922 3314 415 
Q 2916 -91 2278 -91 
Q 1894 -91 1617 61 
Q 1341 213 1159 525 
z
M 3116 1747 
Q 3116 2381 2855 2742 
Q 2594 3103 2138 3103 
Q 1681 3103 1420 2742 
Q 1159 2381 1159 1747 
Q 1159 1113 1420 752 
Q 1681 391 2138 391 
Q 2594 391 2855 752 
Q 3116 1113 3116 1747 
z
" transform="scale(0.015625)"/>
     </defs>
     <use xlink:href="#DejaVuSans-72"/>
     <use xlink:href="#DejaVuSans-65" transform="translate(38.863281 0)"/>
     <use xlink:href="#DejaVuSans-73" transform="translate(100.386719 0)"/>
     <use xlink:href="#DejaVuSans-6f" transform="translate(152.486328 0)"/>
     <use xlink:href="#DejaVuSans-6e" transform="translate(213.667969 0)"/>
     <use xlink:href="#DejaVuSans-61" transform="translate(277.046875 0)"/>
     <use xlink:href="#DejaVuSans-6e" transform="translate(338.326172 0)"/>
     <use xlink:href="#DejaVuSans-63" transform="translate(401.705078 0)"/>
     <use xlink:href="#DejaVuSans-65" transform="translate(456.685547 0)"/>
     <use xlink:href="#DejaVuSans-20" transform="translate(518.208984 0)"/>
     <use xlink:href="#DejaVuSans-66" transform="translate(549.996094 0)"/>
     <use xlink:href="#DejaVuSans-69" transform="translate(585.201172 0)"/>
     <use xlink:href="#DejaVuSans-6e" transform="translate(612.984375 0)"/>
     <use xlink:href="#DejaVuSans-67" transform="translate(676.363281 0)"/>
     <use xlink:href="#DejaVuSans-65" transform="translate(739.839844 0)"/>
     <use xlink:href="#DejaVuSans-72" transform="translate(801.363281 0)"/>
     <use xlink:href="#DejaVuSans-70" transform="translate(842.476562 0)"/>
     <use xlink:href="#DejaVuSans-72" transform="translate(905.953125 0)"/>
     <use xlink:href="#DejaVuSans-69" transform="translate(947.066406 0)"/>
     <use xlink:href="#DejaVuSans-6e" transform="translate(974.849609 0)"/>
     <use xlink:href="#DejaVuSans-74" transform="translate(1038.228516 0)"/>
    </g>
    <!-- levels (supercell) -->
    <g style="fill: #2e6da4" transform="translate(532.08137 112.598629) scale(0.085 -0.085)">
     <defs>
      <path id="DejaVuSans-6c" d="M 603 4863 
L 1178 4863 
L 1178 0 
L 603 0 
L 603 4863 
z
" transform="scale(0.015625)"/>
      <path id="DejaVuSans-76" d="M 191 3500 
L 800 3500 
L 1894 563 
L 2988 3500 
L 3597 3500 
L 2284 0 
L 1503 0 
L 191 3500 
z
" transform="scale(0.015625)"/>
      <path id="DejaVuSans-75" d="M 544 1381 
L 544 3500 
L 1119 3500 
L 1119 1403 
Q 1119 906 1312 657 
Q 1506 409 1894 409 
Q 2359 409 2629 706 
Q 2900 1003 2900 1516 
L 2900 3500 
L 3475 3500 
L 3475 0 
L 2900 0 
L 2900 538 
Q 2691 219 2414 64 
Q 2138 -91 1772 -91 
Q 1169 -91 856 284 
Q 544 659 544 1381 
z
M 1991 3584 
L 1991 3584 
z
" transform="scale(0.015625)"/>
     </defs>
     <use xlink:href="#DejaVuSans-6c"/>
     <use xlink:href="#DejaVuSans-65" transform="translate(27.783203 0)"/>
     <use xlink:href="#DejaVuSans-76" transform="translate(89.306641 0)"/>
     <use xlink:href="#DejaVuSans-65" transform="translate(148.486328 0)"/>
     <use xlink:href="#DejaVuSans-6c" transform="translate(210.009766 0)"/>
     <use xlink:href="#DejaVuSans-73" transform="translate(237.792969 0)"/>
     <use xlink:href="#DejaVuSans-20" transform="translate(289.892578 0)"/>
     <use xlink:href="#DejaVuSans-28" transform="translate(321.679688 0)"/>
     <use xlink:href="#DejaVuSans-73" transform="translate(360.693359 0)"/>
     <use xlink:href="#DejaVuSans-75" transform="translate(412.792969 0)"/>
     <use xlink:href="#DejaVuSans-70" transform="translate(476.171875 0)"/>
     <use xlink:href="#DejaVuSans-65" transform="translate(539.648438 0)"/>
     <use xlink:href="#DejaVuSans-72" transform="translate(601.171875 0)"/>
     <use xlink:href="#DejaVuSans-63" transform="translate(640.035156 0)"/>
     <use xlink:href="#DejaVuSans-65" transform="translate(695.015625 0)"/>
     <use xlink:href="#DejaVuSans-6c" transform="translate(756.539062 0)"/>
     <use xlink:href="#DejaVuSans-6c" transform="translate(784.322266 0)"/>
     <use xlink:href="#DejaVuSans-29" transform="translate(812.105469 0)"/>
    </g>
   </g>
   <g id="text_22">
    <!-- O$_S$ supercell PDOS (projwfc.x, $\Gamma$-only, $\sigma$=10 meV, deep-state aligned) -->
    <g transform="translate(183.3925 20.16) scale(0.105 -0.105)">
     <defs>
      <path id="DejaVuSans-Oblique-53" d="M 3859 4513 
L 3738 3897 
Q 3422 4066 3111 4152 
Q 2800 4238 2509 4238 
Q 1944 4238 1609 3991 
Q 1275 3744 1275 3334 
Q 1275 3109 1398 2989 
Q 1522 2869 2034 2731 
L 2413 2638 
Q 3053 2472 3303 2217 
Q 3553 1963 3553 1503 
Q 3553 797 2998 353 
Q 2444 -91 1538 -91 
Q 1166 -91 791 -17 
Q 416 56 38 206 
L 166 856 
Q 513 641 861 531 
Q 1209 422 1556 422 
Q 2147 422 2503 684 
Q 2859 947 2859 1369 
Q 2859 1650 2717 1795 
Q 2575 1941 2106 2059 
L 1728 2156 
Q 1081 2325 845 2545 
Q 609 2766 609 3163 
Q 609 3859 1145 4304 
Q 1681 4750 2541 4750 
Q 2875 4750 3203 4690 
Q 3531 4631 3859 4513 
z
" transform="scale(0.015625)"/>
      <path id="DejaVuSans-50" d="M 1259 4147 
L 1259 2394 
L 2053 2394 
Q 2494 2394 2734 2622 
Q 2975 2850 2975 3272 
Q 2975 3691 2734 3919 
Q 2494 4147 2053 4147 
L 1259 4147 
z
M 628 4666 
L 2053 4666 
Q 2838 4666 3239 4311 
Q 3641 3956 3641 3272 
Q 3641 2581 3239 2228 
Q 2838 1875 2053 1875 
L 1259 1875 
L 1259 0 
L 628 0 
L 628 4666 
z
" transform="scale(0.015625)"/>
      <path id="DejaVuSans-6a" d="M 603 3500 
L 1178 3500 
L 1178 -63 
Q 1178 -731 923 -1031 
Q 669 -1331 103 -1331 
L -116 -1331 
L -116 -844 
L 38 -844 
Q 366 -844 484 -692 
Q 603 -541 603 -63 
L 603 3500 
z
M 603 4863 
L 1178 4863 
L 1178 4134 
L 603 4134 
L 603 4863 
z
" transform="scale(0.015625)"/>
      <path id="DejaVuSans-77" d="M 269 3500 
L 844 3500 
L 1563 769 
L 2278 3500 
L 2956 3500 
L 3675 769 
L 4391 3500 
L 4966 3500 
L 4050 0 
L 3372 0 
L 2619 2869 
L 1863 0 
L 1184 0 
L 269 3500 
z
" transform="scale(0.015625)"/>
      <path id="DejaVuSans-78" d="M 3513 3500 
L 2247 1797 
L 3578 0 
L 2900 0 
L 1881 1375 
L 863 0 
L 184 0 
L 1544 1831 
L 300 3500 
L 978 3500 
L 1906 2253 
L 2834 3500 
L 3513 3500 
z
" transform="scale(0.015625)"/>
      <path id="DejaVuSans-2c" d="M 750 794 
L 1409 794 
L 1409 256 
L 897 -744 
L 494 -744 
L 750 256 
L 750 794 
z
" transform="scale(0.015625)"/>
      <path id="DejaVuSans-393" d="M 628 0 
L 628 4666 
L 3531 4666 
L 3531 4134 
L 1259 4134 
L 1259 0 
L 628 0 
z
" transform="scale(0.015625)"/>
      <path id="DejaVuSans-2d" d="M 313 2009 
L 1997 2009 
L 1997 1497 
L 313 1497 
L 313 2009 
z
" transform="scale(0.015625)"/>
      <path id="DejaVuSans-79" d="M 2059 -325 
Q 1816 -950 1584 -1140 
Q 1353 -1331 966 -1331 
L 506 -1331 
L 506 -850 
L 844 -850 
Q 1081 -850 1212 -737 
Q 1344 -625 1503 -206 
L 1606 56 
L 191 3500 
L 800 3500 
L 1894 763 
L 2988 3500 
L 3597 3500 
L 2059 -325 
z
" transform="scale(0.015625)"/>
      <path id="DejaVuSans-Oblique-3c3" d="M 2219 3044 
Q 1744 3044 1422 2700 
Q 1081 2341 969 1747 
Q 844 1119 1044 756 
Q 1241 397 1706 397 
Q 2166 397 2503 759 
Q 2844 1122 2966 1747 
Q 3075 2319 2881 2700 
Q 2700 3044 2219 3044 
z
M 2309 3503 
L 4219 3500 
L 4106 2925 
L 3463 2925 
Q 3706 2438 3575 1747 
Q 3406 888 2884 400 
Q 2359 -91 1609 -91 
Q 856 -91 525 400 
Q 194 888 363 1747 
Q 528 2609 1050 3097 
Q 1484 3503 2309 3503 
z
" transform="scale(0.015625)"/>
      <path id="DejaVuSans-3d" d="M 678 2906 
L 4684 2906 
L 4684 2381 
L 678 2381 
L 678 2906 
z
M 678 1631 
L 4684 1631 
L 4684 1100 
L 678 1100 
L 678 1631 
z
" transform="scale(0.015625)"/>
      <path id="DejaVuSans-6d" d="M 3328 2828 
Q 3544 3216 3844 3400 
Q 4144 3584 4550 3584 
Q 5097 3584 5394 3201 
Q 5691 2819 5691 2113 
L 5691 0 
L 5113 0 
L 5113 2094 
Q 5113 2597 4934 2840 
Q 4756 3084 4391 3084 
Q 3944 3084 3684 2787 
Q 3425 2491 3425 1978 
L 3425 0 
L 2847 0 
L 2847 2094 
Q 2847 2600 2669 2842 
Q 2491 3084 2119 3084 
Q 1678 3084 1418 2786 
Q 1159 2488 1159 1978 
L 1159 0 
L 581 0 
L 581 3500 
L 1159 3500 
L 1159 2956 
Q 1356 3278 1631 3431 
Q 1906 3584 2284 3584 
Q 2666 3584 2933 3390 
Q 3200 3197 3328 2828 
z
" transform="scale(0.015625)"/>
      <path id="DejaVuSans-64" d="M 2906 2969 
L 2906 4863 
L 3481 4863 
L 3481 0 
L 2906 0 
L 2906 525 
Q 2725 213 2448 61 
Q 2172 -91 1784 -91 
Q 1150 -91 751 415 
Q 353 922 353 1747 
Q 353 2572 751 3078 
Q 1150 3584 1784 3584 
Q 2172 3584 2448 3432 
Q 2725 3281 2906 2969 
z
M 947 1747 
Q 947 1113 1208 752 
Q 1469 391 1925 391 
Q 2381 391 2643 752 
Q 2906 1113 2906 1747 
Q 2906 2381 2643 2742 
Q 2381 3103 1925 3103 
Q 1469 3103 1208 2742 
Q 947 2381 947 1747 
z
" transform="scale(0.015625)"/>
     </defs>
     <use xlink:href="#DejaVuSans-4f" transform="translate(0 0.015625)"/>
     <use xlink:href="#DejaVuSans-Oblique-53" transform="translate(79.667969 -16.390625) scale(0.7)"/>
     <use xlink:href="#DejaVuSans-20" transform="translate(126.835938 0.015625)"/>
     <use xlink:href="#DejaVuSans-73" transform="translate(158.623047 0.015625)"/>
     <use xlink:href="#DejaVuSans-75" transform="translate(210.722656 0.015625)"/>
     <use xlink:href="#DejaVuSans-70" transform="translate(274.101562 0.015625)"/>
     <use xlink:href="#DejaVuSans-65" transform="translate(337.578125 0.015625)"/>
     <use xlink:href="#DejaVuSans-72" transform="translate(399.101562 0.015625)"/>
     <use xlink:href="#DejaVuSans-63" transform="translate(440.214844 0.015625)"/>
     <use xlink:href="#DejaVuSans-65" transform="translate(495.195312 0.015625)"/>
     <use xlink:href="#DejaVuSans-6c" transform="translate(556.71875 0.015625)"/>
     <use xlink:href="#DejaVuSans-6c" transform="translate(584.501953 0.015625)"/>
     <use xlink:href="#DejaVuSans-20" transform="translate(612.285156 0.015625)"/>
     <use xlink:href="#DejaVuSans-50" transform="translate(644.072266 0.015625)"/>
     <use xlink:href="#DejaVuSans-44" transform="translate(704.375 0.015625)"/>
     <use xlink:href="#DejaVuSans-4f" transform="translate(781.376953 0.015625)"/>
     <use xlink:href="#DejaVuSans-53" transform="translate(860.087891 0.015625)"/>
     <use xlink:href="#DejaVuSans-20" transform="translate(923.564453 0.015625)"/>
     <use xlink:href="#DejaVuSans-28" transform="translate(955.351562 0.015625)"/>
     <use xlink:href="#DejaVuSans-70" transform="translate(994.365234 0.015625)"/>
     <use xlink:href="#DejaVuSans-72" transform="translate(1057.841797 0.015625)"/>
     <use xlink:href="#DejaVuSans-6f" transform="translate(1098.955078 0.015625)"/>
     <use xlink:href="#DejaVuSans-6a" transform="translate(1160.136719 0.015625)"/>
     <use xlink:href="#DejaVuSans-77" transform="translate(1187.919922 0.015625)"/>
     <use xlink:href="#DejaVuSans-66" transform="translate(1269.707031 0.015625)"/>
     <use xlink:href="#DejaVuSans-63" transform="translate(1304.912109 0.015625)"/>
     <use xlink:href="#DejaVuSans-2e" transform="translate(1359.892578 0.015625)"/>
     <use xlink:href="#DejaVuSans-78" transform="translate(1391.679688 0.015625)"/>
     <use xlink:href="#DejaVuSans-2c" transform="translate(1450.859375 0.015625)"/>
     <use xlink:href="#DejaVuSans-20" transform="translate(1482.646484 0.015625)"/>
     <use xlink:href="#DejaVuSans-393" transform="translate(1514.433594 0.015625)"/>
     <use xlink:href="#DejaVuSans-2d" transform="translate(1570.146484 0.015625)"/>
     <use xlink:href="#DejaVuSans-6f" transform="translate(1606.230469 0.015625)"/>
     <use xlink:href="#DejaVuSans-6e" transform="translate(1667.412109 0.015625)"/>
     <use xlink:href="#DejaVuSans-6c" transform="translate(1730.791016 0.015625)"/>
     <use xlink:href="#DejaVuSans-79" transform="translate(1758.574219 0.015625)"/>
     <use xlink:href="#DejaVuSans-2c" transform="translate(1817.753906 0.015625)"/>
     <use xlink:href="#DejaVuSans-20" transform="translate(1849.541016 0.015625)"/>
     <use xlink:href="#DejaVuSans-Oblique-3c3" transform="translate(1881.328125 0.015625)"/>
     <use xlink:href="#DejaVuSans-3d" transform="translate(1944.707031 0.015625)"/>
     <use xlink:href="#DejaVuSans-31" transform="translate(2028.496094 0.015625)"/>
     <use xlink:href="#DejaVuSans-30" transform="translate(2092.119141 0.015625)"/>
     <use xlink:href="#DejaVuSans-20" transform="translate(2155.742188 0.015625)"/>
     <use xlink:href="#DejaVuSans-6d" transform="translate(2187.529297 0.015625)"/>
     <use xlink:href="#DejaVuSans-65" transform="translate(2284.941406 0.015625)"/>
     <use xlink:href="#DejaVuSans-56" transform="translate(2346.464844 0.015625)"/>
     <use xlink:href="#DejaVuSans-2c" transform="translate(2414.873047 0.015625)"/>
     <use xlink:href="#DejaVuSans-20" transform="translate(2446.660156 0.015625)"/>
     <use xlink:href="#DejaVuSans-64" transform="translate(2478.447266 0.015625)"/>
     <use xlink:href="#DejaVuSans-65" transform="translate(2541.923828 0.015625)"/>
     <use xlink:href="#DejaVuSans-65" transform="translate(2603.447266 0.015625)"/>
     <use xlink:href="#DejaVuSans-70" transform="translate(2664.970703 0.015625)"/>
     <use xlink:href="#DejaVuSans-2d" transform="translate(2728.447266 0.015625)"/>
     <use xlink:href="#DejaVuSans-73" transform="translate(2764.53125 0.015625)"/>
     <use xlink:href="#DejaVuSans-74" transform="translate(2816.630859 0.015625)"/>
     <use xlink:href="#DejaVuSans-61" transform="translate(2855.839844 0.015625)"/>
     <use xlink:href="#DejaVuSans-74" transform="translate(2917.119141 0.015625)"/>
     <use xlink:href="#DejaVuSans-65" transform="translate(2956.328125 0.015625)"/>
     <use xlink:href="#DejaVuSans-20" transform="translate(3017.851562 0.015625)"/>
     <use xlink:href="#DejaVuSans-61" transform="translate(3049.638672 0.015625)"/>
     <use xlink:href="#DejaVuSans-6c" transform="translate(3110.917969 0.015625)"/>
     <use xlink:href="#DejaVuSans-69" transform="translate(3138.701172 0.015625)"/>
     <use xlink:href="#DejaVuSans-67" transform="translate(3166.484375 0.015625)"/>
     <use xlink:href="#DejaVuSans-6e" transform="translate(3229.960938 0.015625)"/>
     <use xlink:href="#DejaVuSans-65" transform="translate(3293.339844 0.015625)"/>
     <use xlink:href="#DejaVuSans-64" transform="translate(3354.863281 0.015625)"/>
     <use xlink:href="#DejaVuSans-29" transform="translate(3418.339844 0.015625)"/>
    </g>
   </g>
   <g id="legend_1">
    <g id="line2d_26">
     <path d="M 65.54 37.948594 
L 74.54 37.948594 
L 83.54 37.948594 
" style="fill: none; stroke: #999999; stroke-linecap: square"/>
    </g>
    <g id="text_23">
     <!-- total DOS -->
     <g transform="translate(90.74 41.098594) scale(0.09 -0.09)">
      <use xlink:href="#DejaVuSans-74"/>
      <use xlink:href="#DejaVuSans-6f" transform="translate(39.208984 0)"/>
      <use xlink:href="#DejaVuSans-74" transform="translate(100.390625 0)"/>
      <use xlink:href="#DejaVuSans-61" transform="translate(139.599609 0)"/>
      <use xlink:href="#DejaVuSans-6c" transform="translate(200.878906 0)"/>
      <use xlink:href="#DejaVuSans-20" transform="translate(228.662109 0)"/>
      <use xlink:href="#DejaVuSans-44" transform="translate(260.449219 0)"/>
      <use xlink:href="#DejaVuSans-4f" transform="translate(337.451172 0)"/>
      <use xlink:href="#DejaVuSans-53" transform="translate(416.162109 0)"/>
     </g>
    </g>
    <g id="line2d_27">
     <path d="M 65.54 51.160313 
L 74.54 51.160313 
L 83.54 51.160313 
" style="fill: none; stroke: #c1602f; stroke-width: 1.5; stroke-linecap: square"/>
    </g>
    <g id="text_24">
     <!-- O 2p PDOS ($\times$70) -->
     <g transform="translate(90.74 54.310313) scale(0.09 -0.09)">
      <defs>
       <path id="DejaVuSans-d7" d="M 4488 3438 
L 3059 2003 
L 4488 575 
L 4116 197 
L 2681 1631 
L 1247 197 
L 878 575 
L 2303 2003 
L 878 3438 
L 1247 3816 
L 2681 2381 
L 4116 3816 
L 4488 3438 
z
" transform="scale(0.015625)"/>
       <path id="DejaVuSans-37" d="M 525 4666 
L 3525 4666 
L 3525 4397 
L 1831 0 
L 1172 0 
L 2766 4134 
L 525 4134 
L 525 4666 
z
" transform="scale(0.015625)"/>
      </defs>
      <use xlink:href="#DejaVuSans-4f" transform="translate(0 0.125)"/>
      <use xlink:href="#DejaVuSans-20" transform="translate(78.710938 0.125)"/>
      <use xlink:href="#DejaVuSans-32" transform="translate(110.498047 0.125)"/>
      <use xlink:href="#DejaVuSans-70" transform="translate(174.121094 0.125)"/>
      <use xlink:href="#DejaVuSans-20" transform="translate(237.597656 0.125)"/>
      <use xlink:href="#DejaVuSans-50" transform="translate(269.384766 0.125)"/>
      <use xlink:href="#DejaVuSans-44" transform="translate(329.6875 0.125)"/>
      <use xlink:href="#DejaVuSans-4f" transform="translate(406.689453 0.125)"/>
      <use xlink:href="#DejaVuSans-53" transform="translate(485.400391 0.125)"/>
      <use xlink:href="#DejaVuSans-20" transform="translate(548.876953 0.125)"/>
      <use xlink:href="#DejaVuSans-28" transform="translate(580.664062 0.125)"/>
      <use xlink:href="#DejaVuSans-d7" transform="translate(619.677734 0.125)"/>
      <use xlink:href="#DejaVuSans-37" transform="translate(703.466797 0.125)"/>
      <use xlink:href="#DejaVuSans-30" transform="translate(767.089844 0.125)"/>
      <use xlink:href="#DejaVuSans-29" transform="translate(830.712891 0.125)"/>
     </g>
    </g>
    <g id="line2d_28">
     <path d="M 65.54 64.388906 
L 74.54 64.388906 
L 83.54 64.388906 
" style="fill: none; stroke-dasharray: 4.44,1.92; stroke-dashoffset: 0; stroke: #2a7a4a; stroke-width: 1.2"/>
    </g>
    <g id="text_25">
     <!-- O 2s PDOS ($\times$70) -->
     <g transform="translate(90.74 67.538906) scale(0.09 -0.09)">
      <use xlink:href="#DejaVuSans-4f" transform="translate(0 0.125)"/>
      <use xlink:href="#DejaVuSans-20" transform="translate(78.710938 0.125)"/>
      <use xlink:href="#DejaVuSans-32" transform="translate(110.498047 0.125)"/>
      <use xlink:href="#DejaVuSans-73" transform="translate(174.121094 0.125)"/>
      <use xlink:href="#DejaVuSans-20" transform="translate(226.220703 0.125)"/>
      <use xlink:href="#DejaVuSans-50" transform="translate(258.007812 0.125)"/>
      <use xlink:href="#DejaVuSans-44" transform="translate(318.310547 0.125)"/>
      <use xlink:href="#DejaVuSans-4f" transform="translate(395.3125 0.125)"/>
      <use xlink:href="#DejaVuSans-53" transform="translate(474.023438 0.125)"/>
      <use xlink:href="#DejaVuSans-20" transform="translate(537.5 0.125)"/>
      <use xlink:href="#DejaVuSans-28" transform="translate(569.287109 0.125)"/>
      <use xlink:href="#DejaVuSans-d7" transform="translate(608.300781 0.125)"/>
      <use xlink:href="#DejaVuSans-37" transform="translate(692.089844 0.125)"/>
      <use xlink:href="#DejaVuSans-30" transform="translate(755.712891 0.125)"/>
      <use xlink:href="#DejaVuSans-29" transform="translate(819.335938 0.125)"/>
     </g>
    </g>
   </g>
  </g>
 </g>
 <defs>
  <clipPath id="p516cc56498">
   <rect x="57.44" y="26.16" width="614.995" height="275.032"/>
  </clipPath>
 </defs>
</svg>
