<?xml version="1.0" encoding="utf-8" standalone="no"?>
<!DOCTYPE svg PUBLIC "-//W3C//DTD SVG 1.1//EN"
  "http://www.w3.org/Graphics/SVG/1.1/DTD/svg11.dtd">
<svg xmlns:xlink="http://www.w3.org/1999/xlink" width="691.2pt" height="345.6pt" viewBox="0 0 691.2 345.6" xmlns="http://www.w3.org/2000/svg" version="1.1">
 <metadata>
  <rdf:RDF xmlns:dc="http://purl.org/dc/elements/1.1/" xmlns:cc="http://creativecommons.org/ns#" xmlns:rdf="http://www.w3.org/1999/02/22-rdf-syntax-ns#">
   <cc:Work>
    <dc:type rdf:resource="http://purl.org/dc/dcmitype/StillImage"/>
    <dc:date>2026-07-08T16:50:02.250668</dc:date>
    <dc:format>image/svg+xml</dc:format>
    <dc:creator>
     <cc:Agent>
      <dc:title>Matplotlib v3.10.8, https://matplotlib.org/</dc:title>
     </cc:Agent>
    </dc:creator>
   </cc:Work>
  </rdf:RDF>
 </metadata>
 <defs>
  <style type="text/css">*{stroke-linejoin: round; stroke-linecap: butt}</style>
 </defs>
 <g id="figure_1">
  <g id="patch_1">
   <path d="M 0 345.6 
L 691.2 345.6 
L 691.2 0 
L 0 0 
z
" style="fill: #ffffff"/>
  </g>
  <g id="axes_1">
   <g id="patch_2">
    <path d="M 44.66 301.192 
L 672.435 301.192 
L 672.435 26.16 
L 44.66 26.16 
z
" style="fill: #ffffff"/>
   </g>
   <g id="matplotlib.axis_1">
    <g id="xtick_1">
     <g id="line2d_1">
      <defs>
       <path id="m39ddb4ac70" d="M 0 0 
L 0 3.5 
" style="stroke: #000000; stroke-width: 0.8"/>
      </defs>
      <g>
       <use xlink:href="#m39ddb4ac70" x="44.66" y="301.192" style="stroke: #000000; stroke-width: 0.8"/>
      </g>
     </g>
     <g id="text_1">
      <!-- −1.0 -->
      <g transform="translate(32.518594 315.790437) scale(0.1 -0.1)">
       <defs>
        <path id="DejaVuSans-2212" d="M 678 2272 
L 4684 2272 
L 4684 1741 
L 678 1741 
L 678 2272 
z
" transform="scale(0.015625)"/>
        <path id="DejaVuSans-31" d="M 794 531 
L 1825 531 
L 1825 4091 
L 703 3866 
L 703 4441 
L 1819 4666 
L 2450 4666 
L 2450 531 
L 3481 531 
L 3481 0 
L 794 0 
L 794 531 
z
" transform="scale(0.015625)"/>
        <path id="DejaVuSans-2e" d="M 684 794 
L 1344 794 
L 1344 0 
L 684 0 
L 684 794 
z
" transform="scale(0.015625)"/>
        <path id="DejaVuSans-30" d="M 2034 4250 
Q 1547 4250 1301 3770 
Q 1056 3291 1056 2328 
Q 1056 1369 1301 889 
Q 1547 409 2034 409 
Q 2525 409 2770 889 
Q 3016 1369 3016 2328 
Q 3016 3291 2770 3770 
Q 2525 4250 2034 4250 
z
M 2034 4750 
Q 2819 4750 3233 4129 
Q 3647 3509 3647 2328 
Q 3647 1150 3233 529 
Q 2819 -91 2034 -91 
Q 1250 -91 836 529 
Q 422 1150 422 2328 
Q 422 3509 836 4129 
Q 1250 4750 2034 4750 
z
" transform="scale(0.015625)"/>
       </defs>
       <use xlink:href="#DejaVuSans-2212"/>
       <use xlink:href="#DejaVuSans-31" transform="translate(83.789062 0)"/>
       <use xlink:href="#DejaVuSans-2e" transform="translate(147.412109 0)"/>
       <use xlink:href="#DejaVuSans-30" transform="translate(179.199219 0)"/>
      </g>
     </g>
    </g>
    <g id="xtick_2">
     <g id="line2d_2">
      <g>
       <use xlink:href="#m39ddb4ac70" x="134.342143" y="301.192" style="stroke: #000000; stroke-width: 0.8"/>
      </g>
     </g>
     <g id="text_2">
      <!-- −0.5 -->
      <g transform="translate(122.200737 315.790437) scale(0.1 -0.1)">
       <defs>
        <path id="DejaVuSans-35" d="M 691 4666 
L 3169 4666 
L 3169 4134 
L 1269 4134 
L 1269 2991 
Q 1406 3038 1543 3061 
Q 1681 3084 1819 3084 
Q 2600 3084 3056 2656 
Q 3513 2228 3513 1497 
Q 3513 744 3044 326 
Q 2575 -91 1722 -91 
Q 1428 -91 1123 -41 
Q 819 9 494 109 
L 494 744 
Q 775 591 1075 516 
Q 1375 441 1709 441 
Q 2250 441 2565 725 
Q 2881 1009 2881 1497 
Q 2881 1984 2565 2268 
Q 2250 2553 1709 2553 
Q 1456 2553 1204 2497 
Q 953 2441 691 2322 
L 691 4666 
z
" transform="scale(0.015625)"/>
       </defs>
       <use xlink:href="#DejaVuSans-2212"/>
       <use xlink:href="#DejaVuSans-30" transform="translate(83.789062 0)"/>
       <use xlink:href="#DejaVuSans-2e" transform="translate(147.412109 0)"/>
       <use xlink:href="#DejaVuSans-35" transform="translate(179.199219 0)"/>
      </g>
     </g>
    </g>
    <g id="xtick_3">
     <g id="line2d_3">
      <g>
       <use xlink:href="#m39ddb4ac70" x="224.024286" y="301.192" style="stroke: #000000; stroke-width: 0.8"/>
      </g>
     </g>
     <g id="text_3">
      <!-- 0.0 -->
      <g transform="translate(216.072723 315.790437) scale(0.1 -0.1)">
       <use xlink:href="#DejaVuSans-30"/>
       <use xlink:href="#DejaVuSans-2e" transform="translate(63.623047 0)"/>
       <use xlink:href="#DejaVuSans-30" transform="translate(95.410156 0)"/>
      </g>
     </g>
    </g>
    <g id="xtick_4">
     <g id="line2d_4">
      <g>
       <use xlink:href="#m39ddb4ac70" x="313.706429" y="301.192" style="stroke: #000000; stroke-width: 0.8"/>
      </g>
     </g>
     <g id="text_4">
      <!-- 0.5 -->
      <g transform="translate(305.754866 315.790437) scale(0.1 -0.1)">
       <use xlink:href="#DejaVuSans-30"/>
       <use xlink:href="#DejaVuSans-2e" transform="translate(63.623047 0)"/>
       <use xlink:href="#DejaVuSans-35" transform="translate(95.410156 0)"/>
      </g>
     </g>
    </g>
    <g id="xtick_5">
     <g id="line2d_5">
      <g>
       <use xlink:href="#m39ddb4ac70" x="403.388571" y="301.192" style="stroke: #000000; stroke-width: 0.8"/>
      </g>
     </g>
     <g id="text_5">
      <!-- 1.0 -->
      <g transform="translate(395.437009 315.790437) scale(0.1 -0.1)">
       <use xlink:href="#DejaVuSans-31"/>
       <use xlink:href="#DejaVuSans-2e" transform="translate(63.623047 0)"/>
       <use xlink:href="#DejaVuSans-30" transform="translate(95.410156 0)"/>
      </g>
     </g>
    </g>
    <g id="xtick_6">
     <g id="line2d_6">
      <g>
       <use xlink:href="#m39ddb4ac70" x="493.070714" y="301.192" style="stroke: #000000; stroke-width: 0.8"/>
      </g>
     </g>
     <g id="text_6">
      <!-- 1.5 -->
      <g transform="translate(485.119152 315.790437) scale(0.1 -0.1)">
       <use xlink:href="#DejaVuSans-31"/>
       <use xlink:href="#DejaVuSans-2e" transform="translate(63.623047 0)"/>
       <use xlink:href="#DejaVuSans-35" transform="translate(95.410156 0)"/>
      </g>
     </g>
    </g>
    <g id="xtick_7">
     <g id="line2d_7">
      <g>
       <use xlink:href="#m39ddb4ac70" x="582.752857" y="301.192" style="stroke: #000000; stroke-width: 0.8"/>
      </g>
     </g>
     <g id="text_7">
      <!-- 2.0 -->
      <g transform="translate(574.801295 315.790437) scale(0.1 -0.1)">
       <defs>
        <path id="DejaVuSans-32" d="M 1228 531 
L 3431 531 
L 3431 0 
L 469 0 
L 469 531 
Q 828 903 1448 1529 
Q 2069 2156 2228 2338 
Q 2531 2678 2651 2914 
Q 2772 3150 2772 3378 
Q 2772 3750 2511 3984 
Q 2250 4219 1831 4219 
Q 1534 4219 1204 4116 
Q 875 4013 500 3803 
L 500 4441 
Q 881 4594 1212 4672 
Q 1544 4750 1819 4750 
Q 2544 4750 2975 4387 
Q 3406 4025 3406 3419 
Q 3406 3131 3298 2873 
Q 3191 2616 2906 2266 
Q 2828 2175 2409 1742 
Q 1991 1309 1228 531 
z
" transform="scale(0.015625)"/>
       </defs>
       <use xlink:href="#DejaVuSans-32"/>
       <use xlink:href="#DejaVuSans-2e" transform="translate(63.623047 0)"/>
       <use xlink:href="#DejaVuSans-30" transform="translate(95.410156 0)"/>
      </g>
     </g>
    </g>
    <g id="xtick_8">
     <g id="line2d_8">
      <g>
       <use xlink:href="#m39ddb4ac70" x="672.435" y="301.192" style="stroke: #000000; stroke-width: 0.8"/>
      </g>
     </g>
     <g id="text_8">
      <!-- 2.5 -->
      <g transform="translate(664.483438 315.790437) scale(0.1 -0.1)">
       <use xlink:href="#DejaVuSans-32"/>
       <use xlink:href="#DejaVuSans-2e" transform="translate(63.623047 0)"/>
       <use xlink:href="#DejaVuSans-35" transform="translate(95.410156 0)"/>
      </g>
     </g>
    </g>
    <g id="text_9">
     <!-- $E - E_{\rm VBM}$  (eV) -->
     <g transform="translate(324.5475 329.468562) scale(0.1 -0.1)">
      <defs>
       <path id="DejaVuSans-Oblique-45" d="M 1081 4666 
L 4031 4666 
L 3928 4134 
L 1606 4134 
L 1338 2753 
L 3566 2753 
L 3463 2222 
L 1234 2222 
L 909 531 
L 3284 531 
L 3181 0 
L 172 0 
L 1081 4666 
z
" transform="scale(0.015625)"/>
       <path id="DejaVuSans-56" d="M 1831 0 
L 50 4666 
L 709 4666 
L 2188 738 
L 3669 4666 
L 4325 4666 
L 2547 0 
L 1831 0 
z
" transform="scale(0.015625)"/>
       <path id="DejaVuSans-42" d="M 1259 2228 
L 1259 519 
L 2272 519 
Q 2781 519 3026 730 
Q 3272 941 3272 1375 
Q 3272 1813 3026 2020 
Q 2781 2228 2272 2228 
L 1259 2228 
z
M 1259 4147 
L 1259 2741 
L 2194 2741 
Q 2656 2741 2882 2914 
Q 3109 3088 3109 3444 
Q 3109 3797 2882 3972 
Q 2656 4147 2194 4147 
L 1259 4147 
z
M 628 4666 
L 2241 4666 
Q 2963 4666 3353 4366 
Q 3744 4066 3744 3513 
Q 3744 3084 3544 2831 
Q 3344 2578 2956 2516 
Q 3422 2416 3680 2098 
Q 3938 1781 3938 1306 
Q 3938 681 3513 340 
Q 3088 0 2303 0 
L 628 0 
L 628 4666 
z
" transform="scale(0.015625)"/>
       <path id="DejaVuSans-4d" d="M 628 4666 
L 1569 4666 
L 2759 1491 
L 3956 4666 
L 4897 4666 
L 4897 0 
L 4281 0 
L 4281 4097 
L 3078 897 
L 2444 897 
L 1241 4097 
L 1241 0 
L 628 0 
L 628 4666 
z
" transform="scale(0.015625)"/>
       <path id="DejaVuSans-20" transform="scale(0.015625)"/>
       <path id="DejaVuSans-28" d="M 1984 4856 
Q 1566 4138 1362 3434 
Q 1159 2731 1159 2009 
Q 1159 1288 1364 580 
Q 1569 -128 1984 -844 
L 1484 -844 
Q 1016 -109 783 600 
Q 550 1309 550 2009 
Q 550 2706 781 3412 
Q 1013 4119 1484 4856 
L 1984 4856 
z
" transform="scale(0.015625)"/>
       <path id="DejaVuSans-65" d="M 3597 1894 
L 3597 1613 
L 953 1613 
Q 991 1019 1311 708 
Q 1631 397 2203 397 
Q 2534 397 2845 478 
Q 3156 559 3463 722 
L 3463 178 
Q 3153 47 2828 -22 
Q 2503 -91 2169 -91 
Q 1331 -91 842 396 
Q 353 884 353 1716 
Q 353 2575 817 3079 
Q 1281 3584 2069 3584 
Q 2775 3584 3186 3129 
Q 3597 2675 3597 1894 
z
M 3022 2063 
Q 3016 2534 2758 2815 
Q 2500 3097 2075 3097 
Q 1594 3097 1305 2825 
Q 1016 2553 972 2059 
L 3022 2063 
z
" transform="scale(0.015625)"/>
       <path id="DejaVuSans-29" d="M 513 4856 
L 1013 4856 
Q 1481 4119 1714 3412 
Q 1947 2706 1947 2009 
Q 1947 1309 1714 600 
Q 1481 -109 1013 -844 
L 513 -844 
Q 928 -128 1133 580 
Q 1338 1288 1338 2009 
Q 1338 2731 1133 3434 
Q 928 4138 513 4856 
z
" transform="scale(0.015625)"/>
      </defs>
      <use xlink:href="#DejaVuSans-Oblique-45" transform="translate(0 0.125)"/>
      <use xlink:href="#DejaVuSans-2212" transform="translate(82.666016 0.125)"/>
      <use xlink:href="#DejaVuSans-Oblique-45" transform="translate(185.9375 0.125)"/>
      <use xlink:href="#DejaVuSans-56" transform="translate(249.121094 -16.28125) scale(0.7)"/>
      <use xlink:href="#DejaVuSans-42" transform="translate(297.006836 -16.28125) scale(0.7)"/>
      <use xlink:href="#DejaVuSans-4d" transform="translate(345.029297 -16.28125) scale(0.7)"/>
      <use xlink:href="#DejaVuSans-20" transform="translate(408.15918 0.125)"/>
      <use xlink:href="#DejaVuSans-20" transform="translate(439.946289 0.125)"/>
      <use xlink:href="#DejaVuSans-28" transform="translate(471.733398 0.125)"/>
      <use xlink:href="#DejaVuSans-65" transform="translate(510.74707 0.125)"/>
      <use xlink:href="#DejaVuSans-56" transform="translate(572.270508 0.125)"/>
      <use xlink:href="#DejaVuSans-29" transform="translate(640.678711 0.125)"/>
     </g>
    </g>
   </g>
   <g id="matplotlib.axis_2">
    <g id="ytick_1">
     <g id="line2d_9">
      <defs>
       <path id="m14484eab56" d="M 0 0 
L -3.5 0 
" style="stroke: #000000; stroke-width: 0.8"/>
      </defs>
      <g>
       <use xlink:href="#m14484eab56" x="44.66" y="301.192" style="stroke: #000000; stroke-width: 0.8"/>
      </g>
     </g>
     <g id="text_10">
      <!-- 0 -->
      <g transform="translate(31.2975 304.991219) scale(0.1 -0.1)">
       <use xlink:href="#DejaVuSans-30"/>
      </g>
     </g>
    </g>
    <g id="ytick_2">
     <g id="line2d_10">
      <g>
       <use xlink:href="#m14484eab56" x="44.66" y="266.813" style="stroke: #000000; stroke-width: 0.8"/>
      </g>
     </g>
     <g id="text_11">
      <!-- 10 -->
      <g transform="translate(24.935 270.612219) scale(0.1 -0.1)">
       <use xlink:href="#DejaVuSans-31"/>
       <use xlink:href="#DejaVuSans-30" transform="translate(63.623047 0)"/>
      </g>
     </g>
    </g>
    <g id="ytick_3">
     <g id="line2d_11">
      <g>
       <use xlink:href="#m14484eab56" x="44.66" y="232.434" style="stroke: #000000; stroke-width: 0.8"/>
      </g>
     </g>
     <g id="text_12">
      <!-- 20 -->
      <g transform="translate(24.935 236.233219) scale(0.1 -0.1)">
       <use xlink:href="#DejaVuSans-32"/>
       <use xlink:href="#DejaVuSans-30" transform="translate(63.623047 0)"/>
      </g>
     </g>
    </g>
    <g id="ytick_4">
     <g id="line2d_12">
      <g>
       <use xlink:href="#m14484eab56" x="44.66" y="198.055" style="stroke: #000000; stroke-width: 0.8"/>
      </g>
     </g>
     <g id="text_13">
      <!-- 30 -->
      <g transform="translate(24.935 201.854219) scale(0.1 -0.1)">
       <defs>
        <path id="DejaVuSans-33" d="M 2597 2516 
Q 3050 2419 3304 2112 
Q 3559 1806 3559 1356 
Q 3559 666 3084 287 
Q 2609 -91 1734 -91 
Q 1441 -91 1130 -33 
Q 819 25 488 141 
L 488 750 
Q 750 597 1062 519 
Q 1375 441 1716 441 
Q 2309 441 2620 675 
Q 2931 909 2931 1356 
Q 2931 1769 2642 2001 
Q 2353 2234 1838 2234 
L 1294 2234 
L 1294 2753 
L 1863 2753 
Q 2328 2753 2575 2939 
Q 2822 3125 2822 3475 
Q 2822 3834 2567 4026 
Q 2313 4219 1838 4219 
Q 1578 4219 1281 4162 
Q 984 4106 628 3988 
L 628 4550 
Q 988 4650 1302 4700 
Q 1616 4750 1894 4750 
Q 2613 4750 3031 4423 
Q 3450 4097 3450 3541 
Q 3450 3153 3228 2886 
Q 3006 2619 2597 2516 
z
" transform="scale(0.015625)"/>
       </defs>
       <use xlink:href="#DejaVuSans-33"/>
       <use xlink:href="#DejaVuSans-30" transform="translate(63.623047 0)"/>
      </g>
     </g>
    </g>
    <g id="ytick_5">
     <g id="line2d_13">
      <g>
       <use xlink:href="#m14484eab56" x="44.66" y="163.676" style="stroke: #000000; stroke-width: 0.8"/>
      </g>
     </g>
     <g id="text_14">
      <!-- 40 -->
      <g transform="translate(24.935 167.475219) scale(0.1 -0.1)">
       <defs>
        <path id="DejaVuSans-34" d="M 2419 4116 
L 825 1625 
L 2419 1625 
L 2419 4116 
z
M 2253 4666 
L 3047 4666 
L 3047 1625 
L 3713 1625 
L 3713 1100 
L 3047 1100 
L 3047 0 
L 2419 0 
L 2419 1100 
L 313 1100 
L 313 1709 
L 2253 4666 
z
" transform="scale(0.015625)"/>
       </defs>
       <use xlink:href="#DejaVuSans-34"/>
       <use xlink:href="#DejaVuSans-30" transform="translate(63.623047 0)"/>
      </g>
     </g>
    </g>
    <g id="ytick_6">
     <g id="line2d_14">
      <g>
       <use xlink:href="#m14484eab56" x="44.66" y="129.297" style="stroke: #000000; stroke-width: 0.8"/>
      </g>
     </g>
     <g id="text_15">
      <!-- 50 -->
      <g transform="translate(24.935 133.096219) scale(0.1 -0.1)">
       <use xlink:href="#DejaVuSans-35"/>
       <use xlink:href="#DejaVuSans-30" transform="translate(63.623047 0)"/>
      </g>
     </g>
    </g>
    <g id="ytick_7">
     <g id="line2d_15">
      <g>
       <use xlink:href="#m14484eab56" x="44.66" y="94.918" style="stroke: #000000; stroke-width: 0.8"/>
      </g>
     </g>
     <g id="text_16">
      <!-- 60 -->
      <g transform="translate(24.935 98.717219) scale(0.1 -0.1)">
       <defs>
        <path id="DejaVuSans-36" d="M 2113 2584 
Q 1688 2584 1439 2293 
Q 1191 2003 1191 1497 
Q 1191 994 1439 701 
Q 1688 409 2113 409 
Q 2538 409 2786 701 
Q 3034 994 3034 1497 
Q 3034 2003 2786 2293 
Q 2538 2584 2113 2584 
z
M 3366 4563 
L 3366 3988 
Q 3128 4100 2886 4159 
Q 2644 4219 2406 4219 
Q 1781 4219 1451 3797 
Q 1122 3375 1075 2522 
Q 1259 2794 1537 2939 
Q 1816 3084 2150 3084 
Q 2853 3084 3261 2657 
Q 3669 2231 3669 1497 
Q 3669 778 3244 343 
Q 2819 -91 2113 -91 
Q 1303 -91 875 529 
Q 447 1150 447 2328 
Q 447 3434 972 4092 
Q 1497 4750 2381 4750 
Q 2619 4750 2861 4703 
Q 3103 4656 3366 4563 
z
" transform="scale(0.015625)"/>
       </defs>
       <use xlink:href="#DejaVuSans-36"/>
       <use xlink:href="#DejaVuSans-30" transform="translate(63.623047 0)"/>
      </g>
     </g>
    </g>
    <g id="ytick_8">
     <g id="line2d_16">
      <g>
       <use xlink:href="#m14484eab56" x="44.66" y="60.539" style="stroke: #000000; stroke-width: 0.8"/>
      </g>
     </g>
     <g id="text_17">
      <!-- 70 -->
      <g transform="translate(24.935 64.338219) scale(0.1 -0.1)">
       <defs>
        <path id="DejaVuSans-37" d="M 525 4666 
L 3525 4666 
L 3525 4397 
L 1831 0 
L 1172 0 
L 2766 4134 
L 525 4134 
L 525 4666 
z
" transform="scale(0.015625)"/>
       </defs>
       <use xlink:href="#DejaVuSans-37"/>
       <use xlink:href="#DejaVuSans-30" transform="translate(63.623047 0)"/>
      </g>
     </g>
    </g>
    <g id="ytick_9">
     <g id="line2d_17">
      <g>
       <use xlink:href="#m14484eab56" x="44.66" y="26.16" style="stroke: #000000; stroke-width: 0.8"/>
      </g>
     </g>
     <g id="text_18">
      <!-- 80 -->
      <g transform="translate(24.935 29.959219) scale(0.1 -0.1)">
       <defs>
        <path id="DejaVuSans-38" d="M 2034 2216 
Q 1584 2216 1326 1975 
Q 1069 1734 1069 1313 
Q 1069 891 1326 650 
Q 1584 409 2034 409 
Q 2484 409 2743 651 
Q 3003 894 3003 1313 
Q 3003 1734 2745 1975 
Q 2488 2216 2034 2216 
z
M 1403 2484 
Q 997 2584 770 2862 
Q 544 3141 544 3541 
Q 544 4100 942 4425 
Q 1341 4750 2034 4750 
Q 2731 4750 3128 4425 
Q 3525 4100 3525 3541 
Q 3525 3141 3298 2862 
Q 3072 2584 2669 2484 
Q 3125 2378 3379 2068 
Q 3634 1759 3634 1313 
Q 3634 634 3220 271 
Q 2806 -91 2034 -91 
Q 1263 -91 848 271 
Q 434 634 434 1313 
Q 434 1759 690 2068 
Q 947 2378 1403 2484 
z
M 1172 3481 
Q 1172 3119 1398 2916 
Q 1625 2713 2034 2713 
Q 2441 2713 2670 2916 
Q 2900 3119 2900 3481 
Q 2900 3844 2670 4047 
Q 2441 4250 2034 4250 
Q 1625 4250 1398 4047 
Q 1172 3844 1172 3481 
z
" transform="scale(0.015625)"/>
       </defs>
       <use xlink:href="#DejaVuSans-38"/>
       <use xlink:href="#DejaVuSans-30" transform="translate(63.623047 0)"/>
      </g>
     </g>
    </g>
    <g id="text_19">
     <!-- DOS (states/eV) -->
     <g transform="translate(18.855313 203.578344) rotate(-90) scale(0.1 -0.1)">
      <defs>
       <path id="DejaVuSans-44" d="M 1259 4147 
L 1259 519 
L 2022 519 
Q 2988 519 3436 956 
Q 3884 1394 3884 2338 
Q 3884 3275 3436 3711 
Q 2988 4147 2022 4147 
L 1259 4147 
z
M 628 4666 
L 1925 4666 
Q 3281 4666 3915 4102 
Q 4550 3538 4550 2338 
Q 4550 1131 3912 565 
Q 3275 0 1925 0 
L 628 0 
L 628 4666 
z
" transform="scale(0.015625)"/>
       <path id="DejaVuSans-4f" d="M 2522 4238 
Q 1834 4238 1429 3725 
Q 1025 3213 1025 2328 
Q 1025 1447 1429 934 
Q 1834 422 2522 422 
Q 3209 422 3611 934 
Q 4013 1447 4013 2328 
Q 4013 3213 3611 3725 
Q 3209 4238 2522 4238 
z
M 2522 4750 
Q 3503 4750 4090 4092 
Q 4678 3434 4678 2328 
Q 4678 1225 4090 567 
Q 3503 -91 2522 -91 
Q 1538 -91 948 565 
Q 359 1222 359 2328 
Q 359 3434 948 4092 
Q 1538 4750 2522 4750 
z
" transform="scale(0.015625)"/>
       <path id="DejaVuSans-53" d="M 3425 4513 
L 3425 3897 
Q 3066 4069 2747 4153 
Q 2428 4238 2131 4238 
Q 1616 4238 1336 4038 
Q 1056 3838 1056 3469 
Q 1056 3159 1242 3001 
Q 1428 2844 1947 2747 
L 2328 2669 
Q 3034 2534 3370 2195 
Q 3706 1856 3706 1288 
Q 3706 609 3251 259 
Q 2797 -91 1919 -91 
Q 1588 -91 1214 -16 
Q 841 59 441 206 
L 441 856 
Q 825 641 1194 531 
Q 1563 422 1919 422 
Q 2459 422 2753 634 
Q 3047 847 3047 1241 
Q 3047 1584 2836 1778 
Q 2625 1972 2144 2069 
L 1759 2144 
Q 1053 2284 737 2584 
Q 422 2884 422 3419 
Q 422 4038 858 4394 
Q 1294 4750 2059 4750 
Q 2388 4750 2728 4690 
Q 3069 4631 3425 4513 
z
" transform="scale(0.015625)"/>
       <path id="DejaVuSans-73" d="M 2834 3397 
L 2834 2853 
Q 2591 2978 2328 3040 
Q 2066 3103 1784 3103 
Q 1356 3103 1142 2972 
Q 928 2841 928 2578 
Q 928 2378 1081 2264 
Q 1234 2150 1697 2047 
L 1894 2003 
Q 2506 1872 2764 1633 
Q 3022 1394 3022 966 
Q 3022 478 2636 193 
Q 2250 -91 1575 -91 
Q 1294 -91 989 -36 
Q 684 19 347 128 
L 347 722 
Q 666 556 975 473 
Q 1284 391 1588 391 
Q 1994 391 2212 530 
Q 2431 669 2431 922 
Q 2431 1156 2273 1281 
Q 2116 1406 1581 1522 
L 1381 1569 
Q 847 1681 609 1914 
Q 372 2147 372 2553 
Q 372 3047 722 3315 
Q 1072 3584 1716 3584 
Q 2034 3584 2315 3537 
Q 2597 3491 2834 3397 
z
" transform="scale(0.015625)"/>
       <path id="DejaVuSans-74" d="M 1172 4494 
L 1172 3500 
L 2356 3500 
L 2356 3053 
L 1172 3053 
L 1172 1153 
Q 1172 725 1289 603 
Q 1406 481 1766 481 
L 2356 481 
L 2356 0 
L 1766 0 
Q 1100 0 847 248 
Q 594 497 594 1153 
L 594 3053 
L 172 3053 
L 172 3500 
L 594 3500 
L 594 4494 
L 1172 4494 
z
" transform="scale(0.015625)"/>
       <path id="DejaVuSans-61" d="M 2194 1759 
Q 1497 1759 1228 1600 
Q 959 1441 959 1056 
Q 959 750 1161 570 
Q 1363 391 1709 391 
Q 2188 391 2477 730 
Q 2766 1069 2766 1631 
L 2766 1759 
L 2194 1759 
z
M 3341 1997 
L 3341 0 
L 2766 0 
L 2766 531 
Q 2569 213 2275 61 
Q 1981 -91 1556 -91 
Q 1019 -91 701 211 
Q 384 513 384 1019 
Q 384 1609 779 1909 
Q 1175 2209 1959 2209 
L 2766 2209 
L 2766 2266 
Q 2766 2663 2505 2880 
Q 2244 3097 1772 3097 
Q 1472 3097 1187 3025 
Q 903 2953 641 2809 
L 641 3341 
Q 956 3463 1253 3523 
Q 1550 3584 1831 3584 
Q 2591 3584 2966 3190 
Q 3341 2797 3341 1997 
z
" transform="scale(0.015625)"/>
       <path id="DejaVuSans-2f" d="M 1625 4666 
L 2156 4666 
L 531 -594 
L 0 -594 
L 1625 4666 
z
" transform="scale(0.015625)"/>
      </defs>
      <use xlink:href="#DejaVuSans-44"/>
      <use xlink:href="#DejaVuSans-4f" transform="translate(77.001953 0)"/>
      <use xlink:href="#DejaVuSans-53" transform="translate(155.712891 0)"/>
      <use xlink:href="#DejaVuSans-20" transform="translate(219.189453 0)"/>
      <use xlink:href="#DejaVuSans-28" transform="translate(250.976562 0)"/>
      <use xlink:href="#DejaVuSans-73" transform="translate(289.990234 0)"/>
      <use xlink:href="#DejaVuSans-74" transform="translate(342.089844 0)"/>
      <use xlink:href="#DejaVuSans-61" transform="translate(381.298828 0)"/>
      <use xlink:href="#DejaVuSans-74" transform="translate(442.578125 0)"/>
      <use xlink:href="#DejaVuSans-65" transform="translate(481.787109 0)"/>
      <use xlink:href="#DejaVuSans-73" transform="translate(543.310547 0)"/>
      <use xlink:href="#DejaVuSans-2f" transform="translate(595.410156 0)"/>
      <use xlink:href="#DejaVuSans-65" transform="translate(629.101562 0)"/>
      <use xlink:href="#DejaVuSans-56" transform="translate(690.625 0)"/>
      <use xlink:href="#DejaVuSans-29" transform="translate(759.033203 0)"/>
     </g>
    </g>
   </g>
   <g id="line2d_18">
    <path d="M 44.555012 -1 
L 44.893174 132.39111 
L 45.789995 267.259927 
L 46.686816 294.728748 
L 47.583638 280.736495 
L 48.480459 194.96089 
L 49.23554 -1 
M 61.273205 -1 
L 61.932781 181.55308 
L 62.829602 277.436111 
L 63.726424 298.331667 
L 64.623245 300.983319 
L 65.520066 301.182752 
L 77.178745 301.192 
L 80.766031 301.182305 
L 81.662852 300.987445 
L 82.559674 298.510438 
L 83.456495 279.086303 
L 84.353316 184.99098 
L 84.943562 -1 
M 91.898483 -1 
L 92.424709 160.58189 
L 93.321531 271.96985 
L 94.218352 297.479068 
L 95.115174 300.906311 
L 96.011995 301.178627 
L 104.083388 301.192 
L 108.567495 301.170238 
L 109.464316 300.803517 
L 110.361138 297.032141 
L 111.257959 273.860695 
L 112.154781 192.55436 
L 113.348056 -1 
M 119.965187 -1 
L 120.226174 88.0422 
L 121.122995 247.90455 
L 122.019816 293.112935 
L 122.916638 300.449414 
L 123.813459 301.150401 
L 126.503924 301.192 
L 130.091209 301.149714 
L 130.988031 300.435662 
L 131.884852 293.009798 
L 132.781674 247.21697 
L 133.678495 85.97946 
L 133.929488 -1 
M 146.230115 -1 
L 146.233995 0.37575 
L 147.130816 212.49418 
L 148.027638 285.37766 
L 148.924459 299.479926 
L 149.821281 301.079581 
L 151.614924 301.191892 
L 171.344995 301.169654 
L 172.241816 300.714132 
L 173.138638 294.935022 
L 174.035459 250.31108 
L 174.932281 45.06845 
L 175.006235 -1 
M 180.492349 -1 
L 181.210031 220.74514 
L 182.106852 289.915688 
L 183.003674 300.208761 
L 183.900495 301.1394 
L 186.590959 301.192 
L 219.773352 301.105709 
L 220.670174 299.820278 
L 221.566995 287.921706 
L 222.463816 223.49546 
L 223.435053 -1 
M 227.383042 -1 
L 227.844745 46.7874 
L 228.333607 -1 
M 230.315919 -1 
L 230.535209 25.81621 
L 231.432031 181.89687 
L 232.328852 269.838352 
L 233.225674 296.207045 
L 234.122495 300.707256 
L 235.019316 301.163637 
L 239.503424 301.192 
L 517.518066 301.095739 
L 518.414888 299.6862 
L 519.311709 286.924715 
L 520.208531 219.02619 
L 521.150775 -1 
M 524.644472 -1 
L 524.692638 16.19009 
L 525.589459 219.71377 
L 526.486281 287.027852 
L 527.383102 299.699951 
L 528.279924 301.09677 
L 530.073566 301.191913 
L 548.009995 301.183749 
L 548.906816 301.021136 
L 549.803638 299.04675 
L 550.700459 284.861975 
L 551.597281 225.90199 
L 553.051988 -1 
M 554.729558 -1 
L 556.081388 213.52555 
L 556.978209 280.942769 
L 557.875031 296.413319 
L 558.771852 283.246162 
L 559.668674 204.9308 
L 560.501538 -1 
M 564.017281 -1 
L 564.152781 46.7874 
L 565.049602 232.09021 
L 565.946424 289.84693 
L 566.843245 300.060931 
L 567.740066 301.123586 
L 569.533709 301.191151 
L 570.430531 301.168416 
L 571.327352 300.762262 
L 572.224174 296.344561 
L 573.120995 266.813 
L 574.017816 145.79892 
L 574.458996 -1 
M 578.953335 -1 
L 579.398745 151.98714 
L 580.295566 271.041617 
L 581.192388 297.444689 
L 582.089209 300.906654 
L 582.986031 301.178764 
L 588.366959 301.190071 
L 589.263781 301.137337 
L 590.160602 300.256891 
L 591.057424 291.462743 
L 591.954245 239.65359 
L 592.851066 65.69585 
L 593.041214 -1 
M 598.494434 -1 
L 599.128816 124.48394 
L 600.025638 245.49802 
L 600.922459 290.431373 
L 601.819281 299.930291 
L 602.716102 301.102271 
L 604.509745 301.191899 
L 617.065245 301.183096 
L 617.962066 300.978163 
L 618.858888 297.912243 
L 619.755709 268.841361 
L 620.652531 94.23042 
L 620.783416 -1 
M 636.560015 -1 
L 636.795316 77.38471 
L 637.692138 197.36742 
L 638.588959 76.69713 
L 638.777152 -1 
M 649.790818 -1 
L 650.247638 167.1139 
L 651.144459 276.920426 
L 652.041281 298.476059 
L 652.938102 301.004978 
L 653.834924 301.184127 
L 657.422209 301.186259 
L 658.319031 301.048296 
L 659.215852 298.99862 
L 660.112674 280.667737 
L 661.009495 183.61582 
L 661.570794 -1 
M 665.9165 -1 
L 666.390424 165.05116 
L 667.287245 265.78163 
L 668.184066 237.24706 
L 669.080888 73.25923 
L 669.281214 -1 
L 669.281214 -1 
" clip-path="url(#p5924311065)" style="fill: none; stroke: #999999; stroke-linecap: square"/>
   </g>
   <g id="line2d_19">
    <path d="M 43.996352 294.831885 
L 44.893174 299.926853 
L 45.789995 300.928657 
L 46.686816 300.42191 
L 47.583638 294.714996 
L 48.480459 267.088032 
L 49.377281 192.55436 
L 50.274102 90.79252 
L 51.170924 53.6632 
L 52.067745 121.73362 
L 52.964566 211.11902 
L 53.861388 244.535408 
L 54.758209 237.93464 
L 55.655031 237.93464 
L 57.448674 279.051924 
L 58.345495 287.234126 
L 59.242316 287.4404 
L 60.139138 289.709414 
L 61.035959 295.031283 
L 61.932781 299.177391 
L 62.829602 300.792516 
L 63.726424 301.143869 
L 66.416888 301.191996 
L 81.662852 301.177286 
L 82.559674 300.996727 
L 83.456495 299.562435 
L 84.353316 292.528492 
L 85.250138 271.419786 
L 86.146959 234.909288 
L 87.043781 204.9308 
L 87.940602 208.3687 
L 88.837424 234.84053 
L 89.734245 257.599428 
L 91.527888 286.890336 
L 92.424709 296.385816 
L 93.321531 300.188133 
L 94.218352 301.064798 
L 96.011995 301.191541 
L 108.567495 301.186052 
L 109.464316 301.086113 
L 110.361138 300.050617 
L 111.257959 293.697378 
L 112.154781 271.557302 
L 113.051602 229.68368 
L 113.948424 196.67984 
L 114.845245 209.05628 
L 115.742066 251.479966 
L 116.638888 284.827596 
L 117.535709 297.67159 
L 118.432531 300.442538 
L 119.329352 300.916968 
L 121.122995 301.166491 
L 126.503924 301.192 
L 130.091209 301.174398 
L 130.988031 300.877088 
L 131.884852 297.781603 
L 132.781674 278.776892 
L 133.678495 211.8066 
L 134.575316 84.6043 
L 135.314754 -1 
M 136.171108 -1 
L 136.368959 4.15744 
L 137.265781 112.1075 
L 138.162602 193.24194 
L 139.059424 235.321836 
L 139.956245 266.194178 
L 140.853066 288.12798 
L 141.749888 297.307173 
L 142.646709 297.83661 
L 143.543531 294.87314 
L 144.440352 292.94104 
L 145.337174 294.57748 
L 146.233995 297.981001 
L 147.130816 300.250015 
L 148.027638 301.023543 
L 148.924459 301.17371 
L 155.202209 301.192 
L 173.138638 301.094364 
L 174.035459 300.133127 
L 174.932281 293.97241 
L 175.829102 270.2509 
L 177.622745 165.73874 
L 178.519566 163.676 
L 180.313209 268.87574 
L 181.210031 293.697378 
L 182.106852 300.133127 
L 183.003674 301.101239 
L 184.797316 301.191847 
L 220.670174 301.10949 
L 221.566995 300.401283 
L 222.463816 296.543959 
L 223.360638 284.69008 
L 224.257459 265.644114 
L 225.154281 254.642834 
L 226.051102 263.512616 
L 226.947924 278.708134 
L 227.844745 280.770874 
L 228.741566 270.663448 
L 229.638388 266.194178 
L 230.535209 276.232846 
L 231.432031 290.396994 
L 232.328852 298.352295 
L 233.225674 300.738885 
L 234.122495 301.148132 
L 236.812959 301.191998 
L 517.518066 301.164015 
L 518.414888 300.755387 
L 519.311709 297.052768 
L 520.208531 277.401732 
L 521.105352 217.99482 
L 522.002174 125.8591 
L 522.898995 76.35334 
L 523.795816 125.8591 
L 524.692638 218.6824 
L 525.589459 277.539248 
L 526.486281 297.080272 
L 527.383102 300.759512 
L 528.279924 301.164359 
L 532.764031 301.192 
L 548.009995 301.175979 
L 548.906816 300.859899 
L 549.803638 297.025265 
L 550.700459 269.494562 
L 551.597281 154.73746 
L 552.127648 -1 
M 555.655119 -1 
L 556.081388 131.35974 
L 556.978209 261.931182 
L 557.875031 293.216072 
L 558.771852 277.883038 
L 559.668674 176.74002 
L 560.224619 -1 
M 564.251996 -1 
L 565.049602 211.8066 
L 565.946424 286.546546 
L 566.843245 299.73433 
L 567.740066 301.10399 
L 569.533709 301.191928 
L 574.017816 301.135687 
L 574.914638 300.955472 
L 576.708281 300.263767 
L 577.605102 300.318773 
L 579.398745 301.020793 
L 581.192388 301.187462 
L 589.263781 301.148201 
L 590.160602 300.442538 
L 591.057424 293.353588 
L 591.954245 251.823756 
L 592.851066 112.1075 
L 593.251957 -1 
M 598.061034 -1 
L 598.231995 19.97178 
L 599.128816 160.2381 
L 600.025638 256.774332 
L 600.922459 292.59725 
L 601.819281 300.188133 
L 602.716102 301.120492 
L 604.509745 301.19192 
L 621.549352 301.135962 
L 626.033459 300.633685 
L 626.930281 299.809964 
L 627.827102 297.575329 
L 628.723924 292.528492 
L 630.517566 273.276252 
L 631.414388 271.28227 
L 632.311209 273.069978 
L 633.208031 261.174844 
L 634.104852 237.522092 
L 635.001674 231.05884 
L 635.898495 253.130158 
L 636.795316 281.25218 
L 637.692138 296.11766 
L 638.588959 300.201885 
L 639.485781 300.566302 
L 640.382602 300.263767 
L 641.279424 299.741206 
L 642.176245 298.049759 
L 643.073066 294.109926 
L 644.866709 283.246162 
L 645.763531 279.395714 
L 646.660352 280.5646 
L 647.557174 287.027852 
L 648.453995 294.357455 
L 649.350816 298.881731 
L 650.247638 300.657063 
L 651.144459 301.10949 
L 652.938102 301.191484 
L 658.319031 301.176873 
L 659.215852 300.952722 
L 660.112674 298.881731 
L 661.009495 287.577916 
L 661.906316 251.961272 
L 662.803138 192.55436 
L 663.699959 155.42504 
L 664.596781 181.55308 
L 665.493602 241.37254 
L 666.390424 282.97113 
L 667.287245 297.809106 
L 668.184066 300.80833 
L 669.080888 301.152258 
L 672.668174 301.042108 
L 672.668174 301.042108 
" clip-path="url(#p5924311065)" style="fill: none; stroke: #c1602f; stroke-width: 1.5; stroke-linecap: square"/>
   </g>
   <g id="line2d_20">
    <path d="M 43.996352 301.186492 
L 51.170924 301.153564 
L 52.067745 300.941721 
L 52.964566 300.201885 
L 53.861388 298.806097 
L 54.758209 297.67159 
L 55.655031 298.01538 
L 56.551852 299.424919 
L 57.448674 300.577991 
L 58.345495 301.057922 
L 60.139138 301.190336 
L 82.559674 301.16044 
L 83.456495 300.955472 
L 84.353316 300.119375 
L 86.146959 296.241424 
L 87.043781 296.172666 
L 88.837424 300.036866 
L 89.734245 300.931407 
L 90.631066 301.156177 
L 94.218352 301.192 
L 136.368959 301.084738 
L 137.265781 300.829645 
L 138.162602 300.42191 
L 139.059424 300.167506 
L 139.956245 300.353152 
L 141.749888 301.060672 
L 143.543531 301.18914 
L 173.138638 301.185791 
L 174.035459 301.13108 
L 174.932281 300.809018 
L 175.829102 299.665572 
L 177.622745 295.292564 
L 178.519566 295.553844 
L 180.313209 300.009362 
L 181.210031 300.934157 
L 182.106852 301.157827 
L 185.694138 301.192 
L 226.947924 301.127643 
L 229.638388 300.72032 
L 233.225674 301.185881 
L 252.058924 301.192 
L 548.906816 301.159065 
L 549.803638 300.778764 
L 550.700459 298.049759 
L 551.597281 286.684062 
L 553.390924 231.74642 
L 554.287745 229.68368 
L 556.081388 284.34629 
L 556.978209 297.314049 
L 557.875031 300.650875 
L 558.771852 301.146276 
L 561.462316 301.191999 
L 592.851066 301.149645 
L 593.747888 300.745073 
L 594.644709 298.331667 
L 595.541531 290.121962 
L 596.438352 275.06396 
L 597.335174 263.856406 
L 598.231995 268.87574 
L 599.128816 284.208774 
L 600.025638 295.780745 
L 600.922459 300.146878 
L 601.819281 301.069611 
L 603.612924 301.191624 
L 622.446174 301.101927 
L 624.239816 301.048983 
L 626.033459 301.154939 
L 626.930281 301.108115 
L 627.827102 300.599994 
L 628.723924 298.448556 
L 630.517566 287.990464 
L 631.414388 287.509158 
L 633.208031 297.925995 
L 634.104852 300.435662 
L 635.001674 301.086113 
L 636.795316 301.19153 
L 641.279424 301.163259 
L 644.866709 300.878464 
L 646.660352 301.104677 
L 651.144459 301.191693 
L 659.215852 301.146551 
L 660.112674 300.802142 
L 661.009495 299.163639 
L 661.906316 294.797506 
L 662.803138 288.953076 
L 663.699959 286.959094 
L 664.596781 291.22209 
L 665.493602 296.922128 
L 666.390424 300.084996 
L 667.287245 301.018042 
L 668.184066 301.175429 
L 672.668174 301.149095 
L 672.668174 301.149095 
" clip-path="url(#p5924311065)" style="fill: none; stroke-dasharray: 4.44,1.92; stroke-dashoffset: 0; stroke: #2a7a4a; stroke-width: 1.2"/>
   </g>
   <g id="line2d_21">
    <path d="M 224.024286 301.192 
L 224.024286 26.16 
" clip-path="url(#p5924311065)" style="fill: none; stroke-dasharray: 2.96,1.28; stroke-dashoffset: 0; stroke: #777777; stroke-width: 0.8"/>
   </g>
   <g id="line2d_22">
    <path d="M 521.248844 301.192 
L 521.248844 26.16 
" clip-path="url(#p5924311065)" style="fill: none; stroke-dasharray: 2.96,1.28; stroke-dashoffset: 0; stroke: #777777; stroke-width: 0.8"/>
   </g>
   <g id="line2d_23">
    <path d="M 553.893144 301.192 
L 553.893144 26.16 
" clip-path="url(#p5924311065)" style="fill: none; stroke-dasharray: 0.7,1.155; stroke-dashoffset: 0; stroke: #2e6da4; stroke-width: 0.7"/>
   </g>
   <g id="line2d_24">
    <path d="M 562.323265 301.192 
L 562.323265 26.16 
" clip-path="url(#p5924311065)" style="fill: none; stroke-dasharray: 0.7,1.155; stroke-dashoffset: 0; stroke: #2e6da4; stroke-width: 0.7"/>
   </g>
   <g id="line2d_25">
    <path d="M 575.954951 301.192 
L 575.954951 26.16 
" clip-path="url(#p5924311065)" style="fill: none; stroke-dasharray: 0.7,1.155; stroke-dashoffset: 0; stroke: #2e6da4; stroke-width: 0.7"/>
   </g>
   <g id="line2d_26">
    <path d="M 577.031136 301.192 
L 577.031136 26.16 
" clip-path="url(#p5924311065)" style="fill: none; stroke-dasharray: 0.7,1.155; stroke-dashoffset: 0; stroke: #2e6da4; stroke-width: 0.7"/>
   </g>
   <g id="patch_3">
    <path d="M 44.66 301.192 
L 44.66 26.16 
" style="fill: none; stroke: #000000; stroke-width: 0.8; stroke-linejoin: miter; stroke-linecap: square"/>
   </g>
   <g id="patch_4">
    <path d="M 672.435 301.192 
L 672.435 26.16 
" style="fill: none; stroke: #000000; stroke-width: 0.8; stroke-linejoin: miter; stroke-linecap: square"/>
   </g>
   <g id="patch_5">
    <path d="M 44.66 301.192 
L 672.435 301.192 
" style="fill: none; stroke: #000000; stroke-width: 0.8; stroke-linejoin: miter; stroke-linecap: square"/>
   </g>
   <g id="patch_6">
    <path d="M 44.66 26.16 
L 672.435 26.16 
" style="fill: none; stroke: #000000; stroke-width: 0.8; stroke-linejoin: miter; stroke-linecap: square"/>
   </g>
   <g id="text_20">
    <!-- VBM -->
    <g style="fill: #555555" transform="translate(224.024286 53.6632) scale(0.09 -0.09)">
     <use xlink:href="#DejaVuSans-56"/>
     <use xlink:href="#DejaVuSans-42" transform="translate(68.408203 0)"/>
     <use xlink:href="#DejaVuSans-4d" transform="translate(137.011719 0)"/>
    </g>
   </g>
   <g id="text_21">
    <!-- CBM -->
    <g style="fill: #555555" transform="translate(521.248844 53.6632) scale(0.09 -0.09)">
     <defs>
      <path id="DejaVuSans-43" d="M 4122 4306 
L 4122 3641 
Q 3803 3938 3442 4084 
Q 3081 4231 2675 4231 
Q 1875 4231 1450 3742 
Q 1025 3253 1025 2328 
Q 1025 1406 1450 917 
Q 1875 428 2675 428 
Q 3081 428 3442 575 
Q 3803 722 4122 1019 
L 4122 359 
Q 3791 134 3420 21 
Q 3050 -91 2638 -91 
Q 1578 -91 968 557 
Q 359 1206 359 2328 
Q 359 3453 968 4101 
Q 1578 4750 2638 4750 
Q 3056 4750 3426 4639 
Q 3797 4528 4122 4306 
z
" transform="scale(0.015625)"/>
     </defs>
     <use xlink:href="#DejaVuSans-43"/>
     <use xlink:href="#DejaVuSans-42" transform="translate(69.824219 0)"/>
     <use xlink:href="#DejaVuSans-4d" transform="translate(138.427734 0)"/>
    </g>
   </g>
   <g id="text_22">
    <!-- resonance fingerprint -->
    <g style="fill: #2e6da4" transform="translate(520.298821 102.589359) scale(0.085 -0.085)">
     <defs>
      <path id="DejaVuSans-72" d="M 2631 2963 
Q 2534 3019 2420 3045 
Q 2306 3072 2169 3072 
Q 1681 3072 1420 2755 
Q 1159 2438 1159 1844 
L 1159 0 
L 581 0 
L 581 3500 
L 1159 3500 
L 1159 2956 
Q 1341 3275 1631 3429 
Q 1922 3584 2338 3584 
Q 2397 3584 2469 3576 
Q 2541 3569 2628 3553 
L 2631 2963 
z
" transform="scale(0.015625)"/>
      <path id="DejaVuSans-6f" d="M 1959 3097 
Q 1497 3097 1228 2736 
Q 959 2375 959 1747 
Q 959 1119 1226 758 
Q 1494 397 1959 397 
Q 2419 397 2687 759 
Q 2956 1122 2956 1747 
Q 2956 2369 2687 2733 
Q 2419 3097 1959 3097 
z
M 1959 3584 
Q 2709 3584 3137 3096 
Q 3566 2609 3566 1747 
Q 3566 888 3137 398 
Q 2709 -91 1959 -91 
Q 1206 -91 779 398 
Q 353 888 353 1747 
Q 353 2609 779 3096 
Q 1206 3584 1959 3584 
z
" transform="scale(0.015625)"/>
      <path id="DejaVuSans-6e" d="M 3513 2113 
L 3513 0 
L 2938 0 
L 2938 2094 
Q 2938 2591 2744 2837 
Q 2550 3084 2163 3084 
Q 1697 3084 1428 2787 
Q 1159 2491 1159 1978 
L 1159 0 
L 581 0 
L 581 3500 
L 1159 3500 
L 1159 2956 
Q 1366 3272 1645 3428 
Q 1925 3584 2291 3584 
Q 2894 3584 3203 3211 
Q 3513 2838 3513 2113 
z
" transform="scale(0.015625)"/>
      <path id="DejaVuSans-63" d="M 3122 3366 
L 3122 2828 
Q 2878 2963 2633 3030 
Q 2388 3097 2138 3097 
Q 1578 3097 1268 2742 
Q 959 2388 959 1747 
Q 959 1106 1268 751 
Q 1578 397 2138 397 
Q 2388 397 2633 464 
Q 2878 531 3122 666 
L 3122 134 
Q 2881 22 2623 -34 
Q 2366 -91 2075 -91 
Q 1284 -91 818 406 
Q 353 903 353 1747 
Q 353 2603 823 3093 
Q 1294 3584 2113 3584 
Q 2378 3584 2631 3529 
Q 2884 3475 3122 3366 
z
" transform="scale(0.015625)"/>
      <path id="DejaVuSans-66" d="M 2375 4863 
L 2375 4384 
L 1825 4384 
Q 1516 4384 1395 4259 
Q 1275 4134 1275 3809 
L 1275 3500 
L 2222 3500 
L 2222 3053 
L 1275 3053 
L 1275 0 
L 697 0 
L 697 3053 
L 147 3053 
L 147 3500 
L 697 3500 
L 697 3744 
Q 697 4328 969 4595 
Q 1241 4863 1831 4863 
L 2375 4863 
z
" transform="scale(0.015625)"/>
      <path id="DejaVuSans-69" d="M 603 3500 
L 1178 3500 
L 1178 0 
L 603 0 
L 603 3500 
z
M 603 4863 
L 1178 4863 
L 1178 4134 
L 603 4134 
L 603 4863 
z
" transform="scale(0.015625)"/>
      <path id="DejaVuSans-67" d="M 2906 1791 
Q 2906 2416 2648 2759 
Q 2391 3103 1925 3103 
Q 1463 3103 1205 2759 
Q 947 2416 947 1791 
Q 947 1169 1205 825 
Q 1463 481 1925 481 
Q 2391 481 2648 825 
Q 2906 1169 2906 1791 
z
M 3481 434 
Q 3481 -459 3084 -895 
Q 2688 -1331 1869 -1331 
Q 1566 -1331 1297 -1286 
Q 1028 -1241 775 -1147 
L 775 -588 
Q 1028 -725 1275 -790 
Q 1522 -856 1778 -856 
Q 2344 -856 2625 -561 
Q 2906 -266 2906 331 
L 2906 616 
Q 2728 306 2450 153 
Q 2172 0 1784 0 
Q 1141 0 747 490 
Q 353 981 353 1791 
Q 353 2603 747 3093 
Q 1141 3584 1784 3584 
Q 2172 3584 2450 3431 
Q 2728 3278 2906 2969 
L 2906 3500 
L 3481 3500 
L 3481 434 
z
" transform="scale(0.015625)"/>
      <path id="DejaVuSans-70" d="M 1159 525 
L 1159 -1331 
L 581 -1331 
L 581 3500 
L 1159 3500 
L 1159 2969 
Q 1341 3281 1617 3432 
Q 1894 3584 2278 3584 
Q 2916 3584 3314 3078 
Q 3713 2572 3713 1747 
Q 3713 922 3314 415 
Q 2916 -91 2278 -91 
Q 1894 -91 1617 61 
Q 1341 213 1159 525 
z
M 3116 1747 
Q 3116 2381 2855 2742 
Q 2594 3103 2138 3103 
Q 1681 3103 1420 2742 
Q 1159 2381 1159 1747 
Q 1159 1113 1420 752 
Q 1681 391 2138 391 
Q 2594 391 2855 752 
Q 3116 1113 3116 1747 
z
" transform="scale(0.015625)"/>
     </defs>
     <use xlink:href="#DejaVuSans-72"/>
     <use xlink:href="#DejaVuSans-65" transform="translate(38.863281 0)"/>
     <use xlink:href="#DejaVuSans-73" transform="translate(100.386719 0)"/>
     <use xlink:href="#DejaVuSans-6f" transform="translate(152.486328 0)"/>
     <use xlink:href="#DejaVuSans-6e" transform="translate(213.667969 0)"/>
     <use xlink:href="#DejaVuSans-61" transform="translate(277.046875 0)"/>
     <use xlink:href="#DejaVuSans-6e" transform="translate(338.326172 0)"/>
     <use xlink:href="#DejaVuSans-63" transform="translate(401.705078 0)"/>
     <use xlink:href="#DejaVuSans-65" transform="translate(456.685547 0)"/>
     <use xlink:href="#DejaVuSans-20" transform="translate(518.208984 0)"/>
     <use xlink:href="#DejaVuSans-66" transform="translate(549.996094 0)"/>
     <use xlink:href="#DejaVuSans-69" transform="translate(585.201172 0)"/>
     <use xlink:href="#DejaVuSans-6e" transform="translate(612.984375 0)"/>
     <use xlink:href="#DejaVuSans-67" transform="translate(676.363281 0)"/>
     <use xlink:href="#DejaVuSans-65" transform="translate(739.839844 0)"/>
     <use xlink:href="#DejaVuSans-72" transform="translate(801.363281 0)"/>
     <use xlink:href="#DejaVuSans-70" transform="translate(842.476562 0)"/>
     <use xlink:href="#DejaVuSans-72" transform="translate(905.953125 0)"/>
     <use xlink:href="#DejaVuSans-69" transform="translate(947.066406 0)"/>
     <use xlink:href="#DejaVuSans-6e" transform="translate(974.849609 0)"/>
     <use xlink:href="#DejaVuSans-74" transform="translate(1038.228516 0)"/>
    </g>
    <!-- levels (supercell) -->
    <g style="fill: #2e6da4" transform="translate(529.916438 112.1075) scale(0.085 -0.085)">
     <defs>
      <path id="DejaVuSans-6c" d="M 603 4863 
L 1178 4863 
L 1178 0 
L 603 0 
L 603 4863 
z
" transform="scale(0.015625)"/>
      <path id="DejaVuSans-76" d="M 191 3500 
L 800 3500 
L 1894 563 
L 2988 3500 
L 3597 3500 
L 2284 0 
L 1503 0 
L 191 3500 
z
" transform="scale(0.015625)"/>
      <path id="DejaVuSans-75" d="M 544 1381 
L 544 3500 
L 1119 3500 
L 1119 1403 
Q 1119 906 1312 657 
Q 1506 409 1894 409 
Q 2359 409 2629 706 
Q 2900 1003 2900 1516 
L 2900 3500 
L 3475 3500 
L 3475 0 
L 2900 0 
L 2900 538 
Q 2691 219 2414 64 
Q 2138 -91 1772 -91 
Q 1169 -91 856 284 
Q 544 659 544 1381 
z
M 1991 3584 
L 1991 3584 
z
" transform="scale(0.015625)"/>
     </defs>
     <use xlink:href="#DejaVuSans-6c"/>
     <use xlink:href="#DejaVuSans-65" transform="translate(27.783203 0)"/>
     <use xlink:href="#DejaVuSans-76" transform="translate(89.306641 0)"/>
     <use xlink:href="#DejaVuSans-65" transform="translate(148.486328 0)"/>
     <use xlink:href="#DejaVuSans-6c" transform="translate(210.009766 0)"/>
     <use xlink:href="#DejaVuSans-73" transform="translate(237.792969 0)"/>
     <use xlink:href="#DejaVuSans-20" transform="translate(289.892578 0)"/>
     <use xlink:href="#DejaVuSans-28" transform="translate(321.679688 0)"/>
     <use xlink:href="#DejaVuSans-73" transform="translate(360.693359 0)"/>
     <use xlink:href="#DejaVuSans-75" transform="translate(412.792969 0)"/>
     <use xlink:href="#DejaVuSans-70" transform="translate(476.171875 0)"/>
     <use xlink:href="#DejaVuSans-65" transform="translate(539.648438 0)"/>
     <use xlink:href="#DejaVuSans-72" transform="translate(601.171875 0)"/>
     <use xlink:href="#DejaVuSans-63" transform="translate(640.035156 0)"/>
     <use xlink:href="#DejaVuSans-65" transform="translate(695.015625 0)"/>
     <use xlink:href="#DejaVuSans-6c" transform="translate(756.539062 0)"/>
     <use xlink:href="#DejaVuSans-6c" transform="translate(784.322266 0)"/>
     <use xlink:href="#DejaVuSans-29" transform="translate(812.105469 0)"/>
    </g>
   </g>
   <g id="text_23">
    <!-- O$_S$ supercell PDOS (projwfc.x, $\Gamma$-only, $\sigma$=10 meV, deep-state aligned) -->
    <g transform="translate(177.0025 20.16) scale(0.105 -0.105)">
     <defs>
      <path id="DejaVuSans-Oblique-53" d="M 3859 4513 
L 3738 3897 
Q 3422 4066 3111 4152 
Q 2800 4238 2509 4238 
Q 1944 4238 1609 3991 
Q 1275 3744 1275 3334 
Q 1275 3109 1398 2989 
Q 1522 2869 2034 2731 
L 2413 2638 
Q 3053 2472 3303 2217 
Q 3553 1963 3553 1503 
Q 3553 797 2998 353 
Q 2444 -91 1538 -91 
Q 1166 -91 791 -17 
Q 416 56 38 206 
L 166 856 
Q 513 641 861 531 
Q 1209 422 1556 422 
Q 2147 422 2503 684 
Q 2859 947 2859 1369 
Q 2859 1650 2717 1795 
Q 2575 1941 2106 2059 
L 1728 2156 
Q 1081 2325 845 2545 
Q 609 2766 609 3163 
Q 609 3859 1145 4304 
Q 1681 4750 2541 4750 
Q 2875 4750 3203 4690 
Q 3531 4631 3859 4513 
z
" transform="scale(0.015625)"/>
      <path id="DejaVuSans-50" d="M 1259 4147 
L 1259 2394 
L 2053 2394 
Q 2494 2394 2734 2622 
Q 2975 2850 2975 3272 
Q 2975 3691 2734 3919 
Q 2494 4147 2053 4147 
L 1259 4147 
z
M 628 4666 
L 2053 4666 
Q 2838 4666 3239 4311 
Q 3641 3956 3641 3272 
Q 3641 2581 3239 2228 
Q 2838 1875 2053 1875 
L 1259 1875 
L 1259 0 
L 628 0 
L 628 4666 
z
" transform="scale(0.015625)"/>
      <path id="DejaVuSans-6a" d="M 603 3500 
L 1178 3500 
L 1178 -63 
Q 1178 -731 923 -1031 
Q 669 -1331 103 -1331 
L -116 -1331 
L -116 -844 
L 38 -844 
Q 366 -844 484 -692 
Q 603 -541 603 -63 
L 603 3500 
z
M 603 4863 
L 1178 4863 
L 1178 4134 
L 603 4134 
L 603 4863 
z
" transform="scale(0.015625)"/>
      <path id="DejaVuSans-77" d="M 269 3500 
L 844 3500 
L 1563 769 
L 2278 3500 
L 2956 3500 
L 3675 769 
L 4391 3500 
L 4966 3500 
L 4050 0 
L 3372 0 
L 2619 2869 
L 1863 0 
L 1184 0 
L 269 3500 
z
" transform="scale(0.015625)"/>
      <path id="DejaVuSans-78" d="M 3513 3500 
L 2247 1797 
L 3578 0 
L 2900 0 
L 1881 1375 
L 863 0 
L 184 0 
L 1544 1831 
L 300 3500 
L 978 3500 
L 1906 2253 
L 2834 3500 
L 3513 3500 
z
" transform="scale(0.015625)"/>
      <path id="DejaVuSans-2c" d="M 750 794 
L 1409 794 
L 1409 256 
L 897 -744 
L 494 -744 
L 750 256 
L 750 794 
z
" transform="scale(0.015625)"/>
      <path id="DejaVuSans-393" d="M 628 0 
L 628 4666 
L 3531 4666 
L 3531 4134 
L 1259 4134 
L 1259 0 
L 628 0 
z
" transform="scale(0.015625)"/>
      <path id="DejaVuSans-2d" d="M 313 2009 
L 1997 2009 
L 1997 1497 
L 313 1497 
L 313 2009 
z
" transform="scale(0.015625)"/>
      <path id="DejaVuSans-79" d="M 2059 -325 
Q 1816 -950 1584 -1140 
Q 1353 -1331 966 -1331 
L 506 -1331 
L 506 -850 
L 844 -850 
Q 1081 -850 1212 -737 
Q 1344 -625 1503 -206 
L 1606 56 
L 191 3500 
L 800 3500 
L 1894 763 
L 2988 3500 
L 3597 3500 
L 2059 -325 
z
" transform="scale(0.015625)"/>
      <path id="DejaVuSans-Oblique-3c3" d="M 2219 3044 
Q 1744 3044 1422 2700 
Q 1081 2341 969 1747 
Q 844 1119 1044 756 
Q 1241 397 1706 397 
Q 2166 397 2503 759 
Q 2844 1122 2966 1747 
Q 3075 2319 2881 2700 
Q 2700 3044 2219 3044 
z
M 2309 3503 
L 4219 3500 
L 4106 2925 
L 3463 2925 
Q 3706 2438 3575 1747 
Q 3406 888 2884 400 
Q 2359 -91 1609 -91 
Q 856 -91 525 400 
Q 194 888 363 1747 
Q 528 2609 1050 3097 
Q 1484 3503 2309 3503 
z
" transform="scale(0.015625)"/>
      <path id="DejaVuSans-3d" d="M 678 2906 
L 4684 2906 
L 4684 2381 
L 678 2381 
L 678 2906 
z
M 678 1631 
L 4684 1631 
L 4684 1100 
L 678 1100 
L 678 1631 
z
" transform="scale(0.015625)"/>
      <path id="DejaVuSans-6d" d="M 3328 2828 
Q 3544 3216 3844 3400 
Q 4144 3584 4550 3584 
Q 5097 3584 5394 3201 
Q 5691 2819 5691 2113 
L 5691 0 
L 5113 0 
L 5113 2094 
Q 5113 2597 4934 2840 
Q 4756 3084 4391 3084 
Q 3944 3084 3684 2787 
Q 3425 2491 3425 1978 
L 3425 0 
L 2847 0 
L 2847 2094 
Q 2847 2600 2669 2842 
Q 2491 3084 2119 3084 
Q 1678 3084 1418 2786 
Q 1159 2488 1159 1978 
L 1159 0 
L 581 0 
L 581 3500 
L 1159 3500 
L 1159 2956 
Q 1356 3278 1631 3431 
Q 1906 3584 2284 3584 
Q 2666 3584 2933 3390 
Q 3200 3197 3328 2828 
z
" transform="scale(0.015625)"/>
      <path id="DejaVuSans-64" d="M 2906 2969 
L 2906 4863 
L 3481 4863 
L 3481 0 
L 2906 0 
L 2906 525 
Q 2725 213 2448 61 
Q 2172 -91 1784 -91 
Q 1150 -91 751 415 
Q 353 922 353 1747 
Q 353 2572 751 3078 
Q 1150 3584 1784 3584 
Q 2172 3584 2448 3432 
Q 2725 3281 2906 2969 
z
M 947 1747 
Q 947 1113 1208 752 
Q 1469 391 1925 391 
Q 2381 391 2643 752 
Q 2906 1113 2906 1747 
Q 2906 2381 2643 2742 
Q 2381 3103 1925 3103 
Q 1469 3103 1208 2742 
Q 947 2381 947 1747 
z
" transform="scale(0.015625)"/>
     </defs>
     <use xlink:href="#DejaVuSans-4f" transform="translate(0 0.015625)"/>
     <use xlink:href="#DejaVuSans-Oblique-53" transform="translate(79.667969 -16.390625) scale(0.7)"/>
     <use xlink:href="#DejaVuSans-20" transform="translate(126.835938 0.015625)"/>
     <use xlink:href="#DejaVuSans-73" transform="translate(158.623047 0.015625)"/>
     <use xlink:href="#DejaVuSans-75" transform="translate(210.722656 0.015625)"/>
     <use xlink:href="#DejaVuSans-70" transform="translate(274.101562 0.015625)"/>
     <use xlink:href="#DejaVuSans-65" transform="translate(337.578125 0.015625)"/>
     <use xlink:href="#DejaVuSans-72" transform="translate(399.101562 0.015625)"/>
     <use xlink:href="#DejaVuSans-63" transform="translate(440.214844 0.015625)"/>
     <use xlink:href="#DejaVuSans-65" transform="translate(495.195312 0.015625)"/>
     <use xlink:href="#DejaVuSans-6c" transform="translate(556.71875 0.015625)"/>
     <use xlink:href="#DejaVuSans-6c" transform="translate(584.501953 0.015625)"/>
     <use xlink:href="#DejaVuSans-20" transform="translate(612.285156 0.015625)"/>
     <use xlink:href="#DejaVuSans-50" transform="translate(644.072266 0.015625)"/>
     <use xlink:href="#DejaVuSans-44" transform="translate(704.375 0.015625)"/>
     <use xlink:href="#DejaVuSans-4f" transform="translate(781.376953 0.015625)"/>
     <use xlink:href="#DejaVuSans-53" transform="translate(860.087891 0.015625)"/>
     <use xlink:href="#DejaVuSans-20" transform="translate(923.564453 0.015625)"/>
     <use xlink:href="#DejaVuSans-28" transform="translate(955.351562 0.015625)"/>
     <use xlink:href="#DejaVuSans-70" transform="translate(994.365234 0.015625)"/>
     <use xlink:href="#DejaVuSans-72" transform="translate(1057.841797 0.015625)"/>
     <use xlink:href="#DejaVuSans-6f" transform="translate(1098.955078 0.015625)"/>
     <use xlink:href="#DejaVuSans-6a" transform="translate(1160.136719 0.015625)"/>
     <use xlink:href="#DejaVuSans-77" transform="translate(1187.919922 0.015625)"/>
     <use xlink:href="#DejaVuSans-66" transform="translate(1269.707031 0.015625)"/>
     <use xlink:href="#DejaVuSans-63" transform="translate(1304.912109 0.015625)"/>
     <use xlink:href="#DejaVuSans-2e" transform="translate(1359.892578 0.015625)"/>
     <use xlink:href="#DejaVuSans-78" transform="translate(1391.679688 0.015625)"/>
     <use xlink:href="#DejaVuSans-2c" transform="translate(1450.859375 0.015625)"/>
     <use xlink:href="#DejaVuSans-20" transform="translate(1482.646484 0.015625)"/>
     <use xlink:href="#DejaVuSans-393" transform="translate(1514.433594 0.015625)"/>
     <use xlink:href="#DejaVuSans-2d" transform="translate(1570.146484 0.015625)"/>
     <use xlink:href="#DejaVuSans-6f" transform="translate(1606.230469 0.015625)"/>
     <use xlink:href="#DejaVuSans-6e" transform="translate(1667.412109 0.015625)"/>
     <use xlink:href="#DejaVuSans-6c" transform="translate(1730.791016 0.015625)"/>
     <use xlink:href="#DejaVuSans-79" transform="translate(1758.574219 0.015625)"/>
     <use xlink:href="#DejaVuSans-2c" transform="translate(1817.753906 0.015625)"/>
     <use xlink:href="#DejaVuSans-20" transform="translate(1849.541016 0.015625)"/>
     <use xlink:href="#DejaVuSans-Oblique-3c3" transform="translate(1881.328125 0.015625)"/>
     <use xlink:href="#DejaVuSans-3d" transform="translate(1944.707031 0.015625)"/>
     <use xlink:href="#DejaVuSans-31" transform="translate(2028.496094 0.015625)"/>
     <use xlink:href="#DejaVuSans-30" transform="translate(2092.119141 0.015625)"/>
     <use xlink:href="#DejaVuSans-20" transform="translate(2155.742188 0.015625)"/>
     <use xlink:href="#DejaVuSans-6d" transform="translate(2187.529297 0.015625)"/>
     <use xlink:href="#DejaVuSans-65" transform="translate(2284.941406 0.015625)"/>
     <use xlink:href="#DejaVuSans-56" transform="translate(2346.464844 0.015625)"/>
     <use xlink:href="#DejaVuSans-2c" transform="translate(2414.873047 0.015625)"/>
     <use xlink:href="#DejaVuSans-20" transform="translate(2446.660156 0.015625)"/>
     <use xlink:href="#DejaVuSans-64" transform="translate(2478.447266 0.015625)"/>
     <use xlink:href="#DejaVuSans-65" transform="translate(2541.923828 0.015625)"/>
     <use xlink:href="#DejaVuSans-65" transform="translate(2603.447266 0.015625)"/>
     <use xlink:href="#DejaVuSans-70" transform="translate(2664.970703 0.015625)"/>
     <use xlink:href="#DejaVuSans-2d" transform="translate(2728.447266 0.015625)"/>
     <use xlink:href="#DejaVuSans-73" transform="translate(2764.53125 0.015625)"/>
     <use xlink:href="#DejaVuSans-74" transform="translate(2816.630859 0.015625)"/>
     <use xlink:href="#DejaVuSans-61" transform="translate(2855.839844 0.015625)"/>
     <use xlink:href="#DejaVuSans-74" transform="translate(2917.119141 0.015625)"/>
     <use xlink:href="#DejaVuSans-65" transform="translate(2956.328125 0.015625)"/>
     <use xlink:href="#DejaVuSans-20" transform="translate(3017.851562 0.015625)"/>
     <use xlink:href="#DejaVuSans-61" transform="translate(3049.638672 0.015625)"/>
     <use xlink:href="#DejaVuSans-6c" transform="translate(3110.917969 0.015625)"/>
     <use xlink:href="#DejaVuSans-69" transform="translate(3138.701172 0.015625)"/>
     <use xlink:href="#DejaVuSans-67" transform="translate(3166.484375 0.015625)"/>
     <use xlink:href="#DejaVuSans-6e" transform="translate(3229.960938 0.015625)"/>
     <use xlink:href="#DejaVuSans-65" transform="translate(3293.339844 0.015625)"/>
     <use xlink:href="#DejaVuSans-64" transform="translate(3354.863281 0.015625)"/>
     <use xlink:href="#DejaVuSans-29" transform="translate(3418.339844 0.015625)"/>
    </g>
   </g>
   <g id="legend_1">
    <g id="line2d_27">
     <path d="M 306.7975 261.629969 
L 315.7975 261.629969 
L 324.7975 261.629969 
" style="fill: none; stroke: #999999; stroke-linecap: square"/>
    </g>
    <g id="text_24">
     <!-- total DOS -->
     <g transform="translate(331.9975 264.779969) scale(0.09 -0.09)">
      <use xlink:href="#DejaVuSans-74"/>
      <use xlink:href="#DejaVuSans-6f" transform="translate(39.208984 0)"/>
      <use xlink:href="#DejaVuSans-74" transform="translate(100.390625 0)"/>
      <use xlink:href="#DejaVuSans-61" transform="translate(139.599609 0)"/>
      <use xlink:href="#DejaVuSans-6c" transform="translate(200.878906 0)"/>
      <use xlink:href="#DejaVuSans-20" transform="translate(228.662109 0)"/>
      <use xlink:href="#DejaVuSans-44" transform="translate(260.449219 0)"/>
      <use xlink:href="#DejaVuSans-4f" transform="translate(337.451172 0)"/>
      <use xlink:href="#DejaVuSans-53" transform="translate(416.162109 0)"/>
     </g>
    </g>
    <g id="line2d_28">
     <path d="M 306.7975 274.841687 
L 315.7975 274.841687 
L 324.7975 274.841687 
" style="fill: none; stroke: #c1602f; stroke-width: 1.5; stroke-linecap: square"/>
    </g>
    <g id="text_25">
     <!-- O 2p PDOS ($\times$20) -->
     <g transform="translate(331.9975 277.991687) scale(0.09 -0.09)">
      <defs>
       <path id="DejaVuSans-d7" d="M 4488 3438 
L 3059 2003 
L 4488 575 
L 4116 197 
L 2681 1631 
L 1247 197 
L 878 575 
L 2303 2003 
L 878 3438 
L 1247 3816 
L 2681 2381 
L 4116 3816 
L 4488 3438 
z
" transform="scale(0.015625)"/>
      </defs>
      <use xlink:href="#DejaVuSans-4f" transform="translate(0 0.125)"/>
      <use xlink:href="#DejaVuSans-20" transform="translate(78.710938 0.125)"/>
      <use xlink:href="#DejaVuSans-32" transform="translate(110.498047 0.125)"/>
      <use xlink:href="#DejaVuSans-70" transform="translate(174.121094 0.125)"/>
      <use xlink:href="#DejaVuSans-20" transform="translate(237.597656 0.125)"/>
      <use xlink:href="#DejaVuSans-50" transform="translate(269.384766 0.125)"/>
      <use xlink:href="#DejaVuSans-44" transform="translate(329.6875 0.125)"/>
      <use xlink:href="#DejaVuSans-4f" transform="translate(406.689453 0.125)"/>
      <use xlink:href="#DejaVuSans-53" transform="translate(485.400391 0.125)"/>
      <use xlink:href="#DejaVuSans-20" transform="translate(548.876953 0.125)"/>
      <use xlink:href="#DejaVuSans-28" transform="translate(580.664062 0.125)"/>
      <use xlink:href="#DejaVuSans-d7" transform="translate(619.677734 0.125)"/>
      <use xlink:href="#DejaVuSans-32" transform="translate(703.466797 0.125)"/>
      <use xlink:href="#DejaVuSans-30" transform="translate(767.089844 0.125)"/>
      <use xlink:href="#DejaVuSans-29" transform="translate(830.712891 0.125)"/>
     </g>
    </g>
    <g id="line2d_29">
     <path d="M 306.7975 288.070281 
L 315.7975 288.070281 
L 324.7975 288.070281 
" style="fill: none; stroke-dasharray: 4.44,1.92; stroke-dashoffset: 0; stroke: #2a7a4a; stroke-width: 1.2"/>
    </g>
    <g id="text_26">
     <!-- O 2s PDOS ($\times$20) -->
     <g transform="translate(331.9975 291.220281) scale(0.09 -0.09)">
      <use xlink:href="#DejaVuSans-4f" transform="translate(0 0.125)"/>
      <use xlink:href="#DejaVuSans-20" transform="translate(78.710938 0.125)"/>
      <use xlink:href="#DejaVuSans-32" transform="translate(110.498047 0.125)"/>
      <use xlink:href="#DejaVuSans-73" transform="translate(174.121094 0.125)"/>
      <use xlink:href="#DejaVuSans-20" transform="translate(226.220703 0.125)"/>
      <use xlink:href="#DejaVuSans-50" transform="translate(258.007812 0.125)"/>
      <use xlink:href="#DejaVuSans-44" transform="translate(318.310547 0.125)"/>
      <use xlink:href="#DejaVuSans-4f" transform="translate(395.3125 0.125)"/>
      <use xlink:href="#DejaVuSans-53" transform="translate(474.023438 0.125)"/>
      <use xlink:href="#DejaVuSans-20" transform="translate(537.5 0.125)"/>
      <use xlink:href="#DejaVuSans-28" transform="translate(569.287109 0.125)"/>
      <use xlink:href="#DejaVuSans-d7" transform="translate(608.300781 0.125)"/>
      <use xlink:href="#DejaVuSans-32" transform="translate(692.089844 0.125)"/>
      <use xlink:href="#DejaVuSans-30" transform="translate(755.712891 0.125)"/>
      <use xlink:href="#DejaVuSans-29" transform="translate(819.335938 0.125)"/>
     </g>
    </g>
   </g>
  </g>
 </g>
 <defs>
  <clipPath id="p5924311065">
   <rect x="44.66" y="26.16" width="627.775" height="275.032"/>
  </clipPath>
 </defs>
</svg>
