<?xml version="1.0" encoding="utf-8" standalone="no"?>
<!DOCTYPE svg PUBLIC "-//W3C//DTD SVG 1.1//EN"
  "http://www.w3.org/Graphics/SVG/1.1/DTD/svg11.dtd">
<svg xmlns:xlink="http://www.w3.org/1999/xlink" width="571.104687pt" height="303.050531pt" viewBox="0 0 571.104687 303.050531" xmlns="http://www.w3.org/2000/svg" version="1.1">
 <metadata>
  <rdf:RDF xmlns:dc="http://purl.org/dc/elements/1.1/" xmlns:cc="http://creativecommons.org/ns#" xmlns:rdf="http://www.w3.org/1999/02/22-rdf-syntax-ns#">
   <cc:Work>
    <dc:type rdf:resource="http://purl.org/dc/dcmitype/StillImage"/>
    <dc:date>2026-07-01T02:06:21.900144</dc:date>
    <dc:format>image/svg+xml</dc:format>
    <dc:creator>
     <cc:Agent>
      <dc:title>Matplotlib v3.10.8, https://matplotlib.org/</dc:title>
     </cc:Agent>
    </dc:creator>
   </cc:Work>
  </rdf:RDF>
 </metadata>
 <defs>
  <style type="text/css">*{stroke-linejoin: round; stroke-linecap: butt}</style>
 </defs>
 <g id="figure_1">
  <g id="patch_1">
   <path d="M 0 303.050531 
L 571.104687 303.050531 
L 571.104687 0 
L 0 0 
L 0 303.050531 
z
" style="fill: none"/>
  </g>
  <g id="axes_1">
   <g id="patch_2">
    <path d="M 58.523438 265.494281 
L 560.723438 265.494281 
L 560.723438 21.558281 
L 58.523438 21.558281 
L 58.523438 265.494281 
z
" style="fill: none"/>
   </g>
   <g id="patch_3">
    <path d="M 393.323438 265.494281 
L 532.014338 265.494281 
L 532.014338 21.558281 
L 393.323438 21.558281 
z
" clip-path="url(#p9be2189995)" style="fill: #eef0f7; stroke: #eef0f7; stroke-linejoin: miter"/>
   </g>
   <g id="matplotlib.axis_1">
    <g id="xtick_1">
     <g id="line2d_1">
      <defs>
       <path id="mb5997a343a" d="M 0 0 
L 0 3.5 
" style="stroke: #000000; stroke-width: 0.8"/>
      </defs>
      <g>
       <use xlink:href="#mb5997a343a" x="58.523438" y="265.494281" style="stroke: #000000; stroke-width: 0.8"/>
      </g>
     </g>
     <g id="text_1">
      <!-- −4 -->
      <g transform="translate(51.152344 280.092719) scale(0.1 -0.1)">
       <defs>
        <path id="DejaVuSans-2212" d="M 678 2272 
L 4684 2272 
L 4684 1741 
L 678 1741 
L 678 2272 
z
" transform="scale(0.015625)"/>
        <path id="DejaVuSans-34" d="M 2419 4116 
L 825 1625 
L 2419 1625 
L 2419 4116 
z
M 2253 4666 
L 3047 4666 
L 3047 1625 
L 3713 1625 
L 3713 1100 
L 3047 1100 
L 3047 0 
L 2419 0 
L 2419 1100 
L 313 1100 
L 313 1709 
L 2253 4666 
z
" transform="scale(0.015625)"/>
       </defs>
       <use xlink:href="#DejaVuSans-2212"/>
       <use xlink:href="#DejaVuSans-34" transform="translate(83.789062 0)"/>
      </g>
     </g>
    </g>
    <g id="xtick_2">
     <g id="line2d_2">
      <g>
       <use xlink:href="#mb5997a343a" x="142.223437" y="265.494281" style="stroke: #000000; stroke-width: 0.8"/>
      </g>
     </g>
     <g id="text_2">
      <!-- −3 -->
      <g transform="translate(134.852344 280.092719) scale(0.1 -0.1)">
       <defs>
        <path id="DejaVuSans-33" d="M 2597 2516 
Q 3050 2419 3304 2112 
Q 3559 1806 3559 1356 
Q 3559 666 3084 287 
Q 2609 -91 1734 -91 
Q 1441 -91 1130 -33 
Q 819 25 488 141 
L 488 750 
Q 750 597 1062 519 
Q 1375 441 1716 441 
Q 2309 441 2620 675 
Q 2931 909 2931 1356 
Q 2931 1769 2642 2001 
Q 2353 2234 1838 2234 
L 1294 2234 
L 1294 2753 
L 1863 2753 
Q 2328 2753 2575 2939 
Q 2822 3125 2822 3475 
Q 2822 3834 2567 4026 
Q 2313 4219 1838 4219 
Q 1578 4219 1281 4162 
Q 984 4106 628 3988 
L 628 4550 
Q 988 4650 1302 4700 
Q 1616 4750 1894 4750 
Q 2613 4750 3031 4423 
Q 3450 4097 3450 3541 
Q 3450 3153 3228 2886 
Q 3006 2619 2597 2516 
z
" transform="scale(0.015625)"/>
       </defs>
       <use xlink:href="#DejaVuSans-2212"/>
       <use xlink:href="#DejaVuSans-33" transform="translate(83.789062 0)"/>
      </g>
     </g>
    </g>
    <g id="xtick_3">
     <g id="line2d_3">
      <g>
       <use xlink:href="#mb5997a343a" x="225.923438" y="265.494281" style="stroke: #000000; stroke-width: 0.8"/>
      </g>
     </g>
     <g id="text_3">
      <!-- −2 -->
      <g transform="translate(218.552344 280.092719) scale(0.1 -0.1)">
       <defs>
        <path id="DejaVuSans-32" d="M 1228 531 
L 3431 531 
L 3431 0 
L 469 0 
L 469 531 
Q 828 903 1448 1529 
Q 2069 2156 2228 2338 
Q 2531 2678 2651 2914 
Q 2772 3150 2772 3378 
Q 2772 3750 2511 3984 
Q 2250 4219 1831 4219 
Q 1534 4219 1204 4116 
Q 875 4013 500 3803 
L 500 4441 
Q 881 4594 1212 4672 
Q 1544 4750 1819 4750 
Q 2544 4750 2975 4387 
Q 3406 4025 3406 3419 
Q 3406 3131 3298 2873 
Q 3191 2616 2906 2266 
Q 2828 2175 2409 1742 
Q 1991 1309 1228 531 
z
" transform="scale(0.015625)"/>
       </defs>
       <use xlink:href="#DejaVuSans-2212"/>
       <use xlink:href="#DejaVuSans-32" transform="translate(83.789062 0)"/>
      </g>
     </g>
    </g>
    <g id="xtick_4">
     <g id="line2d_4">
      <g>
       <use xlink:href="#mb5997a343a" x="309.623438" y="265.494281" style="stroke: #000000; stroke-width: 0.8"/>
      </g>
     </g>
     <g id="text_4">
      <!-- −1 -->
      <g transform="translate(302.252344 280.092719) scale(0.1 -0.1)">
       <defs>
        <path id="DejaVuSans-31" d="M 794 531 
L 1825 531 
L 1825 4091 
L 703 3866 
L 703 4441 
L 1819 4666 
L 2450 4666 
L 2450 531 
L 3481 531 
L 3481 0 
L 794 0 
L 794 531 
z
" transform="scale(0.015625)"/>
       </defs>
       <use xlink:href="#DejaVuSans-2212"/>
       <use xlink:href="#DejaVuSans-31" transform="translate(83.789062 0)"/>
      </g>
     </g>
    </g>
    <g id="xtick_5">
     <g id="line2d_5">
      <g>
       <use xlink:href="#mb5997a343a" x="393.323438" y="265.494281" style="stroke: #000000; stroke-width: 0.8"/>
      </g>
     </g>
     <g id="text_5">
      <!-- 0 -->
      <g transform="translate(390.142188 280.092719) scale(0.1 -0.1)">
       <defs>
        <path id="DejaVuSans-30" d="M 2034 4250 
Q 1547 4250 1301 3770 
Q 1056 3291 1056 2328 
Q 1056 1369 1301 889 
Q 1547 409 2034 409 
Q 2525 409 2770 889 
Q 3016 1369 3016 2328 
Q 3016 3291 2770 3770 
Q 2525 4250 2034 4250 
z
M 2034 4750 
Q 2819 4750 3233 4129 
Q 3647 3509 3647 2328 
Q 3647 1150 3233 529 
Q 2819 -91 2034 -91 
Q 1250 -91 836 529 
Q 422 1150 422 2328 
Q 422 3509 836 4129 
Q 1250 4750 2034 4750 
z
" transform="scale(0.015625)"/>
       </defs>
       <use xlink:href="#DejaVuSans-30"/>
      </g>
     </g>
    </g>
    <g id="xtick_6">
     <g id="line2d_6">
      <g>
       <use xlink:href="#mb5997a343a" x="477.023438" y="265.494281" style="stroke: #000000; stroke-width: 0.8"/>
      </g>
     </g>
     <g id="text_6">
      <!-- 1 -->
      <g transform="translate(473.842188 280.092719) scale(0.1 -0.1)">
       <use xlink:href="#DejaVuSans-31"/>
      </g>
     </g>
    </g>
    <g id="xtick_7">
     <g id="line2d_7">
      <g>
       <use xlink:href="#mb5997a343a" x="560.723438" y="265.494281" style="stroke: #000000; stroke-width: 0.8"/>
      </g>
     </g>
     <g id="text_7">
      <!-- 2 -->
      <g transform="translate(557.542188 280.092719) scale(0.1 -0.1)">
       <use xlink:href="#DejaVuSans-32"/>
      </g>
     </g>
    </g>
    <g id="text_8">
     <!-- E − VBM (eV) -->
     <g transform="translate(275.94375 293.770844) scale(0.1 -0.1)">
      <defs>
       <path id="DejaVuSans-45" d="M 628 4666 
L 3578 4666 
L 3578 4134 
L 1259 4134 
L 1259 2753 
L 3481 2753 
L 3481 2222 
L 1259 2222 
L 1259 531 
L 3634 531 
L 3634 0 
L 628 0 
L 628 4666 
z
" transform="scale(0.015625)"/>
       <path id="DejaVuSans-20" transform="scale(0.015625)"/>
       <path id="DejaVuSans-56" d="M 1831 0 
L 50 4666 
L 709 4666 
L 2188 738 
L 3669 4666 
L 4325 4666 
L 2547 0 
L 1831 0 
z
" transform="scale(0.015625)"/>
       <path id="DejaVuSans-42" d="M 1259 2228 
L 1259 519 
L 2272 519 
Q 2781 519 3026 730 
Q 3272 941 3272 1375 
Q 3272 1813 3026 2020 
Q 2781 2228 2272 2228 
L 1259 2228 
z
M 1259 4147 
L 1259 2741 
L 2194 2741 
Q 2656 2741 2882 2914 
Q 3109 3088 3109 3444 
Q 3109 3797 2882 3972 
Q 2656 4147 2194 4147 
L 1259 4147 
z
M 628 4666 
L 2241 4666 
Q 2963 4666 3353 4366 
Q 3744 4066 3744 3513 
Q 3744 3084 3544 2831 
Q 3344 2578 2956 2516 
Q 3422 2416 3680 2098 
Q 3938 1781 3938 1306 
Q 3938 681 3513 340 
Q 3088 0 2303 0 
L 628 0 
L 628 4666 
z
" transform="scale(0.015625)"/>
       <path id="DejaVuSans-4d" d="M 628 4666 
L 1569 4666 
L 2759 1491 
L 3956 4666 
L 4897 4666 
L 4897 0 
L 4281 0 
L 4281 4097 
L 3078 897 
L 2444 897 
L 1241 4097 
L 1241 0 
L 628 0 
L 628 4666 
z
" transform="scale(0.015625)"/>
       <path id="DejaVuSans-28" d="M 1984 4856 
Q 1566 4138 1362 3434 
Q 1159 2731 1159 2009 
Q 1159 1288 1364 580 
Q 1569 -128 1984 -844 
L 1484 -844 
Q 1016 -109 783 600 
Q 550 1309 550 2009 
Q 550 2706 781 3412 
Q 1013 4119 1484 4856 
L 1984 4856 
z
" transform="scale(0.015625)"/>
       <path id="DejaVuSans-65" d="M 3597 1894 
L 3597 1613 
L 953 1613 
Q 991 1019 1311 708 
Q 1631 397 2203 397 
Q 2534 397 2845 478 
Q 3156 559 3463 722 
L 3463 178 
Q 3153 47 2828 -22 
Q 2503 -91 2169 -91 
Q 1331 -91 842 396 
Q 353 884 353 1716 
Q 353 2575 817 3079 
Q 1281 3584 2069 3584 
Q 2775 3584 3186 3129 
Q 3597 2675 3597 1894 
z
M 3022 2063 
Q 3016 2534 2758 2815 
Q 2500 3097 2075 3097 
Q 1594 3097 1305 2825 
Q 1016 2553 972 2059 
L 3022 2063 
z
" transform="scale(0.015625)"/>
       <path id="DejaVuSans-29" d="M 513 4856 
L 1013 4856 
Q 1481 4119 1714 3412 
Q 1947 2706 1947 2009 
Q 1947 1309 1714 600 
Q 1481 -109 1013 -844 
L 513 -844 
Q 928 -128 1133 580 
Q 1338 1288 1338 2009 
Q 1338 2731 1133 3434 
Q 928 4138 513 4856 
z
" transform="scale(0.015625)"/>
      </defs>
      <use xlink:href="#DejaVuSans-45"/>
      <use xlink:href="#DejaVuSans-20" transform="translate(63.183594 0)"/>
      <use xlink:href="#DejaVuSans-2212" transform="translate(94.970703 0)"/>
      <use xlink:href="#DejaVuSans-20" transform="translate(178.759766 0)"/>
      <use xlink:href="#DejaVuSans-56" transform="translate(210.546875 0)"/>
      <use xlink:href="#DejaVuSans-42" transform="translate(278.955078 0)"/>
      <use xlink:href="#DejaVuSans-4d" transform="translate(347.558594 0)"/>
      <use xlink:href="#DejaVuSans-20" transform="translate(433.837891 0)"/>
      <use xlink:href="#DejaVuSans-28" transform="translate(465.625 0)"/>
      <use xlink:href="#DejaVuSans-65" transform="translate(504.638672 0)"/>
      <use xlink:href="#DejaVuSans-56" transform="translate(566.162109 0)"/>
      <use xlink:href="#DejaVuSans-29" transform="translate(634.570312 0)"/>
     </g>
    </g>
   </g>
   <g id="matplotlib.axis_2">
    <g id="ytick_1">
     <g id="line2d_8">
      <defs>
       <path id="m327bb0fd0c" d="M 0 0 
L -3.5 0 
" style="stroke: #000000; stroke-width: 0.8"/>
      </defs>
      <g>
       <use xlink:href="#m327bb0fd0c" x="58.523438" y="241.008628" style="stroke: #000000; stroke-width: 0.8"/>
      </g>
     </g>
     <g id="text_9">
      <!-- −0.10 -->
      <g transform="translate(20.878125 244.807847) scale(0.1 -0.1)">
       <defs>
        <path id="DejaVuSans-2e" d="M 684 794 
L 1344 794 
L 1344 0 
L 684 0 
L 684 794 
z
" transform="scale(0.015625)"/>
       </defs>
       <use xlink:href="#DejaVuSans-2212"/>
       <use xlink:href="#DejaVuSans-30" transform="translate(83.789062 0)"/>
       <use xlink:href="#DejaVuSans-2e" transform="translate(147.412109 0)"/>
       <use xlink:href="#DejaVuSans-31" transform="translate(179.199219 0)"/>
       <use xlink:href="#DejaVuSans-30" transform="translate(242.822266 0)"/>
      </g>
     </g>
    </g>
    <g id="ytick_2">
     <g id="line2d_9">
      <g>
       <use xlink:href="#m327bb0fd0c" x="58.523438" y="188.130391" style="stroke: #000000; stroke-width: 0.8"/>
      </g>
     </g>
     <g id="text_10">
      <!-- −0.05 -->
      <g transform="translate(20.878125 191.92961) scale(0.1 -0.1)">
       <defs>
        <path id="DejaVuSans-35" d="M 691 4666 
L 3169 4666 
L 3169 4134 
L 1269 4134 
L 1269 2991 
Q 1406 3038 1543 3061 
Q 1681 3084 1819 3084 
Q 2600 3084 3056 2656 
Q 3513 2228 3513 1497 
Q 3513 744 3044 326 
Q 2575 -91 1722 -91 
Q 1428 -91 1123 -41 
Q 819 9 494 109 
L 494 744 
Q 775 591 1075 516 
Q 1375 441 1709 441 
Q 2250 441 2565 725 
Q 2881 1009 2881 1497 
Q 2881 1984 2565 2268 
Q 2250 2553 1709 2553 
Q 1456 2553 1204 2497 
Q 953 2441 691 2322 
L 691 4666 
z
" transform="scale(0.015625)"/>
       </defs>
       <use xlink:href="#DejaVuSans-2212"/>
       <use xlink:href="#DejaVuSans-30" transform="translate(83.789062 0)"/>
       <use xlink:href="#DejaVuSans-2e" transform="translate(147.412109 0)"/>
       <use xlink:href="#DejaVuSans-30" transform="translate(179.199219 0)"/>
       <use xlink:href="#DejaVuSans-35" transform="translate(242.822266 0)"/>
      </g>
     </g>
    </g>
    <g id="ytick_3">
     <g id="line2d_10">
      <g>
       <use xlink:href="#m327bb0fd0c" x="58.523438" y="135.252154" style="stroke: #000000; stroke-width: 0.8"/>
      </g>
     </g>
     <g id="text_11">
      <!-- 0.00 -->
      <g transform="translate(29.257812 139.051373) scale(0.1 -0.1)">
       <use xlink:href="#DejaVuSans-30"/>
       <use xlink:href="#DejaVuSans-2e" transform="translate(63.623047 0)"/>
       <use xlink:href="#DejaVuSans-30" transform="translate(95.410156 0)"/>
       <use xlink:href="#DejaVuSans-30" transform="translate(159.033203 0)"/>
      </g>
     </g>
    </g>
    <g id="ytick_4">
     <g id="line2d_11">
      <g>
       <use xlink:href="#m327bb0fd0c" x="58.523438" y="82.373917" style="stroke: #000000; stroke-width: 0.8"/>
      </g>
     </g>
     <g id="text_12">
      <!-- 0.05 -->
      <g transform="translate(29.257812 86.173135) scale(0.1 -0.1)">
       <use xlink:href="#DejaVuSans-30"/>
       <use xlink:href="#DejaVuSans-2e" transform="translate(63.623047 0)"/>
       <use xlink:href="#DejaVuSans-30" transform="translate(95.410156 0)"/>
       <use xlink:href="#DejaVuSans-35" transform="translate(159.033203 0)"/>
      </g>
     </g>
    </g>
    <g id="ytick_5">
     <g id="line2d_12">
      <g>
       <use xlink:href="#m327bb0fd0c" x="58.523438" y="29.49568" style="stroke: #000000; stroke-width: 0.8"/>
      </g>
     </g>
     <g id="text_13">
      <!-- 0.10 -->
      <g transform="translate(29.257812 33.294898) scale(0.1 -0.1)">
       <use xlink:href="#DejaVuSans-30"/>
       <use xlink:href="#DejaVuSans-2e" transform="translate(63.623047 0)"/>
       <use xlink:href="#DejaVuSans-31" transform="translate(95.410156 0)"/>
       <use xlink:href="#DejaVuSans-30" transform="translate(159.033203 0)"/>
      </g>
     </g>
    </g>
    <g id="text_14">
     <!-- defect ΔDOS -->
     <g transform="translate(14.798437 175.292687) rotate(-90) scale(0.1 -0.1)">
      <defs>
       <path id="DejaVuSans-64" d="M 2906 2969 
L 2906 4863 
L 3481 4863 
L 3481 0 
L 2906 0 
L 2906 525 
Q 2725 213 2448 61 
Q 2172 -91 1784 -91 
Q 1150 -91 751 415 
Q 353 922 353 1747 
Q 353 2572 751 3078 
Q 1150 3584 1784 3584 
Q 2172 3584 2448 3432 
Q 2725 3281 2906 2969 
z
M 947 1747 
Q 947 1113 1208 752 
Q 1469 391 1925 391 
Q 2381 391 2643 752 
Q 2906 1113 2906 1747 
Q 2906 2381 2643 2742 
Q 2381 3103 1925 3103 
Q 1469 3103 1208 2742 
Q 947 2381 947 1747 
z
" transform="scale(0.015625)"/>
       <path id="DejaVuSans-66" d="M 2375 4863 
L 2375 4384 
L 1825 4384 
Q 1516 4384 1395 4259 
Q 1275 4134 1275 3809 
L 1275 3500 
L 2222 3500 
L 2222 3053 
L 1275 3053 
L 1275 0 
L 697 0 
L 697 3053 
L 147 3053 
L 147 3500 
L 697 3500 
L 697 3744 
Q 697 4328 969 4595 
Q 1241 4863 1831 4863 
L 2375 4863 
z
" transform="scale(0.015625)"/>
       <path id="DejaVuSans-63" d="M 3122 3366 
L 3122 2828 
Q 2878 2963 2633 3030 
Q 2388 3097 2138 3097 
Q 1578 3097 1268 2742 
Q 959 2388 959 1747 
Q 959 1106 1268 751 
Q 1578 397 2138 397 
Q 2388 397 2633 464 
Q 2878 531 3122 666 
L 3122 134 
Q 2881 22 2623 -34 
Q 2366 -91 2075 -91 
Q 1284 -91 818 406 
Q 353 903 353 1747 
Q 353 2603 823 3093 
Q 1294 3584 2113 3584 
Q 2378 3584 2631 3529 
Q 2884 3475 3122 3366 
z
" transform="scale(0.015625)"/>
       <path id="DejaVuSans-74" d="M 1172 4494 
L 1172 3500 
L 2356 3500 
L 2356 3053 
L 1172 3053 
L 1172 1153 
Q 1172 725 1289 603 
Q 1406 481 1766 481 
L 2356 481 
L 2356 0 
L 1766 0 
Q 1100 0 847 248 
Q 594 497 594 1153 
L 594 3053 
L 172 3053 
L 172 3500 
L 594 3500 
L 594 4494 
L 1172 4494 
z
" transform="scale(0.015625)"/>
       <path id="DejaVuSans-394" d="M 2188 4044 
L 906 525 
L 3472 525 
L 2188 4044 
z
M 50 0 
L 1831 4666 
L 2547 4666 
L 4325 0 
L 50 0 
z
" transform="scale(0.015625)"/>
       <path id="DejaVuSans-44" d="M 1259 4147 
L 1259 519 
L 2022 519 
Q 2988 519 3436 956 
Q 3884 1394 3884 2338 
Q 3884 3275 3436 3711 
Q 2988 4147 2022 4147 
L 1259 4147 
z
M 628 4666 
L 1925 4666 
Q 3281 4666 3915 4102 
Q 4550 3538 4550 2338 
Q 4550 1131 3912 565 
Q 3275 0 1925 0 
L 628 0 
L 628 4666 
z
" transform="scale(0.015625)"/>
       <path id="DejaVuSans-4f" d="M 2522 4238 
Q 1834 4238 1429 3725 
Q 1025 3213 1025 2328 
Q 1025 1447 1429 934 
Q 1834 422 2522 422 
Q 3209 422 3611 934 
Q 4013 1447 4013 2328 
Q 4013 3213 3611 3725 
Q 3209 4238 2522 4238 
z
M 2522 4750 
Q 3503 4750 4090 4092 
Q 4678 3434 4678 2328 
Q 4678 1225 4090 567 
Q 3503 -91 2522 -91 
Q 1538 -91 948 565 
Q 359 1222 359 2328 
Q 359 3434 948 4092 
Q 1538 4750 2522 4750 
z
" transform="scale(0.015625)"/>
       <path id="DejaVuSans-53" d="M 3425 4513 
L 3425 3897 
Q 3066 4069 2747 4153 
Q 2428 4238 2131 4238 
Q 1616 4238 1336 4038 
Q 1056 3838 1056 3469 
Q 1056 3159 1242 3001 
Q 1428 2844 1947 2747 
L 2328 2669 
Q 3034 2534 3370 2195 
Q 3706 1856 3706 1288 
Q 3706 609 3251 259 
Q 2797 -91 1919 -91 
Q 1588 -91 1214 -16 
Q 841 59 441 206 
L 441 856 
Q 825 641 1194 531 
Q 1563 422 1919 422 
Q 2459 422 2753 634 
Q 3047 847 3047 1241 
Q 3047 1584 2836 1778 
Q 2625 1972 2144 2069 
L 1759 2144 
Q 1053 2284 737 2584 
Q 422 2884 422 3419 
Q 422 4038 858 4394 
Q 1294 4750 2059 4750 
Q 2388 4750 2728 4690 
Q 3069 4631 3425 4513 
z
" transform="scale(0.015625)"/>
      </defs>
      <use xlink:href="#DejaVuSans-64"/>
      <use xlink:href="#DejaVuSans-65" transform="translate(63.476562 0)"/>
      <use xlink:href="#DejaVuSans-66" transform="translate(125 0)"/>
      <use xlink:href="#DejaVuSans-65" transform="translate(160.205078 0)"/>
      <use xlink:href="#DejaVuSans-63" transform="translate(221.728516 0)"/>
      <use xlink:href="#DejaVuSans-74" transform="translate(276.708984 0)"/>
      <use xlink:href="#DejaVuSans-20" transform="translate(315.917969 0)"/>
      <use xlink:href="#DejaVuSans-394" transform="translate(347.705078 0)"/>
      <use xlink:href="#DejaVuSans-44" transform="translate(416.113281 0)"/>
      <use xlink:href="#DejaVuSans-4f" transform="translate(493.115234 0)"/>
      <use xlink:href="#DejaVuSans-53" transform="translate(571.826172 0)"/>
     </g>
    </g>
   </g>
   <g id="line2d_13">
    <path d="M -1 60.799588 
L -0.065726 49.73658 
L 1.253386 48.239471 
L 2.571662 63.125001 
L 3.890774 85.967828 
L 5.209885 112.815548 
L 6.528997 142.023633 
L 7.848109 159.03615 
L 9.167221 149.326395 
L 11.804609 95.38228 
L 13.12372 80.82762 
L 14.442832 89.223658 
L 15.761944 117.823741 
L 17.081056 156.195986 
L 18.400168 189.850816 
L 19.71928 198.455882 
L 21.037556 171.425225 
L 22.356667 128.407361 
L 23.675779 98.686684 
L 24.994891 98.653973 
L 26.314003 126.372682 
L 27.633115 167.268996 
L 28.952227 197.823035 
L 30.270502 196.679342 
L 31.589614 166.701369 
L 32.908726 126.497031 
L 34.227838 90.481483 
L 35.54695 70.579659 
L 36.866062 70.676172 
L 38.185175 80.908248 
L 39.503449 92.751799 
L 40.822561 108.020126 
L 42.141673 131.656401 
L 43.460785 157.340155 
L 44.779898 165.262341 
L 46.09901 144.568418 
L 47.418122 115.531448 
L 48.736396 100.422348 
L 50.055508 98.937274 
L 51.37462 106.327557 
L 52.693733 119.265942 
L 54.012677 128.938899 
L 55.331622 135.210819 
L 57.969678 160.905756 
L 59.288623 160.674508 
L 60.607651 150.36082 
L 61.926596 148.308467 
L 63.245624 160.555829 
L 64.564569 180.199734 
L 67.202542 235.577303 
L 68.52157 242.377751 
L 69.840598 220.764851 
L 71.159543 195.506619 
L 72.478571 187.614067 
L 73.797516 189.711535 
L 75.116544 172.80779 
L 77.754517 89.215229 
L 79.073462 69.20309 
L 80.39249 83.549262 
L 83.030463 152.399487 
L 84.349491 180.391978 
L 85.668436 195.293943 
L 86.987464 182.518212 
L 89.625437 115.035196 
L 90.944381 100.599469 
L 92.26341 104.150095 
L 93.582438 116.107969 
L 94.901383 129.846078 
L 96.220411 127.152415 
L 97.539355 106.116414 
L 98.858384 88.254135 
L 100.177328 81.860247 
L 101.496357 80.199119 
L 102.815301 81.177557 
L 104.13433 88.730558 
L 105.453358 102.622855 
L 108.091331 132.69303 
L 109.410275 145.580191 
L 110.729304 154.042943 
L 112.048248 152.530943 
L 113.367277 144.204563 
L 114.686221 144.172048 
L 116.00525 156.409699 
L 117.324278 172.427987 
L 118.643222 182.605599 
L 119.962251 187.484462 
L 121.281195 203.716251 
L 122.600224 233.489438 
L 123.919168 254.28445 
L 125.238196 246.366886 
L 126.557141 211.399068 
L 127.876169 173.392761 
L 129.195198 146.240812 
L 130.514142 132.289444 
L 131.833171 132.440905 
L 133.152115 134.806188 
L 134.471143 128.030408 
L 137.109116 101.801582 
L 138.428061 102.550253 
L 139.747089 116.765245 
L 141.066034 122.687491 
L 142.385062 116.005554 
L 143.70409 113.338947 
L 145.023035 127.048643 
L 146.342063 153.699562 
L 147.661008 173.774965 
L 148.980036 182.262377 
L 150.298981 182.014251 
L 151.618009 168.089719 
L 152.936954 152.91597 
L 154.255982 145.578807 
L 155.57501 136.989948 
L 158.212983 101.188501 
L 159.531928 92.382001 
L 160.850956 91.671613 
L 162.169901 91.932472 
L 163.488929 90.231993 
L 164.807874 91.127845 
L 166.126902 104.404661 
L 167.44593 127.920627 
L 168.764875 137.365611 
L 170.083903 121.344183 
L 171.402848 102.678726 
L 172.721876 103.121074 
L 174.040821 122.151846 
L 175.359849 147.676054 
L 176.678794 160.85237 
L 177.997822 146.961838 
L 179.31685 118.726245 
L 180.635795 101.889497 
L 181.954823 108.625191 
L 183.273768 129.715821 
L 184.592796 143.557822 
L 185.911741 140.294893 
L 187.230769 122.453579 
L 188.549713 100.043433 
L 189.868742 88.32826 
L 191.18777 98.510906 
L 192.506715 126.224575 
L 193.825743 159.75283 
L 195.144688 187.376368 
L 196.463716 193.325572 
L 197.78266 175.06696 
L 199.101689 154.468084 
L 200.420633 143.650449 
L 201.739662 141.23043 
L 203.05869 150.876869 
L 204.377635 166.586433 
L 205.696663 172.622547 
L 207.015607 161.902246 
L 208.334636 140.50996 
L 209.65358 122.893029 
L 210.972609 110.088342 
L 212.291553 95.693352 
L 213.610582 77.392216 
L 214.92961 64.935806 
L 216.248555 73.821369 
L 217.567583 102.256969 
L 218.886527 137.085196 
L 220.205556 167.925056 
L 221.5245 184.060448 
L 222.843529 180.785308 
L 224.162473 172.460296 
L 225.481502 172.520979 
L 226.80053 174.706288 
L 228.119474 172.13354 
L 229.438503 158.672824 
L 230.757447 134.057225 
L 232.076476 112.112764 
L 233.39542 99.89401 
L 234.714448 98.116233 
L 236.033393 104.063258 
L 237.352421 111.806419 
L 238.671366 126.788711 
L 239.990394 149.107489 
L 241.309423 163.783685 
L 242.628367 166.406996 
L 243.947395 164.036422 
L 245.26634 164.624819 
L 246.585368 163.938291 
L 249.223341 144.405226 
L 250.542286 139.075942 
L 251.861314 135.579913 
L 253.180342 141.391169 
L 254.499287 160.310125 
L 255.818315 187.715699 
L 257.13726 204.546323 
L 258.456288 191.628191 
L 259.775233 164.446525 
L 261.094261 139.742185 
L 262.413206 119.77738 
L 263.732234 107.675942 
L 265.051262 111.731745 
L 266.370207 129.033962 
L 267.689235 136.037171 
L 269.00818 120.750985 
L 270.327208 100.430365 
L 271.646153 88.993003 
L 272.965181 83.738651 
L 274.284126 82.366186 
L 275.603154 92.67207 
L 276.922182 120.337847 
L 278.241127 151.637628 
L 279.560155 169.893755 
L 280.8791 177.695008 
L 282.198128 182.218255 
L 283.517073 185.614698 
L 284.836101 186.166144 
L 286.155046 176.340427 
L 287.474074 155.874761 
L 290.112047 109.400407 
L 291.431075 95.040073 
L 292.75002 95.40892 
L 295.387993 124.723653 
L 296.707021 117.781385 
L 298.025965 98.639865 
L 299.344994 97.521808 
L 300.664022 126.241543 
L 301.982967 162.830227 
L 303.301995 178.294722 
L 305.939968 164.824012 
L 307.258912 169.586543 
L 309.896885 203.312547 
L 311.215914 206.691107 
L 312.534942 194.167425 
L 313.853887 173.35656 
L 315.172915 158.285047 
L 316.491859 151.443184 
L 317.810888 148.930241 
L 319.129832 148.490643 
L 321.767805 150.601099 
L 323.086834 147.860663 
L 324.405862 142.491098 
L 325.724806 139.597912 
L 327.043835 138.949092 
L 328.362779 144.182183 
L 329.681808 161.01901 
L 331.000752 174.084091 
L 332.319781 163.010436 
L 333.638725 137.272419 
L 334.957753 115.742781 
L 336.276782 109.374084 
L 337.595726 113.961186 
L 338.914755 120.301689 
L 340.233699 123.079732 
L 341.552728 121.467041 
L 342.871672 119.011428 
L 344.1907 118.129197 
L 345.509645 121.143658 
L 346.828673 133.38953 
L 349.466646 176.105044 
L 350.785675 188.574663 
L 352.104619 175.917496 
L 353.423648 141.966853 
L 354.742592 114.167634 
L 356.06162 106.539557 
L 357.380565 110.975385 
L 358.699593 117.487118 
L 360.018538 122.453516 
L 361.337566 125.59856 
L 362.656594 127.726331 
L 363.975539 130.632387 
L 365.294567 136.707743 
L 366.613512 143.826901 
L 367.93254 144.992825 
L 369.251485 139.511503 
L 370.570513 133.395482 
L 371.889458 132.142265 
L 373.208486 135.80837 
L 374.527514 142.345721 
L 375.846459 144.487112 
L 377.165487 135.757736 
L 378.484432 126.132668 
L 379.80346 123.616425 
L 381.122405 125.047147 
L 382.441433 126.814243 
L 383.760378 127.790973 
L 385.079406 128.056694 
L 386.398434 128.467106 
L 387.717379 130.453442 
L 389.036407 133.581131 
L 390.355352 135.152731 
L 391.67438 135.335572 
L 392.993325 135.867287 
L 394.312353 136.549801 
L 395.631298 136.421692 
L 399.588299 134.334052 
L 406.183273 131.629172 
L 407.502217 130.851135 
L 408.821246 129.859518 
L 410.140274 128.554007 
L 411.459219 126.783481 
L 412.778247 124.31484 
L 414.097192 120.790601 
L 415.41622 115.700373 
L 416.735164 108.50209 
L 419.373137 90.88892 
L 420.692166 88.664428 
L 422.011194 94.625593 
L 423.330139 103.974603 
L 424.649167 112.263065 
L 425.968112 118.340467 
L 427.28714 122.556702 
L 428.606084 125.474296 
L 429.925113 127.527304 
L 431.244057 129.004686 
L 432.563086 130.092231 
L 433.882114 130.909708 
L 435.201058 131.535592 
L 437.839031 132.405976 
L 440.477004 132.956547 
L 444.434006 133.442814 
L 448.391007 133.690496 
L 453.666952 133.793011 
L 458.942898 133.693444 
L 464.218844 133.371735 
L 468.175845 132.918343 
L 470.813818 132.457754 
L 473.451791 131.801753 
L 476.089764 130.843971 
L 477.408792 130.197289 
L 478.727737 129.392777 
L 480.046765 128.378404 
L 481.36571 127.079576 
L 482.684738 125.387039 
L 484.003766 123.137221 
L 485.322711 120.080087 
L 486.641739 115.827397 
L 487.960684 109.776085 
L 489.279712 101.026926 
L 490.598657 88.447363 
L 491.917685 71.475733 
L 493.23663 52.937332 
L 494.555658 42.33533 
L 495.874686 48.440778 
L 498.512659 84.00227 
L 499.831604 97.962389 
L 501.150632 107.791417 
L 502.469577 114.599913 
L 503.788605 119.37926 
L 505.10755 122.81441 
L 506.426578 125.349347 
L 507.745606 127.269923 
L 509.064551 128.762838 
L 510.383579 129.952945 
L 511.702524 130.926167 
L 514.340497 132.451127 
L 518.297498 134.251373 
L 520.935471 135.504484 
L 522.254499 136.279046 
L 523.573444 137.25613 
L 524.892472 138.563152 
L 526.211416 140.376173 
L 527.530445 142.851487 
L 528.849389 145.742569 
L 530.168418 147.2628 
L 531.487446 143.455963 
L 532.806391 134.161938 
L 534.125419 127.803328 
L 535.444364 128.014535 
L 539.401365 137.371974 
L 542.039338 142.948246 
L 543.358282 146.354765 
L 544.67731 150.821707 
L 545.996339 157.047537 
L 547.315283 165.918771 
L 548.634312 178.026174 
L 549.953256 191.531667 
L 551.272285 197.945395 
L 552.591229 185.02923 
L 555.229202 122.980384 
L 556.54823 105.798606 
L 557.867259 111.889227 
L 559.186203 133.163131 
L 561.824176 182.516996 
L 563.143205 195.593752 
L 564.462149 194.967124 
L 565.781177 196.858631 
L 567.100122 205.063663 
L 568.41915 202.770112 
L 569.738179 184.529457 
L 571.057123 164.733072 
L 572.104687 169.262958 
L 572.104687 169.262958 
" clip-path="url(#p9be2189995)" style="fill: none; stroke: #7a3bb0; stroke-width: 1.6; stroke-linecap: square"/>
   </g>
   <g id="line2d_14">
    <path d="M -1 54.752406 
L -0.626515 50.139893 
L 0.692597 47.580238 
L 2.010872 61.576599 
L 3.329984 83.897772 
L 4.649095 110.489254 
L 5.968207 140.165754 
L 7.287319 158.93988 
L 8.606431 150.990409 
L 11.243819 97.339685 
L 12.562931 81.299558 
L 13.882042 88.382978 
L 15.201154 116.571944 
L 16.520266 154.892506 
L 17.839379 189.087339 
L 19.158491 199.241938 
L 20.477603 173.566297 
L 21.795877 130.442619 
L 23.114989 99.59767 
L 24.434101 98.53689 
L 25.753214 125.957037 
L 27.072326 166.9878 
L 28.391438 197.877986 
L 29.71055 197.129104 
L 31.029662 167.370469 
L 32.347937 127.162784 
L 33.667049 90.796087 
L 34.986161 70.114542 
L 36.305273 69.462214 
L 37.624385 79.299862 
L 38.943497 90.948398 
L 40.262609 106.142727 
L 41.58172 129.887266 
L 42.899995 156.358809 
L 44.219108 166.392613 
L 45.53822 147.303442 
L 46.857332 117.15297 
L 48.176444 100.025783 
L 49.495555 97.681098 
L 50.814667 105.540623 
L 52.13378 119.861583 
L 53.452389 131.136275 
L 54.771418 137.446989 
L 56.090446 148.523238 
L 57.409474 160.702788 
L 58.728419 160.300892 
L 60.047447 149.903592 
L 61.366475 147.220593 
L 62.68542 158.501192 
L 64.004448 177.171979 
L 65.323477 204.085352 
L 66.642505 233.780395 
L 67.961449 243.944851 
L 69.280478 224.396824 
L 70.599506 198.515021 
L 71.918534 189.006848 
L 73.237479 190.613447 
L 74.556507 175.077398 
L 77.19448 90.925153 
L 78.513509 68.49247 
L 79.832537 80.925148 
L 82.47051 153.7629 
L 83.789538 181.79212 
L 85.108566 195.185765 
L 86.427595 181.992761 
L 89.065568 114.830388 
L 90.384596 98.902924 
L 91.703624 102.181078 
L 93.022569 114.333407 
L 94.341597 129.198329 
L 95.660625 129.380968 
L 98.298598 89.843274 
L 99.617627 82.107283 
L 100.936655 80.111172 
L 102.255599 81.045573 
L 103.574628 88.544807 
L 104.893656 102.55553 
L 107.531629 133.3306 
L 108.850657 146.330726 
L 110.169686 153.935791 
L 111.48863 150.477786 
L 112.807658 141.191835 
L 114.126687 141.786048 
L 115.445715 154.611416 
L 116.76466 171.150724 
L 118.083688 182.276971 
L 119.402716 186.987449 
L 120.721744 201.336149 
L 122.040689 230.976114 
L 123.359717 254.406281 
L 124.678746 249.859493 
L 125.997774 217.050535 
L 127.316719 177.865001 
L 128.635747 148.166394 
L 129.954775 132.199574 
L 131.27372 131.854763 
L 132.592748 135.090682 
L 133.911776 128.980634 
L 136.549749 100.53702 
L 137.868778 98.645682 
L 139.187806 113.315755 
L 140.506834 123.423927 
L 141.825779 118.722152 
L 143.144807 114.479636 
L 144.463835 125.019125 
L 145.78278 149.864071 
L 147.101808 170.470985 
L 148.420837 179.853456 
L 149.739865 183.13841 
L 151.05881 173.23659 
L 152.377838 157.951353 
L 153.696866 149.597438 
L 155.015894 139.706793 
L 157.653867 101.175133 
L 158.972896 91.663153 
L 160.29184 90.854571 
L 161.610869 91.532396 
L 162.929897 89.95692 
L 164.248925 89.543698 
L 165.56787 100.105502 
L 166.886898 123.613823 
L 168.205926 138.486479 
L 169.524955 127.190058 
L 170.843899 107.34284 
L 172.162927 103.449913 
L 173.481956 118.032377 
L 174.800984 141.867379 
L 176.119929 159.346757 
L 177.438957 151.733274 
L 178.757985 125.068815 
L 180.07693 105.806876 
L 181.395958 108.719547 
L 182.714986 126.185853 
L 184.034015 138.950538 
L 185.352959 138.822703 
L 186.671988 124.644906 
L 187.991016 102.710517 
L 189.310044 87.823104 
L 190.628989 93.424971 
L 191.948017 118.243763 
L 194.58599 182.147567 
L 195.905018 196.851789 
L 197.224047 185.134585 
L 198.543075 162.3629 
L 199.86202 145.508392 
L 201.181048 137.906262 
L 202.500076 145.11695 
L 203.819105 163.166956 
L 205.138049 174.4324 
L 206.457077 168.830659 
L 209.095134 125.914283 
L 211.733107 96.973746 
L 213.052135 79.253371 
L 214.37108 64.741774 
L 215.690108 69.626052 
L 217.009136 95.658336 
L 219.647109 163.054981 
L 220.966138 184.24567 
L 222.285166 185.970082 
L 223.604194 177.30831 
L 224.923139 173.238505 
L 226.242167 172.359552 
L 227.561195 170.153377 
L 228.88014 160.344591 
L 231.518197 114.784976 
L 232.837225 100.70035 
L 234.15617 97.090575 
L 235.475198 102.657131 
L 236.794226 110.618235 
L 238.113254 123.809853 
L 239.432199 146.089929 
L 240.751227 163.848229 
L 242.070256 168.034704 
L 243.389284 164.062512 
L 244.708228 162.911776 
L 246.027257 164.008048 
L 247.346285 155.660562 
L 248.66523 144.685615 
L 249.984258 138.839357 
L 251.303286 134.73979 
L 252.622315 137.964354 
L 253.941259 154.85915 
L 255.260288 181.417869 
L 256.579316 203.582713 
L 257.898344 197.944613 
L 260.536317 145.885386 
L 261.855345 124.47724 
L 263.17429 109.00254 
L 264.493318 106.98679 
L 265.812347 121.834354 
L 267.131375 135.205068 
L 268.450319 126.769733 
L 269.769348 106.271284 
L 271.088376 92.278285 
L 272.407404 85.843808 
L 273.726349 83.142883 
L 275.045377 89.769435 
L 276.364406 113.655138 
L 277.683434 145.130395 
L 279.002378 165.563123 
L 280.321407 174.353336 
L 281.640435 179.655871 
L 282.95938 184.013683 
L 284.278408 186.687492 
L 285.597436 180.66061 
L 286.916465 162.559015 
L 289.554437 115.288504 
L 290.873466 97.615233 
L 292.192494 92.830979 
L 293.511439 103.92808 
L 294.830467 121.496377 
L 296.149495 123.008854 
L 297.46844 105.226114 
L 298.787468 95.462539 
L 300.106496 115.49033 
L 301.425525 152.928079 
L 302.744469 176.886215 
L 304.063498 175.184572 
L 305.382526 166.28159 
L 306.701554 166.531894 
L 308.020499 180.387748 
L 309.339527 199.173355 
L 310.658555 207.173674 
L 311.9775 199.12458 
L 313.296528 179.26436 
L 314.615557 162.060711 
L 315.934585 153.436694 
L 317.25353 150.065971 
L 318.572558 149.182069 
L 319.891586 149.932443 
L 321.210614 151.137062 
L 322.529559 149.004578 
L 323.848587 143.539677 
L 325.167616 140.560899 
L 326.486644 140.212856 
L 327.805589 143.865029 
L 330.443645 172.917259 
L 331.76259 165.224924 
L 334.400646 118.194872 
L 335.719675 108.941878 
L 337.038619 112.192346 
L 338.357648 118.886974 
L 339.676676 122.952538 
L 340.995704 122.297366 
L 342.314649 119.58484 
L 343.633677 118.136431 
L 344.952705 120.110238 
L 346.27165 130.732687 
L 348.909707 173.847778 
L 350.228735 188.17943 
L 351.547679 179.919744 
L 354.185736 116.70949 
L 355.504764 105.938331 
L 356.823709 109.361065 
L 358.142737 116.075322 
L 359.461766 121.479435 
L 360.780794 124.972001 
L 362.099738 127.247179 
L 363.418767 129.931265 
L 364.737795 135.464758 
L 366.05674 142.73816 
L 367.375768 145.257229 
L 368.694796 141.253909 
L 370.013825 134.922887 
L 371.332769 132.378793 
L 372.651797 135.21327 
L 373.970826 141.444185 
L 375.289854 144.484442 
L 376.608799 137.234825 
L 377.927827 127.080839 
L 379.246855 123.266487 
L 380.5658 124.275118 
L 381.884828 126.155807 
L 383.203856 127.324275 
L 384.522885 127.638287 
L 385.841829 127.722929 
L 387.160858 129.078055 
L 388.479886 132.453885 
L 389.798914 135.166968 
L 391.117859 135.63324 
L 392.436887 135.71622 
L 393.755915 136.38301 
L 395.074944 136.598706 
L 396.393888 136.007705 
L 399.031945 134.411317 
L 402.988946 132.588253 
L 405.626919 131.19185 
L 406.945947 130.257462 
L 408.264976 129.050842 
L 409.584004 127.437631 
L 410.902949 125.213359 
L 412.221977 122.063592 
L 413.541005 117.524376 
L 414.85995 111.027724 
L 417.498006 93.165614 
L 418.817035 88.423261 
L 420.135979 92.111084 
L 422.774036 109.909254 
L 424.093064 116.675775 
L 425.412009 121.413623 
L 426.731037 124.684853 
L 428.050065 126.97257 
L 429.36901 128.607288 
L 430.688038 129.802588 
L 432.007067 130.695748 
L 433.326095 131.376191 
L 435.964068 132.317564 
L 438.602124 132.911019 
L 441.240097 133.297227 
L 445.197098 133.641723 
L 450.473128 133.836211 
L 455.749157 133.826941 
L 461.025187 133.630263 
L 466.301216 133.185541 
L 470.258218 132.586817 
L 472.896274 131.976238 
L 475.534247 131.091864 
L 476.853275 130.498818 
L 478.172304 129.765051 
L 479.491248 128.845549 
L 480.810277 127.67633 
L 482.129305 126.164536 
L 483.44825 124.172418 
L 484.767278 121.491195 
L 486.086306 117.798412 
L 487.405334 112.591862 
L 488.724279 105.103521 
L 490.043307 94.265926 
L 491.362336 79.082913 
L 492.681364 60.452048 
L 494.000309 45.028947 
L 495.319337 43.857927 
L 496.638365 58.011697 
L 497.95731 76.825974 
L 499.276338 92.670547 
L 500.595366 104.112742 
L 501.914395 112.049871 
L 503.233339 117.579538 
L 504.552368 121.512442 
L 505.871396 124.382599 
L 507.190424 126.533499 
L 508.509369 128.187793 
L 509.828397 129.492812 
L 511.147425 130.548679 
L 513.785398 132.174966 
L 516.423455 133.44161 
L 520.380456 135.234548 
L 521.699484 135.954339 
L 523.018429 136.838124 
L 524.337457 137.994306 
L 525.656486 139.580676 
L 526.975514 141.781285 
L 528.294458 144.598657 
L 529.613487 147.058616 
L 530.932515 145.897304 
L 532.25146 138.168347 
L 533.570488 129.560665 
L 534.889516 127.370665 
L 536.208545 129.799926 
L 538.846517 136.308306 
L 541.484574 141.896858 
L 542.803519 145.089113 
L 544.122547 149.149559 
L 545.441575 154.709061 
L 546.76052 162.602555 
L 548.079548 173.611497 
L 549.398576 187.00364 
L 550.717605 196.692837 
L 552.036549 190.347417 
L 553.355578 164.831817 
L 554.674606 134.08065 
L 555.993634 111.541182 
L 557.312579 108.114598 
L 558.631607 123.896785 
L 561.269664 173.535574 
L 562.588608 192.598697 
L 563.907637 197.260263 
L 565.226665 195.774141 
L 566.54561 203.135638 
L 567.864638 208.05141 
L 569.183666 197.245351 
L 570.502694 175.040976 
L 571.821639 168.501016 
L 572.104687 173.117138 
L 572.104687 173.117138 
" clip-path="url(#p9be2189995)" style="fill: none; stroke: #c0399a; stroke-width: 1.6; stroke-linecap: square"/>
   </g>
   <g id="line2d_15">
    <path d="M 490.415437 265.494281 
L 490.415437 21.558281 
" clip-path="url(#p9be2189995)" style="fill: none; stroke: #000000; stroke-opacity: 0.25; stroke-width: 2; stroke-linecap: square"/>
   </g>
   <g id="patch_4">
    <path d="M 58.523438 265.494281 
L 58.523438 21.558281 
" style="fill: none; stroke: #000000; stroke-width: 0.8; stroke-linejoin: miter; stroke-linecap: square"/>
   </g>
   <g id="patch_5">
    <path d="M 58.523438 265.494281 
L 560.723438 265.494281 
" style="fill: none; stroke: #000000; stroke-width: 0.8; stroke-linejoin: miter; stroke-linecap: square"/>
   </g>
   <g id="text_15">
    <!--  DFT +1.16 -->
    <g transform="translate(490.415437 32.927669) scale(0.08 -0.08)">
     <defs>
      <path id="DejaVuSans-46" d="M 628 4666 
L 3309 4666 
L 3309 4134 
L 1259 4134 
L 1259 2759 
L 3109 2759 
L 3109 2228 
L 1259 2228 
L 1259 0 
L 628 0 
L 628 4666 
z
" transform="scale(0.015625)"/>
      <path id="DejaVuSans-54" d="M -19 4666 
L 3928 4666 
L 3928 4134 
L 2272 4134 
L 2272 0 
L 1638 0 
L 1638 4134 
L -19 4134 
L -19 4666 
z
" transform="scale(0.015625)"/>
      <path id="DejaVuSans-2b" d="M 2944 4013 
L 2944 2272 
L 4684 2272 
L 4684 1741 
L 2944 1741 
L 2944 0 
L 2419 0 
L 2419 1741 
L 678 1741 
L 678 2272 
L 2419 2272 
L 2419 4013 
L 2944 4013 
z
" transform="scale(0.015625)"/>
      <path id="DejaVuSans-36" d="M 2113 2584 
Q 1688 2584 1439 2293 
Q 1191 2003 1191 1497 
Q 1191 994 1439 701 
Q 1688 409 2113 409 
Q 2538 409 2786 701 
Q 3034 994 3034 1497 
Q 3034 2003 2786 2293 
Q 2538 2584 2113 2584 
z
M 3366 4563 
L 3366 3988 
Q 3128 4100 2886 4159 
Q 2644 4219 2406 4219 
Q 1781 4219 1451 3797 
Q 1122 3375 1075 2522 
Q 1259 2794 1537 2939 
Q 1816 3084 2150 3084 
Q 2853 3084 3261 2657 
Q 3669 2231 3669 1497 
Q 3669 778 3244 343 
Q 2819 -91 2113 -91 
Q 1303 -91 875 529 
Q 447 1150 447 2328 
Q 447 3434 972 4092 
Q 1497 4750 2381 4750 
Q 2619 4750 2861 4703 
Q 3103 4656 3366 4563 
z
" transform="scale(0.015625)"/>
     </defs>
     <use xlink:href="#DejaVuSans-20"/>
     <use xlink:href="#DejaVuSans-44" transform="translate(31.787109 0)"/>
     <use xlink:href="#DejaVuSans-46" transform="translate(108.789062 0)"/>
     <use xlink:href="#DejaVuSans-54" transform="translate(164.558594 0)"/>
     <use xlink:href="#DejaVuSans-20" transform="translate(225.642578 0)"/>
     <use xlink:href="#DejaVuSans-2b" transform="translate(257.429688 0)"/>
     <use xlink:href="#DejaVuSans-31" transform="translate(341.21875 0)"/>
     <use xlink:href="#DejaVuSans-2e" transform="translate(404.841797 0)"/>
     <use xlink:href="#DejaVuSans-31" transform="translate(436.628906 0)"/>
     <use xlink:href="#DejaVuSans-36" transform="translate(500.251953 0)"/>
    </g>
   </g>
   <g id="text_16">
    <!-- T-matrix defect ΔDOS after fix: stringent vs SG15 (robust) -->
    <g transform="translate(150.611563 15.558281) scale(0.11 -0.11)">
     <defs>
      <path id="DejaVuSans-2d" d="M 313 2009 
L 1997 2009 
L 1997 1497 
L 313 1497 
L 313 2009 
z
" transform="scale(0.015625)"/>
      <path id="DejaVuSans-6d" d="M 3328 2828 
Q 3544 3216 3844 3400 
Q 4144 3584 4550 3584 
Q 5097 3584 5394 3201 
Q 5691 2819 5691 2113 
L 5691 0 
L 5113 0 
L 5113 2094 
Q 5113 2597 4934 2840 
Q 4756 3084 4391 3084 
Q 3944 3084 3684 2787 
Q 3425 2491 3425 1978 
L 3425 0 
L 2847 0 
L 2847 2094 
Q 2847 2600 2669 2842 
Q 2491 3084 2119 3084 
Q 1678 3084 1418 2786 
Q 1159 2488 1159 1978 
L 1159 0 
L 581 0 
L 581 3500 
L 1159 3500 
L 1159 2956 
Q 1356 3278 1631 3431 
Q 1906 3584 2284 3584 
Q 2666 3584 2933 3390 
Q 3200 3197 3328 2828 
z
" transform="scale(0.015625)"/>
      <path id="DejaVuSans-61" d="M 2194 1759 
Q 1497 1759 1228 1600 
Q 959 1441 959 1056 
Q 959 750 1161 570 
Q 1363 391 1709 391 
Q 2188 391 2477 730 
Q 2766 1069 2766 1631 
L 2766 1759 
L 2194 1759 
z
M 3341 1997 
L 3341 0 
L 2766 0 
L 2766 531 
Q 2569 213 2275 61 
Q 1981 -91 1556 -91 
Q 1019 -91 701 211 
Q 384 513 384 1019 
Q 384 1609 779 1909 
Q 1175 2209 1959 2209 
L 2766 2209 
L 2766 2266 
Q 2766 2663 2505 2880 
Q 2244 3097 1772 3097 
Q 1472 3097 1187 3025 
Q 903 2953 641 2809 
L 641 3341 
Q 956 3463 1253 3523 
Q 1550 3584 1831 3584 
Q 2591 3584 2966 3190 
Q 3341 2797 3341 1997 
z
" transform="scale(0.015625)"/>
      <path id="DejaVuSans-72" d="M 2631 2963 
Q 2534 3019 2420 3045 
Q 2306 3072 2169 3072 
Q 1681 3072 1420 2755 
Q 1159 2438 1159 1844 
L 1159 0 
L 581 0 
L 581 3500 
L 1159 3500 
L 1159 2956 
Q 1341 3275 1631 3429 
Q 1922 3584 2338 3584 
Q 2397 3584 2469 3576 
Q 2541 3569 2628 3553 
L 2631 2963 
z
" transform="scale(0.015625)"/>
      <path id="DejaVuSans-69" d="M 603 3500 
L 1178 3500 
L 1178 0 
L 603 0 
L 603 3500 
z
M 603 4863 
L 1178 4863 
L 1178 4134 
L 603 4134 
L 603 4863 
z
" transform="scale(0.015625)"/>
      <path id="DejaVuSans-78" d="M 3513 3500 
L 2247 1797 
L 3578 0 
L 2900 0 
L 1881 1375 
L 863 0 
L 184 0 
L 1544 1831 
L 300 3500 
L 978 3500 
L 1906 2253 
L 2834 3500 
L 3513 3500 
z
" transform="scale(0.015625)"/>
      <path id="DejaVuSans-3a" d="M 750 794 
L 1409 794 
L 1409 0 
L 750 0 
L 750 794 
z
M 750 3309 
L 1409 3309 
L 1409 2516 
L 750 2516 
L 750 3309 
z
" transform="scale(0.015625)"/>
      <path id="DejaVuSans-73" d="M 2834 3397 
L 2834 2853 
Q 2591 2978 2328 3040 
Q 2066 3103 1784 3103 
Q 1356 3103 1142 2972 
Q 928 2841 928 2578 
Q 928 2378 1081 2264 
Q 1234 2150 1697 2047 
L 1894 2003 
Q 2506 1872 2764 1633 
Q 3022 1394 3022 966 
Q 3022 478 2636 193 
Q 2250 -91 1575 -91 
Q 1294 -91 989 -36 
Q 684 19 347 128 
L 347 722 
Q 666 556 975 473 
Q 1284 391 1588 391 
Q 1994 391 2212 530 
Q 2431 669 2431 922 
Q 2431 1156 2273 1281 
Q 2116 1406 1581 1522 
L 1381 1569 
Q 847 1681 609 1914 
Q 372 2147 372 2553 
Q 372 3047 722 3315 
Q 1072 3584 1716 3584 
Q 2034 3584 2315 3537 
Q 2597 3491 2834 3397 
z
" transform="scale(0.015625)"/>
      <path id="DejaVuSans-6e" d="M 3513 2113 
L 3513 0 
L 2938 0 
L 2938 2094 
Q 2938 2591 2744 2837 
Q 2550 3084 2163 3084 
Q 1697 3084 1428 2787 
Q 1159 2491 1159 1978 
L 1159 0 
L 581 0 
L 581 3500 
L 1159 3500 
L 1159 2956 
Q 1366 3272 1645 3428 
Q 1925 3584 2291 3584 
Q 2894 3584 3203 3211 
Q 3513 2838 3513 2113 
z
" transform="scale(0.015625)"/>
      <path id="DejaVuSans-67" d="M 2906 1791 
Q 2906 2416 2648 2759 
Q 2391 3103 1925 3103 
Q 1463 3103 1205 2759 
Q 947 2416 947 1791 
Q 947 1169 1205 825 
Q 1463 481 1925 481 
Q 2391 481 2648 825 
Q 2906 1169 2906 1791 
z
M 3481 434 
Q 3481 -459 3084 -895 
Q 2688 -1331 1869 -1331 
Q 1566 -1331 1297 -1286 
Q 1028 -1241 775 -1147 
L 775 -588 
Q 1028 -725 1275 -790 
Q 1522 -856 1778 -856 
Q 2344 -856 2625 -561 
Q 2906 -266 2906 331 
L 2906 616 
Q 2728 306 2450 153 
Q 2172 0 1784 0 
Q 1141 0 747 490 
Q 353 981 353 1791 
Q 353 2603 747 3093 
Q 1141 3584 1784 3584 
Q 2172 3584 2450 3431 
Q 2728 3278 2906 2969 
L 2906 3500 
L 3481 3500 
L 3481 434 
z
" transform="scale(0.015625)"/>
      <path id="DejaVuSans-76" d="M 191 3500 
L 800 3500 
L 1894 563 
L 2988 3500 
L 3597 3500 
L 2284 0 
L 1503 0 
L 191 3500 
z
" transform="scale(0.015625)"/>
      <path id="DejaVuSans-47" d="M 3809 666 
L 3809 1919 
L 2778 1919 
L 2778 2438 
L 4434 2438 
L 4434 434 
Q 4069 175 3628 42 
Q 3188 -91 2688 -91 
Q 1594 -91 976 548 
Q 359 1188 359 2328 
Q 359 3472 976 4111 
Q 1594 4750 2688 4750 
Q 3144 4750 3555 4637 
Q 3966 4525 4313 4306 
L 4313 3634 
Q 3963 3931 3569 4081 
Q 3175 4231 2741 4231 
Q 1884 4231 1454 3753 
Q 1025 3275 1025 2328 
Q 1025 1384 1454 906 
Q 1884 428 2741 428 
Q 3075 428 3337 486 
Q 3600 544 3809 666 
z
" transform="scale(0.015625)"/>
      <path id="DejaVuSans-6f" d="M 1959 3097 
Q 1497 3097 1228 2736 
Q 959 2375 959 1747 
Q 959 1119 1226 758 
Q 1494 397 1959 397 
Q 2419 397 2687 759 
Q 2956 1122 2956 1747 
Q 2956 2369 2687 2733 
Q 2419 3097 1959 3097 
z
M 1959 3584 
Q 2709 3584 3137 3096 
Q 3566 2609 3566 1747 
Q 3566 888 3137 398 
Q 2709 -91 1959 -91 
Q 1206 -91 779 398 
Q 353 888 353 1747 
Q 353 2609 779 3096 
Q 1206 3584 1959 3584 
z
" transform="scale(0.015625)"/>
      <path id="DejaVuSans-62" d="M 3116 1747 
Q 3116 2381 2855 2742 
Q 2594 3103 2138 3103 
Q 1681 3103 1420 2742 
Q 1159 2381 1159 1747 
Q 1159 1113 1420 752 
Q 1681 391 2138 391 
Q 2594 391 2855 752 
Q 3116 1113 3116 1747 
z
M 1159 2969 
Q 1341 3281 1617 3432 
Q 1894 3584 2278 3584 
Q 2916 3584 3314 3078 
Q 3713 2572 3713 1747 
Q 3713 922 3314 415 
Q 2916 -91 2278 -91 
Q 1894 -91 1617 61 
Q 1341 213 1159 525 
L 1159 0 
L 581 0 
L 581 4863 
L 1159 4863 
L 1159 2969 
z
" transform="scale(0.015625)"/>
      <path id="DejaVuSans-75" d="M 544 1381 
L 544 3500 
L 1119 3500 
L 1119 1403 
Q 1119 906 1312 657 
Q 1506 409 1894 409 
Q 2359 409 2629 706 
Q 2900 1003 2900 1516 
L 2900 3500 
L 3475 3500 
L 3475 0 
L 2900 0 
L 2900 538 
Q 2691 219 2414 64 
Q 2138 -91 1772 -91 
Q 1169 -91 856 284 
Q 544 659 544 1381 
z
M 1991 3584 
L 1991 3584 
z
" transform="scale(0.015625)"/>
     </defs>
     <use xlink:href="#DejaVuSans-54"/>
     <use xlink:href="#DejaVuSans-2d" transform="translate(51.958984 0)"/>
     <use xlink:href="#DejaVuSans-6d" transform="translate(88.042969 0)"/>
     <use xlink:href="#DejaVuSans-61" transform="translate(185.455078 0)"/>
     <use xlink:href="#DejaVuSans-74" transform="translate(246.734375 0)"/>
     <use xlink:href="#DejaVuSans-72" transform="translate(285.943359 0)"/>
     <use xlink:href="#DejaVuSans-69" transform="translate(327.056641 0)"/>
     <use xlink:href="#DejaVuSans-78" transform="translate(354.839844 0)"/>
     <use xlink:href="#DejaVuSans-20" transform="translate(414.019531 0)"/>
     <use xlink:href="#DejaVuSans-64" transform="translate(445.806641 0)"/>
     <use xlink:href="#DejaVuSans-65" transform="translate(509.283203 0)"/>
     <use xlink:href="#DejaVuSans-66" transform="translate(570.806641 0)"/>
     <use xlink:href="#DejaVuSans-65" transform="translate(606.011719 0)"/>
     <use xlink:href="#DejaVuSans-63" transform="translate(667.535156 0)"/>
     <use xlink:href="#DejaVuSans-74" transform="translate(722.515625 0)"/>
     <use xlink:href="#DejaVuSans-20" transform="translate(761.724609 0)"/>
     <use xlink:href="#DejaVuSans-394" transform="translate(793.511719 0)"/>
     <use xlink:href="#DejaVuSans-44" transform="translate(861.919922 0)"/>
     <use xlink:href="#DejaVuSans-4f" transform="translate(938.921875 0)"/>
     <use xlink:href="#DejaVuSans-53" transform="translate(1017.632812 0)"/>
     <use xlink:href="#DejaVuSans-20" transform="translate(1081.109375 0)"/>
     <use xlink:href="#DejaVuSans-61" transform="translate(1112.896484 0)"/>
     <use xlink:href="#DejaVuSans-66" transform="translate(1174.175781 0)"/>
     <use xlink:href="#DejaVuSans-74" transform="translate(1207.630859 0)"/>
     <use xlink:href="#DejaVuSans-65" transform="translate(1246.839844 0)"/>
     <use xlink:href="#DejaVuSans-72" transform="translate(1308.363281 0)"/>
     <use xlink:href="#DejaVuSans-20" transform="translate(1349.476562 0)"/>
     <use xlink:href="#DejaVuSans-66" transform="translate(1381.263672 0)"/>
     <use xlink:href="#DejaVuSans-69" transform="translate(1416.46875 0)"/>
     <use xlink:href="#DejaVuSans-78" transform="translate(1444.251953 0)"/>
     <use xlink:href="#DejaVuSans-3a" transform="translate(1503.431641 0)"/>
     <use xlink:href="#DejaVuSans-20" transform="translate(1537.123047 0)"/>
     <use xlink:href="#DejaVuSans-73" transform="translate(1568.910156 0)"/>
     <use xlink:href="#DejaVuSans-74" transform="translate(1621.009766 0)"/>
     <use xlink:href="#DejaVuSans-72" transform="translate(1660.21875 0)"/>
     <use xlink:href="#DejaVuSans-69" transform="translate(1701.332031 0)"/>
     <use xlink:href="#DejaVuSans-6e" transform="translate(1729.115234 0)"/>
     <use xlink:href="#DejaVuSans-67" transform="translate(1792.494141 0)"/>
     <use xlink:href="#DejaVuSans-65" transform="translate(1855.970703 0)"/>
     <use xlink:href="#DejaVuSans-6e" transform="translate(1917.494141 0)"/>
     <use xlink:href="#DejaVuSans-74" transform="translate(1980.873047 0)"/>
     <use xlink:href="#DejaVuSans-20" transform="translate(2020.082031 0)"/>
     <use xlink:href="#DejaVuSans-76" transform="translate(2051.869141 0)"/>
     <use xlink:href="#DejaVuSans-73" transform="translate(2111.048828 0)"/>
     <use xlink:href="#DejaVuSans-20" transform="translate(2163.148438 0)"/>
     <use xlink:href="#DejaVuSans-53" transform="translate(2194.935547 0)"/>
     <use xlink:href="#DejaVuSans-47" transform="translate(2258.412109 0)"/>
     <use xlink:href="#DejaVuSans-31" transform="translate(2335.902344 0)"/>
     <use xlink:href="#DejaVuSans-35" transform="translate(2399.525391 0)"/>
     <use xlink:href="#DejaVuSans-20" transform="translate(2463.148438 0)"/>
     <use xlink:href="#DejaVuSans-28" transform="translate(2494.935547 0)"/>
     <use xlink:href="#DejaVuSans-72" transform="translate(2533.949219 0)"/>
     <use xlink:href="#DejaVuSans-6f" transform="translate(2572.8125 0)"/>
     <use xlink:href="#DejaVuSans-62" transform="translate(2633.994141 0)"/>
     <use xlink:href="#DejaVuSans-75" transform="translate(2697.470703 0)"/>
     <use xlink:href="#DejaVuSans-73" transform="translate(2760.849609 0)"/>
     <use xlink:href="#DejaVuSans-74" transform="translate(2812.949219 0)"/>
     <use xlink:href="#DejaVuSans-29" transform="translate(2852.158203 0)"/>
    </g>
   </g>
   <g id="legend_1">
    <g id="patch_6">
     <path d="M 263.526563 260.994281 
L 355.720313 260.994281 
Q 357.520313 260.994281 357.520313 259.194281 
L 357.520313 219.495531 
Q 357.520313 217.695531 355.720313 217.695531 
L 263.526563 217.695531 
Q 261.726562 217.695531 261.726562 219.495531 
L 261.726562 259.194281 
Q 261.726562 260.994281 263.526563 260.994281 
z
" style="fill: #ffffff; opacity: 0.8; stroke: #cccccc; stroke-linejoin: miter"/>
    </g>
    <g id="text_17">
     <!-- T-matrix (fixed M) -->
     <g transform="translate(265.326563 228.893969) scale(0.1 -0.1)">
      <use xlink:href="#DejaVuSans-54"/>
      <use xlink:href="#DejaVuSans-2d" transform="translate(51.958984 0)"/>
      <use xlink:href="#DejaVuSans-6d" transform="translate(88.042969 0)"/>
      <use xlink:href="#DejaVuSans-61" transform="translate(185.455078 0)"/>
      <use xlink:href="#DejaVuSans-74" transform="translate(246.734375 0)"/>
      <use xlink:href="#DejaVuSans-72" transform="translate(285.943359 0)"/>
      <use xlink:href="#DejaVuSans-69" transform="translate(327.056641 0)"/>
      <use xlink:href="#DejaVuSans-78" transform="translate(354.839844 0)"/>
      <use xlink:href="#DejaVuSans-20" transform="translate(414.019531 0)"/>
      <use xlink:href="#DejaVuSans-28" transform="translate(445.806641 0)"/>
      <use xlink:href="#DejaVuSans-66" transform="translate(484.820312 0)"/>
      <use xlink:href="#DejaVuSans-69" transform="translate(520.025391 0)"/>
      <use xlink:href="#DejaVuSans-78" transform="translate(547.808594 0)"/>
      <use xlink:href="#DejaVuSans-65" transform="translate(603.863281 0)"/>
      <use xlink:href="#DejaVuSans-64" transform="translate(665.386719 0)"/>
      <use xlink:href="#DejaVuSans-20" transform="translate(728.863281 0)"/>
      <use xlink:href="#DejaVuSans-4d" transform="translate(760.650391 0)"/>
      <use xlink:href="#DejaVuSans-29" transform="translate(846.929688 0)"/>
     </g>
    </g>
    <g id="line2d_16">
     <path d="M 276.721406 239.16225 
L 285.721406 239.16225 
L 294.721406 239.16225 
" style="fill: none; stroke: #7a3bb0; stroke-width: 1.6; stroke-linecap: square"/>
    </g>
    <g id="text_18">
     <!-- stringent -->
     <g transform="translate(301.921406 242.31225) scale(0.09 -0.09)">
      <use xlink:href="#DejaVuSans-73"/>
      <use xlink:href="#DejaVuSans-74" transform="translate(52.099609 0)"/>
      <use xlink:href="#DejaVuSans-72" transform="translate(91.308594 0)"/>
      <use xlink:href="#DejaVuSans-69" transform="translate(132.421875 0)"/>
      <use xlink:href="#DejaVuSans-6e" transform="translate(160.205078 0)"/>
      <use xlink:href="#DejaVuSans-67" transform="translate(223.583984 0)"/>
      <use xlink:href="#DejaVuSans-65" transform="translate(287.060547 0)"/>
      <use xlink:href="#DejaVuSans-6e" transform="translate(348.583984 0)"/>
      <use xlink:href="#DejaVuSans-74" transform="translate(411.962891 0)"/>
     </g>
    </g>
    <g id="line2d_17">
     <path d="M 276.721406 252.372562 
L 285.721406 252.372562 
L 294.721406 252.372562 
" style="fill: none; stroke: #c0399a; stroke-width: 1.6; stroke-linecap: square"/>
    </g>
    <g id="text_19">
     <!-- SG15 -->
     <g transform="translate(301.921406 255.522562) scale(0.09 -0.09)">
      <use xlink:href="#DejaVuSans-53"/>
      <use xlink:href="#DejaVuSans-47" transform="translate(63.476562 0)"/>
      <use xlink:href="#DejaVuSans-31" transform="translate(140.966797 0)"/>
      <use xlink:href="#DejaVuSans-35" transform="translate(204.589844 0)"/>
     </g>
    </g>
   </g>
  </g>
 </g>
 <defs>
  <clipPath id="p9be2189995">
   <rect x="58.523438" y="21.558281" width="502.2" height="243.936"/>
  </clipPath>
 </defs>
</svg>
