<?xml version="1.0" encoding="utf-8" standalone="no"?>
<!DOCTYPE svg PUBLIC "-//W3C//DTD SVG 1.1//EN"
  "http://www.w3.org/Graphics/SVG/1.1/DTD/svg11.dtd">
<svg xmlns:xlink="http://www.w3.org/1999/xlink" width="543.204687pt" height="392.51625pt" viewBox="0 0 543.204687 392.51625" xmlns="http://www.w3.org/2000/svg" version="1.1">
 <metadata>
  <rdf:RDF xmlns:dc="http://purl.org/dc/elements/1.1/" xmlns:cc="http://creativecommons.org/ns#" xmlns:rdf="http://www.w3.org/1999/02/22-rdf-syntax-ns#">
   <cc:Work>
    <dc:type rdf:resource="http://purl.org/dc/dcmitype/StillImage"/>
    <dc:date>2026-07-01T02:12:25.127475</dc:date>
    <dc:format>image/svg+xml</dc:format>
    <dc:creator>
     <cc:Agent>
      <dc:title>Matplotlib v3.10.8, https://matplotlib.org/</dc:title>
     </cc:Agent>
    </dc:creator>
   </cc:Work>
  </rdf:RDF>
 </metadata>
 <defs>
  <style type="text/css">*{stroke-linejoin: round; stroke-linecap: butt}</style>
 </defs>
 <g id="figure_1">
  <g id="patch_1">
   <path d="M 0 392.51625 
L 543.204687 392.51625 
L 543.204687 0 
L 0 0 
L 0 392.51625 
z
" style="fill: none"/>
  </g>
  <g id="axes_1">
   <g id="patch_2">
    <path d="M 58.523438 223.92 
L 532.823438 223.92 
L 532.823438 22.32 
L 58.523438 22.32 
L 58.523438 223.92 
z
" style="fill: none"/>
   </g>
   <g id="patch_3">
    <path d="M 379.823438 223.92 
L 506.583938 223.92 
L 506.583938 22.32 
L 379.823438 22.32 
z
" clip-path="url(#p1c1d165532)" style="fill: #eef0f7; stroke: #eef0f7; stroke-linejoin: miter"/>
   </g>
   <g id="matplotlib.axis_1">
    <g id="xtick_1">
     <g id="line2d_1">
      <defs>
       <path id="m84cdac8476" d="M 0 0 
L 0 3.5 
" style="stroke: #000000; stroke-width: 0.8"/>
      </defs>
      <g>
       <use xlink:href="#m84cdac8476" x="73.823438" y="223.92" style="stroke: #000000; stroke-width: 0.8"/>
      </g>
     </g>
    </g>
    <g id="xtick_2">
     <g id="line2d_2">
      <g>
       <use xlink:href="#m84cdac8476" x="150.323438" y="223.92" style="stroke: #000000; stroke-width: 0.8"/>
      </g>
     </g>
    </g>
    <g id="xtick_3">
     <g id="line2d_3">
      <g>
       <use xlink:href="#m84cdac8476" x="226.823438" y="223.92" style="stroke: #000000; stroke-width: 0.8"/>
      </g>
     </g>
    </g>
    <g id="xtick_4">
     <g id="line2d_4">
      <g>
       <use xlink:href="#m84cdac8476" x="303.323438" y="223.92" style="stroke: #000000; stroke-width: 0.8"/>
      </g>
     </g>
    </g>
    <g id="xtick_5">
     <g id="line2d_5">
      <g>
       <use xlink:href="#m84cdac8476" x="379.823438" y="223.92" style="stroke: #000000; stroke-width: 0.8"/>
      </g>
     </g>
    </g>
    <g id="xtick_6">
     <g id="line2d_6">
      <g>
       <use xlink:href="#m84cdac8476" x="456.323438" y="223.92" style="stroke: #000000; stroke-width: 0.8"/>
      </g>
     </g>
    </g>
    <g id="xtick_7">
     <g id="line2d_7">
      <g>
       <use xlink:href="#m84cdac8476" x="532.823438" y="223.92" style="stroke: #000000; stroke-width: 0.8"/>
      </g>
     </g>
    </g>
   </g>
   <g id="matplotlib.axis_2">
    <g id="ytick_1">
     <g id="line2d_8">
      <defs>
       <path id="m4ac8858a1a" d="M 0 0 
L -3.5 0 
" style="stroke: #000000; stroke-width: 0.8"/>
      </defs>
      <g>
       <use xlink:href="#m4ac8858a1a" x="58.523438" y="215.509592" style="stroke: #000000; stroke-width: 0.8"/>
      </g>
     </g>
     <g id="text_1">
      <!-- 0.0 -->
      <g transform="translate(35.620312 219.30881) scale(0.1 -0.1)">
       <defs>
        <path id="DejaVuSans-30" d="M 2034 4250 
Q 1547 4250 1301 3770 
Q 1056 3291 1056 2328 
Q 1056 1369 1301 889 
Q 1547 409 2034 409 
Q 2525 409 2770 889 
Q 3016 1369 3016 2328 
Q 3016 3291 2770 3770 
Q 2525 4250 2034 4250 
z
M 2034 4750 
Q 2819 4750 3233 4129 
Q 3647 3509 3647 2328 
Q 3647 1150 3233 529 
Q 2819 -91 2034 -91 
Q 1250 -91 836 529 
Q 422 1150 422 2328 
Q 422 3509 836 4129 
Q 1250 4750 2034 4750 
z
" transform="scale(0.015625)"/>
        <path id="DejaVuSans-2e" d="M 684 794 
L 1344 794 
L 1344 0 
L 684 0 
L 684 794 
z
" transform="scale(0.015625)"/>
       </defs>
       <use xlink:href="#DejaVuSans-30"/>
       <use xlink:href="#DejaVuSans-2e" transform="translate(63.623047 0)"/>
       <use xlink:href="#DejaVuSans-30" transform="translate(95.410156 0)"/>
      </g>
     </g>
    </g>
    <g id="ytick_2">
     <g id="line2d_9">
      <g>
       <use xlink:href="#m4ac8858a1a" x="58.523438" y="186.341024" style="stroke: #000000; stroke-width: 0.8"/>
      </g>
     </g>
     <g id="text_2">
      <!-- 0.5 -->
      <g transform="translate(35.620312 190.140242) scale(0.1 -0.1)">
       <defs>
        <path id="DejaVuSans-35" d="M 691 4666 
L 3169 4666 
L 3169 4134 
L 1269 4134 
L 1269 2991 
Q 1406 3038 1543 3061 
Q 1681 3084 1819 3084 
Q 2600 3084 3056 2656 
Q 3513 2228 3513 1497 
Q 3513 744 3044 326 
Q 2575 -91 1722 -91 
Q 1428 -91 1123 -41 
Q 819 9 494 109 
L 494 744 
Q 775 591 1075 516 
Q 1375 441 1709 441 
Q 2250 441 2565 725 
Q 2881 1009 2881 1497 
Q 2881 1984 2565 2268 
Q 2250 2553 1709 2553 
Q 1456 2553 1204 2497 
Q 953 2441 691 2322 
L 691 4666 
z
" transform="scale(0.015625)"/>
       </defs>
       <use xlink:href="#DejaVuSans-30"/>
       <use xlink:href="#DejaVuSans-2e" transform="translate(63.623047 0)"/>
       <use xlink:href="#DejaVuSans-35" transform="translate(95.410156 0)"/>
      </g>
     </g>
    </g>
    <g id="ytick_3">
     <g id="line2d_10">
      <g>
       <use xlink:href="#m4ac8858a1a" x="58.523438" y="157.172455" style="stroke: #000000; stroke-width: 0.8"/>
      </g>
     </g>
     <g id="text_3">
      <!-- 1.0 -->
      <g transform="translate(35.620312 160.971674) scale(0.1 -0.1)">
       <defs>
        <path id="DejaVuSans-31" d="M 794 531 
L 1825 531 
L 1825 4091 
L 703 3866 
L 703 4441 
L 1819 4666 
L 2450 4666 
L 2450 531 
L 3481 531 
L 3481 0 
L 794 0 
L 794 531 
z
" transform="scale(0.015625)"/>
       </defs>
       <use xlink:href="#DejaVuSans-31"/>
       <use xlink:href="#DejaVuSans-2e" transform="translate(63.623047 0)"/>
       <use xlink:href="#DejaVuSans-30" transform="translate(95.410156 0)"/>
      </g>
     </g>
    </g>
    <g id="ytick_4">
     <g id="line2d_11">
      <g>
       <use xlink:href="#m4ac8858a1a" x="58.523438" y="128.003887" style="stroke: #000000; stroke-width: 0.8"/>
      </g>
     </g>
     <g id="text_4">
      <!-- 1.5 -->
      <g transform="translate(35.620312 131.803106) scale(0.1 -0.1)">
       <use xlink:href="#DejaVuSans-31"/>
       <use xlink:href="#DejaVuSans-2e" transform="translate(63.623047 0)"/>
       <use xlink:href="#DejaVuSans-35" transform="translate(95.410156 0)"/>
      </g>
     </g>
    </g>
    <g id="ytick_5">
     <g id="line2d_12">
      <g>
       <use xlink:href="#m4ac8858a1a" x="58.523438" y="98.835319" style="stroke: #000000; stroke-width: 0.8"/>
      </g>
     </g>
     <g id="text_5">
      <!-- 2.0 -->
      <g transform="translate(35.620312 102.634538) scale(0.1 -0.1)">
       <defs>
        <path id="DejaVuSans-32" d="M 1228 531 
L 3431 531 
L 3431 0 
L 469 0 
L 469 531 
Q 828 903 1448 1529 
Q 2069 2156 2228 2338 
Q 2531 2678 2651 2914 
Q 2772 3150 2772 3378 
Q 2772 3750 2511 3984 
Q 2250 4219 1831 4219 
Q 1534 4219 1204 4116 
Q 875 4013 500 3803 
L 500 4441 
Q 881 4594 1212 4672 
Q 1544 4750 1819 4750 
Q 2544 4750 2975 4387 
Q 3406 4025 3406 3419 
Q 3406 3131 3298 2873 
Q 3191 2616 2906 2266 
Q 2828 2175 2409 1742 
Q 1991 1309 1228 531 
z
" transform="scale(0.015625)"/>
       </defs>
       <use xlink:href="#DejaVuSans-32"/>
       <use xlink:href="#DejaVuSans-2e" transform="translate(63.623047 0)"/>
       <use xlink:href="#DejaVuSans-30" transform="translate(95.410156 0)"/>
      </g>
     </g>
    </g>
    <g id="ytick_6">
     <g id="line2d_13">
      <g>
       <use xlink:href="#m4ac8858a1a" x="58.523438" y="69.666751" style="stroke: #000000; stroke-width: 0.8"/>
      </g>
     </g>
     <g id="text_6">
      <!-- 2.5 -->
      <g transform="translate(35.620312 73.465969) scale(0.1 -0.1)">
       <use xlink:href="#DejaVuSans-32"/>
       <use xlink:href="#DejaVuSans-2e" transform="translate(63.623047 0)"/>
       <use xlink:href="#DejaVuSans-35" transform="translate(95.410156 0)"/>
      </g>
     </g>
    </g>
    <g id="ytick_7">
     <g id="line2d_14">
      <g>
       <use xlink:href="#m4ac8858a1a" x="58.523438" y="40.498182" style="stroke: #000000; stroke-width: 0.8"/>
      </g>
     </g>
     <g id="text_7">
      <!-- 3.0 -->
      <g transform="translate(35.620312 44.297401) scale(0.1 -0.1)">
       <defs>
        <path id="DejaVuSans-33" d="M 2597 2516 
Q 3050 2419 3304 2112 
Q 3559 1806 3559 1356 
Q 3559 666 3084 287 
Q 2609 -91 1734 -91 
Q 1441 -91 1130 -33 
Q 819 25 488 141 
L 488 750 
Q 750 597 1062 519 
Q 1375 441 1716 441 
Q 2309 441 2620 675 
Q 2931 909 2931 1356 
Q 2931 1769 2642 2001 
Q 2353 2234 1838 2234 
L 1294 2234 
L 1294 2753 
L 1863 2753 
Q 2328 2753 2575 2939 
Q 2822 3125 2822 3475 
Q 2822 3834 2567 4026 
Q 2313 4219 1838 4219 
Q 1578 4219 1281 4162 
Q 984 4106 628 3988 
L 628 4550 
Q 988 4650 1302 4700 
Q 1616 4750 1894 4750 
Q 2613 4750 3031 4423 
Q 3450 4097 3450 3541 
Q 3450 3153 3228 2886 
Q 3006 2619 2597 2516 
z
" transform="scale(0.015625)"/>
       </defs>
       <use xlink:href="#DejaVuSans-33"/>
       <use xlink:href="#DejaVuSans-2e" transform="translate(63.623047 0)"/>
       <use xlink:href="#DejaVuSans-30" transform="translate(95.410156 0)"/>
      </g>
     </g>
    </g>
    <g id="text_8">
     <!-- DOS (states/eV/cell) -->
     <g transform="translate(29.540625 173.310625) rotate(-90) scale(0.1 -0.1)">
      <defs>
       <path id="DejaVuSans-44" d="M 1259 4147 
L 1259 519 
L 2022 519 
Q 2988 519 3436 956 
Q 3884 1394 3884 2338 
Q 3884 3275 3436 3711 
Q 2988 4147 2022 4147 
L 1259 4147 
z
M 628 4666 
L 1925 4666 
Q 3281 4666 3915 4102 
Q 4550 3538 4550 2338 
Q 4550 1131 3912 565 
Q 3275 0 1925 0 
L 628 0 
L 628 4666 
z
" transform="scale(0.015625)"/>
       <path id="DejaVuSans-4f" d="M 2522 4238 
Q 1834 4238 1429 3725 
Q 1025 3213 1025 2328 
Q 1025 1447 1429 934 
Q 1834 422 2522 422 
Q 3209 422 3611 934 
Q 4013 1447 4013 2328 
Q 4013 3213 3611 3725 
Q 3209 4238 2522 4238 
z
M 2522 4750 
Q 3503 4750 4090 4092 
Q 4678 3434 4678 2328 
Q 4678 1225 4090 567 
Q 3503 -91 2522 -91 
Q 1538 -91 948 565 
Q 359 1222 359 2328 
Q 359 3434 948 4092 
Q 1538 4750 2522 4750 
z
" transform="scale(0.015625)"/>
       <path id="DejaVuSans-53" d="M 3425 4513 
L 3425 3897 
Q 3066 4069 2747 4153 
Q 2428 4238 2131 4238 
Q 1616 4238 1336 4038 
Q 1056 3838 1056 3469 
Q 1056 3159 1242 3001 
Q 1428 2844 1947 2747 
L 2328 2669 
Q 3034 2534 3370 2195 
Q 3706 1856 3706 1288 
Q 3706 609 3251 259 
Q 2797 -91 1919 -91 
Q 1588 -91 1214 -16 
Q 841 59 441 206 
L 441 856 
Q 825 641 1194 531 
Q 1563 422 1919 422 
Q 2459 422 2753 634 
Q 3047 847 3047 1241 
Q 3047 1584 2836 1778 
Q 2625 1972 2144 2069 
L 1759 2144 
Q 1053 2284 737 2584 
Q 422 2884 422 3419 
Q 422 4038 858 4394 
Q 1294 4750 2059 4750 
Q 2388 4750 2728 4690 
Q 3069 4631 3425 4513 
z
" transform="scale(0.015625)"/>
       <path id="DejaVuSans-20" transform="scale(0.015625)"/>
       <path id="DejaVuSans-28" d="M 1984 4856 
Q 1566 4138 1362 3434 
Q 1159 2731 1159 2009 
Q 1159 1288 1364 580 
Q 1569 -128 1984 -844 
L 1484 -844 
Q 1016 -109 783 600 
Q 550 1309 550 2009 
Q 550 2706 781 3412 
Q 1013 4119 1484 4856 
L 1984 4856 
z
" transform="scale(0.015625)"/>
       <path id="DejaVuSans-73" d="M 2834 3397 
L 2834 2853 
Q 2591 2978 2328 3040 
Q 2066 3103 1784 3103 
Q 1356 3103 1142 2972 
Q 928 2841 928 2578 
Q 928 2378 1081 2264 
Q 1234 2150 1697 2047 
L 1894 2003 
Q 2506 1872 2764 1633 
Q 3022 1394 3022 966 
Q 3022 478 2636 193 
Q 2250 -91 1575 -91 
Q 1294 -91 989 -36 
Q 684 19 347 128 
L 347 722 
Q 666 556 975 473 
Q 1284 391 1588 391 
Q 1994 391 2212 530 
Q 2431 669 2431 922 
Q 2431 1156 2273 1281 
Q 2116 1406 1581 1522 
L 1381 1569 
Q 847 1681 609 1914 
Q 372 2147 372 2553 
Q 372 3047 722 3315 
Q 1072 3584 1716 3584 
Q 2034 3584 2315 3537 
Q 2597 3491 2834 3397 
z
" transform="scale(0.015625)"/>
       <path id="DejaVuSans-74" d="M 1172 4494 
L 1172 3500 
L 2356 3500 
L 2356 3053 
L 1172 3053 
L 1172 1153 
Q 1172 725 1289 603 
Q 1406 481 1766 481 
L 2356 481 
L 2356 0 
L 1766 0 
Q 1100 0 847 248 
Q 594 497 594 1153 
L 594 3053 
L 172 3053 
L 172 3500 
L 594 3500 
L 594 4494 
L 1172 4494 
z
" transform="scale(0.015625)"/>
       <path id="DejaVuSans-61" d="M 2194 1759 
Q 1497 1759 1228 1600 
Q 959 1441 959 1056 
Q 959 750 1161 570 
Q 1363 391 1709 391 
Q 2188 391 2477 730 
Q 2766 1069 2766 1631 
L 2766 1759 
L 2194 1759 
z
M 3341 1997 
L 3341 0 
L 2766 0 
L 2766 531 
Q 2569 213 2275 61 
Q 1981 -91 1556 -91 
Q 1019 -91 701 211 
Q 384 513 384 1019 
Q 384 1609 779 1909 
Q 1175 2209 1959 2209 
L 2766 2209 
L 2766 2266 
Q 2766 2663 2505 2880 
Q 2244 3097 1772 3097 
Q 1472 3097 1187 3025 
Q 903 2953 641 2809 
L 641 3341 
Q 956 3463 1253 3523 
Q 1550 3584 1831 3584 
Q 2591 3584 2966 3190 
Q 3341 2797 3341 1997 
z
" transform="scale(0.015625)"/>
       <path id="DejaVuSans-65" d="M 3597 1894 
L 3597 1613 
L 953 1613 
Q 991 1019 1311 708 
Q 1631 397 2203 397 
Q 2534 397 2845 478 
Q 3156 559 3463 722 
L 3463 178 
Q 3153 47 2828 -22 
Q 2503 -91 2169 -91 
Q 1331 -91 842 396 
Q 353 884 353 1716 
Q 353 2575 817 3079 
Q 1281 3584 2069 3584 
Q 2775 3584 3186 3129 
Q 3597 2675 3597 1894 
z
M 3022 2063 
Q 3016 2534 2758 2815 
Q 2500 3097 2075 3097 
Q 1594 3097 1305 2825 
Q 1016 2553 972 2059 
L 3022 2063 
z
" transform="scale(0.015625)"/>
       <path id="DejaVuSans-2f" d="M 1625 4666 
L 2156 4666 
L 531 -594 
L 0 -594 
L 1625 4666 
z
" transform="scale(0.015625)"/>
       <path id="DejaVuSans-56" d="M 1831 0 
L 50 4666 
L 709 4666 
L 2188 738 
L 3669 4666 
L 4325 4666 
L 2547 0 
L 1831 0 
z
" transform="scale(0.015625)"/>
       <path id="DejaVuSans-63" d="M 3122 3366 
L 3122 2828 
Q 2878 2963 2633 3030 
Q 2388 3097 2138 3097 
Q 1578 3097 1268 2742 
Q 959 2388 959 1747 
Q 959 1106 1268 751 
Q 1578 397 2138 397 
Q 2388 397 2633 464 
Q 2878 531 3122 666 
L 3122 134 
Q 2881 22 2623 -34 
Q 2366 -91 2075 -91 
Q 1284 -91 818 406 
Q 353 903 353 1747 
Q 353 2603 823 3093 
Q 1294 3584 2113 3584 
Q 2378 3584 2631 3529 
Q 2884 3475 3122 3366 
z
" transform="scale(0.015625)"/>
       <path id="DejaVuSans-6c" d="M 603 4863 
L 1178 4863 
L 1178 0 
L 603 0 
L 603 4863 
z
" transform="scale(0.015625)"/>
       <path id="DejaVuSans-29" d="M 513 4856 
L 1013 4856 
Q 1481 4119 1714 3412 
Q 1947 2706 1947 2009 
Q 1947 1309 1714 600 
Q 1481 -109 1013 -844 
L 513 -844 
Q 928 -128 1133 580 
Q 1338 1288 1338 2009 
Q 1338 2731 1133 3434 
Q 928 4138 513 4856 
z
" transform="scale(0.015625)"/>
      </defs>
      <use xlink:href="#DejaVuSans-44"/>
      <use xlink:href="#DejaVuSans-4f" transform="translate(77.001953 0)"/>
      <use xlink:href="#DejaVuSans-53" transform="translate(155.712891 0)"/>
      <use xlink:href="#DejaVuSans-20" transform="translate(219.189453 0)"/>
      <use xlink:href="#DejaVuSans-28" transform="translate(250.976562 0)"/>
      <use xlink:href="#DejaVuSans-73" transform="translate(289.990234 0)"/>
      <use xlink:href="#DejaVuSans-74" transform="translate(342.089844 0)"/>
      <use xlink:href="#DejaVuSans-61" transform="translate(381.298828 0)"/>
      <use xlink:href="#DejaVuSans-74" transform="translate(442.578125 0)"/>
      <use xlink:href="#DejaVuSans-65" transform="translate(481.787109 0)"/>
      <use xlink:href="#DejaVuSans-73" transform="translate(543.310547 0)"/>
      <use xlink:href="#DejaVuSans-2f" transform="translate(595.410156 0)"/>
      <use xlink:href="#DejaVuSans-65" transform="translate(629.101562 0)"/>
      <use xlink:href="#DejaVuSans-56" transform="translate(690.625 0)"/>
      <use xlink:href="#DejaVuSans-2f" transform="translate(759.033203 0)"/>
      <use xlink:href="#DejaVuSans-63" transform="translate(792.724609 0)"/>
      <use xlink:href="#DejaVuSans-65" transform="translate(847.705078 0)"/>
      <use xlink:href="#DejaVuSans-6c" transform="translate(909.228516 0)"/>
      <use xlink:href="#DejaVuSans-6c" transform="translate(937.011719 0)"/>
      <use xlink:href="#DejaVuSans-29" transform="translate(964.794922 0)"/>
     </g>
    </g>
   </g>
   <g id="line2d_15">
    <path d="M -1 83.947389 
L -0.220147 86.11479 
L 2.191132 106.740117 
L 3.396772 112.626743 
L 5.807287 117.579099 
L 7.012927 122.157806 
L 9.424207 136.788118 
L 10.629847 141.633367 
L 11.835487 144.322943 
L 13.041127 148.753648 
L 14.246003 156.425565 
L 16.657282 173.605677 
L 17.862922 180.412139 
L 19.068562 185.317393 
L 20.274202 188.478193 
L 21.479842 190.171037 
L 22.684718 190.549955 
L 23.890358 189.613399 
L 25.095997 187.334044 
L 26.301637 184.11146 
L 27.507277 181.415835 
L 28.712917 180.944943 
L 29.918557 182.474648 
L 31.123433 184.600926 
L 32.329072 186.048323 
L 33.534712 185.866346 
L 34.740352 183.552567 
L 35.945992 179.02522 
L 37.151633 173.26983 
L 38.357273 169.403063 
L 39.562148 170.449521 
L 40.767787 174.760968 
L 41.973427 178.490595 
L 43.179067 179.656539 
L 44.384707 177.898572 
L 45.590348 173.924868 
L 46.795988 170.351118 
L 48.000862 171.037734 
L 49.206502 176.303647 
L 50.412142 182.655161 
L 51.617782 187.678163 
L 52.823422 190.939647 
L 54.029063 192.70242 
L 55.234703 193.237546 
L 56.439577 192.660977 
L 57.645217 190.944174 
L 58.850857 188.05267 
L 60.056497 184.389005 
L 61.262137 181.397342 
L 62.467778 180.597709 
L 63.673418 181.216981 
L 64.878292 181.204299 
L 66.083932 179.358932 
L 67.289572 175.31226 
L 68.495212 169.273748 
L 70.906186 154.677259 
L 72.11175 145.728401 
L 73.317314 135.383068 
L 74.522801 127.149306 
L 75.728364 123.629944 
L 76.933851 121.910048 
L 78.139414 117.683231 
L 79.344901 109.325269 
L 80.550465 95.86765 
L 82.961516 59.962485 
L 84.167079 49.663063 
L 85.372566 46.110682 
L 86.578129 45.284219 
L 87.783616 48.08166 
L 88.98918 60.197875 
L 91.400231 100.626211 
L 92.605718 113.106041 
L 93.811281 117.637086 
L 95.016845 117.581433 
L 96.222331 117.30614 
L 97.427895 117.830065 
L 98.633382 119.355465 
L 99.838946 124.549979 
L 102.249996 141.790878 
L 103.455483 147.266635 
L 104.661047 150.634496 
L 107.072097 156.844892 
L 108.277661 161.431055 
L 110.688711 174.543452 
L 111.894198 179.754872 
L 113.099762 183.202865 
L 114.305249 185.123848 
L 115.510812 185.775206 
L 116.716376 185.276522 
L 117.921863 183.591116 
L 119.127426 180.550952 
L 120.332913 175.98918 
L 122.743964 164.388642 
L 125.155014 154.474013 
L 126.360578 146.25606 
L 127.566141 133.803532 
L 129.977191 102.179612 
L 131.182679 84.540854 
L 133.593729 43.822057 
L 134.799292 31.852969 
L 136.00478 31.483636 
L 137.210343 39.992166 
L 139.621393 67.035979 
L 140.826957 78.197098 
L 142.032444 87.863445 
L 144.443494 109.678209 
L 145.649058 118.833698 
L 146.854545 124.512526 
L 148.060108 127.927699 
L 149.265595 132.460728 
L 150.471159 137.970028 
L 151.676722 140.847916 
L 152.882209 139.127437 
L 154.087773 134.215509 
L 155.29326 129.947447 
L 156.498823 128.474609 
L 157.70431 129.575139 
L 158.909874 133.329718 
L 160.115361 137.831128 
L 161.320924 141.36455 
L 162.526488 145.824891 
L 163.731975 153.695387 
L 164.937538 163.471256 
L 166.143025 171.994201 
L 167.348589 177.978424 
L 168.554076 181.523846 
L 169.759639 182.978121 
L 170.965126 182.55821 
L 172.17069 180.499172 
L 173.376253 177.646258 
L 174.58174 175.748726 
L 176.992791 175.338937 
L 178.198354 173.154946 
L 179.403841 168.501801 
L 180.609405 162.602073 
L 181.814892 158.479831 
L 183.020455 158.965704 
L 184.226019 162.577 
L 185.431506 165.222152 
L 186.637069 164.922252 
L 187.842557 162.631271 
L 189.04812 161.222283 
L 190.253607 162.866662 
L 192.664658 170.707073 
L 193.870221 172.151851 
L 195.075784 170.410359 
L 196.281272 165.111247 
L 197.486835 156.247812 
L 198.692322 145.54318 
L 199.897886 137.830661 
L 201.103373 136.777442 
L 203.514423 142.478089 
L 204.719987 143.837753 
L 205.92555 142.371565 
L 207.131037 138.592544 
L 208.336601 135.201406 
L 209.542088 135.312772 
L 210.747651 140.480334 
L 213.158702 157.601093 
L 214.364189 163.924635 
L 215.569752 167.705249 
L 216.775316 169.557336 
L 217.980803 169.33919 
L 219.186366 166.352008 
L 220.391853 160.112157 
L 222.802904 141.384209 
L 224.008467 133.937124 
L 226.419518 121.688192 
L 227.625081 116.831509 
L 228.830568 115.08017 
L 230.036131 118.13301 
L 232.447182 134.789896 
L 233.652669 139.141671 
L 234.858232 138.366604 
L 236.063719 134.317657 
L 237.269283 129.284271 
L 238.47477 123.169839 
L 239.680333 115.507022 
L 240.885897 108.996481 
L 242.091384 106.289813 
L 243.296947 106.434081 
L 244.502434 106.938347 
L 245.707998 107.059863 
L 246.913485 107.740424 
L 248.119048 107.821805 
L 249.324535 106.545621 
L 250.530099 104.986328 
L 251.735663 101.848724 
L 252.941149 95.287313 
L 254.146713 86.380749 
L 255.3522 82.068584 
L 256.557764 90.861624 
L 258.968814 128.472334 
L 260.174301 141.54592 
L 261.379864 148.239581 
L 262.585428 149.513489 
L 263.790915 147.568938 
L 264.996479 146.76266 
L 266.201966 150.8224 
L 267.407529 157.957446 
L 268.613016 164.041297 
L 269.81858 167.06805 
L 271.024067 166.617343 
L 272.22963 162.584123 
L 273.435194 155.07296 
L 275.846244 135.132277 
L 277.051731 127.49157 
L 278.257295 124.509143 
L 279.462782 126.650991 
L 280.668345 133.68079 
L 283.079396 156.588851 
L 284.284959 165.719394 
L 285.490446 171.306715 
L 286.69601 173.652375 
L 287.901497 173.28337 
L 290.312547 168.931005 
L 292.723598 166.860148 
L 293.929161 163.382548 
L 295.134725 156.619419 
L 296.340212 147.801819 
L 297.545775 140.257953 
L 298.751262 135.675979 
L 299.956825 132.156733 
L 302.367876 123.945781 
L 303.573363 122.157339 
L 304.778927 124.811504 
L 305.98449 132.245755 
L 308.395541 152.499651 
L 309.601027 158.747593 
L 310.806591 160.661092 
L 312.012078 158.269689 
L 313.217642 152.023678 
L 314.423129 143.746105 
L 315.628692 136.749849 
L 316.834256 131.746214 
L 318.039742 125.878023 
L 320.450793 111.25827 
L 321.656357 105.312608 
L 322.861844 104.513156 
L 324.067407 112.859333 
L 326.478458 142.100064 
L 327.684021 153.84893 
L 328.889508 161.261317 
L 330.095072 164.794681 
L 331.300559 165.692256 
L 332.506122 165.062489 
L 333.711609 162.536893 
L 334.917173 156.643046 
L 336.12266 146.347825 
L 338.53371 118.20774 
L 339.739274 108.33103 
L 340.944837 106.518436 
L 342.150324 115.825193 
L 344.561375 150.609469 
L 345.766938 164.136066 
L 346.972425 173.34362 
L 348.177989 179.120829 
L 349.383476 182.261828 
L 350.589039 183.197889 
L 351.794603 182.05091 
L 353.00009 178.879628 
L 355.41114 169.990571 
L 356.616704 167.466014 
L 357.822191 166.819913 
L 359.027754 167.294742 
L 360.233241 166.740615 
L 361.438805 163.281392 
L 362.644368 157.864975 
L 363.849855 155.035041 
L 365.055419 158.980603 
L 367.466469 177.20429 
L 368.671956 184.189037 
L 369.87752 188.588258 
L 371.083007 190.745162 
L 372.28857 190.952732 
L 373.494134 189.490978 
L 374.699621 187.201275 
L 375.905184 185.935732 
L 377.110671 187.014467 
L 378.316235 189.798893 
L 381.932772 200.568827 
L 383.138336 203.249611 
L 384.343899 205.23644 
L 385.549386 206.696041 
L 386.75495 207.786093 
L 387.960437 208.62032 
L 389.166 209.274915 
L 391.577051 210.230779 
L 393.988101 210.892556 
L 397.604715 211.573299 
L 402.426816 212.159448 
L 408.454481 212.619824 
L 416.893196 213.000649 
L 427.742885 213.250017 
L 442.209264 213.338349 
L 456.675644 213.209379 
L 468.730896 212.90626 
L 478.375175 212.461276 
L 485.608326 211.916444 
L 490.430427 211.367144 
L 494.047041 210.772182 
L 496.458092 210.216991 
L 498.869142 209.426008 
L 500.074706 208.880259 
L 501.280192 208.175144 
L 502.485756 207.245938 
L 503.691243 206.039538 
L 504.896807 204.634914 
L 506.10237 203.455173 
L 507.307857 203.073071 
L 509.718908 203.794649 
L 510.924471 203.891914 
L 512.129958 203.612783 
L 513.335522 202.971407 
L 514.541009 201.966876 
L 515.746572 200.554097 
L 516.952059 198.63008 
L 518.157623 196.013887 
L 519.363186 192.415425 
L 520.568673 187.408826 
L 521.774237 180.502491 
L 524.185287 162.304642 
L 525.390774 156.109786 
L 526.596338 154.731863 
L 527.801825 156.47556 
L 529.007388 159.324314 
L 530.212952 160.909806 
L 531.418439 159.176768 
L 532.624002 153.169303 
L 533.829489 142.863639 
L 536.24054 117.170039 
L 538.65159 93.951859 
L 539.857154 84.650936 
L 541.062717 79.790811 
L 542.268204 77.296665 
L 543.473768 72.007703 
L 544.204687 65.911935 
L 544.204687 65.911935 
" clip-path="url(#p1c1d165532)" style="fill: none; stroke: #9aa3b4; stroke-width: 1.3; stroke-linecap: square"/>
   </g>
   <g id="line2d_16">
    <path d="M -1 87.16562 
L -0.220147 89.046464 
L 2.191132 106.691931 
L 3.396772 112.552655 
L 5.807287 118.99745 
L 7.012927 123.568398 
L 9.424207 136.396559 
L 10.629847 141.392202 
L 11.835487 145.136979 
L 13.041127 149.884105 
L 14.246003 156.782413 
L 16.657282 171.899164 
L 17.862922 177.63868 
L 19.068562 181.461834 
L 20.274202 183.761005 
L 21.479842 185.371268 
L 22.684718 186.571298 
L 23.890358 186.894783 
L 25.095997 186.096404 
L 27.507277 182.727802 
L 28.712917 181.7213 
L 29.918557 181.789688 
L 32.329072 183.046171 
L 33.534712 183.327333 
L 34.740352 182.591182 
L 35.945992 180.180517 
L 37.151633 176.281584 
L 38.357273 172.889489 
L 39.562148 172.44489 
L 41.973427 176.473583 
L 43.179067 177.637718 
L 44.384707 177.408768 
L 46.795988 173.802634 
L 48.000862 174.426165 
L 49.206502 178.038441 
L 50.412142 182.172211 
L 51.617782 185.208536 
L 52.823422 187.372197 
L 54.029063 189.140296 
L 55.234703 190.23984 
L 56.439577 190.316583 
L 57.645217 189.442004 
L 58.850857 187.854324 
L 60.056497 185.607417 
L 61.262137 183.052757 
L 62.467778 181.111607 
L 64.878292 179.283023 
L 66.083932 177.355739 
L 67.289572 173.716727 
L 68.495212 168.391923 
L 69.700699 161.840517 
L 70.906186 154.674984 
L 72.11175 146.418879 
L 73.317314 136.798152 
L 74.522801 128.551673 
L 75.728364 124.463406 
L 76.933851 122.63022 
L 78.139414 119.079064 
L 79.344901 111.804656 
L 80.550465 99.850968 
L 82.961516 65.871745 
L 84.167079 54.380087 
L 85.372566 49.43444 
L 86.578129 48.172608 
L 87.783616 51.085731 
L 88.98918 62.269543 
L 91.400231 98.086737 
L 92.605718 109.462653 
L 93.811281 114.7851 
L 95.016845 116.679307 
L 96.222331 118.252018 
L 97.427895 120.320069 
L 98.633382 122.667498 
L 99.838946 127.15724 
L 102.249996 140.675646 
L 103.455483 145.355102 
L 105.86661 152.574439 
L 107.072097 156.546673 
L 108.277661 160.984262 
L 111.894198 176.80968 
L 113.099762 180.166043 
L 114.305249 182.140995 
L 115.510812 183.20899 
L 116.716376 183.476629 
L 117.921863 182.647093 
L 119.127426 180.409788 
L 120.332913 176.558889 
L 121.538477 171.219734 
L 122.743964 165.341772 
L 125.155014 154.966086 
L 126.360578 147.423095 
L 127.566141 135.854199 
L 129.977191 105.060883 
L 131.182679 88.317425 
L 133.593729 50.388077 
L 134.799292 37.982277 
L 136.00478 35.684027 
L 137.210343 42.096095 
L 138.415906 53.756813 
L 139.621393 66.872577 
L 140.826957 78.042038 
L 143.238007 98.208836 
L 144.443494 108.529551 
L 145.649058 116.988552 
L 146.854545 122.708625 
L 148.060108 126.907907 
L 150.471159 136.908351 
L 151.676722 139.639112 
L 152.882209 138.674916 
L 155.29326 132.072436 
L 156.498823 131.067753 
L 157.70431 132.154633 
L 158.909874 135.141144 
L 160.115361 138.805475 
L 161.320924 141.934154 
L 162.526488 145.920797 
L 163.731975 152.826572 
L 166.143025 169.629406 
L 167.348589 175.574444 
L 168.554076 179.134258 
L 169.759639 180.494727 
L 170.965126 180.124233 
L 172.17069 178.797571 
L 174.58174 175.865313 
L 175.787304 174.788555 
L 176.992791 173.54213 
L 178.198354 171.382542 
L 179.403841 167.779162 
L 180.609405 163.287401 
L 181.814892 159.891981 
L 183.020455 159.61163 
L 184.226019 161.665401 
L 185.431506 163.381808 
L 186.637069 163.453463 
L 187.842557 162.325876 
L 189.04812 161.68044 
L 190.253607 163.144825 
L 191.45917 166.206562 
L 192.664658 168.764902 
L 193.870221 169.563444 
L 195.075784 168.383651 
L 196.281272 164.61327 
L 197.486835 157.599337 
L 198.692322 148.418443 
L 199.897886 141.03407 
L 201.103373 138.973719 
L 202.308936 140.652953 
L 203.514423 142.941344 
L 204.719987 144.167532 
L 205.92555 143.233438 
L 208.336601 137.262866 
L 209.542088 136.782809 
L 210.747651 140.770328 
L 213.158702 156.212984 
L 214.364189 161.742499 
L 215.569752 164.513595 
L 216.775316 165.678564 
L 217.980803 165.950561 
L 219.186366 164.531936 
L 220.391853 160.213273 
L 221.597417 152.826397 
L 222.802904 144.076527 
L 224.008467 136.448829 
L 226.419518 123.743993 
L 227.625081 119.007892 
L 228.830568 117.114619 
L 230.036131 119.424944 
L 232.447182 133.51348 
L 233.652669 137.191228 
L 234.858232 136.318096 
L 236.063719 132.597237 
L 237.269283 127.990936 
L 238.47477 122.703025 
L 239.680333 116.271297 
L 240.885897 110.570301 
L 242.091384 108.008367 
L 243.296947 108.021843 
L 244.502434 108.558603 
L 246.913485 108.785126 
L 248.119048 108.326654 
L 250.530099 105.004413 
L 251.735663 102.187371 
L 252.941149 96.669553 
L 254.146713 89.274737 
L 255.3522 85.891008 
L 256.557764 93.971402 
L 258.968814 128.720034 
L 260.174301 140.692331 
L 261.379864 146.71844 
L 262.585428 148.216013 
L 263.790915 147.225915 
L 264.996479 146.805946 
L 266.201966 150.022481 
L 268.613016 161.489561 
L 269.81858 164.226477 
L 271.024067 163.70006 
L 272.22963 160.235336 
L 273.435194 154.25029 
L 274.640681 146.07294 
L 275.846244 137.043168 
L 277.051731 129.832756 
L 278.257295 127.099895 
L 279.462782 129.429122 
L 280.668345 136.489315 
L 283.079396 157.726419 
L 284.284959 165.526905 
L 285.490446 169.880687 
L 286.69601 171.434205 
L 287.901497 171.085547 
L 291.518111 167.000314 
L 292.723598 164.840551 
L 293.929161 161.301272 
L 295.134725 156.122387 
L 297.545775 142.632274 
L 298.751262 137.681843 
L 301.162312 130.017043 
L 302.367876 126.788199 
L 303.573363 125.911684 
L 304.778927 128.752236 
L 305.98449 135.4956 
L 308.395541 153.770175 
L 309.601027 159.640717 
L 310.806591 161.415601 
L 312.012078 158.999948 
L 313.217642 152.810996 
L 314.423129 144.59281 
L 315.628692 137.445403 
L 316.834256 132.145532 
L 318.039742 126.117789 
L 320.450793 111.750869 
L 321.656357 106.733934 
L 322.861844 106.655237 
L 324.067407 114.390508 
L 327.684021 152.421421 
L 328.889508 160.086868 
L 330.095072 163.969986 
L 331.300559 165.020801 
L 332.506122 164.302082 
L 333.711609 161.641027 
L 334.917173 155.698509 
L 336.12266 145.569607 
L 338.53371 119.268951 
L 339.739274 110.584535 
L 340.944837 109.459795 
L 342.150324 118.068314 
L 344.561375 149.446402 
L 345.766938 162.55223 
L 346.972425 172.004468 
L 348.177989 178.140881 
L 349.383476 181.555832 
L 350.589039 182.665376 
L 351.794603 181.635772 
L 353.00009 178.624794 
L 355.41114 170.463568 
L 356.616704 168.003322 
L 357.822191 167.054865 
L 359.027754 167.192325 
L 360.233241 166.569069 
L 361.438805 163.312077 
L 362.644368 158.256266 
L 363.849855 155.544441 
L 365.055419 159.008494 
L 368.671956 183.626112 
L 369.87752 188.122803 
L 371.083007 190.333594 
L 372.28857 190.555817 
L 373.494134 189.116704 
L 374.699621 186.93657 
L 375.905184 185.843559 
L 377.110671 187.008984 
L 378.316235 189.803496 
L 381.932772 200.633342 
L 383.138336 203.2756 
L 384.343899 205.220974 
L 385.549386 206.645398 
L 386.75495 207.705705 
L 387.960437 208.512746 
L 389.166 209.139993 
L 391.577051 210.030929 
L 393.988101 210.595089 
L 396.399152 210.909782 
L 398.810202 210.948543 
L 400.015766 210.821182 
L 401.221253 210.561031 
L 403.632303 209.823005 
L 404.837867 209.800481 
L 406.04343 210.220281 
L 408.454481 211.351706 
L 410.865531 212.052223 
L 413.276582 212.438233 
L 416.893196 212.761112 
L 422.920784 213.037026 
L 432.565062 213.223509 
L 444.620315 213.228078 
L 454.264593 213.03232 
L 460.292181 212.689636 
L 462.703308 212.416546 
L 465.114359 211.949132 
L 466.319846 211.57975 
L 467.525409 211.059054 
L 468.730896 210.324425 
L 471.141947 208.275606 
L 472.34751 207.64109 
L 473.553074 207.924772 
L 475.964124 209.768908 
L 477.169611 210.473966 
L 478.375175 210.946494 
L 479.580662 211.247327 
L 481.991712 211.533719 
L 484.402839 211.585454 
L 488.019377 211.428861 
L 491.635991 211.072257 
L 495.252605 210.493728 
L 497.663655 209.917416 
L 500.074706 209.062901 
L 501.280192 208.457799 
L 502.485756 207.665131 
L 503.691243 206.618207 
L 506.10237 203.907712 
L 507.307857 203.012931 
L 508.513421 202.984469 
L 509.718908 203.395407 
L 510.924471 203.664487 
L 512.129958 203.568301 
L 513.335522 203.088338 
L 514.541009 202.233728 
L 515.746572 200.978628 
L 516.952059 199.24252 
L 518.157623 196.872732 
L 519.363186 193.617695 
L 520.568673 189.100446 
L 521.774237 182.861978 
L 522.979724 174.718008 
L 524.185287 165.762914 
L 525.390774 158.855575 
L 526.596338 155.80725 
L 527.801825 155.798616 
L 530.212952 159.621069 
L 531.418439 159.061534 
L 532.624002 154.471971 
L 533.829489 145.470842 
L 537.446103 108.914109 
L 538.65159 97.80281 
L 539.857154 88.375354 
L 541.062717 82.509029 
L 542.268204 78.922871 
L 543.473768 73.94858 
L 544.204687 68.685526 
L 544.204687 68.685526 
" clip-path="url(#p1c1d165532)" style="fill: none; stroke: #7a3bb0; stroke-width: 1.7; stroke-linecap: square"/>
   </g>
   <g id="patch_4">
    <path d="M 58.523438 223.92 
L 58.523438 22.32 
" style="fill: none; stroke: #000000; stroke-width: 0.8; stroke-linejoin: miter; stroke-linecap: square"/>
   </g>
   <g id="patch_5">
    <path d="M 58.523438 223.92 
L 532.823438 223.92 
" style="fill: none; stroke: #000000; stroke-width: 0.8; stroke-linejoin: miter; stroke-linecap: square"/>
   </g>
   <g id="text_9">
    <!-- MoS$_2$ S-vacancy spectral function — Hermitian $M$, $\omega_0=$ VBM -->
    <g transform="translate(113.993438 16.32) scale(0.12 -0.12)">
     <defs>
      <path id="DejaVuSans-4d" d="M 628 4666 
L 1569 4666 
L 2759 1491 
L 3956 4666 
L 4897 4666 
L 4897 0 
L 4281 0 
L 4281 4097 
L 3078 897 
L 2444 897 
L 1241 4097 
L 1241 0 
L 628 0 
L 628 4666 
z
" transform="scale(0.015625)"/>
      <path id="DejaVuSans-6f" d="M 1959 3097 
Q 1497 3097 1228 2736 
Q 959 2375 959 1747 
Q 959 1119 1226 758 
Q 1494 397 1959 397 
Q 2419 397 2687 759 
Q 2956 1122 2956 1747 
Q 2956 2369 2687 2733 
Q 2419 3097 1959 3097 
z
M 1959 3584 
Q 2709 3584 3137 3096 
Q 3566 2609 3566 1747 
Q 3566 888 3137 398 
Q 2709 -91 1959 -91 
Q 1206 -91 779 398 
Q 353 888 353 1747 
Q 353 2609 779 3096 
Q 1206 3584 1959 3584 
z
" transform="scale(0.015625)"/>
      <path id="DejaVuSans-2d" d="M 313 2009 
L 1997 2009 
L 1997 1497 
L 313 1497 
L 313 2009 
z
" transform="scale(0.015625)"/>
      <path id="DejaVuSans-76" d="M 191 3500 
L 800 3500 
L 1894 563 
L 2988 3500 
L 3597 3500 
L 2284 0 
L 1503 0 
L 191 3500 
z
" transform="scale(0.015625)"/>
      <path id="DejaVuSans-6e" d="M 3513 2113 
L 3513 0 
L 2938 0 
L 2938 2094 
Q 2938 2591 2744 2837 
Q 2550 3084 2163 3084 
Q 1697 3084 1428 2787 
Q 1159 2491 1159 1978 
L 1159 0 
L 581 0 
L 581 3500 
L 1159 3500 
L 1159 2956 
Q 1366 3272 1645 3428 
Q 1925 3584 2291 3584 
Q 2894 3584 3203 3211 
Q 3513 2838 3513 2113 
z
" transform="scale(0.015625)"/>
      <path id="DejaVuSans-79" d="M 2059 -325 
Q 1816 -950 1584 -1140 
Q 1353 -1331 966 -1331 
L 506 -1331 
L 506 -850 
L 844 -850 
Q 1081 -850 1212 -737 
Q 1344 -625 1503 -206 
L 1606 56 
L 191 3500 
L 800 3500 
L 1894 763 
L 2988 3500 
L 3597 3500 
L 2059 -325 
z
" transform="scale(0.015625)"/>
      <path id="DejaVuSans-70" d="M 1159 525 
L 1159 -1331 
L 581 -1331 
L 581 3500 
L 1159 3500 
L 1159 2969 
Q 1341 3281 1617 3432 
Q 1894 3584 2278 3584 
Q 2916 3584 3314 3078 
Q 3713 2572 3713 1747 
Q 3713 922 3314 415 
Q 2916 -91 2278 -91 
Q 1894 -91 1617 61 
Q 1341 213 1159 525 
z
M 3116 1747 
Q 3116 2381 2855 2742 
Q 2594 3103 2138 3103 
Q 1681 3103 1420 2742 
Q 1159 2381 1159 1747 
Q 1159 1113 1420 752 
Q 1681 391 2138 391 
Q 2594 391 2855 752 
Q 3116 1113 3116 1747 
z
" transform="scale(0.015625)"/>
      <path id="DejaVuSans-72" d="M 2631 2963 
Q 2534 3019 2420 3045 
Q 2306 3072 2169 3072 
Q 1681 3072 1420 2755 
Q 1159 2438 1159 1844 
L 1159 0 
L 581 0 
L 581 3500 
L 1159 3500 
L 1159 2956 
Q 1341 3275 1631 3429 
Q 1922 3584 2338 3584 
Q 2397 3584 2469 3576 
Q 2541 3569 2628 3553 
L 2631 2963 
z
" transform="scale(0.015625)"/>
      <path id="DejaVuSans-66" d="M 2375 4863 
L 2375 4384 
L 1825 4384 
Q 1516 4384 1395 4259 
Q 1275 4134 1275 3809 
L 1275 3500 
L 2222 3500 
L 2222 3053 
L 1275 3053 
L 1275 0 
L 697 0 
L 697 3053 
L 147 3053 
L 147 3500 
L 697 3500 
L 697 3744 
Q 697 4328 969 4595 
Q 1241 4863 1831 4863 
L 2375 4863 
z
" transform="scale(0.015625)"/>
      <path id="DejaVuSans-75" d="M 544 1381 
L 544 3500 
L 1119 3500 
L 1119 1403 
Q 1119 906 1312 657 
Q 1506 409 1894 409 
Q 2359 409 2629 706 
Q 2900 1003 2900 1516 
L 2900 3500 
L 3475 3500 
L 3475 0 
L 2900 0 
L 2900 538 
Q 2691 219 2414 64 
Q 2138 -91 1772 -91 
Q 1169 -91 856 284 
Q 544 659 544 1381 
z
M 1991 3584 
L 1991 3584 
z
" transform="scale(0.015625)"/>
      <path id="DejaVuSans-69" d="M 603 3500 
L 1178 3500 
L 1178 0 
L 603 0 
L 603 3500 
z
M 603 4863 
L 1178 4863 
L 1178 4134 
L 603 4134 
L 603 4863 
z
" transform="scale(0.015625)"/>
      <path id="DejaVuSansDisplay-2014" d="M 313 1978 
L 6088 1978 
L 6088 1528 
L 313 1528 
L 313 1978 
z
" transform="scale(0.015625)"/>
      <path id="DejaVuSans-48" d="M 628 4666 
L 1259 4666 
L 1259 2753 
L 3553 2753 
L 3553 4666 
L 4184 4666 
L 4184 0 
L 3553 0 
L 3553 2222 
L 1259 2222 
L 1259 0 
L 628 0 
L 628 4666 
z
" transform="scale(0.015625)"/>
      <path id="DejaVuSans-6d" d="M 3328 2828 
Q 3544 3216 3844 3400 
Q 4144 3584 4550 3584 
Q 5097 3584 5394 3201 
Q 5691 2819 5691 2113 
L 5691 0 
L 5113 0 
L 5113 2094 
Q 5113 2597 4934 2840 
Q 4756 3084 4391 3084 
Q 3944 3084 3684 2787 
Q 3425 2491 3425 1978 
L 3425 0 
L 2847 0 
L 2847 2094 
Q 2847 2600 2669 2842 
Q 2491 3084 2119 3084 
Q 1678 3084 1418 2786 
Q 1159 2488 1159 1978 
L 1159 0 
L 581 0 
L 581 3500 
L 1159 3500 
L 1159 2956 
Q 1356 3278 1631 3431 
Q 1906 3584 2284 3584 
Q 2666 3584 2933 3390 
Q 3200 3197 3328 2828 
z
" transform="scale(0.015625)"/>
      <path id="DejaVuSans-Oblique-4d" d="M 1081 4666 
L 2028 4666 
L 2572 1522 
L 4378 4666 
L 5350 4666 
L 4441 0 
L 3828 0 
L 4622 4091 
L 2791 897 
L 2175 897 
L 1581 4103 
L 788 0 
L 172 0 
L 1081 4666 
z
" transform="scale(0.015625)"/>
      <path id="DejaVuSans-2c" d="M 750 794 
L 1409 794 
L 1409 256 
L 897 -744 
L 494 -744 
L 750 256 
L 750 794 
z
" transform="scale(0.015625)"/>
      <path id="DejaVuSans-Oblique-3c9" d="M 1369 -91 
Q 72 -91 434 1766 
Q 575 2500 1256 3500 
L 1875 3500 
Q 1231 2500 1088 1750 
Q 819 397 1519 397 
Q 2166 397 2478 2078 
L 3009 2078 
Q 2669 388 3316 397 
Q 4013 403 4275 1750 
Q 4419 2500 4169 3500 
L 4788 3500 
Q 5075 2500 4934 1766 
Q 4578 -94 3278 -91 
Q 2428 -88 2503 844 
Q 2194 -91 1369 -91 
z
" transform="scale(0.015625)"/>
      <path id="DejaVuSans-3d" d="M 678 2906 
L 4684 2906 
L 4684 2381 
L 678 2381 
L 678 2906 
z
M 678 1631 
L 4684 1631 
L 4684 1100 
L 678 1100 
L 678 1631 
z
" transform="scale(0.015625)"/>
      <path id="DejaVuSans-42" d="M 1259 2228 
L 1259 519 
L 2272 519 
Q 2781 519 3026 730 
Q 3272 941 3272 1375 
Q 3272 1813 3026 2020 
Q 2781 2228 2272 2228 
L 1259 2228 
z
M 1259 4147 
L 1259 2741 
L 2194 2741 
Q 2656 2741 2882 2914 
Q 3109 3088 3109 3444 
Q 3109 3797 2882 3972 
Q 2656 4147 2194 4147 
L 1259 4147 
z
M 628 4666 
L 2241 4666 
Q 2963 4666 3353 4366 
Q 3744 4066 3744 3513 
Q 3744 3084 3544 2831 
Q 3344 2578 2956 2516 
Q 3422 2416 3680 2098 
Q 3938 1781 3938 1306 
Q 3938 681 3513 340 
Q 3088 0 2303 0 
L 628 0 
L 628 4666 
z
" transform="scale(0.015625)"/>
     </defs>
     <use xlink:href="#DejaVuSans-4d" transform="translate(0 0.015625)"/>
     <use xlink:href="#DejaVuSans-6f" transform="translate(86.279297 0.015625)"/>
     <use xlink:href="#DejaVuSans-53" transform="translate(147.460938 0.015625)"/>
     <use xlink:href="#DejaVuSans-32" transform="translate(211.894531 -16.390625) scale(0.7)"/>
     <use xlink:href="#DejaVuSans-20" transform="translate(259.165039 0.015625)"/>
     <use xlink:href="#DejaVuSans-53" transform="translate(290.952148 0.015625)"/>
     <use xlink:href="#DejaVuSans-2d" transform="translate(354.428711 0.015625)"/>
     <use xlink:href="#DejaVuSans-76" transform="translate(390.512695 0.015625)"/>
     <use xlink:href="#DejaVuSans-61" transform="translate(449.692383 0.015625)"/>
     <use xlink:href="#DejaVuSans-63" transform="translate(510.97168 0.015625)"/>
     <use xlink:href="#DejaVuSans-61" transform="translate(565.952148 0.015625)"/>
     <use xlink:href="#DejaVuSans-6e" transform="translate(627.231445 0.015625)"/>
     <use xlink:href="#DejaVuSans-63" transform="translate(690.610352 0.015625)"/>
     <use xlink:href="#DejaVuSans-79" transform="translate(745.59082 0.015625)"/>
     <use xlink:href="#DejaVuSans-20" transform="translate(804.770508 0.015625)"/>
     <use xlink:href="#DejaVuSans-73" transform="translate(836.557617 0.015625)"/>
     <use xlink:href="#DejaVuSans-70" transform="translate(888.657227 0.015625)"/>
     <use xlink:href="#DejaVuSans-65" transform="translate(952.133789 0.015625)"/>
     <use xlink:href="#DejaVuSans-63" transform="translate(1013.657227 0.015625)"/>
     <use xlink:href="#DejaVuSans-74" transform="translate(1068.637695 0.015625)"/>
     <use xlink:href="#DejaVuSans-72" transform="translate(1107.84668 0.015625)"/>
     <use xlink:href="#DejaVuSans-61" transform="translate(1148.959961 0.015625)"/>
     <use xlink:href="#DejaVuSans-6c" transform="translate(1210.239258 0.015625)"/>
     <use xlink:href="#DejaVuSans-20" transform="translate(1238.022461 0.015625)"/>
     <use xlink:href="#DejaVuSans-66" transform="translate(1269.80957 0.015625)"/>
     <use xlink:href="#DejaVuSans-75" transform="translate(1305.014648 0.015625)"/>
     <use xlink:href="#DejaVuSans-6e" transform="translate(1368.393555 0.015625)"/>
     <use xlink:href="#DejaVuSans-63" transform="translate(1431.772461 0.015625)"/>
     <use xlink:href="#DejaVuSans-74" transform="translate(1486.75293 0.015625)"/>
     <use xlink:href="#DejaVuSans-69" transform="translate(1525.961914 0.015625)"/>
     <use xlink:href="#DejaVuSans-6f" transform="translate(1553.745117 0.015625)"/>
     <use xlink:href="#DejaVuSans-6e" transform="translate(1614.926758 0.015625)"/>
     <use xlink:href="#DejaVuSans-20" transform="translate(1678.305664 0.015625)"/>
     <use xlink:href="#DejaVuSansDisplay-2014" transform="translate(1710.092773 0.015625)"/>
     <use xlink:href="#DejaVuSans-20" transform="translate(1810.092773 0.015625)"/>
     <use xlink:href="#DejaVuSans-48" transform="translate(1841.879883 0.015625)"/>
     <use xlink:href="#DejaVuSans-65" transform="translate(1917.075195 0.015625)"/>
     <use xlink:href="#DejaVuSans-72" transform="translate(1978.598633 0.015625)"/>
     <use xlink:href="#DejaVuSans-6d" transform="translate(2019.711914 0.015625)"/>
     <use xlink:href="#DejaVuSans-69" transform="translate(2117.124023 0.015625)"/>
     <use xlink:href="#DejaVuSans-74" transform="translate(2144.907227 0.015625)"/>
     <use xlink:href="#DejaVuSans-69" transform="translate(2184.116211 0.015625)"/>
     <use xlink:href="#DejaVuSans-61" transform="translate(2211.899414 0.015625)"/>
     <use xlink:href="#DejaVuSans-6e" transform="translate(2273.178711 0.015625)"/>
     <use xlink:href="#DejaVuSans-20" transform="translate(2336.557617 0.015625)"/>
     <use xlink:href="#DejaVuSans-Oblique-4d" transform="translate(2368.344727 0.015625)"/>
     <use xlink:href="#DejaVuSans-2c" transform="translate(2454.624023 0.015625)"/>
     <use xlink:href="#DejaVuSans-20" transform="translate(2486.411133 0.015625)"/>
     <use xlink:href="#DejaVuSans-Oblique-3c9" transform="translate(2518.198242 0.015625)"/>
     <use xlink:href="#DejaVuSans-30" transform="translate(2601.938477 -16.390625) scale(0.7)"/>
     <use xlink:href="#DejaVuSans-3d" transform="translate(2668.691406 0.015625)"/>
     <use xlink:href="#DejaVuSans-20" transform="translate(2771.962891 0.015625)"/>
     <use xlink:href="#DejaVuSans-56" transform="translate(2803.75 0.015625)"/>
     <use xlink:href="#DejaVuSans-42" transform="translate(2872.158203 0.015625)"/>
     <use xlink:href="#DejaVuSans-4d" transform="translate(2940.761719 0.015625)"/>
    </g>
   </g>
   <g id="legend_1">
    <g id="line2d_17">
     <path d="M 66.623437 197.587969 
L 75.623437 197.587969 
L 84.623437 197.587969 
" style="fill: none; stroke: #9aa3b4; stroke-width: 1.3; stroke-linecap: square"/>
    </g>
    <g id="text_10">
     <!-- bare active DOS -->
     <g transform="translate(91.823437 200.737969) scale(0.09 -0.09)">
      <defs>
       <path id="DejaVuSans-62" d="M 3116 1747 
Q 3116 2381 2855 2742 
Q 2594 3103 2138 3103 
Q 1681 3103 1420 2742 
Q 1159 2381 1159 1747 
Q 1159 1113 1420 752 
Q 1681 391 2138 391 
Q 2594 391 2855 752 
Q 3116 1113 3116 1747 
z
M 1159 2969 
Q 1341 3281 1617 3432 
Q 1894 3584 2278 3584 
Q 2916 3584 3314 3078 
Q 3713 2572 3713 1747 
Q 3713 922 3314 415 
Q 2916 -91 2278 -91 
Q 1894 -91 1617 61 
Q 1341 213 1159 525 
L 1159 0 
L 581 0 
L 581 4863 
L 1159 4863 
L 1159 2969 
z
" transform="scale(0.015625)"/>
      </defs>
      <use xlink:href="#DejaVuSans-62"/>
      <use xlink:href="#DejaVuSans-61" transform="translate(63.476562 0)"/>
      <use xlink:href="#DejaVuSans-72" transform="translate(124.755859 0)"/>
      <use xlink:href="#DejaVuSans-65" transform="translate(163.619141 0)"/>
      <use xlink:href="#DejaVuSans-20" transform="translate(225.142578 0)"/>
      <use xlink:href="#DejaVuSans-61" transform="translate(256.929688 0)"/>
      <use xlink:href="#DejaVuSans-63" transform="translate(318.208984 0)"/>
      <use xlink:href="#DejaVuSans-74" transform="translate(373.189453 0)"/>
      <use xlink:href="#DejaVuSans-69" transform="translate(412.398438 0)"/>
      <use xlink:href="#DejaVuSans-76" transform="translate(440.181641 0)"/>
      <use xlink:href="#DejaVuSans-65" transform="translate(499.361328 0)"/>
      <use xlink:href="#DejaVuSans-20" transform="translate(560.884766 0)"/>
      <use xlink:href="#DejaVuSans-44" transform="translate(592.671875 0)"/>
      <use xlink:href="#DejaVuSans-4f" transform="translate(669.673828 0)"/>
      <use xlink:href="#DejaVuSans-53" transform="translate(748.384766 0)"/>
     </g>
    </g>
    <g id="line2d_18">
     <path d="M 66.623437 210.798281 
L 75.623437 210.798281 
L 84.623437 210.798281 
" style="fill: none; stroke: #7a3bb0; stroke-width: 1.7; stroke-linecap: square"/>
    </g>
    <g id="text_11">
     <!-- defect-dressed $A(\omega)$ -->
     <g transform="translate(91.823437 213.948281) scale(0.09 -0.09)">
      <defs>
       <path id="DejaVuSans-64" d="M 2906 2969 
L 2906 4863 
L 3481 4863 
L 3481 0 
L 2906 0 
L 2906 525 
Q 2725 213 2448 61 
Q 2172 -91 1784 -91 
Q 1150 -91 751 415 
Q 353 922 353 1747 
Q 353 2572 751 3078 
Q 1150 3584 1784 3584 
Q 2172 3584 2448 3432 
Q 2725 3281 2906 2969 
z
M 947 1747 
Q 947 1113 1208 752 
Q 1469 391 1925 391 
Q 2381 391 2643 752 
Q 2906 1113 2906 1747 
Q 2906 2381 2643 2742 
Q 2381 3103 1925 3103 
Q 1469 3103 1208 2742 
Q 947 2381 947 1747 
z
" transform="scale(0.015625)"/>
       <path id="DejaVuSans-Oblique-41" d="M 2356 4666 
L 3072 4666 
L 3938 0 
L 3278 0 
L 3084 1197 
L 984 1197 
L 325 0 
L -341 0 
L 2356 4666 
z
M 2584 4044 
L 1275 1722 
L 2988 1722 
L 2584 4044 
z
" transform="scale(0.015625)"/>
      </defs>
      <use xlink:href="#DejaVuSans-64" transform="translate(0 0.015625)"/>
      <use xlink:href="#DejaVuSans-65" transform="translate(63.476562 0.015625)"/>
      <use xlink:href="#DejaVuSans-66" transform="translate(125 0.015625)"/>
      <use xlink:href="#DejaVuSans-65" transform="translate(160.205078 0.015625)"/>
      <use xlink:href="#DejaVuSans-63" transform="translate(221.728516 0.015625)"/>
      <use xlink:href="#DejaVuSans-74" transform="translate(276.708984 0.015625)"/>
      <use xlink:href="#DejaVuSans-2d" transform="translate(315.917969 0.015625)"/>
      <use xlink:href="#DejaVuSans-64" transform="translate(352.001953 0.015625)"/>
      <use xlink:href="#DejaVuSans-72" transform="translate(415.478516 0.015625)"/>
      <use xlink:href="#DejaVuSans-65" transform="translate(456.591797 0.015625)"/>
      <use xlink:href="#DejaVuSans-73" transform="translate(518.115234 0.015625)"/>
      <use xlink:href="#DejaVuSans-73" transform="translate(570.214844 0.015625)"/>
      <use xlink:href="#DejaVuSans-65" transform="translate(622.314453 0.015625)"/>
      <use xlink:href="#DejaVuSans-64" transform="translate(683.837891 0.015625)"/>
      <use xlink:href="#DejaVuSans-20" transform="translate(747.314453 0.015625)"/>
      <use xlink:href="#DejaVuSans-Oblique-41" transform="translate(779.101562 0.015625)"/>
      <use xlink:href="#DejaVuSans-28" transform="translate(847.509766 0.015625)"/>
      <use xlink:href="#DejaVuSans-Oblique-3c9" transform="translate(886.523438 0.015625)"/>
      <use xlink:href="#DejaVuSans-29" transform="translate(970.263672 0.015625)"/>
     </g>
    </g>
   </g>
  </g>
  <g id="axes_2">
   <g id="patch_6">
    <path d="M 58.523438 354.96 
L 532.823438 354.96 
L 532.823438 254.16 
L 58.523438 254.16 
L 58.523438 354.96 
z
" style="fill: none"/>
   </g>
   <g id="patch_7">
    <path d="M 379.823438 354.96 
L 506.583938 354.96 
L 506.583938 254.16 
L 379.823438 254.16 
z
" clip-path="url(#p9bed96ebe6)" style="fill: #eef0f7; stroke: #eef0f7; stroke-linejoin: miter"/>
   </g>
   <g id="matplotlib.axis_3">
    <g id="xtick_8">
     <g id="line2d_19">
      <g>
       <use xlink:href="#m84cdac8476" x="73.823438" y="354.96" style="stroke: #000000; stroke-width: 0.8"/>
      </g>
     </g>
     <g id="text_12">
      <!-- −4 -->
      <g transform="translate(66.452344 369.558437) scale(0.1 -0.1)">
       <defs>
        <path id="DejaVuSans-2212" d="M 678 2272 
L 4684 2272 
L 4684 1741 
L 678 1741 
L 678 2272 
z
" transform="scale(0.015625)"/>
        <path id="DejaVuSans-34" d="M 2419 4116 
L 825 1625 
L 2419 1625 
L 2419 4116 
z
M 2253 4666 
L 3047 4666 
L 3047 1625 
L 3713 1625 
L 3713 1100 
L 3047 1100 
L 3047 0 
L 2419 0 
L 2419 1100 
L 313 1100 
L 313 1709 
L 2253 4666 
z
" transform="scale(0.015625)"/>
       </defs>
       <use xlink:href="#DejaVuSans-2212"/>
       <use xlink:href="#DejaVuSans-34" transform="translate(83.789062 0)"/>
      </g>
     </g>
    </g>
    <g id="xtick_9">
     <g id="line2d_20">
      <g>
       <use xlink:href="#m84cdac8476" x="150.323438" y="354.96" style="stroke: #000000; stroke-width: 0.8"/>
      </g>
     </g>
     <g id="text_13">
      <!-- −3 -->
      <g transform="translate(142.952344 369.558437) scale(0.1 -0.1)">
       <use xlink:href="#DejaVuSans-2212"/>
       <use xlink:href="#DejaVuSans-33" transform="translate(83.789062 0)"/>
      </g>
     </g>
    </g>
    <g id="xtick_10">
     <g id="line2d_21">
      <g>
       <use xlink:href="#m84cdac8476" x="226.823438" y="354.96" style="stroke: #000000; stroke-width: 0.8"/>
      </g>
     </g>
     <g id="text_14">
      <!-- −2 -->
      <g transform="translate(219.452344 369.558437) scale(0.1 -0.1)">
       <use xlink:href="#DejaVuSans-2212"/>
       <use xlink:href="#DejaVuSans-32" transform="translate(83.789062 0)"/>
      </g>
     </g>
    </g>
    <g id="xtick_11">
     <g id="line2d_22">
      <g>
       <use xlink:href="#m84cdac8476" x="303.323438" y="354.96" style="stroke: #000000; stroke-width: 0.8"/>
      </g>
     </g>
     <g id="text_15">
      <!-- −1 -->
      <g transform="translate(295.952344 369.558437) scale(0.1 -0.1)">
       <use xlink:href="#DejaVuSans-2212"/>
       <use xlink:href="#DejaVuSans-31" transform="translate(83.789062 0)"/>
      </g>
     </g>
    </g>
    <g id="xtick_12">
     <g id="line2d_23">
      <g>
       <use xlink:href="#m84cdac8476" x="379.823438" y="354.96" style="stroke: #000000; stroke-width: 0.8"/>
      </g>
     </g>
     <g id="text_16">
      <!-- 0 -->
      <g transform="translate(376.642188 369.558437) scale(0.1 -0.1)">
       <use xlink:href="#DejaVuSans-30"/>
      </g>
     </g>
    </g>
    <g id="xtick_13">
     <g id="line2d_24">
      <g>
       <use xlink:href="#m84cdac8476" x="456.323438" y="354.96" style="stroke: #000000; stroke-width: 0.8"/>
      </g>
     </g>
     <g id="text_17">
      <!-- 1 -->
      <g transform="translate(453.142188 369.558437) scale(0.1 -0.1)">
       <use xlink:href="#DejaVuSans-31"/>
      </g>
     </g>
    </g>
    <g id="xtick_14">
     <g id="line2d_25">
      <g>
       <use xlink:href="#m84cdac8476" x="532.823438" y="354.96" style="stroke: #000000; stroke-width: 0.8"/>
      </g>
     </g>
     <g id="text_18">
      <!-- 2 -->
      <g transform="translate(529.642188 369.558437) scale(0.1 -0.1)">
       <use xlink:href="#DejaVuSans-32"/>
      </g>
     </g>
    </g>
    <g id="text_19">
     <!-- E − VBM (eV) -->
     <g transform="translate(261.99375 383.236562) scale(0.1 -0.1)">
      <defs>
       <path id="DejaVuSans-45" d="M 628 4666 
L 3578 4666 
L 3578 4134 
L 1259 4134 
L 1259 2753 
L 3481 2753 
L 3481 2222 
L 1259 2222 
L 1259 531 
L 3634 531 
L 3634 0 
L 628 0 
L 628 4666 
z
" transform="scale(0.015625)"/>
      </defs>
      <use xlink:href="#DejaVuSans-45"/>
      <use xlink:href="#DejaVuSans-20" transform="translate(63.183594 0)"/>
      <use xlink:href="#DejaVuSans-2212" transform="translate(94.970703 0)"/>
      <use xlink:href="#DejaVuSans-20" transform="translate(178.759766 0)"/>
      <use xlink:href="#DejaVuSans-56" transform="translate(210.546875 0)"/>
      <use xlink:href="#DejaVuSans-42" transform="translate(278.955078 0)"/>
      <use xlink:href="#DejaVuSans-4d" transform="translate(347.558594 0)"/>
      <use xlink:href="#DejaVuSans-20" transform="translate(433.837891 0)"/>
      <use xlink:href="#DejaVuSans-28" transform="translate(465.625 0)"/>
      <use xlink:href="#DejaVuSans-65" transform="translate(504.638672 0)"/>
      <use xlink:href="#DejaVuSans-56" transform="translate(566.162109 0)"/>
      <use xlink:href="#DejaVuSans-29" transform="translate(634.570312 0)"/>
     </g>
    </g>
   </g>
   <g id="matplotlib.axis_4">
    <g id="ytick_8">
     <g id="line2d_26">
      <g>
       <use xlink:href="#m4ac8858a1a" x="58.523438" y="344.857962" style="stroke: #000000; stroke-width: 0.8"/>
      </g>
     </g>
     <g id="text_20">
      <!-- −0.10 -->
      <g transform="translate(20.878125 348.657181) scale(0.1 -0.1)">
       <use xlink:href="#DejaVuSans-2212"/>
       <use xlink:href="#DejaVuSans-30" transform="translate(83.789062 0)"/>
       <use xlink:href="#DejaVuSans-2e" transform="translate(147.412109 0)"/>
       <use xlink:href="#DejaVuSans-31" transform="translate(179.199219 0)"/>
       <use xlink:href="#DejaVuSans-30" transform="translate(242.822266 0)"/>
      </g>
     </g>
    </g>
    <g id="ytick_9">
     <g id="line2d_27">
      <g>
       <use xlink:href="#m4ac8858a1a" x="58.523438" y="322.870661" style="stroke: #000000; stroke-width: 0.8"/>
      </g>
     </g>
     <g id="text_21">
      <!-- −0.05 -->
      <g transform="translate(20.878125 326.66988) scale(0.1 -0.1)">
       <use xlink:href="#DejaVuSans-2212"/>
       <use xlink:href="#DejaVuSans-30" transform="translate(83.789062 0)"/>
       <use xlink:href="#DejaVuSans-2e" transform="translate(147.412109 0)"/>
       <use xlink:href="#DejaVuSans-30" transform="translate(179.199219 0)"/>
       <use xlink:href="#DejaVuSans-35" transform="translate(242.822266 0)"/>
      </g>
     </g>
    </g>
    <g id="ytick_10">
     <g id="line2d_28">
      <g>
       <use xlink:href="#m4ac8858a1a" x="58.523438" y="300.883361" style="stroke: #000000; stroke-width: 0.8"/>
      </g>
     </g>
     <g id="text_22">
      <!-- 0.00 -->
      <g transform="translate(29.257812 304.682579) scale(0.1 -0.1)">
       <use xlink:href="#DejaVuSans-30"/>
       <use xlink:href="#DejaVuSans-2e" transform="translate(63.623047 0)"/>
       <use xlink:href="#DejaVuSans-30" transform="translate(95.410156 0)"/>
       <use xlink:href="#DejaVuSans-30" transform="translate(159.033203 0)"/>
      </g>
     </g>
    </g>
    <g id="ytick_11">
     <g id="line2d_29">
      <g>
       <use xlink:href="#m4ac8858a1a" x="58.523438" y="278.89606" style="stroke: #000000; stroke-width: 0.8"/>
      </g>
     </g>
     <g id="text_23">
      <!-- 0.05 -->
      <g transform="translate(29.257812 282.695278) scale(0.1 -0.1)">
       <use xlink:href="#DejaVuSans-30"/>
       <use xlink:href="#DejaVuSans-2e" transform="translate(63.623047 0)"/>
       <use xlink:href="#DejaVuSans-30" transform="translate(95.410156 0)"/>
       <use xlink:href="#DejaVuSans-35" transform="translate(159.033203 0)"/>
      </g>
     </g>
    </g>
    <g id="ytick_12">
     <g id="line2d_30">
      <g>
       <use xlink:href="#m4ac8858a1a" x="58.523438" y="256.908759" style="stroke: #000000; stroke-width: 0.8"/>
      </g>
     </g>
     <g id="text_24">
      <!-- 0.10 -->
      <g transform="translate(29.257812 260.707978) scale(0.1 -0.1)">
       <use xlink:href="#DejaVuSans-30"/>
       <use xlink:href="#DejaVuSans-2e" transform="translate(63.623047 0)"/>
       <use xlink:href="#DejaVuSans-31" transform="translate(95.410156 0)"/>
       <use xlink:href="#DejaVuSans-30" transform="translate(159.033203 0)"/>
      </g>
     </g>
    </g>
    <g id="text_25">
     <!-- defect ΔDOS -->
     <g transform="translate(14.798437 336.326406) rotate(-90) scale(0.1 -0.1)">
      <defs>
       <path id="DejaVuSans-394" d="M 2188 4044 
L 906 525 
L 3472 525 
L 2188 4044 
z
M 50 0 
L 1831 4666 
L 2547 4666 
L 4325 0 
L 50 0 
z
" transform="scale(0.015625)"/>
      </defs>
      <use xlink:href="#DejaVuSans-64"/>
      <use xlink:href="#DejaVuSans-65" transform="translate(63.476562 0)"/>
      <use xlink:href="#DejaVuSans-66" transform="translate(125 0)"/>
      <use xlink:href="#DejaVuSans-65" transform="translate(160.205078 0)"/>
      <use xlink:href="#DejaVuSans-63" transform="translate(221.728516 0)"/>
      <use xlink:href="#DejaVuSans-74" transform="translate(276.708984 0)"/>
      <use xlink:href="#DejaVuSans-20" transform="translate(315.917969 0)"/>
      <use xlink:href="#DejaVuSans-394" transform="translate(347.705078 0)"/>
      <use xlink:href="#DejaVuSans-44" transform="translate(416.113281 0)"/>
      <use xlink:href="#DejaVuSans-4f" transform="translate(493.115234 0)"/>
      <use xlink:href="#DejaVuSans-53" transform="translate(571.826172 0)"/>
     </g>
    </g>
   </g>
   <g id="line2d_31">
    <path d="M 58.523438 300.883361 
L 532.823438 300.883361 
" clip-path="url(#p9bed96ebe6)" style="fill: none; stroke: #cccccc; stroke-width: 0.6; stroke-linecap: square"/>
   </g>
   <g id="line2d_32">
    <path d="M -1 325.142364 
L -0.220147 322.982339 
L 2.191132 300.520021 
L 3.396772 300.324964 
L 4.602412 307.26174 
L 5.807287 311.57491 
L 7.012927 311.51645 
L 8.218568 305.478478 
L 9.424207 297.931617 
L 10.629847 299.065523 
L 11.835487 307.019642 
L 13.041127 309.404359 
L 14.246003 303.573677 
L 17.862922 279.976991 
L 19.068562 271.820071 
L 20.274202 265.325128 
L 21.479842 264.702615 
L 22.684718 270.892168 
L 23.890358 280.390444 
L 26.301637 303.699009 
L 27.507277 310.772985 
L 28.712917 306.735571 
L 31.123433 284.305068 
L 32.329072 278.253094 
L 33.534712 281.744251 
L 34.740352 293.636452 
L 35.945992 309.592016 
L 37.151633 323.586031 
L 38.357273 327.164104 
L 39.562148 315.924486 
L 40.767787 298.037227 
L 41.973427 285.679072 
L 43.179067 285.66547 
L 44.384707 297.191187 
L 45.590348 314.196284 
L 46.795988 326.90096 
L 48.000862 326.425401 
L 49.206502 313.960259 
L 50.412142 297.242893 
L 51.617782 282.267267 
L 52.823422 273.991889 
L 54.029063 274.03202 
L 55.234703 278.28662 
L 56.439577 283.211287 
L 57.645217 289.560011 
L 60.056497 310.067773 
L 61.262137 313.361897 
L 62.467778 304.757157 
L 63.673418 292.683293 
L 64.878292 286.400778 
L 66.083932 285.783269 
L 67.289572 288.856223 
L 68.495212 294.236133 
L 69.700699 298.258246 
L 70.906186 300.866173 
L 73.317314 311.550385 
L 74.522801 311.45423 
L 75.728364 307.165695 
L 76.933851 306.312307 
L 78.139414 311.404882 
L 79.344901 319.573015 
L 81.755952 342.599563 
L 82.961516 345.427257 
L 84.167079 336.440397 
L 85.372566 325.937771 
L 86.578129 322.655969 
L 87.783616 323.528117 
L 88.98918 316.49937 
L 91.400231 281.740746 
L 92.605718 273.419498 
L 93.811281 279.38478 
L 96.222331 308.013394 
L 97.427895 319.652952 
L 98.633382 325.849338 
L 99.838946 320.537061 
L 102.249996 292.476947 
L 103.455483 286.474427 
L 104.661047 287.950813 
L 105.86661 292.923017 
L 107.072097 298.63546 
L 108.277661 297.515408 
L 109.483148 288.768428 
L 110.688711 281.341114 
L 111.894198 278.682471 
L 113.099762 277.991757 
L 114.305249 278.398601 
L 115.510812 281.539215 
L 116.716376 287.315771 
L 119.127426 299.819251 
L 120.332913 305.177862 
L 121.538477 308.696759 
L 122.743964 308.068054 
L 123.949527 304.605862 
L 125.155014 304.592342 
L 126.360578 309.68088 
L 127.566141 316.341444 
L 128.771628 320.573397 
L 129.977191 322.602078 
L 131.182679 329.351418 
L 132.388242 341.731408 
L 133.593729 350.378182 
L 134.799292 347.085979 
L 137.210343 316.742607 
L 138.415906 305.452555 
L 139.621393 299.651436 
L 140.826957 299.714415 
L 142.032444 300.697924 
L 143.238007 297.880486 
L 145.649058 286.974278 
L 146.854545 287.285583 
L 148.060108 293.196319 
L 149.265595 295.658848 
L 150.471159 292.880432 
L 151.676722 291.77163 
L 152.882209 297.472259 
L 154.087773 308.553978 
L 155.29326 316.901531 
L 156.498823 320.430682 
L 157.70431 320.327509 
L 160.115361 308.228152 
L 161.320924 305.177286 
L 162.526488 301.605953 
L 164.937538 286.719352 
L 166.143025 283.057521 
L 167.348589 282.762135 
L 168.554076 282.870603 
L 169.759639 282.163527 
L 170.965126 282.536031 
L 172.17069 288.056664 
L 173.376253 297.834838 
L 174.58174 301.762157 
L 175.787304 295.100287 
L 176.992791 287.339003 
L 178.198354 287.522935 
L 179.403841 295.436121 
L 180.609405 306.049343 
L 181.814892 311.528187 
L 183.020455 305.752365 
L 184.226019 294.011722 
L 185.431506 287.010834 
L 186.637069 289.811602 
L 187.842557 298.581298 
L 189.04812 304.336941 
L 190.253607 302.980182 
L 191.45917 295.561585 
L 192.664658 286.243222 
L 193.870221 281.371935 
L 195.075784 285.605981 
L 196.281272 297.129603 
L 197.486835 311.070987 
L 198.692322 322.557131 
L 199.897886 325.03087 
L 201.103373 317.438756 
L 202.308936 308.873537 
L 203.514423 304.375456 
L 204.719987 303.369188 
L 205.92555 307.380274 
L 207.131037 313.912468 
L 208.336601 316.422344 
L 209.542088 311.964736 
L 210.747651 303.069609 
L 211.953138 295.744313 
L 213.158702 290.419995 
L 214.364189 284.434415 
L 215.569752 276.824619 
L 216.775316 271.645118 
L 217.980803 275.339825 
L 219.186366 287.163632 
L 220.391853 301.645558 
L 221.597417 314.469081 
L 222.802904 321.178338 
L 224.008467 319.816502 
L 225.213954 316.354879 
L 226.419518 316.380111 
L 227.625081 317.288785 
L 228.830568 316.21901 
L 230.036131 310.62191 
L 231.241619 300.386497 
L 232.447182 291.26177 
L 233.652669 286.18109 
L 234.858232 285.441873 
L 236.063719 287.914705 
L 237.269283 291.134389 
L 238.47477 297.364176 
L 239.680333 306.644548 
L 240.885897 312.747057 
L 242.091384 313.837856 
L 243.296947 312.852148 
L 244.502434 313.096809 
L 245.707998 312.811344 
L 248.119048 304.6893 
L 249.324535 302.47333 
L 250.530099 301.019646 
L 251.735663 303.436025 
L 252.941149 311.302716 
L 254.146713 322.698228 
L 255.3522 329.69657 
L 256.557764 324.325082 
L 258.968814 302.75036 
L 260.174301 294.448795 
L 261.379864 289.416895 
L 262.585428 291.103339 
L 263.790915 298.297774 
L 264.996479 301.209779 
L 266.201966 294.853629 
L 267.407529 286.404112 
L 268.613016 281.648342 
L 269.81858 279.46353 
L 271.024067 278.892845 
L 272.22963 283.178135 
L 273.435194 294.681842 
L 274.640681 307.696605 
L 275.846244 315.287685 
L 277.051731 318.531525 
L 278.257295 320.412336 
L 279.462782 321.824611 
L 280.668345 322.053908 
L 281.873832 317.968276 
L 283.079396 309.458447 
L 285.490446 290.133945 
L 286.69601 284.162775 
L 287.901497 284.316145 
L 290.312547 296.505504 
L 291.518111 293.61884 
L 292.723598 285.659604 
L 293.929161 285.194705 
L 295.134725 297.136658 
L 296.340212 312.3506 
L 297.545775 318.780891 
L 299.956825 313.179635 
L 301.162312 315.159944 
L 303.573363 329.183554 
L 304.778927 330.588393 
L 305.98449 325.380921 
L 307.189977 316.727555 
L 308.395541 310.460668 
L 309.601027 307.615753 
L 310.806591 306.570846 
L 312.012078 306.388057 
L 314.423129 307.265606 
L 315.628692 306.126105 
L 316.834256 303.893386 
L 318.039742 302.69037 
L 319.245306 302.420585 
L 320.450793 304.596556 
L 321.656357 311.597478 
L 322.861844 317.030069 
L 324.067407 312.425533 
L 325.272894 301.723407 
L 326.478458 292.771168 
L 327.684021 290.123 
L 328.889508 292.030363 
L 330.095072 294.666807 
L 331.300559 295.821945 
L 332.506122 295.151372 
L 333.711609 294.130304 
L 334.917173 293.763464 
L 336.12266 295.016907 
L 337.328223 300.108863 
L 339.739274 317.870402 
L 340.944837 323.055394 
L 342.150324 317.792417 
L 343.355888 303.6754 
L 344.561375 292.116206 
L 345.766938 288.944375 
L 346.972425 290.788837 
L 348.177989 293.496481 
L 349.383476 295.561559 
L 350.589039 296.8693 
L 351.794603 297.754048 
L 353.00009 298.962415 
L 354.205653 301.488609 
L 355.41114 304.448826 
L 356.616704 304.933629 
L 357.822191 302.654441 
L 359.027754 300.111338 
L 360.233241 299.590238 
L 361.438805 301.114641 
L 362.644368 303.832937 
L 363.849855 304.723348 
L 365.055419 301.093587 
L 366.260906 297.091387 
L 367.466469 296.045108 
L 368.671956 296.640016 
L 369.87752 297.374793 
L 371.083007 297.780927 
L 373.494134 298.06207 
L 374.699621 298.888008 
L 375.905184 300.188532 
L 377.110671 300.842019 
L 378.316235 300.918047 
L 380.727285 301.422935 
L 381.932772 301.369666 
L 386.75495 300.2774 
L 391.577051 299.376888 
L 393.988101 298.641049 
L 395.193665 298.098204 
L 396.399152 297.362002 
L 397.604715 296.335516 
L 398.810202 294.870102 
L 400.015766 292.753534 
L 401.221253 289.760416 
L 403.632303 282.436684 
L 404.837867 281.511717 
L 406.04343 283.990429 
L 407.248917 287.877841 
L 408.454481 291.324267 
L 409.659968 293.851312 
L 410.865531 295.604465 
L 412.071018 296.817629 
L 413.276582 297.671291 
L 414.482069 298.285601 
L 416.893196 299.077728 
L 419.304246 299.54039 
L 422.920784 299.928824 
L 427.742885 300.17393 
L 434.976112 300.276634 
L 442.209264 300.181784 
L 448.236929 299.912939 
L 451.853543 299.597387 
L 455.47008 299.050394 
L 457.881131 298.446973 
L 459.086694 298.025186 
L 460.292181 297.485121 
L 461.497745 296.781347 
L 462.703308 295.84585 
L 463.908795 294.574663 
L 465.114359 292.806352 
L 466.319846 290.290156 
L 467.525409 286.652168 
L 468.730896 281.42146 
L 471.141947 266.656033 
L 472.34751 262.247614 
L 473.553074 264.786321 
L 475.964124 279.573145 
L 477.169611 285.377903 
L 478.375175 289.464911 
L 479.580662 292.295952 
L 480.786225 294.283252 
L 481.991712 295.711622 
L 483.197276 296.765674 
L 484.402839 297.564269 
L 485.608326 298.185038 
L 488.019377 299.084572 
L 490.430427 299.718665 
L 497.663655 301.310352 
L 498.869142 301.716634 
L 500.074706 302.260107 
L 501.280192 303.013979 
L 502.485756 304.04324 
L 503.691243 305.24538 
L 504.896807 305.877508 
L 506.10237 304.294586 
L 507.307857 300.430038 
L 508.513421 297.786064 
L 509.718908 297.873886 
L 514.541009 302.894882 
L 515.746572 304.083473 
L 516.952059 305.499937 
L 518.157623 307.357337 
L 519.363186 309.946099 
L 520.568673 313.634847 
L 521.774237 318.669227 
L 522.979724 324.284946 
L 524.185287 326.951839 
L 525.390774 321.581168 
L 527.801825 295.780636 
L 529.007388 288.63628 
L 530.212952 291.168821 
L 531.418439 300.014724 
L 533.829489 320.536555 
L 535.035053 325.974002 
L 536.24054 325.713443 
L 537.446103 326.499951 
L 538.65159 329.911685 
L 539.857154 328.958004 
L 542.268204 313.141822 
L 543.473768 315.513499 
L 544.204687 321.790714 
L 544.204687 321.790714 
" clip-path="url(#p9bed96ebe6)" style="fill: none; stroke: #c0399a; stroke-width: 1.5; stroke-linecap: square"/>
   </g>
   <g id="line2d_33">
    <path d="M 468.563438 354.96 
L 468.563438 254.16 
" clip-path="url(#p9bed96ebe6)" style="fill: none; stroke: #000000; stroke-opacity: 0.25; stroke-width: 2; stroke-linecap: square"/>
   </g>
   <g id="patch_8">
    <path d="M 58.523438 354.96 
L 58.523438 254.16 
" style="fill: none; stroke: #000000; stroke-width: 0.8; stroke-linejoin: miter; stroke-linecap: square"/>
   </g>
   <g id="patch_9">
    <path d="M 58.523438 354.96 
L 532.823438 354.96 
" style="fill: none; stroke: #000000; stroke-width: 0.8; stroke-linejoin: miter; stroke-linecap: square"/>
   </g>
   <g id="text_26">
    <!--  DFT +1.16 -->
    <g transform="translate(468.563438 275.598435) scale(0.08 -0.08)">
     <defs>
      <path id="DejaVuSans-46" d="M 628 4666 
L 3309 4666 
L 3309 4134 
L 1259 4134 
L 1259 2759 
L 3109 2759 
L 3109 2228 
L 1259 2228 
L 1259 0 
L 628 0 
L 628 4666 
z
" transform="scale(0.015625)"/>
      <path id="DejaVuSans-54" d="M -19 4666 
L 3928 4666 
L 3928 4134 
L 2272 4134 
L 2272 0 
L 1638 0 
L 1638 4134 
L -19 4134 
L -19 4666 
z
" transform="scale(0.015625)"/>
      <path id="DejaVuSans-2b" d="M 2944 4013 
L 2944 2272 
L 4684 2272 
L 4684 1741 
L 2944 1741 
L 2944 0 
L 2419 0 
L 2419 1741 
L 678 1741 
L 678 2272 
L 2419 2272 
L 2419 4013 
L 2944 4013 
z
" transform="scale(0.015625)"/>
      <path id="DejaVuSans-36" d="M 2113 2584 
Q 1688 2584 1439 2293 
Q 1191 2003 1191 1497 
Q 1191 994 1439 701 
Q 1688 409 2113 409 
Q 2538 409 2786 701 
Q 3034 994 3034 1497 
Q 3034 2003 2786 2293 
Q 2538 2584 2113 2584 
z
M 3366 4563 
L 3366 3988 
Q 3128 4100 2886 4159 
Q 2644 4219 2406 4219 
Q 1781 4219 1451 3797 
Q 1122 3375 1075 2522 
Q 1259 2794 1537 2939 
Q 1816 3084 2150 3084 
Q 2853 3084 3261 2657 
Q 3669 2231 3669 1497 
Q 3669 778 3244 343 
Q 2819 -91 2113 -91 
Q 1303 -91 875 529 
Q 447 1150 447 2328 
Q 447 3434 972 4092 
Q 1497 4750 2381 4750 
Q 2619 4750 2861 4703 
Q 3103 4656 3366 4563 
z
" transform="scale(0.015625)"/>
     </defs>
     <use xlink:href="#DejaVuSans-20"/>
     <use xlink:href="#DejaVuSans-44" transform="translate(31.787109 0)"/>
     <use xlink:href="#DejaVuSans-46" transform="translate(108.789062 0)"/>
     <use xlink:href="#DejaVuSans-54" transform="translate(164.558594 0)"/>
     <use xlink:href="#DejaVuSans-20" transform="translate(225.642578 0)"/>
     <use xlink:href="#DejaVuSans-2b" transform="translate(257.429688 0)"/>
     <use xlink:href="#DejaVuSans-31" transform="translate(341.21875 0)"/>
     <use xlink:href="#DejaVuSans-2e" transform="translate(404.841797 0)"/>
     <use xlink:href="#DejaVuSans-31" transform="translate(436.628906 0)"/>
     <use xlink:href="#DejaVuSans-36" transform="translate(500.251953 0)"/>
    </g>
   </g>
  </g>
 </g>
 <defs>
  <clipPath id="p1c1d165532">
   <rect x="58.523438" y="22.32" width="474.3" height="201.6"/>
  </clipPath>
  <clipPath id="p9bed96ebe6">
   <rect x="58.523438" y="254.16" width="474.3" height="100.8"/>
  </clipPath>
 </defs>
</svg>
