<?xml version="1.0" encoding="utf-8" standalone="no"?>
<!DOCTYPE svg PUBLIC "-//W3C//DTD SVG 1.1//EN"
  "http://www.w3.org/Graphics/SVG/1.1/DTD/svg11.dtd">
<svg xmlns:xlink="http://www.w3.org/1999/xlink" width="558.3525pt" height="292.722375pt" viewBox="0 0 558.3525 292.722375" xmlns="http://www.w3.org/2000/svg" version="1.1">
 <metadata>
  <rdf:RDF xmlns:dc="http://purl.org/dc/elements/1.1/" xmlns:cc="http://creativecommons.org/ns#" xmlns:rdf="http://www.w3.org/1999/02/22-rdf-syntax-ns#">
   <cc:Work>
    <dc:type rdf:resource="http://purl.org/dc/dcmitype/StillImage"/>
    <dc:date>2026-06-30T18:23:58.171295</dc:date>
    <dc:format>image/svg+xml</dc:format>
    <dc:creator>
     <cc:Agent>
      <dc:title>Matplotlib v3.10.8, https://matplotlib.org/</dc:title>
     </cc:Agent>
    </dc:creator>
   </cc:Work>
  </rdf:RDF>
 </metadata>
 <defs>
  <style type="text/css">*{stroke-linejoin: round; stroke-linecap: butt}</style>
 </defs>
 <g id="figure_1">
  <g id="patch_1">
   <path d="M 0 292.722375 
L 558.3525 292.722375 
L 558.3525 0 
L 0 0 
z
" style="fill: #ffffff"/>
  </g>
  <g id="axes_1">
   <g id="patch_2">
    <path d="M 52.160938 255.166125 
L 543.200938 255.166125 
L 543.200938 22.318125 
L 52.160938 22.318125 
z
" style="fill: #ffffff"/>
   </g>
   <g id="patch_3">
    <path d="M 215.840937 255.166125 
L 487.075065 255.166125 
L 487.075065 22.318125 
L 215.840937 22.318125 
z
" clip-path="url(#p824caca1a3)" style="fill: #eef0f7; stroke: #eef0f7; stroke-linejoin: miter"/>
   </g>
   <g id="matplotlib.axis_1">
    <g id="xtick_1">
     <g id="line2d_1">
      <defs>
       <path id="mc251d357d9" d="M 0 0 
L 0 3.5 
" style="stroke: #000000; stroke-width: 0.8"/>
      </defs>
      <g>
       <use xlink:href="#mc251d357d9" x="52.160938" y="255.166125" style="stroke: #000000; stroke-width: 0.8"/>
      </g>
     </g>
     <g id="text_1">
      <!-- −1.0 -->
      <g transform="translate(40.019531 269.764563) scale(0.1 -0.1)">
       <defs>
        <path id="DejaVuSans-2212" d="M 678 2272 
L 4684 2272 
L 4684 1741 
L 678 1741 
L 678 2272 
z
" transform="scale(0.015625)"/>
        <path id="DejaVuSans-31" d="M 794 531 
L 1825 531 
L 1825 4091 
L 703 3866 
L 703 4441 
L 1819 4666 
L 2450 4666 
L 2450 531 
L 3481 531 
L 3481 0 
L 794 0 
L 794 531 
z
" transform="scale(0.015625)"/>
        <path id="DejaVuSans-2e" d="M 684 794 
L 1344 794 
L 1344 0 
L 684 0 
L 684 794 
z
" transform="scale(0.015625)"/>
        <path id="DejaVuSans-30" d="M 2034 4250 
Q 1547 4250 1301 3770 
Q 1056 3291 1056 2328 
Q 1056 1369 1301 889 
Q 1547 409 2034 409 
Q 2525 409 2770 889 
Q 3016 1369 3016 2328 
Q 3016 3291 2770 3770 
Q 2525 4250 2034 4250 
z
M 2034 4750 
Q 2819 4750 3233 4129 
Q 3647 3509 3647 2328 
Q 3647 1150 3233 529 
Q 2819 -91 2034 -91 
Q 1250 -91 836 529 
Q 422 1150 422 2328 
Q 422 3509 836 4129 
Q 1250 4750 2034 4750 
z
" transform="scale(0.015625)"/>
       </defs>
       <use xlink:href="#DejaVuSans-2212"/>
       <use xlink:href="#DejaVuSans-31" transform="translate(83.789062 0)"/>
       <use xlink:href="#DejaVuSans-2e" transform="translate(147.412109 0)"/>
       <use xlink:href="#DejaVuSans-30" transform="translate(179.199219 0)"/>
      </g>
     </g>
    </g>
    <g id="xtick_2">
     <g id="line2d_2">
      <g>
       <use xlink:href="#mc251d357d9" x="134.000938" y="255.166125" style="stroke: #000000; stroke-width: 0.8"/>
      </g>
     </g>
     <g id="text_2">
      <!-- −0.5 -->
      <g transform="translate(121.859531 269.764563) scale(0.1 -0.1)">
       <defs>
        <path id="DejaVuSans-35" d="M 691 4666 
L 3169 4666 
L 3169 4134 
L 1269 4134 
L 1269 2991 
Q 1406 3038 1543 3061 
Q 1681 3084 1819 3084 
Q 2600 3084 3056 2656 
Q 3513 2228 3513 1497 
Q 3513 744 3044 326 
Q 2575 -91 1722 -91 
Q 1428 -91 1123 -41 
Q 819 9 494 109 
L 494 744 
Q 775 591 1075 516 
Q 1375 441 1709 441 
Q 2250 441 2565 725 
Q 2881 1009 2881 1497 
Q 2881 1984 2565 2268 
Q 2250 2553 1709 2553 
Q 1456 2553 1204 2497 
Q 953 2441 691 2322 
L 691 4666 
z
" transform="scale(0.015625)"/>
       </defs>
       <use xlink:href="#DejaVuSans-2212"/>
       <use xlink:href="#DejaVuSans-30" transform="translate(83.789062 0)"/>
       <use xlink:href="#DejaVuSans-2e" transform="translate(147.412109 0)"/>
       <use xlink:href="#DejaVuSans-35" transform="translate(179.199219 0)"/>
      </g>
     </g>
    </g>
    <g id="xtick_3">
     <g id="line2d_3">
      <g>
       <use xlink:href="#mc251d357d9" x="215.840937" y="255.166125" style="stroke: #000000; stroke-width: 0.8"/>
      </g>
     </g>
     <g id="text_3">
      <!-- 0.0 -->
      <g transform="translate(207.889375 269.764563) scale(0.1 -0.1)">
       <use xlink:href="#DejaVuSans-30"/>
       <use xlink:href="#DejaVuSans-2e" transform="translate(63.623047 0)"/>
       <use xlink:href="#DejaVuSans-30" transform="translate(95.410156 0)"/>
      </g>
     </g>
    </g>
    <g id="xtick_4">
     <g id="line2d_4">
      <g>
       <use xlink:href="#mc251d357d9" x="297.680937" y="255.166125" style="stroke: #000000; stroke-width: 0.8"/>
      </g>
     </g>
     <g id="text_4">
      <!-- 0.5 -->
      <g transform="translate(289.729375 269.764563) scale(0.1 -0.1)">
       <use xlink:href="#DejaVuSans-30"/>
       <use xlink:href="#DejaVuSans-2e" transform="translate(63.623047 0)"/>
       <use xlink:href="#DejaVuSans-35" transform="translate(95.410156 0)"/>
      </g>
     </g>
    </g>
    <g id="xtick_5">
     <g id="line2d_5">
      <g>
       <use xlink:href="#mc251d357d9" x="379.520937" y="255.166125" style="stroke: #000000; stroke-width: 0.8"/>
      </g>
     </g>
     <g id="text_5">
      <!-- 1.0 -->
      <g transform="translate(371.569375 269.764563) scale(0.1 -0.1)">
       <use xlink:href="#DejaVuSans-31"/>
       <use xlink:href="#DejaVuSans-2e" transform="translate(63.623047 0)"/>
       <use xlink:href="#DejaVuSans-30" transform="translate(95.410156 0)"/>
      </g>
     </g>
    </g>
    <g id="xtick_6">
     <g id="line2d_6">
      <g>
       <use xlink:href="#mc251d357d9" x="461.360937" y="255.166125" style="stroke: #000000; stroke-width: 0.8"/>
      </g>
     </g>
     <g id="text_6">
      <!-- 1.5 -->
      <g transform="translate(453.409375 269.764563) scale(0.1 -0.1)">
       <use xlink:href="#DejaVuSans-31"/>
       <use xlink:href="#DejaVuSans-2e" transform="translate(63.623047 0)"/>
       <use xlink:href="#DejaVuSans-35" transform="translate(95.410156 0)"/>
      </g>
     </g>
    </g>
    <g id="xtick_7">
     <g id="line2d_7">
      <g>
       <use xlink:href="#mc251d357d9" x="543.200938" y="255.166125" style="stroke: #000000; stroke-width: 0.8"/>
      </g>
     </g>
     <g id="text_7">
      <!-- 2.0 -->
      <g transform="translate(535.249375 269.764563) scale(0.1 -0.1)">
       <defs>
        <path id="DejaVuSans-32" d="M 1228 531 
L 3431 531 
L 3431 0 
L 469 0 
L 469 531 
Q 828 903 1448 1529 
Q 2069 2156 2228 2338 
Q 2531 2678 2651 2914 
Q 2772 3150 2772 3378 
Q 2772 3750 2511 3984 
Q 2250 4219 1831 4219 
Q 1534 4219 1204 4116 
Q 875 4013 500 3803 
L 500 4441 
Q 881 4594 1212 4672 
Q 1544 4750 1819 4750 
Q 2544 4750 2975 4387 
Q 3406 4025 3406 3419 
Q 3406 3131 3298 2873 
Q 3191 2616 2906 2266 
Q 2828 2175 2409 1742 
Q 1991 1309 1228 531 
z
" transform="scale(0.015625)"/>
       </defs>
       <use xlink:href="#DejaVuSans-32"/>
       <use xlink:href="#DejaVuSans-2e" transform="translate(63.623047 0)"/>
       <use xlink:href="#DejaVuSans-30" transform="translate(95.410156 0)"/>
      </g>
     </g>
    </g>
    <g id="text_8">
     <!-- E - VBM (eV) -->
     <g transform="translate(266.387188 283.442688) scale(0.1 -0.1)">
      <defs>
       <path id="DejaVuSans-45" d="M 628 4666 
L 3578 4666 
L 3578 4134 
L 1259 4134 
L 1259 2753 
L 3481 2753 
L 3481 2222 
L 1259 2222 
L 1259 531 
L 3634 531 
L 3634 0 
L 628 0 
L 628 4666 
z
" transform="scale(0.015625)"/>
       <path id="DejaVuSans-20" transform="scale(0.015625)"/>
       <path id="DejaVuSans-2d" d="M 313 2009 
L 1997 2009 
L 1997 1497 
L 313 1497 
L 313 2009 
z
" transform="scale(0.015625)"/>
       <path id="DejaVuSans-56" d="M 1831 0 
L 50 4666 
L 709 4666 
L 2188 738 
L 3669 4666 
L 4325 4666 
L 2547 0 
L 1831 0 
z
" transform="scale(0.015625)"/>
       <path id="DejaVuSans-42" d="M 1259 2228 
L 1259 519 
L 2272 519 
Q 2781 519 3026 730 
Q 3272 941 3272 1375 
Q 3272 1813 3026 2020 
Q 2781 2228 2272 2228 
L 1259 2228 
z
M 1259 4147 
L 1259 2741 
L 2194 2741 
Q 2656 2741 2882 2914 
Q 3109 3088 3109 3444 
Q 3109 3797 2882 3972 
Q 2656 4147 2194 4147 
L 1259 4147 
z
M 628 4666 
L 2241 4666 
Q 2963 4666 3353 4366 
Q 3744 4066 3744 3513 
Q 3744 3084 3544 2831 
Q 3344 2578 2956 2516 
Q 3422 2416 3680 2098 
Q 3938 1781 3938 1306 
Q 3938 681 3513 340 
Q 3088 0 2303 0 
L 628 0 
L 628 4666 
z
" transform="scale(0.015625)"/>
       <path id="DejaVuSans-4d" d="M 628 4666 
L 1569 4666 
L 2759 1491 
L 3956 4666 
L 4897 4666 
L 4897 0 
L 4281 0 
L 4281 4097 
L 3078 897 
L 2444 897 
L 1241 4097 
L 1241 0 
L 628 0 
L 628 4666 
z
" transform="scale(0.015625)"/>
       <path id="DejaVuSans-28" d="M 1984 4856 
Q 1566 4138 1362 3434 
Q 1159 2731 1159 2009 
Q 1159 1288 1364 580 
Q 1569 -128 1984 -844 
L 1484 -844 
Q 1016 -109 783 600 
Q 550 1309 550 2009 
Q 550 2706 781 3412 
Q 1013 4119 1484 4856 
L 1984 4856 
z
" transform="scale(0.015625)"/>
       <path id="DejaVuSans-65" d="M 3597 1894 
L 3597 1613 
L 953 1613 
Q 991 1019 1311 708 
Q 1631 397 2203 397 
Q 2534 397 2845 478 
Q 3156 559 3463 722 
L 3463 178 
Q 3153 47 2828 -22 
Q 2503 -91 2169 -91 
Q 1331 -91 842 396 
Q 353 884 353 1716 
Q 353 2575 817 3079 
Q 1281 3584 2069 3584 
Q 2775 3584 3186 3129 
Q 3597 2675 3597 1894 
z
M 3022 2063 
Q 3016 2534 2758 2815 
Q 2500 3097 2075 3097 
Q 1594 3097 1305 2825 
Q 1016 2553 972 2059 
L 3022 2063 
z
" transform="scale(0.015625)"/>
       <path id="DejaVuSans-29" d="M 513 4856 
L 1013 4856 
Q 1481 4119 1714 3412 
Q 1947 2706 1947 2009 
Q 1947 1309 1714 600 
Q 1481 -109 1013 -844 
L 513 -844 
Q 928 -128 1133 580 
Q 1338 1288 1338 2009 
Q 1338 2731 1133 3434 
Q 928 4138 513 4856 
z
" transform="scale(0.015625)"/>
      </defs>
      <use xlink:href="#DejaVuSans-45"/>
      <use xlink:href="#DejaVuSans-20" transform="translate(63.183594 0)"/>
      <use xlink:href="#DejaVuSans-2d" transform="translate(94.970703 0)"/>
      <use xlink:href="#DejaVuSans-20" transform="translate(131.054688 0)"/>
      <use xlink:href="#DejaVuSans-56" transform="translate(162.841797 0)"/>
      <use xlink:href="#DejaVuSans-42" transform="translate(231.25 0)"/>
      <use xlink:href="#DejaVuSans-4d" transform="translate(299.853516 0)"/>
      <use xlink:href="#DejaVuSans-20" transform="translate(386.132812 0)"/>
      <use xlink:href="#DejaVuSans-28" transform="translate(417.919922 0)"/>
      <use xlink:href="#DejaVuSans-65" transform="translate(456.933594 0)"/>
      <use xlink:href="#DejaVuSans-56" transform="translate(518.457031 0)"/>
      <use xlink:href="#DejaVuSans-29" transform="translate(586.865234 0)"/>
     </g>
    </g>
   </g>
   <g id="matplotlib.axis_2">
    <g id="ytick_1">
     <g id="line2d_8">
      <defs>
       <path id="mc96d426cee" d="M 0 0 
L -3.5 0 
" style="stroke: #000000; stroke-width: 0.8"/>
      </defs>
      <g>
       <use xlink:href="#mc96d426cee" x="52.160938" y="220.915737" style="stroke: #000000; stroke-width: 0.8"/>
      </g>
     </g>
     <g id="text_9">
      <!-- −1.5 -->
      <g transform="translate(20.878125 224.714956) scale(0.1 -0.1)">
       <use xlink:href="#DejaVuSans-2212"/>
       <use xlink:href="#DejaVuSans-31" transform="translate(83.789062 0)"/>
       <use xlink:href="#DejaVuSans-2e" transform="translate(147.412109 0)"/>
       <use xlink:href="#DejaVuSans-35" transform="translate(179.199219 0)"/>
      </g>
     </g>
    </g>
    <g id="ytick_2">
     <g id="line2d_9">
      <g>
       <use xlink:href="#mc96d426cee" x="52.160938" y="185.709452" style="stroke: #000000; stroke-width: 0.8"/>
      </g>
     </g>
     <g id="text_10">
      <!-- −1.0 -->
      <g transform="translate(20.878125 189.508671) scale(0.1 -0.1)">
       <use xlink:href="#DejaVuSans-2212"/>
       <use xlink:href="#DejaVuSans-31" transform="translate(83.789062 0)"/>
       <use xlink:href="#DejaVuSans-2e" transform="translate(147.412109 0)"/>
       <use xlink:href="#DejaVuSans-30" transform="translate(179.199219 0)"/>
      </g>
     </g>
    </g>
    <g id="ytick_3">
     <g id="line2d_10">
      <g>
       <use xlink:href="#mc96d426cee" x="52.160938" y="150.503167" style="stroke: #000000; stroke-width: 0.8"/>
      </g>
     </g>
     <g id="text_11">
      <!-- −0.5 -->
      <g transform="translate(20.878125 154.302386) scale(0.1 -0.1)">
       <use xlink:href="#DejaVuSans-2212"/>
       <use xlink:href="#DejaVuSans-30" transform="translate(83.789062 0)"/>
       <use xlink:href="#DejaVuSans-2e" transform="translate(147.412109 0)"/>
       <use xlink:href="#DejaVuSans-35" transform="translate(179.199219 0)"/>
      </g>
     </g>
    </g>
    <g id="ytick_4">
     <g id="line2d_11">
      <g>
       <use xlink:href="#mc96d426cee" x="52.160938" y="115.296882" style="stroke: #000000; stroke-width: 0.8"/>
      </g>
     </g>
     <g id="text_12">
      <!-- 0.0 -->
      <g transform="translate(29.257813 119.096101) scale(0.1 -0.1)">
       <use xlink:href="#DejaVuSans-30"/>
       <use xlink:href="#DejaVuSans-2e" transform="translate(63.623047 0)"/>
       <use xlink:href="#DejaVuSans-30" transform="translate(95.410156 0)"/>
      </g>
     </g>
    </g>
    <g id="ytick_5">
     <g id="line2d_12">
      <g>
       <use xlink:href="#mc96d426cee" x="52.160938" y="80.090597" style="stroke: #000000; stroke-width: 0.8"/>
      </g>
     </g>
     <g id="text_13">
      <!-- 0.5 -->
      <g transform="translate(29.257813 83.889815) scale(0.1 -0.1)">
       <use xlink:href="#DejaVuSans-30"/>
       <use xlink:href="#DejaVuSans-2e" transform="translate(63.623047 0)"/>
       <use xlink:href="#DejaVuSans-35" transform="translate(95.410156 0)"/>
      </g>
     </g>
    </g>
    <g id="ytick_6">
     <g id="line2d_13">
      <g>
       <use xlink:href="#mc96d426cee" x="52.160938" y="44.884312" style="stroke: #000000; stroke-width: 0.8"/>
      </g>
     </g>
     <g id="text_14">
      <!-- 1.0 -->
      <g transform="translate(29.257813 48.68353) scale(0.1 -0.1)">
       <use xlink:href="#DejaVuSans-31"/>
       <use xlink:href="#DejaVuSans-2e" transform="translate(63.623047 0)"/>
       <use xlink:href="#DejaVuSans-30" transform="translate(95.410156 0)"/>
      </g>
     </g>
    </g>
    <g id="text_15">
     <!-- in-gap dDOS (norm.) -->
     <g transform="translate(14.798438 190.385875) rotate(-90) scale(0.1 -0.1)">
      <defs>
       <path id="DejaVuSans-69" d="M 603 3500 
L 1178 3500 
L 1178 0 
L 603 0 
L 603 3500 
z
M 603 4863 
L 1178 4863 
L 1178 4134 
L 603 4134 
L 603 4863 
z
" transform="scale(0.015625)"/>
       <path id="DejaVuSans-6e" d="M 3513 2113 
L 3513 0 
L 2938 0 
L 2938 2094 
Q 2938 2591 2744 2837 
Q 2550 3084 2163 3084 
Q 1697 3084 1428 2787 
Q 1159 2491 1159 1978 
L 1159 0 
L 581 0 
L 581 3500 
L 1159 3500 
L 1159 2956 
Q 1366 3272 1645 3428 
Q 1925 3584 2291 3584 
Q 2894 3584 3203 3211 
Q 3513 2838 3513 2113 
z
" transform="scale(0.015625)"/>
       <path id="DejaVuSans-67" d="M 2906 1791 
Q 2906 2416 2648 2759 
Q 2391 3103 1925 3103 
Q 1463 3103 1205 2759 
Q 947 2416 947 1791 
Q 947 1169 1205 825 
Q 1463 481 1925 481 
Q 2391 481 2648 825 
Q 2906 1169 2906 1791 
z
M 3481 434 
Q 3481 -459 3084 -895 
Q 2688 -1331 1869 -1331 
Q 1566 -1331 1297 -1286 
Q 1028 -1241 775 -1147 
L 775 -588 
Q 1028 -725 1275 -790 
Q 1522 -856 1778 -856 
Q 2344 -856 2625 -561 
Q 2906 -266 2906 331 
L 2906 616 
Q 2728 306 2450 153 
Q 2172 0 1784 0 
Q 1141 0 747 490 
Q 353 981 353 1791 
Q 353 2603 747 3093 
Q 1141 3584 1784 3584 
Q 2172 3584 2450 3431 
Q 2728 3278 2906 2969 
L 2906 3500 
L 3481 3500 
L 3481 434 
z
" transform="scale(0.015625)"/>
       <path id="DejaVuSans-61" d="M 2194 1759 
Q 1497 1759 1228 1600 
Q 959 1441 959 1056 
Q 959 750 1161 570 
Q 1363 391 1709 391 
Q 2188 391 2477 730 
Q 2766 1069 2766 1631 
L 2766 1759 
L 2194 1759 
z
M 3341 1997 
L 3341 0 
L 2766 0 
L 2766 531 
Q 2569 213 2275 61 
Q 1981 -91 1556 -91 
Q 1019 -91 701 211 
Q 384 513 384 1019 
Q 384 1609 779 1909 
Q 1175 2209 1959 2209 
L 2766 2209 
L 2766 2266 
Q 2766 2663 2505 2880 
Q 2244 3097 1772 3097 
Q 1472 3097 1187 3025 
Q 903 2953 641 2809 
L 641 3341 
Q 956 3463 1253 3523 
Q 1550 3584 1831 3584 
Q 2591 3584 2966 3190 
Q 3341 2797 3341 1997 
z
" transform="scale(0.015625)"/>
       <path id="DejaVuSans-70" d="M 1159 525 
L 1159 -1331 
L 581 -1331 
L 581 3500 
L 1159 3500 
L 1159 2969 
Q 1341 3281 1617 3432 
Q 1894 3584 2278 3584 
Q 2916 3584 3314 3078 
Q 3713 2572 3713 1747 
Q 3713 922 3314 415 
Q 2916 -91 2278 -91 
Q 1894 -91 1617 61 
Q 1341 213 1159 525 
z
M 3116 1747 
Q 3116 2381 2855 2742 
Q 2594 3103 2138 3103 
Q 1681 3103 1420 2742 
Q 1159 2381 1159 1747 
Q 1159 1113 1420 752 
Q 1681 391 2138 391 
Q 2594 391 2855 752 
Q 3116 1113 3116 1747 
z
" transform="scale(0.015625)"/>
       <path id="DejaVuSans-64" d="M 2906 2969 
L 2906 4863 
L 3481 4863 
L 3481 0 
L 2906 0 
L 2906 525 
Q 2725 213 2448 61 
Q 2172 -91 1784 -91 
Q 1150 -91 751 415 
Q 353 922 353 1747 
Q 353 2572 751 3078 
Q 1150 3584 1784 3584 
Q 2172 3584 2448 3432 
Q 2725 3281 2906 2969 
z
M 947 1747 
Q 947 1113 1208 752 
Q 1469 391 1925 391 
Q 2381 391 2643 752 
Q 2906 1113 2906 1747 
Q 2906 2381 2643 2742 
Q 2381 3103 1925 3103 
Q 1469 3103 1208 2742 
Q 947 2381 947 1747 
z
" transform="scale(0.015625)"/>
       <path id="DejaVuSans-44" d="M 1259 4147 
L 1259 519 
L 2022 519 
Q 2988 519 3436 956 
Q 3884 1394 3884 2338 
Q 3884 3275 3436 3711 
Q 2988 4147 2022 4147 
L 1259 4147 
z
M 628 4666 
L 1925 4666 
Q 3281 4666 3915 4102 
Q 4550 3538 4550 2338 
Q 4550 1131 3912 565 
Q 3275 0 1925 0 
L 628 0 
L 628 4666 
z
" transform="scale(0.015625)"/>
       <path id="DejaVuSans-4f" d="M 2522 4238 
Q 1834 4238 1429 3725 
Q 1025 3213 1025 2328 
Q 1025 1447 1429 934 
Q 1834 422 2522 422 
Q 3209 422 3611 934 
Q 4013 1447 4013 2328 
Q 4013 3213 3611 3725 
Q 3209 4238 2522 4238 
z
M 2522 4750 
Q 3503 4750 4090 4092 
Q 4678 3434 4678 2328 
Q 4678 1225 4090 567 
Q 3503 -91 2522 -91 
Q 1538 -91 948 565 
Q 359 1222 359 2328 
Q 359 3434 948 4092 
Q 1538 4750 2522 4750 
z
" transform="scale(0.015625)"/>
       <path id="DejaVuSans-53" d="M 3425 4513 
L 3425 3897 
Q 3066 4069 2747 4153 
Q 2428 4238 2131 4238 
Q 1616 4238 1336 4038 
Q 1056 3838 1056 3469 
Q 1056 3159 1242 3001 
Q 1428 2844 1947 2747 
L 2328 2669 
Q 3034 2534 3370 2195 
Q 3706 1856 3706 1288 
Q 3706 609 3251 259 
Q 2797 -91 1919 -91 
Q 1588 -91 1214 -16 
Q 841 59 441 206 
L 441 856 
Q 825 641 1194 531 
Q 1563 422 1919 422 
Q 2459 422 2753 634 
Q 3047 847 3047 1241 
Q 3047 1584 2836 1778 
Q 2625 1972 2144 2069 
L 1759 2144 
Q 1053 2284 737 2584 
Q 422 2884 422 3419 
Q 422 4038 858 4394 
Q 1294 4750 2059 4750 
Q 2388 4750 2728 4690 
Q 3069 4631 3425 4513 
z
" transform="scale(0.015625)"/>
       <path id="DejaVuSans-6f" d="M 1959 3097 
Q 1497 3097 1228 2736 
Q 959 2375 959 1747 
Q 959 1119 1226 758 
Q 1494 397 1959 397 
Q 2419 397 2687 759 
Q 2956 1122 2956 1747 
Q 2956 2369 2687 2733 
Q 2419 3097 1959 3097 
z
M 1959 3584 
Q 2709 3584 3137 3096 
Q 3566 2609 3566 1747 
Q 3566 888 3137 398 
Q 2709 -91 1959 -91 
Q 1206 -91 779 398 
Q 353 888 353 1747 
Q 353 2609 779 3096 
Q 1206 3584 1959 3584 
z
" transform="scale(0.015625)"/>
       <path id="DejaVuSans-72" d="M 2631 2963 
Q 2534 3019 2420 3045 
Q 2306 3072 2169 3072 
Q 1681 3072 1420 2755 
Q 1159 2438 1159 1844 
L 1159 0 
L 581 0 
L 581 3500 
L 1159 3500 
L 1159 2956 
Q 1341 3275 1631 3429 
Q 1922 3584 2338 3584 
Q 2397 3584 2469 3576 
Q 2541 3569 2628 3553 
L 2631 2963 
z
" transform="scale(0.015625)"/>
       <path id="DejaVuSans-6d" d="M 3328 2828 
Q 3544 3216 3844 3400 
Q 4144 3584 4550 3584 
Q 5097 3584 5394 3201 
Q 5691 2819 5691 2113 
L 5691 0 
L 5113 0 
L 5113 2094 
Q 5113 2597 4934 2840 
Q 4756 3084 4391 3084 
Q 3944 3084 3684 2787 
Q 3425 2491 3425 1978 
L 3425 0 
L 2847 0 
L 2847 2094 
Q 2847 2600 2669 2842 
Q 2491 3084 2119 3084 
Q 1678 3084 1418 2786 
Q 1159 2488 1159 1978 
L 1159 0 
L 581 0 
L 581 3500 
L 1159 3500 
L 1159 2956 
Q 1356 3278 1631 3431 
Q 1906 3584 2284 3584 
Q 2666 3584 2933 3390 
Q 3200 3197 3328 2828 
z
" transform="scale(0.015625)"/>
      </defs>
      <use xlink:href="#DejaVuSans-69"/>
      <use xlink:href="#DejaVuSans-6e" transform="translate(27.783203 0)"/>
      <use xlink:href="#DejaVuSans-2d" transform="translate(91.162109 0)"/>
      <use xlink:href="#DejaVuSans-67" transform="translate(127.246094 0)"/>
      <use xlink:href="#DejaVuSans-61" transform="translate(190.722656 0)"/>
      <use xlink:href="#DejaVuSans-70" transform="translate(252.001953 0)"/>
      <use xlink:href="#DejaVuSans-20" transform="translate(315.478516 0)"/>
      <use xlink:href="#DejaVuSans-64" transform="translate(347.265625 0)"/>
      <use xlink:href="#DejaVuSans-44" transform="translate(410.742188 0)"/>
      <use xlink:href="#DejaVuSans-4f" transform="translate(487.744141 0)"/>
      <use xlink:href="#DejaVuSans-53" transform="translate(566.455078 0)"/>
      <use xlink:href="#DejaVuSans-20" transform="translate(629.931641 0)"/>
      <use xlink:href="#DejaVuSans-28" transform="translate(661.71875 0)"/>
      <use xlink:href="#DejaVuSans-6e" transform="translate(700.732422 0)"/>
      <use xlink:href="#DejaVuSans-6f" transform="translate(764.111328 0)"/>
      <use xlink:href="#DejaVuSans-72" transform="translate(825.292969 0)"/>
      <use xlink:href="#DejaVuSans-6d" transform="translate(864.65625 0)"/>
      <use xlink:href="#DejaVuSans-2e" transform="translate(962.068359 0)"/>
      <use xlink:href="#DejaVuSans-29" transform="translate(993.855469 0)"/>
     </g>
    </g>
   </g>
   <g id="line2d_14">
    <path d="M 215.840937 255.166125 
L 215.840937 22.318125 
" clip-path="url(#p824caca1a3)" style="fill: none; stroke-dasharray: 3.6,2.7; stroke-dashoffset: 0; stroke: #0f9d77; stroke-width: 0.9"/>
   </g>
   <g id="line2d_15">
    <path d="M 487.075065 255.166125 
L 487.075065 22.318125 
" clip-path="url(#p824caca1a3)" style="fill: none; stroke-dasharray: 3.6,2.7; stroke-dashoffset: 0; stroke: #c0399a; stroke-width: 0.9"/>
   </g>
   <g id="line2d_16">
    <path d="M 52.160938 115.296882 
L 543.200938 115.296882 
" clip-path="url(#p824caca1a3)" style="fill: none; stroke: #1a1d27; stroke-width: 0.5; stroke-linecap: square"/>
   </g>
   <g id="line2d_17">
    <path d="M 405.709737 255.166125 
L 405.709737 22.318125 
" clip-path="url(#p824caca1a3)" style="fill: none; stroke: #c0399a; stroke-opacity: 0.4; stroke-width: 2; stroke-linecap: square"/>
   </g>
   <g id="line2d_18">
    <path d="M -1 172.364776 
L 1.108491 172.68843 
L 3.687924 167.073242 
L 6.267193 149.410437 
L 8.846626 123.552358 
L 11.42606 99.516894 
L 14.005329 83.406791 
L 16.584762 76.934656 
L 19.164032 78.677568 
L 21.743465 84.857704 
L 24.322734 87.679303 
L 26.902167 81.1338 
L 29.481437 72.524418 
L 32.06087 73.369245 
L 34.640303 87.857063 
L 37.219572 110.057619 
L 39.799005 125.356499 
L 42.378275 127.745859 
L 44.957708 127.78409 
L 47.536977 134.492814 
L 50.116411 150.094203 
L 52.69568 167.115037 
L 55.275113 177.678961 
L 57.854546 174.236158 
L 60.433816 154.235013 
L 63.013249 129.298409 
L 65.592518 111.490546 
L 68.171951 104.003578 
L 70.751221 105.639491 
L 73.330654 114.975719 
L 75.909923 126.122177 
L 78.489357 127.6566 
L 81.06879 120.569688 
L 83.648059 120.503906 
L 86.227492 129.552275 
L 88.806762 140.493931 
L 91.386195 156.626194 
L 93.965464 171.127954 
L 96.544897 166.191397 
L 99.124167 144.489404 
L 101.7036 118.330963 
L 104.283033 96.667284 
L 106.862302 82.668243 
L 109.441736 76.141626 
L 112.021005 74.108777 
L 114.600438 71.254209 
L 117.179708 68.761824 
L 119.759141 73.640315 
L 122.33841 91.828593 
L 127.497113 155.296934 
L 130.076546 177.055231 
L 132.655979 185.709452 
L 135.235248 176.00125 
L 137.814682 152.650893 
L 140.393951 130.448082 
L 142.973384 114.834224 
L 145.552653 102.898387 
L 148.132087 92.136996 
L 150.711356 83.003708 
L 153.290789 76.588982 
L 155.870222 73.730831 
L 158.449492 77.381594 
L 161.028925 89.391106 
L 163.608194 105.052465 
L 166.187627 116.974872 
L 168.766897 120.062016 
L 171.34633 112.081563 
L 173.925599 102.898064 
L 176.505033 106.174315 
L 179.084466 125.084261 
L 181.663735 147.275011 
L 184.243168 153.402785 
L 186.822438 141.01295 
L 189.401871 123.279297 
L 191.98114 109.153349 
L 194.560573 99.545311 
L 197.139843 94.531446 
L 199.719276 95.228975 
L 202.298709 102.128624 
L 204.877978 113.153212 
L 207.457412 120.531338 
L 210.036681 118.999778 
L 212.616114 114.806321 
L 215.195384 113.609939 
L 217.774817 114.206878 
L 220.354086 114.444544 
L 222.933519 114.110667 
L 228.092222 112.916248 
L 230.671655 112.160433 
L 233.250924 111.20162 
L 235.830357 109.905942 
L 238.409627 108.083406 
L 240.98906 105.497459 
L 243.568329 102.015626 
L 246.147763 98.158673 
L 248.727196 95.800109 
L 251.306465 96.800117 
L 256.465168 103.777565 
L 259.044601 106.510493 
L 261.62387 108.363886 
L 264.203303 109.550583 
L 266.782573 110.25962 
L 269.362006 110.6108 
L 271.941439 110.663342 
L 274.520709 110.426463 
L 277.100142 109.861284 
L 279.679411 108.873238 
L 282.258844 107.299943 
L 284.838114 104.923728 
L 287.417547 101.623986 
L 289.996816 97.925967 
L 292.576249 95.704742 
L 295.155682 96.835434 
L 297.734952 100.382253 
L 300.314385 104.119314 
L 302.893654 107.032467 
L 305.473088 109.090319 
L 308.052357 110.516886 
L 310.63179 111.517208 
L 313.21106 112.233804 
L 315.790493 112.759177 
L 320.949195 113.453384 
L 326.107898 113.86987 
L 333.846033 114.22367 
L 344.163439 114.431702 
L 357.060277 114.441394 
L 367.377682 114.244303 
L 375.115818 113.885683 
L 380.27452 113.447679 
L 385.433223 112.694772 
L 388.012492 112.111801 
L 390.591925 111.303677 
L 393.171358 110.158345 
L 395.750628 108.50629 
L 398.330061 106.121727 
L 400.90933 102.836808 
L 403.488764 99.011055 
L 406.068033 96.303518 
L 408.647466 96.808175 
L 411.226736 100.065564 
L 413.806169 103.816518 
L 416.385602 106.819152 
L 418.964871 108.944323 
L 421.544304 110.402422 
L 424.123574 111.405869 
L 426.703007 112.105198 
L 429.282276 112.597997 
L 434.440979 113.188997 
L 439.599845 113.44752 
L 444.758548 113.470816 
L 449.91725 113.261439 
L 455.075953 112.726967 
L 457.655222 112.266201 
L 460.234655 111.601246 
L 462.814089 110.633981 
L 465.393358 109.21591 
L 467.972791 107.154518 
L 470.552061 104.336791 
L 473.131494 101.213335 
L 475.710763 99.576873 
L 478.290196 101.646692 
L 483.448899 112.129069 
L 486.028332 113.614693 
L 488.607601 109.491383 
L 491.187034 103.71867 
L 493.766304 101.410861 
L 496.345737 102.503302 
L 498.925006 104.407813 
L 501.50444 105.657525 
L 504.083709 105.881735 
L 506.663142 104.991621 
L 509.242412 102.857867 
L 511.821845 99.413341 
L 514.401278 95.319234 
L 516.980547 93.086384 
L 519.55998 96.527775 
L 522.13925 107.384775 
L 524.718683 121.2675 
L 527.297952 127.395955 
L 529.877385 121.594818 
L 532.456655 108.317616 
L 535.036088 91.543008 
L 537.615521 79.742295 
L 540.194791 79.42737 
L 542.774224 90.927028 
L 547.932926 131.853884 
L 550.512196 140.640303 
L 553.091629 143.21125 
L 555.670898 150.106473 
L 558.250331 153.500704 
L 559.3525 150.141752 
L 559.3525 150.141752 
" clip-path="url(#p824caca1a3)" style="fill: none; stroke: #b7791f; stroke-width: 1.6; stroke-linecap: square"/>
   </g>
   <g id="line2d_19">
    <path d="M -1 171.223272 
L 1.108491 173.611463 
L 3.687924 170.641273 
L 6.267193 151.798617 
L 11.42606 86.652063 
L 14.005329 66.44528 
L 16.584762 62.264307 
L 19.164032 71.667347 
L 21.743465 87.380879 
L 24.322734 95.650199 
L 26.902167 87.644644 
L 29.481437 75.696104 
L 32.06087 76.882603 
L 34.640303 95.792455 
L 37.219572 123.231168 
L 39.799005 140.100613 
L 42.378275 141.067921 
L 44.957708 141.385831 
L 47.536977 149.893997 
L 50.116411 166.003907 
L 52.69568 180.235883 
L 55.275113 185.709452 
L 57.854546 179.00812 
L 60.433816 160.569986 
L 63.013249 139.902006 
L 65.592518 122.537093 
L 68.171951 107.842972 
L 70.751221 96.300719 
L 73.330654 92.812051 
L 75.909923 99.663672 
L 78.489357 105.287923 
L 81.06879 102.012191 
L 83.648059 102.588906 
L 86.227492 113.475999 
L 88.806762 128.259149 
L 91.386195 147.145261 
L 93.965464 164.507212 
L 96.544897 166.538203 
L 99.124167 154.967396 
L 101.7036 135.593952 
L 104.283033 112.309385 
L 106.862302 90.576192 
L 109.441736 75.851613 
L 112.021005 68.980946 
L 114.600438 64.593358 
L 117.179708 61.803128 
L 119.759141 66.982028 
L 122.33841 86.121541 
L 127.497113 147.989486 
L 130.076546 169.319827 
L 132.655979 183.431653 
L 135.235248 183.71951 
L 137.814682 166.535807 
L 140.393951 141.466615 
L 142.973384 117.752718 
L 145.552653 99.815465 
L 148.132087 88.109972 
L 150.711356 80.013545 
L 153.290789 75.017388 
L 155.870222 75.144644 
L 158.449492 82.204206 
L 163.608194 110.497689 
L 166.187627 117.712491 
L 168.766897 116.346674 
L 171.34633 105.802062 
L 173.925599 96.308341 
L 176.505033 101.168093 
L 179.084466 121.801373 
L 181.663735 144.283756 
L 184.243168 149.046681 
L 186.822438 134.656691 
L 189.401871 114.7794 
L 191.98114 99.494001 
L 194.560573 91.689882 
L 197.139843 90.683765 
L 199.719276 96.083356 
L 202.298709 106.116801 
L 204.877978 117.261052 
L 207.457412 124.856027 
L 210.036681 126.20656 
L 212.616114 125.101811 
L 215.195384 124.552678 
L 217.774817 123.581197 
L 220.354086 121.304787 
L 222.933519 118.572554 
L 225.512952 116.099821 
L 233.250924 109.653464 
L 235.830357 106.934572 
L 238.409627 103.360195 
L 240.98906 98.614625 
L 243.568329 92.956304 
L 246.147763 88.271911 
L 248.727196 87.495344 
L 251.306465 90.59952 
L 253.885898 94.501762 
L 256.465168 97.0585 
L 259.044601 97.695345 
L 261.62387 96.358626 
L 264.203303 93.177671 
L 266.782573 89.095689 
L 269.362006 86.80491 
L 271.941439 88.870259 
L 277.100142 99.280921 
L 279.679411 103.372857 
L 282.258844 106.275585 
L 284.838114 108.303312 
L 287.417547 109.738441 
L 289.996816 110.77702 
L 292.576249 111.546694 
L 295.155682 112.129989 
L 300.314385 112.935768 
L 305.473088 113.448288 
L 313.21106 113.918169 
L 323.528628 114.25123 
L 336.425303 114.425688 
L 351.901574 114.41628 
L 364.798249 114.220596 
L 375.115818 113.856032 
L 382.85379 113.340529 
L 388.012492 112.774063 
L 393.171358 111.874507 
L 395.750628 111.217114 
L 398.330061 110.342744 
L 400.90933 109.152531 
L 403.488764 107.493469 
L 406.068033 105.134319 
L 408.647466 101.763339 
L 411.226736 97.126824 
L 413.806169 91.625933 
L 416.385602 87.366931 
L 418.964871 87.192741 
L 421.544304 90.631946 
L 424.123574 94.545502 
L 426.703007 96.994615 
L 429.282276 97.50932 
L 431.861709 96.056035 
L 434.440979 92.786928 
L 437.020412 88.737968 
L 439.599845 86.700942 
L 442.179115 89.069751 
L 447.337817 99.542487 
L 449.91725 103.56431 
L 452.49652 106.414948 
L 455.075953 108.413616 
L 457.655222 109.839514 
L 460.234655 110.887163 
L 462.814089 111.68679 
L 467.972791 112.883795 
L 473.131494 113.995581 
L 475.710763 114.706939 
L 480.869466 116.579134 
L 483.448899 116.714278 
L 486.028332 113.985136 
L 488.607601 107.848498 
L 491.187034 102.007295 
L 493.766304 98.458497 
L 496.345737 95.391457 
L 498.925006 91.934925 
L 501.50444 90.131506 
L 504.083709 92.643868 
L 506.663142 98.522318 
L 509.242412 104.915989 
L 511.821845 110.578737 
L 516.980547 120.962701 
L 519.55998 127.076874 
L 522.13925 134.148392 
L 524.718683 139.563881 
L 527.297952 138.027346 
L 529.877385 130.327965 
L 532.456655 119.350307 
L 535.036088 105.642907 
L 537.615521 98.159551 
L 540.194791 101.900578 
L 542.774224 113.284158 
L 545.353493 128.790527 
L 547.932926 142.112396 
L 550.512196 145.512438 
L 553.091629 146.620064 
L 555.670898 152.903951 
L 558.250331 153.464439 
L 559.3525 148.353478 
L 559.3525 148.353478 
" clip-path="url(#p824caca1a3)" style="fill: none; stroke: #3b4cc0; stroke-width: 1.8; stroke-linecap: square"/>
   </g>
   <g id="patch_4">
    <path d="M 52.160938 255.166125 
L 52.160938 22.318125 
" style="fill: none; stroke: #000000; stroke-width: 0.8; stroke-linejoin: miter; stroke-linecap: square"/>
   </g>
   <g id="patch_5">
    <path d="M 52.160938 255.166125 
L 543.200938 255.166125 
" style="fill: none; stroke: #000000; stroke-width: 0.8; stroke-linejoin: miter; stroke-linecap: square"/>
   </g>
   <g id="text_16">
    <!--  DFT +1.16 -->
    <g style="fill: #c0399a" transform="translate(380.336066 43.47606) scale(0.09 -0.09)">
     <defs>
      <path id="DejaVuSans-46" d="M 628 4666 
L 3309 4666 
L 3309 4134 
L 1259 4134 
L 1259 2759 
L 3109 2759 
L 3109 2228 
L 1259 2228 
L 1259 0 
L 628 0 
L 628 4666 
z
" transform="scale(0.015625)"/>
      <path id="DejaVuSans-54" d="M -19 4666 
L 3928 4666 
L 3928 4134 
L 2272 4134 
L 2272 0 
L 1638 0 
L 1638 4134 
L -19 4134 
L -19 4666 
z
" transform="scale(0.015625)"/>
      <path id="DejaVuSans-2b" d="M 2944 4013 
L 2944 2272 
L 4684 2272 
L 4684 1741 
L 2944 1741 
L 2944 0 
L 2419 0 
L 2419 1741 
L 678 1741 
L 678 2272 
L 2419 2272 
L 2419 4013 
L 2944 4013 
z
" transform="scale(0.015625)"/>
      <path id="DejaVuSans-36" d="M 2113 2584 
Q 1688 2584 1439 2293 
Q 1191 2003 1191 1497 
Q 1191 994 1439 701 
Q 1688 409 2113 409 
Q 2538 409 2786 701 
Q 3034 994 3034 1497 
Q 3034 2003 2786 2293 
Q 2538 2584 2113 2584 
z
M 3366 4563 
L 3366 3988 
Q 3128 4100 2886 4159 
Q 2644 4219 2406 4219 
Q 1781 4219 1451 3797 
Q 1122 3375 1075 2522 
Q 1259 2794 1537 2939 
Q 1816 3084 2150 3084 
Q 2853 3084 3261 2657 
Q 3669 2231 3669 1497 
Q 3669 778 3244 343 
Q 2819 -91 2113 -91 
Q 1303 -91 875 529 
Q 447 1150 447 2328 
Q 447 3434 972 4092 
Q 1497 4750 2381 4750 
Q 2619 4750 2861 4703 
Q 3103 4656 3366 4563 
z
" transform="scale(0.015625)"/>
     </defs>
     <use xlink:href="#DejaVuSans-20"/>
     <use xlink:href="#DejaVuSans-44" transform="translate(31.787109 0)"/>
     <use xlink:href="#DejaVuSans-46" transform="translate(108.789062 0)"/>
     <use xlink:href="#DejaVuSans-54" transform="translate(164.558594 0)"/>
     <use xlink:href="#DejaVuSans-20" transform="translate(225.642578 0)"/>
     <use xlink:href="#DejaVuSans-2b" transform="translate(257.429688 0)"/>
     <use xlink:href="#DejaVuSans-31" transform="translate(341.21875 0)"/>
     <use xlink:href="#DejaVuSans-2e" transform="translate(404.841797 0)"/>
     <use xlink:href="#DejaVuSans-31" transform="translate(436.628906 0)"/>
     <use xlink:href="#DejaVuSans-36" transform="translate(500.251953 0)"/>
    </g>
   </g>
   <g id="text_17">
    <!-- In-gap defect state appears only after BOTH the units and 1/N_k fixes -->
    <g transform="translate(88.817188 16.318125) scale(0.12 -0.12)">
     <defs>
      <path id="DejaVuSans-49" d="M 628 4666 
L 1259 4666 
L 1259 0 
L 628 0 
L 628 4666 
z
" transform="scale(0.015625)"/>
      <path id="DejaVuSans-66" d="M 2375 4863 
L 2375 4384 
L 1825 4384 
Q 1516 4384 1395 4259 
Q 1275 4134 1275 3809 
L 1275 3500 
L 2222 3500 
L 2222 3053 
L 1275 3053 
L 1275 0 
L 697 0 
L 697 3053 
L 147 3053 
L 147 3500 
L 697 3500 
L 697 3744 
Q 697 4328 969 4595 
Q 1241 4863 1831 4863 
L 2375 4863 
z
" transform="scale(0.015625)"/>
      <path id="DejaVuSans-63" d="M 3122 3366 
L 3122 2828 
Q 2878 2963 2633 3030 
Q 2388 3097 2138 3097 
Q 1578 3097 1268 2742 
Q 959 2388 959 1747 
Q 959 1106 1268 751 
Q 1578 397 2138 397 
Q 2388 397 2633 464 
Q 2878 531 3122 666 
L 3122 134 
Q 2881 22 2623 -34 
Q 2366 -91 2075 -91 
Q 1284 -91 818 406 
Q 353 903 353 1747 
Q 353 2603 823 3093 
Q 1294 3584 2113 3584 
Q 2378 3584 2631 3529 
Q 2884 3475 3122 3366 
z
" transform="scale(0.015625)"/>
      <path id="DejaVuSans-74" d="M 1172 4494 
L 1172 3500 
L 2356 3500 
L 2356 3053 
L 1172 3053 
L 1172 1153 
Q 1172 725 1289 603 
Q 1406 481 1766 481 
L 2356 481 
L 2356 0 
L 1766 0 
Q 1100 0 847 248 
Q 594 497 594 1153 
L 594 3053 
L 172 3053 
L 172 3500 
L 594 3500 
L 594 4494 
L 1172 4494 
z
" transform="scale(0.015625)"/>
      <path id="DejaVuSans-73" d="M 2834 3397 
L 2834 2853 
Q 2591 2978 2328 3040 
Q 2066 3103 1784 3103 
Q 1356 3103 1142 2972 
Q 928 2841 928 2578 
Q 928 2378 1081 2264 
Q 1234 2150 1697 2047 
L 1894 2003 
Q 2506 1872 2764 1633 
Q 3022 1394 3022 966 
Q 3022 478 2636 193 
Q 2250 -91 1575 -91 
Q 1294 -91 989 -36 
Q 684 19 347 128 
L 347 722 
Q 666 556 975 473 
Q 1284 391 1588 391 
Q 1994 391 2212 530 
Q 2431 669 2431 922 
Q 2431 1156 2273 1281 
Q 2116 1406 1581 1522 
L 1381 1569 
Q 847 1681 609 1914 
Q 372 2147 372 2553 
Q 372 3047 722 3315 
Q 1072 3584 1716 3584 
Q 2034 3584 2315 3537 
Q 2597 3491 2834 3397 
z
" transform="scale(0.015625)"/>
      <path id="DejaVuSans-6c" d="M 603 4863 
L 1178 4863 
L 1178 0 
L 603 0 
L 603 4863 
z
" transform="scale(0.015625)"/>
      <path id="DejaVuSans-79" d="M 2059 -325 
Q 1816 -950 1584 -1140 
Q 1353 -1331 966 -1331 
L 506 -1331 
L 506 -850 
L 844 -850 
Q 1081 -850 1212 -737 
Q 1344 -625 1503 -206 
L 1606 56 
L 191 3500 
L 800 3500 
L 1894 763 
L 2988 3500 
L 3597 3500 
L 2059 -325 
z
" transform="scale(0.015625)"/>
      <path id="DejaVuSans-48" d="M 628 4666 
L 1259 4666 
L 1259 2753 
L 3553 2753 
L 3553 4666 
L 4184 4666 
L 4184 0 
L 3553 0 
L 3553 2222 
L 1259 2222 
L 1259 0 
L 628 0 
L 628 4666 
z
" transform="scale(0.015625)"/>
      <path id="DejaVuSans-68" d="M 3513 2113 
L 3513 0 
L 2938 0 
L 2938 2094 
Q 2938 2591 2744 2837 
Q 2550 3084 2163 3084 
Q 1697 3084 1428 2787 
Q 1159 2491 1159 1978 
L 1159 0 
L 581 0 
L 581 4863 
L 1159 4863 
L 1159 2956 
Q 1366 3272 1645 3428 
Q 1925 3584 2291 3584 
Q 2894 3584 3203 3211 
Q 3513 2838 3513 2113 
z
" transform="scale(0.015625)"/>
      <path id="DejaVuSans-75" d="M 544 1381 
L 544 3500 
L 1119 3500 
L 1119 1403 
Q 1119 906 1312 657 
Q 1506 409 1894 409 
Q 2359 409 2629 706 
Q 2900 1003 2900 1516 
L 2900 3500 
L 3475 3500 
L 3475 0 
L 2900 0 
L 2900 538 
Q 2691 219 2414 64 
Q 2138 -91 1772 -91 
Q 1169 -91 856 284 
Q 544 659 544 1381 
z
M 1991 3584 
L 1991 3584 
z
" transform="scale(0.015625)"/>
      <path id="DejaVuSans-2f" d="M 1625 4666 
L 2156 4666 
L 531 -594 
L 0 -594 
L 1625 4666 
z
" transform="scale(0.015625)"/>
      <path id="DejaVuSans-4e" d="M 628 4666 
L 1478 4666 
L 3547 763 
L 3547 4666 
L 4159 4666 
L 4159 0 
L 3309 0 
L 1241 3903 
L 1241 0 
L 628 0 
L 628 4666 
z
" transform="scale(0.015625)"/>
      <path id="DejaVuSans-5f" d="M 3263 -1063 
L 3263 -1509 
L -63 -1509 
L -63 -1063 
L 3263 -1063 
z
" transform="scale(0.015625)"/>
      <path id="DejaVuSans-6b" d="M 581 4863 
L 1159 4863 
L 1159 1991 
L 2875 3500 
L 3609 3500 
L 1753 1863 
L 3688 0 
L 2938 0 
L 1159 1709 
L 1159 0 
L 581 0 
L 581 4863 
z
" transform="scale(0.015625)"/>
      <path id="DejaVuSans-78" d="M 3513 3500 
L 2247 1797 
L 3578 0 
L 2900 0 
L 1881 1375 
L 863 0 
L 184 0 
L 1544 1831 
L 300 3500 
L 978 3500 
L 1906 2253 
L 2834 3500 
L 3513 3500 
z
" transform="scale(0.015625)"/>
     </defs>
     <use xlink:href="#DejaVuSans-49"/>
     <use xlink:href="#DejaVuSans-6e" transform="translate(29.492188 0)"/>
     <use xlink:href="#DejaVuSans-2d" transform="translate(92.871094 0)"/>
     <use xlink:href="#DejaVuSans-67" transform="translate(128.955078 0)"/>
     <use xlink:href="#DejaVuSans-61" transform="translate(192.431641 0)"/>
     <use xlink:href="#DejaVuSans-70" transform="translate(253.710938 0)"/>
     <use xlink:href="#DejaVuSans-20" transform="translate(317.1875 0)"/>
     <use xlink:href="#DejaVuSans-64" transform="translate(348.974609 0)"/>
     <use xlink:href="#DejaVuSans-65" transform="translate(412.451172 0)"/>
     <use xlink:href="#DejaVuSans-66" transform="translate(473.974609 0)"/>
     <use xlink:href="#DejaVuSans-65" transform="translate(509.179688 0)"/>
     <use xlink:href="#DejaVuSans-63" transform="translate(570.703125 0)"/>
     <use xlink:href="#DejaVuSans-74" transform="translate(625.683594 0)"/>
     <use xlink:href="#DejaVuSans-20" transform="translate(664.892578 0)"/>
     <use xlink:href="#DejaVuSans-73" transform="translate(696.679688 0)"/>
     <use xlink:href="#DejaVuSans-74" transform="translate(748.779297 0)"/>
     <use xlink:href="#DejaVuSans-61" transform="translate(787.988281 0)"/>
     <use xlink:href="#DejaVuSans-74" transform="translate(849.267578 0)"/>
     <use xlink:href="#DejaVuSans-65" transform="translate(888.476562 0)"/>
     <use xlink:href="#DejaVuSans-20" transform="translate(950 0)"/>
     <use xlink:href="#DejaVuSans-61" transform="translate(981.787109 0)"/>
     <use xlink:href="#DejaVuSans-70" transform="translate(1043.066406 0)"/>
     <use xlink:href="#DejaVuSans-70" transform="translate(1106.542969 0)"/>
     <use xlink:href="#DejaVuSans-65" transform="translate(1170.019531 0)"/>
     <use xlink:href="#DejaVuSans-61" transform="translate(1231.542969 0)"/>
     <use xlink:href="#DejaVuSans-72" transform="translate(1292.822266 0)"/>
     <use xlink:href="#DejaVuSans-73" transform="translate(1333.935547 0)"/>
     <use xlink:href="#DejaVuSans-20" transform="translate(1386.035156 0)"/>
     <use xlink:href="#DejaVuSans-6f" transform="translate(1417.822266 0)"/>
     <use xlink:href="#DejaVuSans-6e" transform="translate(1479.003906 0)"/>
     <use xlink:href="#DejaVuSans-6c" transform="translate(1542.382812 0)"/>
     <use xlink:href="#DejaVuSans-79" transform="translate(1570.166016 0)"/>
     <use xlink:href="#DejaVuSans-20" transform="translate(1629.345703 0)"/>
     <use xlink:href="#DejaVuSans-61" transform="translate(1661.132812 0)"/>
     <use xlink:href="#DejaVuSans-66" transform="translate(1722.412109 0)"/>
     <use xlink:href="#DejaVuSans-74" transform="translate(1755.867188 0)"/>
     <use xlink:href="#DejaVuSans-65" transform="translate(1795.076172 0)"/>
     <use xlink:href="#DejaVuSans-72" transform="translate(1856.599609 0)"/>
     <use xlink:href="#DejaVuSans-20" transform="translate(1897.712891 0)"/>
     <use xlink:href="#DejaVuSans-42" transform="translate(1929.5 0)"/>
     <use xlink:href="#DejaVuSans-4f" transform="translate(1996.353516 0)"/>
     <use xlink:href="#DejaVuSans-54" transform="translate(2075.064453 0)"/>
     <use xlink:href="#DejaVuSans-48" transform="translate(2136.148438 0)"/>
     <use xlink:href="#DejaVuSans-20" transform="translate(2211.34375 0)"/>
     <use xlink:href="#DejaVuSans-74" transform="translate(2243.130859 0)"/>
     <use xlink:href="#DejaVuSans-68" transform="translate(2282.339844 0)"/>
     <use xlink:href="#DejaVuSans-65" transform="translate(2345.71875 0)"/>
     <use xlink:href="#DejaVuSans-20" transform="translate(2407.242188 0)"/>
     <use xlink:href="#DejaVuSans-75" transform="translate(2439.029297 0)"/>
     <use xlink:href="#DejaVuSans-6e" transform="translate(2502.408203 0)"/>
     <use xlink:href="#DejaVuSans-69" transform="translate(2565.787109 0)"/>
     <use xlink:href="#DejaVuSans-74" transform="translate(2593.570312 0)"/>
     <use xlink:href="#DejaVuSans-73" transform="translate(2632.779297 0)"/>
     <use xlink:href="#DejaVuSans-20" transform="translate(2684.878906 0)"/>
     <use xlink:href="#DejaVuSans-61" transform="translate(2716.666016 0)"/>
     <use xlink:href="#DejaVuSans-6e" transform="translate(2777.945312 0)"/>
     <use xlink:href="#DejaVuSans-64" transform="translate(2841.324219 0)"/>
     <use xlink:href="#DejaVuSans-20" transform="translate(2904.800781 0)"/>
     <use xlink:href="#DejaVuSans-31" transform="translate(2936.587891 0)"/>
     <use xlink:href="#DejaVuSans-2f" transform="translate(3000.210938 0)"/>
     <use xlink:href="#DejaVuSans-4e" transform="translate(3033.902344 0)"/>
     <use xlink:href="#DejaVuSans-5f" transform="translate(3108.707031 0)"/>
     <use xlink:href="#DejaVuSans-6b" transform="translate(3158.707031 0)"/>
     <use xlink:href="#DejaVuSans-20" transform="translate(3216.617188 0)"/>
     <use xlink:href="#DejaVuSans-66" transform="translate(3248.404297 0)"/>
     <use xlink:href="#DejaVuSans-69" transform="translate(3283.609375 0)"/>
     <use xlink:href="#DejaVuSans-78" transform="translate(3311.392578 0)"/>
     <use xlink:href="#DejaVuSans-65" transform="translate(3367.447266 0)"/>
     <use xlink:href="#DejaVuSans-73" transform="translate(3428.970703 0)"/>
    </g>
   </g>
   <g id="legend_1">
    <g id="line2d_20">
     <path d="M 60.710938 34.761641 
L 70.210938 34.761641 
L 79.710938 34.761641 
" style="fill: none; stroke: #b7791f; stroke-width: 1.6; stroke-linecap: square"/>
    </g>
    <g id="text_18">
     <!-- units bug (Ry as eV): wrong place, ∫A_bare=1572 -->
     <g transform="translate(87.310938 38.086641) scale(0.095 -0.095)">
      <defs>
       <path id="DejaVuSans-62" d="M 3116 1747 
Q 3116 2381 2855 2742 
Q 2594 3103 2138 3103 
Q 1681 3103 1420 2742 
Q 1159 2381 1159 1747 
Q 1159 1113 1420 752 
Q 1681 391 2138 391 
Q 2594 391 2855 752 
Q 3116 1113 3116 1747 
z
M 1159 2969 
Q 1341 3281 1617 3432 
Q 1894 3584 2278 3584 
Q 2916 3584 3314 3078 
Q 3713 2572 3713 1747 
Q 3713 922 3314 415 
Q 2916 -91 2278 -91 
Q 1894 -91 1617 61 
Q 1341 213 1159 525 
L 1159 0 
L 581 0 
L 581 4863 
L 1159 4863 
L 1159 2969 
z
" transform="scale(0.015625)"/>
       <path id="DejaVuSans-52" d="M 2841 2188 
Q 3044 2119 3236 1894 
Q 3428 1669 3622 1275 
L 4263 0 
L 3584 0 
L 2988 1197 
Q 2756 1666 2539 1819 
Q 2322 1972 1947 1972 
L 1259 1972 
L 1259 0 
L 628 0 
L 628 4666 
L 2053 4666 
Q 2853 4666 3247 4331 
Q 3641 3997 3641 3322 
Q 3641 2881 3436 2590 
Q 3231 2300 2841 2188 
z
M 1259 4147 
L 1259 2491 
L 2053 2491 
Q 2509 2491 2742 2702 
Q 2975 2913 2975 3322 
Q 2975 3731 2742 3939 
Q 2509 4147 2053 4147 
L 1259 4147 
z
" transform="scale(0.015625)"/>
       <path id="DejaVuSans-3a" d="M 750 794 
L 1409 794 
L 1409 0 
L 750 0 
L 750 794 
z
M 750 3309 
L 1409 3309 
L 1409 2516 
L 750 2516 
L 750 3309 
z
" transform="scale(0.015625)"/>
       <path id="DejaVuSans-77" d="M 269 3500 
L 844 3500 
L 1563 769 
L 2278 3500 
L 2956 3500 
L 3675 769 
L 4391 3500 
L 4966 3500 
L 4050 0 
L 3372 0 
L 2619 2869 
L 1863 0 
L 1184 0 
L 269 3500 
z
" transform="scale(0.015625)"/>
       <path id="DejaVuSans-2c" d="M 750 794 
L 1409 794 
L 1409 256 
L 897 -744 
L 494 -744 
L 750 256 
L 750 794 
z
" transform="scale(0.015625)"/>
       <path id="DejaVuSans-222b" d="M 1509 3906 
Q 1534 4428 1787 4636 
Q 2041 4844 2277 4844 
Q 2513 4844 2709 4648 
Q 2906 4453 2969 4016 
L 2506 3969 
Q 2453 4375 2275 4375 
Q 2053 4375 2028 3828 
L 1825 -422 
Q 1800 -944 1547 -1151 
Q 1294 -1359 1058 -1359 
Q 822 -1359 625 -1164 
Q 428 -969 366 -531 
L 828 -484 
Q 881 -891 1059 -891 
Q 1281 -891 1306 -344 
L 1509 3906 
z
" transform="scale(0.015625)"/>
       <path id="DejaVuSans-41" d="M 2188 4044 
L 1331 1722 
L 3047 1722 
L 2188 4044 
z
M 1831 4666 
L 2547 4666 
L 4325 0 
L 3669 0 
L 3244 1197 
L 1141 1197 
L 716 0 
L 50 0 
L 1831 4666 
z
" transform="scale(0.015625)"/>
       <path id="DejaVuSans-3d" d="M 678 2906 
L 4684 2906 
L 4684 2381 
L 678 2381 
L 678 2906 
z
M 678 1631 
L 4684 1631 
L 4684 1100 
L 678 1100 
L 678 1631 
z
" transform="scale(0.015625)"/>
       <path id="DejaVuSans-37" d="M 525 4666 
L 3525 4666 
L 3525 4397 
L 1831 0 
L 1172 0 
L 2766 4134 
L 525 4134 
L 525 4666 
z
" transform="scale(0.015625)"/>
      </defs>
      <use xlink:href="#DejaVuSans-75"/>
      <use xlink:href="#DejaVuSans-6e" transform="translate(63.378906 0)"/>
      <use xlink:href="#DejaVuSans-69" transform="translate(126.757812 0)"/>
      <use xlink:href="#DejaVuSans-74" transform="translate(154.541016 0)"/>
      <use xlink:href="#DejaVuSans-73" transform="translate(193.75 0)"/>
      <use xlink:href="#DejaVuSans-20" transform="translate(245.849609 0)"/>
      <use xlink:href="#DejaVuSans-62" transform="translate(277.636719 0)"/>
      <use xlink:href="#DejaVuSans-75" transform="translate(341.113281 0)"/>
      <use xlink:href="#DejaVuSans-67" transform="translate(404.492188 0)"/>
      <use xlink:href="#DejaVuSans-20" transform="translate(467.96875 0)"/>
      <use xlink:href="#DejaVuSans-28" transform="translate(499.755859 0)"/>
      <use xlink:href="#DejaVuSans-52" transform="translate(538.769531 0)"/>
      <use xlink:href="#DejaVuSans-79" transform="translate(602.751953 0)"/>
      <use xlink:href="#DejaVuSans-20" transform="translate(661.931641 0)"/>
      <use xlink:href="#DejaVuSans-61" transform="translate(693.71875 0)"/>
      <use xlink:href="#DejaVuSans-73" transform="translate(754.998047 0)"/>
      <use xlink:href="#DejaVuSans-20" transform="translate(807.097656 0)"/>
      <use xlink:href="#DejaVuSans-65" transform="translate(838.884766 0)"/>
      <use xlink:href="#DejaVuSans-56" transform="translate(900.408203 0)"/>
      <use xlink:href="#DejaVuSans-29" transform="translate(968.816406 0)"/>
      <use xlink:href="#DejaVuSans-3a" transform="translate(1007.830078 0)"/>
      <use xlink:href="#DejaVuSans-20" transform="translate(1041.521484 0)"/>
      <use xlink:href="#DejaVuSans-77" transform="translate(1073.308594 0)"/>
      <use xlink:href="#DejaVuSans-72" transform="translate(1155.095703 0)"/>
      <use xlink:href="#DejaVuSans-6f" transform="translate(1193.958984 0)"/>
      <use xlink:href="#DejaVuSans-6e" transform="translate(1255.140625 0)"/>
      <use xlink:href="#DejaVuSans-67" transform="translate(1318.519531 0)"/>
      <use xlink:href="#DejaVuSans-20" transform="translate(1381.996094 0)"/>
      <use xlink:href="#DejaVuSans-70" transform="translate(1413.783203 0)"/>
      <use xlink:href="#DejaVuSans-6c" transform="translate(1477.259766 0)"/>
      <use xlink:href="#DejaVuSans-61" transform="translate(1505.042969 0)"/>
      <use xlink:href="#DejaVuSans-63" transform="translate(1566.322266 0)"/>
      <use xlink:href="#DejaVuSans-65" transform="translate(1621.302734 0)"/>
      <use xlink:href="#DejaVuSans-2c" transform="translate(1682.826172 0)"/>
      <use xlink:href="#DejaVuSans-20" transform="translate(1714.613281 0)"/>
      <use xlink:href="#DejaVuSans-222b" transform="translate(1746.400391 0)"/>
      <use xlink:href="#DejaVuSans-41" transform="translate(1798.5 0)"/>
      <use xlink:href="#DejaVuSans-5f" transform="translate(1866.908203 0)"/>
      <use xlink:href="#DejaVuSans-62" transform="translate(1916.908203 0)"/>
      <use xlink:href="#DejaVuSans-61" transform="translate(1980.384766 0)"/>
      <use xlink:href="#DejaVuSans-72" transform="translate(2041.664062 0)"/>
      <use xlink:href="#DejaVuSans-65" transform="translate(2080.527344 0)"/>
      <use xlink:href="#DejaVuSans-3d" transform="translate(2142.050781 0)"/>
      <use xlink:href="#DejaVuSans-31" transform="translate(2225.839844 0)"/>
      <use xlink:href="#DejaVuSans-35" transform="translate(2289.462891 0)"/>
      <use xlink:href="#DejaVuSans-37" transform="translate(2353.085938 0)"/>
      <use xlink:href="#DejaVuSans-32" transform="translate(2416.708984 0)"/>
     </g>
    </g>
    <g id="line2d_21">
     <path d="M 60.710938 48.970078 
L 70.210938 48.970078 
L 79.710938 48.970078 
" style="fill: none; stroke: #3b4cc0; stroke-width: 1.8; stroke-linecap: square"/>
    </g>
    <g id="text_19">
     <!-- units + 1/N_k (correct): ∫A_bare=10.9≈11 -->
     <g transform="translate(87.310938 52.295078) scale(0.095 -0.095)">
      <defs>
       <path id="DejaVuSans-39" d="M 703 97 
L 703 672 
Q 941 559 1184 500 
Q 1428 441 1663 441 
Q 2288 441 2617 861 
Q 2947 1281 2994 2138 
Q 2813 1869 2534 1725 
Q 2256 1581 1919 1581 
Q 1219 1581 811 2004 
Q 403 2428 403 3163 
Q 403 3881 828 4315 
Q 1253 4750 1959 4750 
Q 2769 4750 3195 4129 
Q 3622 3509 3622 2328 
Q 3622 1225 3098 567 
Q 2575 -91 1691 -91 
Q 1453 -91 1209 -44 
Q 966 3 703 97 
z
M 1959 2075 
Q 2384 2075 2632 2365 
Q 2881 2656 2881 3163 
Q 2881 3666 2632 3958 
Q 2384 4250 1959 4250 
Q 1534 4250 1286 3958 
Q 1038 3666 1038 3163 
Q 1038 2656 1286 2365 
Q 1534 2075 1959 2075 
z
" transform="scale(0.015625)"/>
       <path id="DejaVuSans-2248" d="M 4684 1947 
L 4684 1388 
Q 4356 1144 4076 1036 
Q 3797 928 3494 928 
Q 3150 928 2694 1113 
Q 2663 1125 2641 1134 
Q 2622 1141 2575 1159 
Q 2091 1350 1797 1350 
Q 1522 1350 1253 1231 
Q 984 1113 678 850 
L 678 1409 
Q 1006 1653 1286 1761 
Q 1566 1869 1869 1869 
Q 2213 1869 2672 1684 
Q 2706 1669 2722 1663 
Q 2741 1656 2788 1638 
Q 3272 1447 3566 1447 
Q 3834 1447 4098 1564 
Q 4363 1681 4684 1947 
z
M 4684 3163 
L 4684 2606 
Q 4356 2359 4076 2251 
Q 3797 2144 3494 2144 
Q 3150 2144 2694 2328 
Q 2663 2341 2641 2350 
Q 2622 2356 2575 2375 
Q 2091 2566 1797 2566 
Q 1522 2566 1253 2447 
Q 984 2328 678 2069 
L 678 2625 
Q 1006 2869 1286 2976 
Q 1566 3084 1869 3084 
Q 2213 3084 2672 2900 
Q 2703 2888 2719 2881 
Q 2741 2872 2788 2853 
Q 3272 2663 3566 2663 
Q 3834 2663 4098 2780 
Q 4363 2897 4684 3163 
z
" transform="scale(0.015625)"/>
      </defs>
      <use xlink:href="#DejaVuSans-75"/>
      <use xlink:href="#DejaVuSans-6e" transform="translate(63.378906 0)"/>
      <use xlink:href="#DejaVuSans-69" transform="translate(126.757812 0)"/>
      <use xlink:href="#DejaVuSans-74" transform="translate(154.541016 0)"/>
      <use xlink:href="#DejaVuSans-73" transform="translate(193.75 0)"/>
      <use xlink:href="#DejaVuSans-20" transform="translate(245.849609 0)"/>
      <use xlink:href="#DejaVuSans-2b" transform="translate(277.636719 0)"/>
      <use xlink:href="#DejaVuSans-20" transform="translate(361.425781 0)"/>
      <use xlink:href="#DejaVuSans-31" transform="translate(393.212891 0)"/>
      <use xlink:href="#DejaVuSans-2f" transform="translate(456.835938 0)"/>
      <use xlink:href="#DejaVuSans-4e" transform="translate(490.527344 0)"/>
      <use xlink:href="#DejaVuSans-5f" transform="translate(565.332031 0)"/>
      <use xlink:href="#DejaVuSans-6b" transform="translate(615.332031 0)"/>
      <use xlink:href="#DejaVuSans-20" transform="translate(673.242188 0)"/>
      <use xlink:href="#DejaVuSans-28" transform="translate(705.029297 0)"/>
      <use xlink:href="#DejaVuSans-63" transform="translate(744.042969 0)"/>
      <use xlink:href="#DejaVuSans-6f" transform="translate(799.023438 0)"/>
      <use xlink:href="#DejaVuSans-72" transform="translate(860.205078 0)"/>
      <use xlink:href="#DejaVuSans-72" transform="translate(899.568359 0)"/>
      <use xlink:href="#DejaVuSans-65" transform="translate(938.431641 0)"/>
      <use xlink:href="#DejaVuSans-63" transform="translate(999.955078 0)"/>
      <use xlink:href="#DejaVuSans-74" transform="translate(1054.935547 0)"/>
      <use xlink:href="#DejaVuSans-29" transform="translate(1094.144531 0)"/>
      <use xlink:href="#DejaVuSans-3a" transform="translate(1133.158203 0)"/>
      <use xlink:href="#DejaVuSans-20" transform="translate(1166.849609 0)"/>
      <use xlink:href="#DejaVuSans-222b" transform="translate(1198.636719 0)"/>
      <use xlink:href="#DejaVuSans-41" transform="translate(1250.736328 0)"/>
      <use xlink:href="#DejaVuSans-5f" transform="translate(1319.144531 0)"/>
      <use xlink:href="#DejaVuSans-62" transform="translate(1369.144531 0)"/>
      <use xlink:href="#DejaVuSans-61" transform="translate(1432.621094 0)"/>
      <use xlink:href="#DejaVuSans-72" transform="translate(1493.900391 0)"/>
      <use xlink:href="#DejaVuSans-65" transform="translate(1532.763672 0)"/>
      <use xlink:href="#DejaVuSans-3d" transform="translate(1594.287109 0)"/>
      <use xlink:href="#DejaVuSans-31" transform="translate(1678.076172 0)"/>
      <use xlink:href="#DejaVuSans-30" transform="translate(1741.699219 0)"/>
      <use xlink:href="#DejaVuSans-2e" transform="translate(1805.322266 0)"/>
      <use xlink:href="#DejaVuSans-39" transform="translate(1837.109375 0)"/>
      <use xlink:href="#DejaVuSans-2248" transform="translate(1900.732422 0)"/>
      <use xlink:href="#DejaVuSans-31" transform="translate(1984.521484 0)"/>
      <use xlink:href="#DejaVuSans-31" transform="translate(2048.144531 0)"/>
     </g>
    </g>
   </g>
  </g>
 </g>
 <defs>
  <clipPath id="p824caca1a3">
   <rect x="52.160938" y="22.318125" width="491.04" height="232.848"/>
  </clipPath>
 </defs>
</svg>
