<?xml version="1.0" encoding="utf-8" standalone="no"?>
<!DOCTYPE svg PUBLIC "-//W3C//DTD SVG 1.1//EN"
  "http://www.w3.org/Graphics/SVG/1.1/DTD/svg11.dtd">
<svg xmlns:xlink="http://www.w3.org/1999/xlink" width="561.536875pt" height="266.51625pt" viewBox="0 0 561.536875 266.51625" xmlns="http://www.w3.org/2000/svg" version="1.1">
 <metadata>
  <rdf:RDF xmlns:dc="http://purl.org/dc/elements/1.1/" xmlns:cc="http://creativecommons.org/ns#" xmlns:rdf="http://www.w3.org/1999/02/22-rdf-syntax-ns#">
   <cc:Work>
    <dc:type rdf:resource="http://purl.org/dc/dcmitype/StillImage"/>
    <dc:date>2026-06-30T15:35:44.906921</dc:date>
    <dc:format>image/svg+xml</dc:format>
    <dc:creator>
     <cc:Agent>
      <dc:title>Matplotlib v3.10.8, https://matplotlib.org/</dc:title>
     </cc:Agent>
    </dc:creator>
   </cc:Work>
  </rdf:RDF>
 </metadata>
 <defs>
  <style type="text/css">*{stroke-linejoin: round; stroke-linecap: butt}</style>
 </defs>
 <g id="figure_1">
  <g id="patch_1">
   <path d="M 0 266.51625 
L 561.536875 266.51625 
L 561.536875 0 
L 0 0 
z
" style="fill: #ffffff"/>
  </g>
  <g id="axes_1">
   <g id="patch_2">
    <path d="M 55.345313 228.96 
L 546.385313 228.96 
L 546.385313 7.2 
L 55.345313 7.2 
z
" style="fill: #ffffff"/>
   </g>
   <g id="patch_3">
    <path d="M 265.791027 228.96 
L 498.277422 228.96 
L 498.277422 7.2 
L 265.791027 7.2 
z
" clip-path="url(#p432aff24b9)" style="fill: #eef0f7; stroke: #eef0f7; stroke-linejoin: miter"/>
   </g>
   <g id="matplotlib.axis_1">
    <g id="xtick_1">
     <g id="line2d_1">
      <defs>
       <path id="mb48dab5a51" d="M 0 0 
L 0 3.5 
" style="stroke: #000000; stroke-width: 0.8"/>
      </defs>
      <g>
       <use xlink:href="#mb48dab5a51" x="55.345312" y="228.96" style="stroke: #000000; stroke-width: 0.8"/>
      </g>
     </g>
     <g id="text_1">
      <!-- −1.5 -->
      <g transform="translate(43.203906 243.558438) scale(0.1 -0.1)">
       <defs>
        <path id="DejaVuSans-2212" d="M 678 2272 
L 4684 2272 
L 4684 1741 
L 678 1741 
L 678 2272 
z
" transform="scale(0.015625)"/>
        <path id="DejaVuSans-31" d="M 794 531 
L 1825 531 
L 1825 4091 
L 703 3866 
L 703 4441 
L 1819 4666 
L 2450 4666 
L 2450 531 
L 3481 531 
L 3481 0 
L 794 0 
L 794 531 
z
" transform="scale(0.015625)"/>
        <path id="DejaVuSans-2e" d="M 684 794 
L 1344 794 
L 1344 0 
L 684 0 
L 684 794 
z
" transform="scale(0.015625)"/>
        <path id="DejaVuSans-35" d="M 691 4666 
L 3169 4666 
L 3169 4134 
L 1269 4134 
L 1269 2991 
Q 1406 3038 1543 3061 
Q 1681 3084 1819 3084 
Q 2600 3084 3056 2656 
Q 3513 2228 3513 1497 
Q 3513 744 3044 326 
Q 2575 -91 1722 -91 
Q 1428 -91 1123 -41 
Q 819 9 494 109 
L 494 744 
Q 775 591 1075 516 
Q 1375 441 1709 441 
Q 2250 441 2565 725 
Q 2881 1009 2881 1497 
Q 2881 1984 2565 2268 
Q 2250 2553 1709 2553 
Q 1456 2553 1204 2497 
Q 953 2441 691 2322 
L 691 4666 
z
" transform="scale(0.015625)"/>
       </defs>
       <use xlink:href="#DejaVuSans-2212"/>
       <use xlink:href="#DejaVuSans-31" transform="translate(83.789062 0)"/>
       <use xlink:href="#DejaVuSans-2e" transform="translate(147.412109 0)"/>
       <use xlink:href="#DejaVuSans-35" transform="translate(179.199219 0)"/>
      </g>
     </g>
    </g>
    <g id="xtick_2">
     <g id="line2d_2">
      <g>
       <use xlink:href="#mb48dab5a51" x="125.493884" y="228.96" style="stroke: #000000; stroke-width: 0.8"/>
      </g>
     </g>
     <g id="text_2">
      <!-- −1.0 -->
      <g transform="translate(113.352478 243.558438) scale(0.1 -0.1)">
       <defs>
        <path id="DejaVuSans-30" d="M 2034 4250 
Q 1547 4250 1301 3770 
Q 1056 3291 1056 2328 
Q 1056 1369 1301 889 
Q 1547 409 2034 409 
Q 2525 409 2770 889 
Q 3016 1369 3016 2328 
Q 3016 3291 2770 3770 
Q 2525 4250 2034 4250 
z
M 2034 4750 
Q 2819 4750 3233 4129 
Q 3647 3509 3647 2328 
Q 3647 1150 3233 529 
Q 2819 -91 2034 -91 
Q 1250 -91 836 529 
Q 422 1150 422 2328 
Q 422 3509 836 4129 
Q 1250 4750 2034 4750 
z
" transform="scale(0.015625)"/>
       </defs>
       <use xlink:href="#DejaVuSans-2212"/>
       <use xlink:href="#DejaVuSans-31" transform="translate(83.789062 0)"/>
       <use xlink:href="#DejaVuSans-2e" transform="translate(147.412109 0)"/>
       <use xlink:href="#DejaVuSans-30" transform="translate(179.199219 0)"/>
      </g>
     </g>
    </g>
    <g id="xtick_3">
     <g id="line2d_3">
      <g>
       <use xlink:href="#mb48dab5a51" x="195.642455" y="228.96" style="stroke: #000000; stroke-width: 0.8"/>
      </g>
     </g>
     <g id="text_3">
      <!-- −0.5 -->
      <g transform="translate(183.501049 243.558438) scale(0.1 -0.1)">
       <use xlink:href="#DejaVuSans-2212"/>
       <use xlink:href="#DejaVuSans-30" transform="translate(83.789062 0)"/>
       <use xlink:href="#DejaVuSans-2e" transform="translate(147.412109 0)"/>
       <use xlink:href="#DejaVuSans-35" transform="translate(179.199219 0)"/>
      </g>
     </g>
    </g>
    <g id="xtick_4">
     <g id="line2d_4">
      <g>
       <use xlink:href="#mb48dab5a51" x="265.791027" y="228.96" style="stroke: #000000; stroke-width: 0.8"/>
      </g>
     </g>
     <g id="text_4">
      <!-- 0.0 -->
      <g transform="translate(257.839464 243.558438) scale(0.1 -0.1)">
       <use xlink:href="#DejaVuSans-30"/>
       <use xlink:href="#DejaVuSans-2e" transform="translate(63.623047 0)"/>
       <use xlink:href="#DejaVuSans-30" transform="translate(95.410156 0)"/>
      </g>
     </g>
    </g>
    <g id="xtick_5">
     <g id="line2d_5">
      <g>
       <use xlink:href="#mb48dab5a51" x="335.939598" y="228.96" style="stroke: #000000; stroke-width: 0.8"/>
      </g>
     </g>
     <g id="text_5">
      <!-- 0.5 -->
      <g transform="translate(327.988036 243.558438) scale(0.1 -0.1)">
       <use xlink:href="#DejaVuSans-30"/>
       <use xlink:href="#DejaVuSans-2e" transform="translate(63.623047 0)"/>
       <use xlink:href="#DejaVuSans-35" transform="translate(95.410156 0)"/>
      </g>
     </g>
    </g>
    <g id="xtick_6">
     <g id="line2d_6">
      <g>
       <use xlink:href="#mb48dab5a51" x="406.08817" y="228.96" style="stroke: #000000; stroke-width: 0.8"/>
      </g>
     </g>
     <g id="text_6">
      <!-- 1.0 -->
      <g transform="translate(398.136607 243.558438) scale(0.1 -0.1)">
       <use xlink:href="#DejaVuSans-31"/>
       <use xlink:href="#DejaVuSans-2e" transform="translate(63.623047 0)"/>
       <use xlink:href="#DejaVuSans-30" transform="translate(95.410156 0)"/>
      </g>
     </g>
    </g>
    <g id="xtick_7">
     <g id="line2d_7">
      <g>
       <use xlink:href="#mb48dab5a51" x="476.236741" y="228.96" style="stroke: #000000; stroke-width: 0.8"/>
      </g>
     </g>
     <g id="text_7">
      <!-- 1.5 -->
      <g transform="translate(468.285179 243.558438) scale(0.1 -0.1)">
       <use xlink:href="#DejaVuSans-31"/>
       <use xlink:href="#DejaVuSans-2e" transform="translate(63.623047 0)"/>
       <use xlink:href="#DejaVuSans-35" transform="translate(95.410156 0)"/>
      </g>
     </g>
    </g>
    <g id="xtick_8">
     <g id="line2d_8">
      <g>
       <use xlink:href="#mb48dab5a51" x="546.385313" y="228.96" style="stroke: #000000; stroke-width: 0.8"/>
      </g>
     </g>
     <g id="text_8">
      <!-- 2.0 -->
      <g transform="translate(538.43375 243.558438) scale(0.1 -0.1)">
       <defs>
        <path id="DejaVuSans-32" d="M 1228 531 
L 3431 531 
L 3431 0 
L 469 0 
L 469 531 
Q 828 903 1448 1529 
Q 2069 2156 2228 2338 
Q 2531 2678 2651 2914 
Q 2772 3150 2772 3378 
Q 2772 3750 2511 3984 
Q 2250 4219 1831 4219 
Q 1534 4219 1204 4116 
Q 875 4013 500 3803 
L 500 4441 
Q 881 4594 1212 4672 
Q 1544 4750 1819 4750 
Q 2544 4750 2975 4387 
Q 3406 4025 3406 3419 
Q 3406 3131 3298 2873 
Q 3191 2616 2906 2266 
Q 2828 2175 2409 1742 
Q 1991 1309 1228 531 
z
" transform="scale(0.015625)"/>
       </defs>
       <use xlink:href="#DejaVuSans-32"/>
       <use xlink:href="#DejaVuSans-2e" transform="translate(63.623047 0)"/>
       <use xlink:href="#DejaVuSans-30" transform="translate(95.410156 0)"/>
      </g>
     </g>
    </g>
    <g id="text_9">
     <!-- E - VBM (eV) -->
     <g transform="translate(269.571563 257.236562) scale(0.1 -0.1)">
      <defs>
       <path id="DejaVuSans-45" d="M 628 4666 
L 3578 4666 
L 3578 4134 
L 1259 4134 
L 1259 2753 
L 3481 2753 
L 3481 2222 
L 1259 2222 
L 1259 531 
L 3634 531 
L 3634 0 
L 628 0 
L 628 4666 
z
" transform="scale(0.015625)"/>
       <path id="DejaVuSans-20" transform="scale(0.015625)"/>
       <path id="DejaVuSans-2d" d="M 313 2009 
L 1997 2009 
L 1997 1497 
L 313 1497 
L 313 2009 
z
" transform="scale(0.015625)"/>
       <path id="DejaVuSans-56" d="M 1831 0 
L 50 4666 
L 709 4666 
L 2188 738 
L 3669 4666 
L 4325 4666 
L 2547 0 
L 1831 0 
z
" transform="scale(0.015625)"/>
       <path id="DejaVuSans-42" d="M 1259 2228 
L 1259 519 
L 2272 519 
Q 2781 519 3026 730 
Q 3272 941 3272 1375 
Q 3272 1813 3026 2020 
Q 2781 2228 2272 2228 
L 1259 2228 
z
M 1259 4147 
L 1259 2741 
L 2194 2741 
Q 2656 2741 2882 2914 
Q 3109 3088 3109 3444 
Q 3109 3797 2882 3972 
Q 2656 4147 2194 4147 
L 1259 4147 
z
M 628 4666 
L 2241 4666 
Q 2963 4666 3353 4366 
Q 3744 4066 3744 3513 
Q 3744 3084 3544 2831 
Q 3344 2578 2956 2516 
Q 3422 2416 3680 2098 
Q 3938 1781 3938 1306 
Q 3938 681 3513 340 
Q 3088 0 2303 0 
L 628 0 
L 628 4666 
z
" transform="scale(0.015625)"/>
       <path id="DejaVuSans-4d" d="M 628 4666 
L 1569 4666 
L 2759 1491 
L 3956 4666 
L 4897 4666 
L 4897 0 
L 4281 0 
L 4281 4097 
L 3078 897 
L 2444 897 
L 1241 4097 
L 1241 0 
L 628 0 
L 628 4666 
z
" transform="scale(0.015625)"/>
       <path id="DejaVuSans-28" d="M 1984 4856 
Q 1566 4138 1362 3434 
Q 1159 2731 1159 2009 
Q 1159 1288 1364 580 
Q 1569 -128 1984 -844 
L 1484 -844 
Q 1016 -109 783 600 
Q 550 1309 550 2009 
Q 550 2706 781 3412 
Q 1013 4119 1484 4856 
L 1984 4856 
z
" transform="scale(0.015625)"/>
       <path id="DejaVuSans-65" d="M 3597 1894 
L 3597 1613 
L 953 1613 
Q 991 1019 1311 708 
Q 1631 397 2203 397 
Q 2534 397 2845 478 
Q 3156 559 3463 722 
L 3463 178 
Q 3153 47 2828 -22 
Q 2503 -91 2169 -91 
Q 1331 -91 842 396 
Q 353 884 353 1716 
Q 353 2575 817 3079 
Q 1281 3584 2069 3584 
Q 2775 3584 3186 3129 
Q 3597 2675 3597 1894 
z
M 3022 2063 
Q 3016 2534 2758 2815 
Q 2500 3097 2075 3097 
Q 1594 3097 1305 2825 
Q 1016 2553 972 2059 
L 3022 2063 
z
" transform="scale(0.015625)"/>
       <path id="DejaVuSans-29" d="M 513 4856 
L 1013 4856 
Q 1481 4119 1714 3412 
Q 1947 2706 1947 2009 
Q 1947 1309 1714 600 
Q 1481 -109 1013 -844 
L 513 -844 
Q 928 -128 1133 580 
Q 1338 1288 1338 2009 
Q 1338 2731 1133 3434 
Q 928 4138 513 4856 
z
" transform="scale(0.015625)"/>
      </defs>
      <use xlink:href="#DejaVuSans-45"/>
      <use xlink:href="#DejaVuSans-20" transform="translate(63.183594 0)"/>
      <use xlink:href="#DejaVuSans-2d" transform="translate(94.970703 0)"/>
      <use xlink:href="#DejaVuSans-20" transform="translate(131.054688 0)"/>
      <use xlink:href="#DejaVuSans-56" transform="translate(162.841797 0)"/>
      <use xlink:href="#DejaVuSans-42" transform="translate(231.25 0)"/>
      <use xlink:href="#DejaVuSans-4d" transform="translate(299.853516 0)"/>
      <use xlink:href="#DejaVuSans-20" transform="translate(386.132812 0)"/>
      <use xlink:href="#DejaVuSans-28" transform="translate(417.919922 0)"/>
      <use xlink:href="#DejaVuSans-65" transform="translate(456.933594 0)"/>
      <use xlink:href="#DejaVuSans-56" transform="translate(518.457031 0)"/>
      <use xlink:href="#DejaVuSans-29" transform="translate(586.865234 0)"/>
     </g>
    </g>
   </g>
   <g id="matplotlib.axis_2">
    <g id="ytick_1">
     <g id="line2d_9">
      <defs>
       <path id="mc47834028c" d="M 0 0 
L -3.5 0 
" style="stroke: #000000; stroke-width: 0.8"/>
      </defs>
      <g>
       <use xlink:href="#mc47834028c" x="55.345313" y="216.02012" style="stroke: #000000; stroke-width: 0.8"/>
      </g>
     </g>
     <g id="text_10">
      <!-- −125 -->
      <g transform="translate(20.878125 219.819339) scale(0.1 -0.1)">
       <use xlink:href="#DejaVuSans-2212"/>
       <use xlink:href="#DejaVuSans-31" transform="translate(83.789062 0)"/>
       <use xlink:href="#DejaVuSans-32" transform="translate(147.412109 0)"/>
       <use xlink:href="#DejaVuSans-35" transform="translate(211.035156 0)"/>
      </g>
     </g>
    </g>
    <g id="ytick_2">
     <g id="line2d_10">
      <g>
       <use xlink:href="#mc47834028c" x="55.345313" y="185.985671" style="stroke: #000000; stroke-width: 0.8"/>
      </g>
     </g>
     <g id="text_11">
      <!-- −100 -->
      <g transform="translate(20.878125 189.78489) scale(0.1 -0.1)">
       <use xlink:href="#DejaVuSans-2212"/>
       <use xlink:href="#DejaVuSans-31" transform="translate(83.789062 0)"/>
       <use xlink:href="#DejaVuSans-30" transform="translate(147.412109 0)"/>
       <use xlink:href="#DejaVuSans-30" transform="translate(211.035156 0)"/>
      </g>
     </g>
    </g>
    <g id="ytick_3">
     <g id="line2d_11">
      <g>
       <use xlink:href="#mc47834028c" x="55.345313" y="155.951223" style="stroke: #000000; stroke-width: 0.8"/>
      </g>
     </g>
     <g id="text_12">
      <!-- −75 -->
      <g transform="translate(27.240625 159.750442) scale(0.1 -0.1)">
       <defs>
        <path id="DejaVuSans-37" d="M 525 4666 
L 3525 4666 
L 3525 4397 
L 1831 0 
L 1172 0 
L 2766 4134 
L 525 4134 
L 525 4666 
z
" transform="scale(0.015625)"/>
       </defs>
       <use xlink:href="#DejaVuSans-2212"/>
       <use xlink:href="#DejaVuSans-37" transform="translate(83.789062 0)"/>
       <use xlink:href="#DejaVuSans-35" transform="translate(147.412109 0)"/>
      </g>
     </g>
    </g>
    <g id="ytick_4">
     <g id="line2d_12">
      <g>
       <use xlink:href="#mc47834028c" x="55.345313" y="125.916775" style="stroke: #000000; stroke-width: 0.8"/>
      </g>
     </g>
     <g id="text_13">
      <!-- −50 -->
      <g transform="translate(27.240625 129.715993) scale(0.1 -0.1)">
       <use xlink:href="#DejaVuSans-2212"/>
       <use xlink:href="#DejaVuSans-35" transform="translate(83.789062 0)"/>
       <use xlink:href="#DejaVuSans-30" transform="translate(147.412109 0)"/>
      </g>
     </g>
    </g>
    <g id="ytick_5">
     <g id="line2d_13">
      <g>
       <use xlink:href="#mc47834028c" x="55.345313" y="95.882326" style="stroke: #000000; stroke-width: 0.8"/>
      </g>
     </g>
     <g id="text_14">
      <!-- −25 -->
      <g transform="translate(27.240625 99.681545) scale(0.1 -0.1)">
       <use xlink:href="#DejaVuSans-2212"/>
       <use xlink:href="#DejaVuSans-32" transform="translate(83.789062 0)"/>
       <use xlink:href="#DejaVuSans-35" transform="translate(147.412109 0)"/>
      </g>
     </g>
    </g>
    <g id="ytick_6">
     <g id="line2d_14">
      <g>
       <use xlink:href="#mc47834028c" x="55.345313" y="65.847878" style="stroke: #000000; stroke-width: 0.8"/>
      </g>
     </g>
     <g id="text_15">
      <!-- 0 -->
      <g transform="translate(41.982813 69.647096) scale(0.1 -0.1)">
       <use xlink:href="#DejaVuSans-30"/>
      </g>
     </g>
    </g>
    <g id="ytick_7">
     <g id="line2d_15">
      <g>
       <use xlink:href="#mc47834028c" x="55.345313" y="35.813429" style="stroke: #000000; stroke-width: 0.8"/>
      </g>
     </g>
     <g id="text_16">
      <!-- 25 -->
      <g transform="translate(35.620313 39.612648) scale(0.1 -0.1)">
       <use xlink:href="#DejaVuSans-32"/>
       <use xlink:href="#DejaVuSans-35" transform="translate(63.623047 0)"/>
      </g>
     </g>
    </g>
    <g id="text_17">
     <!-- dDOS -->
     <g transform="translate(14.798438 132.214375) rotate(-90) scale(0.1 -0.1)">
      <defs>
       <path id="DejaVuSans-64" d="M 2906 2969 
L 2906 4863 
L 3481 4863 
L 3481 0 
L 2906 0 
L 2906 525 
Q 2725 213 2448 61 
Q 2172 -91 1784 -91 
Q 1150 -91 751 415 
Q 353 922 353 1747 
Q 353 2572 751 3078 
Q 1150 3584 1784 3584 
Q 2172 3584 2448 3432 
Q 2725 3281 2906 2969 
z
M 947 1747 
Q 947 1113 1208 752 
Q 1469 391 1925 391 
Q 2381 391 2643 752 
Q 2906 1113 2906 1747 
Q 2906 2381 2643 2742 
Q 2381 3103 1925 3103 
Q 1469 3103 1208 2742 
Q 947 2381 947 1747 
z
" transform="scale(0.015625)"/>
       <path id="DejaVuSans-44" d="M 1259 4147 
L 1259 519 
L 2022 519 
Q 2988 519 3436 956 
Q 3884 1394 3884 2338 
Q 3884 3275 3436 3711 
Q 2988 4147 2022 4147 
L 1259 4147 
z
M 628 4666 
L 1925 4666 
Q 3281 4666 3915 4102 
Q 4550 3538 4550 2338 
Q 4550 1131 3912 565 
Q 3275 0 1925 0 
L 628 0 
L 628 4666 
z
" transform="scale(0.015625)"/>
       <path id="DejaVuSans-4f" d="M 2522 4238 
Q 1834 4238 1429 3725 
Q 1025 3213 1025 2328 
Q 1025 1447 1429 934 
Q 1834 422 2522 422 
Q 3209 422 3611 934 
Q 4013 1447 4013 2328 
Q 4013 3213 3611 3725 
Q 3209 4238 2522 4238 
z
M 2522 4750 
Q 3503 4750 4090 4092 
Q 4678 3434 4678 2328 
Q 4678 1225 4090 567 
Q 3503 -91 2522 -91 
Q 1538 -91 948 565 
Q 359 1222 359 2328 
Q 359 3434 948 4092 
Q 1538 4750 2522 4750 
z
" transform="scale(0.015625)"/>
       <path id="DejaVuSans-53" d="M 3425 4513 
L 3425 3897 
Q 3066 4069 2747 4153 
Q 2428 4238 2131 4238 
Q 1616 4238 1336 4038 
Q 1056 3838 1056 3469 
Q 1056 3159 1242 3001 
Q 1428 2844 1947 2747 
L 2328 2669 
Q 3034 2534 3370 2195 
Q 3706 1856 3706 1288 
Q 3706 609 3251 259 
Q 2797 -91 1919 -91 
Q 1588 -91 1214 -16 
Q 841 59 441 206 
L 441 856 
Q 825 641 1194 531 
Q 1563 422 1919 422 
Q 2459 422 2753 634 
Q 3047 847 3047 1241 
Q 3047 1584 2836 1778 
Q 2625 1972 2144 2069 
L 1759 2144 
Q 1053 2284 737 2584 
Q 422 2884 422 3419 
Q 422 4038 858 4394 
Q 1294 4750 2059 4750 
Q 2388 4750 2728 4690 
Q 3069 4631 3425 4513 
z
" transform="scale(0.015625)"/>
      </defs>
      <use xlink:href="#DejaVuSans-64"/>
      <use xlink:href="#DejaVuSans-44" transform="translate(63.476562 0)"/>
      <use xlink:href="#DejaVuSans-4f" transform="translate(140.478516 0)"/>
      <use xlink:href="#DejaVuSans-53" transform="translate(219.189453 0)"/>
     </g>
    </g>
   </g>
   <g id="line2d_16">
    <path d="M 265.791027 228.96 
L 265.791027 7.2 
" clip-path="url(#p432aff24b9)" style="fill: none; stroke-dasharray: 3.6,2.7; stroke-dashoffset: 0; stroke: #0f9d77; stroke-width: 0.9"/>
   </g>
   <g id="line2d_17">
    <path d="M 498.277422 228.96 
L 498.277422 7.2 
" clip-path="url(#p432aff24b9)" style="fill: none; stroke-dasharray: 3.6,2.7; stroke-dashoffset: 0; stroke: #c0399a; stroke-width: 0.9"/>
   </g>
   <g id="line2d_18">
    <path d="M 55.345313 65.847878 
L 546.385313 65.847878 
" clip-path="url(#p432aff24b9)" style="fill: none; stroke: #1a1d27; stroke-width: 0.5; stroke-linecap: square"/>
   </g>
   <g id="line2d_19">
    <path d="M -1 49.676393 
L -0.06785 50.002712 
L 2.142952 54.256252 
L 6.564697 59.456534 
L 8.77564 65.714955 
L 10.986583 72.572289 
L 13.197385 75.899084 
L 15.408328 76.495301 
L 17.61913 77.6143 
L 19.830073 79.968874 
L 22.040875 79.797942 
L 24.251818 77.199558 
L 26.46262 74.227292 
L 28.673563 71.022867 
L 30.884506 71.122006 
L 33.095308 77.818584 
L 35.306251 91.223455 
L 37.517053 103.254714 
L 39.727996 100.734896 
L 44.149741 70.761219 
L 46.360543 61.076187 
L 48.571486 58.107622 
L 50.782429 62.12298 
L 52.993231 70.982229 
L 55.204174 77.399299 
L 57.414976 74.23309 
L 59.625919 64.553687 
L 61.836721 55.828568 
L 64.047664 50.952653 
L 66.258466 49.816234 
L 68.469409 52.764067 
L 70.680351 60.283314 
L 72.891154 70.384975 
L 75.102096 79.544583 
L 77.312899 85.99883 
L 79.523842 88.784261 
L 81.734644 88.943588 
L 83.945587 86.683904 
L 86.156389 79.575975 
L 88.367332 69.170076 
L 90.578274 59.497639 
L 92.789077 53.014554 
L 95.000019 50.410015 
L 97.210822 51.111403 
L 99.421764 53.598436 
L 101.632567 54.733914 
L 103.843509 52.099849 
L 106.054312 48.635231 
L 108.265254 48.975209 
L 110.476197 54.805448 
L 112.687 63.739475 
L 114.897942 69.896104 
L 117.108745 70.857639 
L 119.319687 70.873024 
L 121.53049 73.572773 
L 123.741432 79.851139 
L 125.952235 86.700723 
L 128.163177 90.951895 
L 130.37412 89.56643 
L 132.584922 81.517498 
L 134.795865 71.482422 
L 137.006667 64.316118 
L 139.21761 61.303186 
L 141.428413 61.961516 
L 143.639355 65.718634 
L 145.850158 70.204231 
L 148.0611 70.821719 
L 150.272043 67.969779 
L 152.482845 67.943307 
L 154.693788 71.584583 
L 156.90459 75.987763 
L 159.115533 82.479766 
L 161.326335 88.315615 
L 163.537278 86.329029 
L 165.74808 77.595636 
L 167.959023 67.068863 
L 170.169966 58.350889 
L 172.380768 52.717345 
L 174.591711 50.090881 
L 176.802513 49.272815 
L 179.013456 48.124069 
L 181.224258 47.121075 
L 183.435201 49.084294 
L 185.646003 56.403686 
L 190.067748 81.94484 
L 192.278691 90.700891 
L 194.489634 94.183554 
L 196.700436 90.276745 
L 201.122181 71.945077 
L 203.333124 65.661693 
L 205.543926 60.858431 
L 207.754869 56.527794 
L 209.965671 52.852344 
L 212.176614 50.270907 
L 214.387557 49.12072 
L 216.598359 50.589873 
L 218.809302 55.422784 
L 221.020104 61.725283 
L 223.231047 66.52314 
L 225.441849 67.76548 
L 227.652792 64.553958 
L 229.863594 60.858302 
L 232.074537 62.176742 
L 234.285479 69.78655 
L 236.496282 78.71663 
L 238.707225 81.18259 
L 240.918027 76.196629 
L 243.12897 69.060189 
L 245.339772 63.375575 
L 247.550715 59.509075 
L 249.761517 57.491377 
L 251.97246 57.772079 
L 254.183402 60.548661 
L 256.394205 64.985214 
L 258.605147 67.954346 
L 260.81595 67.33801 
L 263.026892 65.650464 
L 265.237695 65.169012 
L 267.448638 65.409234 
L 269.65944 65.504877 
L 274.081325 65.147994 
L 278.50307 64.585697 
L 280.713873 64.199848 
L 282.924815 63.678437 
L 285.135618 62.945005 
L 287.34656 61.904359 
L 289.557363 60.503187 
L 291.768305 58.951059 
L 293.979248 58.001917 
L 296.190051 58.404344 
L 300.611796 61.212234 
L 302.822738 62.312028 
L 305.033541 63.057877 
L 307.244483 63.535432 
L 309.455286 63.820765 
L 311.666228 63.962088 
L 313.877171 63.983232 
L 316.087973 63.887906 
L 318.298916 63.660465 
L 320.509718 63.262852 
L 322.720661 62.629721 
L 324.931463 61.673476 
L 327.142406 60.345582 
L 329.353209 58.857413 
L 331.564151 57.963539 
L 333.775094 58.418556 
L 338.196839 61.349761 
L 340.407641 62.522083 
L 342.618584 63.35021 
L 344.829386 63.924295 
L 347.040329 64.326848 
L 351.462074 64.826645 
L 358.094762 65.199864 
L 366.938252 65.415992 
L 382.41443 65.513956 
L 397.890608 65.387243 
L 406.734098 65.103715 
L 411.155843 64.800728 
L 415.577588 64.240918 
L 417.78853 63.780009 
L 419.999333 63.115184 
L 422.210276 62.155579 
L 424.421078 60.83365 
L 426.632021 59.294077 
L 428.842823 58.204501 
L 431.053766 58.407587 
L 433.264568 59.718437 
L 435.475511 61.227909 
L 437.686453 62.436239 
L 439.897256 63.291458 
L 442.108198 63.878232 
L 444.319001 64.282042 
L 448.740746 64.761783 
L 453.162491 64.999615 
L 459.795179 65.119335 
L 466.427866 65.028767 
L 470.849611 64.813684 
L 475.271356 64.360667 
L 477.482299 63.971417 
L 479.693101 63.400751 
L 481.904044 62.571199 
L 486.325789 60.180327 
L 488.536592 59.521776 
L 490.747534 60.35472 
L 495.169279 64.573075 
L 497.380222 65.170925 
L 499.591024 63.511608 
L 501.801967 61.188533 
L 504.012769 60.259816 
L 506.223712 60.69944 
L 508.434514 61.46586 
L 510.645457 61.968774 
L 512.85626 62.059001 
L 515.067202 61.700798 
L 517.278005 60.842125 
L 519.488947 59.455967 
L 521.69989 57.808402 
L 523.910692 56.90985 
L 526.121635 58.294747 
L 528.332437 62.66386 
L 530.54338 68.250595 
L 532.754182 70.716829 
L 534.965125 68.382315 
L 537.175927 63.039257 
L 539.38687 56.28876 
L 541.597813 51.539875 
L 543.808615 51.413141 
L 546.019558 56.040875 
L 550.441303 72.510805 
L 552.652105 76.046667 
L 554.863048 77.081277 
L 557.07385 79.856077 
L 559.284793 81.221995 
L 561.495736 78.058527 
L 562.536875 75.500415 
L 562.536875 75.500415 
" clip-path="url(#p432aff24b9)" style="fill: none; stroke: #b7791f; stroke-width: 1.6; stroke-linecap: square"/>
   </g>
   <g id="line2d_20">
    <path d="M -1 40.514038 
L -0.06785 39.447658 
L 2.142952 43.423762 
L 4.353895 48.484783 
L 6.564697 57.010598 
L 10.986583 86.445058 
L 13.197385 93.029942 
L 15.408328 94.231549 
L 17.61913 96.772859 
L 19.830073 101.299928 
L 22.040875 102.622681 
L 24.251818 102.530475 
L 26.46262 103.251831 
L 28.673563 103.462841 
L 30.884506 109.665735 
L 33.095308 129.002646 
L 35.306251 158.503827 
L 37.517053 177.864573 
L 39.727996 162.203686 
L 44.149741 77.743157 
L 46.360543 51.455875 
L 48.571486 41.492451 
L 50.782429 45.033368 
L 52.993231 56.699305 
L 55.204174 64.961394 
L 57.414976 59.529503 
L 59.625919 45.228075 
L 61.836721 32.65461 
L 64.047664 26.544846 
L 66.258466 27.658247 
L 68.469409 36.316122 
L 70.680351 53.1314 
L 75.102096 100.048092 
L 77.312899 117.26063 
L 79.523842 123.384234 
L 81.734644 119.319203 
L 83.945587 105.576701 
L 86.156389 81.690989 
L 88.367332 55.512593 
L 90.578274 35.80377 
L 92.789077 25.198402 
L 95.000019 22.552319 
L 97.210822 25.628111 
L 99.421764 31.289136 
L 101.632567 34.556704 
L 103.843509 33.039399 
L 106.054312 31.691297 
L 108.265254 37.137131 
L 110.476197 51.732348 
L 112.687 71.322301 
L 114.897942 85.211111 
L 117.108745 88.800648 
L 119.319687 90.196204 
L 121.53049 96.545246 
L 123.741432 107.837202 
L 125.952235 116.706615 
L 128.163177 116.274527 
L 130.37412 103.670775 
L 134.795865 61.448302 
L 137.006667 48.997291 
L 139.21761 46.007349 
L 141.428413 52.272019 
L 143.639355 67.026165 
L 145.850158 84.387338 
L 148.0611 93.938016 
L 150.272043 95.191834 
L 152.482845 99.554686 
L 154.693788 109.851781 
L 156.90459 121.580701 
L 159.115533 134.078732 
L 161.326335 139.272385 
L 163.537278 125.390078 
L 167.959023 69.020348 
L 170.169966 47.260483 
L 172.380768 35.203369 
L 174.591711 30.678776 
L 176.802513 29.887236 
L 179.013456 30.343351 
L 181.224258 33.977375 
L 183.435201 45.844526 
L 185.646003 69.763069 
L 190.067748 139.789001 
L 192.278691 164.442839 
L 194.489634 170.317216 
L 196.700436 150.701538 
L 201.122181 77.218134 
L 203.333124 51.127574 
L 205.543926 35.076264 
L 207.754869 26.540197 
L 209.965671 23.162956 
L 212.176614 23.931285 
L 214.387557 29.077183 
L 216.598359 39.274719 
L 218.809302 53.288036 
L 221.020104 66.242186 
L 223.231047 72.960875 
L 225.441849 72.470787 
L 227.652792 67.526152 
L 229.863594 65.588409 
L 232.074537 73.14871 
L 234.285479 88.897407 
L 236.496282 100.817082 
L 238.707225 96.443958 
L 243.12897 62.050638 
L 245.339772 50.600421 
L 247.550715 44.926265 
L 249.761517 43.47816 
L 251.97246 45.729434 
L 254.183402 51.792224 
L 256.394205 60.218319 
L 258.605147 66.497183 
L 260.81595 67.134625 
L 263.026892 63.976382 
L 265.237695 59.496608 
L 267.448638 54.688934 
L 269.65944 50.474096 
L 271.870383 48.105292 
L 274.081325 48.233971 
L 276.292128 49.685896 
L 278.50307 50.811864 
L 282.924815 51.687813 
L 285.135618 52.917879 
L 287.34656 54.349151 
L 289.557363 55.167178 
L 291.768305 55.093526 
L 293.979248 54.374454 
L 296.190051 53.83357 
L 298.400993 54.330611 
L 300.611796 55.58207 
L 302.822738 56.658031 
L 305.033541 57.049864 
L 307.244483 56.663179 
L 311.666228 54.733936 
L 313.877171 54.780373 
L 316.087973 55.862458 
L 318.298916 57.07626 
L 320.509718 57.768242 
L 322.720661 57.752747 
L 324.931463 57.043862 
L 327.142406 55.882364 
L 329.353209 55.00743 
L 331.564151 55.286134 
L 335.985896 57.793204 
L 338.196839 58.586471 
L 340.407641 58.797162 
L 342.618584 58.416172 
L 344.829386 57.385174 
L 347.040329 55.589984 
L 349.251131 53.013161 
L 351.462074 50.183627 
L 353.672876 48.531877 
L 355.883819 49.255335 
L 360.305564 54.227465 
L 362.516507 55.993149 
L 364.727309 56.832388 
L 366.938252 56.813741 
L 369.149054 56.079875 
L 371.359997 55.070653 
L 373.570799 54.712721 
L 375.781742 55.576883 
L 377.992685 57.035053 
L 380.203487 58.258663 
L 382.41443 58.940087 
L 384.625232 59.051989 
L 386.836175 58.598391 
L 389.046977 57.577122 
L 391.25792 56.142672 
L 393.468722 54.927572 
L 395.679665 54.802928 
L 400.10141 56.571098 
L 402.312353 56.865246 
L 404.523155 56.384791 
L 408.9449 54.066821 
L 411.155843 53.746241 
L 415.577588 55.176565 
L 417.78853 55.243795 
L 419.999333 54.354857 
L 422.210276 52.570189 
L 424.421078 50.452267 
L 426.632021 49.075873 
L 428.842823 49.169905 
L 431.053766 50.764842 
L 433.264568 53.200672 
L 435.475511 55.455944 
L 437.686453 57.018156 
L 439.897256 57.853062 
L 442.108198 58.039792 
L 444.319001 57.605785 
L 446.529943 56.498341 
L 448.740746 54.643867 
L 453.162491 49.793288 
L 455.373434 48.442458 
L 457.584376 48.473466 
L 459.795179 49.691855 
L 462.006121 51.236959 
L 464.216924 52.113064 
L 466.427866 52.099801 
L 468.638669 51.877282 
L 470.849611 52.425591 
L 473.060414 53.70107 
L 475.271356 54.803042 
L 477.482299 55.140316 
L 479.693101 54.545845 
L 481.904044 53.074383 
L 484.114847 51.149463 
L 486.325789 49.623148 
L 488.536592 48.844403 
L 490.747534 48.369066 
L 492.958337 48.289991 
L 495.169279 48.832474 
L 497.380222 48.918132 
L 499.591024 46.966565 
L 501.801967 43.316191 
L 504.012769 40.070392 
L 506.223712 38.807095 
L 508.434514 39.26011 
L 512.85626 41.279879 
L 515.067202 41.57167 
L 517.278005 41.727801 
L 519.488947 42.949951 
L 521.69989 45.715655 
L 523.910692 50.390565 
L 526.121635 58.51082 
L 528.332437 71.028745 
L 530.54338 84.452176 
L 532.754182 90.394023 
L 534.965125 85.381021 
L 537.175927 73.603963 
L 539.38687 58.82767 
L 541.597813 46.373782 
L 543.808615 41.569099 
L 546.019558 46.533385 
L 548.23036 59.810923 
L 550.441303 76.04703 
L 552.652105 88.291852 
L 554.863048 97.866077 
L 557.07385 110.036396 
L 559.284793 119.188565 
L 561.495736 118.06583 
L 562.536875 114.815474 
L 562.536875 114.815474 
" clip-path="url(#p432aff24b9)" style="fill: none; stroke: #3b4cc0; stroke-width: 1.7; stroke-linecap: square"/>
   </g>
   <g id="line2d_21">
    <path d="M 428.535712 228.96 
L 428.535712 7.2 
" clip-path="url(#p432aff24b9)" style="fill: none; stroke: #c0399a; stroke-opacity: 0.45; stroke-width: 2; stroke-linecap: square"/>
   </g>
   <g id="patch_4">
    <path d="M 55.345313 228.96 
L 55.345313 7.2 
" style="fill: none; stroke: #000000; stroke-width: 0.8; stroke-linejoin: miter; stroke-linecap: square"/>
   </g>
   <g id="patch_5">
    <path d="M 55.345312 228.96 
L 546.385313 228.96 
" style="fill: none; stroke: #000000; stroke-width: 0.8; stroke-linejoin: miter; stroke-linecap: square"/>
   </g>
   <g id="text_18">
    <!--  DFT +1.16 -->
    <g style="fill: #c0399a" transform="translate(428.535712 33.591545) scale(0.09 -0.09)">
     <defs>
      <path id="DejaVuSans-46" d="M 628 4666 
L 3309 4666 
L 3309 4134 
L 1259 4134 
L 1259 2759 
L 3109 2759 
L 3109 2228 
L 1259 2228 
L 1259 0 
L 628 0 
L 628 4666 
z
" transform="scale(0.015625)"/>
      <path id="DejaVuSans-54" d="M -19 4666 
L 3928 4666 
L 3928 4134 
L 2272 4134 
L 2272 0 
L 1638 0 
L 1638 4134 
L -19 4134 
L -19 4666 
z
" transform="scale(0.015625)"/>
      <path id="DejaVuSans-2b" d="M 2944 4013 
L 2944 2272 
L 4684 2272 
L 4684 1741 
L 2944 1741 
L 2944 0 
L 2419 0 
L 2419 1741 
L 678 1741 
L 678 2272 
L 2419 2272 
L 2419 4013 
L 2944 4013 
z
" transform="scale(0.015625)"/>
      <path id="DejaVuSans-36" d="M 2113 2584 
Q 1688 2584 1439 2293 
Q 1191 2003 1191 1497 
Q 1191 994 1439 701 
Q 1688 409 2113 409 
Q 2538 409 2786 701 
Q 3034 994 3034 1497 
Q 3034 2003 2786 2293 
Q 2538 2584 2113 2584 
z
M 3366 4563 
L 3366 3988 
Q 3128 4100 2886 4159 
Q 2644 4219 2406 4219 
Q 1781 4219 1451 3797 
Q 1122 3375 1075 2522 
Q 1259 2794 1537 2939 
Q 1816 3084 2150 3084 
Q 2853 3084 3261 2657 
Q 3669 2231 3669 1497 
Q 3669 778 3244 343 
Q 2819 -91 2113 -91 
Q 1303 -91 875 529 
Q 447 1150 447 2328 
Q 447 3434 972 4092 
Q 1497 4750 2381 4750 
Q 2619 4750 2861 4703 
Q 3103 4656 3366 4563 
z
" transform="scale(0.015625)"/>
     </defs>
     <use xlink:href="#DejaVuSans-20"/>
     <use xlink:href="#DejaVuSans-44" transform="translate(31.787109 0)"/>
     <use xlink:href="#DejaVuSans-46" transform="translate(108.789062 0)"/>
     <use xlink:href="#DejaVuSans-54" transform="translate(164.558594 0)"/>
     <use xlink:href="#DejaVuSans-20" transform="translate(225.642578 0)"/>
     <use xlink:href="#DejaVuSans-2b" transform="translate(257.429688 0)"/>
     <use xlink:href="#DejaVuSans-31" transform="translate(341.21875 0)"/>
     <use xlink:href="#DejaVuSans-2e" transform="translate(404.841797 0)"/>
     <use xlink:href="#DejaVuSans-31" transform="translate(436.628906 0)"/>
     <use xlink:href="#DejaVuSans-36" transform="translate(500.251953 0)"/>
    </g>
   </g>
   <g id="legend_1">
    <g id="line2d_22">
     <path d="M 64.795313 20.953359 
L 75.295313 20.953359 
L 85.795313 20.953359 
" style="fill: none; stroke: #b7791f; stroke-width: 1.6; stroke-linecap: square"/>
    </g>
    <g id="text_19">
     <!-- M as eV (units BUG): no defect state -->
     <g transform="translate(94.195312 24.628359) scale(0.105 -0.105)">
      <defs>
       <path id="DejaVuSans-61" d="M 2194 1759 
Q 1497 1759 1228 1600 
Q 959 1441 959 1056 
Q 959 750 1161 570 
Q 1363 391 1709 391 
Q 2188 391 2477 730 
Q 2766 1069 2766 1631 
L 2766 1759 
L 2194 1759 
z
M 3341 1997 
L 3341 0 
L 2766 0 
L 2766 531 
Q 2569 213 2275 61 
Q 1981 -91 1556 -91 
Q 1019 -91 701 211 
Q 384 513 384 1019 
Q 384 1609 779 1909 
Q 1175 2209 1959 2209 
L 2766 2209 
L 2766 2266 
Q 2766 2663 2505 2880 
Q 2244 3097 1772 3097 
Q 1472 3097 1187 3025 
Q 903 2953 641 2809 
L 641 3341 
Q 956 3463 1253 3523 
Q 1550 3584 1831 3584 
Q 2591 3584 2966 3190 
Q 3341 2797 3341 1997 
z
" transform="scale(0.015625)"/>
       <path id="DejaVuSans-73" d="M 2834 3397 
L 2834 2853 
Q 2591 2978 2328 3040 
Q 2066 3103 1784 3103 
Q 1356 3103 1142 2972 
Q 928 2841 928 2578 
Q 928 2378 1081 2264 
Q 1234 2150 1697 2047 
L 1894 2003 
Q 2506 1872 2764 1633 
Q 3022 1394 3022 966 
Q 3022 478 2636 193 
Q 2250 -91 1575 -91 
Q 1294 -91 989 -36 
Q 684 19 347 128 
L 347 722 
Q 666 556 975 473 
Q 1284 391 1588 391 
Q 1994 391 2212 530 
Q 2431 669 2431 922 
Q 2431 1156 2273 1281 
Q 2116 1406 1581 1522 
L 1381 1569 
Q 847 1681 609 1914 
Q 372 2147 372 2553 
Q 372 3047 722 3315 
Q 1072 3584 1716 3584 
Q 2034 3584 2315 3537 
Q 2597 3491 2834 3397 
z
" transform="scale(0.015625)"/>
       <path id="DejaVuSans-75" d="M 544 1381 
L 544 3500 
L 1119 3500 
L 1119 1403 
Q 1119 906 1312 657 
Q 1506 409 1894 409 
Q 2359 409 2629 706 
Q 2900 1003 2900 1516 
L 2900 3500 
L 3475 3500 
L 3475 0 
L 2900 0 
L 2900 538 
Q 2691 219 2414 64 
Q 2138 -91 1772 -91 
Q 1169 -91 856 284 
Q 544 659 544 1381 
z
M 1991 3584 
L 1991 3584 
z
" transform="scale(0.015625)"/>
       <path id="DejaVuSans-6e" d="M 3513 2113 
L 3513 0 
L 2938 0 
L 2938 2094 
Q 2938 2591 2744 2837 
Q 2550 3084 2163 3084 
Q 1697 3084 1428 2787 
Q 1159 2491 1159 1978 
L 1159 0 
L 581 0 
L 581 3500 
L 1159 3500 
L 1159 2956 
Q 1366 3272 1645 3428 
Q 1925 3584 2291 3584 
Q 2894 3584 3203 3211 
Q 3513 2838 3513 2113 
z
" transform="scale(0.015625)"/>
       <path id="DejaVuSans-69" d="M 603 3500 
L 1178 3500 
L 1178 0 
L 603 0 
L 603 3500 
z
M 603 4863 
L 1178 4863 
L 1178 4134 
L 603 4134 
L 603 4863 
z
" transform="scale(0.015625)"/>
       <path id="DejaVuSans-74" d="M 1172 4494 
L 1172 3500 
L 2356 3500 
L 2356 3053 
L 1172 3053 
L 1172 1153 
Q 1172 725 1289 603 
Q 1406 481 1766 481 
L 2356 481 
L 2356 0 
L 1766 0 
Q 1100 0 847 248 
Q 594 497 594 1153 
L 594 3053 
L 172 3053 
L 172 3500 
L 594 3500 
L 594 4494 
L 1172 4494 
z
" transform="scale(0.015625)"/>
       <path id="DejaVuSans-55" d="M 556 4666 
L 1191 4666 
L 1191 1831 
Q 1191 1081 1462 751 
Q 1734 422 2344 422 
Q 2950 422 3222 751 
Q 3494 1081 3494 1831 
L 3494 4666 
L 4128 4666 
L 4128 1753 
Q 4128 841 3676 375 
Q 3225 -91 2344 -91 
Q 1459 -91 1007 375 
Q 556 841 556 1753 
L 556 4666 
z
" transform="scale(0.015625)"/>
       <path id="DejaVuSans-47" d="M 3809 666 
L 3809 1919 
L 2778 1919 
L 2778 2438 
L 4434 2438 
L 4434 434 
Q 4069 175 3628 42 
Q 3188 -91 2688 -91 
Q 1594 -91 976 548 
Q 359 1188 359 2328 
Q 359 3472 976 4111 
Q 1594 4750 2688 4750 
Q 3144 4750 3555 4637 
Q 3966 4525 4313 4306 
L 4313 3634 
Q 3963 3931 3569 4081 
Q 3175 4231 2741 4231 
Q 1884 4231 1454 3753 
Q 1025 3275 1025 2328 
Q 1025 1384 1454 906 
Q 1884 428 2741 428 
Q 3075 428 3337 486 
Q 3600 544 3809 666 
z
" transform="scale(0.015625)"/>
       <path id="DejaVuSans-3a" d="M 750 794 
L 1409 794 
L 1409 0 
L 750 0 
L 750 794 
z
M 750 3309 
L 1409 3309 
L 1409 2516 
L 750 2516 
L 750 3309 
z
" transform="scale(0.015625)"/>
       <path id="DejaVuSans-6f" d="M 1959 3097 
Q 1497 3097 1228 2736 
Q 959 2375 959 1747 
Q 959 1119 1226 758 
Q 1494 397 1959 397 
Q 2419 397 2687 759 
Q 2956 1122 2956 1747 
Q 2956 2369 2687 2733 
Q 2419 3097 1959 3097 
z
M 1959 3584 
Q 2709 3584 3137 3096 
Q 3566 2609 3566 1747 
Q 3566 888 3137 398 
Q 2709 -91 1959 -91 
Q 1206 -91 779 398 
Q 353 888 353 1747 
Q 353 2609 779 3096 
Q 1206 3584 1959 3584 
z
" transform="scale(0.015625)"/>
       <path id="DejaVuSans-66" d="M 2375 4863 
L 2375 4384 
L 1825 4384 
Q 1516 4384 1395 4259 
Q 1275 4134 1275 3809 
L 1275 3500 
L 2222 3500 
L 2222 3053 
L 1275 3053 
L 1275 0 
L 697 0 
L 697 3053 
L 147 3053 
L 147 3500 
L 697 3500 
L 697 3744 
Q 697 4328 969 4595 
Q 1241 4863 1831 4863 
L 2375 4863 
z
" transform="scale(0.015625)"/>
       <path id="DejaVuSans-63" d="M 3122 3366 
L 3122 2828 
Q 2878 2963 2633 3030 
Q 2388 3097 2138 3097 
Q 1578 3097 1268 2742 
Q 959 2388 959 1747 
Q 959 1106 1268 751 
Q 1578 397 2138 397 
Q 2388 397 2633 464 
Q 2878 531 3122 666 
L 3122 134 
Q 2881 22 2623 -34 
Q 2366 -91 2075 -91 
Q 1284 -91 818 406 
Q 353 903 353 1747 
Q 353 2603 823 3093 
Q 1294 3584 2113 3584 
Q 2378 3584 2631 3529 
Q 2884 3475 3122 3366 
z
" transform="scale(0.015625)"/>
      </defs>
      <use xlink:href="#DejaVuSans-4d"/>
      <use xlink:href="#DejaVuSans-20" transform="translate(86.279297 0)"/>
      <use xlink:href="#DejaVuSans-61" transform="translate(118.066406 0)"/>
      <use xlink:href="#DejaVuSans-73" transform="translate(179.345703 0)"/>
      <use xlink:href="#DejaVuSans-20" transform="translate(231.445312 0)"/>
      <use xlink:href="#DejaVuSans-65" transform="translate(263.232422 0)"/>
      <use xlink:href="#DejaVuSans-56" transform="translate(324.755859 0)"/>
      <use xlink:href="#DejaVuSans-20" transform="translate(393.164062 0)"/>
      <use xlink:href="#DejaVuSans-28" transform="translate(424.951172 0)"/>
      <use xlink:href="#DejaVuSans-75" transform="translate(463.964844 0)"/>
      <use xlink:href="#DejaVuSans-6e" transform="translate(527.34375 0)"/>
      <use xlink:href="#DejaVuSans-69" transform="translate(590.722656 0)"/>
      <use xlink:href="#DejaVuSans-74" transform="translate(618.505859 0)"/>
      <use xlink:href="#DejaVuSans-73" transform="translate(657.714844 0)"/>
      <use xlink:href="#DejaVuSans-20" transform="translate(709.814453 0)"/>
      <use xlink:href="#DejaVuSans-42" transform="translate(741.601562 0)"/>
      <use xlink:href="#DejaVuSans-55" transform="translate(810.205078 0)"/>
      <use xlink:href="#DejaVuSans-47" transform="translate(883.398438 0)"/>
      <use xlink:href="#DejaVuSans-29" transform="translate(960.888672 0)"/>
      <use xlink:href="#DejaVuSans-3a" transform="translate(999.902344 0)"/>
      <use xlink:href="#DejaVuSans-20" transform="translate(1033.59375 0)"/>
      <use xlink:href="#DejaVuSans-6e" transform="translate(1065.380859 0)"/>
      <use xlink:href="#DejaVuSans-6f" transform="translate(1128.759766 0)"/>
      <use xlink:href="#DejaVuSans-20" transform="translate(1189.941406 0)"/>
      <use xlink:href="#DejaVuSans-64" transform="translate(1221.728516 0)"/>
      <use xlink:href="#DejaVuSans-65" transform="translate(1285.205078 0)"/>
      <use xlink:href="#DejaVuSans-66" transform="translate(1346.728516 0)"/>
      <use xlink:href="#DejaVuSans-65" transform="translate(1381.933594 0)"/>
      <use xlink:href="#DejaVuSans-63" transform="translate(1443.457031 0)"/>
      <use xlink:href="#DejaVuSans-74" transform="translate(1498.4375 0)"/>
      <use xlink:href="#DejaVuSans-20" transform="translate(1537.646484 0)"/>
      <use xlink:href="#DejaVuSans-73" transform="translate(1569.433594 0)"/>
      <use xlink:href="#DejaVuSans-74" transform="translate(1621.533203 0)"/>
      <use xlink:href="#DejaVuSans-61" transform="translate(1660.742188 0)"/>
      <use xlink:href="#DejaVuSans-74" transform="translate(1722.021484 0)"/>
      <use xlink:href="#DejaVuSans-65" transform="translate(1761.230469 0)"/>
     </g>
    </g>
    <g id="line2d_23">
     <path d="M 64.795313 36.365391 
L 75.295313 36.365391 
L 85.795313 36.365391 
" style="fill: none; stroke: #3b4cc0; stroke-width: 1.7; stroke-linecap: square"/>
    </g>
    <g id="text_20">
     <!-- M x RYTOEV (fixed): strong in-gap state -->
     <g transform="translate(94.195312 40.040391) scale(0.105 -0.105)">
      <defs>
       <path id="DejaVuSans-78" d="M 3513 3500 
L 2247 1797 
L 3578 0 
L 2900 0 
L 1881 1375 
L 863 0 
L 184 0 
L 1544 1831 
L 300 3500 
L 978 3500 
L 1906 2253 
L 2834 3500 
L 3513 3500 
z
" transform="scale(0.015625)"/>
       <path id="DejaVuSans-52" d="M 2841 2188 
Q 3044 2119 3236 1894 
Q 3428 1669 3622 1275 
L 4263 0 
L 3584 0 
L 2988 1197 
Q 2756 1666 2539 1819 
Q 2322 1972 1947 1972 
L 1259 1972 
L 1259 0 
L 628 0 
L 628 4666 
L 2053 4666 
Q 2853 4666 3247 4331 
Q 3641 3997 3641 3322 
Q 3641 2881 3436 2590 
Q 3231 2300 2841 2188 
z
M 1259 4147 
L 1259 2491 
L 2053 2491 
Q 2509 2491 2742 2702 
Q 2975 2913 2975 3322 
Q 2975 3731 2742 3939 
Q 2509 4147 2053 4147 
L 1259 4147 
z
" transform="scale(0.015625)"/>
       <path id="DejaVuSans-59" d="M -13 4666 
L 666 4666 
L 1959 2747 
L 3244 4666 
L 3922 4666 
L 2272 2222 
L 2272 0 
L 1638 0 
L 1638 2222 
L -13 4666 
z
" transform="scale(0.015625)"/>
       <path id="DejaVuSans-72" d="M 2631 2963 
Q 2534 3019 2420 3045 
Q 2306 3072 2169 3072 
Q 1681 3072 1420 2755 
Q 1159 2438 1159 1844 
L 1159 0 
L 581 0 
L 581 3500 
L 1159 3500 
L 1159 2956 
Q 1341 3275 1631 3429 
Q 1922 3584 2338 3584 
Q 2397 3584 2469 3576 
Q 2541 3569 2628 3553 
L 2631 2963 
z
" transform="scale(0.015625)"/>
       <path id="DejaVuSans-67" d="M 2906 1791 
Q 2906 2416 2648 2759 
Q 2391 3103 1925 3103 
Q 1463 3103 1205 2759 
Q 947 2416 947 1791 
Q 947 1169 1205 825 
Q 1463 481 1925 481 
Q 2391 481 2648 825 
Q 2906 1169 2906 1791 
z
M 3481 434 
Q 3481 -459 3084 -895 
Q 2688 -1331 1869 -1331 
Q 1566 -1331 1297 -1286 
Q 1028 -1241 775 -1147 
L 775 -588 
Q 1028 -725 1275 -790 
Q 1522 -856 1778 -856 
Q 2344 -856 2625 -561 
Q 2906 -266 2906 331 
L 2906 616 
Q 2728 306 2450 153 
Q 2172 0 1784 0 
Q 1141 0 747 490 
Q 353 981 353 1791 
Q 353 2603 747 3093 
Q 1141 3584 1784 3584 
Q 2172 3584 2450 3431 
Q 2728 3278 2906 2969 
L 2906 3500 
L 3481 3500 
L 3481 434 
z
" transform="scale(0.015625)"/>
       <path id="DejaVuSans-70" d="M 1159 525 
L 1159 -1331 
L 581 -1331 
L 581 3500 
L 1159 3500 
L 1159 2969 
Q 1341 3281 1617 3432 
Q 1894 3584 2278 3584 
Q 2916 3584 3314 3078 
Q 3713 2572 3713 1747 
Q 3713 922 3314 415 
Q 2916 -91 2278 -91 
Q 1894 -91 1617 61 
Q 1341 213 1159 525 
z
M 3116 1747 
Q 3116 2381 2855 2742 
Q 2594 3103 2138 3103 
Q 1681 3103 1420 2742 
Q 1159 2381 1159 1747 
Q 1159 1113 1420 752 
Q 1681 391 2138 391 
Q 2594 391 2855 752 
Q 3116 1113 3116 1747 
z
" transform="scale(0.015625)"/>
      </defs>
      <use xlink:href="#DejaVuSans-4d"/>
      <use xlink:href="#DejaVuSans-20" transform="translate(86.279297 0)"/>
      <use xlink:href="#DejaVuSans-78" transform="translate(118.066406 0)"/>
      <use xlink:href="#DejaVuSans-20" transform="translate(177.246094 0)"/>
      <use xlink:href="#DejaVuSans-52" transform="translate(209.033203 0)"/>
      <use xlink:href="#DejaVuSans-59" transform="translate(272.140625 0)"/>
      <use xlink:href="#DejaVuSans-54" transform="translate(333.224609 0)"/>
      <use xlink:href="#DejaVuSans-4f" transform="translate(394.308594 0)"/>
      <use xlink:href="#DejaVuSans-45" transform="translate(473.019531 0)"/>
      <use xlink:href="#DejaVuSans-56" transform="translate(536.203125 0)"/>
      <use xlink:href="#DejaVuSans-20" transform="translate(604.611328 0)"/>
      <use xlink:href="#DejaVuSans-28" transform="translate(636.398438 0)"/>
      <use xlink:href="#DejaVuSans-66" transform="translate(675.412109 0)"/>
      <use xlink:href="#DejaVuSans-69" transform="translate(710.617188 0)"/>
      <use xlink:href="#DejaVuSans-78" transform="translate(738.400391 0)"/>
      <use xlink:href="#DejaVuSans-65" transform="translate(794.455078 0)"/>
      <use xlink:href="#DejaVuSans-64" transform="translate(855.978516 0)"/>
      <use xlink:href="#DejaVuSans-29" transform="translate(919.455078 0)"/>
      <use xlink:href="#DejaVuSans-3a" transform="translate(958.46875 0)"/>
      <use xlink:href="#DejaVuSans-20" transform="translate(992.160156 0)"/>
      <use xlink:href="#DejaVuSans-73" transform="translate(1023.947266 0)"/>
      <use xlink:href="#DejaVuSans-74" transform="translate(1076.046875 0)"/>
      <use xlink:href="#DejaVuSans-72" transform="translate(1115.255859 0)"/>
      <use xlink:href="#DejaVuSans-6f" transform="translate(1154.119141 0)"/>
      <use xlink:href="#DejaVuSans-6e" transform="translate(1215.300781 0)"/>
      <use xlink:href="#DejaVuSans-67" transform="translate(1278.679688 0)"/>
      <use xlink:href="#DejaVuSans-20" transform="translate(1342.15625 0)"/>
      <use xlink:href="#DejaVuSans-69" transform="translate(1373.943359 0)"/>
      <use xlink:href="#DejaVuSans-6e" transform="translate(1401.726562 0)"/>
      <use xlink:href="#DejaVuSans-2d" transform="translate(1465.105469 0)"/>
      <use xlink:href="#DejaVuSans-67" transform="translate(1501.189453 0)"/>
      <use xlink:href="#DejaVuSans-61" transform="translate(1564.666016 0)"/>
      <use xlink:href="#DejaVuSans-70" transform="translate(1625.945312 0)"/>
      <use xlink:href="#DejaVuSans-20" transform="translate(1689.421875 0)"/>
      <use xlink:href="#DejaVuSans-73" transform="translate(1721.208984 0)"/>
      <use xlink:href="#DejaVuSans-74" transform="translate(1773.308594 0)"/>
      <use xlink:href="#DejaVuSans-61" transform="translate(1812.517578 0)"/>
      <use xlink:href="#DejaVuSans-74" transform="translate(1873.796875 0)"/>
      <use xlink:href="#DejaVuSans-65" transform="translate(1913.005859 0)"/>
     </g>
    </g>
   </g>
  </g>
 </g>
 <defs>
  <clipPath id="p432aff24b9">
   <rect x="55.345313" y="7.2" width="491.04" height="221.76"/>
  </clipPath>
 </defs>
</svg>
